<?xml version="1.0" standalone="no"?>
<!DOCTYPE svg PUBLIC "-//W3C//DTD SVG 20010904//EN"
 "http://www.w3.org/TR/2001/REC-SVG-20010904/DTD/svg10.dtd">
<svg version="1.0" xmlns="http://www.w3.org/2000/svg"
 width="512.000000pt" height="512.000000pt" viewBox="0 0 512.000000 512.000000"
 preserveAspectRatio="xMidYMid meet">
<metadata>
Created by potrace 1.11, written by Peter Selinger 2001-2013
</metadata>
<g transform="translate(0.000000,512.000000) scale(0.100000,-0.100000)"
fill="#000000" stroke="none">
<path d="M2420 5114 c-940 -63 -1750 -600 -2155 -1428 -274 -562 -335 -1164
-180 -1772 45 -177 91 -298 185 -489 134 -273 264 -451 494 -680 223 -221 395
-345 671 -480 249 -123 476 -194 750 -237 200 -31 550 -31 750 0 160 25 365
77 504 128 125 46 373 168 485 239 215 136 448 342 611 540 572 696 735 1633
434 2485 -85 241 -246 528 -413 740 -76 96 -299 319 -395 394 -376 298 -800
478 -1271 541 -110 14 -376 25 -470 19z m-902 -1610 c126 -52 178 -200 115
-325 -87 -170 -329 -170 -415 0 -32 62 -37 140 -14 195 20 48 75 107 121 127
50 23 143 24 193 3z m710 -10 c30 -15 64 -42 81 -66 34 -46 56 -125 48 -173
-5 -31 -485 -1328 -549 -1482 -48 -117 -127 -173 -245 -173 -133 0 -246 127
-230 258 6 49 546 1509 574 1551 69 105 207 142 321 85z m740 10 c85 -35 144
-122 145 -214 0 -51 -31 -140 -282 -812 -215 -576 -289 -764 -313 -793 -110
-133 -334 -105 -405 52 -44 96 -46 91 251 888 148 396 275 734 283 750 49 97
120 144 221 145 35 0 79 -7 100 -16z m793 -19 c24 -17 57 -50 74 -74 28 -40
30 -49 29 -124 -1 -82 -1 -83 -273 -807 -150 -399 -283 -743 -296 -766 -40
-68 -121 -114 -202 -114 -68 0 -119 19 -167 62 -80 70 -97 165 -52 293 47 136
527 1418 541 1445 17 33 78 88 119 106 20 9 58 13 108 12 67 -3 82 -7 119 -33z
m129 -1436 c93 -42 143 -117 143 -214 1 -134 -99 -235 -233 -235 -211 0 -315
258 -163 402 40 38 111 68 163 68 25 0 65 -10 90 -21z"/>
</g>
</svg>
