<?xml version="1.0" encoding="UTF-8" standalone="no"?><!DOCTYPE svg PUBLIC "-//W3C//DTD SVG 1.1//EN" "http://www.w3.org/Graphics/SVG/1.1/DTD/svg11.dtd"><svg width="100%" height="100%" viewBox="0 0 16 16" version="1.1" xmlns="http://www.w3.org/2000/svg" xmlns:xlink="http://www.w3.org/1999/xlink" xml:space="preserve" xmlns:serif="http://www.serif.com/" style="fill-rule:evenodd;clip-rule:evenodd;stroke-linejoin:round;stroke-miterlimit:1.41421;"><g><g><path d="M8,0c4.415,0 8,3.585 8,8c0,4.415 -3.585,8 -8,8c-4.415,0 -8,-3.585 -8,-8c0,-4.415 3.585,-8 8,-8Zm-4.654,10.313c0.23,0 0.417,0.181 0.417,0.404c0,0.223 -0.187,0.404 -0.417,0.404c-0.23,0 -0.417,-0.181 -0.417,-0.404c0,-0.223 0.187,-0.404 0.417,-0.404Zm8.421,-4.53c0.079,-0.421 -0.196,-0.821 -0.617,-0.891c-0.421,-0.071 -0.829,0.208 -0.912,0.629l-0.921,4.696c-0.084,0.421 0.191,0.821 0.612,0.891c0.421,0.071 0.829,-0.208 0.913,-0.629l0.925,-4.696Zm-2.517,0c0.083,-0.421 -0.192,-0.821 -0.617,-0.891c-0.42,-0.071 -0.829,0.208 -0.912,0.629l-0.921,4.696c-0.083,0.421 0.192,0.821 0.613,0.891c0.42,0.071 0.833,-0.208 0.912,-0.629l0.925,-4.696Zm-2.517,0c0.084,-0.421 -0.191,-0.821 -0.616,-0.891c-0.421,-0.071 -0.83,0.208 -0.913,0.629l-0.921,4.696c-0.083,0.421 0.192,0.821 0.613,0.891c0.421,0.071 0.833,-0.208 0.912,-0.629l0.925,-4.696Zm5.921,-0.904c0.23,0 0.417,0.181 0.417,0.404c0,0.223 -0.187,0.404 -0.417,0.404c-0.23,0 -0.416,-0.181 -0.416,-0.404c0,-0.223 0.186,-0.404 0.416,-0.404Z"/></g></g></svg>