<?xml version="1.0" encoding="UTF-8" standalone="no"?><!DOCTYPE svg PUBLIC "-//W3C//DTD SVG 1.1//EN" "http://www.w3.org/Graphics/SVG/1.1/DTD/svg11.dtd"><svg width="100%" height="100%" viewBox="0 0 1711 1711" version="1.1" xmlns="http://www.w3.org/2000/svg" xmlns:xlink="http://www.w3.org/1999/xlink" xml:space="preserve" xmlns:serif="http://www.serif.com/" style="fill-rule:evenodd;clip-rule:evenodd;stroke-linejoin:round;stroke-miterlimit:1.41421;"><g><g id="Layer_2_26_"><path d="M1023.69,898.725c132.929,-125.05 297.937,-280.35 320.629,-418.525c15.908,-97.692 0.391,-178.254 -46.225,-239.425c-47.075,-61.746 -118.58,-96.979 -218.8,-107.717c-9.634,-0.966 -18.43,-1.425 -27.159,-1.425c-70.925,0 -142.441,26.379 -197.4,70.996c-54.887,-44.617 -126.466,-70.996 -197.254,-70.996c-8.808,0 -17.533,0.454 -27.233,1.425c-100.225,10.734 -171.792,45.967 -218.804,107.717c-46.613,61.171 -62.138,141.733 -46.234,239.425c22.696,138.242 187.7,293.479 320.638,418.525c0,0 66.337,66.596 86.246,83.667c15.016,12.866 47.479,38.729 82.704,38.729c35.175,0 67.7,-25.863 82.637,-38.729c19.913,-17.071 86.254,-83.667 86.254,-83.667Z" style="fill:#3755be;fill-rule:nonzero;"/><path d="M620.121,1113.91c-7.233,-5.558 -64.596,-48.941 -223.708,-59.554c-8.734,-0.708 -17.596,-6.916 -25.359,-12.083c-1.891,-1.263 -3.796,-2.546 -5.696,-3.842c-8.016,-5.483 -15.9,-11.375 -21.979,-18.596c-12.146,-14.55 -25.916,-26.775 -37.492,-42.937c-77.325,-107.846 -153.166,-129.442 -164.495,-133.771c-15.059,-7.233 -25.342,-9.35 -28.696,-19.654c-1.363,-4.783 -14.488,-130.021 -16.825,-151.042c-6.517,-60.391 -12.988,-105.133 -47.584,-117.283c-8.916,-3.175 -15.258,-2.133 -21.845,4.908c-7.9,8.284 -12.546,52.125 -14.817,79.859c0,0 -13.033,162.041 -11.5,218.22c1.533,56.18 98.746,280.605 150.833,332.975c52.088,52.371 293.159,189.388 293.159,189.388c8.671,7.233 56.841,44.287 56.841,92.912l0,54.8c0,0 -6.87,50.709 48.692,50.709c55.563,0 132.642,0.221 187.504,0.221c54.863,0 44.159,-49.546 44.2,-66.905c0.034,-12.354 0.059,-22.2 0.071,-26.879c0.004,-1.896 0.004,-2.962 0.004,-2.962c0.654,-17.913 3.696,-35.692 5.829,-53.475c6.075,-20.363 1.23,-58.838 -1.62,-73.771c-32.592,-145.279 -152.467,-231.079 -165.517,-241.238Z" style="fill:#c3ccec;fill-rule:nonzero;"/><path d="M1697.9,639.913c-2.271,-27.734 -6.916,-71.575 -14.816,-79.859c-6.588,-7.037 -12.93,-8.079 -21.846,-4.908c-34.6,12.15 -41.067,56.892 -47.584,117.283c-2.337,21.021 -15.462,146.259 -16.825,151.042c-3.354,10.304 -13.637,12.417 -28.695,19.654c-11.33,4.329 -87.171,25.929 -164.496,133.771c-11.575,16.162 -25.346,28.387 -37.492,42.937c-6.079,7.217 -13.962,13.109 -21.979,18.596c-1.9,1.296 -3.804,2.579 -5.696,3.842c-7.767,5.167 -16.625,11.375 -25.358,12.083c-159.113,10.613 -216.475,53.996 -223.709,59.554c-13.05,10.159 -132.925,95.955 -165.516,241.234c-2.85,14.933 -7.696,53.408 -1.621,73.771c2.133,17.783 5.175,35.562 5.829,53.475c0,0 0,1.066 0.004,2.962c0.013,4.679 0.038,14.525 0.071,26.879c0.046,17.359 -10.662,66.904 44.2,66.904c54.863,0 131.942,-0.22 187.504,-0.22c55.563,0 48.692,-50.709 48.692,-50.709l0,-54.8c0,-48.625 48.171,-85.679 56.842,-92.912c0,0 259.983,-149.879 293.158,-189.388c33.175,-39.508 144.479,-278.183 150.833,-332.975c6.354,-54.791 -11.5,-218.216 -11.5,-218.216Z" style="fill:#c3ccec;fill-rule:nonzero;"/></g></g></svg>