<?xml version="1.0" encoding="UTF-8" standalone="no"?><!DOCTYPE svg PUBLIC "-//W3C//DTD SVG 1.1//EN" "http://www.w3.org/Graphics/SVG/1.1/DTD/svg11.dtd"><svg width="100%" height="100%" viewBox="0 0 2134 2134" version="1.1" xmlns="http://www.w3.org/2000/svg" xmlns:xlink="http://www.w3.org/1999/xlink" xml:space="preserve" xmlns:serif="http://www.serif.com/" style="fill-rule:evenodd;clip-rule:evenodd;stroke-linejoin:round;stroke-miterlimit:1.41421;"><path d="M2085.94,360.189l-1004.17,-250c-9.929,-2.474 -20.28,-2.474 -30.209,0l-1004.17,250c-27.848,6.933 -47.396,31.95 -47.396,60.644c0,28.711 19.548,53.728 47.396,60.661l1004.17,250c4.965,1.221 10.027,1.839 15.105,1.839c5.078,0 10.14,-0.618 15.104,-1.839l926.562,-230.696l0,295.035c0,34.522 27.979,62.5 62.5,62.5c34.522,0 62.5,-27.978 62.5,-62.5l0,-375c0,-28.694 -19.547,-53.711 -47.396,-60.644Z" style="fill:#3755be;fill-rule:nonzero;"/><path d="M1111.96,852.783c-14.795,3.679 -30.029,5.55 -45.296,5.55c-15.267,0 -30.502,-1.871 -45.313,-5.55l-704.687,-175.439l0,597.656l1500,0l0,-597.656l-704.704,175.439Z" style="fill:#c3ccec;fill-rule:nonzero;"/><path d="M2133.33,1462.5c0,-34.521 -27.978,-62.5 -62.5,-62.5l-1758.33,0c-172.314,0 -312.5,140.186 -312.5,312.5c0,172.314 140.186,312.5 312.5,312.5l1758.33,0c34.522,0 62.5,-27.979 62.5,-62.5c0,-34.521 -27.978,-62.5 -62.5,-62.5l-1758.33,0c-103.385,0 -187.5,-84.115 -187.5,-187.5c0,-103.385 84.115,-187.5 187.5,-187.5l1758.33,0c34.522,0 62.5,-27.979 62.5,-62.5Z" style="fill:#3755be;fill-rule:nonzero;"/><path d="M250,1712.5c0,34.473 28.044,62.5 62.5,62.5l1695.83,0l0,-125l-1695.83,0c-34.456,0 -62.5,28.044 -62.5,62.5Z" style="fill:#c3ccec;fill-rule:nonzero;"/></svg>