<?xml version="1.0" encoding="UTF-8" standalone="no"?><!DOCTYPE svg PUBLIC "-//W3C//DTD SVG 1.1//EN" "http://www.w3.org/Graphics/SVG/1.1/DTD/svg11.dtd"><svg width="100%" height="100%" viewBox="0 0 1366 769" version="1.1" xmlns="http://www.w3.org/2000/svg" xmlns:xlink="http://www.w3.org/1999/xlink" xml:space="preserve" xmlns:serif="http://www.serif.com/" style="fill-rule:evenodd;clip-rule:evenodd;stroke-linejoin:round;stroke-miterlimit:1.41421;"><path id="Path_2" d="M825.493,769l540.507,0l0,-769l-578.33,0c-34.018,19.44 -80.6,54.269 -112.17,112.5c-46.16,85.132 -57.327,214.893 2,262c67.775,53.815 176.03,-41.145 240,6c71.738,52.87 78.814,222.855 -4,323c-25.645,31.011 -56.932,51.7 -88.007,65.5Z" style="fill:url(#_Linear1);fill-rule:nonzero;"/><path id="Path_3" d="M1230,181c15.286,107.84 67.584,118.235 80,206c17.149,121.223 -59.333,264.966 -124,264c-47.963,-0.716 -26.671,-130.619 -132,-228c-77.4,-71.562 -197.516,-104.326 -228,-70c-5.268,5.932 -7.568,13.54 -7.932,22.159c36.815,-9.023 72.151,-14.765 99.432,5.341c51.19,37.726 69.442,135.081 45.617,224.144c25.738,25.439 50.069,52.265 72.883,80.356c31.9,39.344 47.912,65.3 60.586,84l269.414,0l0,-769l-109.987,0c-33.066,44.995 -33.504,128.156 -26.013,181Z" style="fill:url(#_Linear2);fill-rule:nonzero;"/><path id="Path_4" d="M354.425,250.868c3.09,-22 -44.15,-65.247 -90.1,-79.993c-13.042,-4.185 -88.4,-28.369 -114.082,36.36c-5.543,13.973 -16.084,46.978 -5.814,60.6c9.575,12.7 56.678,9.7 122.8,-13.333c69.707,-24.274 85.304,9.84 87.196,-3.634Z" style="fill:#2dc08f;fill-opacity:0.14;fill-rule:nonzero;"/><path id="Path_5" d="M302.5,640.5c-114.359,-14.23 -240.6,29.614 -302.5,77.58l0,50.92l568.728,0c-85.86,-40.69 -146.415,-113.591 -266.228,-128.5Z" style="fill:#2dc08f;fill-rule:nonzero;"/><path id="Path_6" d="M0,675.837l0,79.163l523.728,0c-85.86,-40.69 -146.415,-113.591 -266.228,-128.5c-91.15,-11.342 -189.849,14.21 -257.5,49.337Z" style="fill:#03b278;fill-opacity:0.19;fill-rule:nonzero;"/><circle id="Ellipse_1" cx="1107.5" cy="86.5" r="11.5" style="fill:#fff;fill-opacity:0.2;"/><circle id="Ellipse_2" cx="752" cy="365" r="3" style="fill:#fff;fill-opacity:0.12;"/><circle id="Ellipse_3" cx="1126" cy="412" r="8" style="fill:#fff;fill-opacity:0.2;"/><circle id="Ellipse_4" cx="782" cy="42" r="7" style="fill:#fff;fill-opacity:0.13;"/><path id="Path_7" d="M816,287c27.106,-49.532 13.91,-119.492 -20,-138c-25.707,-14.031 -48.9,9.377 -72,-6c-22.227,-14.8 -19.04,-48.639 -19.675,-73.317c-10.947,13.324 -20.599,27.661 -28.825,42.817c-18.479,34.08 -31.341,75.311 -36.327,115.529c9.498,9.173 17.235,20.009 22.827,31.971c20.979,43.72 3.722,69.376 23,84c27.767,21.064 101.612,-3.3 131,-57Z" style="fill:url(#_Linear3);fill-rule:nonzero;"/><defs><linearGradient id="_Linear1" x1="0" y1="0" x2="1" y2="0" gradientUnits="userSpaceOnUse" gradientTransform="matrix(-1392.64,990.472,-990.472,-1392.64,1506.72,77.669)"><stop offset="0" style="stop-color:#2dc08f;stop-opacity:1"/><stop offset="0.35" style="stop-color:#23eaa8;stop-opacity:1"/><stop offset="0.65" style="stop-color:#49f7b8;stop-opacity:1"/><stop offset="0.86" style="stop-color:#4cf49a;stop-opacity:1"/><stop offset="1" style="stop-color:#3df399;stop-opacity:1"/></linearGradient><linearGradient id="_Linear2" x1="0" y1="0" x2="1" y2="0" gradientUnits="userSpaceOnUse" gradientTransform="matrix(-538.069,804.374,-804.374,-538.069,1459.7,16.918)"><stop offset="0" style="stop-color:#fff;stop-opacity:0.18"/><stop offset="0.69" style="stop-color:#fff;stop-opacity:0.0152941"/><stop offset="1" style="stop-color:#fff;stop-opacity:0"/></linearGradient><linearGradient id="_Linear3" x1="0" y1="0" x2="1" y2="0" gradientUnits="userSpaceOnUse" gradientTransform="matrix(1,0,0,1,0,0.5)"><stop offset="0" style="stop-color:#fff;stop-opacity:0.18"/><stop offset="0.69" style="stop-color:#fff;stop-opacity:0.0152941"/><stop offset="1" style="stop-color:#fff;stop-opacity:0"/></linearGradient></defs></svg>