<?xml version="1.0" encoding="UTF-8" standalone="no"?><!DOCTYPE svg PUBLIC "-//W3C//DTD SVG 1.1//EN" "http://www.w3.org/Graphics/SVG/1.1/DTD/svg11.dtd"><svg width="100%" height="100%" viewBox="0 0 13109 13542" version="1.1" xmlns="http://www.w3.org/2000/svg" xmlns:xlink="http://www.w3.org/1999/xlink" xml:space="preserve" xmlns:serif="http://www.serif.com/" style="fill-rule:evenodd;clip-rule:evenodd;stroke-miterlimit:10;"><path d="M1528.95,10972.3c0,0 351.036,-714.205 447.433,-698.908c45.89,7.517 66.989,52.748 76.484,97.847c11.834,58.506 5.149,119.27 -19.121,173.804c-49.847,114.726 -183.826,331.651 -504.796,427.257Z" style="fill:#3855be;fill-rule:nonzero;"/><path d="M1973.88,10409.2c0,0 -369.234,534.334 -439.784,557.807" style="fill:none;fill-rule:nonzero;stroke:#565987;stroke-width:13.19px;"/><path d="M841.649,9504.75c0,0 883.525,276.925 685.721,1459.79" style="fill:none;fill-rule:nonzero;stroke:#565987;stroke-width:13.19px;"/><path d="M2007.77,10492.7l-85.978,0" style="fill:none;fill-rule:nonzero;stroke:#565987;stroke-width:13.19px;"/><path d="M2263.86,10851.4c-9.575,-7.73 -16.531,-18.233 -19.913,-30.066c-3.37,-12.191 2.481,-25.175 13.847,-30.725c13.187,-4.88 26.374,3.956 36.923,13.187c10.55,9.23 22.418,19.252 36,17.274c-14.222,-12.828 -20.692,-32.237 -17.011,-51.033c0.586,-3.845 2.23,-7.453 4.748,-10.418c7.121,-7.648 20.044,-4.351 28.615,1.583c27.033,19.121 34.682,55.912 34.814,89.143c1.32,-12.228 1.32,-24.563 0,-36.791c-1.194,-12.311 3.742,-24.454 13.187,-32.44c6.447,-3.417 13.673,-5.099 20.967,-4.879c12.225,-1.721 24.627,1.774 34.154,9.626c9.237,12.59 8.634,30.013 -1.451,41.935c-10.027,11.359 -21.938,20.906 -35.209,28.22c-10.088,6.01 -18.696,14.213 -25.187,24c-0.772,1.379 -1.391,2.838 -1.846,4.352l-75.033,0c-17.308,-8.749 -33.328,-19.843 -47.605,-32.968Z" style="fill:#3855be;fill-rule:nonzero;"/><path d="M1818.01,11139.1c-9.546,-7.837 -16.529,-18.357 -20.045,-30.198c-3.349,-12.224 2.563,-25.219 13.979,-30.725c13.186,-4.88 26.373,3.956 36.923,13.187c10.55,9.23 22.286,19.252 36,17.406c-14.2,-12.899 -20.661,-32.331 -17.011,-51.165c0.586,-3.845 2.229,-7.453 4.747,-10.418c7.121,-7.648 20.045,-4.351 28.616,1.715c27.033,18.989 34.55,55.78 34.814,89.011c1.319,-12.184 1.319,-24.475 0,-36.659c-1.036,-12.427 4.156,-24.591 13.846,-32.44c6.412,-3.522 13.655,-5.253 20.967,-5.011c12.247,-1.735 24.672,1.815 34.154,9.758c9.216,12.549 8.613,29.923 -1.45,41.803c-10.055,11.331 -21.961,20.874 -35.209,28.22c-10.086,6.07 -18.692,14.315 -25.187,24.132c-0.797,1.32 -1.418,2.739 -1.847,4.22l-76.484,0c-16.996,-8.813 -32.74,-19.856 -46.813,-32.836Z" style="fill:#3855be;fill-rule:nonzero;"/><path d="M5901.55,742.825c-490.159,-199.255 -1008.14,-366.069 -1536.94,-344.839c-778.029,30.594 -1523.22,498.203 -1889.29,1184.85c-310.157,581.676 -348.399,1263.57 -481.982,1909.07c-164.573,795.436 -479.741,1551.31 -816.535,2290.57c-180.925,396.531 -371.74,802.689 -401.41,1237.99c-41.275,604.225 247.65,1206.47 700.621,1608.81c452.972,402.334 1054.95,613.984 1658.52,660.27c321.365,24.659 657.105,1.846 942.602,-147.694c301.98,-158.243 522.07,-444.267 825.238,-600.137c281.013,-145.056 609.632,-164.837 925.063,-145.979c413.153,24.721 820.278,111.222 1207.79,256.617c440.839,165.628 850.821,405.367 1290.74,573.236c439.916,167.87 931.393,261.629 1381.07,121.452c421.982,-131.869 756.139,-450.993 1057.2,-774.732c494.138,-531.376 944.821,-1101.57 1347.7,-1705.07c271.519,-406.685 524.181,-835.787 644.314,-1309.86c229.452,-906.205 -86.375,-1928.72 -787.128,-2547.72c-580.225,-512.708 -1359.44,-735.303 -2122.04,-870.337c-695.347,-123.166 -1499.35,-130.815 -2139.45,-451.784c-610.555,-306.597 -1165.99,-684.402 -1806.08,-944.712Z" style="fill:#3855be;fill-opacity:0.1;fill-rule:nonzero;"/><path d="M2709.85,12758.4c-42.633,-51.32 -62.2,-118.052 -54.03,-184.268l776.844,-6356.43l64.414,-527.986c14.863,-120.927 118.224,-213.073 240.058,-214.011l2275.45,-15.135c132.96,-0.815 241.91,-110.435 241.91,-243.398c0,-2.231 -0.031,-4.462 -0.092,-6.692l-0.88,-24.111c-0.094,-2.757 -0.141,-5.514 -0.141,-8.272c0,-133.61 109.933,-243.559 243.543,-243.578l2391.08,0c133.327,0 243.112,109.547 243.402,242.874c-0.014,10.945 -0.719,21.879 -2.112,32.735c-1.432,10.702 -2.151,21.487 -2.151,32.284c0,131.216 106.106,240.025 237.281,243.325l2296.39,58.606c131.134,3.225 237.247,111.98 237.247,243.153c0,13.827 -1.179,27.629 -3.525,41.256l-1148.02,6705.43l-21.648,126.716c-5.351,32.372 -17.335,63.292 -35.199,90.814l-7979.81,6.688Z" style="fill:#b7b6cc;fill-rule:nonzero;"/><path d="M9620.16,3536.4l-2629.33,3805.74l1163.6,803.913l2629.33,-3805.74l-1163.6,-803.914Z" style="fill:url(#_Linear1);"/><path d="M10746.1,4352.17l-1106.26,-764.298l-2594.11,3754.77l1106.26,764.298l2594.11,-3754.77Z" style="fill:#f9fafb;"/><path d="M10499,4307.59l-779.452,-541.815l-541.815,779.453l779.453,541.814l541.814,-779.452Z" style="fill:#f7b643;"/><path d="M9890.96,5245.4l-782.057,-540.311l-540.311,782.057l782.057,540.311l540.311,-782.057Z" style="fill:#f7b643;fill-opacity:0.5;"/><path d="M9238.47,6189.59l-782.057,-540.311l-540.311,782.057l782.057,540.311l540.311,-782.057Z" style="fill:#f7b643;fill-opacity:0.3;"/><path d="M8040.88,3309.83l-1292.66,4423.43l1357.52,396.71l1292.66,-4423.43l-1357.52,-396.71Z" style="fill:url(#_Linear2);"/><path d="M9367.43,3729.87l-1290.63,-377.161l-1275.29,4363.97l1290.62,377.161l1275.29,-4363.97Z" style="fill:#f9fafb;"/><path d="M9158.64,3745.31l-912.391,-266.629l-266.629,912.391l912.391,266.629l266.629,-912.391Z" style="fill:#f97878;"/><path d="M8836.7,4846.81l-912.391,-266.629l-266.629,912.392l912.391,266.629l266.629,-912.392Z" style="fill:#f97878;fill-opacity:0.5;"/><path d="M8514.82,5948.15l-912.391,-266.629l-266.629,912.391l912.391,266.629l266.629,-912.391Z" style="fill:#f97878;fill-opacity:0.3;"/><path d="M7120.22,3386.72l-369.592,4593.6l1409.75,113.426l369.592,-4593.6l-1409.75,-113.425Z" style="fill:url(#_Linear3);"/><path d="M8502.86,3529.36l-1340.28,-107.836l-364.624,4531.85l1340.28,107.836l364.624,-4531.85Z" style="fill:#f9fafb;"/><path d="M8300.83,3586.88l-947.49,-76.233l-76.233,947.49l947.49,76.233l76.233,-947.49Z" style="fill:#73b53b;"/><path d="M8208.69,4730.52l-947.49,-76.234l-76.233,947.49l947.49,76.234l76.233,-947.49Z" style="fill:#73b53b;fill-opacity:0.5;"/><path d="M8116.71,5874.53l-947.49,-76.234l-76.233,947.49l947.49,76.233l76.233,-947.489Z" style="fill:#73b53b;fill-opacity:0.3;"/><path d="M7924.65,3510.51l-1412.83,64.404l209.856,4603.66l1412.83,-64.404l-209.856,-4603.66Z" style="fill:url(#_Linear4);"/><path d="M7902.82,3542.51l-1343.21,61.23l207.035,4541.78l1343.21,-61.229l-207.035,-4541.78Z" style="fill:#fff;"/><path d="M7709.42,3624.67l-949.566,43.285l43.286,949.566l949.565,-43.286l-43.285,-949.565Z" style="fill:#3855be;"/><path d="M7799.88,4730.44l-950.552,47.528l47.528,950.551l950.552,-47.527l-47.528,-950.552Z" style="fill:#3855be;fill-opacity:0.5;"/><path d="M7813.89,5917.44l-949.566,43.286l43.285,949.565l949.566,-43.285l-43.285,-949.566Z" style="fill:#3855be;fill-opacity:0.3;"/><path d="M7129.98,9595.26l-1194.66,462.165l-1746.05,674.942c-65.998,-123.196 -163.147,-289.688 -283.352,-488.387c-413.59,-685.327 -1097.86,-1751.33 -1707.16,-2688.16c-686.382,-1055.97 -1277.2,-1947.04 -1277.2,-1947.04l427.669,-123.197l3493.51,-1014.26l2287.24,5123.93Z" style="fill:#e6ecf8;fill-rule:nonzero;"/><path d="M7129.98,9595.26l-1194.66,462.165c-667.367,139.038 -1348.4,201.626 -2029.93,186.555c-413.59,-685.327 -1097.86,-1751.33 -1707.16,-2688.16l-848.826,-2070.94l3493.34,-1013.56l2287.24,5123.93Z" style="fill-opacity:0.1;fill-rule:nonzero;"/><path d="M8018.76,9307.68c0,0 -1855.87,1097.86 -4626.75,849.53l-2208.92,-5385.46l1058.61,-181.979l3659.65,-628.48l2076.75,5241.67l40.655,104.718Z" style="fill:#3855be;fill-rule:nonzero;"/><path d="M7977.4,9203.67c-436.997,21.472 -942.632,19.36 -1451.26,-41.359c-550.514,-64.766 -1104.2,-198.171 -1578.86,-442.804c-396.87,-204.331 -736.189,-426.614 -1032.04,-693.247c-769.628,-692.19 -1245.87,-1682.34 -1673.54,-3435.78l3659.65,-628.48l2076.04,5241.67Z" style="fill-opacity:0.1;fill-rule:nonzero;"/><path d="M9338.9,8902.54c0,0 -1368.01,267.865 -2760.49,102.957c-550.514,-64.766 -1104.2,-198.171 -1578.86,-442.804c-396.87,-204.331 -736.013,-426.614 -1032.04,-693.247c-952.488,-856.922 -1455.48,-2170.2 -1974.14,-4822.28c0,0 2274.21,548.93 4523.09,-653.471c-0.704,0.88 757.309,4731.29 2822.44,6508.84Z" style="fill:#f9fafb;fill-rule:nonzero;"/><path d="M6578.41,9005.5c-550.514,-64.766 -1104.2,-198.171 -1578.86,-442.804c-396.87,-204.331 -736.013,-426.614 -1032.04,-693.247c810.987,-65.822 927.497,-509.155 927.497,-509.155c601.2,954.072 1683.4,1645.21 1683.4,1645.21Z" style="fill-opacity:0.1;fill-rule:nonzero;"/><path d="M3169.73,4020.78c0,0 1849.36,-104.541 2365.73,-503.171l78.318,251.674c0,0 -1221.94,539.074 -2444.05,545.586l0,-294.089Z" style="fill:#3855be;fill-opacity:0.3;fill-rule:nonzero;"/><path d="M3169.73,5263.3c0,0 1790.58,-98.03 3143.46,-751.501l45.759,104.541c0,0 -1073.57,626.72 -3189.22,790.748l0,-143.788Z" style="fill:#3855be;fill-opacity:0.3;fill-rule:nonzero;"/><path d="M3313.87,5747.47c0,0 1790.58,-98.029 3143.28,-751.501l45.759,104.542c0,0 -1073.57,626.544 -3189.04,790.748l0,-143.789Z" style="fill:#3855be;fill-opacity:0.3;fill-rule:nonzero;"/><path d="M3457.84,6232.34c0,0 1790.58,-98.03 3143.46,-751.501l45.583,104.541c0,0 -1073.57,626.72 -3189.04,790.748l0,-143.788Z" style="fill:#3855be;fill-opacity:0.3;fill-rule:nonzero;"/><path d="M3601.97,6717.2c0,0 1790.58,-98.03 3143.28,-751.501l45.759,104.541c0,0 -1073.57,626.72 -3189.04,790.748l0,-143.788Z" style="fill:#3855be;fill-opacity:0.3;fill-rule:nonzero;"/><path d="M3745.94,7202.25c0,0 1790.58,-98.029 3143.46,-751.501l45.583,104.542c0,0 -1073.57,626.544 -3189.04,790.748l0,-143.789Z" style="fill:#3855be;fill-opacity:0.3;fill-rule:nonzero;"/><path d="M8559.23,923.321l-686.27,2110.87l3777.29,1228.05l686.27,-2110.87l-3777.29,-1228.05Z" style="fill:#f6f7f9;"/><circle cx="8965.65" cy="2091.63" r="413.542" style="fill:#3855be;fill-opacity:0.2;"/><path d="M9990.11,1909.45l-35.023,107.726l1713.45,557.064l35.023,-107.725l-1713.45,-557.065Z" style="fill:#3855be;fill-opacity:0.2;"/><path d="M9900.8,2184.11l-35.023,107.725l872.84,283.772l35.023,-107.726l-872.84,-283.771Z" style="fill:#3855be;fill-opacity:0.2;"/><path d="M9811.35,2458.93l-35.023,107.726l1411.72,458.967l35.023,-107.725l-1411.72,-458.968Z" style="fill:#3855be;fill-opacity:0.2;"/><path d="M9722.08,2733.66l-35.023,107.725l1713.45,557.065l35.023,-107.726l-1713.45,-557.064Z" style="fill:#3855be;fill-opacity:0.2;"/><path d="M10832.4,3533.25l-67.722,208.302l474.168,154.158l67.721,-208.302l-474.167,-154.158Z" style="fill:#3855be;fill-opacity:0.5;"/><g><path d="M10697.3,4351.21l-2033.19,887.92l1382.26,3165.16l2033.19,-887.919l-1382.26,-3165.16Z" style="fill:#f9fafb;"/><path d="M9668.44,5115.22l-573.89,254.274l59.829,135.033l573.89,-254.274l-59.829,-135.033Z" style="fill:#b7b6cc;"/><path d="M10627,5121.3l-1260.39,558.439l54.861,123.821l1260.39,-558.44l-54.861,-123.82Z" style="fill:#b7b6cc;"/><path d="M10744.3,5385.69l-1260.39,558.44l54.861,123.82l1260.39,-558.44l-54.861,-123.82Z" style="fill:#b7b6cc;"/><path d="M10861.4,5650.25l-1260.39,558.439l54.861,123.821l1260.39,-558.44l-54.861,-123.82Z" style="fill:#b7b6cc;"/><path d="M10948.1,5985.02l-1261.58,550.945l54.124,123.937l1261.58,-550.945l-54.124,-123.937Z" style="fill:#b7b6cc;"/><path d="M11095.8,6179.14l-1260.39,558.44l54.861,123.82l1260.39,-558.439l-54.861,-123.821Z" style="fill:#fff;"/><path d="M11213,6443.54l-1260.39,558.439l54.861,123.821l1260.39,-558.44l-54.862,-123.82Z" style="fill:#fff;"/><path d="M11498.7,6875.71l-326.37,144.604l144.604,326.37l326.37,-144.605l-144.604,-326.369Z" style="fill:#b7b6cc;"/></g><path d="M9284.34,6241.84l-2694.14,29.039c-100.19,1.054 -182.065,83.72 -182.155,183.915l0,222.635c-0.064,99.217 -80.329,181.449 -179.515,183.915l-1944.05,46.639c-84.498,2.119 -160.1,-54.272 -182.155,-135.869l-91.342,-335.623c-21.836,-80.706 -96.089,-136.851 -179.691,-135.869l-2596.81,27.984c-100.208,0.981 -182.114,83.693 -182.114,183.906c0,10.324 0.869,20.63 2.598,30.808l1044.71,6148.58c14.912,87.879 91.613,152.93 180.747,153.293l8203.85,35.199c0.207,0 0.414,0.001 0.621,0.001c100.99,0 184.092,-83.102 184.092,-184.092c0,-11.575 -1.092,-23.125 -3.261,-34.496l-1198.88,-6270.54c-16.616,-87.044 -93.896,-150.314 -182.507,-149.42Z" style="fill:#e6e8ee;fill-rule:nonzero;"/><ellipse cx="1531.85" cy="10971" rx="213.76" ry="29.407" style="fill:#3855be;fill-opacity:0.1;"/><ellipse cx="567.493" cy="10858.6" rx="213.76" ry="29.407" style="fill:#3855be;fill-opacity:0.1;"/><ellipse cx="1009.78" cy="11186.6" rx="151.913" ry="20.835" style="fill:#3855be;fill-opacity:0.1;"/><path d="M1527.24,10964.5c0,0 299.739,-982.69 -46.946,-1376.32c-259.387,-294.464 -553.851,-259.255 -685.72,-222.859c-68.969,18.424 -126.481,66.237 -157.188,130.683c-46.155,99.429 -37.847,260.837 287.607,449.278c544.752,315.432 578.642,748.095 578.642,748.095l23.605,271.123Z" style="fill:#3855be;fill-rule:nonzero;"/><path d="M1357.79,9603.78c0,0 -121.716,82.023 -82.946,205.32" style="fill:none;fill-rule:nonzero;stroke:#565987;stroke-width:13.19px;"/><path d="M930.265,9676.84c0,0 74.375,-75.693 164.969,-33.89" style="fill:none;fill-rule:nonzero;stroke:#565987;stroke-width:13.19px;"/><path d="M1279.59,10057.4c0,0 130.683,-65.934 164.441,16.748" style="fill:none;fill-rule:nonzero;stroke:#565987;stroke-width:13.19px;"/><path d="M1602.8,10195.5c0,0 -98.111,-7.78 -99.825,39.561" style="fill:none;fill-rule:nonzero;stroke:#565987;stroke-width:13.19px;"/><path d="M1539.37,10972.3c0,0 -351.168,-714.205 -447.565,-698.908c-45.758,7.517 -66.858,52.748 -76.484,97.847c-11.834,58.506 -5.149,119.27 19.121,173.804c49.847,114.726 183.694,331.651 504.928,427.257Z" style="fill:#3855be;fill-rule:nonzero;"/><path d="M1094.44,10409.2c0,0 368.442,534.334 439.652,557.807" style="fill:none;fill-rule:nonzero;stroke:#565987;stroke-width:13.19px;"/><path d="M1060.55,10492.7l85.979,0" style="fill:none;fill-rule:nonzero;stroke:#565987;stroke-width:13.19px;"/><path d="M1163.54,10688.1l134.902,5.802" style="fill:none;fill-rule:nonzero;stroke:#565987;stroke-width:13.19px;"/><path d="M1245.7,10531.7l-14.638,70.287" style="fill:none;fill-rule:nonzero;stroke:#565987;stroke-width:13.19px;"/><path d="M1389.04,10745.5l-2.638,63.825" style="fill:none;fill-rule:nonzero;stroke:#565987;stroke-width:13.19px;"/><path d="M1679.28,10745.5l2.637,63.825" style="fill:none;fill-rule:nonzero;stroke:#565987;stroke-width:13.19px;"/><path d="M926.045,11139.1c-9.552,-7.805 -16.5,-18.343 -19.912,-30.198c-3.35,-12.224 2.562,-25.219 13.978,-30.725c13.187,-4.88 26.374,3.956 36.924,13.187c10.549,9.23 22.549,18.989 35.736,16.747c-14.219,-12.883 -20.642,-32.35 -16.879,-51.165c0.541,-3.834 2.139,-7.442 4.616,-10.418c7.12,-7.648 20.044,-4.352 28.615,1.714c26.374,18.989 34.682,55.781 34.814,89.012c1.32,-12.184 1.32,-24.475 0,-36.66c-0.708,-12.46 4.835,-24.488 14.769,-32.044c6.419,-3.504 13.658,-5.234 20.967,-5.011c12.249,-1.752 24.681,1.8 34.154,9.758c9.206,12.535 8.659,29.874 -1.318,41.803c-10.103,11.334 -22.053,20.876 -35.341,28.22c-10.086,6.07 -18.692,14.315 -25.187,24.132c-0.797,1.32 -1.418,2.739 -1.846,4.22l-76.748,0c-17.181,-8.667 -33.106,-19.624 -47.342,-32.572Z" style="fill:#3855be;fill-rule:nonzero;"/><path d="M553.515,10557.6c0,0 -28.616,37.45 13.187,94.022c41.802,56.572 76.352,104.309 62.374,139.518c0,0 -63.166,-105.495 -114.595,-106.418c-51.429,-0.924 -17.538,-64.485 39.034,-127.122Z" style="fill:#3855be;fill-rule:nonzero;"/><path d="M553.515,10557.6c-2.47,3.623 -4.423,7.573 -5.803,11.736c-50.11,58.946 -76.879,113.935 -28.615,115.386c44.835,1.318 98.77,81.495 111.561,101.803c-0.404,1.562 -0.888,3.102 -1.45,4.615c-0.562,1.513 -63.166,-105.495 -114.595,-106.418c-51.429,-0.924 -17.67,-64.485 38.902,-127.122Z" style="fill-opacity:0.1;fill-rule:nonzero;"/><path d="M500.371,10605.3c0,13.187 1.451,23.869 3.297,23.869c1.846,0 3.297,-10.682 3.297,-23.869c0,-13.187 -1.846,-6.989 -3.693,-6.989c-1.846,0 -2.901,-6.198 -2.901,6.989Z" style="fill:#ffd037;fill-rule:nonzero;"/><path d="M482.041,10621.2c11.605,6.329 21.627,10.022 22.55,8.439c0.923,-1.582 -7.78,-7.912 -19.385,-14.242c-11.604,-6.329 -6.989,-1.714 -7.912,0c-0.923,1.715 -6.857,-0.527 4.747,5.803Z" style="fill:#ffd037;fill-rule:nonzero;"/><path d="M704.769,10557.6c0,0 28.747,37.45 -13.187,94.022c-41.935,56.572 -76.352,104.309 -62.374,139.518c0,0 63.165,-105.495 114.594,-106.418c51.429,-0.924 17.539,-64.485 -39.033,-127.122Z" style="fill:#3855be;fill-rule:nonzero;"/><path d="M704.769,10557.6c2.486,3.633 4.481,7.58 5.934,11.736c50.11,58.946 76.88,113.935 28.616,115.386c-44.836,1.318 -98.771,81.495 -111.694,101.803c0.388,1.583 0.918,3.127 1.583,4.615c0.665,1.488 63.165,-105.495 114.594,-106.418c51.429,-0.924 17.539,-64.485 -39.033,-127.122Z" style="fill-opacity:0.1;fill-rule:nonzero;"/><path d="M758.044,10605.3c0,13.187 -1.451,23.869 -3.297,23.869c-1.846,0 -3.296,-10.682 -3.296,-23.869c0,-13.187 1.846,-6.989 3.692,-6.989c1.846,0 2.901,-6.198 2.901,6.989Z" style="fill:#ffd037;fill-rule:nonzero;"/><path d="M776.374,10621.2c-11.605,6.329 -21.759,10.022 -22.55,8.439c-0.791,-1.582 7.78,-7.912 19.385,-14.242c11.604,-6.329 6.989,-1.714 7.78,0c0.791,1.715 6.857,-0.527 -4.615,5.803Z" style="fill:#ffd037;fill-rule:nonzero;"/><path d="M748.945,10786.3c0,0 -80.045,-2.506 -104.177,-19.649c-24.132,-17.143 -123.166,-37.714 -129.232,-10.154c-6.066,27.561 -120.265,137.145 -29.934,137.804c90.33,0.659 210.068,-14.11 234.2,-28.748c24.132,-14.637 29.143,-79.253 29.143,-79.253Z" style="fill:#a8a8a8;fill-rule:nonzero;"/><path d="M484.02,10884.6c90.462,0.792 210.067,-13.978 234.199,-28.747c18.33,-11.077 25.583,-51.165 28.089,-69.759l2.637,0c0,0 -5.011,64.616 -29.143,79.122c-24.132,14.505 -143.738,29.538 -234.2,28.747c-26.374,0 -35.077,-9.494 -34.55,-23.209c3.561,8.572 14.242,13.187 32.968,13.846Z" style="fill-opacity:0.2;fill-rule:nonzero;"/><circle cx="543.387" cy="1670.92" r="285.233" style="fill:#3855be;fill-opacity:0.1;"/><circle cx="12382.1" cy="1422.37" r="285.233" style="fill:#3855be;fill-opacity:0.1;"/><circle cx="8589.97" cy="765.111" r="285.233" style="fill:#3855be;fill-opacity:0.1;"/><circle cx="1113.85" cy="3244.52" r="478.026" style="fill:#3855be;fill-opacity:0.1;"/><g><path d="M2031.94,2721.66c0,0 83.221,441.07 24.966,474.358c-47.052,29.575 -91.587,62.976 -133.153,99.865l149.797,208.053l357.85,74.899l341.205,-316.239l0,-316.24c0,0 -99.865,-158.119 -83.221,-257.984c16.644,-99.865 -657.444,33.288 -657.444,33.288Z" style="fill:#fbbebe;fill-rule:nonzero;"/><path d="M2031.94,2721.66c0,0 83.221,441.07 24.966,474.358c-47.052,29.575 -91.587,62.976 -133.153,99.865l149.797,208.053l357.85,74.899l341.205,-316.239l0,-316.24c0,0 -99.865,-158.119 -83.221,-257.984c16.644,-99.865 -657.444,33.288 -657.444,33.288Z" style="fill-opacity:0.1;fill-rule:nonzero;"/><path d="M1457.72,3478.97l-49.933,24.966c0,0 -108.187,41.611 -158.119,399.46c-49.932,357.849 -166.442,1215.02 -133.153,1239.99c33.288,24.966 16.644,191.408 16.644,191.408l249.662,-1306.57l74.899,-549.257Z" style="fill:#2f2e41;fill-rule:nonzero;"/><path d="M2049.5,1447.92c-7.613,15.887 -10.282,34.435 -17.424,50.619c-32.435,73.494 -124.768,57.049 -191.366,84.848c-56.402,23.542 -98.497,88.19 -102.91,158.045c-1.874,29.657 2.474,59.568 -0.192,89.142c-4.924,54.629 -33.091,102.737 -43.116,156.404c-24.354,130.369 32.471,336.25 96.635,265.895c20.233,-22.187 45.56,-36.894 67.415,-56.865c56.76,-51.868 85.668,-134.34 131.774,-199.068c5.832,-9.496 13.86,-17.454 23.408,-23.201c33.69,-16.741 63.681,28.067 90.314,57.438c26.772,29.235 64.642,45.905 104.284,45.905c41.52,0 81.001,-18.287 107.853,-49.956c8.128,-11.824 18.239,-22.155 29.887,-30.535c12.992,-5.98 27.626,-7.417 41.533,-4.076c65.653,11.558 124.841,46.799 166.289,99.01c22.238,27.217 40.835,59.238 67.491,80.34c26.656,21.101 65.546,28.053 89.551,2.974c48.315,34.157 66.338,106.668 66.465,172.701c0.127,66.032 -13.4,131.638 -10.1,197.558c3.3,65.92 29.18,137.064 81.711,161.25c8.268,-60.006 39.442,-114.545 86.949,-152.122c35.779,-26.63 79.263,-39.823 109.521,-74.579c60.577,-69.584 41.382,-185.326 43.709,-284.597c2.869,-122.44 45.302,-239.495 52.799,-361.666c3.746,-61.055 -2.562,-126.514 -34.696,-174.828c-24.322,-32.192 -55.155,-58.903 -90.486,-78.387l-285.644,-183.256c-12.683,-9.373 -27.066,-16.196 -42.348,-20.091c-42.05,-7.544 -78.398,31.892 -118.261,49.271c-33.246,11.79 -68.691,16.089 -103.792,12.589c-110.89,-3.004 -142.101,18.532 -216.638,-53.716c-11.753,-11.877 -28.493,-17.462 -45.022,-15.021c-44.58,7.066 -131.205,27.08 -155.593,77.975Z" style="fill:#2f2e41;fill-rule:nonzero;"/><path d="M2206.71,11501.5l174.755,382.807l-341.208,116.516l-174.755,-91.537l41.618,-407.786l299.59,0Z" style="fill:#fbbebe;fill-rule:nonzero;"/><path d="M2048.59,11826c0,0 -274.628,-166.441 -324.561,-108.187c-49.932,58.254 -449.392,482.68 -449.392,482.68c0,0 -615.833,332.883 -141.475,382.816c474.359,49.932 1248.31,-291.273 1248.31,-291.273c0,0 41.611,-449.392 8.322,-457.714c-33.288,-8.322 -174.763,74.899 -241.34,49.933c-36.766,-12.723 -70.693,-32.513 -99.865,-58.255Z" style="fill:#2f2e41;fill-rule:nonzero;"/><path d="M2656.1,11909.2l0,341.189l-449.385,-99.857l99.857,-349.528l349.528,108.196Z" style="fill:#fbbebe;fill-rule:nonzero;"/><path d="M2198.39,12025.7c0,0 457.714,-74.899 499.324,149.797c41.611,224.696 149.797,557.579 41.61,640.8c-108.186,83.221 -665.766,191.408 -674.088,49.933c-8.322,-141.476 58.255,-416.104 58.255,-416.104c0,0 41.61,-216.374 16.644,-274.629c-24.966,-58.254 58.255,-149.797 58.255,-149.797Z" style="fill:#2f2e41;fill-rule:nonzero;"/><path d="M1284.17,6406.2c0,0 -375.711,2382.25 -67.794,3547.34c307.917,1165.09 524.291,1855.82 524.291,1855.82c0,0 532.612,-149.797 532.612,-249.662c0,-99.865 -208.053,-1581.19 -257.984,-1722.67c-49.932,-141.476 -133.153,-191.408 -58.255,-307.917c74.899,-116.509 199.73,-865.496 199.73,-865.496c0,0 274.629,1239.99 291.273,1273.28c16.644,33.288 -174.764,1939.04 -174.764,1939.04c0,0 549.346,398.659 582.545,99.865c8.323,-74.899 374.494,-2729.64 374.494,-2762.93c0,-33.288 149.797,-2579.84 -91.543,-2704.67c-241.34,-124.831 -1854.61,-102.002 -1854.61,-102.002Z" style="fill:#2f2e41;fill-rule:nonzero;"/><circle cx="2356.51" cy="2322.2" r="565.901" style="fill:#fbbebe;"/><path d="M2231.67,3445.68l0,-58.255l-166.442,-274.628c0,0 -166.441,16.644 -191.407,91.543c-24.966,74.898 -307.917,674.088 -307.917,674.088l-299.595,2688.03c0,0 823.886,199.73 948.717,58.254c124.831,-141.475 599.189,-3220.64 599.189,-3220.64l66.576,-374.493c0,0 -114.318,-166.442 -140.38,-141.475c-26.061,24.967 -458.809,507.646 -458.809,507.646l-8.322,74.899l-41.61,-24.966Z" style="fill:#3855be;fill-rule:nonzero;"/><path d="M2061.07,3058.71c0,0 -153.958,-37.449 -203.891,54.094c-49.932,91.543 -49.932,124.831 -99.864,158.119c-49.933,33.289 -341.206,183.086 -357.85,241.34c-16.644,58.255 -374.493,1897.43 -374.493,1897.43c0,0 -174.764,549.257 -91.543,923.751c83.221,374.493 24.966,449.391 199.73,482.68c174.763,33.288 199.73,33.288 199.73,-16.644c0,-49.933 224.696,-1739.31 382.815,-1855.82c158.12,-116.509 116.509,-1389.79 116.509,-1389.79c0,0 224.696,-274.629 224.696,-316.239c0,-41.611 37.45,-182.047 4.161,-178.926Z" style="fill:#2f2e41;fill-rule:nonzero;"/><path d="M2531.27,3362.46c23.218,3.87 341.205,-407.782 366.171,-391.137c24.966,16.644 149.797,233.018 166.441,233.018c16.645,0 724.021,174.763 782.275,499.324c58.255,324.561 -407.781,1356.5 -407.781,1356.5c0,0 -199.73,590.868 -158.12,848.852c28.231,196.459 22.602,396.31 -16.644,590.867c-16.644,66.578 -74.899,141.475 -58.254,174.764c16.644,33.289 -366.172,-41.61 -524.291,49.933c-158.12,91.542 -865.496,158.119 -823.886,58.254c41.611,-99.865 66.578,-491.003 183.086,-907.106c116.508,-416.104 416.104,-1398.11 366.171,-1464.68c-49.932,-66.577 74.899,-1056.9 124.832,-1048.58Z" style="fill:#2f2e41;fill-rule:nonzero;"/><path d="M3746.29,3603.8l108.186,99.865c0,0 124.832,216.374 108.187,316.239c-16.644,99.865 349.528,1606.16 199.73,1656.09c-149.798,49.932 -507.646,299.594 -549.257,366.171c-41.61,66.577 -141.475,183.086 -208.052,216.374c-66.576,33.288 -133.153,91.543 -174.763,58.255c-41.611,-33.289 -133.153,-715.699 -66.577,-740.665c66.577,-24.966 133.153,-99.865 199.73,-99.865c66.577,0 108.187,-66.577 108.187,-124.831c0,-58.255 -49.933,-407.782 -49.933,-407.782l-108.186,-823.885l432.748,-515.969Z" style="fill:#2f2e41;fill-rule:nonzero;"/><path d="M2149.34,1530.73c-6.731,12.009 -9.092,26.032 -15.407,38.266c-28.679,55.558 -110.32,43.126 -169.207,64.141c-50.705,18.972 -86.18,65.551 -90.993,119.475c-1.657,22.42 2.188,45.031 -0.169,67.388c-4.354,41.297 -29.26,77.665 -38.124,118.234c-21.534,98.553 28.711,254.191 85.445,201.005c17.89,-16.771 40.284,-27.889 59.609,-42.987c50.187,-39.21 75.748,-101.555 116.515,-150.486c5.418,-7.398 12.511,-13.409 20.698,-17.539c29.788,-12.656 56.307,21.217 79.856,43.42c53.711,47.178 135.428,45.844 187.571,-3.062c7.426,-9.146 16.365,-16.954 26.426,-23.083c11.689,-4.538 24.443,-5.608 36.724,-3.081c56.02,7.712 107.836,34.09 147.033,74.847c17.687,22.3 37.691,42.658 59.676,60.734c23.569,15.951 57.957,21.207 79.182,2.248c42.72,25.822 58.656,80.637 58.769,130.555c0.113,49.918 -11.849,99.513 -8.931,149.345c2.918,49.833 25.801,103.615 72.25,121.899c8.621,-47.292 36.475,-88.955 76.881,-114.997c31.635,-20.132 70.084,-30.105 96.838,-56.379c53.563,-52.602 36.591,-140.099 38.648,-215.143c2.537,-92.559 40.056,-181.048 46.685,-273.404c3.313,-46.154 -2.265,-95.639 -30.678,-132.162c-22.371,-24.977 -49.595,-45.14 -80.009,-59.257l-252.567,-138.534c-11.503,-7.202 -24.175,-12.342 -37.445,-15.187c-37.181,-5.704 -69.319,24.109 -104.566,37.246c-29.714,8.946 -60.857,12.175 -91.774,9.517c-98.05,-2.271 -125.646,14.009 -191.552,-40.608c-11.094,-9.178 -25.542,-13.299 -39.809,-11.354c-39.417,5.339 -116.012,20.468 -137.575,58.943Z" style="fill:#2f2e41;fill-rule:nonzero;"/></g><g><rect x="4553.39" y="9923.48" width="2846.55" height="2336.56" style="fill:url(#_Linear5);"/><path d="M5140.62,9476.53c0,-456.798 375.888,-832.686 832.686,-832.686c456.798,0 832.686,375.888 832.686,832.686l0,532.888l233.091,0l0,-532.888c0,-584.71 -481.143,-1065.85 -1065.85,-1065.85c-584.71,0 -1065.85,481.143 -1065.85,1065.85l0,532.888l233.091,0l0.152,-532.888Z" style="fill:url(#_Linear6);fill-rule:nonzero;"/><path d="M5173.9,9465.08c0,-438.543 360.866,-799.41 799.409,-799.41c438.543,0 799.409,360.867 799.409,799.41l0,511.67l223.78,0l0,-511.67c0,-561.305 -461.884,-1023.19 -1023.19,-1023.19c-561.305,0 -1023.19,461.884 -1023.19,1023.19l0,511.67l223.78,0l0,-511.67Z" style="fill:#f5f5f5;fill-rule:nonzero;"/><rect x="4582.4" y="9944.85" width="2781.83" height="2270.31" style="fill:#3855be;"/><rect x="4582.4" y="9944.85" width="2781.83" height="2270.31" style="fill:#f5f5f5;"/><rect x="4582.4" y="10392.4" width="2781.83" height="1374.89" style="fill:#3855be;"/><path d="M6177.25,10819.8c0,-0.08 0,-0.16 0,-0.24c0,-111.876 -92.06,-203.936 -203.936,-203.936c-111.875,0 -203.935,92.06 -203.935,203.936c0,51.999 19.888,102.079 55.563,139.912l0,435.194c0,81.395 66.978,148.373 148.372,148.373c81.395,0 148.372,-66.978 148.372,-148.373l0,-434.737c35.807,-37.835 55.713,-88.037 55.564,-140.129Z" style="fill:url(#_Linear7);fill-rule:nonzero;"/><path d="M6149.16,10856.1c0,-0.075 0,-0.151 0,-0.226c0,-96.468 -79.381,-175.849 -175.849,-175.849c-96.467,0 -175.848,79.381 -175.848,175.849c0,44.848 17.157,88.04 47.93,120.664l0,375.205c0,70.173 57.745,127.917 127.918,127.917c70.174,0 127.918,-57.744 127.918,-127.917l0,-375.205c30.787,-32.525 47.951,-75.653 47.931,-120.438Z" style="fill-opacity:0.2;fill-rule:nonzero;"/></g><defs><linearGradient id="_Linear1" x1="0" y1="0" x2="1" y2="0" gradientUnits="userSpaceOnUse" gradientTransform="matrix(2629.33,-3805.74,3805.74,2629.33,7572.64,7744.1)"><stop offset="0" style="stop-color:#808080;stop-opacity:0.12"/><stop offset="0.54" style="stop-color:#808080;stop-opacity:0.06"/><stop offset="1" style="stop-color:#808080;stop-opacity:0.05"/></linearGradient><linearGradient id="_Linear2" x1="0" y1="0" x2="1" y2="0" gradientUnits="userSpaceOnUse" gradientTransform="matrix(1292.66,-4423.43,4423.43,1292.66,7427.03,7931.45)"><stop offset="0" style="stop-color:#808080;stop-opacity:0.12"/><stop offset="0.54" style="stop-color:#808080;stop-opacity:0.06"/><stop offset="1" style="stop-color:#808080;stop-opacity:0.05"/></linearGradient><linearGradient id="_Linear3" x1="0" y1="0" x2="1" y2="0" gradientUnits="userSpaceOnUse" gradientTransform="matrix(369.592,-4593.6,4593.6,369.592,7455.32,8037.02)"><stop offset="0" style="stop-color:#808080;stop-opacity:0.12"/><stop offset="0.54" style="stop-color:#808080;stop-opacity:0.06"/><stop offset="1" style="stop-color:#808080;stop-opacity:0.05"/></linearGradient><linearGradient id="_Linear4" x1="0" y1="0" x2="1" y2="0" gradientUnits="userSpaceOnUse" gradientTransform="matrix(-209.856,-4603.66,4603.66,-209.856,7428.08,8146.37)"><stop offset="0" style="stop-color:#808080;stop-opacity:0.12"/><stop offset="0.54" style="stop-color:#808080;stop-opacity:0.06"/><stop offset="1" style="stop-color:#808080;stop-opacity:0.05"/></linearGradient><linearGradient id="_Linear5" x1="0" y1="0" x2="1" y2="0" gradientUnits="userSpaceOnUse" gradientTransform="matrix(1.43073e-13,-2336.56,2336.56,1.43073e-13,5976.67,12260)"><stop offset="0" style="stop-color:#808080;stop-opacity:0.25"/><stop offset="0.54" style="stop-color:#808080;stop-opacity:0.12"/><stop offset="1" style="stop-color:#808080;stop-opacity:0.1"/></linearGradient><linearGradient id="_Linear6" x1="0" y1="0" x2="1" y2="0" gradientUnits="userSpaceOnUse" gradientTransform="matrix(9.789e-14,-1598.67,1598.67,9.789e-14,5973.31,10008.7)"><stop offset="0" style="stop-color:#808080;stop-opacity:0.25"/><stop offset="0.54" style="stop-color:#808080;stop-opacity:0.12"/><stop offset="1" style="stop-color:#808080;stop-opacity:0.1"/></linearGradient><linearGradient id="_Linear7" x1="0" y1="0" x2="1" y2="0" gradientUnits="userSpaceOnUse" gradientTransform="matrix(5.67824e-14,-927.327,927.327,5.67824e-14,5973.31,11543.5)"><stop offset="0" style="stop-color:#808080;stop-opacity:0.25"/><stop offset="0.54" style="stop-color:#808080;stop-opacity:0.12"/><stop offset="1" style="stop-color:#808080;stop-opacity:0.1"/></linearGradient></defs></svg>