<?xml version="1.0" encoding="UTF-8" standalone="no"?><!DOCTYPE svg PUBLIC "-//W3C//DTD SVG 1.1//EN" "http://www.w3.org/Graphics/SVG/1.1/DTD/svg11.dtd"><svg width="100%" height="100%" viewBox="0 0 400 400" version="1.1" xmlns="http://www.w3.org/2000/svg" xmlns:xlink="http://www.w3.org/1999/xlink" xml:space="preserve" xmlns:serif="http://www.serif.com/" style="fill-rule:evenodd;clip-rule:evenodd;stroke-linejoin:round;stroke-miterlimit:1.41421;"><g><path d="M61.211,352.895c76.652,32.97 200.928,32.971 277.577,0.001c76.652,-32.97 76.652,-86.424 0,-119.393c-76.65,-32.97 -200.927,-32.97 -277.578,-0.001c-76.65,32.97 -76.65,86.424 0.001,119.393Z" style="fill:#ccd0fc;fill-rule:nonzero;"/><path d="M114.014,268.757l-1.64,-14.07c-9.754,0.582 -19.333,2.36 -28.019,5.343l13.229,11.861c5.136,-1.682 10.726,-2.726 16.43,-3.134Z" style="fill:#f9bf2c;fill-rule:nonzero;"/><path d="M114.014,238.929l-16.103,0.721l-0.327,2.414l0,29.827l12.53,-4.738l3.9,1.604l0,-29.828Z" style="fill:#f9bf2c;fill-rule:nonzero;"/><path d="M84.355,230.202l0,29.828l13.229,11.861l0,-29.827l-13.229,-11.862Z" style="fill:#e7a323;fill-rule:nonzero;"/><path d="M114.014,238.929l-1.64,-14.069c-9.754,0.581 -19.333,2.359 -28.019,5.342l13.229,11.862c5.136,-1.684 10.726,-2.727 16.43,-3.135Z" style="fill:#fcd761;fill-rule:nonzero;"/><path d="M119.006,268.563c10.746,-0.066 21.522,2.103 30.058,6.512l17.259,-9.965c-13.739,-7.384 -31.425,-10.92 -48.956,-10.61l1.639,14.063Z" style="fill:#d0108c;fill-rule:nonzero;"/><path d="M119.006,268.563l0,-10.297l-1.639,-14.064l0,10.298l1.639,14.063Z" style="fill:#c81a8e;fill-rule:nonzero;"/><path d="M149.064,264.778l-19.225,-17.283l-10.833,10.771l0,10.297l27.959,-0.179l2.099,6.691l0,-10.297Z" style="fill:#d0108c;fill-rule:nonzero;"/><path d="M166.323,254.813l0,10.297l-17.259,9.965l0,-10.297l17.259,-9.965Z" style="fill:#d0108c;fill-rule:nonzero;"/><path d="M119.006,258.266c10.746,-0.066 21.522,2.102 30.058,6.512l17.259,-9.965c-13.739,-7.384 -31.425,-10.921 -48.956,-10.611l1.639,14.064Z" style="fill:#ed3795;fill-rule:nonzero;"/><path d="M81.67,307.631c-10.553,-9.881 -8.423,-23 6.415,-31.566c1.67,-0.964 3.441,-1.833 5.291,-2.611l-13.217,-11.849c-3.274,1.32 -6.404,2.813 -9.326,4.5c-23.328,13.468 -26.389,34.199 -9.21,49.583l20.047,-8.057Z" style="fill:#5f85c4;fill-rule:nonzero;"/><path d="M93.376,255.125l0,18.329l-11.706,4.349c0,0 -15.203,-8.298 -15.203,-8.492c0,-0.193 2.566,-17.767 4.444,-18.557c1.877,-0.79 22.465,4.371 22.465,4.371Z" style="fill:#5f85c4;fill-rule:nonzero;"/><path d="M81.67,307.631l0,-18.33l-20.047,8.057l0,18.33l20.047,-8.057Z" style="fill:#5f85c4;fill-rule:nonzero;"/><path d="M61.623,285.86l0,29.828c0,0 -10.463,-8.819 -10.933,-20.523l0.024,-19.148l12.176,-1.762l-1.267,11.605Z" style="fill:#1f47b6;fill-rule:nonzero;"/><path d="M81.67,289.301c-10.553,-9.881 -8.423,-22.999 6.415,-31.565c1.67,-0.965 3.441,-1.833 5.291,-2.611l-13.217,-11.85c-3.274,1.32 -6.404,2.813 -9.326,4.5c-23.328,13.469 -26.389,34.199 -9.21,49.583l20.047,-8.057Z" style="fill:#4063ae;fill-rule:nonzero;"/><path d="M268.234,225.611l-9.199,0.057c-0.671,-0.454 -1.367,-0.901 -2.111,-1.33c-15.081,-8.707 -39.532,-8.707 -54.612,-0.001c-0.945,0.546 -1.831,1.112 -2.657,1.698l-8.652,0.053l0,14.014c0,5.706 3.77,11.412 11.31,15.764c15.08,8.707 39.531,8.707 54.612,0.001c7.54,-4.353 11.309,-10.059 11.309,-15.765l0,-14.491Z" style="fill:#334fa2;fill-rule:nonzero;"/><path d="M228.328,217.825c-9.448,0.181 -18.804,2.348 -26.016,6.512c-0.945,0.546 -1.831,1.112 -2.657,1.698l-8.652,0.053l0,14.014c0,5.706 3.77,11.412 11.31,15.764c7.212,4.164 16.567,6.331 26.015,6.513l0,-44.554Z" style="fill:#4063ae;fill-rule:nonzero;"/><path d="M196.309,226.056l-5.306,0.032l0,14.014c0,3.908 1.769,7.815 5.306,11.288l0,-25.334Z" style="fill:#5f85c4;fill-rule:nonzero;"/><path d="M256.925,241.377c-15.081,8.706 -39.532,8.706 -54.612,-0.001c-15.081,-8.707 -15.081,-22.823 -0.001,-31.529c15.08,-8.707 39.531,-8.707 54.612,0c15.08,8.707 15.081,22.823 0.001,31.53Z" style="fill:#3b5c99;fill-rule:nonzero;"/><path d="M256.924,241.377c-15.08,8.706 -39.531,8.706 -54.611,-0.001c-7.161,-4.135 -10.915,-9.488 -11.275,-14.904c-0.398,5.989 3.355,12.053 11.275,16.627c15.08,8.707 39.531,8.707 54.611,0c7.92,-4.573 11.674,-10.636 11.274,-16.625c-0.36,5.415 -4.113,10.768 -11.274,14.903Z" style="fill:#f6f6fd;fill-rule:nonzero;"/><path d="M257.636,219.492l-6.674,0.041c-0.488,-0.329 -0.992,-0.653 -1.532,-0.965c-10.943,-6.317 -28.682,-6.317 -39.624,-0.001c-0.685,0.397 -1.328,0.808 -1.927,1.233l-6.279,0.039l0,4.823c0.001,4.14 2.737,8.279 8.207,11.438c10.942,6.317 28.681,6.317 39.623,0c5.47,-3.159 8.206,-7.298 8.206,-11.438l0,-5.17Z" style="fill:#334fa2;fill-rule:nonzero;"/><path d="M228.681,213.843c-6.854,0.132 -13.642,1.704 -18.875,4.724c-0.685,0.397 -1.328,0.808 -1.927,1.233l-6.279,0.038l0,4.824c0.001,4.14 2.737,8.279 8.207,11.438c5.233,3.021 12.02,4.593 18.874,4.725l0,-26.982Z" style="fill:#4063ae;fill-rule:nonzero;"/><path d="M205.451,219.814l-3.851,0.024l0,4.824c0.001,2.835 1.286,5.669 3.851,8.19l0,-13.038Z" style="fill:#5f85c4;fill-rule:nonzero;"/><path d="M249.43,230.931c-10.942,6.317 -28.681,6.317 -39.623,0c-10.941,-6.318 -10.942,-16.56 -0.001,-22.876c10.942,-6.318 28.682,-6.318 39.624,0c10.941,6.317 10.941,16.558 0,22.876Z" style="fill:#7550a1;fill-rule:nonzero;"/><path d="M178.42,170.722c-9.336,0 -18.097,-4.929 -22.937,-12.932l-14.684,-24.348c-1.752,-2.904 -1.803,-6.402 -0.136,-9.356c1.669,-2.955 4.689,-4.719 8.084,-4.719l29.009,0l0,7.558l-29.009,0c-0.876,0 -1.317,0.549 -1.503,0.877c-0.184,0.326 -0.426,0.987 0.026,1.736l14.683,24.345c3.523,5.825 9.92,9.407 16.754,9.279l25.25,-0.382l0.113,7.557l-25.25,0.382c-0.133,0.001 -0.266,0.003 -0.4,0.003Z" style="fill:#fcd761;fill-rule:nonzero;"/><path d="M280.816,170.722c-0.134,0 -0.266,-0.002 -0.4,-0.003l-25.249,-0.382l0.113,-7.557l25.249,0.382c6.796,0.154 13.233,-3.454 16.757,-9.283l14.679,-24.34c0.453,-0.75 0.211,-1.411 0.026,-1.737c-0.185,-0.328 -0.627,-0.877 -1.502,-0.877l-29.009,0l0,-7.558l29.009,0c3.395,0 6.416,1.764 8.083,4.719c1.669,2.954 1.617,6.452 -0.135,9.357l-14.681,24.344c-4.842,8.006 -13.605,12.935 -22.94,12.935Z" style="fill:#fcd761;fill-rule:nonzero;"/><path d="M304.299,142.252l-7.013,11.627c-3.524,5.829 -9.961,9.437 -16.757,9.283l-25.249,-0.382l-0.113,7.557l25.249,0.382c0.134,0.001 0.266,0.003 0.4,0.003c8.413,0 16.35,-4.012 21.382,-10.663c3.321,-8.537 2.796,-14.706 2.101,-17.807Z" style="fill:#e7a323;fill-rule:nonzero;"/><path d="M214.613,206.292c8.286,4.785 21.723,4.785 30.01,0c8.287,-4.784 8.288,-12.542 0.001,-17.326c-8.287,-4.785 -21.724,-4.785 -30.011,0c-8.287,4.784 -8.287,12.542 0,17.326Z" style="fill:#fff;fill-rule:nonzero;"/><path d="M204.839,209.881c4.469,-3.319 3.608,-6.565 3.608,-6.565l3.382,4.082c10.283,-4.961 25.303,-4.96 35.585,0.002l3.384,-4.084c0,0 -0.863,3.246 3.607,6.565c4.47,3.318 3.011,9.834 3.011,9.834l-0.009,-0.01c0.004,4.109 -2.709,8.219 -8.139,11.355c-10.852,6.265 -28.448,6.265 -39.3,0c-5.427,-3.133 -8.14,-7.24 -8.14,-11.345c-0.001,-0.004 -1.457,-6.517 3.011,-9.834Z" style="fill:#f9bf2c;fill-rule:nonzero;"/><path d="M245.143,210.855c0,0 -8.027,-4.751 -8.027,-5.752c0,-0.147 0.163,-0.413 0.435,-0.746c3.528,0.606 6.895,1.611 9.863,3.043l3.384,-4.084c0,0 -0.863,3.246 3.607,6.565c4.47,3.318 3.011,9.834 3.011,9.834l-0.009,-0.01c0.002,2.242 -0.834,4.479 -2.449,6.563c0.072,-0.508 0.929,-7.223 -4.119,-9.421c-5.247,-2.286 -5.696,-5.992 -5.696,-5.992Z" style="fill:#e7a323;fill-rule:nonzero;"/><path d="M214.613,211.168c8.286,4.784 21.723,4.784 30.01,0c8.287,-4.785 8.288,-12.542 0.001,-17.327c-8.287,-4.784 -21.724,-4.784 -30.011,0c-8.287,4.785 -8.287,12.543 0,17.327Z" style="fill:#e7a323;fill-rule:nonzero;"/><path d="M285.125,119.82c-0.559,30.937 -16.507,34.682 -25.039,46.263c-7.963,10.807 -7.058,26.436 -6.901,28.474l0.019,0.228c0,3.485 -2.303,6.97 -6.908,9.628c-9.211,5.318 -24.145,5.318 -33.356,0.001c-4.317,-2.493 -6.584,-5.712 -6.853,-8.976l-0.055,0.001l0,-0.654l0.001,-0.003l0.018,-0.22c0.156,-2.023 1.068,-17.666 -6.9,-28.479c-8.533,-11.581 -24.481,-15.326 -25.04,-46.263l111.014,0Z" style="fill:#f9bf2c;fill-rule:nonzero;"/><path d="M244.576,153.501c0,0 -1.298,3.698 -5.325,14.271c-4.028,10.574 -2.135,37.331 -2.135,37.331l6.854,0.472c0.804,-0.357 1.588,-0.736 2.326,-1.162c4.605,-2.659 6.908,-6.143 6.908,-9.628l-0.019,-0.228c-0.157,-2.038 -1.062,-17.668 6.901,-28.474c8.532,-11.581 24.48,-15.326 25.039,-46.263l-6.078,0l-34.471,33.681Z" style="fill:#e7a323;fill-rule:nonzero;"/><path d="M190.368,142.48c21.677,12.516 56.821,12.515 78.499,0c21.677,-12.515 21.678,-32.807 0.001,-45.321c-21.677,-12.515 -56.821,-12.515 -78.498,0.001c-21.678,12.515 -21.678,32.806 -0.002,45.32Z" style="fill:#fcd761;fill-rule:nonzero;"/><path d="M190.368,142.48c21.677,12.516 56.821,12.515 78.499,0c10.219,-5.9 15.615,-13.528 16.2,-21.254c0.656,8.664 -4.741,17.453 -16.2,24.069c-21.678,12.516 -56.822,12.516 -78.499,0.001c-11.458,-6.615 -16.853,-15.403 -16.198,-24.067c0.585,7.726 5.981,15.353 16.198,21.251Z" style="fill:#fff;fill-rule:nonzero;"/><path d="M196.677,138.838c18.192,10.504 47.689,10.504 65.882,0c18.193,-10.504 18.194,-27.534 0,-38.037c-18.192,-10.503 -47.688,-10.503 -65.881,0c-18.194,10.504 -18.194,27.534 -0.001,38.037Z" style="fill:#f2b426;fill-rule:nonzero;"/><path d="M196.677,138.838c7.624,4.402 17.238,6.934 27.169,7.646c1.553,-1.95 2.158,-4.054 1.408,-6.303c-4.838,-14.498 -2.967,-44.533 -2.967,-44.533l-8.764,-1.045c-6.141,1.304 -11.915,3.352 -16.845,6.198c-18.194,10.504 -18.194,27.534 -0.001,38.037Z" style="fill:#e7a323;fill-rule:nonzero;"/><path d="M262.56,103.188c-18.193,-10.503 -47.689,-10.503 -65.882,0c-8.572,4.949 -13.101,11.347 -13.596,17.827c-0.558,-7.276 3.973,-14.658 13.596,-20.214c18.193,-10.503 47.689,-10.503 65.881,0c9.622,5.555 14.152,12.935 13.596,20.211c-0.496,-6.48 -5.025,-12.876 -13.595,-17.824Z" style="fill:#fff;fill-rule:nonzero;"/><path d="M252.426,143.271c-14.122,4.583 -31.493,4.583 -45.616,0c0.485,-0.323 0.984,-0.642 1.515,-0.949c11.761,-6.789 30.827,-6.79 42.587,0c0.531,0.307 1.03,0.625 1.514,0.949Z" style="fill:#e7a323;fill-rule:nonzero;"/><path d="M206.051,194.562c0.018,-0.244 0.048,-0.689 0.072,-1.297c0.355,3.185 2.601,6.313 6.817,8.747c9.211,5.317 24.145,5.317 33.356,-0.001c4.123,-2.381 6.394,-5.423 6.826,-8.535c0.022,0.494 0.047,0.867 0.063,1.081l0.019,0.228c0,3.485 -2.303,6.97 -6.908,9.628c-9.211,5.318 -24.145,5.318 -33.356,0c-4.317,-2.492 -6.584,-5.711 -6.853,-8.975l-0.055,0.001l0,-0.654l0.001,-0.003l0.018,-0.22Z" style="fill:#fff;fill-rule:nonzero;"/><path d="M198.773,181.095c0,0 -2.917,-1.471 -4.707,0.719c-1.791,2.189 -4.351,7.359 -4.43,10.852c-0.08,3.493 2.764,3.257 4.454,2.431c1.69,-0.827 6.629,-7.99 6.927,-9.393c0.299,-1.404 -0.352,-3.302 -0.828,-3.673c-0.474,-0.371 -1.416,-0.936 -1.416,-0.936Z" style="fill:#2e2c44;fill-rule:nonzero;"/><path d="M199.409,180.392l0.135,3.021c0.029,0.643 -0.294,1.255 -0.854,1.572c-0.509,0.289 -1.249,0.511 -2.249,0.349c-2.197,-0.353 -2.393,-0.98 -2.55,-4.001c-0.157,-3.02 5.518,-0.941 5.518,-0.941Z" style="fill:#fbc1b0;fill-rule:nonzero;"/><path d="M188.098,175.286c0,0 -2.916,-1.471 -4.707,0.718c-1.791,2.19 -4.351,7.36 -4.43,10.853c-0.079,3.493 2.764,3.257 4.454,2.431c1.69,-0.827 6.629,-7.99 6.928,-9.393c0.298,-1.404 -0.353,-3.302 -0.828,-3.673c-0.475,-0.371 -1.417,-0.936 -1.417,-0.936Z" style="fill:#2e2c44;fill-rule:nonzero;"/><path d="M188.734,174.583l0.135,3.021c0.029,0.643 -0.294,1.254 -0.854,1.572c-0.508,0.289 -1.249,0.51 -2.249,0.349c-2.197,-0.353 -2.393,-0.98 -2.549,-4.001c-0.158,-3.021 5.517,-0.941 5.517,-0.941Z" style="fill:#fbc1b0;fill-rule:nonzero;"/><path d="M214.756,119.114c-0.864,-14.043 -15.209,2.066 -15.209,2.066l-9.819,9.624l-8.841,9.713c-1.727,1.897 -2.531,4.458 -2.197,7.001l3.577,27.234c0.177,1.346 1.328,2.337 2.684,2.327c0.383,-0.003 0.822,-0.038 1.325,-0.117c3.191,-0.496 2.955,-3.53 2.955,-3.53l-0.653,-25.472l18.567,-11.193c0,0 8.474,-3.609 7.611,-17.653Z" style="fill:#44455c;fill-rule:nonzero;"/><path d="M202.403,131.375c0,0 -11.115,12.25 -11.736,15.668c-0.62,3.417 11.736,-3.145 11.736,-3.145l8.456,-13.813l-8.456,1.29Z" style="fill:#2e2c44;fill-rule:nonzero;"/><path d="M225.431,124.465c-0.864,-14.044 -15.209,2.066 -15.209,2.066l-9.819,9.624l-8.842,9.713c-1.726,1.897 -2.53,4.458 -2.196,7.001l3.577,27.234c0.177,1.345 1.327,2.337 2.684,2.326c0.383,-0.003 0.822,-0.037 1.325,-0.116c3.19,-0.497 2.955,-3.53 2.955,-3.53l-0.654,-25.472l18.568,-11.193c0,0 8.474,-3.609 7.611,-17.653Z" style="fill:#44455c;fill-rule:nonzero;"/><path d="M216.943,79.385c10.876,4.509 10.658,10.938 10.658,10.938c0,0 -2.129,23.57 -1.403,39.311c0.305,6.58 -34.962,7.082 -29.702,-10.473c6.201,-20.7 3.877,-37.457 6.779,-39.984c2.904,-2.528 10.855,-0.958 13.668,0.208Z" style="fill:#ff522b;fill-rule:nonzero;"/><path d="M220.442,85.085c-0.568,2.209 -3.462,3.372 -6.462,2.6c-3,-0.773 -4.97,-3.19 -4.402,-5.398c0.569,-2.208 3.462,-3.372 6.462,-2.599c3.001,0.773 4.972,3.189 4.402,5.397Z" style="fill:#fbc1b0;fill-rule:nonzero;"/><path d="M214.179,79.968c-2.02,0 -3.708,0.939 -4.097,2.449c-0.496,1.927 1.31,4.064 4.028,4.764c1.344,0.346 2.701,0.289 3.82,-0.161c1.062,-0.427 1.776,-1.16 2.008,-2.064c0.234,-0.904 -0.037,-1.891 -0.761,-2.779c-0.762,-0.934 -1.922,-1.639 -3.267,-1.986c-0.589,-0.151 -1.173,-0.223 -1.731,-0.223Zm1.658,8.476c-0.653,0 -1.322,-0.085 -1.987,-0.256c-3.272,-0.843 -5.415,-3.548 -4.776,-6.03c0.641,-2.483 3.823,-3.818 7.096,-2.973c1.557,0.401 2.912,1.23 3.813,2.335c0.939,1.151 1.281,2.463 0.963,3.695c-0.317,1.232 -1.251,2.216 -2.629,2.77c-0.759,0.305 -1.603,0.459 -2.48,0.459Z" style="fill:#fff;fill-rule:nonzero;"/><path d="M212.583,78.894c0,0 0.094,0.437 -0.095,3.883c-0.058,1.084 3.735,2.096 4.716,1.115c0.98,-0.98 0.588,-2 0.823,-5.688c0.236,-3.687 -5.444,0.69 -5.444,0.69Z" style="fill:#fbc1b0;fill-rule:nonzero;"/><path d="M218.027,78.204c0,0 -0.933,3.419 -5.539,4.731l0.069,-3.108l5.47,-1.623Z" style="fill:#ea9c92;fill-rule:nonzero;"/><path d="M220.945,69.517c1.157,4.477 -1.533,9.044 -6.01,10.201c-4.476,1.157 -9.044,-1.533 -10.201,-6.01c-1.157,-4.476 1.533,-9.043 6.01,-10.201c4.477,-1.157 9.044,1.534 10.201,6.01Z" style="fill:#fbc1b0;fill-rule:nonzero;"/><path d="M214.763,71.92c0,0 -4.61,1.974 -7.801,1.997c-3.192,0.023 -2.489,-2.65 -2.489,-2.65l9.474,-1.369l0.816,2.022Z" style="fill:#ea9c92;fill-rule:nonzero;"/><path d="M206.01,72.44c0,0 4.015,-1.704 7.538,-0.994c0.828,0.168 1.595,0.611 2.129,1.265c0.173,0.215 0.394,0.41 0.644,0.467c0.624,0.141 1.647,-2.45 2.86,-2.51c1.215,-0.059 2.025,0.801 1.03,2.394c-0.995,1.594 -0.659,3.378 -0.201,3.634c0.458,0.256 5.316,-3.465 1.031,-11.955c-4.285,-8.489 -15.172,-3.917 -16.864,-2.196c0,0 -1.785,1.554 -3.235,0.171c0,0 -1.626,12.179 5.068,9.724Z" style="fill:#2c2c45;fill-rule:nonzero;"/><path d="M197.955,77.455l-5.849,-2.521c-0.67,-0.289 -1.187,-0.847 -1.425,-1.537l-5.775,-16.736l-2.677,0.465l4.669,20.827c0.218,0.972 0.838,1.806 1.707,2.294l9.738,5.469l-0.388,-8.261Z" style="fill:#fbc1b0;fill-rule:nonzero;"/><path d="M258.803,80.177l1.34,-0.616c1.144,-0.524 2.186,-1.244 3.081,-2.128l0.934,-0.921c0.527,-0.521 0.684,-1.309 0.397,-1.991c-0.225,-0.533 -0.854,-0.764 -1.37,-0.503l-2.802,1.415c0,0 0.438,-1.241 0.227,-1.563c-0.211,-0.323 -2.38,2.071 -3.383,3.769c-1.003,1.697 1.576,2.538 1.576,2.538Z" style="fill:#fbc1b0;fill-rule:nonzero;"/><path d="M235.462,86.871l5.002,-0.559c1.183,-0.132 2.327,-0.502 3.363,-1.088l13.4,-7.585l1.576,2.538l-13.703,10.579c-0.422,0.326 -0.885,0.598 -1.377,0.808l-8.171,3.494l-0.09,-8.187Z" style="fill:#fbc1b0;fill-rule:nonzero;"/><path d="M182.229,57.126l-0.509,-0.588c-0.588,-0.679 -0.97,-1.511 -1.1,-2.398l-0.357,-2.441c-0.112,-0.76 0.185,-1.532 0.802,-1.988l0.069,-0.049c0.648,-0.447 1.551,-0.123 1.852,0.605l1.203,2.907c0,0 -0.379,-1.506 0.108,-1.672c0.355,-0.122 1.031,1.746 0.632,2.786c-0.4,1.039 -0.023,2.373 -0.023,2.373l-2.677,0.465Z" style="fill:#fbc1b0;fill-rule:nonzero;"/><path d="M209.518,77.377l-2.162,-0.593c0,0 1.033,1.623 2.539,2.037c1.506,0.413 1.741,-0.862 1.741,-0.862l-2.118,-0.582Z" style="fill:#fff;fill-rule:nonzero;"/><path d="M206.276,77.974c0,0 -9.769,-1.93 -12.753,-2.836c-2.982,-0.907 -4.228,7.288 -4.002,9.364c0.227,2.078 10.385,4.395 11.593,7.956c1.208,3.562 5.162,-14.484 5.162,-14.484Z" style="fill:#ff522b;fill-rule:nonzero;"/><path d="M221.214,81.57c0,0 7.14,3.064 19.089,4.557c0.486,0.061 0.902,0.382 1.063,0.845c0.46,1.323 1.247,4.212 0.633,7.183c-0.253,1.225 -1.362,2.085 -2.613,2.076c-3.742,-0.026 -11.791,0.333 -13.098,3.829c-1.711,4.582 -5.074,-18.49 -5.074,-18.49Z" style="fill:#ff522b;fill-rule:nonzero;"/><path d="M312.356,94.965l1.294,1.845l-5.359,3.761l-1.295,-1.845l5.36,-3.761Z" style="fill:#fcd761;fill-rule:nonzero;"/><path d="M314.269,90.869l1.295,1.845l-5.36,3.762l-1.295,-1.846l5.36,-3.761Z" style="fill:#fcd761;fill-rule:nonzero;"/><path d="M316.182,86.772l1.295,1.846l-5.361,3.761l-1.295,-1.845l5.361,-3.762Z" style="fill:#fcd761;fill-rule:nonzero;"/><path d="M318.095,82.676l1.295,1.846l-5.362,3.761l-1.294,-1.846l5.361,-3.761Z" style="fill:#fcd761;fill-rule:nonzero;"/><path d="M355.213,144.773l1.593,-0.724l2.105,4.627l-1.593,0.724l-2.105,-4.627Z" style="fill:#ed3795;fill-rule:nonzero;"/><path d="M352.36,142.73l1.593,-0.725l2.105,4.627l-1.592,0.725l-2.106,-4.627Z" style="fill:#ed3795;fill-rule:nonzero;"/><path d="M349.508,140.686l1.592,-0.725l2.106,4.627l-1.593,0.725l-2.105,-4.627Z" style="fill:#ed3795;fill-rule:nonzero;"/><path d="M346.655,138.643l1.593,-0.726l2.105,4.627l-1.592,0.725l-2.106,-4.626Z" style="fill:#ed3795;fill-rule:nonzero;"/><path d="M344.963,71.607l-1.282,-1.854l2.019,-1.396l1.282,1.855l-2.019,1.395Z" style="fill:#ed3795;fill-rule:nonzero;"/><path d="M334.093,67.375l-1.282,-1.855l2.02,-1.395l1.281,1.854l-2.019,1.396Z" style="fill:#4063ae;fill-rule:nonzero;"/><path d="M338.72,114.737l1.015,-1.723c0,0 0.848,0.467 1.759,0.181c0.728,-0.23 1.357,-0.886 1.872,-1.953c1.815,-3.761 5.165,-4.046 6.683,-3.671l-0.479,1.942l0.239,-0.971l-0.231,0.973c-0.291,-0.067 -2.888,-0.56 -4.41,2.595c-0.774,1.602 -1.82,2.613 -3.113,3.005c-1.729,0.523 -3.175,-0.284 -3.335,-0.378Z" style="fill:#4063ae;fill-rule:nonzero;"/><path d="M116.538,301.366c-1.694,0.723 -2.76,2.612 -2.619,4.641c0.067,0.958 0.182,1.851 0.382,2.27c0.539,1.132 2.306,2.686 5.126,1.57c2.82,-1.114 9.083,-6.999 9.318,-10.85c0.436,-7.156 -7.746,0.464 -12.207,2.369Z" style="fill:#2c2c45;fill-rule:nonzero;"/><path d="M133.109,313.2c0,0 -0.677,4.126 -0.349,4.882c0.329,0.756 2.292,2.37 5.191,2.021c2.9,-0.349 11.243,-3.225 13.101,-8.724c2.88,-8.523 -16.104,0.64 -16.104,0.64l-1.839,1.181Z" style="fill:#2c2c45;fill-rule:nonzero;"/><path d="M141.26,247.249l0.646,64.402c-0.068,2.24 -1.536,4.132 -3.508,4.465c-0.244,0.041 -0.505,0.075 -0.784,0.099c-1.999,0.175 -3.163,-0.682 -3.827,-1.583c-0.538,-0.729 -0.821,-1.654 -0.861,-2.6l-0.822,-27.492l-4.105,-24.581l-5.678,43.505c-0.091,1.177 -0.655,2.265 -1.561,2.865c-0.626,0.414 -1.475,0.735 -2.589,0.702c-1.625,-0.049 -2.754,-0.919 -3.442,-1.695c-0.546,-0.616 -0.833,-1.461 -0.823,-2.33l2.251,-26.176l0.838,-33.389l24.265,3.808Z" style="fill:#43455c;fill-rule:nonzero;"/><path d="M132.92,189.601l-1.018,5.869c0,0 -0.038,2.002 2.198,2.557c2.235,0.555 2.927,-0.889 2.927,-0.889l1.01,-6.609l-5.117,-0.928Z" style="fill:#fbc1b0;fill-rule:nonzero;"/><path d="M144.999,189.827c-2.417,4.685 -7.753,6.726 -11.917,4.56c-4.164,-2.166 -5.58,-7.72 -3.162,-12.405c2.418,-4.686 7.753,-6.727 11.917,-4.561c4.164,2.167 5.58,7.721 3.162,12.406Z" style="fill:#fbc1b0;fill-rule:nonzero;"/><path d="M133.186,195.577c-0.155,-0.063 -9.486,-6.071 -12.934,0.216c-5.624,10.252 -5.293,43.25 -3.517,47.524c1.643,3.956 5.747,6.873 8.623,8.516c2.558,1.462 5.422,2.357 8.369,2.38c2.915,0.024 8.506,-2.569 8.303,-6.379c-0.933,-17.532 0.617,-32.308 2.048,-46.646c0,0 -1.789,-1.926 -10.892,-5.611Z" style="fill:#4860ff;fill-rule:nonzero;"/><path d="M127.999,259.959l-5.678,43.505c-0.091,1.177 -0.655,2.265 -1.561,2.865c-0.147,0.097 -0.311,0.189 -0.484,0.273c1.178,-0.884 4.621,-37.4 5.257,-41.462c0.637,-4.065 2.466,-5.181 2.466,-5.181Z" style="fill:#2c2c45;fill-rule:nonzero;"/><path d="M163.022,197.512l5.07,-16.605l-2.678,-1.111l-5.976,13.013l3.584,4.703Z" style="fill:#fbc1b0;fill-rule:nonzero;"/><path d="M111.915,184.424l3.8,-17.287l3.026,0.033l-1.136,14.337l-5.69,2.917Z" style="fill:#fbc1b0;fill-rule:nonzero;"/><path d="M144.078,201.188c0,0 9.109,1.816 14.902,-8.789c0.51,-0.934 1.864,-1.073 2.402,-0.253c0.929,1.415 2.16,3.583 1.523,5.926c-2.821,10.365 -18.134,12.656 -20.884,18.668c-2.751,6.012 2.057,-15.552 2.057,-15.552Z" style="fill:#5364ae;fill-rule:nonzero;"/><path d="M127.268,193.422c0,0 -7.214,0.555 -8.252,-5.689c-0.535,-3.215 -0.695,-5.135 -0.726,-6.242c-0.02,-0.749 -0.671,-1.316 -1.414,-1.224c-1.727,0.215 -4.402,0.73 -4.765,1.888c-0.542,1.729 -1.561,10.208 5.564,23.218c4.668,8.523 9.593,-11.951 9.593,-11.951Z" style="fill:#4860ff;fill-rule:nonzero;"/><path d="M115.699,167.179l0.07,-1.971c0.024,-0.696 0.227,-1.373 0.589,-1.968l1.998,-3.283l0.521,-0.656c0.482,-0.607 1.342,-0.754 1.997,-0.341l0.46,0.289c0.586,0.368 0.923,1.027 0.879,1.718l-1.034,2.806l1.308,-0.254c0.253,-0.049 0.499,0.119 0.544,0.374c0.039,0.216 -0.08,0.43 -0.283,0.512l-2.134,0.861l-1.939,2.744l-2.976,-0.831Z" style="fill:#fbc1b0;fill-rule:nonzero;"/><path d="M168.165,180.994l0.605,-1.877c0.214,-0.663 0.253,-1.37 0.114,-2.052l-0.765,-3.766l-0.267,-0.795c-0.246,-0.733 -1.006,-1.164 -1.762,-0.999l-0.53,0.116c-0.677,0.148 -1.218,0.654 -1.411,1.319l0.019,2.989l-1.142,-0.682c-0.223,-0.133 -0.51,-0.058 -0.64,0.166c-0.11,0.19 -0.071,0.431 0.092,0.578l1.716,1.535l1.002,3.641l2.969,-0.173Z" style="fill:#fbc1b0;fill-rule:nonzero;"/><path d="M139.812,213.749c-0.831,3.788 1.499,33.186 -6.085,40.464c2.916,0.024 8.506,-2.569 8.303,-6.379c-0.625,-11.757 -0.127,-22.262 0.696,-32.24c2.973,-3.853 11.156,-6.306 16.276,-11.248c-0.374,0.115 -18.368,5.654 -19.19,9.403Z" style="fill:#4352c6;fill-rule:nonzero;"/><path d="M129.831,193.919l1.295,-1.331c0,0 2.132,2.178 3.844,2.556c0,0 2.061,0.584 3.067,0.634l0.834,2.299c0,0 -6.786,-0.486 -9.04,-4.158Z" style="fill:#fff;fill-rule:nonzero;"/><path d="M138.976,188.947c0.353,0.055 0.708,-0.048 0.958,-0.304c0.436,-0.445 0.616,-2.807 1.758,-3.005c1.785,-0.31 5.411,2.481 6.881,-3.511c0.765,-3.115 -0.625,-4.217 -0.32,-5.943c0,0 -0.016,0.889 -8.036,-1.048c-8.019,-1.936 -11.897,4.813 -12.681,8.211c-0.783,3.398 -0.093,9.325 5.317,11.055c0.897,0.287 5.293,-2.153 5.263,-2.577c-0.03,-0.425 -1.491,-0.653 -1.076,-1.801c0.346,-0.958 1.01,-1.218 1.936,-1.077Z" style="fill:#2c2c45;fill-rule:nonzero;"/><path d="M221.076,73.917c0,0.575 -0.467,1.041 -1.042,1.041c-0.574,0 -1.041,-0.466 -1.041,-1.041c0,-0.575 0.467,-1.041 1.041,-1.041c0.575,0 1.042,0.466 1.042,1.041Z" style="fill:#fff;fill-rule:nonzero;"/><path d="M211.323,342.804l0,-7.954l14.607,-8.433l0,7.953l-14.607,8.434Z" style="fill:#e7a323;fill-rule:nonzero;"/><path d="M211.323,334.85l-14.606,-8.433l0,7.953l14.606,8.434l0,-7.954Z" style="fill:#f9bf2c;fill-rule:nonzero;"/><path d="M225.93,326.417l-14.607,-8.434l-14.606,8.434l14.606,8.433l14.607,-8.433Z" style="fill:#fcd761;fill-rule:nonzero;"/><path d="M105.799,148.197l0,-7.953l14.607,-8.433l0,7.953l-14.607,8.433Z" style="fill:#2361dc;fill-rule:nonzero;"/><path d="M105.799,140.244l-14.606,-8.433l0,7.953l14.606,8.433l0,-7.953Z" style="fill:#1f47b6;fill-rule:nonzero;"/><path d="M120.406,131.811l-14.607,-8.433l-14.606,8.433l14.606,8.433l14.607,-8.433Z" style="fill:#4f8cef;fill-rule:nonzero;"/><path d="M303.846,191.584c-2.482,0 -4.5,2.019 -4.5,4.5c0,2.481 2.018,4.5 4.5,4.5c2.481,0 4.5,-2.019 4.5,-4.5c0,-2.481 -2.019,-4.5 -4.5,-4.5Zm0,11c-3.584,0 -6.5,-2.916 -6.5,-6.5c0,-3.584 2.916,-6.5 6.5,-6.5c3.584,0 6.5,2.916 6.5,6.5c0,3.584 -2.916,6.5 -6.5,6.5Z" style="fill:#fcd761;fill-rule:nonzero;"/><path d="M180.972,284.358c-3.953,0 -7.167,3.215 -7.167,7.167c0,3.953 3.214,7.167 7.167,7.167c3.952,0 7.167,-3.214 7.167,-7.167c0,-3.952 -3.215,-7.167 -7.167,-7.167Zm0,16.334c-5.055,0 -9.167,-4.112 -9.167,-9.167c0,-5.054 4.112,-9.167 9.167,-9.167c5.054,0 9.167,4.113 9.167,9.167c0,5.055 -4.113,9.167 -9.167,9.167Z" style="fill:#ed3795;fill-rule:nonzero;"/><path d="M179.43,297.567c0,3.659 -2.966,6.625 -6.625,6.625c-3.659,0 -6.625,-2.966 -6.625,-6.625c0,-3.659 2.966,-6.625 6.625,-6.625c3.659,0 6.625,2.966 6.625,6.625Z" style="fill:#fcd761;fill-rule:nonzero;"/><path d="M300.801,313.336l0,-54.042l12.763,-7.369l0,54.042l-12.763,7.369Z" style="fill:#4063ae;fill-rule:nonzero;"/><path d="M300.801,259.294l-12.765,-7.369l0,54.042l12.765,7.369l0,-54.042Z" style="fill:#5f85c4;fill-rule:nonzero;"/><path d="M313.564,251.925l-12.763,-7.369l-12.765,7.369l12.765,7.369l12.763,-7.369Z" style="fill:#334fa2;fill-rule:nonzero;"/><path d="M313.564,315.793l-12.763,-7.37l0,4.913l12.763,7.37l0,-4.913Z" style="fill:#97cb5c;fill-rule:nonzero;"/><path d="M288.036,320.706l0,-39.304l12.765,-7.369l0,39.303l-12.765,7.37Z" style="fill:#c13e26;fill-rule:nonzero;"/><path d="M288.036,281.402l-12.764,-7.369l0,39.303l12.764,7.37l0,-39.304Z" style="fill:#dc5426;fill-rule:nonzero;"/><path d="M300.801,274.033l-12.765,-7.37l-12.764,7.37l12.764,7.369l12.765,-7.369Z" style="fill:#ef602d;fill-rule:nonzero;"/><path d="M288.036,320.706l0,-39.304l12.765,-7.369l0,39.303l-12.765,7.37Z" style="fill:#d0108c;fill-rule:nonzero;"/><path d="M288.036,281.402l-12.764,-7.369l0,39.303l12.764,7.37l0,-39.304Z" style="fill:#d0108c;fill-rule:nonzero;"/><path d="M300.801,274.033l-12.765,-7.37l-12.764,7.37l12.764,7.369l12.765,-7.369Z" style="fill:#ed3795;fill-rule:nonzero;"/><path d="M300.801,328.075l0,-22.108l12.763,-7.369l0,22.108l-12.763,7.369Z" style="fill:#e7a323;fill-rule:nonzero;"/><path d="M300.801,305.967l-12.765,-7.369l0,22.108l12.765,7.369l0,-22.108Z" style="fill:#f9bf2c;fill-rule:nonzero;"/><path d="M313.564,298.598l-12.763,-7.369l-12.765,7.369l12.765,7.369l12.763,-7.369Z" style="fill:#fcd761;fill-rule:nonzero;"/></g></svg>