<?xml version="1.0" encoding="UTF-8" standalone="no"?><!DOCTYPE svg PUBLIC "-//W3C//DTD SVG 1.1//EN" "http://www.w3.org/Graphics/SVG/1.1/DTD/svg11.dtd"><svg width="100%" height="100%" viewBox="0 0 1238 1238" version="1.1" xmlns="http://www.w3.org/2000/svg" xmlns:xlink="http://www.w3.org/1999/xlink" xml:space="preserve" xmlns:serif="http://www.serif.com/" style="fill-rule:evenodd;clip-rule:evenodd;stroke-linejoin:round;stroke-miterlimit:1.41421;"><g><path d="M459.142,830.429c-32.904,-33.687 -76.896,-56.208 -127.146,-65.821c71.008,-23.787 122.337,-90.891 122.337,-169.804c0,-98.733 -80.329,-179.067 -179.066,-179.067c-98.738,0 -179.059,80.334 -179.059,179.067c0,78.913 51.33,146.017 122.334,169.804c-50.246,9.613 -94.234,32.13 -127.142,65.813c-43.467,44.496 -65.562,105.917 -63.892,177.621c0.525,22.616 19.013,40.675 41.634,40.675l412.262,0c22.621,0 41.104,-18.059 41.629,-40.675c1.675,-71.704 -20.42,-133.125 -63.891,-177.613Z" style="fill:#3ad39e;fill-rule:nonzero;"/><path d="M1146.1,580.567c-32.904,-33.684 -76.896,-56.204 -127.146,-65.821c71.008,-23.783 122.338,-90.888 122.338,-169.8c0,-98.733 -80.33,-179.067 -179.067,-179.067c-98.737,0 -179.067,80.329 -179.067,179.067c0,78.908 51.329,146.017 122.334,169.8c-50.246,9.617 -94.234,32.133 -127.142,65.817c-43.471,44.495 -65.563,105.916 -63.892,177.62c0.525,22.613 19.013,40.675 41.63,40.675l412.262,0c22.621,0 41.108,-18.062 41.633,-40.675c1.679,-71.704 -20.416,-133.125 -63.883,-177.616Z" style="fill:#3ad39e;fill-rule:nonzero;"/><path d="M201.967,376.158c7.308,5.171 15.712,7.663 24.033,7.663c13.05,0 25.904,-6.121 34.021,-17.583c81.721,-115.396 214.342,-184.625 355.316,-185.725l-26.033,26.029c-16.262,16.262 -16.262,42.629 0,58.896c8.134,8.129 18.792,12.195 29.446,12.195c10.654,0 21.313,-4.066 29.446,-12.195l97.171,-97.171c16.262,-16.263 16.262,-42.629 0,-58.896l-97.167,-97.179c-16.267,-16.254 -42.625,-16.254 -58.896,0c-16.262,16.262 -16.262,42.633 0,58.896l26.129,26.137c-167.975,1.067 -326.058,83.442 -423.387,220.879c-13.288,18.767 -8.846,44.759 9.921,58.054Z" style="fill:#3ad39e;fill-rule:nonzero;"/><path d="M1037.25,860.483c-18.867,-13.158 -44.825,-8.533 -57.979,10.33c-75.604,108.374 -195.575,176.562 -325.888,186.895l26.742,-26.741c16.263,-16.263 16.263,-42.634 0,-58.896c-16.262,-16.259 -42.625,-16.259 -58.892,0l-97.17,97.167c-16.259,16.262 -16.259,42.629 0,58.895l97.17,97.167c8.134,8.129 18.788,12.2 29.446,12.2c10.659,0 21.313,-4.071 29.442,-12.2c16.262,-16.258 16.262,-42.629 0,-58.892l-25.292,-25.295c156.996,-10.888 301.85,-92.355 392.742,-222.655c13.158,-18.858 8.537,-44.82 -10.321,-57.975Z" style="fill:#3ad39e;fill-rule:nonzero;"/></g></svg>