<?xml version="1.0" encoding="UTF-8" standalone="no"?><!DOCTYPE svg PUBLIC "-//W3C//DTD SVG 1.1//EN" "http://www.w3.org/Graphics/SVG/1.1/DTD/svg11.dtd"><svg width="100%" height="100%" viewBox="0 0 425 425" version="1.1" xmlns="http://www.w3.org/2000/svg" xmlns:xlink="http://www.w3.org/1999/xlink" xml:space="preserve" xmlns:serif="http://www.serif.com/" style="fill-rule:evenodd;clip-rule:evenodd;stroke-linejoin:round;stroke-miterlimit:1.41421;"><g><path d="M102.979,197.633l-69.779,72.617l0,122.525c0,3.45 2.796,6.25 6.25,6.25l84.725,0c3.45,0 6.25,-2.8 6.25,-6.25l0,-187.95l-19.542,-7.192l-7.904,0Z" style="fill:#3ad39e;fill-rule:nonzero;"/><path d="M275.563,254.583l-84.725,0c-3.45,0 -6.25,2.8 -6.25,6.25l0,131.942c0,3.45 2.8,6.25 6.25,6.25l84.725,0c3.454,0 6.25,-2.8 6.25,-6.25l0,-131.942c0,-3.45 -2.796,-6.25 -6.25,-6.25Z" style="fill:#3ad39e;fill-rule:nonzero;"/><path d="M423.85,122.875c-3.237,1.692 -6.883,2.587 -10.542,2.587c-5.316,0 -10.504,-1.874 -14.583,-5.291l-15.392,-12.867l-55.687,60.75l0,224.725c0,3.45 2.8,6.25 6.25,6.25l84.725,0c3.454,0 6.25,-2.8 6.25,-6.25l0,-270.542c-0.35,0.209 -0.663,0.451 -1.021,0.638Z" style="fill:#3ad39e;fill-rule:nonzero;"/><path d="M240.821,225.392c4.767,1.746 10.1,0.45 13.533,-3.284l128.496,-140.179l30.071,25.134c1.471,1.225 3.529,1.454 5.225,0.566c1.696,-0.891 2.691,-2.7 2.521,-4.612l-6.517,-72.871c-0.229,-2.604 -2.525,-4.525 -5.129,-4.288l-72.875,6.513c-1.909,0.171 -3.525,1.475 -4.092,3.296c-0.196,0.608 -0.258,1.225 -0.204,1.833c0.108,1.225 0.696,2.383 1.679,3.204l30.121,25.179l-122.067,133.154l-139.354,-51.274c-4.658,-1.709 -9.887,-0.505 -13.325,3.062l-85.417,88.887c-4.783,4.98 -4.625,12.896 0.35,17.675c2.43,2.338 5.55,3.488 8.663,3.488c3.283,0 6.558,-1.287 9.017,-3.837l79.754,-83.001l139.55,51.355Z" style="fill:#3ad39e;fill-rule:nonzero;"/></g></svg>