<?xml version="1.0" encoding="UTF-8" standalone="no"?><!DOCTYPE svg PUBLIC "-//W3C//DTD SVG 1.1//EN" "http://www.w3.org/Graphics/SVG/1.1/DTD/svg11.dtd"><svg width="100%" height="100%" viewBox="0 0 1738 1738" version="1.1" xmlns="http://www.w3.org/2000/svg" xmlns:xlink="http://www.w3.org/1999/xlink" xml:space="preserve" xmlns:serif="http://www.serif.com/" style="fill-rule:evenodd;clip-rule:evenodd;stroke-linejoin:round;stroke-miterlimit:1.41421;"><g><rect x="0" y="0" width="1736.11" height="1736.11" style="fill:none;"/><g><path d="M357.253,422.856c4.336,1.088 8.305,3.337 11.468,6.497l353.352,353.359l63.939,-63.933l-353.358,-353.359c-3.17,-3.166 -5.409,-7.147 -6.504,-11.497l-22.239,-88.653l-147.427,-84.284l-72.194,72.191l84.31,147.528l88.653,22.151Z" style="fill:#3ad39e;fill-rule:nonzero;"/><path d="M671.465,1228.88l560.715,-560.724c6.142,-6.148 15.053,-8.614 23.48,-6.516c73.824,18.92 152.239,2.525 212.324,-44.352c60.093,-46.881 95.048,-118.973 94.645,-195.18c0,-4.642 -0.136,-9.318 -0.437,-14.035l-130.416,130.4c-6.609,6.614 -16.409,8.934 -25.292,5.97l-148.331,-49.45c-7.386,-2.446 -13.179,-8.239 -15.644,-15.618l-49.437,-148.334c-2.966,-8.871 -0.654,-18.674 5.971,-25.295l130.412,-130.409c-78.532,-4.886 -154.669,28.108 -204.83,88.729c-50.154,60.633 -68.279,141.602 -48.771,217.822c2.113,8.439 -0.349,17.347 -6.498,23.492l-560.704,560.686c-6.152,6.101 -15.054,8.575 -23.487,6.51c-19.52,-5.013 -39.596,-7.611 -59.76,-7.69c-106.473,-0.701 -201.608,66.42 -236.664,166.979c-35.037,100.55 -2.224,212.264 81.632,277.891c83.856,65.626 200.18,70.645 289.366,12.461c89.192,-58.181 131.482,-166.655 105.197,-269.857c-2.09,-8.423 0.381,-17.348 6.529,-23.48Zm-185.884,182.121l-120.334,0l-59.348,-98.884l59.348,-98.9l120.334,0l59.336,98.9l-59.336,98.884Zm95.41,-289.425l543.885,-543.891l34.951,34.958l-543.884,543.891l-34.952,-34.958Z" style="fill:#3ad39e;fill-rule:nonzero;"/><path d="M1359.92,1549.74c55.065,20.704 117.149,7.278 158.75,-34.32c41.604,-41.611 55.033,-103.703 34.32,-158.756l-193.07,193.076Z" style="fill:#3ad39e;fill-rule:nonzero;"/><path d="M1518.67,1303.12l-277.669,-277.78c-30.627,25.745 -75.854,23.788 -104.163,-4.486c-28.311,-28.267 -30.307,-73.481 -4.606,-104.141l-39.324,-39.371l-212.264,212.274l39.562,39.558c30.627,-25.745 75.861,-23.794 104.154,4.47c28.308,28.273 30.316,73.494 4.612,104.157l277.434,277.58c3.027,3.026 6.221,5.831 9.448,8.559l211.382,-211.382c-2.722,-3.233 -5.539,-6.415 -8.566,-9.438Zm-146.577,100.632l-247.218,-247.218l34.951,-34.958l247.225,247.231l-34.958,34.945Z" style="fill:#3ad39e;fill-rule:nonzero;"/></g></g></svg>