<?xml version="1.0" encoding="UTF-8" standalone="no"?><!DOCTYPE svg PUBLIC "-//W3C//DTD SVG 1.1//EN" "http://www.w3.org/Graphics/SVG/1.1/DTD/svg11.dtd"><svg width="100%" height="100%" viewBox="0 0 417 417" version="1.1" xmlns="http://www.w3.org/2000/svg" xmlns:xlink="http://www.w3.org/1999/xlink" xml:space="preserve" xmlns:serif="http://www.serif.com/" style="fill-rule:evenodd;clip-rule:evenodd;stroke-linejoin:round;stroke-miterlimit:1.41421;"><g><rect x="0" y="0" width="416.667" height="416.667" style="fill:none;"/><path d="M312.5,243.054c-28.767,0 -52.083,-23.312 -52.083,-52.083c0,-28.767 23.316,-52.083 52.083,-52.083c28.767,0 52.083,23.316 52.083,52.083c0,28.771 -23.316,52.083 -52.083,52.083Zm-156.25,-52.083c-38.35,0 -69.446,-31.092 -69.446,-69.442c0,-38.35 31.096,-69.446 69.446,-69.446c38.35,0 69.446,31.096 69.446,69.446c0,38.35 -31.096,69.442 -69.446,69.442Z" style="fill:#3ad39e;fill-rule:nonzero;"/><path d="M305.575,260.433c59.146,0.642 107.429,30.538 111.058,93.734c0.155,2.55 0,10.416 -9.412,10.416l-66.942,0c0,-39.079 -12.916,-75.137 -34.708,-104.15l0.004,0Zm-305.554,90.242c6.721,-82.846 73.975,-124.979 155.937,-124.979c83.125,0 151.425,39.808 156.513,125c0.208,3.383 0,13.887 -13.042,13.887l-286.787,0c-4.359,0 -12.984,-9.391 -12.621,-13.904l0,-0.004Z" style="fill:#3ad39e;fill-rule:nonzero;"/></g></svg>