<?xml version="1.0" encoding="UTF-8" standalone="no"?><!DOCTYPE svg PUBLIC "-//W3C//DTD SVG 1.1//EN" "http://www.w3.org/Graphics/SVG/1.1/DTD/svg11.dtd"><svg width="100%" height="100%" viewBox="0 0 2134 2134" version="1.1" xmlns="http://www.w3.org/2000/svg" xmlns:xlink="http://www.w3.org/1999/xlink" xml:space="preserve" xmlns:serif="http://www.serif.com/" style="fill-rule:evenodd;clip-rule:evenodd;stroke-linejoin:round;stroke-miterlimit:1.41421;"><g><g><path d="M1166.55,1660.02l-340.055,0c-49.314,0 -89.464,-40.15 -89.464,-89.464l0,-480.349c0,-49.314 40.15,-89.464 89.464,-89.464l480.283,0c49.38,0 89.53,40.15 89.53,89.464l0,339.989c0,26.371 -10.285,51.226 -28.876,69.949l-130.933,130.933c-18.459,18.393 -43.973,28.942 -69.949,28.942Zm-340.055,-593.349c-12.988,0 -23.536,10.548 -23.536,23.536l0,480.349c0,12.988 10.548,23.536 23.536,23.536l339.989,0c8.703,0 17.207,-3.494 23.339,-9.625l130.866,-130.867c6.263,-6.329 9.691,-14.636 9.691,-23.404l0,-339.989c0,-12.988 -10.548,-23.536 -23.536,-23.536l-480.349,0Z" style="fill:#3855be;fill-rule:nonzero;"/><path d="M1013.86,1504.03c-8.769,0 -17.142,-3.494 -23.339,-9.625l-140.69,-140.69c-12.855,-12.856 -12.855,-33.755 0,-46.611c12.856,-12.856 33.755,-12.856 46.611,0l115.769,115.769l223.1,-254.876c11.999,-13.713 32.832,-15.098 46.479,-3.099c13.713,11.999 15.097,32.832 3.098,46.545l-246.24,281.445c-5.999,6.857 -14.57,10.944 -23.668,11.208c-0.395,-0.066 -0.725,-0.066 -1.12,-0.066Z" style="fill:#3855be;fill-rule:nonzero;"/></g><path d="M1692.98,1857.8l-1252.63,0c-90.915,0 -164.82,-73.971 -164.82,-164.819l0,-1120.77c0,-90.848 73.905,-164.819 164.82,-164.819l1252.63,0c90.914,0 164.819,73.971 164.819,164.819l0,1120.77c0,90.848 -73.905,164.819 -164.819,164.819Zm-1252.63,-1384.48c-54.523,0 -98.892,44.37 -98.892,98.892l0,1120.77c0,54.522 44.369,98.891 98.892,98.891l1252.63,0c54.522,0 98.891,-44.369 98.891,-98.891l0,-1120.77c0,-54.522 -44.369,-98.892 -98.891,-98.892l-1252.63,0Z" style="fill:#3855be;fill-rule:nonzero;"/><path d="M1824.84,802.956l-1516.34,0c-18.196,0 -32.964,-14.768 -32.964,-32.964c0,-18.196 14.768,-32.964 32.964,-32.964l1516.34,0c18.196,0 32.964,14.768 32.964,32.964c0,18.196 -14.768,32.964 -32.964,32.964Z" style="fill:#3855be;fill-rule:nonzero;"/><path d="M638.137,605.173c-18.196,0 -32.964,-14.768 -32.964,-32.964l0,-263.711c0,-18.196 14.768,-32.964 32.964,-32.964c18.196,0 32.964,14.768 32.964,32.964l0,263.711c0,18.196 -14.768,32.964 -32.964,32.964Z" style="fill:#3855be;fill-rule:nonzero;"/><path d="M1495.2,605.173c-18.196,0 -32.964,-14.768 -32.964,-32.964l0,-263.711c0,-18.196 14.768,-32.964 32.964,-32.964c18.196,0 32.964,14.768 32.964,32.964l0,263.711c0,18.196 -14.768,32.964 -32.964,32.964Z" style="fill:#3855be;fill-rule:nonzero;"/></g></svg>