<?xml version="1.0" encoding="UTF-8" standalone="no"?><!DOCTYPE svg PUBLIC "-//W3C//DTD SVG 1.1//EN" "http://www.w3.org/Graphics/SVG/1.1/DTD/svg11.dtd"><svg width="100%" height="100%" viewBox="0 0 4741 3583" version="1.1" xmlns="http://www.w3.org/2000/svg" xmlns:xlink="http://www.w3.org/1999/xlink" xml:space="preserve" xmlns:serif="http://www.serif.com/" style="fill-rule:evenodd;clip-rule:evenodd;stroke-linejoin:round;stroke-miterlimit:1.41421;"><path d="M51.167,1693.79c75,292.291 233.791,544.958 484.75,667.416c521.75,254.542 1697.71,123.25 2575.5,-27.416c454.166,-77.959 853.083,-292.917 1143.04,-595.834l-4203.29,-44.166Z" style="fill:#3ad39e;fill-opacity:0.1;fill-rule:nonzero;"/><path d="M4654.38,318l-481.625,0c-22.917,0 -41.667,-17.083 -41.667,-37.958c0,-20.875 18.709,-37.959 41.667,-37.959l83.333,0c-22.916,0 -41.666,-17.083 -41.666,-37.958c0,-20.875 18.708,-37.917 41.666,-37.917l-59.458,0c-22.917,0 -41.667,-17.083 -41.667,-37.958c0,-20.875 18.709,-37.958 41.667,-37.958l251.375,0c-55.792,-23.667 -120.833,-40.459 -196.083,-49.25c-685.459,-80.292 -930.209,-27.209 -1016.67,27.416c-107.467,68.787 -227.016,116.564 -352.292,140.792c-422.916,79.542 -1213.83,175.25 -1930.71,-30.667c-356.292,-102.291 -621.083,70.834 -779.833,359.625l4565.58,0c-5.958,-84 -23.792,-161.583 -56.542,-229.458c-7.73,6.037 -17.274,9.297 -27.083,9.25Z" style="fill:#3ad39e;fill-opacity:0.1;fill-rule:nonzero;"/><path d="M10.292,1083.71c-18.48,169.995 -12.178,341.775 18.708,509.959l4228.67,141c116.511,-121.729 215.403,-259.176 293.791,-408.334l-4541.17,-242.625Zm1672.38,363.792l-83.334,0c22.875,0 41.667,17.083 41.667,37.958c0,20.875 -18.75,37.917 -41.667,37.917l-481.416,0c-22.875,0 -41.667,-17.042 -41.667,-37.917c0,-20.875 18.75,-37.958 41.667,-37.958l83.333,0c-22.875,0 -41.667,-17.083 -41.667,-37.958c0,-20.875 18.75,-37.959 41.667,-37.959l-59.542,0c-22.875,0 -41.666,-17.041 -41.666,-37.916c0,-20.875 18.75,-37.959 41.666,-37.959l481.625,0c22.917,0 41.667,17.084 41.667,37.959c0,20.875 -18.708,37.916 -41.667,37.916l59.334,0c22.916,0 41.666,17.084 41.666,37.959c0,20.875 -18.625,37.958 -41.666,37.958Z" style="fill:#3ad39e;fill-opacity:0.1;fill-rule:nonzero;"/><path d="M4738.21,540.833l-4616.67,102.375c-56.25,131.625 -93.459,280.417 -110.625,434.667l4646.38,0c30.251,-90.256 52.695,-182.944 67.083,-277.042c13.833,-90.666 19.375,-178.333 13.833,-260Zm-3789.92,335.459l-83.334,0c22.875,0 41.667,17.083 41.667,37.958c0,20.875 -18.75,37.958 -41.667,37.958l-481.583,0c-22.875,0 -41.667,-17.083 -41.667,-37.958c0,-20.875 18.75,-37.958 41.667,-37.958l83.333,0c-22.875,0 -41.666,-17.042 -41.666,-37.917c0,-20.875 18.75,-37.958 41.666,-37.958l-59.541,0c-22.875,0 -41.667,-17.084 -41.667,-37.959c0,-20.875 18.75,-37.958 41.667,-37.958l481.625,0c22.916,0 41.666,17.083 41.666,37.958c0,20.875 -18.708,37.959 -41.666,37.959l59.5,0c22.875,0 41.666,17.083 41.666,37.958c0,20.875 -18.791,37.917 -41.666,37.917Z" style="fill:#3ad39e;fill-opacity:0.1;fill-rule:nonzero;"/><ellipse cx="2768.08" cy="3124.75" rx="313.458" ry="70.375" style="fill:#3ad39e;fill-opacity:0.1;"/><ellipse cx="3496.46" cy="3348.25" rx="565.5" ry="46.417" style="fill:#3ad39e;fill-opacity:0.1;"/><ellipse cx="1225.92" cy="3277.88" rx="565.5" ry="70.375" style="fill:#3ad39e;fill-opacity:0.1;"/><ellipse cx="2088.12" cy="2925.58" rx="425.5" ry="70.375" style="fill:#3ad39e;fill-opacity:0.1;"/><path d="M2406.08,1251.38c-9,-60.583 -64.041,-201.958 -64.041,-201.958c-0.959,-4.167 -2.042,-8.334 -3.25,-12.5c-39.042,-134.167 -93.084,-145.834 -93.084,-145.834l-193.583,-41.666c1.623,1.014 3.038,2.329 4.167,3.875c-1.022,0.094 -2.038,0.247 -3.042,0.458c-8.863,-10.463 -14.725,-23.137 -16.958,-36.667c-0.375,-2 -0.709,-4.166 -0.959,-6.208c26.283,-25.619 41.122,-60.806 41.122,-97.508c0,-41.83 -19.274,-81.408 -52.205,-107.2c-2.042,-1.584 -4.167,-3.125 -6.208,-4.584c9.125,-9.708 9.416,-23.208 2.583,-36.708c-15.25,-31.667 -48.417,-51.708 -82.5,-61.5c-26.042,-7.458 -54.167,-9.875 -80.083,-1.708c-14.709,4.666 -28.125,12.5 -41.917,19.458c-25.708,12.833 -54.167,23 -73.375,44.125c-4.5,4.917 -8.667,11.208 -7.333,17.708c1,4.834 4.833,8.584 7.291,12.875c5.542,9.625 4.167,21.75 0.375,32.25c-3.791,10.5 -9.333,20.25 -11.958,31c-2.625,10.75 -1.625,23.417 6.458,31.125c3.876,2.992 7.91,5.774 12.084,8.334c4.423,3.769 8.306,8.13 11.541,12.958c7.667,10.278 15.306,20.597 22.917,30.958c10.746,13.733 20.348,28.323 28.708,43.625c5.709,11.25 10.125,23.25 17.75,33.334c2.235,2.943 4.793,5.627 7.625,8l-2.25,-0.875c6.694,6.812 15.911,10.568 25.459,10.375l1.166,0c1.74,-0.037 3.404,-0.721 4.667,-1.917l0,4.167c0.458,14.875 0.375,30.708 -0.667,45.583l-1.791,-0.917c-5.416,-2.692 -11.929,-2.008 -16.667,1.75l-178.208,143c0,0 -38.75,53 -33.334,144.5l-31.25,137.209c0,0 -39.041,116.416 -9,199.541c30.042,83.125 47.459,130.667 47.459,130.667c0,0 12,94.458 30.041,102.167c18.042,7.708 25.834,11.875 25.834,11.875l3.583,22.583c0,0 1.208,2.208 3.333,5.917c13.125,22.833 61.75,103.416 90,94.791c3.557,21.882 5.091,44.045 4.584,66.209l27.958,187.708c0,0 19.5,51.042 18.292,77.792c-1.209,26.75 22.75,64.875 22.75,64.875c-14.552,26.638 -18.824,57.715 -12,87.291c11.416,50 25.833,280.334 25.833,280.334l20.833,55.833l-0.583,65.458c-1.71,10.675 -6.161,20.726 -12.917,29.167c-13.5,14.667 -12.5,31.625 -45.041,51.667c-32.542,20.041 -53.167,27.625 -53.167,54.166c-0.039,3.702 -0.374,7.394 -1,11.042c-3,19.5 -8.833,30.083 51,35.75c70.292,6.667 117.167,-39.167 117.167,-39.167c0,0 10.333,-18.75 59,-26.333c0,0 16.666,-0.875 17.541,-15.583c0.334,-5.084 0.25,-14.792 0,-25.5c-0.791,-20.375 -2.75,-44.167 -5.333,-45.334c-3.25,-1.458 -8.917,-21.958 -10.875,-29.375l13.542,0c0,0 12.5,-94.458 0,-155.625c-12.5,-61.166 -1.209,-104.541 -1.209,-104.541l-2.416,-161.542c0,0 -16.667,-17.833 -3.584,-49.333c13.084,-31.5 0,-187.084 0,-187.084c0,0 4.834,-55.833 18.625,-68.916c13.792,-13.084 0.667,-81.792 0,-85.375l24.584,82.458c0,0 10.791,163.917 33.666,193.583l6.584,74.25c0,0 46.833,68.334 37.833,105.125c-9,36.792 9.625,169.875 9.625,169.875l0,136.042c0,0 -21.042,54.625 8.333,74.25l12.5,-0.5c-4.166,3.875 -7.375,9.708 -12.25,14.75c-5.625,5.792 -8.833,27.833 -10.625,46.792c-1.5,16.041 -2,29.833 -2,29.833c0,0 12.5,20 36.042,21.375c23.542,1.375 101.125,60.375 101.125,60.375c0,0 76.625,0 96.458,-4.167l1.167,-0.291c6.364,-2.002 11.722,-6.375 14.958,-12.209c3.972,-6.768 5.252,-14.79 3.584,-22.458c-2.459,-11.708 -11.75,-24.542 -32.334,-35.458c-51.208,-27 -58.833,-52.292 -58.833,-52.292l-33.625,-50.458l4.792,0c0,0 -2.959,-53.459 33.625,-113.459l-2.375,-264.291c0,0 15,-90.875 -10.792,-140.209c0,0 -2.125,-52.25 15.125,-68.291c17.25,-16.042 -22.958,-178.167 -22.958,-178.167c0,0 -8.334,-87.042 -18.125,-166.458c40.541,38.458 82.583,-100 89.666,-124.625l1.042,0l-0.458,-1.792c0.291,-1.167 0.458,-1.75 0.458,-1.75c0,0 -9,-32 -2.417,-25.5c6.584,6.5 22.834,-17.833 22.834,-17.833c0,0 -2.417,-132.459 25.833,-199.209c28.25,-66.75 -12.542,-229.333 -12.542,-229.333Zm-120.833,84.292l0.208,-0.375c4.167,80.875 -0.791,253.458 -0.791,253.458c0,0 -5.584,22.125 -11.542,48.167l-4.167,-163.959l-4.166,-154.458l20.458,17.167Zm-517.125,-55.75c0,0 20.417,255.375 0,292.208c-5.792,10.5 -10.667,29.167 -14.708,50.458c-6.75,-17.708 -21.042,-59.291 -15.917,-81.333c6.625,-28.5 -13.208,-103.375 -13.208,-105.125c0,-1.75 -1.792,-41.667 12.5,-72.167c14.291,-30.5 4.916,-43.708 4.916,-43.708c0,0 12,-50 26.417,-40.333Z" style="fill:url(#_Linear1);fill-rule:nonzero;"/><path d="M1817.88,1855.08c-17.792,78.209 -88.542,-40.041 -104.667,-68.416c-2.083,-3.709 -3.25,-5.875 -3.25,-5.875l7.667,-35.959l40.542,-16.666c6.42,3.354 12.503,7.317 18.166,11.833c22.209,17.458 55.25,54.5 41.542,115.083Z" style="fill:#d38884;fill-rule:nonzero;"/><path d="M2366.75,1727.12c0,0 0,0.583 -0.458,1.75c0,0.5 -0.334,1.167 -0.542,1.875c-6.958,24.417 -48.208,161.875 -88.042,123.708c-43.583,-41.666 -22.416,-138 -22.416,-138l0.291,0l91.667,-9.375l18.167,18.667l1.333,1.375Z" style="fill:#d38884;fill-rule:nonzero;"/><path d="M2313.71,2403.58l2.334,262.5c-35.959,59.584 -33,112.5 -33,112.5l-118.5,4.667c-28.917,-19.458 -8.334,-73.667 -8.334,-73.667l0,-135.166c0,0 -18.291,-132.042 -9.458,-168.625c8.833,-36.584 -37.125,-104.167 -37.125,-104.167l-6.5,-73.708c-22.417,-29.459 -33.042,-192.167 -33.042,-192.167l-24.041,-82.167c0.666,3.542 13.166,72.125 0,84.75c-13.167,12.625 -18.292,68.375 -18.292,68.375c0,0 12.958,154.5 0,185.709c-12.958,31.208 3.5,48.958 3.5,48.958l2.375,160.375c0,0 -11.208,43.042 1.167,103.75c12.375,60.708 0,154.5 0,154.5l-127.125,0l0.583,-65.458l-20.583,-55.417c0,0 -14.167,-228.75 -25.375,-278.292c-6.707,-29.35 -2.53,-60.161 11.75,-86.666c14.279,-26.506 -23.542,-37.709 -22.375,-64.25c1.166,-26.542 -18.167,-77.167 -18.167,-77.167l-27.417,-186.292c0.755,-35.852 -3.823,-71.618 -13.583,-106.125c-15.917,-53.083 -39.5,-122.666 -39.5,-122.666l26.625,2.375l134.333,11.958c0,0 326.625,-21.958 341.25,-3.708c3.085,5.966 5.169,12.399 6.167,19.041c14.667,65.875 34.042,272.25 34.042,272.25c0,0 39.5,160.959 22.541,176.875c-16.958,15.917 -14.875,67.75 -14.875,67.75c25.417,48.959 10.625,139.375 10.625,139.375Z" style="fill:#444053;fill-rule:nonzero;"/><path d="M2037.58,2859.54c-0.916,14.625 -17.208,15.5 -17.208,15.5c-47.75,7.5 -57.917,26.083 -57.917,26.083c0,0 -45.833,45.542 -114.958,38.917c-58.75,-5.667 -53.042,-16.125 -50,-35.5c0.591,-3.61 0.911,-7.259 0.958,-10.917c0,-26.542 20.334,-34.083 52.167,-54.167c31.833,-20.083 30.958,-36.708 44.208,-51.291c13.25,-14.584 14.625,-42.875 14.625,-42.875c15,-26.125 53.042,4.166 53.042,4.166c1.792,9.25 58.333,7.959 58.333,7.959c0,0 7.5,30.083 11.375,31.833c2.542,1.167 4.459,24.75 5.209,45c0.416,10.625 0.5,20.25 0.166,25.292Z" style="fill:#b07473;fill-rule:nonzero;"/><path d="M2037.58,2859.54c-0.916,14.625 -17.208,15.5 -17.208,15.5c-47.75,7.5 -57.917,26.083 -57.917,26.083c0,0 -45.833,45.542 -114.958,38.917c-58.75,-5.667 -53.042,-16.125 -50,-35.5c26.25,6.5 76.417,15.583 105.708,-0.334c40.709,-22.083 69.917,-37.5 69.917,-37.5l64.333,-32.375c0.375,10.542 0.459,20.167 0.125,25.209Z" style="fill-opacity:0.1;fill-rule:nonzero;"/><path d="M2397.46,2938.25c-3.133,5.786 -8.394,10.136 -14.666,12.125l-1.125,0.292c-19.459,4.166 -94.667,4.166 -94.667,4.166c0,0 -76.042,-58.791 -99.042,-60.125c-23,-1.333 -35.375,-21.25 -35.375,-21.25c0,0 0.459,-13.666 1.917,-29.583c1.792,-18.833 4.917,-40.708 10.458,-46.458c10.167,-10.625 12.5,-25 35.375,-15.917c0,0 32.667,-57.583 71.167,-13.083l39.833,60.416c0,0 7.5,25 57.959,52.125c20.166,10.834 29.166,23.584 31.708,35.209c1.604,7.543 0.341,15.42 -3.542,22.083Z" style="fill:#b07473;fill-rule:nonzero;"/><path d="M2397.46,2938.25c-4.5,3.792 -9.458,7.875 -14.666,12.125l-1.125,0.292c-19.459,4.166 -94.667,4.166 -94.667,4.166c0,0 -76.042,-58.791 -99.042,-60.125c-23,-1.333 -35.375,-21.25 -35.375,-21.25c0,0 0.459,-13.666 1.917,-29.583c23.417,7 58.875,19.375 68.375,32.708c14.583,20.292 58.875,48.625 58.875,48.625c0,0 82.583,-7.958 119.25,-9.041c1.604,7.543 0.341,15.42 -3.542,22.083Z" style="fill-opacity:0.1;fill-rule:nonzero;"/><path d="M2076.08,880.792l-108.75,114.958c0,0 -131.791,-9.708 -108.791,-48.625c11.708,-19.833 13.541,-61.333 12.5,-97.417c-0.959,-34.791 -4.542,-64.416 -4.542,-64.416c0,0 184.833,-92 170.833,-6.209c-3.016,16.166 -3.185,32.735 -0.5,48.959c7.875,43.333 39.25,52.75 39.25,52.75Z" style="fill:#d38884;fill-rule:nonzero;"/><path d="M2037.17,779.083c-3.016,16.166 -3.186,32.735 -0.5,48.959c-25.527,25.868 -60.408,40.424 -96.75,40.375c-25,0 -52.042,-20.542 -72.25,-32.417c-0.959,-34.833 -1.167,-50.708 -1.167,-50.708c0,0 184.833,-92 170.667,-6.209Z" style="fill-opacity:0.1;fill-rule:nonzero;"/><path d="M2076.08,725.125c0,0.016 0,0.032 0,0.048c0,74.722 -61.486,136.209 -136.208,136.209c-74.722,0 -136.208,-61.487 -136.208,-136.209c0,-74.721 61.486,-136.208 136.208,-136.208c30.865,0 60.833,10.491 84.958,29.743c32.354,25.818 51.236,65.025 51.25,106.417Z" style="fill:#d38884;fill-rule:nonzero;"/><path d="M2261.38,1747.33c-33.917,80.709 -252.083,82.375 -252.083,82.375l0,-88l-13.209,-0.875c5.709,25.209 -8,86.667 -8,86.667c-172.416,24.333 -214.458,-73.917 -214.458,-73.917l6,-33.625l134.333,11.959c0,0 326.625,-21.959 341.25,-3.709c3.094,5.993 5.178,12.455 6.167,19.125Z" style="fill-opacity:0.1;fill-rule:nonzero;"/><path d="M2009.29,1819.08l0,-88l-13.209,-0.833c5.709,25 -8,86.667 -8,86.667c-129.75,18.291 -185.666,-32.792 -205.375,-59.209c-3.543,-4.55 -6.588,-9.467 -9.083,-14.666l52.667,-296.25l12.5,-436l18.875,-76.5l4.375,-36.709l0,-0.416l0.458,0l13.417,5.75l80.291,34.708l91.209,-68.875l1.333,-0.958l4.542,-3.459l7.541,6.042l18.75,15.042l60.125,388.291c0,0 104.167,298.959 123.667,419.625c0.792,4.834 1.417,9.334 1.917,13.542c12.875,110.167 -256,112.208 -256,112.208Z" style="fill:#3ad39e;fill-rule:nonzero;"/><circle cx="1965.96" cy="946.208" r="7.75" style="fill:#67647e;"/><circle cx="1969.54" cy="1016.96" r="7.75" style="fill:#67647e;"/><circle cx="1977.29" cy="1131.5" r="7.75" style="fill:#67647e;"/><circle cx="1990.08" cy="1254.88" r="7.75" style="fill:#67647e;"/><circle cx="1997.83" cy="1370.71" r="7.75" style="fill:#67647e;"/><circle cx="2005.58" cy="1494.08" r="7.75" style="fill:#67647e;"/><circle cx="2002.5" cy="1616.12" r="7.75" style="fill:#67647e;"/><path d="M1867.21,1489.88c0,0 -8.666,113.458 -24.583,146.458c-15.917,33 -23,125.584 -23,125.584l-36.958,-4.167c-3.544,-4.55 -6.589,-9.467 -9.084,-14.667l52.667,-296.25l12.5,-436l18.917,-76.541l4.375,-36.709l0.5,-0.208c4.18,-1.975 9.05,-1.898 13.166,0.208l1.75,0.917c-0.527,1.5 -1.027,3.042 -1.5,4.625c-14.416,45.125 -19.791,128.292 -19.791,128.292c0,0 20.833,152.125 23,222.875c2.166,70.75 -11.959,235.583 -11.959,235.583Z" style="fill-opacity:0.1;fill-rule:nonzero;"/><path d="M1776.33,1740.12c-0.405,0.95 -0.878,1.869 -1.416,2.75c-14.334,24.208 -50.667,39.583 -61.709,43.792c-2.083,-3.709 -3.25,-5.875 -3.25,-5.875l7.667,-35.959l40.542,-16.666c6.425,3.394 12.508,7.398 18.166,11.958Z" style="fill-opacity:0.1;fill-rule:nonzero;"/><path d="M1678.12,1161.12l-33.625,20.042l-30.625,136.208c0,0 -38.333,115.542 -8.875,198.083c29.458,82.542 46.583,129.792 46.583,129.792c0,0 11.792,93.75 29.5,101.417c17.709,7.666 25.334,11.791 25.334,11.791l3.541,22.417c0,0 48,-16.292 64.959,-45c16.958,-28.708 -12.5,-100 -12.5,-100c0,0 -25.334,-60.75 -18.834,-89.042c6.5,-28.291 -13,-102.583 -13,-104.166c0,-1.584 -1.75,-41.292 12.5,-71.667c14.25,-30.375 4.75,-43.333 4.75,-43.333l-8.875,-86.667l-60.833,-79.875Z" style="fill:#67647e;fill-rule:nonzero;"/><path d="M2264.17,1721.83c0,0 -89.042,33.584 -117.334,4.167c-28.291,-29.417 -25.375,-167.458 -25.375,-167.458c0,0 -27.083,-254.709 -44.208,-296.542c-17.125,-41.833 -8.333,-343.75 -8.333,-343.75c0,0 -11.5,-39.042 -21.542,-49.25c-0.634,-0.656 -1.348,-1.23 -2.125,-1.708l3.458,0.75l12.084,2.583l18.75,15.042l60.125,388.291c0,0 104.166,298.959 123.666,419.625l0.834,28.25Z" style="fill-opacity:0.1;fill-rule:nonzero;"/><path d="M2366.75,1730.67l-1,0c-11.208,1.458 -110.125,13.416 -110.542,-7.167c-0.015,-2.38 0.11,-4.759 0.375,-7.125l91.667,-9.375l18.167,18.667c0.333,1.208 0.583,2.25 0.833,3.083l0.5,1.917Z" style="fill-opacity:0.1;fill-rule:nonzero;"/><path d="M2271.83,1024.71l65,33.917c0,0 54.167,140.25 62.834,200.375c0,0 40.125,161.083 12.5,227.333c-27.625,66.25 -25.334,197.75 -25.334,197.75c0,0 -15.916,24.167 -22.416,17.709c-6.5,-6.459 2.375,25.333 2.375,25.333c0,0 -111.125,14.75 -111.584,-7.083c-0.458,-21.834 25.5,-126.167 25.5,-126.167c0,0 7.084,-248.208 -2.958,-287.125c-10.042,-38.917 -5.917,-282.042 -5.917,-282.042Z" style="fill:#67647e;fill-rule:nonzero;"/><path d="M2077.88,1289.08c0,0 -36.583,89.584 -48.375,95.5c-11.792,5.917 2.375,29.459 2.375,29.459c0,0 66.625,-93.125 46,-124.959Z" style="fill-opacity:0.1;fill-rule:nonzero;"/><path d="M2056.04,974.833c0.416,-1.708 -43.625,43.209 -55.417,50c-11.792,6.792 43.042,-0.416 55.417,-50Z" style="fill-opacity:0.1;fill-rule:nonzero;"/><path d="M1933.42,1282c0,0 -67.209,43.458 -58.334,60.667c8.875,17.208 58.334,-60.667 58.334,-60.667Z" style="fill-opacity:0.1;fill-rule:nonzero;"/><path d="M2055.46,1916.38c0,0 57.209,36.792 146.209,45.833l-146.209,-45.833Z" style="fill-opacity:0.1;fill-rule:nonzero;"/><path d="M1918.08,2004.83c0,0 53.042,66.667 77.25,68.375c24.209,1.709 -77.25,-68.375 -77.25,-68.375Z" style="fill-opacity:0.1;fill-rule:nonzero;"/><path d="M1992.38,2266.08c-2.375,1.167 -30.083,60.125 -58.333,61.917c-28.25,1.792 58.333,-61.917 58.333,-61.917Z" style="fill-opacity:0.1;fill-rule:nonzero;"/><path d="M2238.21,2395.25c0,0 52.584,-11.792 64.292,25.917c0,-0.125 -3.542,-11.917 -64.292,-25.917Z" style="fill-opacity:0.1;fill-rule:nonzero;"/><path d="M2202.83,2610.92c0,0 63.709,-13 77.25,4.708c13.542,17.708 -77.25,-4.708 -77.25,-4.708Z" style="fill-opacity:0.1;fill-rule:nonzero;"/><path d="M2022.62,2641.08c0,0.584 -64.833,13 -62.5,21.25c2.333,8.25 69.167,7.084 71.542,-5.916c0.278,-1.047 0.418,-2.126 0.418,-3.209c0,-5.714 -3.918,-10.735 -9.46,-12.125Z" style="fill-opacity:0.1;fill-rule:nonzero;"/><path d="M2181.62,2697c0,0 106.542,-13 100,9.417c-6.542,22.416 -100,-9.417 -100,-9.417Z" style="fill-opacity:0.1;fill-rule:nonzero;"/><path d="M1623.88,1384.58c0.583,1.75 70.167,11.209 79.583,33.625c0,0 -68.375,-31.875 -79.166,-31.875" style="fill-opacity:0.1;fill-rule:nonzero;"/><path d="M1721.75,1566.75c0,0 -57.792,18.292 -53.667,45.833c4.125,27.542 -5.875,-12.75 53.667,-45.833Z" style="fill-opacity:0.1;fill-rule:nonzero;"/><path d="M1694.83,1707.08c0,0 21.042,-28.875 41.084,-23.583c20.041,5.292 -41.084,23.583 -41.084,23.583Z" style="fill-opacity:0.1;fill-rule:nonzero;"/><path d="M2024.83,618.708c-2.024,1.964 -4.292,3.659 -6.75,5.042c-16.666,9.708 -21.25,24.667 -29.166,41.917c-7.375,15.791 -15.5,32.5 -30.375,41.458c-19.209,11.583 -44.5,7.333 -64.459,17.417c-18.089,9.417 -28.682,28.998 -26.666,49.291c1.268,7.67 3.163,15.223 5.666,22.584c4.539,15.936 6.591,32.479 6.084,49.041c0.042,0.486 0.042,0.973 0,1.459c-46.079,-23.023 -75.308,-70.3 -75.308,-121.81c0,-74.699 61.468,-136.166 136.167,-136.166c30.874,0 60.849,10.5 84.974,29.767l-0.167,0Z" style="fill-opacity:0.1;fill-rule:nonzero;"/><path d="M2021.29,577.708c-14.959,-31.416 -47.5,-51.333 -80.959,-61.041c-25.541,-7.375 -53.291,-9.792 -78.625,-1.667c-14.458,4.583 -27.583,12.5 -41.125,19.292c-25.25,12.75 -53,22.833 -72,43.791c-4.458,4.875 -8.333,11.125 -7.208,17.584c0.958,4.791 4.708,8.333 7.125,12.75c5.458,9.583 4.167,21.625 0.375,32.041c-3.792,10.417 -9.167,20.084 -11.75,30.792c-2.583,10.708 -1.583,23.25 6.333,30.875c3.542,3.375 8.084,5.5 11.917,8.333c4.332,3.743 8.131,8.061 11.292,12.834l22.5,30.75c10.569,13.627 19.991,28.107 28.166,43.291c5.584,11.167 9.917,23.084 17.417,33.042c7.5,9.958 19.167,17.958 31.583,16.875c1.949,0.05 3.808,-0.834 5,-2.375c0.461,-0.975 0.676,-2.048 0.625,-3.125c0.549,-16.501 -1.461,-32.989 -5.958,-48.875c-2.508,-7.359 -4.403,-14.912 -5.667,-22.583c-1.957,-20.283 8.619,-39.832 26.667,-49.292c20,-10.083 45.292,-5.833 64.458,-17.375c14.917,-9 23.042,-25.708 30.375,-41.667c8.042,-17.25 12.5,-32.208 29.167,-41.916c16.667,-9.709 18.583,-25.792 10.292,-42.334Z" style="fill:#585268;fill-rule:nonzero;"/><path d="M1960.29,2803.83c0,0 20.833,26.542 15.416,41.667c-5.416,15.125 -15.416,-41.667 -15.416,-41.667Z" style="fill-opacity:0.1;fill-rule:nonzero;"/><path d="M2242.17,2870.25c0,0 4.625,-35.583 23.166,-35.917c18.542,-0.333 19.459,-1.916 33.625,3.542c14.167,5.458 27.459,13.917 23.209,15.167c-4.25,1.25 -24.375,-20.334 -45.042,-9.292c-12.898,7.058 -24.679,15.989 -34.958,26.5Z" style="fill-opacity:0.1;fill-rule:nonzero;"/><path d="M1898.12,982.25l58.333,-40.875c0,0 -85.333,-50.417 -95.5,-43.333c-10.166,7.083 -17.166,70.833 -17.166,70.833l54.333,13.375Z" style="fill-opacity:0.1;fill-rule:nonzero;"/><path d="M1897.88,979.625l58.333,-41.667c0,0 -85.333,-50.416 -95.5,-43.333c-10.166,7.083 -17.166,74.333 -17.166,74.333l54.333,10.667Z" style="fill:#e1e7ef;fill-rule:nonzero;"/><path d="M1897.88,979.625l58.333,-41.667c0,0 -85.333,-50.416 -95.5,-43.333c-10.166,7.083 -17.166,74.333 -17.166,74.333l54.333,10.667Z" style="fill:#3ad39e;fill-rule:nonzero;"/><path d="M1870.38,894.958l-1.75,-0.875c-5.308,-2.706 -11.74,-2.035 -16.375,1.709l-175,141.958c0,0 -38.042,52.625 -32.75,143.417l103.208,146.208c0,0 11.792,-49.5 25.917,-40.083c0,0 20.042,253.541 0,290.083c-20.042,36.542 -28.875,173.333 -28.875,173.333l67.792,7.667c0,0 7.083,-92.583 23,-125.583c15.916,-33 24.583,-146.459 24.583,-146.459c0,0 14.333,-164.833 11.958,-235.583c-2.375,-70.75 -23,-222.875 -23,-222.875c0,0 5.792,-89.167 21.292,-132.917Z" style="fill:#67647e;fill-rule:nonzero;"/><path d="M2044.71,956.417l-72.708,-26.917c0,0 92.583,-101.417 104.167,-45.167l-31.459,72.084Z" style="fill-opacity:0.1;fill-rule:nonzero;"/><path d="M2044.71,952.875l-72.708,-26.917c0,0 92.583,-101.416 104.167,-45.166l-31.459,72.083Z" style="fill:#e1e7ef;fill-rule:nonzero;"/><path d="M2044.71,952.875l-72.708,-26.917c0,0 92.583,-101.416 104.167,-45.166l-31.459,72.083Z" style="fill:#3ad39e;fill-rule:nonzero;"/><path d="M2042.33,866.583c1.048,-0.168 2.122,0.071 3,0.667l-3,-0.667Z" style="fill-opacity:0.1;fill-rule:nonzero;"/><path d="M2049.33,859.542l192.917,41.666c0,0 53.083,11.792 91.417,145.042c38.333,133.25 -52.5,296.5 -52.5,296.5l-20.042,-17.042l10.042,389.125c0,0 -89.042,33.584 -117.334,4.167c-28.291,-29.417 -25.333,-167.583 -25.333,-167.583c0,0 -27.125,-254.667 -44.25,-296.542c-17.125,-41.875 -8.333,-343.708 -8.333,-343.708c0,0 -15.75,-53.959 -26.584,-51.625Z" style="fill:#67647e;fill-rule:nonzero;"/><path d="M2225.83,1107.5c-2.708,2.5 -5.875,120.25 5.917,209.875c7.209,54.579 18.349,108.567 33.333,161.542l-17.5,-359.042c0,0 -13.5,-20.042 -21.75,-12.375Z" style="fill-opacity:0.1;fill-rule:nonzero;"/><path d="M2202.25,1006.08c4.708,2.959 25.375,51.875 15.917,71.917c-9.459,20.042 -15.917,-71.917 -15.917,-71.917Z" style="fill-opacity:0.1;fill-rule:nonzero;"/><path d="M2020.17,577.708c-9.47,-18.647 -24.225,-34.098 -42.417,-44.416c13.527,9.686 24.45,22.57 31.792,37.5c8.333,16.666 5.875,33.333 -10.334,42.458c-16.208,9.125 -21.25,24.667 -29.166,41.917c-7.375,15.791 -15.5,32.5 -30.417,41.666c-19.167,11.584 -44.458,7.292 -64.458,17.375c-18.038,9.492 -28.607,29.043 -26.667,49.334c1.282,7.657 3.191,15.197 5.708,22.541c4.537,15.937 6.589,32.479 6.084,49.042c0.037,1.081 -0.192,2.154 -0.667,3.125c-1.166,1.551 -3.019,2.439 -4.958,2.375c-5.001,0.383 -10.015,-0.551 -14.542,-2.708c6.623,6.569 15.677,10.115 25,9.791c0.234,0.034 0.471,0.052 0.708,0.052c2.697,0 4.916,-2.22 4.916,-4.917c0,-0.212 -0.013,-0.424 -0.041,-0.635c0.54,-16.561 -1.498,-33.106 -6.041,-49.041c-2.541,-7.352 -4.451,-14.907 -5.709,-22.584c-1.957,-20.282 8.619,-39.831 26.667,-49.291c20,-10.084 45.292,-5.834 64.458,-17.375c14.917,-9 23.042,-25.709 30.375,-41.667c8.042,-17.25 12.5,-32.208 29.167,-41.917c16.667,-9.708 18.875,-26.083 10.542,-42.625Z" style="fill-opacity:0.1;fill-rule:nonzero;"/><path d="M3207.12,1100.96c-57.417,-1.125 -108.083,-41.666 -136.792,-91.208c-7.529,-11.788 -12.261,-25.143 -13.833,-39.042c0.199,-3.158 0.729,-6.286 1.583,-9.333c1.754,-4.65 3.147,-9.428 4.167,-14.292c0.228,-1.937 0.228,-3.895 0,-5.833c-0.228,-1.938 0,0 0,-0.333c1.375,-10.542 -4.833,-20.834 -12.5,-28.042c-7.667,-7.208 -17.292,-12.5 -25.292,-19.667c-24.666,-21.666 -32.166,-56.416 -32.625,-89.5l0,-1.75c0.292,-14.166 1.417,-28.375 1.292,-42.541c0.195,-8.042 -0.153,-16.088 -1.042,-24.084c-2.375,-20.041 -10,-40.458 -25.75,-53.25c-41.083,-33.333 -110.166,1.375 -152.708,-30.125c-10.333,-7.708 -18.708,-19.083 -31.25,-22.083c-9.458,-2.292 -19.292,0.792 -28.542,3.875c-31.333,10.333 -66.291,23.917 -78.541,54.167c-7,17.375 -5.042,37.208 -11.459,54.791c-4.166,11.792 -12.125,21.917 -17.916,33.084c-4.754,8.405 -7.064,17.976 -6.667,27.625c-0.514,4.995 0.186,10.042 2.042,14.708c2.177,5.625 5.679,10.642 10.208,14.625c-1.635,3.479 -3.677,6.752 -6.083,9.75c-8,9.792 -20.292,16.667 -28.625,26.417c-15.417,17.875 -14.834,42.166 -7.25,63.166c7.583,21 21.291,40.125 30.75,60.584c4.166,8.875 7.333,18.791 3.125,27.625c-2.959,6.125 -9.084,10.791 -13.834,16.083c-6.949,7.79 -11.317,17.545 -12.5,27.917c-93.791,21.416 -93.875,96.791 -93.875,96.791l-50.666,127.417c0,0 -8.125,21.458 -17.667,49.792l-59.958,-10.75l41.666,69.75c-7.875,28.416 -13.458,54.75 -11.625,68c0,0 -18.625,87.5 14.5,102.791l73.084,32.875c3.166,1.942 6.569,3.469 10.125,4.542l2.958,1.333c2.156,1.045 4.677,1.045 6.833,0l1,0c1.418,0.095 2.84,-0.118 4.167,-0.625c1.627,-0.876 2.917,-2.269 3.667,-3.958c-0.024,-0.138 -0.024,-0.279 0,-0.417l21.875,-6.333l18.541,21.958c8.334,5.875 16.667,10.959 24.542,15.542l-28.708,285.083c0,0 -4.625,379.167 -18.625,465.584c-5.167,32 -5.209,53.833 -3.25,68.666l-0.542,0.917c3.458,24.375 12.5,29.167 12.5,29.167l0,-0.334c0.167,0.132 0.349,0.244 0.542,0.334c4.217,-11.07 9.23,-21.821 15,-32.167l0,6.25c-0.292,32.167 -1.292,77.208 -4.625,106.5c-5.667,50 14.5,214.792 14.5,214.792l6.958,150c1.132,25.466 -4.78,50.757 -17.083,73.083c-16.667,29.958 -37.959,72.125 -39.5,90.833c-0.083,1.013 -0.083,2.03 0,3.042l-35.75,43c0,0 -13.959,21.583 17.583,30.292c16.958,4.708 46.208,0 69.708,-5.542c21.049,-4.849 36.097,-23.733 36.125,-45.333c5.94,-20.661 15.972,-39.918 29.5,-56.625l5.875,34.541l39.334,9.75l5.041,-94.666c2.031,-5.313 2.953,-10.985 2.709,-16.667c7.75,-67.333 -18.25,-61.292 -18.25,-61.292c0.695,0.593 1.142,1.426 1.25,2.334l-1.25,-2.292c-15.959,-31.5 -8.334,-83.333 -8.334,-83.333c0,0 20.834,-150 27.959,-189.625c5.125,-28 3,-119.667 1.291,-170.834c0,-2.125 0,-4.166 -0.208,-6.208c61,-0.792 135.75,-2.833 188.208,-7.917l0,6.167l-9.666,354.375c-0.664,22.594 -5.261,44.901 -13.584,65.917c0,0.416 -0.291,0.791 -0.458,1.208c-11.5,29.681 -17.991,61.067 -19.208,92.875l-4.5,112.5l0,3.125c-7.834,3 -20.209,11.708 -20.542,36.958c-0.542,37 64.667,24.667 64.667,24.667c65.166,0 65.708,-67.833 65.708,-67.833c0,0 2.042,-62.209 5.167,-103.834c3.125,-41.625 -9.834,-32.458 -9.834,-32.458l-1,118.417l0,0.916l0,-103.791l1,-15.042l0,-0.417l0,-3.208l8.209,-122.125c0,0 60.041,-203.5 69.333,-242.542c6.625,-27.75 3.875,-111.333 1.708,-157.541c0,-2.125 0,-4.167 -0.333,-6.125c18.625,-1.667 35.083,-1.834 41.667,-1.834l3.041,0c0,0 -3.083,-326.833 -10.875,-450c-7.791,-123.166 -20.166,-235.875 -51.208,-269.791c-18.75,-20.5 -44.875,-83.792 -62.5,-130.667c37.052,16.02 75.508,28.574 114.875,37.5c98.292,20.583 84.833,-64.75 84.833,-64.75l-9.958,-161.375l0.667,0c-0.365,-42.271 -3.987,-84.452 -10.834,-126.167c-5.208,-32 -13.166,-65.083 -25.333,-91.666c10.667,-4.167 21.208,-8.625 31.542,-13.209c26.708,-11.791 56.791,-28.5 60.625,-57.291l-1.292,0c0.515,-2.079 0.85,-4.198 1,-6.334Zm-609.292,233.334c0.209,16.666 -0.416,45.583 -1.416,77.541l-31.209,-41.666l31.292,-50.75l1.333,14.875Zm431.167,147.666l-52,-16.666c9.221,-14.387 19.994,-27.717 32.125,-39.75l4.5,-4.167l-1.625,0.333l2.5,-2.291l1.5,-0.334l-2.375,2.292l2.833,-0.583c3.13,13.062 9.185,25.244 17.709,35.625c18.666,20.375 -5.125,25.541 -5.125,25.541l-0.042,0Z" style="fill:url(#_Linear2);fill-rule:nonzero;"/><path d="M2713.12,2981.92l-6.083,115.333l-38.792,-9.708l-8.167,-47.959l53.042,-57.666Z" style="fill:#a27772;fill-rule:nonzero;"/><path d="M2713.12,2981.92l-6.083,115.333l-38.792,-9.708l-8.167,-47.959l53.042,-57.666Z" style="fill-opacity:0.1;fill-rule:nonzero;"/><path d="M2855.5,3112.54l59.167,12.25l43.875,-38.75l0,-109.209l1,-14.916l0,-0.459l0,-3.166l8.166,-121.375c0,0 59.209,-202.042 68.417,-240.834c6.5,-27.5 3.792,-110.5 1.625,-156.375c-0.875,-18.791 -1.625,-31.375 -1.625,-31.375l-130.625,-31.625l-2.75,100.417l-9.542,351.833c-0.658,22.427 -5.183,44.572 -13.375,65.459l-0.458,1.208c-11.359,29.466 -17.765,60.61 -18.958,92.167l-4.417,111.875l0,3.083l-0.5,9.792Z" style="fill:#cc818c;fill-rule:nonzero;"/><path d="M2959.54,2958.38l0,3.083l0,-3.166l0,0.083Z" style="fill-opacity:0.1;fill-rule:nonzero;"/><path d="M2855.5,3112.54l59.167,12.25l43.875,-38.75l0,-9.292c-0.29,4.173 -2.656,7.933 -6.292,10l-0.625,0.375c-20.378,10.772 -43.473,15.336 -66.417,13.125l-23.083,-1.958c-2.104,0.198 -4.168,0.703 -6.125,1.5l0,3.083l-0.5,9.667Z" style="fill-opacity:0.1;fill-rule:nonzero;"/><path d="M2951.62,3090.17l0.625,-0.334c3.913,-2.199 6.352,-6.344 6.375,-10.833l0.958,-117.542c0,0 12.75,-9.125 9.667,32.209c-3.083,41.333 -5.083,103.083 -5.083,103.083c0,0 -0.5,67.333 -64.792,67.333c0,0 -64.292,12.25 -63.792,-24.5c0.5,-36.75 26.542,-38.25 26.542,-38.25l23.083,2c22.949,2.216 46.049,-2.364 66.417,-13.166Z" style="fill:#b07473;fill-rule:nonzero;"/><path d="M2547.33,3087.54c1.5,26.541 79.584,11.208 79.584,11.208l52.541,-102c0,0 43.875,-33.708 21.917,-63.292c-1.175,-1.611 -2.246,-3.295 -3.208,-5.041c-0.962,-1.747 0,0 -0.209,-0.25c-0.458,-0.75 -0.875,-1.542 -1.291,-2.375c-15.75,-31.25 -8,-82.5 -8,-82.5c0,0 20.375,-149 27.541,-188.292c5.042,-27.75 2.959,-118.792 1.292,-169.708c-0.667,-21.167 -1.292,-35.375 -1.292,-35.375l-129.625,-34.709l0,38.667c-0.291,31.958 -1.291,76.667 -4.583,105.75c-5.583,49.458 14.292,213.25 14.292,213.25l6.875,149.042c1.191,25.248 -4.575,50.345 -16.667,72.541c-16.25,29.75 -37.5,71.667 -38.958,90.209c-0.145,0.951 -0.215,1.912 -0.209,2.875Z" style="fill:#cc818c;fill-rule:nonzero;"/><path d="M2547.33,3087.54c1.5,26.541 79.584,11.208 79.584,11.208l52.541,-102c0,0 43.875,-33.708 21.917,-63.292c-1.175,-1.611 -2.246,-3.295 -3.208,-5.041c-0.709,15.458 -17.667,54.166 -17.667,54.166c0,0 -43.375,86.792 -57.167,106.667c-13.791,19.875 -73.708,-3.708 -75.958,-4.542c-0.087,0.942 -0.101,1.89 -0.042,2.834Z" style="fill-opacity:0.1;fill-rule:nonzero;"/><path d="M2696.67,2925.67c0,0 25.666,-5.959 18,60.875c0.592,15.437 -7.17,30.054 -20.292,38.208c-18.375,11.542 -46.708,36.375 -61.042,84.667c0.025,21.381 -14.808,40.117 -35.625,45c-23.166,5.416 -52.041,10.166 -68.75,5.5c-31.125,-8.667 -17.333,-30.084 -17.333,-30.084l35.708,-42.375c0,0 62.25,24.5 76,4.584c13.75,-19.917 57.167,-106.625 57.167,-106.625c0,0 23.792,-54.125 16.167,-59.75Z" style="fill:#b07473;fill-rule:nonzero;"/><path d="M2905.5,2389.08l-2.75,100.417c34.792,-3.375 59.708,-8.083 63.958,-14.708c9.209,-14.25 42.625,-20.25 71.042,-22.709c-0.875,-18.791 -1.625,-31.375 -1.625,-31.375l-130.625,-31.625Z" style="fill-opacity:0.1;fill-rule:nonzero;"/><path d="M2586.58,2466.08c3.326,-6.803 8.226,-12.717 14.292,-17.25c13.75,-7.625 12.25,49 12.25,49c0,0 45.833,0.417 104.375,-0.333c-0.667,-21.167 -1.292,-35.417 -1.292,-35.417l-129.625,-34.666c0,0 0.25,16.083 0,38.666Z" style="fill-opacity:0.1;fill-rule:nonzero;"/><path d="M2571.79,2479.5c0,0 15.333,-41.667 29.166,-49.083c13.834,-7.417 12.25,48.958 12.25,48.958c0,0 336.75,3.083 353.584,-22.958c16.833,-26.042 114.791,-24.5 114.791,-24.5c0,0 -3.041,-324.5 -10.708,-446.917c-7.667,-122.417 -19.875,-234.208 -50.5,-267.875c-19.792,-21.792 -47.958,-92.292 -65.375,-139.292c-9.458,-25.666 -15.75,-44.375 -15.75,-44.375l-321.417,18.334l-2.625,26.041l-34.125,341.334c0,0 -4.583,376.541 -18.375,462.25c-13.791,85.708 9.084,98.083 9.084,98.083Z" style="fill:#444053;fill-rule:nonzero;"/><g opacity="0.1"><path d="M2940.62,2456.42c16.667,-26 114.792,-24.5 114.792,-24.5c0,0 -3.042,-324.5 -10.709,-446.917c-7.666,-122.417 -19.875,-234.208 -50.5,-267.875c-19.875,-21.875 -47.958,-92.292 -65.375,-139.292c-7.958,-21.583 -13.666,-38.208 -15.25,-42.958l25,-1.417c0,0 6.292,18.709 15.792,44.375c17.417,47 45.542,117.5 65.333,139.292c30.625,33.667 42.875,145.417 50.5,267.875c7.625,122.458 10.75,446.917 10.75,446.917c0,0 -97.958,-1.5 -114.833,24.5c-14.375,22.208 -262.167,23.25 -334.083,23.041c92.291,-0.208 295.583,-2.958 308.583,-23.041Z" style="fill-rule:nonzero;"/><path d="M2574.79,2430.42c6.208,-3.459 9.291,6.125 10.833,17.75c-5.564,10.084 -10.396,20.556 -14.458,31.333c-4.063,10.777 -8.875,-4.792 -12.5,-29.167c5.083,-8.708 10.708,-16.916 16.125,-19.916Z" style="fill-rule:nonzero;"/></g><path d="M2671.12,748.333c-22.25,30.334 0.25,73.459 -23.625,102.959c-7.875,9.75 -20,16.666 -28.208,26.25c-15.209,17.75 -14.625,41.875 -7.167,62.708c7.458,20.833 20.833,39.833 30.333,60.167c4.167,8.791 7.25,18.666 3.084,27.416c-2.917,6.084 -8.959,10.709 -13.667,15.959c-15.333,17.125 -15.75,40.916 -7.5,61.083c8.25,20.167 24,37.5 39.542,54.583c6.125,6.709 13.875,14.125 24.083,13.917c5.368,-0.407 10.558,-2.109 15.125,-4.958c73.001,-37.288 104.151,-126.613 70.167,-201.209c-12.917,-30.958 -34.459,-60.625 -34.667,-93.333c0,-25.958 13.333,-50.75 15.708,-76.583c2.875,-31.417 -15.708,-81.292 -53.625,-95c2.5,20.166 -18.291,30.458 -29.583,46.041Z" style="fill:#585268;fill-rule:nonzero;"/><path d="M2671.12,748.333c-22.25,30.334 0.25,73.459 -23.625,102.959c-7.875,9.75 -20,16.666 -28.208,26.25c-15.209,17.75 -14.625,41.875 -7.167,62.708c7.458,20.833 20.833,39.833 30.333,60.167c4.167,8.791 7.25,18.666 3.084,27.416c-2.917,6.084 -8.959,10.709 -13.667,15.959c-15.333,17.125 -15.75,40.916 -7.5,61.083c8.25,20.167 24,37.5 39.542,54.583c6.125,6.709 13.875,14.125 24.083,13.917c5.368,-0.407 10.558,-2.109 15.125,-4.958c73.001,-37.288 104.151,-126.613 70.167,-201.209c-12.917,-30.958 -34.459,-60.625 -34.667,-93.333c0,-25.958 13.333,-50.75 15.708,-76.583c2.875,-31.417 -15.708,-81.292 -53.625,-95c2.5,20.166 -18.291,30.458 -29.583,46.041Z" style="fill-opacity:0.1;fill-rule:nonzero;"/><path d="M2917.88,1851.71c-44.542,2.334 -86.458,21.5 -125.458,43.167c-39,21.667 -76.75,46.208 -118.709,61.583" style="fill-opacity:0.1;fill-rule:nonzero;"/><path d="M2890.21,1956.67c-44.049,4.201 -85.13,24.186 -115.625,56.25c-10.833,11.458 -20.166,24.291 -31.458,35.291c-17.283,16.868 -38.647,28.972 -62,35.125" style="fill-opacity:0.1;fill-rule:nonzero;"/><path d="M2899.33,2036.54c-35.532,9.861 -67.697,29.259 -93,56.083c-6.833,7.375 -13.041,15.25 -19.875,22.625c-36.875,39.583 -88.958,60.583 -139.25,80.458" style="fill-opacity:0.1;fill-rule:nonzero;"/><path d="M2895.54,928.833c0.982,35.593 4.043,71.098 9.166,106.334c4.167,25 10,47.5 18.375,57.458c24.5,29.167 -119.375,68.125 -119.375,68.125l-84.958,-65.833c0,0 67.333,-62 35.958,-122.459c-31.375,-60.458 140.834,-43.625 140.834,-43.625Z" style="fill:#cc818c;fill-rule:nonzero;"/><path d="M2615.12,1577.83l339.792,0c-9.459,-25.666 -15.75,-44.375 -15.75,-44.375l-321.417,18.334l-2.625,26.041Z" style="fill-opacity:0.1;fill-rule:nonzero;"/><path d="M2593.25,1571.71l363.292,0c-10.209,-36.541 0,-70.333 14.541,-96.333c10.193,-18.221 23.011,-34.843 38.042,-49.333l2.5,-2.292l126.833,-28.083l6.834,-1.5c0,0 1.041,-230.625 -80.625,-262.292c-81.667,-31.667 -130.625,-74.458 -130.625,-74.458l-112.209,34.666l-82.666,-41.666c-26.542,28.541 -96.959,17.333 -96.959,17.333c-115.291,13.25 -115.291,100 -115.291,100c0,0 67.333,157.125 72.458,157.125c5.125,0 -6.125,246.833 -6.125,246.833Z" style="fill:#3ad39e;fill-rule:nonzero;"/><path d="M2718.67,1425.08c0,0 -74.084,-16.416 -99.292,-45.125" style="fill-opacity:0.1;fill-rule:nonzero;"/><path d="M3092.21,1339.04l-85.916,70.416c0.622,5.606 1.568,11.171 2.833,16.667l2.5,-2.292l126.833,-28.083l-46.25,-56.708Z" style="fill-opacity:0.1;fill-rule:nonzero;"/><path d="M2859.58,1547.21c0,0 18.792,10.584 47.584,24.5l49.375,0c-10.209,-36.541 0,-70.333 14.541,-96.333l-87.041,-28.167c29.625,27.542 -24.459,100 -24.459,100Z" style="fill-opacity:0.1;fill-rule:nonzero;"/><path d="M2577.92,1140.08l-51,27.542l-50,126.542c0,0 -52.042,138.75 -46.959,175.5c0,0 -18.333,86.75 14.292,102.041l85,38.5c1.007,0.445 2.095,0.674 3.196,0.674c4.343,0 7.916,-3.574 7.916,-7.917c0,-1.279 -0.31,-2.54 -0.904,-3.673c-12.125,-22.959 -25.458,-58.875 -4.166,-78.625l-24.5,-51l88.541,-144.917l29.584,-50l-51,-134.667Z" style="fill:#3ad39e;fill-rule:nonzero;"/><path d="M2691.38,1396.12c4.417,18 19.333,45.833 68.708,56.208l54.167,44.375l57.625,26.125l23.5,10.625l9.958,-71.958l-22.625,-12.5l-26.375,-14.417c0,0 -59.5,-107.791 -153.708,-62.5c-8.995,4.262 -13.741,14.405 -11.25,24.042Z" style="fill-opacity:0.1;fill-rule:nonzero;"/><path d="M2694.46,1390c4.417,18.042 19.292,45.833 68.667,56.208l54.167,44.375l57.666,26.125l23.459,10.625l9.958,-71.958l-22.625,-12.5l-26.167,-14.292c0,0 -59.541,-107.791 -153.75,-62.291c-8.897,4.193 -13.671,14.144 -11.375,23.708Z" style="fill:#cc818c;fill-rule:nonzero;"/><circle cx="2800.62" cy="890.542" r="131.625" style="fill-opacity:0.1;"/><circle cx="2800.62" cy="887.5" r="131.625" style="fill:#cc818c;"/><path d="M2882.17,1168.75l-39.584,-76.917c0,0 57.917,-23.416 62.125,-50.541c4.209,-27.125 55.5,31.791 44.417,51.333c-11.083,19.542 -66.958,76.125 -66.958,76.125Z" style="fill-opacity:0.1;fill-rule:nonzero;"/><path d="M2882.17,1162.62l-39.584,-76.917c0,0 57.917,-23.416 62.125,-50.541c4.209,-27.125 55.5,31.833 44.417,51.333c-11.083,19.5 -66.958,76.125 -66.958,76.125Z" style="fill:#3ad39e;fill-rule:nonzero;"/><path d="M2558.21,1361.33l218.709,294.042c0,0 -80.625,43.875 -191.667,-34.667l-47.958,-57.166l-136.917,-230.792l157.833,28.583Z" style="fill:#f6f8fb;fill-rule:nonzero;"/><path d="M2515.17,1521.21l19.916,-0.541c0,0 121.667,-118.084 151.542,-58.334c29.875,59.75 -75.792,115.584 -75.792,115.584l-32.125,17.333l-41.875,12.5l-26.791,-35.958l5.125,-50.584Z" style="fill:#cc818c;fill-rule:nonzero;"/><path d="M2544.54,1585c1.833,6.792 3.583,14.292 0.5,20.583c-0.739,1.683 -2.014,3.075 -3.625,3.959c-1.326,0.51 -2.752,0.71 -4.167,0.583c-10.537,-0.897 -20.352,-5.752 -27.458,-13.583c-6.983,-7.807 -12.96,-16.458 -17.792,-25.75c-5.417,-9.459 -11.042,-19.917 -9.125,-30.667c2.167,-11.708 12.5,-19.833 22.625,-26.417c20.167,-13.333 20.833,2.209 25.25,19.375c4.417,17.167 9.167,34.584 13.792,51.917Z" style="fill-opacity:0.1;fill-rule:nonzero;"/><path d="M2541.5,1585c1.792,6.792 3.583,14.292 0.5,20.583c-0.739,1.683 -2.013,3.075 -3.625,3.959c-1.327,0.507 -2.752,0.707 -4.167,0.583c-10.542,-0.876 -20.364,-5.736 -27.458,-13.583c-7.009,-7.795 -13.002,-16.448 -17.833,-25.75c-5.417,-9.459 -11.042,-19.917 -9.084,-30.667c2.125,-11.708 12.5,-19.833 22.584,-26.417c20.208,-13.333 20.833,2.209 25.291,19.375c4.459,17.167 9.125,34.584 13.792,51.917Z" style="fill:#3ad39e;fill-rule:nonzero;"/><path d="M2599.38,1324.75l10.167,-17.208l-8.875,31.958l-1.292,-14.75Z" style="fill-opacity:0.1;fill-rule:nonzero;"/><path d="M2875.12,1516.71l23.458,10.625l9.959,-71.958l-22.625,-12.5c15.625,17.917 1.958,51.042 -10.792,73.833Z" style="fill-opacity:0.1;fill-rule:nonzero;"/><path d="M2969.29,1433.17c0,0 -75.75,4.625 -107.917,-16.042" style="fill-opacity:0.1;fill-rule:nonzero;"/><g opacity="0.1"><path d="M2959.88,1481.5c10.194,-18.233 23.011,-34.869 38.042,-49.375c3.605,-2.261 7.348,-4.292 11.208,-6.083l118.083,-24.25l6.834,-1.5c0,0 1.041,-230.625 -80.584,-262.292c-45.786,-17.41 -88.708,-41.582 -127.333,-71.708l8.958,-2.75c0,0 48.959,42.833 130.625,74.458c81.667,31.625 80.584,262.292 80.584,262.292l-12.25,0l-120.834,23.125c0,0 -5.208,5.041 -6.791,6.5c-15.154,15.178 -28.151,32.367 -38.625,51.083c-15.984,29.676 -19.624,64.493 -10.125,96.833l-12.5,0c-10.084,-36.541 0.333,-70.333 14.708,-96.333Z" style="fill-rule:nonzero;"/><path d="M2637.38,1074.42c1.958,-0.292 3.833,-0.584 5.875,-0.792c8.286,1.175 16.634,1.857 25,2.042c-10.308,0.284 -20.624,-0.134 -30.875,-1.25Z" style="fill-rule:nonzero;"/><path d="M2810.58,1098.21l-74.75,-37.833c1.483,-1.217 2.876,-2.539 4.167,-3.958l78,39.458l-7.417,2.333Z" style="fill-rule:nonzero;"/></g><path d="M3095.17,1332.75l50,61.25l10.208,166.333c0,0 13.25,84.667 -83.667,64.25c-96.916,-20.416 -209.083,-83.5 -209.083,-83.5c0,0 54.167,-72.458 24.5,-100l138.792,44.917c0,0 23.458,-5.125 5.083,-25.5c-18.375,-20.375 -21.625,-57.167 -21.625,-57.167l85.792,-70.583Z" style="fill:#3ad39e;fill-rule:nonzero;"/><path d="M3117.75,1508.46l27.542,31.625c-14.43,-4.431 -25.134,-16.723 -27.542,-31.625Z" style="fill-opacity:0.1;fill-rule:nonzero;"/><path d="M3070.79,1503.33l42.875,55.084l-21.417,5.125l-21.458,-60.209Z" style="fill-opacity:0.1;fill-rule:nonzero;"/><path d="M2643.42,827.083c-4.709,-11.541 -1.084,-25 4.583,-35.875c5.667,-10.875 13.458,-21.166 17.708,-32.875c6.292,-17.416 4.375,-37.125 11.25,-54.166c12.125,-30.209 46.584,-43.709 77.459,-54.167c9.125,-3.042 18.833,-6.083 28.166,-3.833c12.5,2.958 20.625,14.291 30.834,21.916c41.916,31.25 110.083,-3.166 150.625,29.917c15.5,12.5 23.041,32.958 25.375,52.833c2.333,19.875 0,40.042 -0.25,60.084c-0.667,35.083 5.916,73.458 32.166,96.708c7.917,7 17.25,12.25 25,19.5c7.75,7.25 13.834,17.375 12.5,27.875c-1.025,4.822 -2.418,9.558 -4.166,14.167c-5.209,18.291 2.583,37.5 12.083,54.166c28.333,49.042 78.292,89.459 134.917,90.584c-3.792,28.583 -33.334,45.166 -59.792,56.875c-33.333,14.958 -68.833,29.625 -105.542,27.75c-36.708,-1.875 -75,-25.375 -81.416,-61.542c-2.209,-12.5 -1.917,-27.542 -12.5,-34.042c-6.5,-3.958 -14.917,-2.958 -21.917,-5.916c-10.125,-4.167 -15.125,-15.542 -18.458,-26c-6.83,-21.579 -10.494,-44.036 -10.875,-66.667c-0.459,-26.833 3.083,-56.125 -12.125,-78.208c-14.084,-20.459 -39.084,-30.834 -55.334,-49.625c-15,-17.417 -31.291,-38.417 -55.875,-41.667c-34,-4.792 -104.333,41.417 -124.416,-7.792Z" style="fill-opacity:0.1;fill-rule:nonzero;"/><path d="M2643.42,820.958c-4.709,-11.541 -1.084,-25 4.583,-35.875c5.667,-10.875 13.458,-21.166 17.708,-32.875c6.292,-17.416 4.375,-37.125 11.25,-54.166c12.125,-30.25 46.584,-43.75 77.459,-54.167c9.125,-3.042 18.833,-6.083 28.166,-3.833c12.5,2.958 20.625,14.291 30.834,21.916c41.916,31.25 110.083,-3.166 150.625,29.917c15.5,12.5 23.041,32.958 25.375,52.875c2.333,19.917 0,40 -0.25,60.042c-0.667,35.083 5.916,73.458 32.166,96.708c7.917,7 17.25,12.25 25,19.5c7.75,7.25 13.834,17.375 12.5,27.875c-1.025,4.822 -2.418,9.558 -4.166,14.167c-5.209,18.291 2.583,37.5 12.083,54.166c28.417,48.875 78.167,89.417 134.792,90.542c-3.792,28.583 -33.334,45.167 -59.792,56.917c-33.333,14.916 -68.833,29.583 -105.542,27.708c-36.708,-1.875 -75,-25.375 -81.416,-61.542c-2.209,-12.5 -1.917,-27.541 -12.5,-34.041c-6.5,-3.959 -14.917,-2.959 -21.917,-5.917c-10.125,-4.167 -15.125,-15.542 -18.458,-26c-6.834,-21.578 -10.497,-44.035 -10.875,-66.667c-0.459,-26.833 3.083,-56.125 -12.125,-78.208c-14.084,-20.458 -39.084,-30.833 -55.334,-49.625c-15,-17.417 -31.291,-38.417 -55.875,-41.667c-33.875,-4.75 -104.208,41.542 -124.291,-7.75Z" style="fill:#585268;fill-rule:nonzero;"/><path d="M2736.83,1159.21l75.459,-61.25c0,0 -51.667,-28 -57.834,-51.875c-6.166,-23.875 -47.5,11.334 -43.291,32.75c4.208,21.417 25.666,80.375 25.666,80.375Z" style="fill-opacity:0.1;fill-rule:nonzero;"/><path d="M2739.79,1150l75.458,-61.208c0,0 -51.667,-28 -57.583,-51.875c-5.917,-23.875 -47.5,11.333 -43.292,32.75c4.208,21.416 25.417,80.333 25.417,80.333Z" style="fill:#3ad39e;fill-rule:nonzero;"/><circle cx="2818.21" cy="1140.04" r="6" style="fill-opacity:0.1;"/><circle cx="2818.21" cy="1173.38" r="6" style="fill-opacity:0.1;"/><circle cx="2818.21" cy="1206.67" r="6" style="fill-opacity:0.1;"/><g opacity="0.1"><path d="M2673.88,735.875c5.958,-16.375 4.667,-34.75 10.25,-51.25c-2.587,3.648 -4.727,7.593 -6.375,11.75c-6.917,17.208 -4.958,36.917 -11.292,54.167l-0.416,1c3.087,-4.971 5.709,-10.215 7.833,-15.667Z" style="fill-rule:nonzero;"/><path d="M3149.92,1148.33c-33.334,14.917 -68.834,29.584 -105.542,27.709c-36.708,-1.875 -75,-25.375 -81.417,-61.5c-2.208,-12.5 -1.916,-27.584 -12.5,-34.084c-6.5,-3.958 -14.916,-2.958 -21.916,-5.916c-10.125,-4.167 -15.125,-15.542 -18.459,-26c-6.833,-21.579 -10.497,-44.036 -10.875,-66.667c-0.458,-26.792 3.125,-56.083 -12.083,-78.208c-14.125,-20.459 -39.125,-30.792 -55.375,-49.625c-15,-17.375 -31.292,-38.417 -55.875,-41.667c-33.708,-4.583 -104.167,41.667 -124.083,-7.583c-3.198,-9.303 -2.736,-19.484 1.291,-28.459c-1.458,2.459 -2.875,4.917 -4.166,7.417c-5.667,11.083 -9.25,24.375 -4.542,35.917c20.042,49.166 90.375,2.958 124.083,7.583c24.584,3.333 40.875,24.375 55.875,41.667c16.25,18.833 41.25,29.166 55.334,49.666c15.25,22.084 11.666,51.375 12.125,78.167c0.378,22.631 4.041,45.088 10.875,66.667c3.333,10.5 8.333,21.75 18.458,26c7,2.958 15.417,2 21.917,5.916c10.75,6.5 10.458,21.709 12.5,34.084c6.5,36.125 44.75,59.625 81.416,61.5c36.667,1.875 72,-12.75 105.542,-27.709c24.167,-10.75 51.083,-25.625 58.333,-50c-11.583,15.834 -32.083,26.75 -50.916,35.125Z" style="fill-rule:nonzero;"/></g><path d="M3886.29,1383.5c-88.209,-50.75 -121.542,-63.25 -121.709,-63.25l-1.833,-1.292c-9.608,-7.383 -17.238,-17.032 -22.208,-28.083c-0.104,-2.013 -0.104,-4.029 0,-6.042c-0.023,0.194 -0.023,0.39 0,0.584c1.375,-26.875 20.5,-51.334 38.625,-72.667l46.375,-54.542c5.269,-5.396 9.343,-11.842 11.958,-18.916c0.936,-3.802 1.357,-7.712 1.25,-11.625l0,-4.75c-0.25,-13.542 -0.625,-27.125 -1.125,-40.667c-0.417,-11.833 -3.458,-26.75 -15.292,-29.167c-6.166,-1.25 -14.333,0.959 -17.583,-4.166c-1.103,-2.175 -1.384,-4.677 -0.792,-7.042c-0.023,0.194 -0.023,0.39 0,0.583l0,-0.666c2.293,-9.142 3.757,-18.471 4.375,-27.875c0.258,-4.787 -0.392,-9.58 -1.916,-14.125c-6.834,-19.625 -30.459,-27.709 -51.334,-31.417c-20.875,-3.708 -44.291,-6.875 -57.375,-23.208c-3.502,-5.45 -7.314,-10.695 -11.416,-15.709c-6.037,-5.362 -13.407,-9.003 -21.334,-10.541c-25.905,-6.382 -53.209,-4.008 -77.625,6.75c-10.083,4.5 -20.208,10.583 -31.291,9.916c-11.084,-0.666 -21.334,-8.666 -32.667,-10.583c-18.333,-3.125 -35.875,10.333 -44.917,26.292c-5.354,9.462 -8.221,20.129 -8.333,31l0,1.833c-0.263,11.694 4.009,23.048 11.917,31.667c7.916,8.333 19.666,13.833 22.958,24.625c1.333,4.375 1,9.125 2.208,13.583c0.129,0.553 0.296,1.096 0.5,1.625l-0.583,0.792c-18.911,24.194 -29.183,54.041 -29.167,84.75c0.421,61.051 40.543,115.178 98.834,133.333l0,4.167c0,16.666 -4.792,34.041 -19.167,46.666l-124.958,49.917c0,0 -75.334,-8.958 -102.5,101.125c-4.34,18.273 -5.913,37.094 -4.667,55.833c1,16.667 -1.292,45.834 -20.833,83.625c-30.875,60.5 -23.834,199.375 39.333,213.125c59.625,13 82.958,7.584 85.417,6.959l0,2.416c-1,26.084 -10.459,250.834 -44.834,278c-9.5,7.542 -7.75,12.5 0,16.042c0,0 0,1.458 -0.208,4.167c-1.042,16.666 -6.333,79.166 -29.167,114.666c-26.708,41.25 -23.916,279.167 -23.916,279.167l-18.209,140.25c0,0 11.209,86.625 0,101.75c-10.041,13.458 -23.375,333.917 -26.166,403.417l-1.167,0c-11.198,0.728 -21.33,6.982 -27,16.666c-14.75,23.959 -66.417,68.25 -66.417,68.25c-11.208,15.917 -52.666,31.167 -74.583,38.334c-2.891,0.945 -5.683,2.174 -8.333,3.666c-8.205,4.468 -14.797,11.409 -18.834,19.834c-2.919,5.045 -3.643,11.074 -2,16.666c5.584,13.709 122.125,23.375 151.625,9.584c23.167,-10.792 115,-25 153.125,-30.584c14.196,-1.785 25.465,-13.054 27.25,-27.25c0.735,-4.826 -0.53,-9.75 -3.5,-13.625c-7.291,-9.041 -11,-33.75 -12.5,-50c3.097,-1.26 5.99,-2.973 8.584,-5.083c-3.188,-49.949 3.903,-100.025 20.833,-147.125c28.083,-74.25 36.5,-211.75 29.5,-301.125c0,0 85.625,-368.5 153.042,-402.875c1.041,1.333 33.75,43.292 37.916,173.25c4.167,132 51.917,218.625 51.917,218.625c0,0 -21.083,224.125 0,308l-27.542,132.292c-2.041,-1.709 -3.333,-3.042 -3.333,-3.042c0,0 0.833,3.667 1.958,9.542l-0.583,2.833l1.208,0.25c3.125,16.667 7.75,45.375 5.834,62.5c-1.084,9.625 -3.792,22.833 -5.625,35.792c-2.917,20.375 -3.709,40.125 7,44.458c17.583,7.083 120.833,16.667 138.333,-6c8.02,-9.408 9.997,-22.614 5.083,-33.958c-1.26,-3.123 -2.973,-6.043 -5.083,-8.667c-2.11,-2.624 -27.417,-44.792 -19.667,-76.375c1.445,-6.234 0.253,-12.797 -3.291,-18.125c1.208,-15.5 7.458,-87.25 23.625,-148.167c17.583,-66.166 54.625,-211.25 27.375,-306.625c-1.028,-3.75 -2.195,-7.416 -3.5,-11c-15.727,-52.076 -20.982,-106.756 -15.459,-160.875c-10.115,-46.201 -10.115,-94.048 0,-140.25c16.875,-77 28.667,-152.625 28.667,-152.625c0,0 9.292,-101.75 1.167,-164.125c0,-1.333 -0.375,-2.666 -0.542,-4.166l4.417,-1c0,0 -23.875,-105.875 -32.292,-173.25c-2,-15.917 -4.583,-36.042 -7.417,-57.542c7.766,-1.287 15.416,-3.196 22.875,-5.708c75.792,-26.125 99.667,-262.5 99.667,-262.5l0,-75c0,0 25.5,-115.292 -62.958,-166.167Zm-564.834,1826c-2.333,-1.167 -3.708,-1.958 -3.708,-1.958l3.708,1.958Z" style="fill:url(#_Linear3);fill-rule:nonzero;"/><path d="M3840.54,2748.21c32.875,94.542 -5.5,248 -23.334,316.667c-17.833,68.667 -23.291,150.75 -23.291,150.75c-69.875,10.958 -120.584,-2.75 -120.584,-2.75l28.792,-141.125c-20.583,-83.583 0,-306.958 0,-306.958c0,0 -46.583,-86.334 -50.708,-217.875c-4.167,-129.459 -35.959,-171.334 -36.959,-172.625c-65.75,34.25 -149.333,401.5 -149.333,401.5c6.833,89.041 -1.417,226.083 -28.792,300c-16.627,46.983 -23.614,96.839 -20.541,146.583c-9.584,8.333 -22.917,9.5 -37.5,7.167c-39.125,-6.334 -86.042,-40.042 -86.042,-40.042c0,0 15.042,-400 26.042,-415.167c11,-15.166 0,-101.416 0,-101.416l17.791,-139.75c0,0 -2.75,-237.084 23.292,-278.167c22.5,-35.5 27.667,-97.917 28.667,-114.292l0,-4.166l39.666,-47.5c0,0 383.667,-28.792 412.5,0c7.042,7.041 11.417,23.125 14,43.333c7.917,62.167 -1.166,163.542 -1.166,163.542c0,0 -11.5,75.375 -27.959,152.083c-9.865,46.074 -9.865,93.718 0,139.792c-5.29,53.967 -0.039,108.452 15.459,160.416Z" style="fill:#65617d;fill-rule:nonzero;"/><path d="M3816.54,3349.04c-17.125,22.625 -117.834,13.041 -135,6c-10.459,-4.167 -9.667,-24.042 -6.834,-44.334c1.792,-12.875 4.417,-26.041 5.5,-35.625c2.709,-24.666 -8.333,-74.708 -8.333,-74.708c0,0 22.583,24 28.042,0c2.416,-10.5 10.833,-15.875 19.583,-18.583c11.739,-3.553 24.373,-2.769 35.583,2.208c17.792,7.75 47.459,24.208 42.167,46.458c-7.542,31.459 19.167,76.125 19.167,76.125c2.07,2.607 3.754,5.497 5,8.584c4.836,11.297 2.951,24.4 -4.875,33.875Z" style="fill:#a27772;fill-rule:nonzero;"/><path d="M3816.54,3349.04c-17.125,22.625 -117.834,13.041 -135,6c-10.459,-4.167 -9.667,-24.042 -6.834,-44.334c10.834,5.084 29.167,9.292 59.875,6.459c7.159,-0.681 14.355,-0.904 21.542,-0.667c21.811,0.982 43.663,0.536 65.417,-1.333c4.802,11.32 2.868,24.425 -5,33.875Z" style="fill-opacity:0.1;fill-rule:nonzero;"/><path d="M3465.08,2775.62c6.834,89.042 -1.416,226.083 -28.791,300c-16.628,46.983 -23.615,96.84 -20.542,146.583c-9.583,8.334 -22.917,9.5 -37.5,7.167c8.333,-57.792 43.5,-306.792 66.042,-503.542c25.708,-224.041 145.833,-378.166 145.833,-378.166l23.958,26.375c-65.416,34.333 -149,401.583 -149,401.583Z" style="fill-opacity:0.1;fill-rule:nonzero;"/><path d="M3775.42,1335.46l-16.667,82.209l-81.958,137.708l-101.042,-43.167c0,0 -137.5,-143.875 -51.042,-164.416c10.334,-2.224 20.095,-6.566 28.667,-12.75c16.958,-12.792 22.292,-31.375 22.375,-49.584c-0.642,-20.373 -5.375,-40.41 -13.917,-58.916l176.75,-55.5c-7.217,23.226 -11.419,47.285 -12.5,71.583c-1.375,48.167 16.667,71.875 31.209,83.333c5.368,4.312 11.524,7.539 18.125,9.5Z" style="fill:#fbbebe;fill-rule:nonzero;"/><path d="M3738.42,1171.04c-7.218,23.226 -11.419,47.285 -12.5,71.583c-3.224,3.842 -6.66,7.5 -10.292,10.958c-37.13,35.459 -90.917,47.727 -139.75,31.875c-0.681,-20.381 -5.456,-40.419 -14.042,-58.916l176.584,-55.5Z" style="fill-opacity:0.1;fill-rule:nonzero;"/><path d="M3758.71,1148.42c0,0.014 0,0.027 0,0.041c0,76.688 -63.104,139.792 -139.791,139.792c-76.688,0 -139.792,-63.104 -139.792,-139.792c0,-76.687 63.104,-139.791 139.792,-139.791c0.222,-0.001 0.445,-0.002 0.668,-0.002c76.321,0 139.125,62.803 139.125,139.125c0,0.209 -0.001,0.418 -0.002,0.627Z" style="fill:#fbbebe;fill-rule:nonzero;"/><path d="M3775.42,1335.46l-16.667,82.209l-81.958,137.708l-101.042,-43.167c0,0 -137.5,-143.875 -51.042,-164.416c10.334,-2.224 20.095,-6.566 28.667,-12.75c-15.583,42.833 48.75,131.958 48.75,131.958c7.5,11.042 24.667,4.167 24.667,4.167c41.458,-6.292 117.75,-125.5 130.208,-145.334c5.445,4.391 11.704,7.662 18.417,9.625Z" style="fill-opacity:0.1;fill-rule:nonzero;"/><path d="M3854.54,2132.46c-24.334,5.542 -158.959,35.334 -210,27.875c-56.167,-8.333 -165.375,-13.666 -165.375,-13.666c0,0 -69.542,3.75 -90.959,-6.042l0,-4.167l39.667,-47.5c0,0 383.667,-28.791 412.5,0c7.208,7.209 11.583,23.292 14.167,43.5Z" style="fill-opacity:0.1;fill-rule:nonzero;"/><path d="M3602.08,1471.12c0,0 -72.291,-100 -45.041,-139.167l-122.125,50c0,0 -73.5,-8.916 -100,100.792c-4.235,18.232 -5.766,36.989 -4.542,55.667c1,16.666 -1.25,45.833 -20.125,83.333c-30.125,60.292 -23.292,198.708 38.375,212.5c61.667,13.792 83.542,6.833 83.542,6.833c0,0 -8.334,250.75 -43.834,279.542c-35.5,28.792 90.834,21.917 90.834,21.917c0,0 109.208,5.5 165.416,13.708c56.209,8.208 213.75,-28.792 213.75,-28.792c0,0 -23.291,-105.5 -31.541,-172.625c-8.25,-67.125 -27.459,-210.125 -27.459,-210.125l139.75,-189.333c0,0 24.667,-114.417 -61.666,-165.125c-86.334,-50.708 -118.792,-63.125 -118.792,-63.125c0,0 -86.75,141.25 -131.958,148.083c0.083,0 -17.084,6.917 -24.584,-4.083Z" style="fill:#3ad39e;fill-rule:nonzero;"/><path d="M3441.75,1510.83c0,0 -1.333,45.25 6.875,63.042c8.208,17.792 38.375,116.667 38.375,116.667l-68.542,0c0,0 37,-39.75 34.292,-58.959c-2.708,-19.208 -11,-120.75 -11,-120.75Z" style="fill-opacity:0.1;fill-rule:nonzero;"/><path d="M3644.58,1852.04c0,0 -151.333,-37 -165.416,-68.5c-14.084,-31.5 -52.959,-102.042 -52.959,-102.042l15.959,-21.5l73.583,57.75c0,0 87.5,69.875 128.833,76.75c41.334,6.875 0,57.542 0,57.542Z" style="fill:#fbbebe;fill-rule:nonzero;"/><path d="M3644.58,1852.04c0,0 -151.333,-37 -165.416,-68.5c-14.084,-31.5 -52.959,-102.042 -52.959,-102.042l15.959,-21.5l73.583,57.75c0,0 87.5,69.875 128.833,76.75c41.334,6.875 0,57.542 0,57.542Z" style="fill-opacity:0.05;fill-rule:nonzero;"/><path d="M3775.42,1673.92l0,82.083l-13.167,0c-65.198,-0.013 -129.336,16.595 -186.333,48.25l-24.75,13.708l-6.625,3.709l-42.5,-95.834l39.75,-35.625l2.041,0c9.709,0.959 51.75,4.459 69.584,-1.541c16.916,-5.75 37.916,-23.959 87.75,-11.25c24.541,6.291 45.541,33.791 69.333,25.208l4.917,-28.708Z" style="fill:#fbbebe;fill-rule:nonzero;"/><path d="M3907.67,1524.42l27.375,30.833l0,74.708c0,0 -23.292,235.667 -97.25,261.709c-73.959,26.041 -206.084,-15.084 -206.084,-15.084c0,0 -34.125,-90.416 -18.166,-95.833c15.958,-5.417 141.041,-38.5 141.041,-38.5c0,0 -1.75,-138.25 25.625,-179.375c0,0 -17.791,-128.792 43.875,-131.542c61.667,-2.75 83.584,93.084 83.584,93.084Z" style="fill-opacity:0.1;fill-rule:nonzero;"/><path d="M3911.83,1524.42l27.417,30.833l0,74.708c0,0 -23.292,235.667 -97.292,261.709c-74,26.041 -206.083,-15.084 -206.083,-15.084c0,0 -34.125,-90.416 -18.125,-95.833c16,-5.417 141.042,-38.5 141.042,-38.5c0,0 -1.792,-138.25 25.625,-179.375c0,0 -17.834,-128.792 43.833,-131.542c61.667,-2.75 83.583,93.084 83.583,93.084Z" style="fill:#3ad39e;fill-rule:nonzero;"/><path d="M3720.38,1207.75c1.181,-9.024 0.107,-18.201 -3.125,-26.708c-3.875,-8.334 -12.917,-14.625 -21.75,-12.5c-11.708,2.75 -16.667,18 -28.25,21.666c-9.708,3.084 -20.292,-3.791 -25,-12.833c-4.708,-9.042 -4.75,-19.667 -4.75,-29.833l0,-34.334c0,-12.5 -0.417,-25.916 -8.083,-35.708c-9.542,-12.167 -32,-17.5 -47,-17c-9.977,0.112 -19.557,3.965 -26.834,10.792c-8,6.833 -17.291,11.833 -28.208,10.041c-9.276,-1.384 -16.954,-8.022 -19.667,-17l0,-0.416c26.381,-35.073 67.798,-55.747 111.685,-55.747c76.664,0 139.75,63.086 139.75,139.75c0,38.38 -15.811,75.114 -43.685,101.497c2.412,-13.787 4.053,-27.698 4.917,-41.667Z" style="fill-opacity:0.1;fill-rule:nonzero;"/><path d="M3527.38,1077.29c-9.28,-1.425 -16.959,-8.064 -19.708,-17.042c-1.125,-4.417 -0.834,-9.125 -2.125,-13.5c-3.209,-10.792 -14.709,-16.375 -22.417,-24.583c-15.417,-16.375 -14.417,-43.292 -3.5,-63c8.833,-15.875 25.917,-29.167 43.833,-26.167c11.084,1.917 20.834,9.792 31.917,10.542c11.083,0.75 20.833,-5.375 30.542,-9.875c23.799,-10.806 50.584,-13.187 75.916,-6.75c7.771,1.561 14.973,5.206 20.834,10.541c3.98,5.01 7.693,10.225 11.125,15.625c12.75,16.25 35.625,19.459 56,23.125c20.375,3.667 43.416,11.75 50,31.334c4.458,13 0,27.083 -2.417,40.583c-0.801,2.755 -0.609,5.705 0.542,8.333c3.208,5.25 11.166,3.042 17.166,4.167c11.542,2.458 14.5,17.333 14.959,29.167c0.472,13.5 0.833,27.014 1.083,40.541c0.332,5.032 -0.075,10.086 -1.208,15c-2.5,7.041 -6.462,13.474 -11.625,18.875l-45.25,54.375c-20.084,24.084 -41.375,52.167 -37.5,83.334c-9.5,4.166 -20.834,-3.959 -23.917,-13.917c-3.083,-9.958 -0.625,-20.833 1.5,-30.875c3.689,-17.652 6.112,-35.545 7.25,-53.542c1.181,-9.01 0.107,-18.173 -3.125,-26.666c-3.875,-8.334 -12.917,-14.625 -21.75,-12.5c-11.75,2.75 -16.667,18 -28.25,21.666c-9.708,3.084 -20.292,-3.791 -25,-12.833c-4.708,-9.042 -4.75,-19.625 -4.75,-29.792l0,-34.375c0,-12.5 -0.417,-25.916 -8.083,-35.708c-9.542,-12.167 -32,-17.5 -47,-17c-9.963,0.123 -19.526,3.975 -26.792,10.792c-8.042,6.875 -17.333,11.916 -28.25,10.125Z" style="fill:#7c5c5c;fill-rule:nonzero;"/><path d="M3558.92,1507.42l42.916,176.291c0,0 33.834,-0.208 -42.916,-176.291Z" style="fill-opacity:0.1;fill-rule:nonzero;"/><path d="M3705.54,1477.96c0,0 -56.167,92 -34.25,187.167l10.458,0.75c0,0 -18.667,-44.042 23.792,-187.917Z" style="fill-opacity:0.1;fill-rule:nonzero;"/><path d="M3741,1998.67c0,0 69,-22.834 74,30.125c0.167,0 -12.833,-36.292 -74,-30.125Z" style="fill-opacity:0.1;fill-rule:nonzero;"/><path d="M3541.79,1694.46c0,0 -13.709,95.834 10.958,134.292c0,0 -50,20.542 -120.583,16.458l-8.334,-150.75l117.959,0Z" style="fill-opacity:0.1;fill-rule:nonzero;"/><path d="M3551.17,1817.96l-6.625,3.709l-42.5,-95.834l39.75,-35.625l2.041,0c-0.625,4.75 -11.708,87.125 7.334,127.75Z" style="fill-opacity:0.1;fill-rule:nonzero;"/><path d="M3541.79,1690.38c0,0 -13.709,95.833 10.958,134.25c0,0 -50,20.583 -120.583,16.458l-47.959,-150.708l157.584,0Z" style="fill:#3ad39e;fill-rule:nonzero;"/><path d="M3423.29,3290.71c-1.632,14.025 -12.637,25.253 -26.625,27.167c-37.209,5.542 -126.834,19.708 -149.459,30.5c-28.791,13.708 -142.5,4.167 -148,-9.583c-1.602,-5.592 -0.896,-11.599 1.959,-16.667c3.9,-8.347 10.331,-15.258 18.375,-19.75c2.657,-1.479 5.447,-2.707 8.333,-3.667c21.417,-7.125 61.875,-22.291 72.792,-38.208c0,0 50.458,-44.125 64.833,-67.958c5.481,-9.517 15.375,-15.686 26.333,-16.417c12,-0.542 25.375,5.5 30.875,31.792c0,0 65.709,37.5 83.334,4.625c0,0 2.75,50.5 13.666,64.333c3.015,3.935 4.309,8.929 3.584,13.833Z" style="fill:#a27772;fill-rule:nonzero;"/><path d="M3423.29,3290.71c-1.632,14.025 -12.637,25.253 -26.625,27.167c-37.209,5.542 -126.834,19.708 -149.459,30.5c-28.791,13.708 -142.5,4.167 -148,-9.583c-1.602,-5.592 -0.896,-11.599 1.959,-16.667c3.9,-8.347 10.331,-15.258 18.375,-19.75c18.541,12.5 59.708,24.333 150.25,10.208c86.375,-13.5 129.166,-26.708 150,-35.708c2.985,3.948 4.249,8.941 3.5,13.833Z" style="fill-opacity:0.1;fill-rule:nonzero;"/><g opacity="0.1"><path d="M3797.17,1050.04l0,-0.667c1.958,-10.25 4.916,-20.833 4.166,-31.125c-0.873,8.411 -2.264,16.76 -4.166,25c-0.514,2.235 -0.514,4.557 0,6.792Z" style="fill-rule:nonzero;"/><path d="M3717.21,1178.29c2.181,4.937 3.329,10.269 3.375,15.666c0.616,-7.442 -0.54,-14.925 -3.375,-21.833c-3.833,-8.333 -12.875,-14.625 -21.708,-12.5c-11.75,2.75 -16.667,18 -28.292,21.667c-9.666,3.083 -20.25,-3.792 -25,-12.834c-4.75,-9.041 -4.75,-19.666 -4.75,-29.833l0,-34.333c0,-12.5 -0.416,-25.917 -8.083,-35.709c-9.583,-12.208 -32,-17.5 -47,-17.041c-9.982,0.127 -19.561,3.995 -26.833,10.833c-8.042,6.833 -17.292,11.833 -28.25,10.042c-9.263,-1.414 -16.928,-8.04 -19.667,-17c-1.125,-4.417 -0.833,-9.167 -2.125,-13.542c-3.208,-10.75 -14.708,-16.375 -22.417,-24.542c-7.228,-8.015 -11.328,-18.375 -11.541,-29.166c-1.148,12.791 3.03,25.506 11.541,35.125c7.709,8.333 19.209,13.791 22.417,24.541c1.292,4.167 1,9.125 2.125,13.542c2.739,8.961 10.404,15.586 19.667,17c10.958,1.792 20.208,-3.208 28.25,-10.042c7.272,-6.838 16.851,-10.705 26.833,-10.833c15,-0.458 37.5,4.833 47,17.042c7.667,9.791 8.042,23.25 8.083,35.708l0,34.333c0,10.167 0,20.834 4.75,29.792c4.75,8.958 15.209,15.958 25,12.875c11.5,-3.667 16.667,-18.917 28.292,-21.667c8.833,-1.916 17.875,4.667 21.708,12.709Z" style="fill-rule:nonzero;"/><path d="M3829.83,1140.58c-2.509,7.034 -6.486,13.454 -11.666,18.834l-45.25,54.375c-19.042,22.875 -39.167,49.375 -37.5,78.583c1.375,-26.792 20.041,-51.167 37.5,-72.417l45.25,-54.375c5.18,-5.379 9.157,-11.799 11.666,-18.833c1.132,-4.928 1.539,-9.996 1.209,-15.042c-0.066,2.995 -0.471,5.972 -1.209,8.875Z" style="fill-rule:nonzero;"/><path d="M3711.83,1283.21c-0.742,-2.382 -1.203,-4.843 -1.375,-7.333c-0.378,4.546 0.088,9.124 1.375,13.5c3.084,9.917 14.375,18.125 23.917,13.875c-0.27,-1.99 -0.437,-3.993 -0.5,-6c-9.5,3.792 -20.5,-4.292 -23.417,-14.042Z" style="fill-rule:nonzero;"/></g><path d="M3256.38,3205.08c0,0 14.333,25 66.25,3" style="fill-opacity:0.1;fill-rule:nonzero;"/><path d="M3695.17,3211.17c0,0 44.75,52.708 101.166,17.291" style="fill-opacity:0.1;fill-rule:nonzero;"/><path d="M3825.42,2587.88c0,0 -31.625,19.75 -32.625,31.042c-1,11.291 16.333,-8.334 16.333,-8.334l16.292,-22.708Z" style="fill-opacity:0.1;fill-rule:nonzero;"/><path d="M3837.92,2739.38c-10.997,9.149 -24.672,14.487 -38.959,15.208c-23.666,1.042 -21.666,31.875 -6.208,22.625c15.458,-9.25 45.167,-37.833 45.167,-37.833Z" style="fill-opacity:0.1;fill-rule:nonzero;"/><path d="M3843.92,2759.17c0,0 -15.167,74.541 -27.5,60.166" style="fill-opacity:0.1;fill-rule:nonzero;"/><path d="M913.833,3317.83c0,0 95.209,26.125 141.042,-8.625c45.833,-34.75 65.708,-23.583 65.708,-23.583c0,0 109.292,-6.042 118.292,-31.875c9,-25.833 -41.917,-119.667 -41.917,-119.667c-3.625,-8.333 -8.916,-18.916 -11.291,-18.916l0.5,-39.584l15.833,-165.625c36.542,-93.708 0.667,-214.791 0.667,-214.791l-6.542,-30.042c-3.675,-16.884 -1.485,-34.527 6.208,-50l66.375,-133.333c3.552,-8.815 7.73,-17.365 12.5,-25.584c4.167,-7.625 9.709,-17.041 16.667,-28.333c2.042,-3.25 4.167,-6.625 6.5,-10.167c8.042,-12.5 17.792,-26.666 29.583,-43c29.375,-40.708 44.834,-91.666 52.834,-129.166l3.541,11.75l0.792,0l0.958,0.208l1.584,0l1.708,0.292l0.625,0l20.417,259.833c1.25,101.333 38.458,157.417 38.458,157.417l-5.125,223.708c7,53.875 -8.333,125.708 -15.375,154.375l-16.083,36.292c-12.845,6.417 -21.726,18.779 -23.709,33c-3.166,26.791 -31.375,84.541 -31.375,84.541c-10.916,13.834 -34.625,51.209 -34.625,51.209c0,0 -11.166,36.083 -4.25,49.583c6.917,13.5 64.75,12.125 64.75,12.125c66.042,14.625 116.667,-20.833 113.459,-45.25c-3.209,-24.417 10.291,-30.625 10.291,-30.625c26.25,-8.333 23.709,-26.125 23.709,-26.125c5.65,-36.692 -1.362,-74.237 -19.875,-106.417l-4.167,9.625c-1.127,-19.266 1.564,-38.567 7.917,-56.791l-2.417,1.666l-0.75,0.459l-0.25,0c4.167,-36.542 42.542,-104.167 42.542,-104.167c70.5,-123.667 44.875,-291.25 44.875,-291.25l-10.917,-52.25l-0.625,-19.708c-1.493,-47.051 2.069,-94.127 10.625,-140.417c3.792,-20.5 7.708,-45.25 10.708,-72.542c6.334,-57.666 26.75,-117.166 36.167,-142.375l2.792,-0.5l0.333,0c3.833,-0.666 7.708,-1.333 11.625,-2.083l0.75,0c0,0 2.25,-12.167 4.167,-32.875c1.125,-13.208 2.041,-29.958 2.041,-49.208c0.283,-58.123 -8.59,-115.929 -26.291,-171.292l2.125,-3.042c0,0 5.041,-6.833 14.25,-18.666c16.916,-21.5 43.25,-54.167 75.708,-91c58.125,-66.292 41.042,-133.334 41.042,-133.334c0,0 -42.084,-154.208 -60.834,-246.791c-10.708,-52.75 -30.791,-88.625 -46.166,-109.792c3.466,-14.594 5.421,-29.506 5.833,-44.5c1.25,-27.417 0.292,-56 -12.042,-80.625c-12.333,-24.625 -38.583,-44.083 -66,-40.792c-3.888,0.938 -7.944,0.938 -11.833,0c-3.205,-1.453 -5.914,-3.815 -7.792,-6.791c-16.041,-22.125 -17.083,-51.875 -12.083,-78.709c5,-26.833 15.25,-52.5 19.833,-79.416c4.584,-26.917 2.5,-56.792 -14.625,-78.125c-20.125,-25 -55.208,-32.042 -81.375,-50.834c-18.375,-13.208 -32.166,-32.166 -51.541,-43.875c-19.375,-11.708 -37.5,-7.25 -58.542,-2.833c-35.375,7.458 -69,10.875 -102.458,26.083c-33.879,15.341 -64.267,37.448 -89.292,64.959c-8.883,8.867 -15.686,19.599 -19.917,31.416c-8.333,27.542 7.959,56.875 4.542,85.375c-2.417,20.209 -14.333,37.792 -23.792,55.834c-9.458,18.041 -16.666,39.458 -9.25,58.333c11.667,29.5 49.709,35.75 77.375,51.458c3.697,1.809 6.857,4.553 9.167,7.959c6.833,11.916 -7.125,24.291 -15.917,34.875c-5.031,6.174 -8.594,13.413 -10.416,21.166c-23.235,9.537 -40.242,30.064 -45.292,54.667c-9.375,41.958 5.042,94.917 17.75,129.917c-13.875,77.958 4.167,108.708 17.458,120.5c13.451,11.521 21.788,27.926 23.167,45.583l0,1.458c0.875,14.167 2.375,28.292 4.375,42.375c-0.458,-3.291 -0.917,-6.791 -1.167,-8.333c-10.875,20.125 -31.583,71.542 -43.25,158.042c-2.427,18.538 -5.947,36.918 -10.541,55.041c-8.346,32.095 -11.331,65.349 -8.834,98.417l2.084,28.042c-2.049,0.051 -4.053,-0.612 -5.667,-1.875l14.625,26.791l0,45.209c-0.017,20.385 -3.774,40.595 -11.083,59.625c-1.042,2.75 -2.167,5.5 -3.375,8.333c-3.758,7.609 -5.454,16.072 -4.917,24.542c-31.458,48.208 -103.583,318.375 -103.583,318.375c-39.125,88.583 3.208,145.833 3.208,145.833c0,0 20.5,246.625 24.333,259.375c3.834,12.75 12.334,163.083 12.334,163.083l0,11.959c-2.275,-0.993 -4.67,-1.68 -7.125,-2.042c-34.292,-1.917 -43.584,52.25 -43.584,52.25l-70.166,67c0,0 -32.042,-5.417 -79.167,29.958c-47.125,35.375 30.458,67.625 30.458,67.625Zm700.625,-1425.38l-0.208,-0.75l-1.917,1.125l-0.791,0.459l-0.375,0.25l-32.334,-114.125c-8.654,-30.595 -9.471,-62.882 -2.375,-93.875l25,-109.5l0,-26.334l79.459,211.75c5.083,28.542 -42.125,97.667 -66.459,131Z" style="fill:url(#_Linear4);fill-rule:nonzero;"/><path d="M1649.33,2236.92c0,0 -32.083,78.041 -40.25,152.916c-2.958,27 -6.791,51.417 -10.541,71.667c-8.325,45.714 -11.761,92.184 -10.25,138.625l0.625,19.458l10.416,51.542c0,0 25,165.542 -44.041,287.5c0,0 -40.917,73.042 -42.167,107.625l-27.708,10.708l-56,-15.708c0,0 27.041,-96.958 18.25,-164.917l5.041,-220.833c0,0 -36.375,-55.25 -37.625,-155.25l-21.375,-274.417l255.625,-8.916Z" style="fill:#fdc2cc;fill-rule:nonzero;"/><path d="M1393.71,2197.83c0,0 -6.875,107 -59.791,180.75c-52.917,73.75 -64.167,105.75 -64.167,105.75l-65.167,131.75c-7.544,15.266 -9.703,32.644 -6.125,49.292l6.417,29.667c0,0 35.25,119.583 -0.625,212.125l-17,178.75l-99.417,0c0,0 -8.333,-148.542 -11.958,-161.125c-3.625,-12.584 -23.917,-256.167 -23.917,-256.167c0,0 -41.666,-56.667 -3.166,-144.125c0,0 86.875,-327.292 110.125,-321.625c23.25,5.667 234.791,-5.042 234.791,-5.042Z" style="fill:#fdc2cc;fill-rule:nonzero;"/><path d="M1194.79,2695.25l-6.375,-29.667c-3.678,-16.707 -1.53,-34.18 6.083,-49.5l65.167,-131.875c0,0 11.291,-32.083 64.166,-105.75c50.792,-70.833 59.167,-172.333 59.75,-180.125l10.125,-0.5c0,0 -6.875,107 -59.791,180.75c-52.917,73.75 -64.167,105.75 -64.167,105.75l-65.167,131.75c-7.544,15.266 -9.703,32.644 -6.125,49.292l6.417,29.667c0,0 35.25,119.583 -0.625,212.125l-17,178.75l-10.083,0l17,-178.75c35.875,-92.542 0.625,-211.917 0.625,-211.917Z" style="fill-opacity:0.1;fill-rule:nonzero;"/><path d="M1503.21,3066.38c1.25,-34.583 42.167,-107.625 42.167,-107.625c69.25,-122.083 44.042,-287.5 44.042,-287.5l-10.667,-51.583l-0.625,-19.459c-1.511,-46.441 1.925,-92.911 10.25,-138.625c3.708,-20.25 7.542,-44.666 10.5,-71.666c7.875,-72.084 37.917,-147.084 40.125,-152.584l10.333,-0.416c0,0 -32.083,78.041 -40.25,152.916c-2.958,27 -6.791,51.417 -10.541,71.667c-8.325,45.714 -11.761,92.184 -10.25,138.625l0.625,19.458l10.416,51.542c0,0 25,165.542 -44.041,287.5c0,0 -40.917,73.042 -42.167,107.625l-27.708,10.708l-5.834,-1.625l23.625,-8.958Z" style="fill-opacity:0.1;fill-rule:nonzero;"/><path d="M1471.12,3065.12c15.231,6.03 32.53,3.891 45.833,-5.667c-9.169,26.763 -10.471,55.603 -3.75,83.084c11.334,45.333 -105.75,-36.5 -105.75,-36.5l25,-57.125c0,0 9.709,18.083 38.667,16.208Z" style="fill:#d39999;fill-rule:nonzero;"/><path d="M1479.83,3067.67c13.017,2.629 26.557,-0.403 37.209,-8.334c-9.17,26.763 -10.471,55.603 -3.75,83.084c11.333,45.333 -105.75,-36.5 -105.75,-36.5l25,-57.125c0,0 7.25,13.916 28.541,16.083c6.459,0.75 12.625,1.625 18.75,2.792Z" style="fill-opacity:0.1;fill-rule:nonzero;"/><path d="M1205.5,2006.25l48.917,0l0,-277.542l-36.709,-6.583l-12.208,284.125Z" style="fill:#fdc2cc;fill-rule:nonzero;"/><path d="M1205.5,2006.25l48.917,0l0,-277.542l-36.709,-6.583l-12.208,284.125Z" style="fill-opacity:0.05;fill-rule:nonzero;"/><path d="M1443.42,3086.54c0,0 30.833,-1.917 44.666,25.791l17,13.209l8.334,-19.5c18.082,31.862 24.868,68.922 19.25,105.125c-5.619,36.202 2.5,17.583 -23.292,25.791c0,0 -13.208,6.292 -10.083,30.209c3.125,23.916 -46.542,59.166 -111.375,44.666c0,0 -56.667,1.292 -63.584,-11.958c-6.916,-13.25 4.417,-48.458 4.417,-48.458c0,0 23.292,-36.917 33.958,-50.542c0,0 27.709,-57.083 30.875,-83.333c3.167,-26.25 33.459,-45.5 49.834,-31Z" style="fill:#7e5659;fill-rule:nonzero;"/><path d="M1188.21,3109.83l0.5,-39.125c0,0 -56.291,16.209 -101.875,-2.125c0,0 3.834,39.334 -2.5,44.709c-6.333,5.375 21.084,56 21.084,56l30.625,32.083l52.666,-19.167l14.292,-45c0,0 -11.042,-27.375 -14.792,-27.375Z" style="fill:#d39999;fill-rule:nonzero;"/><path d="M1188.21,3109.83l0.5,-39.125c0,0 -56.291,16.209 -101.875,-2.125c0,0 3.834,39.334 -2.5,44.709c-6.333,5.375 21.084,56 21.084,56l30.625,32.083l52.666,-19.167l14.292,-45c0,0 -11.042,-27.375 -14.792,-27.375Z" style="fill-opacity:0.1;fill-rule:nonzero;"/><path d="M1080.88,3095.67c0,0 29.917,3.458 26.125,41.666c-3.792,38.209 1.583,0 1.583,0c0,0 31.792,12.875 43.125,30.834c11.334,17.958 31.792,-16.042 33.334,-25.792c1.541,-9.75 14.291,-13.792 14.291,-13.792c0,0 50,92.709 41.167,118.209c-8.833,25.5 -116.167,31.375 -116.167,31.375c0,0 -19.541,-11 -64.541,23.291c-45,34.292 -138.459,8.334 -138.459,8.334c0,0 -76.166,-31.792 -29.875,-66.667c46.292,-34.875 77.709,-29.583 77.709,-29.583l68.916,-66.417c0,0 9.125,-53.375 42.792,-51.458Z" style="fill:#7e5659;fill-rule:nonzero;"/><path d="M1438.17,903.958c19.041,11.542 32.583,30.292 50.625,43.334c25.666,18.541 60.125,25.458 79.875,50.208c16.666,21.083 18.833,50.542 14.333,77.125c-4.5,26.583 -14.583,51.958 -19.458,78.458c-4.875,26.5 -3.875,55.875 11.875,77.709c1.828,2.935 4.48,5.269 7.625,6.708c3.821,0.913 7.804,0.913 11.625,0c26.916,-3.25 52.75,16 64.833,40.292c12.083,24.291 13.042,52.541 11.792,79.625c-1.042,22.208 -3.542,44.875 -13.292,64.875c-16.667,34 -51.333,55 -85.542,71.083c-22.234,10.454 -45.034,19.662 -68.291,27.583c-16,5.417 -32.875,10.292 -49.5,7.459c-28.459,-4.917 -48.625,-30.792 -75.625,-40.917c-22.125,-8.333 -46.667,-5.333 -70.209,-3.25c-20.083,1.75 -43.041,1.708 -56.875,-12.958c-17.75,-18.834 -9.75,-49.209 -0.666,-73.459c-27.386,-1.735 -48.985,-24.746 -48.985,-52.187c0,-12.157 4.24,-23.942 11.985,-33.313c8.583,-10.458 22.291,-22.666 15.583,-34.458c-2.253,-3.362 -5.359,-6.066 -9,-7.833c-27.125,-15.5 -64.5,-21.709 -75.917,-50.792c-7.333,-18.708 -0.25,-39.875 9.042,-57.667c9.292,-17.791 20.833,-35.208 23.375,-55.125c3.333,-28.166 -12.5,-57.125 -4.458,-84.291c4.156,-11.668 10.828,-22.28 19.541,-31.084c24.493,-27.112 54.271,-48.934 87.5,-64.125c32.875,-15.041 65.834,-18.416 100.584,-25.75c20.833,-4.416 38.083,-9.083 57.625,2.75Z" style="fill:#865a61;fill-rule:nonzero;"/><path d="M1254.38,1323.42c0,0 -79.708,-4.167 -94.792,63.791c-15.083,67.959 32.709,165.292 32.709,165.292l62.083,-229.083Z" style="fill:#fdc2cc;fill-rule:nonzero;"/><path d="M1254.38,1323.42c0,0 -79.708,-4.167 -94.792,63.791c-15.083,67.959 32.709,165.292 32.709,165.292l62.083,-229.083Z" style="fill-opacity:0.05;fill-rule:nonzero;"/><path d="M1203.5,1525.67l30.208,23.916l140.959,6.292l88,-60.417l89.5,-153.583c-54.709,-13.958 -76.834,-51.75 -85.084,-87.083c-5.248,-23.913 -5.842,-48.613 -1.75,-72.75c4.093,-24.137 -143.5,-74.292 -125.875,41.666c2.417,14.232 2.866,28.729 1.334,43.084c-8.334,67.916 -74.25,55.125 -74.25,55.125l-25.292,39l-28.958,95.833l-8.792,68.917Z" style="fill:#fdc2cc;fill-rule:nonzero;"/><path d="M1339.58,1223.54c2.417,14.232 2.866,28.729 1.334,43.083c41.151,18.799 89.349,14.283 126.291,-11.833c-5.248,-23.913 -5.842,-48.613 -1.75,-72.75c4.093,-24.137 -143.5,-74.292 -125.875,41.5Z" style="fill-opacity:0.1;fill-rule:nonzero;"/><circle cx="1393.79" cy="1145.96" r="127.125" style="fill:#fdc2cc;"/><path d="M1303.88,1501.42c3.083,0 6.125,0.458 9.167,0.75c16.666,1.666 86.291,5.416 125.958,-41.959c44.375,-53 103.458,-118.458 105.875,-121.125l60.125,18.167c0,0 -47.583,-16.917 -79.167,71.583c-14.194,38.017 -1.533,81.147 30.959,105.459c11.679,8.461 25.13,14.161 39.333,16.666c0.037,0.065 0.037,0.144 0,0.209l0,38.833l-24.583,108.333c-6.985,30.61 -6.182,62.489 2.333,92.709l37.5,132.541c-5.667,3.917 -238.333,162.167 -393.75,52.875c0.583,-4.75 19.792,-160.291 6.458,-236.416c-3.423,-19.465 -5.746,-39.107 -6.958,-58.834l0,-1.458c-1.374,-17.41 -9.57,-33.591 -22.792,-45c-14,-12.5 -32.958,-45.833 -14.208,-133.917c4.737,-21.814 11.719,-43.081 20.833,-63.458l52.125,-117.792l48.042,0.959c-4.167,5.5 -59.875,75.083 -65.917,119.916c-5.916,42.625 -13.208,55.709 68.667,60.959Z" style="fill:#3ad39e;fill-rule:nonzero;"/><path d="M1645.46,1377.96c0,0 47,40.292 65.459,131.75c18.458,91.459 59.583,243.375 59.583,243.375c0,0 16.667,66.292 -40.292,131.75c-56.958,65.459 -94.833,116.667 -94.833,116.667l-37.5,55.25c-6.393,9.416 -15.99,16.2 -27,19.083c-17.083,4.5 -43.333,7.75 -66.083,-4.708c-17.062,-9.536 -24.291,-30.628 -16.667,-48.625l8.333,-19.292c0,0 -77.208,48.667 -83.916,21.792c-6.709,-26.875 89.791,-53.708 89.791,-53.708c0,0 79.709,-13.417 95.834,-51.167c0,0 85.583,-109.958 78.875,-147.708l-82.667,-221.542c0,0 -103.375,-13.667 -68.125,-129.792c35.25,-116.125 119.208,-43.125 119.208,-43.125Z" style="fill:#fdc2cc;fill-rule:nonzero;"/><path d="M1151.17,2213.79c0,0 188.833,37.75 233.333,32.708l4.792,15.958c0,0 71.666,16.042 233.708,-9.666c10.583,-1.667 21.569,-3.542 32.958,-5.625l3.792,-0.667c0,0 2.208,-12 3.958,-32.458c3.875,-46.459 5.25,-136.417 -27.458,-228.5l-27.25,-83.917c0,0 -168.417,100.958 -279.917,91.667c-9.958,-0.834 -19.833,-1.625 -29.791,-1.959c-22.875,-0.875 -58.334,0 -81.375,-18.458l-48.334,8.333l0,137.5c-0.017,20.113 -3.717,40.054 -10.916,58.834c-1.042,2.75 -2.125,5.458 -3.334,8.333c-4.434,8.588 -5.9,18.408 -4.166,27.917Z" style="fill:#65617d;fill-rule:nonzero;"/><path d="M1389.25,2219.67l0,42.791c0,0 82.5,18.459 270.458,-15.958c0,0 2.209,-12 3.959,-32.458c-57.667,9.25 -216.709,31.5 -274.417,5.625Z" style="fill-opacity:0.1;fill-rule:nonzero;"/><path d="M1151.17,2213.79c0,0 188.833,37.75 233.333,32.708l4.792,15.958l0,-42.791c-21.5,8.916 -175,-28.084 -230.625,-41.959c-1.042,2.75 -2.125,5.459 -3.334,8.334c-4.397,8.54 -5.862,18.295 -4.166,27.75Z" style="fill-opacity:0.1;fill-rule:nonzero;"/><path d="M1608.96,2166.08l14,86.834c10.584,-1.667 21.57,-3.542 32.959,-5.625c-4.375,-25.375 -13.917,-83.334 -11.292,-92.959l-17.625,-15.083l-18.042,26.833Z" style="fill:#65617d;fill-rule:nonzero;"/><path d="M1610.92,2164.21l14,86.875c10.583,-1.694 21.569,-3.569 32.958,-5.625c-4.375,-25.375 -13.917,-83.333 -11.292,-92.958l-17.625,-15.125l-18.041,26.833Z" style="fill-opacity:0.1;fill-rule:nonzero;"/><g opacity="0.05"><path d="M1318.96,1993.25c-9.916,-0.833 -19.833,-1.625 -29.791,-1.958c-22.25,-0.834 -56.209,0 -79.375,-17.042l8.083,-1.417c23.167,18.375 58.333,17.584 81.375,18.459c9.958,0.333 19.833,1.125 29.792,1.958c3.25,0.292 6.583,0.458 9.958,0.542c-6.685,0.178 -13.376,-0.003 -20.042,-0.542Z" style="fill-rule:nonzero;"/><path d="M1612.88,2252.79c10.583,-1.667 21.569,-3.528 32.958,-5.584l3.834,-0.708c0,0 2.208,-12 3.916,-32.458c3.917,-46.459 5.292,-136.417 -27.458,-228.5l-25.667,-79.167c5.459,-3.083 8.334,-4.875 8.334,-4.875l27.25,83.917c32.708,92.083 31.333,182.041 27.458,228.5c-1.75,20.458 -3.958,32.458 -3.958,32.458l-3.792,0.708c-11.361,2.056 -22.347,3.917 -32.958,5.584c-75.709,12 -131.625,14.916 -169.792,14.583c53.578,-0.813 107.02,-5.646 159.875,-14.458Z" style="fill-rule:nonzero;"/><path d="M1374.33,2246.5l0,0.458l-5.416,0c2.055,-0.139 3.861,-0.291 5.416,-0.458Z" style="fill-rule:nonzero;"/></g><ellipse cx="1632.42" cy="2167.62" rx="7.125" ry="14.667" style="fill:#d39999;"/><path d="M1177.67,1870.62c11.5,-85.417 31.791,-136.167 42.5,-156.042c0.416,2.709 1.5,11.5 2,14.209c2.166,12.5 0.25,28.25 0.916,44.125l-10.666,193.166l14.291,60.417c13.417,47.833 -36.291,10.042 -36.291,10.042c-10.292,22.666 -29.167,20.166 -29.167,20.166l-2.583,-34.666c-2.447,-32.659 0.481,-65.498 8.666,-97.209c4.519,-17.848 7.969,-35.949 10.334,-54.208Z" style="fill:#fdc2cc;fill-rule:nonzero;"/><path d="M1177.67,1870.62c11.5,-85.417 31.791,-136.167 42.5,-156.042c0.416,2.709 1.5,11.5 2,14.209c2.166,12.5 0.25,28.25 0.916,44.125l-10.666,193.166l14.291,60.417c13.417,47.833 -36.291,10.042 -36.291,10.042c-10.292,22.666 -29.167,20.166 -29.167,20.166l-2.583,-34.666c-2.447,-32.659 0.481,-65.498 8.666,-97.209c4.519,-17.848 7.969,-35.949 10.334,-54.208Z" style="fill-opacity:0.05;fill-rule:nonzero;"/><path d="M1655.92,1974.83c-9.042,11.709 -14,18.417 -14,18.417l-37.5,55.208c-6.379,9.43 -15.983,16.217 -27,19.084c-17.084,4.5 -43.334,7.791 -66.084,-4.709c-17.07,-9.507 -24.306,-30.599 -16.666,-48.583l8.333,-19.333c0,0 -77.208,48.666 -83.917,21.833c-6.708,-26.833 89.792,-53.708 89.792,-53.708c0,0 79.708,-13.417 95.833,-51.209c0,0 6.959,-8.916 16.667,-22.583" style="fill:#fdc2cc;fill-rule:nonzero;"/><path d="M1608.96,2067.38c0,0 -91.291,-8.875 -120.208,-61.083l-13.25,43.125c0,0 95.833,66.166 117.708,57.583l15.75,-39.625Z" style="fill:#65617d;fill-rule:nonzero;"/><path d="M1605.71,2066.96c0,0 -91.25,-8.875 -120.208,-61.125l-13.208,43c0,0 95.833,66.167 117.666,57.584l15.75,-39.459Z" style="fill-opacity:0.1;fill-rule:nonzero;"/><path d="M1193.42,2043c0,0 -31.959,11.333 -38.25,5.042l14.375,26.458l27.166,-20.833l-3.291,-10.667Z" style="fill:#65617d;fill-rule:nonzero;"/><path d="M1193.42,2043c0,0 -31.959,11.333 -38.25,5.042l14.375,26.458l27.166,-20.833l-3.291,-10.667Z" style="fill-opacity:0.1;fill-rule:nonzero;"/><path d="M1389.25,2219.67l0,-55.209l-13.125,56.542l13.125,-1.333Z" style="fill-opacity:0.1;fill-rule:nonzero;"/><path d="M1518.71,1078.83c-7.708,10.834 -21.083,16.334 -34.25,18.042c-13.166,1.708 -26.5,0.25 -39.791,0c-20.834,-0.333 -43,2.875 -60.042,15.125c-10.875,7.792 -19.042,18.75 -27.542,29.167c-25.75,31.458 -61.5,60.916 -102.083,57.625c-7.137,0 -13.979,-2.887 -18.958,-8c-3.306,-5.134 -4.991,-11.146 -4.834,-17.25c-1.745,-25.935 -0.921,-51.978 2.459,-77.75c1.627,-15.95 5.586,-31.575 11.75,-46.375c7.255,-14.836 16.787,-28.445 28.25,-40.334c13.863,-16.083 30.574,-29.474 49.291,-39.5c18.909,-10.028 40.831,-12.858 61.667,-7.958c24.292,6.625 43.208,25.625 66.375,35.417c26.458,11.125 96.708,40.833 67.708,81.791Z" style="fill-opacity:0.1;fill-rule:nonzero;"/><path d="M1518.71,1073.79c-7.708,10.833 -21.083,16.333 -34.25,18.041c-13.166,1.709 -26.5,0.25 -39.791,0c-20.834,-0.375 -43,2.834 -60.042,15.084c-10.875,7.791 -19.042,18.75 -27.542,29.166c-25.75,31.459 -61.5,60.917 -102.083,57.625c-7.141,0.02 -13.99,-2.87 -18.958,-8c-3.313,-5.13 -4.999,-11.145 -4.834,-17.25c-1.745,-25.934 -0.921,-51.977 2.459,-77.75c1.627,-15.949 5.586,-31.574 11.75,-46.375c7.243,-14.829 16.777,-28.427 28.25,-40.291c13.85,-16.108 30.563,-29.515 49.291,-39.542c18.909,-10.029 40.831,-12.858 61.667,-7.958c24.292,6.625 43.208,25.625 66.375,35.416c26.458,11.167 96.708,40.792 67.708,81.834Z" style="fill:#865a61;fill-rule:nonzero;"/><path d="M1217.92,1972.79l-0.334,15.208l-3.416,-14.542l3.75,-0.666Z" style="fill:#fdc2cc;fill-rule:nonzero;"/><path d="M1217.92,1972.79l-0.334,15.208l-3.416,-14.542l3.75,-0.666Z" style="fill-opacity:0.05;fill-rule:nonzero;"/><path d="M1539.25,1413.12c-35.292,116.125 67.583,129.75 67.583,129.75l82.667,221.542c6.708,37.75 -78.917,147.708 -78.917,147.708c-5.958,14.083 -20.833,24.792 -37.083,32.708c9.494,-5.783 17.131,-14.172 22,-24.166c4.869,-9.994 85.583,-109.917 78.875,-147.667l-82.667,-221.583c0,0 -102.833,-13.625 -67.583,-129.75c11.792,-38.792 29.167,-56.459 46.75,-62.792c-12.125,9.75 -23.25,26.625 -31.625,54.25Z" style="fill-opacity:0.05;fill-rule:nonzero;"/><g opacity="0.1"><path d="M1541,1518.62c4.832,5.978 10.437,11.289 16.667,15.792c11.67,8.478 25.124,14.179 39.333,16.666c14.209,2.488 0,0 0,0.209l0,4.166c-12.858,-2.724 -25.007,-8.102 -35.667,-15.791c-7.924,-5.808 -14.8,-12.924 -20.333,-21.042Z" style="fill-rule:nonzero;"/><path d="M1221.33,1684.75l0,1.458c1.299,19.798 3.692,39.509 7.167,59.042c12.5,71.833 -3.875,214.458 -6.208,234.167c-1.334,-0.875 -2.667,-1.709 -4.167,-2.667c0.625,-4.75 19.833,-160.292 6.5,-236.375c-3.419,-19.465 -5.742,-39.107 -6.958,-58.833l0,-1.459c-0.828,-11.433 -4.698,-22.44 -11.209,-31.875c8.636,10.337 13.836,23.113 14.875,36.542Z" style="fill-rule:nonzero;"/><path d="M1298.04,1325.25l-40.75,-0.792c-0.065,-0.037 -0.144,-0.037 -0.209,0l-52.083,117.75c-9.108,20.381 -16.089,41.646 -20.833,63.459c-15.167,71.25 -5.625,106.75 5.958,124.291c-13.042,-15.375 -26.5,-50.416 -9.708,-129.166c4.65,-21.826 11.563,-43.108 20.625,-63.5l52.458,-117.75l48.042,0.958c-0.375,0.792 -1.667,2.375 -3.5,4.75Z" style="fill-rule:nonzero;"/><path d="M1605.12,1357.21l0.708,0.209l-0.708,-0.209Z" style="fill-rule:nonzero;"/><path d="M1590.17,1356.54l-40.834,-12.292c-2.625,2.667 -61.666,68.125 -106.041,121.125c-39.667,47.375 -109.209,43.667 -125.959,42c-3.041,-0.333 -6.125,-0.583 -9.166,-0.792c-45.542,-2.916 -63.459,-8.333 -69.459,-19.833c8.542,8.333 27.334,12.5 65.667,14.833c3.083,0 6.125,0.459 9.167,0.75c16.666,1.667 86.291,5.375 125.958,-41.958c44.375,-53.042 103.458,-118.5 105.875,-121.167l59.417,18c-4.783,-1.19 -9.755,-1.417 -14.625,-0.666Z" style="fill-rule:nonzero;"/></g><path d="M1106.71,3156.21c0,0 -57.5,15.709 -68.625,-8.958" style="fill-opacity:0.1;fill-rule:nonzero;"/><path d="M1471.75,3144.42c0,0 -66.667,17.208 -82.083,-9.417" style="fill-opacity:0.1;fill-rule:nonzero;"/><ellipse cx="802.5" cy="2983.58" rx="112.208" ry="18.958" style="fill:#3ad39e;fill-opacity:0.1;"/><ellipse cx="360.458" cy="3252.46" rx="112.208" ry="18.958" style="fill:#3ad39e;fill-opacity:0.1;"/><ellipse cx="243.625" cy="3011.92" rx="167.542" ry="28.333" style="fill:#3ad39e;"/><path d="M174.333,2965.58c-7.658,-6.211 -13.242,-14.615 -16,-24.083c-2.041,-9.583 2.042,-21.042 11.167,-24.542c10.25,-3.916 21.208,3.167 29.5,10.334c8.292,7.166 17.833,15.375 28.708,13.875c-11.363,-10.308 -16.498,-25.871 -13.5,-40.917c0.449,-3.073 1.749,-5.959 3.75,-8.333c5.667,-6.084 16,-3.459 22.834,1.333c21.625,15.25 27.708,44.667 27.791,71.167c2.209,-9.584 0.375,-19.5 0.417,-29.167c0.042,-9.667 2.75,-20.833 11,-25.917c5.096,-2.821 10.843,-4.258 16.667,-4.166c9.75,-0.334 20.583,0.625 27.25,7.75c8.333,8.833 6.125,23.708 -1.084,33.333c-7.208,9.625 -18.125,15.833 -28.166,22.583c-8.088,4.795 -14.984,11.363 -20.167,19.209c-0.607,1.088 -1.109,2.232 -1.5,3.416l-60.875,0c-13.716,-6.864 -26.431,-15.57 -37.792,-25.875Z" style="fill:#3ad39e;fill-rule:nonzero;"/><ellipse cx="4290.96" cy="3142.17" rx="112.208" ry="18.958" style="fill:#3ad39e;fill-opacity:0.1;"/><path d="M4215.62,3054.04c0,0 64,-1.959 83.333,-15.709c19.334,-13.75 98.417,-30.125 103.209,-8.083c4.791,22.042 96.208,109.542 23.916,110.125c-72.291,0.583 -167.875,-11.25 -187.125,-23c-19.25,-11.75 -23.333,-63.333 -23.333,-63.333Z" style="fill:#a8a8a8;fill-rule:nonzero;"/><path d="M4427.33,3132.75c-72.25,0.583 -167.875,-11.25 -187.125,-23c-14.666,-8.917 -20.5,-40.958 -22.458,-55.75l-2.125,0c0,0 4.167,51.625 23.292,63.333c19.125,11.709 114.875,23.584 187.125,23c20.833,0 28.083,-7.583 27.666,-18.583c-2.875,6.833 -10.833,11 -26.375,11Z" style="fill-opacity:0.2;fill-rule:nonzero;"/><defs><linearGradient id="_Linear1" x1="0" y1="0" x2="1" y2="0" gradientUnits="userSpaceOnUse" gradientTransform="matrix(1.50808e-13,-2462.88,2462.88,1.50808e-13,2006.79,2959.63)"><stop offset="0" style="stop-color:#808080;stop-opacity:0.25"/><stop offset="0.54" style="stop-color:#808080;stop-opacity:0.12"/><stop offset="1" style="stop-color:#808080;stop-opacity:0.1"/></linearGradient><linearGradient id="_Linear2" x1="0" y1="0" x2="1" y2="0" gradientUnits="userSpaceOnUse" gradientTransform="matrix(1.55839e-13,-2545.04,2545.04,1.55839e-13,2800.96,3174.12)"><stop offset="0" style="stop-color:#808080;stop-opacity:0.25"/><stop offset="0.54" style="stop-color:#808080;stop-opacity:0.12"/><stop offset="1" style="stop-color:#808080;stop-opacity:0.1"/></linearGradient><linearGradient id="_Linear3" x1="0" y1="0" x2="1" y2="0" gradientUnits="userSpaceOnUse" gradientTransform="matrix(1.4991e-13,-2448.21,2448.21,1.4991e-13,3520.38,3363.21)"><stop offset="0" style="stop-color:#808080;stop-opacity:0.25"/><stop offset="0.54" style="stop-color:#808080;stop-opacity:0.12"/><stop offset="1" style="stop-color:#808080;stop-opacity:0.1"/></linearGradient><linearGradient id="_Linear4" x1="0" y1="0" x2="1" y2="0" gradientUnits="userSpaceOnUse" gradientTransform="matrix(1.50223e-13,-2453.33,2453.33,1.50223e-13,1324.63,3327.25)"><stop offset="0" style="stop-color:#808080;stop-opacity:0.25"/><stop offset="0.54" style="stop-color:#808080;stop-opacity:0.12"/><stop offset="1" style="stop-color:#808080;stop-opacity:0.1"/></linearGradient></defs></svg>