<?xml version="1.0" encoding="UTF-8" standalone="no"?><!DOCTYPE svg PUBLIC "-//W3C//DTD SVG 1.1//EN" "http://www.w3.org/Graphics/SVG/1.1/DTD/svg11.dtd"><svg width="100%" height="100%" viewBox="0 0 125730 125730" version="1.1" xmlns="http://www.w3.org/2000/svg" xmlns:xlink="http://www.w3.org/1999/xlink" xml:space="preserve" xmlns:serif="http://www.serif.com/" style="fill-rule:evenodd;clip-rule:evenodd;stroke-linejoin:round;stroke-miterlimit:1.41421;"><g><path d="M54448.3,73409.9l-1125.12,6682.6c-153.419,913.604 221.527,1834.4 969.443,2379.54c749.045,544.016 1743.73,616.918 2562.29,187.966l6008.15,-3136.2l6008.15,3136.91c355.486,184.441 745.096,277.225 1130.48,277.225c504.674,0 1008.22,-158.072 1432.94,-465.332c748.622,-545.145 1124.55,-1465.94 970.149,-2379.54l-1123.99,-6682.6l4837.77,-4745.55c661.618,-648.081 897.246,-1615.27 613.393,-2495.31c-284.981,-879.62 -1047.56,-1523.61 -1963,-1658.7l-6703.75,-994.12l-3019.45,-6068.64c-409.493,-828.434 -1257.95,-1353.13 -2183.26,-1353.13c-923.615,0 -1771.51,524.698 -2184.53,1353.13l-3016.48,6068.64l-6703.75,993.556c-917.129,135.088 -1676.33,779.08 -1961.87,1658.56c-285.545,880.184 -50.482,1848.5 612.265,2495.31l4840.16,4745.69Z" style="fill:#c3cced;fill-rule:nonzero;"/><path d="M91675,33994.1l-7676.3,-0.141l0,-4257.8c0,-1954.26 -1583.97,-3538.22 -3538.64,-3538.22l-561.22,0c-1954.12,0 -3537.51,1583.96 -3537.51,3538.22l0,4257.8l-27083.9,0l0,-4257.8c0,-1954.26 -1583.97,-3538.22 -3537.52,-3538.22l-561.784,0c-1954.12,0 -3537.51,1583.96 -3537.51,3538.22l0,4257.8l-7586.9,0c-4014.69,0 -7282.03,3266.21 -7282.03,7282.03l0,50973.4c0,4013.42 3267.34,7281.89 7282.03,7281.89l57621.9,0c4014.13,0 7282.03,-3267.91 7282.03,-7281.89l0,-50973.4c-0.564,-4015.82 -3268.47,-7281.89 -7282.6,-7281.89Zm-950.125,57305.2l-55721.2,0l0,-39679.6l55721.2,0l0,39679.6Z" style="fill:#3855be;fill-rule:nonzero;"/></g></svg>