<?xml version="1.0" encoding="UTF-8" standalone="no"?><!DOCTYPE svg PUBLIC "-//W3C//DTD SVG 1.1//EN" "http://www.w3.org/Graphics/SVG/1.1/DTD/svg11.dtd"><svg width="100%" height="100%" viewBox="0 0 2069 2069" version="1.1" xmlns="http://www.w3.org/2000/svg" xmlns:xlink="http://www.w3.org/1999/xlink" xml:space="preserve" xmlns:serif="http://www.serif.com/" style="fill-rule:evenodd;clip-rule:evenodd;stroke-linejoin:round;stroke-miterlimit:1.41421;"><path d="M1569.53,835.95c93.604,-143.675 128.433,-304.763 100.138,-452.788c-39.184,-198.095 -182.859,-326.529 -367.892,-326.529c-87.075,0 -180.679,30.475 -267.754,87.075c-91.434,-58.779 -180.684,-87.075 -269.934,-87.075c-185.033,0 -330.883,128.434 -367.891,328.709c-52.246,274.287 111.021,640 598.637,833.741c17.417,6.53 32.654,6.53 41.363,6.53c8.708,0 23.946,0 41.362,-6.53c217.684,-91.433 389.659,-224.221 491.971,-383.133Z" style="fill:#3ad39e;fill-rule:nonzero;"/><g><path d="M811.971,1471.6l-241.633,-320c-19.592,-28.3 -56.6,-45.713 -93.605,-45.713c-21.766,0 -41.362,6.529 -63.129,17.417c-52.246,34.829 -69.658,100.138 -39.183,154.558l95.783,171.971l-69.658,10.884l-156.733,-202.45c0,-47.892 -4.355,-245.988 -6.53,-361.363c-2.175,-65.304 -54.42,-115.375 -119.729,-115.375l-2.179,0c-63.129,0 -115.375,52.246 -115.375,115.375l0,472.379c0,34.829 15.238,69.659 39.183,93.604l374.421,387.484l-6.529,126.258c0,17.417 13.063,32.654 30.475,34.829l2.175,0l391.838,-4.354c17.416,0 32.654,-15.237 30.475,-34.829l-19.592,-426.667c-2.175,-26.116 -13.058,-50.062 -30.475,-74.008Z" style="fill:#ebfaf5;fill-rule:nonzero;"/><path d="M1952.65,779.354c-65.304,0 -117.55,50.067 -119.729,117.55c-2.175,115.375 -6.529,313.471 -6.529,361.363l-156.733,202.45l-69.663,-10.888l95.783,-169.796c30.475,-54.42 13.063,-119.729 -41.362,-154.558c-56.6,-32.654 -124.083,-15.237 -154.558,28.3l-243.809,317.825c-17.416,23.946 -28.3,47.892 -30.475,76.192l-19.591,424.491c-0.001,17.417 13.062,32.655 30.475,34.83l391.837,4.354l2.175,0c17.417,0 32.654,-15.238 30.475,-34.829l-6.529,-126.259l374.421,-387.483c26.121,-26.121 39.183,-60.954 39.183,-97.958l0,-470.213c2.179,-63.129 -50.067,-115.371 -115.371,-115.371Z" style="fill:#ebfaf5;fill-rule:nonzero;"/></g></svg>