<?xml version="1.0" encoding="UTF-8" standalone="no"?><!DOCTYPE svg PUBLIC "-//W3C//DTD SVG 1.1//EN" "http://www.w3.org/Graphics/SVG/1.1/DTD/svg11.dtd"><svg width="100%" height="100%" viewBox="0 0 523875 523875" version="1.1" xmlns="http://www.w3.org/2000/svg" xmlns:xlink="http://www.w3.org/1999/xlink" xml:space="preserve" xmlns:serif="http://www.serif.com/" style="fill-rule:evenodd;clip-rule:evenodd;stroke-linejoin:round;stroke-miterlimit:1.41421;"><g id="surface1"><path d="M149319,163763c954.858,239.587 1828.69,734.828 2525.1,1430.54l77798.9,77800.3l14077.7,-14076.3l-77800.3,-77800.3c-697.807,-697.109 -1190.95,-1573.73 -1431.94,-2531.39l-4896.53,-19519.1l-32459.6,-18557.2l-15895.2,15894.5l18562.8,32481.9l19519.1,4876.97Z" style="fill:#3855be;fill-rule:nonzero;"/><path d="M218501,341228l123455,-123457c1352.31,-1353.7 3314.41,-1896.44 5169.64,-1434.73c16254.2,4165.89 33519.2,556.01 46748.2,-9765.12c13231.1,-10321.8 20927.2,-26194.7 20838.5,-42973.5c0,-1021.91 -30.036,-2051.51 -96.394,-3090.19l-28714.2,28710.7c-1454.99,1456.38 -3612.67,1966.99 -5568.49,1314.59l-32658.7,-10887.6c-1626.12,-538.549 -2901.6,-1814.02 -3444.33,-3438.75l-10884.8,-32659.4c-653.103,-1953.02 -143.892,-4111.41 1314.59,-5569.19l28713.5,-28712.8c-17290.8,-1075.7 -34054.3,6188.76 -45098.3,19535.8c-11042.7,13349.8 -15033.2,31177.1 -10738.1,47958.7c465.205,1858.03 -76.836,3819.43 -1430.54,5172.44l-123453,123448c-1354.4,1343.23 -3314.41,1888.06 -5171.04,1433.34c-4297.91,-1103.64 -8718.06,-1675.72 -13157.8,-1693.18c-23442.6,-154.37 -44388.7,14623.9 -52107.2,36764.5c-7714.3,22138.5 -489.653,46734.9 17973.3,61184.2c18462.9,14449.3 44074.3,15554.3 63710.7,2743.73c19637.8,-12809.9 28948.9,-36693.2 23161.8,-59415.6c-460.315,-1854.53 83.821,-3819.43 1437.53,-5169.64Zm-40926.9,40098.4l-26494.3,0l-13067,-21771.7l13067,-21775.2l26494.3,0l13064.2,21775.2l-13064.2,21771.7Zm21006.9,-63724l119749,-119750l7695.44,7696.84l-119749,119750l-7695.44,-7696.84Z" style="fill:#3855be;fill-rule:nonzero;"/><path d="M370080,411875c12124,4558.45 25793,1602.37 34952.5,-7556.44c9160.21,-9161.61 12117,-22832.8 7556.44,-34953.9l-42509,42510.4Z" style="fill:#3855be;fill-rule:nonzero;"/><path d="M405033,357574l-61135.4,-61159.8c-6743.38,5668.38 -16701.3,5237.4 -22934.1,-987.687c-6233.47,-6223.69 -6672.83,-16178.8 -1014.23,-22929.2l-8657.98,-8668.46l-46735,46737l8710.37,8709.67c6743.38,-5668.38 16702.7,-5238.8 22932,984.195c6232.77,6225.09 6674.92,16181.6 1015.63,22932.7l61083.7,61115.8c666.375,666.375 1369.77,1283.86 2080.15,1884.57l46540.8,-46540.8c-599.319,-711.777 -1219.59,-1412.38 -1885.97,-2078.05Zm-32272.4,22156.6l-54431.1,-54431.1l7695.44,-7696.84l54432.5,54433.9l-7696.84,7694.05Z" style="fill:#3855be;fill-rule:nonzero;"/></g></svg>