<?xml version="1.0" encoding="UTF-8" standalone="no"?><!DOCTYPE svg PUBLIC "-//W3C//DTD SVG 1.1//EN" "http://www.w3.org/Graphics/SVG/1.1/DTD/svg11.dtd"><svg width="100%" height="100%" viewBox="0 0 13109 13542" version="1.1" xmlns="http://www.w3.org/2000/svg" xmlns:xlink="http://www.w3.org/1999/xlink" xml:space="preserve" xmlns:serif="http://www.serif.com/" style="fill-rule:evenodd;clip-rule:evenodd;stroke-miterlimit:10;"><path d="M5621.12,6318.53c-519.65,-168.181 -1069.08,-309.171 -1630.6,-294.64c-825.512,21.436 -1619.23,406.138 -2010.69,974.702c-330.895,481.813 -375.063,1048.08 -519.506,1583.84c-177.964,660.065 -515.765,1286.46 -876.297,1899.05c-193.646,329.025 -397.938,664.956 -431.603,1026.5c-46.181,501.954 257.955,1003.76 737.465,1340.13c479.511,336.362 1117.56,515.621 1758.64,557.487c341.11,22.155 697.614,5.035 1001.32,-117.828c321.256,-129.481 556.192,-366.431 878.743,-494.473c298.957,-118.547 647.404,-133.797 982.759,-116.389c434.304,21.97 864.441,95.672 1281.29,219.542c467.425,139.84 901.762,341.11 1368.18,482.964c466.419,141.853 987.795,222.131 1465.72,108.044c448.723,-107.037 804.651,-370.89 1125.62,-638.196c517.237,-429.666 998.184,-901.23 1437.96,-1409.9c289.893,-336.507 559.933,-691.86 689.413,-1085.05c247.309,-751.852 -84.018,-1603.12 -825.368,-2120.89c-614.17,-429.157 -1440.4,-618.631 -2249.51,-733.725c-737.897,-106.03 -1591.61,-116.533 -2269.8,-386.572c-646.828,-258.242 -1235.25,-575.039 -1913.73,-794.581Z" style="fill:#3855be;fill-opacity:0.1;fill-rule:nonzero;"/><ellipse cx="12245.1" cy="8835.06" rx="332.478" ry="45.606" style="fill:#3855be;fill-opacity:0.1;"/><ellipse cx="10971.4" cy="8964.25" rx="332.478" ry="45.606" style="fill:#3855be;fill-opacity:0.1;"/><ellipse cx="9471.16" cy="8789.45" rx="332.478" ry="45.606" style="fill:#3855be;fill-opacity:0.1;"/><ellipse cx="11481.1" cy="9331.98" rx="236.374" ry="32.514" style="fill:#3855be;fill-opacity:0.1;"/><ellipse cx="10159.3" cy="9299.46" rx="236.374" ry="32.514" style="fill:#3855be;fill-opacity:0.1;"/><path d="M10964.2,8953.89c0,0 466.418,-1528.74 -72.941,-2141.04c-402.829,-458.074 -861.479,-402.829 -1066.49,-346.577c-107.347,28.567 -196.863,102.97 -244.574,203.285c-71.934,154.658 -58.698,405.707 447.428,698.765c847.524,490.732 900.323,1163.89 900.323,1163.89l36.255,421.675Z" style="fill:#3855be;fill-rule:nonzero;"/><path d="M9897.73,6683.09c0,0 1374.8,429.876 1066.49,2270.8" style="fill:none;fill-rule:nonzero;stroke:#565987;stroke-width:14.39px;"/><path d="M10700.5,6837.17c0,0 -189.329,127.611 -129.48,319.242" style="fill:none;fill-rule:nonzero;stroke:#565987;stroke-width:14.39px;"/><path d="M10035.7,6950.68c0,0 115.094,-117.684 256.516,-52.8" style="fill:none;fill-rule:nonzero;stroke:#565987;stroke-width:14.39px;"/><path d="M10579.1,7542.7c0,0 203.141,-103.01 255.653,26.04" style="fill:none;fill-rule:nonzero;stroke:#565987;stroke-width:14.39px;"/><path d="M11081.9,7757.63c0,0 -152.643,-12.085 -155.377,60.856" style="fill:none;fill-rule:nonzero;stroke:#565987;stroke-width:14.39px;"/><path d="M10983.1,8966.12c0,0 -546.697,-1111.09 -696.175,-1086.78c-71.934,11.509 -104.16,81.716 -118.978,152.068c-18.41,91.048 -7.999,185.609 29.78,270.471c77.545,177.82 285.721,515.477 785.373,664.236Z" style="fill:#3855be;fill-rule:nonzero;"/><path d="M10290.9,8090.26c0,0 573.313,831.267 684.091,867.81" style="fill:none;fill-rule:nonzero;stroke:#565987;stroke-width:14.39px;"/><path d="M10238.3,8220.02l133.797,0" style="fill:none;fill-rule:nonzero;stroke:#565987;stroke-width:14.39px;"/><path d="M10398.5,8524.16l209.759,8.92" style="fill:none;fill-rule:nonzero;stroke:#565987;stroke-width:14.39px;"/><path d="M10526.1,8280.88l-22.731,109.196" style="fill:none;fill-rule:nonzero;stroke:#565987;stroke-width:14.39px;"/><path d="M10749.1,8613.36l-4.029,99.269" style="fill:none;fill-rule:nonzero;stroke:#565987;stroke-width:14.39px;"/><path d="M10966.9,8966.12c0,0 546.697,-1111.09 696.175,-1086.78c71.934,11.509 104.16,81.716 118.979,152.068c18.41,91.048 7.998,185.609 -29.781,270.471c-77.545,177.82 -285.721,515.477 -785.373,664.236Z" style="fill:#3855be;fill-rule:nonzero;"/><path d="M11659.1,8090.26c0,0 -573.312,831.267 -684.09,867.81" style="fill:none;fill-rule:nonzero;stroke:#565987;stroke-width:14.39px;"/><path d="M11711.8,8220.02l-133.796,0" style="fill:none;fill-rule:nonzero;stroke:#565987;stroke-width:14.39px;"/><path d="M11551.5,8524.16l-209.759,8.92" style="fill:none;fill-rule:nonzero;stroke:#565987;stroke-width:14.39px;"/><path d="M11423.9,8280.88l22.732,109.196" style="fill:none;fill-rule:nonzero;stroke:#565987;stroke-width:14.39px;"/><path d="M11200.7,8613.36l4.172,99.269" style="fill:none;fill-rule:nonzero;stroke:#565987;stroke-width:14.39px;"/><path d="M10029.1,9225.66c-14.829,-12.158 -25.66,-28.504 -31.075,-46.901c-4.93,-19.023 4.166,-39.081 21.724,-47.907c19.998,-7.625 41.29,6.186 57.547,20.285c16.257,14.099 34.672,29.781 55.821,26.903c-22.065,-20.06 -32.023,-50.315 -26.184,-79.559c0.884,-5.969 3.37,-11.588 7.193,-16.257c11.078,-11.797 31.219,-6.618 44.455,2.59c42.153,29.781 53.951,87.04 54.238,138.544c2.058,-19.127 2.058,-38.419 0,-57.547c-1.668,-19.327 6.374,-38.271 21.437,-50.497c9.99,-5.474 21.272,-8.158 32.657,-7.769c19.027,-2.706 38.336,2.788 53.088,15.106c15.969,17.264 11.797,46.182 -2.158,65.172c-15.696,17.386 -34.231,31.981 -54.814,43.16c-15.762,9.324 -29.195,22.117 -39.276,37.406c-1.131,2.127 -2.093,4.34 -2.877,6.618l-118.835,0c-26.423,-13.092 -50.958,-29.691 -72.941,-49.347Z" style="fill:#3855be;fill-rule:nonzero;"/><path d="M12110.4,8778.09c-14.89,-12.103 -25.735,-28.47 -31.075,-46.901c-4.912,-18.982 4.188,-38.991 21.724,-47.764c19.998,-7.625 41.29,6.187 57.547,20.142c16.257,13.955 34.816,29.924 55.965,26.903c-22.167,-19.997 -32.19,-50.286 -26.328,-79.559c0.871,-5.956 3.415,-11.545 7.337,-16.113c11.078,-11.797 31.075,-6.762 44.311,2.59c42.153,29.637 53.951,86.32 54.238,138.544c2.121,-19.123 2.121,-38.423 0,-57.547c-1.668,-19.327 6.374,-38.272 21.437,-50.497c10.038,-5.334 21.295,-7.963 32.658,-7.625c18.927,-2.979 38.253,2.258 53.087,14.387c16.113,17.12 11.941,46.037 -2.158,65.028c-15.594,17.727 -34.14,32.622 -54.814,44.023c-15.762,9.323 -29.195,22.117 -39.276,37.406c-1.183,2.101 -2.147,4.319 -2.877,6.618l-118.835,0c-26.415,-13.222 -50.946,-29.915 -72.941,-49.635Z" style="fill:#3855be;fill-rule:nonzero;"/><path d="M11416.7,9225.66c-14.83,-12.158 -25.661,-28.504 -31.075,-46.901c-4.93,-19.023 4.166,-39.081 21.724,-47.907c19.997,-7.625 41.29,6.186 57.547,20.285c16.257,14.099 34.672,29.781 55.82,26.903c-22.092,-20.046 -32.101,-50.291 -26.327,-79.559c0.998,-5.961 3.527,-11.563 7.337,-16.257c11.078,-11.797 31.219,-6.618 44.455,2.59c42.153,29.781 53.95,87.04 54.238,138.544c2.297,-19.101 2.538,-38.394 0.719,-57.547c-1.668,-19.327 6.374,-38.271 21.437,-50.497c9.99,-5.474 21.272,-8.158 32.657,-7.769c19.027,-2.706 38.336,2.788 53.088,15.106c15.969,17.264 11.797,46.182 -2.158,65.172c-15.696,17.386 -34.231,31.981 -54.814,43.16c-15.762,9.324 -29.195,22.117 -39.276,37.406c-1.131,2.127 -2.093,4.34 -2.877,6.618l-118.835,0c-26.675,-13.036 -51.455,-29.637 -73.66,-49.347Z" style="fill:#3855be;fill-rule:nonzero;"/><path d="M9449.58,8321.02c0,0 -44.599,58.266 20.573,146.17c65.172,87.903 118.691,162.282 97.111,217.096c0,0 -98.262,-163.29 -178.252,-165.592c-79.991,-2.302 -27.479,-99.412 60.568,-197.674Z" style="fill:#3855be;fill-rule:nonzero;"/><path d="M9449.58,8321.02c-3.943,5.609 -7.045,11.765 -9.208,18.271c-77.976,91.644 -119.554,177.245 -44.599,179.403c69.92,2.014 153.795,126.891 173.792,158.254c0,2.446 -1.438,4.892 -2.301,7.194c0,0 -98.262,-163.29 -178.252,-165.592c-79.991,-2.302 -27.479,-99.268 60.568,-197.53Z" style="fill-opacity:0.1;fill-rule:nonzero;"/><path d="M9366.71,8395.26c0,20.573 2.302,37.118 5.179,37.118c2.878,0 5.036,-16.545 5.036,-37.118c0,-20.573 -2.878,-10.79 -5.611,-10.79c-2.734,0 -4.604,-9.639 -4.604,10.79Z" style="fill:#ffd037;fill-rule:nonzero;"/><path d="M9338.22,8419.71c17.984,9.927 33.809,15.826 35.104,13.38c1.295,-2.446 -12.085,-12.517 -30.068,-22.3c-17.984,-9.783 -10.934,-2.733 -12.373,0c-1.439,2.734 -10.646,-0.863 7.337,8.92Z" style="fill:#ffd037;fill-rule:nonzero;"/><path d="M9684.8,8321.02c0,0 44.599,58.266 -20.573,146.17c-65.172,87.903 -118.691,162.282 -96.966,217.096c0,0 98.117,-163.29 178.108,-165.592c79.99,-2.302 27.478,-99.412 -60.569,-197.674Z" style="fill:#3855be;fill-rule:nonzero;"/><path d="M9684.8,8321.02c3.943,5.609 7.045,11.765 9.208,18.271c77.976,91.644 119.554,177.245 44.599,179.403c-69.92,2.014 -153.795,126.891 -173.792,158.254c0.663,2.447 1.48,4.85 2.446,7.194c0.965,2.344 98.117,-163.29 178.108,-165.592c79.99,-2.302 27.478,-99.268 -60.569,-197.53Z" style="fill-opacity:0.1;fill-rule:nonzero;"/><path d="M9767.67,8395.26c0,20.573 -2.302,37.118 -5.179,37.118c-2.878,0 -5.036,-16.545 -5.036,-37.118c0,-20.573 2.878,-10.79 5.611,-10.79c2.734,0 4.604,-9.639 4.604,10.79Z" style="fill:#ffd037;fill-rule:nonzero;"/><path d="M9796.16,8419.71c-17.984,9.927 -33.809,15.826 -35.104,13.38c-1.295,-2.446 12.085,-12.517 30.068,-22.3c17.984,-9.783 10.934,-2.733 12.373,0c1.439,2.734 10.646,-0.863 -7.337,8.92Z" style="fill:#ffd037;fill-rule:nonzero;"/><path d="M9753.43,8676.66c0,0 -124.445,-3.741 -161.995,-30.5c-37.549,-26.76 -191.631,-58.698 -201.414,-15.826c-9.783,42.873 -187.028,213.212 -46.613,214.363c140.414,1.151 326.867,-21.868 364.272,-44.743c37.406,-22.875 45.75,-123.294 45.75,-123.294Z" style="fill:#a8a8a8;fill-rule:nonzero;"/><path d="M9341.39,8829.74c140.559,1.151 326.724,-21.868 364.273,-44.743c28.774,-17.264 39.851,-79.703 43.16,-108.476l4.029,0c0,0 -7.769,100.707 -45.319,123.294c-37.549,22.588 -223.57,45.894 -364.272,44.743c-40.571,0 -54.526,-14.387 -53.807,-36.111c6.187,13.092 21.724,21.149 51.936,21.293Z" style="fill-opacity:0.2;fill-rule:nonzero;"/><circle cx="2451.91" cy="2260.64" r="311.186" style="fill:#3855be;fill-opacity:0.1;"/><circle cx="6902.55" cy="2139.89" r="311.186" style="fill:#3855be;fill-opacity:0.1;"/><circle cx="10751" cy="3112.01" r="311.186" style="fill:#3855be;fill-opacity:0.1;"/><circle cx="1041.79" cy="3705.76" r="521.52" style="fill:#3855be;fill-opacity:0.1;"/><circle cx="1085.9" cy="6915.18" r="521.52" style="fill:#3855be;fill-opacity:0.1;"/><circle cx="9737.4" cy="4893.49" r="521.52" style="fill:#3855be;fill-opacity:0.1;"/><g><path d="M7369.98,7313.91c-23.937,2.288 -48.249,1.144 -71.999,4.957c-39.873,8.09 -77.923,23.671 -112.207,45.947c-170.18,98.758 -330.822,234.501 -401.325,420.577c-5.799,11.436 -7.645,24.54 -5.236,37.177c4.179,10.42 11.026,19.507 19.823,26.31l66.202,61.39c8.368,8.856 18.339,15.977 29.36,20.972c17.862,4.76 36.696,4.164 54.234,-1.716c181.961,-42.515 375.33,-91.513 503.059,-230.307c60.591,-65.775 116.507,-156.334 205.712,-158.813c37.402,0 72.373,14.68 109.214,19.065c36.841,4.385 81.163,-11.629 89.952,-48.235c2.852,-18.203 0.783,-36.859 -5.984,-53.954l-54.981,-186.648c-14.961,-51.094 -165.879,-53.764 -216.185,-44.612c-76.674,13.536 -128.289,80.264 -209.639,87.89Z" style="fill:#65617d;fill-rule:nonzero;"/><path d="M8017.78,8365.35c-2.618,63.869 2.432,128.5 -7.854,191.796c-9.046,49.911 -24.712,98.337 -46.566,143.942c-33.635,73.334 -76.375,141.959 -127.167,204.188c-47.314,57.195 -103.978,110.959 -174.107,133.456c-70.129,22.497 -156.341,6.291 -200.102,-53.955c-35.719,-48.997 -37.402,-114.391 -34.784,-175.59c6.359,-150.424 29.548,-302.945 95.75,-437.545c28.425,-57.196 64.519,-111.722 93.505,-169.489c60.592,-119.92 95.189,-262.146 199.728,-344.889c65.584,30.893 135.722,50.541 207.582,58.149c27.864,3.05 107.531,4.957 116.882,41.371c6.358,24.594 -46.005,93.419 -56.104,117.632c-39.915,91.863 -62.562,190.554 -66.763,290.934Z" style="fill:#65617d;fill-rule:nonzero;"/><path d="M7276.47,5615.78c22.441,58.339 50.866,115.535 56.103,177.687c3.74,38.13 0,76.261 0,114.391c3.148,52.242 11.673,104.002 25.433,154.428l104.165,434.685c15.522,65.012 31.044,131.74 23.003,198.087c-5.424,44.231 -21.133,87.128 -20.946,131.55c1.989,33.684 7.251,67.085 15.709,99.711c19.721,100.787 14.319,205.027 -15.709,303.135c-3.076,7.392 -4.173,15.485 -3.179,23.451c2.618,12.392 14.4,20.018 25.06,25.928c112.142,62.554 234.395,104.077 360.931,122.589c114.207,-276.982 193.994,-567.439 237.503,-864.605c26.556,-179.975 39.46,-362.238 73.496,-540.878c0.776,-10.317 5.079,-20.036 12.155,-27.454c12.717,-10.867 31.979,-4.004 46.94,3.241c191.114,93.691 374.975,202.038 549.999,324.108c124.521,-164.386 171.088,-377.001 126.98,-579.772c-21.982,-86.407 -53.344,-170.048 -93.505,-249.372c-42.788,-96.489 -96.112,-187.752 -158.96,-272.06c-138.762,-177.305 -342.229,-290.553 -551.681,-367.385c-127.355,-46.9 -258.449,-81.599 -389.357,-117.06c-73.308,-20.019 -196.174,-85.221 -267.425,-34.508c-74.805,52.81 -124.55,183.788 -155.219,266.912c-37.859,103.1 -58.468,211.953 -60.966,322.011c-3.08,119.909 17.132,239.264 59.47,351.18Z" style="fill:#3f3d56;fill-rule:nonzero;"/><path d="M8779.85,6139.88c-39.085,43.468 -6.171,112.866 -13.651,171.586c-4.892,26.515 -14.189,51.984 -27.491,75.308l-178.969,358.234c-29.915,53.759 -52.323,111.512 -66.576,171.586c-24.499,129.262 25.807,274.539 -38.524,388.739c-20.759,36.796 -52.924,68.444 -61.527,110.006c-6.358,30.313 0,61.961 -3.179,92.656c-4.301,36.034 -23.189,68.444 -33.662,103.143c-8.169,33.341 -13.981,67.237 -17.392,101.427c-22.682,145.752 -97.612,277.869 -210.2,370.626c-64.512,55.739 -147.423,84.504 -231.894,80.455c-83.406,-7.245 -166.252,-65.012 -183.27,-148.517c-5.798,-28.408 -4.675,-60.056 -22.067,-83.125c-24.686,-32.982 -76.675,-34.317 -100.425,-68.062l92.009,-154.428c28.613,-47.853 57.786,-97.804 62.462,-153.665c5.61,-68.444 -26.743,-136.697 -15.148,-204.379c9.911,-58.148 50.867,-106.574 63.209,-164.151c15.335,-71.494 -15.334,-143.751 -31.978,-215.054c-40.769,-175.591 4.862,-358.616 50.305,-533.825c60.405,-231.832 122.306,-467.287 244.611,-672.237c244.049,134.028 468.462,262.718 723.357,373.677Z" style="fill:#3f3d56;fill-rule:nonzero;"/><path d="M8782.1,2508.35c14.586,40.418 6.732,85.221 3.927,128.118c-6.546,95.326 13.278,190.651 8.789,287.312c-4.488,96.66 -33.662,188.936 -53.859,282.927c-57.412,268.246 -43.573,547.742 -95.562,817.132c-64.145,333.64 -228.153,644.403 -260.506,983c-10.286,107.527 -8.977,222.681 -66.763,313.431c-343.387,-154.095 -667.986,-348.474 -967.22,-579.2c65.828,-497.791 130.907,-998.06 122.118,-1500.24c-4.26,-60.537 -0.105,-121.386 12.343,-180.737c15.601,-49.854 38.014,-97.221 66.575,-140.701c72.374,-119.92 152.04,-235.074 231.52,-350.036c50.867,-73.592 105.848,-150.806 187.011,-185.314c81.162,-34.508 177.286,-19.065 265.742,-2.669c106.472,19.828 212.818,39.656 319.04,59.483c66.389,12.393 198.419,-11.248 226.845,67.491Z" style="fill:#3855be;fill-rule:nonzero;"/><path d="M6221.36,4415.82c-43.627,-44.494 -91.207,-84.766 -142.129,-120.301c66.389,-82.362 53.298,-201.519 69.568,-306.949c13.328,-68.483 33.571,-135.377 60.405,-199.612c6.732,-18.112 16.27,-38.131 34.784,-42.897c11.366,-1.434 22.902,0.416 33.288,5.338c56.103,20.209 173.172,19.065 216.745,56.052c52.55,44.994 4.489,139.175 -15.335,195.418c-14.025,37.749 -229.462,441.549 -257.326,412.951Z" style="fill:#be6f72;fill-rule:nonzero;"/><path d="M6384.24,7976.23c28.167,46.481 46.571,98.419 54.046,152.521c4.488,54.145 -14.961,113.438 -60.217,142.035c-45.257,28.598 -110.15,19.065 -164.009,1.907c-230.931,-76.567 -419.172,-250.08 -517.085,-476.629c-17.018,-40.037 -31.792,-82.552 -61.9,-113.438c-22.365,-20.042 -47.198,-37.026 -73.87,-50.522c-73.495,-42.325 -144.372,-97.995 -178.408,-176.925c-34.036,-78.93 -18.701,-184.36 51.802,-231.26c44.369,-26.133 97.234,-33.007 146.616,-19.066c48.746,14.114 95.416,34.825 138.763,61.581c72.56,40.227 161.203,74.926 224.412,128.499c56.104,47.091 106.41,110.769 154.284,166.248c54.829,63.832 106.208,130.659 153.91,200.184c15.335,20.4 144.56,196.371 131.656,214.865Z" style="fill:#65617d;fill-rule:nonzero;"/><path d="M5013.45,7576.06c-6.36,95.93 -22.977,190.866 -49.558,283.118c-15.148,51.857 -35.158,105.811 -77.236,138.794c-35.592,23.523 -75.927,38.576 -118.003,44.04c-14.678,4.057 -30.012,5.03 -45.07,2.86c-25.808,-5.529 -44.135,-28.216 -60.031,-49.76c-62.461,-84.268 -123.24,-173.302 -149.608,-275.491c-37.402,-148.137 0,-306.949 64.893,-445.362c23.325,-55.798 57.341,-106.292 100.05,-148.518c52.767,-44.208 116.179,-73.239 183.645,-84.077c69.007,-14.109 153.723,-44.231 158.772,41.371c7.386,164.349 4.762,329.007 -7.854,493.025Z" style="fill:#65617d;fill-rule:nonzero;"/><path d="M6048.19,3992.57c129.038,68.063 272.288,154.619 299.218,300.086c16.644,88.844 -15.335,179.784 -10.099,270.153c4.675,79.502 37.402,156.334 33.288,235.646c-4.368,37.477 -10.61,74.702 -18.701,111.531c-11.034,70.35 -4.488,142.035 -7.293,213.148c-6.172,160.147 -58.722,314.194 -84.155,472.244c-18.002,112.853 -22.211,227.548 -12.53,341.457c6.171,73.591 18.701,146.802 18.701,220.774c0.002,53.273 -4.314,106.455 -12.904,159.004c-25.066,165.094 -75.558,325.12 -149.608,474.15c-89.952,180.547 -77.236,413.523 -67.698,615.805c4.166,27.875 0.67,56.389 -10.099,82.361c-23.563,43.659 -82.285,49.951 -130.907,45.757c-180.254,-16.792 -347.577,-103.173 -467.527,-241.365c-17.501,-17.378 -29.38,-39.801 -34.036,-64.25c-4.115,-40.799 28.051,-74.354 51.241,-108.099c78.918,-114.391 58.908,-269.391 68.259,-409.901c6.825,-102.224 30.799,-202.501 70.877,-296.463c23.189,-54.336 52.176,-107.909 57.412,-167.011c4.862,-55.098 -11.595,-109.625 -27.865,-162.244l-56.103,-181.501c-86.96,-281.973 -174.481,-565.663 -306.137,-828.953c-86.348,57.275 -148.209,145.908 -172.985,247.847c-48.996,179.594 20.759,380.159 -46.004,552.89c-11.054,23.949 -20.246,48.747 -27.491,74.163c-3.93,21.939 -5.436,44.257 -4.488,66.538c1.733,185.836 12.844,371.458 33.288,556.13c1.008,27.969 8.713,55.265 22.441,79.502c11.034,16.205 27.117,28.216 38.898,43.659c32.727,43.278 26.556,103.905 18.701,157.86l-37.402,255.091c-0.664,12.933 -4.877,25.42 -12.155,36.034c-8.819,8.707 -19.819,14.775 -31.792,17.539c-118.83,37.619 -244.109,49.312 -367.664,34.318c-36.467,-4.385 -69.568,-29.361 -100.05,-50.332c-3.179,-38.131 43.386,-63.487 45.069,-101.427c-1.806,-22.471 -12.062,-43.384 -28.612,-58.339c-69.568,-80.074 -152.601,-165.105 -151.853,-272.06c0,-28.026 6.545,-56.052 5.61,-84.077c-2.431,-71.876 -51.054,-133.456 -68.072,-202.663c-20.945,-85.603 6.92,-174.446 17.579,-261.955c14.587,-117.823 -2.618,-237.171 -18.701,-354.803l-62.648,-431.635c-7.283,-66.995 -20.299,-133.213 -38.899,-197.896c-23.584,-63.686 -51.259,-125.719 -82.845,-185.695c-59.844,-123.923 -109.028,-252.804 -158.025,-381.303c-15.57,-34.913 -25.364,-72.213 -28.986,-110.387c-2.805,-65.394 30.295,-127.165 71.438,-177.497c77.045,-93.515 182.255,-158.541 299.217,-184.932c19.55,-5.559 40.104,-6.408 60.031,-2.478c16.758,5.669 32.49,14.106 46.565,24.975c292.843,195.265 659.207,239.559 988.727,119.539c18.701,14.489 53.298,8.198 74.804,-2.097c60.03,-28.026 109.027,-74.736 161.764,-114.391c98.181,-75.88 230.585,-147.946 351.206,-174.447Z" style="fill:#3f3d56;fill-rule:nonzero;"/><path d="M2172.01,8888.69c9.929,29.209 24.874,56.388 44.135,80.264c67.698,89.988 162.138,161.863 205.712,266.912c9.163,22.497 15.896,46.138 24.311,69.016c25.592,69.046 67.321,130.698 121.557,179.594c41.373,35.012 86.329,65.374 134.087,90.56c82.659,45.947 172.05,87.509 265.929,85.03c18.876,-0.413 37.667,-2.712 56.104,-6.863c29.22,-6.176 57.388,-16.712 83.593,-31.267c60.405,-33.936 112.207,-100.283 100.238,-169.489c-2.415,-13.193 -6.501,-26.011 -12.155,-38.131c-9.919,-19.284 -21.365,-37.711 -34.223,-55.098c-31.605,-44.612 -64.145,-90.369 -110.337,-118.967c-51.989,-32.41 -117.443,-40.418 -164.195,-80.455c-18.447,-17.019 -34.384,-36.669 -47.314,-58.339c-42.374,-66.399 -73.95,-139.343 -93.505,-216.008c-14.213,-57.196 -23.751,-119.92 -64.706,-161.863c-40.956,-41.944 -97.246,-51.476 -151.853,-61.009c-18.454,-3.88 -37.262,-5.733 -56.103,-5.529c-26.743,0.954 -54.42,8.77 -79.48,-4.003c-25.059,-12.774 -33.475,-30.886 -63.771,-28.407c-24.112,3.314 -46.846,13.417 -65.64,29.169c-71.064,53.573 -118.191,148.899 -92.384,234.883Z" style="fill:#3f3d56;fill-rule:nonzero;"/><path d="M2836.46,8975.44c12.155,64.631 30.857,133.456 79.853,175.59c31.231,27.454 74.805,44.613 90.327,83.315c15.521,38.702 -4.489,87.319 -30.296,122.78c-32.951,44.839 -73.791,83.047 -120.435,112.675c-39.646,24.975 -86.96,44.04 -132.404,32.983c-37.402,-8.961 -66.95,-36.415 -94.814,-62.915c-63.958,-60.437 -129.412,-123.161 -165.318,-204.188c-37.402,-85.412 -39.272,-184.36 -80.04,-268.438c-23.751,-48.997 -60.405,-91.894 -74.805,-144.514c-6.454,-19.016 -6.454,-39.703 0,-58.72c14.2,-27.714 42.643,-44.949 73.308,-44.422c30.111,1.025 59.807,7.48 87.709,19.065c84.428,30.682 170.849,55.336 258.635,73.782c34.972,6.673 56.104,6.482 74.805,40.99c17.277,38.664 28.569,79.826 33.475,122.017Z" style="fill:#fbbebe;fill-rule:nonzero;"/><path d="M3053.39,9521.85c-13.863,21.619 -23.691,45.664 -28.986,70.922c-4.414,19.64 -5.112,39.958 -2.057,59.865c29.22,-6.176 57.388,-16.712 83.593,-31.267c60.405,-33.936 112.207,-100.283 100.238,-169.489c-2.415,-13.193 -6.502,-26.011 -12.156,-38.131c-18.14,-4.143 -37.134,1.899 -49.744,15.824c-34.824,25.747 -65.49,56.881 -90.888,92.276Z" style="fill:#fbbebe;fill-rule:nonzero;"/><path d="M2383.15,8073.28c-8.136,17.85 -10.557,37.866 -6.92,57.196c8.603,38.13 46.94,60.055 81.537,77.404l328.952,163.961c22.82,10.763 45.045,22.792 66.576,36.033c56.103,35.08 100.238,84.649 148.112,130.024c47.875,45.375 101.173,87.89 164.57,103.905c63.273,14.135 129.444,5.298 187.011,-24.975c31.029,-15.759 59.838,-35.703 85.651,-59.293c22.344,-19.983 42.989,-41.859 61.713,-65.393c16.083,-17.312 27.601,-38.501 33.475,-61.581c6.171,-34.889 -10.847,-69.206 -30.67,-97.995c-11.414,-16.596 -23.91,-32.392 -37.402,-47.281c-124.736,-140.51 -329.139,-213.339 -504.929,-241.937c-69.942,-11.439 -136.331,-38.13 -203.655,-59.865c-67.324,-21.734 -138.575,-38.13 -208.517,-28.025c-69.942,10.104 -138.762,51.094 -165.504,117.822Z" style="fill:#3f3d56;fill-rule:nonzero;"/><path d="M2383.15,8073.28c-8.136,17.85 -10.557,37.866 -6.92,57.196c8.603,38.13 46.94,60.055 81.537,77.404l328.952,163.961c22.82,10.763 45.045,22.792 66.576,36.033c56.103,35.08 100.238,84.649 148.112,130.024c47.875,45.375 101.173,87.89 164.57,103.905c63.273,14.135 129.444,5.298 187.011,-24.975c31.029,-15.759 59.838,-35.703 85.651,-59.293c22.344,-19.983 42.989,-41.859 61.713,-65.393c16.083,-17.312 27.601,-38.501 33.475,-61.581c6.171,-34.889 -10.847,-69.206 -30.67,-97.995c-11.414,-16.596 -23.91,-32.392 -37.402,-47.281c-124.736,-140.51 -329.139,-213.339 -504.929,-241.937c-69.942,-11.439 -136.331,-38.13 -203.655,-59.865c-67.324,-21.734 -138.575,-38.13 -208.517,-28.025c-69.942,10.104 -138.762,51.094 -165.504,117.822Z" style="fill-opacity:0.1;fill-rule:nonzero;"/><path d="M3206.37,8177.94c25.291,28.96 46.102,61.684 61.714,97.042c14.041,23.153 19.05,50.86 14.026,77.595c-7.353,18 -19.143,33.763 -34.223,45.756l-32.727,30.886c-9.885,10.474 -21.382,19.233 -34.036,25.928c-17.902,6.844 -37.02,9.768 -56.104,8.58c-43.947,0 -91.261,0 -126.98,-26.882c-48.81,-35.843 -57.599,-110.006 -35.345,-167.011c22.254,-57.005 68.82,-100.092 115.76,-138.604c38.15,-31.457 101.173,17.922 127.915,46.71Z" style="fill:#fbbebe;fill-rule:nonzero;"/><path d="M3406.1,8375.08c-6.053,31.63 -3.133,64.373 8.415,94.372c8.229,28.598 16.27,57.196 24.312,86.365l0,1.144c22.344,-19.983 42.989,-41.859 61.713,-65.393c16.083,-17.312 27.601,-38.501 33.475,-61.581c6.171,-34.889 -10.847,-69.206 -30.67,-97.995c-11.414,-16.596 -23.91,-32.392 -37.402,-47.281c-8.789,11.63 -16.457,23.069 -22.815,30.504c-16.364,17.054 -28.986,37.461 -37.028,59.865Z" style="fill:#fbbebe;fill-rule:nonzero;"/><path d="M2546.78,6954.15c-38.711,165.866 -22.254,339.359 -1.683,508.658c15.709,128.88 33.288,262.337 -4.114,386.451c-13.839,46.328 -35.719,93.419 -27.304,141.272c15.896,90.179 122.492,124.877 210.761,141.845c25.465,6.602 51.928,8.219 77.984,4.767c26.138,-7.257 50.398,-20.274 71.064,-38.131c125.453,-92.974 220.765,-222.155 273.597,-370.817c33.475,-99.52 44.134,-205.332 54.42,-309.999c17.205,-176.163 34.597,-354.422 9.35,-529.44c-7.48,-51.476 -18.701,-102.38 -23.376,-154.237c-5.886,-90.194 -0.988,-180.784 14.587,-269.772c32.202,-220.449 80.968,-438.051 145.868,-650.884c-178.052,24.101 -359.116,-9.242 -517.646,-95.326c30.67,16.777 -4.488,284.261 -8.228,321.82c-11.347,111.97 -31.167,222.878 -59.283,331.733c-52.176,203.426 -168.683,379.969 -215.997,582.06Z" style="fill:#3f3d56;fill-rule:nonzero;"/><path d="M2546.78,6954.15c-38.711,165.866 -22.254,339.359 -1.683,508.658c15.709,128.88 33.288,262.337 -4.114,386.451c-13.839,46.328 -35.719,93.419 -27.304,141.272c15.896,90.179 122.492,124.877 210.761,141.845c25.465,6.602 51.928,8.219 77.984,4.767c26.138,-7.257 50.398,-20.274 71.064,-38.131c125.453,-92.974 220.765,-222.155 273.597,-370.817c33.475,-99.52 44.134,-205.332 54.42,-309.999c17.205,-176.163 34.597,-354.422 9.35,-529.44c-7.48,-51.476 -18.701,-102.38 -23.376,-154.237c-5.886,-90.194 -0.988,-180.784 14.587,-269.772c32.202,-220.449 80.968,-438.051 145.868,-650.884c-178.052,24.101 -359.116,-9.242 -517.646,-95.326c30.67,16.777 -4.488,284.261 -8.228,321.82c-11.347,111.97 -31.167,222.878 -59.283,331.733c-52.176,203.426 -168.683,379.969 -215.997,582.06Z" style="fill-opacity:0.1;fill-rule:nonzero;"/><path d="M3517.74,5982.21c74.804,220.965 58.348,462.33 25.995,693.781c-32.353,231.451 -80.041,462.902 -66.015,696.069c5.423,91.513 20.01,185.504 -6.172,273.013c-14.55,42.694 -33.811,83.565 -57.412,121.826l-596.751,1052.02c-30.879,55.409 -87.223,91.31 -149.609,95.326c-63.771,4.576 -126.419,-16.777 -185.889,-40.609c-39.514,-13.35 -76.238,-34.106 -108.279,-61.199c-32.211,-27.351 -49.282,-69.148 -45.631,-111.721c26.743,-182.645 66.95,-369.674 96.685,-552.89c20.223,-124.311 64.331,-243.336 129.785,-350.227c46.192,-76.261 103.043,-144.704 142.877,-224.015c114.45,-227.257 74.804,-504.464 -13.465,-743.542c-88.269,-239.077 -219.738,-460.995 -289.867,-705.41c-20.79,-68.013 -32.675,-138.53 -35.345,-209.717c-1.745,-148.412 54.541,-291.592 156.341,-397.699c14.715,-16.989 33.265,-30.077 54.046,-38.13c24.293,-5.746 49.605,-5.287 73.683,1.334c332.318,65.775 765.248,175.4 875.023,501.795Z" style="fill:#3f3d56;fill-rule:nonzero;"/><path d="M8881.77,2683.37c10.847,83.506 -18.701,167.964 -60.778,240.221c-159.146,270.725 -526.062,390.455 -809.757,264.434c-116.882,-52.048 -215.81,-137.841 -312.682,-222.49c-32.54,-28.598 -66.389,-58.531 -82.846,-98.949c-28.987,-71.494 5.984,-156.715 63.023,-207.81c57.038,-51.094 130.907,-76.26 204.403,-98.948c242.553,-77.023 940.851,-319.913 998.637,123.542Z" style="fill:#fbbebe;fill-rule:nonzero;"/><path d="M8739.83,2418.36c220.86,181.119 542.332,353.658 792.552,487.877c85.09,45.756 179.53,97.232 210.2,190.651c16.457,49.951 11.034,104.287 5.61,156.907c-10.472,101.236 -21.319,203.997 -59.656,297.988c-45.07,110.006 -124.736,200.756 -188.694,300.658c-112.206,175.018 -178.034,381.303 -316.609,535.921c93.505,316.672 195.8,632.963 229.088,961.646c1.839,9.039 0.858,18.441 -2.805,26.882c-3.827,5.551 -8.808,10.173 -14.587,13.537l-232.641,155.571c-25.367,15.091 -48.064,34.427 -67.137,57.196c-41.143,54.526 -35.719,131.168 -61.153,194.655c-28.162,62.59 -80.205,110.823 -143.998,133.456c-63.57,22.334 -131.298,29.636 -198.045,21.353c-84.965,-5.454 -166.804,-34.827 -236.381,-84.84c-59.283,-45.756 -101.547,-110.006 -142.316,-173.302c-30.205,-43.171 -55.313,-89.821 -74.804,-138.985c-24.872,-70.16 -26.368,-146.611 -25.433,-221.347c0.617,-142.213 13.95,-284.073 39.833,-423.818c10.847,-55.48 24.311,-110.197 32.914,-166.058c17.205,-112.484 13.839,-227.256 26.555,-340.313c17.375,-127.161 45.213,-252.608 83.22,-375.011c20.797,-75.816 37.035,-152.855 48.623,-230.689c21.88,-136.887 65.454,-269.009 109.027,-400.368l74.805,-225.159c15.896,-48.616 31.979,-97.042 50.867,-144.514c35.158,-88.653 80.414,-175.018 92.383,-269.581c13.278,-103.143 -95.937,-225.541 -59.095,-322.392c2.992,-10.677 19.262,-24.785 27.677,-17.921Z" style="fill:#3f3d56;fill-rule:nonzero;"/><path d="M9682.74,3043.7c51.802,23.831 80.414,80.645 98.928,135.553c41.732,123.737 51.775,256.314 29.174,385.116c-7.306,32.382 -12.306,65.259 -14.961,98.376c0.388,38.386 4.08,76.663 11.034,114.391c18.701,145.849 0,293.985 6.171,441.168c6.359,165.485 41.704,340.313 -26.368,490.737c-45.257,99.901 -130.908,174.255 -215.437,241.746c-314.699,250.043 -661.93,454.34 -1031.74,607.035c63.77,-78.167 64.892,-195.799 22.441,-287.884c-42.452,-92.085 -121.37,-161.291 -205.712,-215.055c107.353,-24.324 211.32,-62.174 309.503,-112.675c195.987,-101.427 363.923,-249.944 529.802,-396.937c24.467,-17.934 43.518,-42.509 54.981,-70.922c16.831,-57.196 -29.548,-111.531 -61.714,-161.673c-97.433,-152.521 -74.804,-351.752 -34.036,-528.295c45.444,-193.511 112.207,-386.26 233.951,-541.832c75.926,-97.232 175.042,-171.967 293.981,-198.849Z" style="fill:#3f3d56;fill-rule:nonzero;"/><path d="M8523.09,5562.59c-16.809,27.931 -38.635,52.381 -64.332,72.066c-56.103,38.131 -133.152,23.641 -195.8,-3.431c-58.221,-25.175 -111.939,-60.03 -158.96,-103.143c-20.214,-21.91 -44.086,-39.986 -70.503,-53.382c-48.997,-19.066 -117.442,-4.767 -144.933,-50.714c-3.198,-4.824 -4.774,-10.58 -4.488,-16.396c1.683,-16.586 23.002,-21.162 39.459,-22.115c76.345,-5.146 150.456,-28.459 216.371,-68.063c-21.055,-15.512 -39.07,-34.913 -53.111,-57.195c-5.822,-7.776 -8.977,-17.291 -8.976,-27.073c2.284,-10.63 8.018,-20.17 16.27,-27.072c122.699,-118.05 304.181,-148.886 457.802,-77.786c14.691,6.059 27.583,15.917 37.402,28.597c6.922,11.693 11.558,24.642 13.652,38.131c12.156,53.382 56.103,133.456 40.208,187.41c-17.579,61.962 -83.968,127.737 -120.061,180.166Z" style="fill:#fbbebe;fill-rule:nonzero;"/><path d="M7247.86,5322.17c232.641,-273.966 336.619,-634.488 433.117,-983.19l69.007,-247.847l166.44,-596.93c24.498,-88.081 48.996,-176.162 65.266,-265.959c27.865,-154.999 30.483,-313.431 28.8,-470.909c-2.376,-65.281 -17.043,-129.491 -43.2,-189.126c-16.269,-41.181 -24.124,-85.031 -37.402,-127.546c-16.893,-59.273 -42.155,-115.725 -74.991,-167.583c-9.141,-15.417 -20.559,-29.307 -33.849,-41.181c-23.013,-15.944 -49.084,-26.732 -76.487,-31.648c-59.453,-18.021 -121.064,-27.581 -183.084,-28.407c-62.088,2.288 -126.045,24.213 -166.066,72.257c-30.482,36.796 -44.508,84.459 -68.633,125.83c-11.229,16.939 -21.41,34.577 -30.482,52.811c-10.282,27.699 -15.97,56.952 -16.831,86.555c-9.725,120.111 -18.016,240.348 -24.873,360.713c-3.179,54.717 -5.984,109.815 -3.927,164.723c1.683,42.706 6.171,85.221 10.66,127.737l44.321,416.383c10.286,97.804 2.992,189.317 11.595,287.311c20.945,236.599 -28.987,473.198 -80.228,705.411c-24.498,110.387 -49.745,222.3 -102.108,322.201c-46.191,88.463 -115.385,178.26 -97.058,276.826c6.358,34.318 23.376,66.347 25.994,101.046c-1.28,21.488 0.803,43.047 6.172,63.868c15.617,28.975 48.02,44.448 79.853,38.13c37.025,-6.627 71.211,-24.585 97.994,-51.476Z" style="fill:#3f3d56;fill-rule:nonzero;"/><path d="M7276.29,4225.74c7.106,54.717 1.683,110.197 4.301,165.295c5.869,70.963 18.393,141.19 37.402,209.717c18.701,76.26 42.638,161.672 108.653,203.997c16.557,8.77 32.382,18.908 47.314,30.314c15.025,12.08 21.157,32.511 15.335,51.094l-51.428,-8.77c12.903,10.057 20.487,25.7 20.487,42.258c0,29.18 -23.553,53.191 -52.176,53.191c-15.498,0 -30.216,-7.039 -40.123,-19.188c1.95,17.177 0.357,34.581 -4.676,51.095c-5.322,16.558 -20.319,28.025 -37.402,28.597c-9.694,-1.535 -18.876,-5.462 -26.742,-11.439l-134.274,-84.84c-40.229,-22.078 -73.696,-55.074 -96.685,-95.326l-58.721,-90.178c-12.944,-17.381 -23.222,-36.666 -30.483,-57.195c-21.88,-76.261 39.272,-160.91 7.481,-232.786c-9.55,-17.713 -20.76,-34.442 -33.475,-49.95c-67.885,-95.326 -63.584,-224.969 -56.104,-343.173c2.432,-39.846 9.538,-87.128 44.883,-104.477c28.052,-13.918 61.714,-1.526 87.708,15.824c25.995,17.349 48.997,40.227 78.545,50.522c18.701,6.483 39.272,7.245 57.973,14.109c26.182,9.342 50.493,45.756 68.072,67.3c24.854,33.058 40.145,72.557 44.135,114.009Z" style="fill:#fbbebe;fill-rule:nonzero;"/><path d="M5637.51,2512.35c-15.883,37.171 -38.18,71.138 -65.828,100.282c-28.152,29.511 -68.456,43.68 -108.466,38.131c-41.517,-8.389 -71.999,-43.278 -99.49,-76.261c-71.812,-85.984 -144.559,-173.111 -192.808,-274.919c-73.682,-155 -85.464,-331.925 -96.124,-503.702c-2.618,-44.231 -4.862,-91.131 15.896,-129.833c26.369,-49.379 82.285,-72.639 133.9,-92.276l285.191,-108.671c17.478,-8.439 36.826,-12.055 56.104,-10.486c44.695,7.626 61.152,62.534 73.308,106.955c21.756,79.825 57.906,154.825 106.596,221.156c63.958,86.937 207.395,203.997 125.484,312.478c-98.928,130.025 -161.764,270.344 -233.763,417.146Z" style="fill:#be6f72;fill-rule:nonzero;"/><path d="M6002.37,2016.28c124.923,119.73 167.188,306.187 161.203,480.633c-5.984,174.446 -53.485,344.507 -80.601,516.856c-27.117,172.349 -32.54,356.328 40.955,514.76c25.246,54.335 59.656,104.667 77.235,162.053c14.739,56.718 19.738,115.61 14.774,174.065c-0.303,61.623 -11.845,122.654 -34.036,179.975c-39.833,89.988 -121.744,152.522 -200.101,209.717c-159.895,117.823 -322.968,237.552 -510.727,299.132c-127.167,41.753 -261.815,55.48 -394.967,62.915c-90.152,7.325 -180.817,4.704 -270.417,-7.816c-156.709,-26.625 -300.79,-104.384 -410.489,-221.538c-19.117,-18.886 -34.873,-41.013 -46.566,-65.393c-11.424,-31.726 -16.942,-65.349 -16.27,-99.139c-4.488,-125.194 -3.74,-250.389 2.244,-375.583c3.434,-119.311 19.549,-237.891 48.062,-353.659c35.719,-133.456 97.62,-258.524 144.56,-388.548c163.447,-452.035 146.99,-966.413 374.021,-1388.52c48.997,-91.132 130.908,-187.029 231.894,-172.54c19.42,1.191 37.713,9.767 51.241,24.022c11.602,17.351 18.093,37.731 18.701,58.721c24.124,205.141 58.347,415.62 153.161,600.743c37.403,72.638 93.506,183.216 179.718,202.663c86.212,19.446 137.079,-64.441 183.27,-123.924c81.168,-109.079 176.407,-206.493 283.135,-289.6Z" style="fill:#e3e8f4;fill-rule:nonzero;"/><path d="M6600.24,1707.61c25.479,14.039 49.265,31.059 70.878,50.713c56.103,54.145 76.674,137.078 76.3,215.627c-0.374,78.548 -18.701,155.953 -29.922,233.739c-30.109,209.716 -4.488,424.39 7.481,636.776c3.647,34.29 1.624,68.963 -5.985,102.57c-9.163,32.03 -28.051,60.246 -40.207,91.322c-35.719,91.894 -8.79,196.753 -29.735,293.222c-22.441,102.762 -99.302,196.181 -84.903,300.467c5.798,40.8 25.06,78.358 33.288,118.776c8.229,40.418 1.122,89.225 -33.101,110.959c-34.223,21.735 -83.968,5.911 -124.736,17.922c-16.562,6.233 -32.683,13.622 -48.249,22.115c-63.022,28.979 -138.201,19.065 -200.288,-12.583c-60.851,-33.858 -115.565,-78.095 -161.765,-130.787c-71.251,-74.354 -140.258,-155.762 -171.489,-254.71c-45.63,-143.37 -5.049,-299.514 44.509,-441.74c49.558,-142.226 108.653,-285.977 99.864,-437.164c-4.862,-84.649 -31.044,-166.057 -46.753,-249.181c-19.445,-115.17 -26.406,-232.171 -20.758,-348.893c2.431,-85.412 8.041,-173.493 44.134,-250.707c52.231,-104.554 153.289,-175.061 267.8,-186.838c130.908,-14.49 243.114,53.573 353.637,118.395Z" style="fill:#3f3d56;fill-rule:nonzero;"/><path d="M6246.6,3550.45c1.315,61.005 12.044,121.42 31.792,179.022c33.475,-77.786 37.402,-165.104 41.89,-249.753c18.701,-291.506 82.098,-566.426 149.609,-848.781c-49.184,38.13 -76.862,133.456 -100.425,190.652c-93.511,230.635 -135.485,479.631 -122.866,728.86Z" style="fill-opacity:0.1;fill-rule:nonzero;"/><path d="M4985.96,1519.25c-90.139,24.213 -168.31,78.739 -255.644,114.391c-90.7,38.13 -188.32,54.335 -283.508,77.786c-220.299,54.526 -441.533,155.762 -574.497,343.172c-97.994,137.841 -138.575,308.093 -205.712,464.237c-56.103,130.978 -130.908,253.757 -172.237,390.073c-54.046,177.878 -47.875,368.529 -34.597,554.224c10.846,152.521 27.303,306.758 95.188,441.93c35.532,70.923 84.529,134.41 120.061,205.332c42.639,85.221 65.08,179.213 100.612,266.912c35.532,87.7 87.708,175.4 170.18,221.156l136.518,-81.408c203.655,-121.445 407.309,-243.081 604.606,-375.012c172.05,-114.391 345.596,-245.75 437.231,-433.732c81.163,-166.058 89.204,-360.141 68.259,-544.501c-20.945,-184.36 -68.82,-364.716 -93.505,-548.504c-31.447,-231.318 -26.713,-466.263 14.025,-696.069c18.701,-103.715 68.446,-210.861 78.732,-314.194c11.408,-110.387 -127.728,-106.765 -205.712,-85.793Z" style="fill:#3f3d56;fill-rule:nonzero;"/><path d="M4141.98,4550.03c104.539,100.854 254.896,130.215 385.617,190.651c97.122,45.973 184.579,110.723 257.513,190.652c40.208,44.993 79.106,106.193 58.909,163.388c-17.018,49.188 -69.194,74.354 -117.069,92.657c-59.469,22.878 -125.858,43.087 -185.141,20.018c-34.784,-13.536 -62.835,-40.609 -94.814,-59.864c-78.358,-47.473 -177.099,-47.663 -257.514,-91.513c-113.329,-61.771 -169.806,-197.706 -276.402,-271.107c-58.347,-40.037 -138.949,-72.829 -144.933,-144.323c-0.275,-25.853 5.091,-51.447 15.709,-74.926c21.506,-58.339 58.16,-258.714 140.071,-253.376c89.204,5.91 151.665,189.508 218.054,237.743Z" style="fill:#fbbebe;fill-rule:nonzero;"/><path d="M3594.23,3656.45c34.223,125.448 113.702,232.404 196.174,331.924c59.282,71.494 124.362,149.28 126.419,242.89c1.87,88.462 -56.103,169.871 -130.907,215.055c-74.805,45.185 -162.887,59.674 -249.473,65.394c-69.266,6.798 -139.16,1.837 -206.834,-14.681c-170.928,-47.281 -289.492,-199.23 -423.953,-316.672c-79.854,-69.588 -169.619,-130.215 -230.772,-217.343c-61.152,-87.127 -86.96,-212.195 -26.742,-300.085c21.73,-28.49 46.858,-54.108 74.804,-76.261c102.126,-90.273 189.221,-196.834 257.888,-315.528c27.678,-47.854 54.233,-99.711 100.799,-128.499c66.763,-41.372 152.414,-22.497 227.966,-2.288c82.098,21.925 313.43,64.822 329.513,171.586c6.546,43.85 -46.753,112.103 -54.794,159.194c-10.235,61.753 -6.848,125.062 9.912,185.314Z" style="fill:#fbbebe;fill-rule:nonzero;"/><path d="M4017.06,3895.53c24.499,45.264 44.665,92.829 60.218,142.035c57.038,202.091 -44.883,410.282 -93.506,614.661c-62.087,261.764 -35.719,535.54 -38.711,804.931c-1.309,123.161 -14.213,258.714 -101.173,344.126c-22.441,21.734 -49.371,40.037 -64.519,67.49c-9.362,20.117 -16.331,41.303 -20.758,63.106c-39.175,138.983 -164.785,235.423 -306.631,235.423c-54.495,0 -108.091,-14.234 -155.66,-41.34c-70.877,-40.227 -132.403,-110.006 -213.566,-112.103c-25.52,1.256 -50.94,4.122 -76.113,8.579c-80.789,8.199 -159.895,-22.306 -235.634,-52.238c-18.077,-5.82 -34.943,-14.999 -49.745,-27.073c-13.652,-12.773 -22.441,-29.932 -34.971,-43.659c-46.192,-50.713 -125.11,-41.943 -191.686,-56.051c-101.228,-23.094 -180.628,-104.039 -203.281,-207.239c-13.465,-65.584 -2.057,-133.456 9.164,-199.612l50.119,-294.747c21.032,-108.113 35.583,-217.432 43.573,-327.349c6.144,-124.215 -4.299,-248.707 -31.044,-370.054c-22.067,-99.139 -54.981,-196.181 -66.949,-297.226c-20.849,-181.036 25.907,-363.6 130.907,-511.137c25.995,-36.414 60.031,-72.829 104.165,-76.261c35.719,-3.241 69.194,16.206 100.238,34.89c269.67,162.689 541.209,322.01 814.619,477.963c74.804,42.897 151.292,85.984 234.699,107.146c25.059,6.482 60.965,3.813 64.518,-22.115c0.446,-9.882 -2.101,-19.669 -7.293,-28.026c-46.753,-91.704 -114.451,-170.443 -168.31,-257.761c-53.859,-87.318 -95.375,-190.652 -79.479,-292.078c21.693,-140.32 149.608,-233.167 254.147,-123.161c117.256,124.877 195.801,285.405 272.662,438.88Z" style="fill:#f86d70;fill-rule:nonzero;"/><path d="M3179.63,5674.88c219.363,14.299 443.589,29.551 646.683,115.344c65.267,27.454 134.461,62.915 203.094,45.947c34.16,-10.598 65.936,-27.962 93.505,-51.095c84.554,-63.205 164.436,-132.662 239,-207.81c-7.48,-41.753 -63.023,-47.472 -104.539,-47.091c-101.225,0.615 -201.096,-23.857 -290.989,-71.303c-29.55,-18.118 -60.891,-33.008 -93.505,-44.422c-88.83,-24.976 -179.344,22.687 -268.548,45.947c-132.029,34.317 -271.166,14.299 -406,-5.91l-363.923,-54.717c-33.849,-4.957 -72,-8.961 -98.929,12.392c-17.999,17.338 -30.341,39.906 -35.345,64.631c-44.509,152.521 -23.189,165.295 124.923,174.827l354.573,23.26Z" style="fill:#fbbebe;fill-rule:nonzero;"/><ellipse cx="8148.88" cy="2417.79" rx="598.435" ry="610.085" style="fill-opacity:0.1;"/><ellipse cx="8144.58" cy="2391.29" rx="598.435" ry="610.085" style="fill:#fbbebe;"/><path d="M8649.69,1616.67c47.875,30.123 97.994,62.533 124.175,113.247c14.079,34.429 24.79,70.191 31.979,106.765c32.727,114.391 119.874,213.72 125.11,332.877c5.798,130.597 -90.326,244.034 -199.166,312.478c-24.838,18.664 -54.798,28.934 -85.651,29.361c-31.605,-2.098 -58.909,-22.307 -87.895,-35.271c-122.866,-55.67 -260.319,14.871 -390.479,47.282c-135.241,33.296 -277.193,24.799 -407.683,-24.404c-70.13,-26.691 -138.201,-66.728 -182.149,-128.69c-43.948,-61.961 -59.656,-148.708 -22.254,-215.245c18.701,-33.936 49.745,-64.631 47.687,-103.333c-1.122,-23.26 -14.586,-44.232 -18.701,-67.11c-5.984,-36.414 12.717,-71.875 31.792,-102.952c86.55,-141.987 195.922,-268.119 323.529,-373.105c37.402,-31.267 80.602,-61.771 129.598,-64.059c98.368,-4.385 182.897,70.351 284.07,70.732c114.824,0.381 197.296,39.274 296.038,101.427Z" style="fill:#3f3d56;fill-rule:nonzero;"/><ellipse cx="5941.59" cy="1633.26" rx="617.136" ry="629.15" style="fill-opacity:0.1;"/><ellipse cx="5952.44" cy="1617.81" rx="617.136" ry="629.15" style="fill:#be6f72;"/><path d="M6282.14,1973.19c87.147,49.76 194.678,44.613 291.924,21.925c55.15,-10.566 107.444,-33.061 153.349,-65.965c46.164,-33.63 74.672,-87.111 77.235,-144.896c0,-63.868 -41.142,-121.445 -46.191,-185.313c-6.172,-80.455 45.256,-154.809 50.68,-235.645c5.423,-80.836 -33.662,-153.665 -71.813,-223.062c-65.64,-119.158 -133.899,-239.84 -233.763,-330.972c-99.864,-91.131 -238.252,-149.28 -369.16,-118.585c-64.331,15.062 -123.988,50.332 -189.628,57.196c-58.348,5.529 -115.947,-12.393 -174.108,-20.019c-58.16,-7.626 -123.427,-2.86 -165.13,38.131c-22.815,22.878 -37.402,55.098 -64.145,71.875c-18.134,8.527 -36.892,15.603 -56.103,21.163c-67.511,27.644 -98.368,105.239 -122.305,175.018l-160.455,468.812c53.672,38.13 118.377,55.479 177.099,84.84c58.721,29.36 115.76,76.26 127.728,141.844c9.164,49.761 -8.228,106.956 20.197,148.518c25.995,38.13 78.919,44.613 123.802,38.13c44.882,-6.482 89.952,-22.306 134.834,-15.252c112.207,17.35 153.91,87.509 257.701,0c103.791,-87.509 141.754,16.968 238.252,72.257Z" style="fill:#3f3d56;fill-rule:nonzero;"/><ellipse cx="3329.8" cy="3036.64" rx="561.032" ry="571.955" style="fill-opacity:0.1;"/><ellipse cx="3351.49" cy="3005.57" rx="561.032" ry="571.955" style="fill:#fbbebe;"/><path d="M3781.05,2446.39c-133.569,-104.47 -283.652,-184.938 -443.776,-237.933c-102.482,-33.936 -213.941,-57.195 -317.919,-25.928c-141.006,40.99 -329.7,102.189 -417.034,222.49c-43.012,59.102 -86.586,119.92 -107.344,190.651c-41.516,142.227 17.579,293.795 13.652,442.121c-4.675,172.921 -94.628,330.781 -192.808,471.863c-98.181,141.082 -118.004,343.173 -175.978,505.989c-19.823,55.861 -26.181,133.456 24.873,161.482c44.883,25.357 99.116,-6.291 140.632,-36.796l249.659,-183.978c19.405,-16.262 41.78,-28.445 65.828,-35.843c51.428,-12.202 101.734,20.59 144.747,51.667l523.63,377.49c20.942,-43.583 21.834,-94.477 2.431,-138.795c49.184,15.443 84.903,57.196 128.102,86.938c43.2,29.741 108.841,39.464 140.259,-2.098c31.417,-41.562 7.667,-97.423 -27.304,-130.977c-34.971,-33.555 -80.976,-53.573 -115.199,-88.081c-67.885,-68.825 -74.804,-177.497 -117.629,-264.434c-30.67,-61.008 -80.228,-112.103 -101.921,-177.115c-35.345,-106.193 10.846,-220.584 56.103,-322.773c54.046,-121.255 115.199,-250.707 230.21,-314.003c38.711,-21.353 81.537,-33.936 121.183,-53.383c98.742,-48.235 221.982,-162.054 270.231,-264.052c42.264,-90.56 -22.815,-178.069 -94.628,-234.502Z" style="fill:#3f3d56;fill-rule:nonzero;"/><path d="M2931.84,4336.51c53.672,34.889 114.264,57.195 167.001,93.61c52.737,36.414 98.929,91.703 100.425,156.525c1.496,61.961 -37.402,116.297 -74.805,165.485l-455.558,609.513l232.268,62.725c-37.403,52.619 -46.94,119.729 -66.389,181.5c-19.449,61.771 -56.104,126.021 -118.191,142.226c-56.103,14.68 -114.825,-15.443 -172.798,-12.011c-42.826,2.669 -83.22,23.259 -126.045,24.975c-55.169,2.097 -106.41,-27.454 -152.414,-58.72c-102.482,-69.97 -204.216,-170.252 -203.468,-296.082c2.428,-42.557 10.803,-84.543 24.872,-124.686c67.137,-223.253 136.705,-451.845 275.841,-637.539c74.805,-99.139 166.253,-182.835 257.701,-265.959c20.793,-21.342 45.264,-38.598 72.186,-50.904c59.844,-22.878 125.111,5.338 187.011,23.641c61.901,18.302 139.884,20.971 175.603,-32.983" style="fill-opacity:0.1;fill-rule:nonzero;"/><path d="M2912.2,4298.95c53.672,34.699 114.264,57.196 167.001,93.61c52.737,36.415 98.929,91.704 100.612,156.335c1.683,64.631 -37.403,116.488 -74.805,165.676l-455.745,608.941l232.267,62.724c-37.402,52.62 -46.939,119.539 -66.388,181.501c-19.45,61.961 -56.104,126.02 -118.191,142.226c-56.104,14.68 -114.825,-15.443 -172.798,-12.011c-42.826,2.478 -83.22,23.259 -126.046,24.784c-55.168,2.097 -106.409,-27.454 -152.413,-58.72c-102.482,-69.779 -204.216,-170.252 -203.281,-295.892c2.24,-42.564 10.556,-84.568 24.685,-124.686c67.137,-223.443 136.705,-452.035 275.841,-637.539c74.805,-99.329 166.44,-183.025 257.701,-266.912c20.891,-21.221 45.339,-38.461 72.186,-50.904c59.844,-22.878 125.111,5.339 187.011,23.832c61.901,18.493 139.884,20.971 175.603,-32.983" style="fill:#f86d70;fill-rule:nonzero;"/><path d="M5406.74,971.886l-160.455,468.622c53.672,38.13 118.378,55.67 177.099,84.84c58.722,29.169 115.76,76.26 127.729,141.844c9.163,49.76 -8.229,106.956 20.197,148.709c25.994,38.13 78.918,44.421 123.801,38.13c44.883,-6.292 89.952,-22.306 134.835,-15.252c112.206,17.349 153.91,87.509 257.701,0.953c103.791,-86.556 141.38,16.205 237.878,71.494c87.147,49.951 194.678,44.804 291.923,21.925c55.136,-10.508 107.429,-32.938 153.349,-65.774c6.53,-5.443 12.772,-11.234 18.701,-17.35c-14.317,31.244 -35.886,58.469 -62.835,79.311c-45.905,32.905 -98.199,55.4 -153.349,65.966c-97.246,22.687 -205.712,27.835 -291.924,-21.925c-96.498,-55.289 -136.144,-156.144 -237.878,-71.495c-101.734,84.65 -145.868,16.397 -257.701,0c-44.882,-7.054 -89.765,8.77 -134.834,15.253c-45.07,6.482 -97.807,0 -123.802,-38.131c-28.425,-41.562 -11.033,-98.757 -20.197,-148.517c-11.968,-65.584 -69.007,-112.675 -127.728,-141.845c-58.722,-29.17 -123.427,-46.9 -177.099,-84.84l161.203,-469.956c18.701,-51.667 39.272,-107.528 76.674,-144.323c-12.959,26.632 -24.081,54.153 -33.288,82.361Z" style="fill-opacity:0.1;fill-rule:nonzero;"/><path d="M8436.5,5307.49c0,0 -1071.57,87.509 -1284.77,-67.3l980.311,-154.046l304.454,221.346Z" style="fill:#e3e8f4;fill-rule:nonzero;"/><path d="M8436.5,5307.49c0,0 -1071.57,87.509 -1284.77,-67.3l980.311,-154.046l304.454,221.346Z" style="fill-opacity:0.1;fill-rule:nonzero;"/><path d="M8436.5,5307.49l-300.153,-193.702c0,0 -895.408,262.337 -1140.77,154.047l249.66,-357.091l887.179,176.353l304.08,220.393Z" style="fill:#e3e8f4;fill-rule:nonzero;"/><path d="M7104.98,2739.03c-33.097,42.624 -59.644,90.132 -78.732,140.892c-8.602,26.882 -12.904,54.908 -20.197,82.171c-20.521,67.892 -52.134,131.769 -93.506,188.935c-92.196,136.698 -207.395,268.629 -230.584,432.779c-11.22,81.027 1.122,163.389 16.831,243.653c8.504,52.928 23.325,104.597 44.135,153.856c23.75,52.239 59.095,98.186 86.212,148.708c24.769,49.591 45.655,101.1 62.461,154.047c31.979,-32.602 50.867,-76.261 76.488,-114.391c25.62,-38.131 63.77,-72.448 108.84,-73.02c51.989,0 94.814,43.85 146.242,50.713c8.026,1.65 16.353,0.854 23.938,-2.287c18.701,-8.961 20.197,-34.699 18.701,-55.289c-14.774,-143.942 -95.563,-285.978 -57.412,-425.535c35.158,-129.071 160.829,-209.716 226.844,-325.442c47.874,-84.077 62.087,-183.216 74.804,-279.686c15.896,-115.344 31.979,-231.641 24.872,-347.748c-3.553,-58.53 -49.183,-428.394 -132.59,-389.692c-28.987,13.346 -54.233,69.969 -72.373,95.326l-74.805,108.099l-150.169,213.911Z" style="fill:#3f3d56;fill-rule:nonzero;"/><path d="M4866.65,5125.04l-601.614,499.316l-774.037,-141.082l521.199,-417.146l854.452,58.912Z" style="fill:#e3e8f4;fill-rule:nonzero;"/><path d="M4888.34,5093.96l-601.613,499.317l-774.038,-141.082l521.199,-417.146l854.452,58.911Z" style="fill-opacity:0.1;fill-rule:nonzero;"/><path d="M4884.04,5067.46l-601.614,499.126l-774.224,-140.892l521.386,-417.336l854.452,59.102Z" style="fill:#e3e8f4;fill-rule:nonzero;"/><path d="M4901.44,5009.69l-601.801,499.317l-774.037,-141.082l521.386,-417.146l854.452,58.911Z" style="fill-opacity:0.1;fill-rule:nonzero;"/><path d="M4896.95,4983.19l-601.614,499.316l-774.038,-141.082l521.2,-417.145l854.452,58.911Z" style="fill:#e3e8f4;fill-rule:nonzero;"/></g><path d="M10326.5,11362.5c10.157,-4.942 21.306,-7.51 32.601,-7.51c38.672,0 71.246,30.102 74.292,68.654l25.753,333.916l-152.788,27.623l-80.566,-241.41l100.708,-181.273Z" style="fill:#3f3d56;fill-rule:nonzero;"/><path d="M4981.05,9124.36l-2338.28,1186.62c-54.397,27.75 -88.774,83.878 -88.774,144.943c0,61.527 34.898,118.002 89.925,145.525l5036.08,2527.32c181.776,91.031 397.472,85.629 574.463,-14.387l2121.18,-1196.12c50.685,-28.919 82.077,-82.973 82.077,-141.327c0,-62.241 -35.712,-119.25 -91.716,-146.408l-5241.24,-2507.76c-45.525,-21.792 -98.69,-21.207 -143.724,1.582Z" style="fill:#3f3d56;fill-rule:nonzero;"/><path d="M2627.09,10104.5l-73.228,54.382l-5.755,260.4c-0.946,41.356 21.907,79.781 58.698,98.693l5122.12,2628.46c10.809,5.576 22.797,8.486 34.96,8.486c41.828,0 76.249,-34.419 76.249,-76.248l0,-378.228l-5213.04,-2595.95Z" style="fill:#3f3d56;fill-rule:nonzero;"/><path d="M4981.05,8822.53l-2338.28,1186.48c-54.514,27.708 -88.988,83.901 -88.988,145.052c0,61.44 34.799,117.849 89.707,145.416l5036.52,2527.32c181.793,90.955 397.45,85.554 574.463,-14.387l2121.18,-1196.26c50.685,-28.919 82.077,-82.973 82.077,-141.327c0,-62.241 -35.712,-119.25 -91.716,-146.408l-5241.24,-2507.61c-45.547,-21.747 -98.713,-21.109 -143.724,1.726Z" style="fill:#e3e8f4;fill-rule:nonzero;"/><path d="M5465.02,9037.9l-2576.38,1308.19l4428.1,2214.12l2656.95,-1348.61l-4508.66,-2173.7Z" style="fill:#3f3d56;fill-rule:nonzero;"/><ellipse cx="8937.12" cy="11996.7" rx="271.766" ry="160.988" style="fill:#3f3d56;"/><path d="M6952.7,10191.8c-20.697,-35.848 -66.604,-48.149 -102.452,-27.452l-1171.1,676.132c-35.848,20.697 -48.149,66.604 -27.452,102.452l183.962,318.631c20.697,35.848 66.604,48.149 102.452,27.452l1171.1,-676.133c35.848,-20.696 48.148,-66.604 27.452,-102.452l-183.962,-318.63Z" style="fill:#3855be;"/><path d="M7715.19,10580.2c-20.697,-35.848 -66.604,-48.149 -102.452,-27.452l-1171.1,676.132c-35.848,20.697 -48.149,66.604 -27.452,102.452l183.961,318.631c20.697,35.848 66.604,48.149 102.452,27.452l1171.1,-676.133c35.848,-20.696 48.149,-66.604 27.452,-102.452l-183.961,-318.63Z" style="fill:#3855be;"/><path d="M6262.15,9745.82c-20.697,-35.848 -66.604,-48.148 -102.452,-27.452l-1171.1,676.133c-35.848,20.697 -48.149,66.604 -27.452,102.452l183.962,318.631c20.697,35.848 66.604,48.148 102.452,27.452l1171.1,-676.133c35.847,-20.697 48.148,-66.604 27.451,-102.452l-183.961,-318.631Z" style="fill:#3855be;"/></svg>