<?xml version="1.0" encoding="UTF-8" standalone="no"?><!DOCTYPE svg PUBLIC "-//W3C//DTD SVG 1.1//EN" "http://www.w3.org/Graphics/SVG/1.1/DTD/svg11.dtd"><svg width="100%" height="100%" viewBox="0 0 2130 2130" version="1.1" xmlns="http://www.w3.org/2000/svg" xmlns:xlink="http://www.w3.org/1999/xlink" xml:space="preserve" xmlns:serif="http://www.serif.com/" style="fill-rule:evenodd;clip-rule:evenodd;stroke-linejoin:round;stroke-miterlimit:1.41421;"><path d="M1972.79,696.682c6.416,-271.946 -209.552,-502.404 -481.563,-505.361c-182.115,-1.981 -341.423,96.053 -426.657,242.512c-85.25,-146.459 -244.542,-244.51 -426.657,-242.512c-272.011,2.957 -487.979,233.415 -481.562,505.361c14.36,607.684 741.163,1136.24 883.999,1234.34c14.604,10.039 33.837,10.039 48.441,0c142.836,-98.1 869.639,-626.657 883.999,-1234.34Z" style="fill:#3ad39e;fill-rule:nonzero;"/><path d="M1058.55,1570.48c-26.414,0 -49.107,-18.795 -54.013,-44.786l-134.21,-712.914l-142.804,339.376c-8.317,19.77 -27.355,32.879 -48.782,33.61c-21.458,0.731 -41.325,-11.079 -50.958,-30.231l-38.174,-75.877l-534.649,0c-30.345,0 -54.955,-24.61 -54.955,-54.954c0,-30.361 24.61,-54.955 54.955,-54.955l568.518,0c20.663,0 39.571,11.582 48.944,29.971l167.463,-397.937c9.405,-22.369 32.375,-35.916 56.465,-33.334c24.123,2.567 43.697,20.631 48.197,44.477l110.656,587.866l45.793,-275.065c4.402,-26.511 27.323,-45.939 54.191,-45.939l179.354,0c18.583,0 35.916,9.389 46.052,24.951l84.211,129.256l36.322,-44.184c10.445,-12.703 26.023,-20.062 42.463,-20.062l530.636,0c30.345,0 54.939,24.61 54.939,54.955c0,30.344 -24.594,54.954 -54.939,54.954l-504.662,0l-67.414,82.018c-11.111,13.515 -28.021,20.939 -45.484,19.98c-17.495,-0.958 -33.463,-10.201 -43.015,-24.87l-108.869,-167.089l-103.022,0l-89.002,534.844c-4.37,26.283 -26.982,45.647 -53.623,45.923c-0.195,0 -0.406,0.016 -0.584,0.016Z" style="fill:#ebfaf5;fill-rule:nonzero;"/></svg>