<?xml version="1.0" encoding="UTF-8" standalone="no"?><!DOCTYPE svg PUBLIC "-//W3C//DTD SVG 1.1//EN" "http://www.w3.org/Graphics/SVG/1.1/DTD/svg11.dtd"><svg width="100%" height="100%" viewBox="0 0 100 100" version="1.1" xmlns="http://www.w3.org/2000/svg" xmlns:xlink="http://www.w3.org/1999/xlink" xml:space="preserve" xmlns:serif="http://www.serif.com/" style="fill-rule:evenodd;clip-rule:evenodd;stroke-linejoin:round;stroke-miterlimit:1.41421;"><g><rect x="0" y="0" width="100" height="100" style="fill:none;"/><path d="M56.25,87.5l0,-12.5c0,-2.301 -1.865,-4.167 -4.167,-4.167l-4.166,0c-2.302,0 -4.167,1.866 -4.167,4.167l0,12.5l-22.917,0l0,-70.833c0,-4.603 3.731,-8.334 8.334,-8.334l41.666,0c4.603,0 8.334,3.731 8.334,8.334l0,70.833l-22.917,0Zm-18.75,-70.833c-2.301,0 -4.167,1.865 -4.167,4.166l0,4.167c0,2.301 1.866,4.167 4.167,4.167l4.167,0c2.301,0 4.166,-1.866 4.166,-4.167l0,-4.167c0,-2.301 -1.865,-4.166 -4.166,-4.166l-4.167,0Zm20.833,0c-2.301,0 -4.166,1.865 -4.166,4.166l0,4.167c0,2.301 1.865,4.167 4.166,4.167l4.167,0c2.301,0 4.167,-1.866 4.167,-4.167l0,-4.167c0,-2.301 -1.866,-4.166 -4.167,-4.166l-4.167,0Zm-20.833,16.666c-2.301,0 -4.167,1.866 -4.167,4.167l0,4.167c0,2.301 1.866,4.166 4.167,4.166l4.167,0c2.301,0 4.166,-1.865 4.166,-4.166l0,-4.167c0,-2.301 -1.865,-4.167 -4.166,-4.167l-4.167,0Zm0,16.667c-2.301,0 -4.167,1.865 -4.167,4.167l0,4.166c0,2.302 1.866,4.167 4.167,4.167l4.167,0c2.301,0 4.166,-1.865 4.166,-4.167l0,-4.166c0,-2.302 -1.865,-4.167 -4.166,-4.167l-4.167,0Zm20.833,0c-2.301,0 -4.166,1.865 -4.166,4.167l0,4.166c0,2.302 1.865,4.167 4.166,4.167l4.167,0c2.301,0 4.167,-1.865 4.167,-4.167l0,-4.166c0,-2.302 -1.866,-4.167 -4.167,-4.167l-4.167,0Z" style="fill:#3ad39e;"/><path d="M66.667,37.5c0,-2.3 -1.867,-4.167 -4.167,-4.167l-4.167,0c-2.299,0 -4.166,1.867 -4.166,4.167l0,4.167c0,2.299 1.867,4.166 4.166,4.166l4.167,0c2.3,0 4.167,-1.867 4.167,-4.166l0,-4.167Z" style="fill:#fff;"/><path d="M16.667,87.5l66.666,0c2.302,0 4.167,1.865 4.167,4.167l0,1.666c0,1.381 -1.119,2.5 -2.5,2.5l-70,0c-1.381,0 -2.5,-1.119 -2.5,-2.5l0,-1.666c0,-2.302 1.865,-4.167 4.167,-4.167Z" style="fill:#ebfaf5;"/></g></svg>