<?xml version="1.0" encoding="UTF-8" standalone="no"?><!DOCTYPE svg PUBLIC "-//W3C//DTD SVG 1.1//EN" "http://www.w3.org/Graphics/SVG/1.1/DTD/svg11.dtd"><svg width="100%" height="100%" viewBox="0 0 13109 13542" version="1.1" xmlns="http://www.w3.org/2000/svg" xmlns:xlink="http://www.w3.org/1999/xlink" xml:space="preserve" xmlns:serif="http://www.serif.com/" style="fill-rule:evenodd;clip-rule:evenodd;stroke-linejoin:round;stroke-miterlimit:1.41421;"><ellipse cx="6509.88" cy="12212.9" rx="6333.29" ry="1231.23" style="fill:#3855be;fill-opacity:0.1;"/><path d="M7217.55,5986.34c0,0 -48.759,318.76 97.509,322.862c146.268,4.106 243.982,-245.859 243.982,-245.859l-59.704,-199.935l-281.787,122.932Z" style="fill:#585b8a;fill-rule:nonzero;"/><path d="M7217.55,5986.34c0,0 -48.759,318.76 97.509,322.862c146.268,4.106 243.982,-245.859 243.982,-245.859l-59.704,-199.935l-281.787,122.932Z" style="fill-opacity:0.2;fill-rule:nonzero;"/><path d="M3941.35,12886.2c-260.299,11.14 -599.798,-277.72 -599.798,-277.72l-16.913,-299.997c0,0 -22.49,11.14 -67.861,-55.505c-30.449,-44.755 13.332,-230.226 45.371,-346.906c15.524,-57.065 28.26,-97.719 28.26,-97.719l571.14,150.098l27.263,70.944l221.689,578.891c0,0 50.947,266.773 -209.151,277.914Z" style="fill:#636992;fill-rule:nonzero;"/><path d="M6565.61,12036.4c0,0 -661.687,249.966 -875.614,55.505c-213.931,-194.462 -373.333,-138.957 -373.333,-138.957c0,0 -373.329,5.667 -446.96,-22.281c-43.382,-16.219 -19.902,-155.175 7.163,-265.797c18.309,-76.414 38.208,-139.542 38.208,-139.542c0,0 650.343,-216.742 752.235,-83.452c30.603,39.162 67.19,73.443 108.458,101.627c117.81,83.65 301.887,159.479 593.03,276.155c400.395,161.044 196.813,216.742 196.813,216.742Z" style="fill:#636992;fill-rule:nonzero;"/><path d="M5971.77,6959.03l180.894,355.505c0,0 260.299,361.173 -45.174,499.932c-305.468,138.763 -299.698,-799.735 -299.698,-799.735l163.978,-55.702Z" style="fill:#ffd6d6;fill-rule:nonzero;"/><path d="M5213.77,3876.19c0,0 198.008,88.926 316.816,461.041c118.804,372.119 277.212,1005.53 277.212,1005.53c0,0 107.461,716.48 90.347,894.332c-10.89,97.947 -8.95,196.867 5.77,294.33l152.638,499.931l-305.473,105.54l-469.45,-1766.38l-67.86,-1494.33Z" style="fill:#dce6f2;fill-rule:nonzero;"/><path d="M5213.77,3876.19c0,0 198.008,88.926 316.816,461.041c118.804,372.119 277.212,1005.53 277.212,1005.53c0,0 107.461,716.48 90.347,894.332c-10.89,97.947 -8.95,196.867 5.77,294.33l152.638,499.931l-305.473,105.54l-469.45,-1766.38l-67.86,-1494.33Z" style="fill-opacity:0.05;fill-rule:nonzero;"/><path d="M3901.54,11958.6l27.263,70.944l-33.432,62.737c-130.147,55.504 -452.533,11.14 -452.533,11.14c0,0 -59.703,-74.462 -141.294,-197.002c15.521,-57.07 28.257,-97.719 28.257,-97.719l571.739,149.9Z" style="fill-opacity:0.1;fill-rule:nonzero;"/><path d="M5796.45,11569.6c-164.976,367.037 -725.766,230.815 -881.586,184.886c-25.673,-7.623 -39.802,-12.702 -39.802,-12.702c0,0 0.994,-29.904 1.393,-77.006c18.309,-76.414 38.207,-139.542 38.207,-139.542c0,0 650.344,-216.742 752.236,-83.453c30.603,39.162 67.189,73.443 108.458,101.628c6.228,9.327 13.288,18.089 21.094,26.189Z" style="fill-opacity:0.1;fill-rule:nonzero;"/><path d="M5768.01,11103.1c-135.721,277.522 28.457,433.287 28.457,433.287c-164.975,366.839 -725.765,230.815 -881.586,184.688c-25.673,-7.426 -39.801,-12.508 -39.801,-12.508c0,0 11.344,-383.449 -28.26,-566.774c-39.6,-183.321 -34.027,-955.305 -11.344,-1049.7c22.687,-94.399 33.834,-277.913 33.834,-277.913c0,0 -16.917,-216.549 11.343,-322.084c17.292,-57.988 1.101,-120.844 -42.191,-163.779l-2.986,-2.932c0,0 -124.377,416.676 -169.748,488.597c-45.374,71.921 -62.09,433.291 -67.86,499.936c-5.77,66.645 -237.612,622.274 -237.612,622.274c0,0 -90.347,255.44 -107.263,327.558c-16.913,72.118 -84.975,277.914 -84.975,277.914l-272.633,516.743c-130.147,55.504 -452.533,11.14 -452.533,11.14c0,0 -62.09,-78.177 -147.064,-205.602c-84.975,-127.429 -124.378,-577.523 -124.378,-577.523c0,0 311.042,-5.667 231.838,-300.001c-79.204,-294.33 67.861,-522.212 62.287,-622.279c-5.569,-100.062 67.861,-427.619 107.465,-477.65c39.6,-50.035 33.829,-261.107 22.486,-377.787c-11.344,-116.676 -5.573,-527.681 -5.573,-527.681c0,0 11.343,-183.325 67.86,-266.58c56.517,-83.259 34.031,-322.282 34.031,-322.282c0,0 107.263,-55.504 33.83,-594.327c-73.43,-538.826 119.403,-1238.69 119.403,-1238.69l6.567,-97.723l10.35,-158.305c0,0 1617.7,-100.062 1747.85,22.087c34.015,33.901 61.94,73.222 82.584,116.285c44.526,94.004 75.986,193.462 93.534,295.697l67.86,1683.12l67.86,1238.69l-22.687,933.223c0,0 4.974,232.96 -130.944,510.878l0,0Z" style="fill:#565988;fill-rule:nonzero;"/><path d="M5288.39,7781.28l-169.752,3610.54l-203.778,329.119c-25.673,-7.426 -39.802,-12.508 -39.802,-12.508c0,0 11.344,-383.453 -28.26,-566.774c-39.6,-183.321 -34.027,-955.306 -11.344,-1049.7c22.688,-94.395 33.834,-277.913 33.834,-277.913c0,0 -16.917,-216.545 11.344,-322.084c17.291,-57.988 1.1,-120.841 -42.192,-163.775l2.789,-19.546l447.161,-1527.36Z" style="fill-opacity:0.1;fill-rule:nonzero;"/><path d="M3460.36,11658.6c0,0 441.189,-172.18 509.05,-117.265c67.86,54.92 -520.197,138.764 -520.197,138.764l11.147,-21.499Z" style="fill-opacity:0.1;fill-rule:nonzero;"/><path d="M5638.05,11203c-16.916,5.667 -446.762,156.349 -407.162,316.611c39.604,160.257 407.162,-316.611 407.162,-316.611Z" style="fill-opacity:0.1;fill-rule:nonzero;"/><path d="M4294.76,2984.8c0,0 144.079,341.626 67.86,516.739c-76.218,175.112 822.881,474.92 822.881,474.92c0,0 -262.883,-666.643 -8.358,-1041.69c254.525,-375.047 -882.383,50.032 -882.383,50.032Z" style="fill:#ffd6d6;fill-rule:nonzero;"/><path d="M9559.2,12875c-173.928,37.523 -402.981,208.34 -402.981,208.34c0,0 -441.194,91.661 -742.486,50.031c-301.291,-41.629 -250.146,-362.539 -16.912,-441.692c161.788,-54.722 327.56,-189.771 414.124,-267.165c38.208,-34.595 60.895,-58.634 60.895,-58.634l844.372,-166.707c0,0 13.734,46.32 32.836,110.226c33.833,112.768 83.783,280.064 102.885,343.776c29.653,101.043 -118.804,184.301 -292.733,221.825Z" style="fill:#505484;fill-rule:nonzero;"/><path d="M9342.9,12233.4c0,0 -356.416,37.528 -504.873,-45.731c-148.457,-83.259 -360.593,50.031 -360.593,50.031c0,0 -610.941,-12.508 -814.523,-75.047c-203.581,-62.542 29.649,-371.336 360.593,-341.626c120.595,10.749 202.189,-15.246 257.314,-52.378c57.562,-38.748 97.718,-97.874 112.036,-164.953l716.413,41.629l99.505,249.381l134.128,338.694Z" style="fill:#505484;fill-rule:nonzero;"/><path d="M9219.72,12008.4c0,0 -832.635,-133.677 -938.9,-239.802c57.562,-38.747 97.718,-97.873 112.036,-164.952l716.413,41.629l99.505,249.381l10.946,113.744Z" style="fill-opacity:0.1;fill-rule:nonzero;"/><path d="M7985.3,7330.01l8.555,1220.51c0,0 29.652,916.613 29.652,1041.69c0,125.082 4.181,403.976 4.181,403.976c0,0 63.68,341.626 101.888,454.2c38.211,112.574 67.86,625.405 67.86,625.405c0,0 89.155,141.691 50.948,195.437c-38.212,53.746 148.456,170.813 148.456,170.813c0,0 -119.403,162.609 -127.165,270.88c-7.763,108.274 950.046,262.086 950.046,262.086l-373.132,-3757.71l-297.115,-941.431l-564.174,54.137Z" style="fill:#575988;fill-rule:nonzero;"/><path d="M7985.3,7330.01l8.555,1220.51c0,0 29.652,916.613 29.652,1041.69c0,125.082 4.181,403.976 4.181,403.976c0,0 63.68,341.626 101.888,454.2c38.211,112.574 67.86,625.405 67.86,625.405c0,0 89.155,141.691 50.948,195.437c-38.212,53.746 148.456,170.813 148.456,170.813c0,0 -119.403,162.609 -127.165,270.88c-7.763,108.274 950.046,262.086 950.046,262.086l-373.132,-3757.71l-297.115,-941.431l-564.174,54.137Z" style="fill-opacity:0.1;fill-rule:nonzero;"/><path d="M9749.07,12310.4c-277.212,649.053 -936.509,148.145 -936.509,148.145c0,0 0,-12.508 -1.594,-34.006c38.208,-34.595 60.895,-58.634 60.895,-58.634l844.373,-166.708c0,0 13.733,47.297 32.835,111.203Z" style="fill-opacity:0.1;fill-rule:nonzero;"/><path d="M9758.62,12254.3c-271.639,684.035 -946.062,170.813 -946.062,170.813c0,0 -21.295,-354.134 21.291,-516.546c42.59,-162.407 -46.763,-650.028 -46.763,-650.028c0,0 -50.947,-433.291 -97.513,-533.16c-46.566,-99.868 -42.389,-299.997 -42.389,-316.61c0,-16.614 16.917,-150.098 -21.291,-241.758c-38.211,-91.661 -59.703,-316.611 -59.703,-316.611c0,0 0,-316.611 -38.208,-504.038l-131.54,-644.95l-237.612,-1320.78l74.23,-12.508l1329.94,-229.052c0,0 250.348,1250.81 165.373,1379.02c-18.309,28.141 -34.429,89.708 -47.761,169.054c-48.557,283.779 -66.665,793.29 -66.665,793.29c0,0 165.37,254.068 101.887,433.287c-63.482,179.218 59.704,474.916 59.704,474.916c0,0 38.208,1166.58 -34.031,1283.25c-72.238,116.676 17.114,582.408 17.114,582.408Z" style="fill:#575988;fill-rule:nonzero;"/><path d="M9631.26,3726.29c0,0 -1204.77,833.156 -933.326,416.48c146.268,-224.362 119.403,-510.096 62.09,-725.859c-28.974,-109.742 -68.973,-216.389 -119.404,-318.373c-50.431,-101.979 1023.68,-427.619 887.956,-44.364c-31.802,89.286 -45.331,183.871 -39.801,278.305c8.129,141.943 57.594,278.654 142.485,393.811Z" style="fill:#d28690;fill-rule:nonzero;"/><path d="M7462.13,5634.35c0,0 -509.05,-144.43 -593.827,-2.735c-84.773,141.692 25.472,452.635 179.104,502.67c153.631,50.031 506.265,-169.445 506.265,-169.445l-91.542,-330.49Z" style="fill:#d28690;fill-rule:nonzero;"/><path d="M8044.81,5388.69l-212.14,191.726c0,0 -369.152,33.224 -475.22,8.208c0,0 97.71,641.627 -42.389,720.78l856.911,-170.813l-127.162,-749.901Z" style="fill:#585b8a;fill-rule:nonzero;"/><path d="M8044.81,5388.69l-212.14,191.726c0,0 -369.152,33.224 -475.22,8.208c0,0 97.71,641.627 -42.389,720.78l856.911,-170.813l-127.162,-749.901Z" style="fill-opacity:0.1;fill-rule:nonzero;"/><path d="M5321.24,2634.77c0,343.086 -287.467,625.404 -636.811,625.404c-326.768,-154.199 -636.815,-279.672 -636.815,-625.404c-0.332,-8.236 -0.497,-16.475 -0.497,-24.718c0,-343.086 287.467,-625.404 636.811,-625.404c349.348,0 636.815,282.318 636.815,625.404c0,8.243 -0.166,16.482 -0.501,24.718l0.998,0Z" style="fill-opacity:0.1;fill-rule:nonzero;"/><path d="M5321.24,2617.96l0,0.395c0,342.444 -286.931,624.235 -635.62,624.235c-348.689,0 -635.616,-281.791 -635.616,-624.235c0,-342.443 286.927,-624.231 635.616,-624.231c190.305,0 370.888,83.933 491.541,228.464c92.97,111.516 143.886,251.244 144.079,395.372Z" style="fill:#ffd6d6;fill-rule:nonzero;"/><path d="M5692.36,6442.11c-63.001,38.426 -128.936,72.014 -197.211,100.457c-68.274,28.444 -322.385,-45.929 -368.955,8.208c-46.565,54.137 -457.708,75.047 -457.708,75.047c0,0 -627.854,-29.118 -721.19,-108.27c-28.856,-22.955 -60.97,-41.653 -95.32,-55.505l10.346,-158.305c0,0 1617.7,-100.066 1747.85,22.083c33.873,33.933 61.664,73.249 82.185,116.285Z" style="fill-opacity:0.1;fill-rule:nonzero;"/><path d="M5771.01,6330.12c-12.736,70.747 -275.819,179.021 -275.819,179.021c0,0 -322.386,-45.731 -368.955,8.406c-46.566,54.137 -457.708,75.046 -457.708,75.046c0,0 -627.854,-29.315 -721.19,-108.468c-93.333,-79.152 -301.292,-117.264 -301.292,-117.264c0,0 -106.068,-741.496 -63.478,-903.904c42.585,-162.411 -63.684,-608.403 -89.156,-766.708c-25.472,-158.306 72.038,-595.698 190.846,-666.445c118.804,-70.751 288.555,-308.403 390.245,-379.154c85.772,-59.61 180.496,-136.807 208.157,-160.064l8.161,-6.647c0,0 17.114,-129.184 84.974,-195.437c67.861,-66.254 691.336,420.778 691.336,420.778c0,0 4.379,37.528 46.767,-33.223c9.553,-15.831 91.743,100.651 106.068,149.903c0,0 339.302,583.384 360.597,703.582c21.291,120.193 110.249,512.439 127.162,608.205c4.378,24.625 11.545,111.009 19.903,226.709c1.589,22.668 2.982,46.708 4.776,71.727c12.535,191.921 26.068,437.002 34.228,622.275c0,21.107 1.791,41.436 2.387,60.978c4.295,70.15 4.961,140.467 1.991,210.684Z" style="fill:#dce6f2;fill-rule:nonzero;"/><path d="M3616.77,4826.05c0,0 233.23,279.088 309.649,279.088c76.416,0 -309.649,-279.088 -309.649,-279.088Z" style="fill-opacity:0.1;fill-rule:nonzero;"/><path d="M4108.11,5426.03c0,0 -381.888,408.271 -330.944,483.322c50.943,75.046 330.944,-483.322 330.944,-483.322Z" style="fill-opacity:0.1;fill-rule:nonzero;"/><path d="M3828.11,6238.47c0,0 437.81,-470.814 457.708,-633.222l-457.708,633.222Z" style="fill-opacity:0.1;fill-rule:nonzero;"/><path d="M4379.56,6271.71c0,0 504.873,-262.473 547.261,-470.814c42.389,-208.336 -547.261,470.814 -547.261,470.814Z" style="fill-opacity:0.1;fill-rule:nonzero;"/><path d="M5020.14,3738.8l-70.05,166.514l116.619,54.137l114.623,314.658c0,0 316.02,620.714 303.284,943.576c-12.736,322.867 57.314,808.141 57.314,808.141l182.286,-33.224l-85.968,-949.638c-13.387,-147.03 -50.889,-290.972 -111.046,-426.252c-145.672,-327.554 -416.716,-932.243 -433.83,-932.243c-23.283,0 -6.961,8.402 -6.961,8.402l-66.271,45.929Z" style="fill-opacity:0.1;fill-rule:nonzero;"/><path d="M5037.06,3721.99l-70.05,166.707l116.816,54.137l114.426,314.658c0,0 316.016,620.714 303.28,943.581c-12.736,322.866 57.313,808.14 57.313,808.14l182.488,-33.224l-86.17,-949.638c-13.229,-147.037 -50.663,-290.995 -110.844,-426.252c-145.672,-327.752 -416.712,-932.247 -433.629,-932.247c-23.484,0 -7.162,8.406 -7.162,8.406l-66.468,45.732Z" style="fill:#575989;fill-rule:nonzero;"/><path d="M7102.93,6170.45c-88.757,-6.647 -301.69,-112.38 -386.267,-156.353l-35.821,-19.542l4.378,-322.669c20.912,-12.078 42.582,-22.851 64.875,-32.248c113.033,-48.47 344.875,-114.332 461.092,97.719c156.814,284.363 4.181,440.519 -108.257,433.093Z" style="fill:#ffd6d6;fill-rule:nonzero;"/><path d="M5177.16,2222.59c-9.119,5.609 -19.149,9.641 -29.652,11.919c-73.832,15.831 -157.809,-46.514 -221.094,-6.45c-38.606,24.629 -47.559,75.636 -52.734,120.589c-9.025,78.176 -18.045,155.83 -27.065,232.961c-1.894,27.463 -7.79,54.512 -17.513,80.326c-31.242,70.162 -117.013,103.192 -195.223,102.018c-30.623,2.142 -60.899,-7.696 -84.178,-27.359c-13.73,-13.681 -21.094,-32.836 -36.22,-45.344c-99.501,-81.887 -129.749,118.83 -103.481,175.896c42.188,93.225 192.037,183.127 129.154,301.561c-10.574,19.248 -26.616,35.072 -46.171,45.538c-264.938,-81.484 -446.494,-324.164 -446.494,-596.821c0,-343.087 287.467,-625.405 636.811,-625.405c191.433,0 373.005,84.773 493.86,230.571Z" style="fill-opacity:0.1;fill-rule:nonzero;"/><path d="M4496.59,2690.47c14.925,12.31 22.486,31.465 36.216,45.142c23.291,19.643 53.559,29.482 84.182,27.363c78.206,1.174 163.977,-31.662 195.022,-102.216c9.9,-25.701 15.868,-52.707 17.709,-80.129l27.066,-232.964c5.175,-44.949 13.931,-95.96 52.738,-120.585c63.281,-39.088 147.262,22.281 221.09,6.45c54.923,-13.709 90.011,-67.637 79.602,-122.343c-8.555,-37.33 -37.612,-66.843 -52.537,-102.41c-9.048,-27.332 -16.294,-55.206 -21.689,-83.452c-41.194,-151.662 -222.486,-236.873 -380.098,-211.467c-87.561,14.267 -168.954,55.307 -256.714,67.819c-62.886,8.987 -127.165,3.126 -190.648,9.769c-58.978,5.977 -116.327,22.61 -169.152,49.055c-13.868,6.027 -26.126,15.126 -35.821,26.581c-9.013,15.471 -15.083,32.425 -17.911,50.031c-21.291,78.176 -89.751,135.831 -139.302,201.693c-56.671,75.775 -89.475,166.239 -94.327,260.13c-1.952,23.985 0.336,48.118 6.765,71.336c4.181,13.681 10.748,26.972 13.931,41.041c9.75,42.803 -12.539,85.606 -23.484,128.211c-13.596,54.358 -8.701,111.621 13.931,162.996c76.419,172.572 328.16,230.226 380.496,411.398c46.474,21.885 96.673,35.137 148.058,39.088c51.342,0.976 106.668,-20.716 130.546,-65.471c62.686,-117.265 -86.962,-208.341 -129.154,-301.369c-26.465,-57.263 3.187,-257.782 103.485,-175.697Z" style="fill:#353045;fill-rule:nonzero;"/><path d="M9529.58,3054.18c-31.802,89.286 -45.327,183.871 -39.801,278.305c-30.647,25.604 -64.078,-51.007 -99.501,-31.267c-97.115,55.113 -209.352,186.253 -329.552,186.253c-104.23,0.066 -207.009,-24.113 -299.896,-70.554c-28.974,-109.742 -68.972,-216.389 -119.403,-318.373c-50.431,-101.979 1023.87,-427.619 888.153,-44.364Z" style="fill-opacity:0.1;fill-rule:nonzero;"/><path d="M9721.82,2804.21c0,356.598 -298.787,650.029 -661.885,650.029c-363.102,0 -661.889,-293.431 -661.889,-650.029c0,-356.597 298.787,-650.029 661.889,-650.029l0.197,0c362.991,0 661.688,293.346 661.688,649.836l0,0.193Z" style="fill:#d28690;fill-rule:nonzero;"/><path d="M9693.54,3870.72c0,0 -124.575,133.29 -141.492,144.233c-16.912,10.943 -378.105,1504.88 -384.475,1522.27c-6.366,17.397 -430.043,1366.32 -430.043,1366.32l-678.802,327.751l56.714,-1649.9l497.509,-1360.64c0,0 164.179,-183.324 214.925,-249.969c50.747,-66.645 684.375,-466.708 684.375,-466.708l108.257,219.089l73.032,147.556Z" style="fill:#f0f3f7;fill-rule:nonzero;"/><path d="M9603.81,3756.59l-780.495,548.793l-12.535,-301.365c50.944,-66.645 684.371,-466.514 684.371,-466.514l108.659,219.086Z" style="fill-opacity:0.1;fill-rule:nonzero;"/><path d="M9620.69,3723.17l-780.492,548.793l-12.14,-301.174c50.947,-66.839 684.375,-466.708 684.375,-466.708l108.257,219.089Z" style="fill:#f0f3f7;fill-rule:nonzero;"/><path d="M8802.03,3836.72l26.067,134.069l-174.524,174.136l139.302,-306.252c0,0 -298.507,204.234 -388.056,258.371c-89.554,54.137 -179.104,237.458 -182.488,287.489c-3.384,50.035 -144.276,804.039 -144.276,804.039c0,0 -106.072,279.087 -76.218,358.24c29.85,79.152 -161.193,2574.71 -161.193,2574.71c51.67,-98.064 145.278,-168.555 255.121,-192.118l-68.058,-1474.78c0,0 82.785,-981.103 86.962,-993.611c4.181,-12.508 193.035,-581.234 193.035,-581.234l494.326,-1043.06Z" style="fill:#585b8a;fill-rule:nonzero;"/><path d="M8845.18,3987.4l-13.533,273.615c0,0 -188.853,585.34 -252.336,681.106c-63.482,95.763 -256.714,666.643 -256.714,666.643l-108.853,991.655l-186.668,83.452l-91.94,-166.316l152.835,-957.652c0,0 288.358,-808.141 330.944,-891.593l212.736,-440.128l213.529,-240.782Z" style="fill-opacity:0.1;fill-rule:nonzero;"/><path d="M8828.06,3970.79l-13.332,273.618c0,0 -188.853,585.336 -252.537,681.102c-63.679,95.767 -256.517,666.643 -256.517,666.643l-108.257,991.462l-186.664,83.258l-93.333,-166.513l152.835,-957.653c0,0 288.355,-808.334 330.744,-891.593l214.329,-439.543l212.732,-240.781Z" style="fill:#663d5c;fill-rule:nonzero;"/><path d="M6627.89,6059.24l364.774,248.013c0,0 257.313,-141.695 107.464,-233.356c-149.853,-91.66 -282.785,-105.535 -330.944,-105.535c-48.159,0 -141.294,90.878 -141.294,90.878Z" style="fill:#d28690;fill-rule:nonzero;"/><path d="M6900.32,5600.77c-16.535,10.106 -26.577,27.971 -26.466,47.103c0,76.022 8.756,277.324 73.631,186.446c79.602,-111.202 65.075,-211.075 186.664,-138.956c75.572,46.219 141.712,105.872 195.026,175.895l-33.833,-238.825c0,0 -249.946,-121.174 -395.022,-31.663Z" style="fill:#d28690;fill-rule:nonzero;"/><path d="M9728.76,8517.3c-18.31,28.145 -34.43,89.708 -47.761,169.054c-743.877,219.09 -1288.15,-244.101 -1288.15,-244.101c-65.849,-219.152 -119.656,-441.623 -161.193,-666.449c-13.331,-77.003 -10.346,-226.318 1.992,-408.465l1329.94,-229.056c0,0 250.147,1249.83 165.173,1379.02Z" style="fill-opacity:0.1;fill-rule:nonzero;"/><path d="M10492.4,4788.51c-33.83,108.468 -21.094,329.118 -21.094,329.118l-305.468,1416.54c0,0 -148.457,1091.53 -173.929,1237.33c-25.476,145.797 -67.86,787.424 -67.86,787.424c-865.47,416.677 -1532.33,-149.903 -1532.33,-149.903c-65.837,-219.222 -119.648,-441.755 -161.192,-666.639c-42.59,-247.429 82.785,-1238.7 142.086,-1679.02c17.714,-130.357 29.653,-212.442 29.653,-212.442l222.683,-812.441c0,0 273.631,-685.406 375.522,-885.34c101.888,-199.935 511.042,-649.053 511.042,-649.053c50.746,-31.659 131.938,80.132 192.238,181.953c45.571,77.003 79.598,148.536 79.598,148.536c0,0 509.054,216.545 585.272,332.245c76.219,115.7 63.68,354.138 72.239,366.646c8.555,12.507 85.57,146.773 51.539,255.048Z" style="fill:#585b8a;fill-rule:nonzero;"/><path d="M9291.98,4284.47c0,0 38.208,220.844 -59.704,287.489c-94.527,64.495 -798.201,1423.38 -841.982,1508.2c17.71,-130.555 29.649,-212.64 29.649,-212.64l222.687,-812.243c0,0 273.828,-685.406 375.518,-885.535c101.69,-200.128 511.243,-649.052 511.243,-649.052c50.742,-31.663 131.737,80.128 192.036,181.953c-90.946,185.471 -280.596,536.088 -429.447,581.823Z" style="fill-opacity:0.1;fill-rule:nonzero;"/><path d="M9275.06,4267.86c0,0 38.011,220.848 -59.7,287.489c-97.714,66.645 -798.008,1423.19 -842.384,1508.01c17.709,-130.357 29.653,-212.442 29.653,-212.442l222.683,-812.441c0,0 273.631,-685.406 375.522,-885.34c101.887,-199.935 511.041,-649.053 511.041,-649.053c50.743,-31.659 131.939,80.132 192.238,181.953c-90.547,185.277 -280.399,536.092 -429.053,581.823Z" style="fill:#585b8a;fill-rule:nonzero;"/><path d="M10284.6,6263.49l-239.403,1223.25l0,0.197l-22.884,117.068l0,0.193l-51.543,263.256l-219.899,-45.731l-102.487,-21.305l-1418.3,-295.112l-104.278,-21.692l-238.01,-49.446l46.569,-303.712l19.303,-126.256l171.74,-1119.87l2159.19,379.153Z" style="fill:#3855be;fill-rule:nonzero;"/><path d="M8961.02,7263.34c0,0 -564.175,199.935 -441.194,437.393c122.985,237.458 912.036,-183.325 912.036,-183.325l-470.842,-254.068Z" style="fill:#d28690;fill-rule:nonzero;"/><path d="M9364,8967.18c0,16.614 21.295,229.25 106.069,304.103c84.777,74.853 -106.069,-304.103 -106.069,-304.103Z" style="fill-opacity:0.1;fill-rule:nonzero;"/><path d="M8795.64,9721.2c0,0 101.69,274.986 504.676,387.556c402.982,112.574 -504.676,-387.556 -504.676,-387.556Z" style="fill-opacity:0.1;fill-rule:nonzero;"/><path d="M9721.82,2804.21c0.063,232.295 -126.713,447.615 -331.737,563.451c-38.015,-20.89 -71.754,-48.524 -99.505,-81.496c-28.856,-34.398 -51.342,-81.303 -34.027,-122.347c13.927,-33.03 50.742,-53.94 59.7,-88.143c4.22,-20.914 3.123,-42.532 -3.183,-62.931c-7.364,-32.247 -14.33,-64.495 -21.492,-96.549c-6.169,-27.359 -17.114,-59.606 -44.779,-66.253c-27.661,-6.643 -50.747,16.029 -72.436,32.836c-53.133,41.238 -155.024,69.186 -218.905,35.374c-63.88,-33.813 -45.97,-146.972 -56.315,-208.143c-0.265,-10.753 -5.368,-20.852 -13.931,-27.557c-9.297,-3.029 -19.225,-3.703 -28.856,-1.956c-34.429,0 -62.09,-30.291 -72.042,-62.736c-7.048,-33.119 -10.913,-66.82 -11.54,-100.651c-3.783,-33.809 -16.318,-69.574 -45.773,-86.97c-23.528,-10.757 -49.626,-14.948 -75.422,-12.117l-124.775,1.368c124.716,-165.588 322.417,-263.477 532.139,-263.477c362.656,0 661.242,292.722 661.885,648.882l0.994,-0.585Z" style="fill-opacity:0.1;fill-rule:nonzero;"/><path d="M9192.07,2882.78c21.693,-16.807 45.571,-39.088 72.439,-32.639c26.864,6.45 38.405,39.089 44.578,66.056l21.492,96.352c6.358,20.456 7.522,42.133 3.38,63.128c-10.148,34.397 -46.763,55.113 -60.895,88.143c-17.311,41.044 5.376,87.949 34.031,122.149c52.257,61.853 124.555,104.289 204.776,120.197c20.948,4.943 42.732,5.408 63.877,1.368c47.366,-10.749 79.603,-53.553 105.074,-93.617c131.544,-201.302 244.775,-421.953 267.861,-659.996c6.334,-48.555 4.043,-97.819 -6.765,-145.603c-10.787,-37.14 -26.016,-72.897 -45.374,-106.516c-33.873,-68.682 -76.904,-132.631 -127.959,-190.162c-90.547,-95.762 -215.52,-154.59 -343.877,-189.379c-144.375,-39.344 -295.127,-50.957 -443.978,-34.204c-39.801,4.498 -78.009,10.947 -117.215,13.488c-49.22,2.247 -98.538,1.464 -147.66,-2.347l-292.933,-17.199c-16.716,33.421 0,73.094 19.902,104.366c19.899,31.271 44.574,63.712 42.984,100.845c-1.593,37.136 -28.457,66.451 -49.157,97.722c-20.695,31.268 -36.417,71.723 -15.717,102.212c20.695,30.489 62.882,32.445 99.501,32.054l147.66,-1.565c25.72,-2.595 51.677,1.801 75.023,12.706c29.451,17.392 41.99,53.354 45.773,86.969c0.824,33.816 4.685,67.501 11.54,100.651c10.149,32.441 37.613,63.128 72.042,62.737c9.635,-1.891 19.618,-1.147 28.856,2.149c8.551,6.624 13.663,16.665 13.927,27.36c10.349,61.175 -8.756,174.136 56.319,208.142c65.072,34.006 167.362,5.671 220.495,-35.567Z" style="fill:#663d5c;fill-rule:nonzero;"/><path d="M10033.3,4166.62c-150.165,-15.664 -292.571,73.629 -341.29,214.004c-79.603,222.607 -212.338,624.235 -179.104,782.931c46.767,224.95 101.892,599.998 101.892,599.998c0,0 241.789,136.807 119.399,274.788c-122.385,137.977 -157.011,333.418 -157.011,333.418c0,0 -157.016,66.645 -190.846,208.336c-33.83,141.696 -263.084,337.327 -263.084,337.327l-343.479,337.524c0,0 568.355,566.774 682.979,595.698l352.038,-404.165l415.717,-541.565l360.597,-371.333c0,0 84.774,-195.437 42.389,-566.774c-42.389,-371.332 -207.959,-724.882 -207.959,-724.882l12.735,-125.081c0,0 39.005,-896.087 -404.973,-950.224Z" style="fill-opacity:0.1;fill-rule:nonzero;"/><path d="M10067.1,4166.62c-150.027,-15.475 -292.204,73.78 -340.892,214.004c-79.602,222.607 -212.337,624.235 -179.103,782.931c46.565,224.95 101.69,599.998 101.69,599.998c0,0 241.789,136.807 119.404,274.788c-122.39,137.977 -156.815,333.418 -156.815,333.418c0,0 -157.016,66.645 -191.043,208.336c-34.03,141.696 -262.886,337.327 -262.886,337.327l-343.677,337.524c0,0 568.352,566.774 682.979,595.698l352.038,-404.165l414.724,-541.565l360.593,-371.333c0,0 84.974,-195.437 42.388,-566.774c-42.586,-371.332 -207.758,-724.882 -207.758,-724.882l12.736,-125.081c0,0 39.6,-896.087 -404.378,-950.224Z" style="fill:#585b8a;fill-rule:nonzero;"/><path d="M9711.84,5434.43c0,0 360.597,433.094 513.432,337.331c152.835,-95.767 -513.432,-337.331 -513.432,-337.331Z" style="fill-opacity:0.1;fill-rule:nonzero;"/><path d="M9847.56,5101c38.207,12.508 352.239,441.692 513.432,390.879c161.192,-50.814 -513.432,-390.879 -513.432,-390.879Z" style="fill-opacity:0.1;fill-rule:nonzero;"/><path d="M9936.74,5838.22c0,0 21.291,245.864 279.996,212.443c258.706,-33.422 -279.996,-212.443 -279.996,-212.443Z" style="fill-opacity:0.1;fill-rule:nonzero;"/><path d="M8793.47,3855.28l-139.898,306.253l174.725,-174.137l-34.827,-132.116Z" style="fill-opacity:0.1;fill-rule:nonzero;"/><path d="M8793.47,3838.67l-139.898,306.252l174.725,-174.136l-34.827,-132.116Z" style="fill:#f0f3f7;fill-rule:nonzero;"/><path d="M8230.07,7505.29l-104.277,-21.692l-191.441,-353.158l19.303,-126.256l276.415,501.106Z" style="fill-opacity:0.3;fill-rule:nonzero;"/><path d="M10045.2,7486.93l-22.885,117.067l0,0.194l-271.442,217.525l-102.486,-21.305l396.813,-313.481Z" style="fill-opacity:0.3;fill-rule:nonzero;"/><path d="M5768.4,6120.21c-52.537,8.599 -103.484,16.416 -150.05,22.28c-258.706,33.418 -874.025,-266.579 -874.025,-266.579c0,0 -750.839,-616.612 -967.156,-1199.8c-216.317,-583.19 258.706,-670.745 258.706,-670.745c179.103,-100.066 568.552,179.021 623.677,224.95c55.124,45.929 101.887,162.408 97.509,237.458c-4.378,75.047 127.363,170.814 127.363,170.814c0,0 224.876,383.255 280.001,424.885c55.124,41.629 67.86,79.152 84.773,150.097c16.917,70.944 165.373,129.184 229.053,124.884c63.683,-4.3 139.302,20.913 139.302,54.137c0,26.774 62.291,40.064 113.432,44.364c15.126,213.616 30.051,493.486 37.415,683.257Z" style="fill-opacity:0.1;fill-rule:nonzero;"/><path d="M5766,6059.24c-39.801,6.255 -78.009,11.922 -113.83,16.613c-258.702,33.418 -873.824,-266.579 -873.824,-266.579c0,0 -750.839,-616.612 -967.156,-1199.8c-216.317,-583.191 258.702,-670.745 258.702,-670.745c179.103,-100.066 568.355,179.021 623.479,224.95c55.125,45.929 101.892,162.408 97.711,237.458c-4.177,75.047 127.166,170.813 127.166,170.813c0,0 224.872,383.256 279.996,424.885c55.125,41.63 67.861,79.153 84.975,150.098c17.114,70.944 165.373,128.99 229.053,124.884c63.68,-4.102 139.302,20.913 139.302,54.137c0,19.546 35.423,32.639 74.826,39.088c1.594,22.672 2.986,46.712 4.777,71.727c13.134,192.118 26.667,437.195 34.823,622.473Z" style="fill-opacity:0.1;fill-rule:nonzero;"/><path d="M6750.08,5639.66l-16.116,374.458l-17.315,0l-35.822,-19.542l4.378,-322.669c20.913,-12.078 42.582,-22.85 64.875,-32.247Z" style="fill-opacity:0.1;fill-rule:nonzero;"/><path d="M4035.87,3971.96c0,0 -475.023,87.559 -258.706,670.749c216.317,583.19 967.156,1200 967.156,1200c0,0 615.122,299.803 874.025,266.575c258.903,-33.223 653.133,-120.778 704.076,-108.27c50.944,12.508 394.624,12.508 394.624,12.508l16.917,-390.879l-398.008,-20.913l-203.581,-41.626c0,0 -72.239,-58.634 -114.628,-50.035c-42.388,8.599 -131.342,-50.031 -131.342,-50.031c0,0 -68.058,-54.137 -119.4,-54.137c-51.346,0 -148.457,-12.508 -148.457,-45.732c0,-33.227 -76.419,-58.634 -139.302,-54.137c-62.887,4.494 -213.134,-54.137 -230.647,-125.864c-17.512,-71.727 -29.652,-108.274 -84.777,-149.9c-55.124,-41.629 -279.997,-425.082 -279.997,-425.082c0,0 -131.54,-95.763 -127.363,-170.616c4.181,-74.853 -42.388,-191.726 -97.513,-237.655c-55.12,-45.929 -445.169,-324.819 -623.077,-224.951Z" style="fill:#dce6f2;fill-rule:nonzero;"/><path d="M5257.74,5313.46c0,0 -182.488,179.218 -135.922,212.442l135.922,-212.442Z" style="fill-opacity:0.1;fill-rule:nonzero;"/><path d="M5452.78,5455.16c0,0 -237.608,179.215 -173.928,191.723c63.679,12.508 173.928,-191.723 173.928,-191.723Z" style="fill-opacity:0.1;fill-rule:nonzero;"/><path d="M5049.61,5720.96c34.031,16.807 538.707,312.702 729.749,308.403l-729.749,-308.403Z" style="fill-opacity:0.1;fill-rule:nonzero;"/><path d="M5083.84,3742.91c0,0 -89.155,287.489 -123.186,287.489c-26.667,0 -474.424,-356.09 -661.289,-505.796l8.16,-6.647c0,0 16.917,-129.184 84.778,-195.438c67.856,-66.253 691.537,420.392 691.537,420.392Z" style="fill-opacity:0.1;fill-rule:nonzero;"/><path d="M5066.72,3709.49c0,0 -88.958,287.489 -122.985,287.489c-26.868,0 -474.625,-356.09 -661.49,-505.796l8.16,-6.643c0,0 17.114,-129.188 84.975,-195.442c67.86,-66.253 691.34,420.392 691.34,420.392Z" style="fill:#dce6f2;fill-rule:nonzero;"/><path d="M9618.13,3357.7c-21.169,3.874 -42.933,3.343 -63.881,-1.565c-80.119,-15.897 -152.334,-58.254 -204.575,-119.999c-28.856,-34.398 -51.539,-81.303 -34.027,-122.343c13.927,-33.03 50.545,-53.746 59.7,-88.144c4.138,-20.998 2.978,-42.675 -3.384,-63.127l-21.492,-96.352c-6.169,-27.363 -16.917,-59.61 -44.578,-66.06c-27.661,-6.449 -50.746,15.832 -72.436,32.639c-53.132,41.238 -155.225,69.384 -218.904,35.378c-63.68,-34.007 -45.97,-146.972 -56.32,-208.143c-0.343,-10.676 -5.439,-20.685 -13.927,-27.363c-9.328,-3.188 -19.346,-3.932 -29.057,-2.15c-34.425,0 -61.889,-30.291 -72.037,-62.737c-6.899,-33.138 -10.693,-66.83 -11.344,-100.651c-3.98,-33.614 -16.317,-69.577 -45.97,-86.969c-23.377,-10.811 -49.311,-15.2 -75.023,-12.705l-147.664,1.564c-36.417,0 -79.599,-2.343 -99.501,-32.05c-19.899,-29.71 -5.175,-71.924 15.722,-102.215c20.896,-30.296 47.362,-60.393 49.152,-97.719c1.791,-37.33 -22.884,-69.577 -42.984,-100.849c-11.525,-17.098 -20.005,-36.001 -25.073,-55.896l-42.389,-2.541c-16.518,33.228 0,72.901 19.903,104.366c19.898,31.465 44.775,63.713 42.984,100.651c-1.791,36.939 -28.26,66.645 -49.153,97.719c-20.896,31.074 -36.22,71.727 -15.524,102.216c20.695,30.489 62.685,32.639 99.501,32.247l147.66,-1.758c25.736,-2.448 51.669,2.01 75.027,12.899c29.652,17.392 42.187,53.355 45.97,86.969c0.627,33.832 4.492,67.529 11.54,100.651c9.952,32.248 37.613,63.128 72.042,62.539c9.647,-1.673 19.571,-0.933 28.856,2.15c8.515,6.74 13.611,16.819 13.927,27.557c10.349,60.978 -8.756,174.137 56.319,208.143c65.076,34.006 166.565,5.864 218.905,-35.374c21.689,-16.807 45.769,-39.088 72.637,-32.832c26.864,6.252 38.405,39.088 44.376,66.056l21.69,96.549c6.303,20.468 7.395,42.144 3.187,63.127c-9.952,34.2 -46.767,55.114 -60.698,87.946c-17.311,41.045 5.175,88.143 34.031,122.347c52.592,62.008 125.343,104.393 205.967,120c20.948,4.904 42.712,5.438 63.881,1.561c34.2,-10.238 63.569,-32.147 82.785,-61.757c-10.87,7.399 -23.002,12.83 -35.821,16.025l0,0Z" style="fill-opacity:0.1;fill-rule:nonzero;"/><g><path d="M1915.49,10641.1c0,0 88.608,115.771 -40.746,291.05c-129.359,175.28 -236.075,323.392 -194.034,431.405c0,-0.001 194.034,-323.392 355.73,-329.213c161.691,-5.821 54.004,-197.917 -120.95,-393.242Z" style="fill:#3855be;fill-rule:nonzero;"/><path d="M1915.49,10641.1c7.899,11.046 14.012,23.271 18.112,36.217c155.225,182.396 237.692,352.175 88.608,355.733c-138.737,3.88 -305.283,252.242 -345.058,314.979c1.212,4.834 2.725,9.584 4.525,14.23c1.804,4.646 194.037,-323.388 355.733,-329.209c161.692,-5.825 53.034,-196.625 -121.921,-391.95Z" style="fill-opacity:0.1;fill-rule:nonzero;"/><path d="M2080.42,10788.5c0,40.746 -4.85,73.729 -10.35,73.729c-5.496,0 -10.346,-32.338 -10.346,-73.729c0,-41.396 5.821,-21.346 11.317,-21.346c5.5,0 9.379,-19.404 9.379,21.346Z" style="fill:#ffd037;fill-rule:nonzero;"/><path d="M2136.69,10837.4c-35.576,19.404 -66.942,32.342 -69.53,26.196c-2.587,-6.146 23.93,-24.579 59.825,-44.304c35.9,-19.73 21.671,-5.175 24.259,0c2.583,5.175 21.341,-1.617 -14.555,18.108Z" style="fill:#ffd037;fill-rule:nonzero;"/><path d="M1447.87,10641.1c0,0 -88.609,115.771 40.746,291.05c129.358,175.28 236.399,323.392 194.033,431.405c0,-0.001 -194.034,-323.392 -354.113,-329.213c-160.075,-5.821 -56.591,-197.917 119.334,-393.242Z" style="fill:#3855be;fill-rule:nonzero;"/><path d="M1447.87,10641.1c-7.729,11.15 -13.829,23.346 -18.113,36.217c-155.225,182.396 -237.691,352.175 -88.608,355.733c138.737,3.88 305.283,252.242 345.383,314.979c-1.329,4.838 -2.946,9.592 -4.854,14.23c-1.904,4.641 -194.033,-323.388 -354.108,-329.209c-160.079,-5.825 -55.625,-196.625 120.3,-391.95Z" style="fill-opacity:0.1;fill-rule:nonzero;"/><path d="M1283.26,10788.5c0,40.746 4.53,73.729 10.025,73.729c5.5,0 10.35,-32.338 10.35,-73.729c0,-41.396 -5.82,-21.346 -11.316,-21.346c-5.5,0 -9.059,-19.404 -9.059,21.346Z" style="fill:#ffd037;fill-rule:nonzero;"/><path d="M1226.67,10837.4c35.896,19.404 66.941,32.342 69.854,26.196c2.908,-6.146 -24.254,-24.579 -60.154,-44.304c-35.896,-19.73 -21.667,-5.175 -24.255,0c-2.583,5.175 -21.341,-1.617 14.555,18.108Z" style="fill:#ffd037;fill-rule:nonzero;"/><ellipse cx="1681.67" cy="12107" rx="925.867" ry="141.967" style="fill:#3855be;fill-opacity:0.1;"/><path d="M2158.35,11207l-4.529,36.217l-6.142,51.095l-2.587,21.346l-6.146,51.096l-2.908,21.342l-6.146,51.096l-70.821,582.104c-6.146,51.742 -90.875,92.166 -194.038,92.166l-366.72,0.001c-102.192,-0.001 -186.921,-40.426 -194.038,-92.167l-70.821,-582.104l-6.146,-51.096l-2.587,-21.342l-6.467,-51.096l-2.587,-21.345l-6.142,-51.096l-4.529,-36.217c-3.558,-29.429 42.362,-54.008 100.25,-54.008l753.175,0c57.567,0 103.487,24.579 99.929,54.008Z" style="fill:#65617d;fill-rule:nonzero;"/><path d="M2153.82,11243.2l-6.142,51.096l-932.012,0l-6.142,-51.096l944.296,0Z" style="fill:#9d9cb5;fill-rule:nonzero;"/><path d="M2145.1,11315.7l-6.146,51.096l-914.225,0l-6.467,-51.096l926.838,0Z" style="fill:#9d9cb5;fill-rule:nonzero;"/><path d="M2136.36,11388.1l-6.467,51.096l-896.438,0l-6.145,-51.096l909.05,0Z" style="fill:#9d9cb5;fill-rule:nonzero;"/></g><g><ellipse cx="10970.4" cy="11636" rx="779.071" ry="119.583" style="fill:#3855be;fill-opacity:0.1;"/><path d="M10356.4,10490.1c0,0 -110.237,513.146 380.025,573.746l30.3,-57.054c0,0 -380.025,-357.463 -410.325,-516.692Z" style="fill:#3855be;fill-rule:nonzero;"/><path d="M10922.7,11002.6l-114.104,24.175l-11.283,2.575c0,0 -304.279,-246.904 -300.409,-798.083c40.663,81.266 89.363,158.258 145.371,229.821c120.55,159.55 257.538,372.287 280.425,541.512Z" style="fill:#3855be;fill-rule:nonzero;"/><path d="M10961,11055.5c-18.134,11.808 -40.675,14.775 -61.246,8.058c-292.675,-68.333 -193.396,-1022.1 -193.396,-1022.1c16.117,7.413 32.233,128.934 101.213,285.584c117.65,274.945 247.545,659.487 153.429,728.462Z" style="fill:#3855be;fill-rule:nonzero;"/><path d="M11610.2,10490.1c0,0 19.017,513.146 -471.246,573.746l-30.62,-58.021c0,0 471.566,-356.496 501.866,-515.725Z" style="fill:#3855be;fill-rule:nonzero;"/><path d="M11469.7,10232.2c3.866,551.183 -391.309,798.083 -391.309,798.083l-11.604,-2.575l-113.779,-24.175c22.563,-169.225 161.163,-381.962 280.104,-541.512c68.275,-86.8 147.842,-164.092 236.588,-229.821Z" style="fill:#3855be;fill-rule:nonzero;"/><path d="M11065.2,11005.8c-17.334,21.421 -39.4,38.525 -64.467,49.963c-7.762,3.5 -15.867,6.2 -24.175,8.058c-71.879,16.758 -96.7,-35.133 -92.833,-123.454c6.77,-156.971 105.404,-429.342 193.4,-633.375c42.379,-100.1 104.925,-190.404 183.725,-265.275c78.804,-74.875 -4.513,742.321 -195.65,964.083Z" style="fill:#3855be;fill-rule:nonzero;"/><path d="M10983.3,9706.88c0,0 -326.842,1160.38 -45.446,1333.8c281.391,173.412 117.65,-1231.3 45.446,-1333.8Z" style="fill:#3855be;fill-rule:nonzero;"/><path d="M10356.4,10490.1c0,0 -110.237,513.146 380.025,573.746l30.3,-57.054c0,0 -380.025,-357.463 -410.325,-516.692Z" style="fill-opacity:0.1;fill-rule:nonzero;"/><path d="M10922.7,11002.6l-114.104,24.175l-11.283,2.575c0,0 -304.279,-246.904 -300.409,-798.083c40.663,81.266 89.363,158.258 145.371,229.821c120.55,159.55 257.538,372.287 280.425,541.512Z" style="fill-opacity:0.1;fill-rule:nonzero;"/><path d="M10961,11055.5c-18.134,11.808 -40.675,14.775 -61.246,8.058c-292.675,-68.333 -193.396,-1022.1 -193.396,-1022.1c16.117,7.413 32.233,128.934 101.213,285.584c117.65,274.945 247.545,659.487 153.429,728.462Z" style="fill-opacity:0.1;fill-rule:nonzero;"/><path d="M11610.2,10490.1c0,0 19.017,513.146 -471.246,573.746l-30.62,-58.021c0,0 471.566,-356.496 501.866,-515.725Z" style="fill-opacity:0.1;fill-rule:nonzero;"/><path d="M11469.7,10232.2c3.866,551.183 -391.309,798.083 -391.309,798.083l-11.604,-2.575l-113.779,-24.175c22.563,-169.225 161.163,-381.962 280.104,-541.512c68.275,-86.8 147.842,-164.092 236.588,-229.821Z" style="fill-opacity:0.1;fill-rule:nonzero;"/><path d="M11065.2,11005.8c-17.334,21.421 -39.4,38.525 -64.467,49.963c-7.762,3.5 -15.867,6.2 -24.175,8.058c-71.879,16.758 -96.7,-35.133 -92.833,-123.454c6.77,-156.971 105.404,-429.342 193.4,-633.375c42.379,-100.1 104.925,-190.404 183.725,-265.275c78.804,-74.875 -4.513,742.321 -195.65,964.083Z" style="fill-opacity:0.1;fill-rule:nonzero;"/><path d="M10983.3,9706.88c0,0 -326.842,1160.38 -45.446,1333.8c281.391,173.412 117.65,-1231.3 45.446,-1333.8Z" style="fill-opacity:0.1;fill-rule:nonzero;"/><path d="M10356.4,10490.1c0,0 -64.467,513.146 425.475,573.746l30.3,-57.054c0,0 -425.475,-357.463 -455.775,-516.692Z" style="fill:#3855be;fill-rule:nonzero;"/><path d="M10968.1,11002.6l-114.108,24.175l-11.279,2.575c0,0 -349.73,-246.904 -346.825,-797.117c0,0 89.604,96.696 190.816,229.821c121.517,158.584 258.509,371.321 281.396,540.546Z" style="fill:#3855be;fill-rule:nonzero;"/><path d="M10968.1,11002.6l-114.108,24.175c-107.979,-94.767 -150.85,-342.317 -166.321,-565.687c120.55,159.55 257.542,372.287 280.429,541.512Z" style="fill-opacity:0.1;fill-rule:nonzero;"/><path d="M11006.8,11055.5c-18.25,11.817 -40.891,14.783 -61.566,8.058c-292.675,-68.333 -239.167,-1022.1 -239.167,-1022.1c16.117,7.413 79.292,128.934 146.658,285.584c118.296,274.945 247.871,659.487 154.075,728.462Z" style="fill:#3855be;fill-rule:nonzero;"/><path d="M11610.2,10490.1c0,0 64.463,513.146 -425.475,573.746l-30.3,-57.054c0,0 425.475,-357.463 455.775,-516.692Z" style="fill:#3855be;fill-rule:nonzero;"/><path d="M11469.7,10232.2c3.866,551.183 -345.859,798.083 -345.859,798.083l-11.283,-2.575l-114.104,-24.175c22.562,-169.225 161.166,-381.962 280.429,-541.512c101.208,-133.125 190.817,-229.821 190.817,-229.821Z" style="fill:#3855be;fill-rule:nonzero;"/><path d="M11278.9,10461.1c-14.829,208.221 -52.862,437.4 -145.371,544.413c-6.321,7.712 -13.337,14.833 -20.954,21.275l-114.104,-24.175c22.562,-169.225 159.875,-381.963 280.429,-541.513Z" style="fill-opacity:0.1;fill-rule:nonzero;"/><path d="M11110.6,11005.8c-17.237,21.517 -39.329,38.638 -64.467,49.963c-7.666,3.458 -15.654,6.154 -23.85,8.058c-72.204,16.758 -96.7,-35.133 -93.154,-123.454c7.092,-156.971 105.725,-429.342 193.396,-633.375c64.467,-146.658 122.808,-257.862 138.279,-265.275c0,-0.325 40.938,742.321 -150.204,964.083Z" style="fill:#3855be;fill-rule:nonzero;"/><path d="M11006.8,11055.5c-16.662,0.188 -32.95,-5.012 -46.416,-14.825c-137.634,-85.742 -140.538,-407.425 -107.659,-713.637c118.296,274.945 247.871,659.487 154.075,728.462Z" style="fill-opacity:0.1;fill-rule:nonzero;"/><path d="M11110.6,11005.8c-15.792,34.492 -37.067,52.542 -64.467,49.963c-14.012,-1.696 -27.4,-6.783 -39,-14.829c-35.854,-24.555 -63.137,-59.73 -78.004,-100.567c7.092,-156.971 105.725,-429.342 193.396,-633.375c31.592,282.683 42.225,582.45 -11.925,698.808Z" style="fill-opacity:0.1;fill-rule:nonzero;"/><path d="M10983.3,9706.88c0,0 -281.071,1160.38 0,1333.8c281.07,173.412 72.204,-1231.3 0,-1333.8Z" style="fill:#3855be;fill-rule:nonzero;"/><path d="M11522.9,10983.9l-1170.38,0l0,193.721l178.571,0l4.512,22.883l71.554,376.158l680.438,0l71.558,-376.158l4.192,-22.883l159.55,0l0,-193.721Z" style="fill:#4b4770;fill-rule:nonzero;"/><path d="M11522.9,10983.9l-1170.38,0l0,193.721l178.571,0l4.512,22.883l71.554,376.158l680.438,0l71.558,-376.158l4.192,-22.883l159.55,0l0,-193.721Z" style="fill-opacity:0.1;fill-rule:nonzero;"/><path d="M11424.2,11097.7l-19.658,102.821l-71.559,376.158l-680.437,0.001l-71.558,-376.159l-19.659,-102.821l862.871,0Z" style="fill:#4b4770;fill-rule:nonzero;"/><path d="M11424.2,11097.7l-19.658,102.821l-823.554,0l-19.659,-102.821l862.871,0Z" style="fill-opacity:0.1;fill-rule:nonzero;"/><rect x="10398" y="10983.9" width="1170.38" height="193.721" style="fill:#4b4770;"/></g><path d="M6041.12,1054.12l36.371,0c-24.375,-10.312 -41.4,-32.983 -44.513,-59.267c0,-46.804 69.95,-84.958 155.417,-84.958l1087.66,0c85.463,0 155.159,38.154 155.159,84.958c0,46.546 -69.696,84.955 -155.159,84.955l-36.375,0c24.404,10.137 41.471,32.762 44.513,59.012c0,39.938 -50.871,73.513 -118.788,82.417l313.121,0c85.213,0 155.163,38.154 155.163,84.954c0,46.804 -69.95,84.958 -155.163,84.958l-1087.91,0c-85.209,0 -155.159,-38.408 -155.159,-84.958c0,-39.933 50.871,-73.254 118.788,-82.413l-313.121,0c-85.467,0 -155.163,-38.154 -155.163,-84.958c0.001,-46.8 69.696,-84.7 155.163,-84.7Z" style="fill:#3855be;fill-opacity:0.1;fill-rule:nonzero;"/><path d="M10711.8,2404.8l37.863,0c-25.271,-10.808 -42.884,-34.392 -46.071,-61.692c0,-48.716 72.546,-88.433 161.508,-88.433l1132.15,0c88.958,0 161.771,39.717 161.771,88.433c0,48.455 -72.813,88.167 -161.771,88.167l-37.6,0c25.271,10.808 42.883,34.392 46.071,61.692c0,41.566 -52.954,76.516 -123.646,85.783l325.929,0c88.963,0 161.508,39.717 161.508,88.433c0,48.717 -72.545,88.434 -161.508,88.434l-1132.15,0c-88.962,0 -161.771,-39.979 -161.771,-88.434c0,-41.566 52.95,-76.516 123.646,-85.783l-325.929,0c-88.7,0 -161.508,-39.717 -161.508,-88.433c0,-48.717 72.808,-88.167 161.508,-88.167Z" style="fill:#3855be;fill-opacity:0.1;fill-rule:nonzero;"/><path d="M1378.12,4914.79l32.854,0c-22.112,-9.409 -37.517,-30.034 -40.254,-53.909c0,-42.337 63.621,-77.275 141.125,-77.275l989.521,0c77.504,0 141.129,34.938 141.129,77.275c0,42.571 -63.625,77.275 -141.129,77.275l-33.084,0c22.138,9.246 37.579,29.834 40.254,53.675c0,36.321 -46.27,66.863 -108.041,74.959l284.8,0c77.737,0 141.358,34.937 141.358,77.275c0,42.337 -63.621,77.275 -141.358,77.275l-988.363,0c-77.737,0 -141.129,-34.704 -141.129,-77.275c0,-36.092 46.275,-66.634 108.046,-74.963l-285.729,0c-77.734,0 -141.359,-34.7 -141.359,-77.271c0,-42.571 64.55,-77.041 141.359,-77.041Z" style="fill:#3855be;fill-opacity:0.1;fill-rule:nonzero;"/><circle cx="1379.5" cy="1597.13" r="221.787" style="fill:#3855be;fill-opacity:0.1;"/><circle cx="1761.17" cy="791.392" r="296.85" style="fill:#3855be;fill-opacity:0.1;"/><circle cx="616.175" cy="2148.42" r="296.85" style="fill:#3855be;fill-opacity:0.1;"/></svg>