<?xml version="1.0" encoding="UTF-8" standalone="no"?><!DOCTYPE svg PUBLIC "-//W3C//DTD SVG 1.1//EN" "http://www.w3.org/Graphics/SVG/1.1/DTD/svg11.dtd"><svg width="100%" height="100%" viewBox="0 0 3307 3450" version="1.1" xmlns="http://www.w3.org/2000/svg" xmlns:xlink="http://www.w3.org/1999/xlink" xml:space="preserve" xmlns:serif="http://www.serif.com/" style="fill-rule:evenodd;clip-rule:evenodd;stroke-miterlimit:10;"><path d="M649.849,1192.52c0,-315.651 462.844,-571.536 1033.79,-571.536c570.947,0 1033.79,255.885 1033.79,571.536" style="fill:none;fill-rule:nonzero;stroke:#3f3d56;stroke-width:8.33px;"/><path d="M2008.7,841.045l-841.044,0c-166.347,-280.349 -166.347,-560.697 0,-841.045l841.044,0c-232.591,280.348 -232.591,560.697 0,841.045Z" style="fill:#fff;fill-rule:nonzero;"/><rect x="1287.8" y="100.124" width="473.922" height="60.075" style="fill:#3a69da;"/><rect x="1134.28" y="297.036" width="627.446" height="20.025" style="fill:#f3f5fb;"/><rect x="1134.28" y="400.498" width="627.446" height="20.025" style="fill:#f3f5fb;"/><rect x="1134.28" y="503.959" width="627.446" height="20.025" style="fill:#f3f5fb;"/><path d="M1490.96,657.007c4.871,2.233 10.73,-1.096 13.601,-5.62c10.934,-17.227 -9.196,-39.44 -4.837,-59.372c3.492,-15.969 21.638,-25.447 25.348,-41.367c3.605,-15.468 -7.504,-32.904 0.005,-46.901c5.882,-10.965 20.575,-13.851 32.869,-11.93c12.295,1.921 23.964,7.326 36.385,8.083c16.55,1.009 32.327,-6.277 48.51,-9.886c16.184,-3.61 35.924,-2.197 45.444,11.379c12.225,17.431 -0.176,41.704 4.081,62.564c3.38,16.565 17.247,30.281 17.545,47.185c0.106,6.008 -15.688,1.168 -14.849,7.118c0.84,5.95 -6.625,0.711 -0.658,0.004c4.987,-1.221 8.633,-5.559 8.98,-10.681c0.71,-4.956 10.023,-6.608 9.916,-11.613c-0.252,-11.73 20.955,-3.821 24.448,-15.022c8.03,-26.105 6.381,-54.25 -4.642,-79.239c-4.756,-10.671 -11.234,-20.77 -13.528,-32.225c-3.116,-15.553 1.786,-32.25 -3.352,-47.257c-6.925,-20.224 -29.839,-30.533 -51.113,-32.627c-21.274,-2.094 -42.893,1.654 -64.045,-1.433c-18.949,-2.766 -37.294,-10.979 -56.406,-9.789c-22.934,1.428 -42.891,16.204 -58.788,32.795c-15.897,16.592 -29.383,35.674 -47.437,49.887c-5.528,3.804 -10.628,8.194 -15.211,13.095c-9.196,11.206 -10.128,27.17 -7.57,41.439c2.558,14.268 8.124,27.879 10.474,42.184c2.209,13.443 1.528,27.177 2.479,40.766c0.951,13.59 3.772,27.592 11.957,38.482c6.636,9.008 17.076,14.463 28.261,14.765c3.826,0.088 7.058,-3.351 10.921,-2.454c4.828,1.121 6.927,5.705 11.212,7.67Z" style="fill:#2f2e41;fill-rule:nonzero;"/><path d="M1327.28,1644.61l14.183,87.133l28.371,-38.504l-16.212,-58.763l-26.342,10.133Z" style="fill:#a0616a;fill-rule:nonzero;"/><path d="M1345.51,986.044l-22.335,58.86c0,0 -22.245,299.806 -22.245,322.096c0,22.29 16.211,308.007 22.29,320.165c0,0 26.343,-38.501 60.791,-32.422c34.448,6.079 20.264,-101.318 20.264,-101.318l32.422,-265.453l-6.08,-133.74l-85.107,-168.188Z" style="fill:#575a89;fill-rule:nonzero;"/><path d="M1345.51,986.044l-22.335,58.86c0,0 -22.245,299.806 -22.245,322.096c0,22.29 16.211,308.007 22.29,320.165c0,0 26.343,-38.501 60.791,-32.422c34.448,6.079 20.264,-101.318 20.264,-101.318l32.422,-265.453l-6.08,-133.74l-85.107,-168.188Z" style="fill-opacity:0.1;fill-rule:nonzero;"/><path d="M1483.31,661.827c0,0 66.87,170.214 28.369,202.636c-38.501,32.421 214.794,-54.712 214.794,-54.712l-6.079,-22.29c0,0 -83.081,-32.422 -42.554,-125.634c40.527,-93.213 -194.53,0 -194.53,0Z" style="fill:#a0616a;fill-rule:nonzero;"/><path d="M1483.31,661.827c0,0 66.87,170.214 28.369,202.636c-38.501,32.421 214.794,-54.712 214.794,-54.712l-6.079,-22.29c0,0 -83.081,-32.422 -42.554,-125.634c40.527,-93.213 -194.53,0 -194.53,0Z" style="fill-opacity:0.1;fill-rule:nonzero;"/><path d="M1377.93,2935.4c0,0 -28.369,-8.106 -44.58,12.158c-16.211,20.264 -77.001,70.923 -77.001,70.923c0,0 -117.529,-12.159 -133.74,46.606c-16.211,58.765 184.399,58.765 233.031,44.58c48.633,-14.185 58.765,0 58.765,0c0,0 149.95,12.158 149.95,-12.158c0,-24.317 -14.184,-107.397 -14.184,-107.397l-172.241,-54.712Z" style="fill:#575a89;fill-rule:nonzero;"/><path d="M1854.13,3071.17l-26.343,81.054c0,0 -79.028,109.424 -34.448,131.714c44.58,22.29 202.636,44.58 202.636,-14.185l0,-111.45c0,0 -16.211,-79.028 -32.422,-87.133c-16.211,-8.105 -109.423,0 -109.423,0Z" style="fill:#575a89;fill-rule:nonzero;"/><path d="M1406.63,1614.96c0,0 -85.435,74.23 -83.408,84.362c2.026,10.132 42.553,660.593 42.553,660.593l22.29,421.483c0,0 -28.369,99.291 -14.184,121.581c14.184,22.29 -20.264,28.369 -20.264,28.369c0,0 145.898,131.714 206.689,74.975l56.738,-735.568l156.029,534.959c0,0 26.343,283.69 56.738,283.69c30.396,0 154.004,6.079 151.977,-10.132c-2.026,-16.211 6.08,-139.818 -8.105,-212.767c-14.185,-72.949 -109.423,-650.462 -109.423,-650.462c0,0 -8.188,-495.091 13.13,-541.367c21.318,-46.277 -11.104,-94.91 -11.104,-94.91l-141.845,-54.711l-170.214,20.263l-147.597,69.642Z" style="fill:#2f2e41;fill-rule:nonzero;"/><circle cx="1578.54" cy="588.878" r="141.845" style="fill:#a0616a;"/><path d="M1923.03,894.858c-14.218,-40.231 -47.76,-70.723 -89.16,-81.054c-40.874,-10.282 -80.855,-23.834 -119.555,-40.527c-38.701,-16.693 -143.872,68.896 -172.241,68.896c-28.369,0 -28.369,-18.237 -28.369,-18.237c0,0 -72.949,77.001 -111.45,85.107c-38.5,8.105 -95.238,103.344 -74.975,156.029c13.763,33.777 33.691,64.699 58.765,91.186c25.073,26.487 -8.106,283.691 18.237,336.376c0,0 -64.844,123.608 -4.053,131.713c60.791,8.106 293.822,-20.263 334.349,8.106c40.528,28.369 115.503,-6.079 125.635,32.421c10.131,38.501 32.421,46.607 32.421,46.607c0,0 34.449,-54.712 14.185,-87.134c-20.264,-32.421 16.211,-729.489 16.211,-729.489Z" style="fill:#575a89;fill-rule:nonzero;"/><path d="M1773.07,1656.77l-32.421,20.264c0,0 34.448,119.555 48.632,123.608c14.185,4.052 47.573,-102.227 47.573,-102.227l-63.784,-41.645Z" style="fill:#a0616a;fill-rule:nonzero;"/><path d="M1466.64,642.822c4.871,2.234 10.73,-1.095 13.601,-5.619c10.934,-17.227 -9.196,-39.44 -4.837,-59.373c3.492,-15.969 21.638,-25.447 25.348,-41.366c3.605,-15.469 -7.504,-32.905 0.004,-46.901c5.883,-10.966 20.576,-13.851 32.87,-11.93c12.295,1.921 23.964,7.325 36.384,8.083c16.551,1.009 32.328,-6.277 48.511,-9.887c16.184,-3.61 35.924,-2.196 45.444,11.379c12.225,17.432 -0.176,41.704 4.081,62.565c3.38,16.565 41.889,28.192 45.382,16.99c8.03,-26.104 6.381,-54.25 -4.642,-79.238c-4.756,-10.671 -11.233,-20.77 -13.528,-32.226c-3.116,-15.553 1.786,-32.249 -3.352,-47.256c-6.925,-20.224 -29.839,-30.534 -51.113,-32.628c-21.274,-2.093 -42.893,1.655 -64.045,-1.433c-18.949,-2.766 -37.294,-10.978 -56.406,-9.788c-22.934,1.427 -42.891,16.204 -58.788,32.795c-15.897,16.591 -29.383,35.673 -47.437,49.887c-5.528,3.803 -10.628,8.194 -15.211,13.094c-9.196,11.206 -10.128,27.17 -7.57,41.439c2.558,14.269 8.124,27.88 10.474,42.184c2.209,13.443 1.528,27.177 2.479,40.767c0.951,13.59 3.772,27.592 11.957,38.482c6.636,9.008 17.076,14.462 28.261,14.764c3.826,0.088 7.058,-3.35 10.921,-2.454c4.828,1.121 6.927,5.706 11.212,7.67Z" style="fill:#2f2e41;fill-rule:nonzero;"/><path d="M1842.98,930.319l65.856,-35.461c0,0 160.083,380.956 121.582,486.326c-38.501,105.371 -186.425,322.191 -186.425,322.191c0,0 -117.529,-24.316 -105.371,-48.632c12.158,-24.317 91.186,-180.346 97.265,-200.61c6.079,-20.264 46.607,-151.977 28.369,-166.161c-18.237,-14.185 -53.698,-343.468 -53.698,-343.468l32.422,-14.185Z" style="fill-opacity:0.1;fill-rule:nonzero;"/><path d="M1841.97,872.568l81.055,22.29c0,0 160.082,380.956 121.581,486.326c-38.501,105.371 -186.425,322.191 -186.425,322.191c0,0 -117.529,-24.316 -105.371,-48.632c12.158,-24.317 91.187,-180.346 97.266,-200.61c6.079,-20.264 46.606,-151.977 28.369,-166.161c-18.238,-14.185 -105.371,-364.745 -105.371,-364.745l68.896,-50.659Z" style="fill:#575a89;fill-rule:nonzero;"/><path d="M2717.43,1192.52c0,330.937 -462.844,599.215 -1033.79,599.215c-570.947,0 -1033.79,-268.278 -1033.79,-599.215" style="fill:none;fill-rule:nonzero;stroke:#3f3d56;stroke-width:8.33px;"/><path d="M2529.39,1800.24c-231.079,124.629 -532.594,200.046 -862.422,200.046c-316.237,0 -606.446,-69.33 -833.5,-184.891" style="fill:none;fill-rule:nonzero;stroke:#3f3d56;stroke-width:8.33px;"/><path d="M2199.91,466.274c439.767,115.587 752.966,369.84 782.09,669.293" style="fill:none;fill-rule:nonzero;stroke:#3f3d56;stroke-width:8.33px;"/><path d="M413.18,940.929c74.099,-136.19 209.463,-256.042 386.819,-348.119" style="fill:none;fill-rule:nonzero;stroke:#3f3d56;stroke-width:8.33px;"/><path d="M1322.32,2398.78l841.045,0c166.346,-280.348 166.346,-560.696 0,-841.044l-841.045,0c232.591,280.348 232.591,560.696 0,841.044Z" style="fill:#fff;fill-rule:nonzero;"/><rect x="1600.61" y="1717.93" width="473.922" height="60.075" style="fill:#3a69da;"/><rect x="1563.9" y="1898.16" width="627.446" height="20.025" style="fill:#f3f5fb;"/><rect x="1563.9" y="2001.62" width="627.446" height="20.025" style="fill:#f3f5fb;"/><path d="M965.805,1827.91l-841.045,0c-166.347,-280.348 -166.347,-560.697 0,-841.045l841.045,0c-232.592,280.349 -232.592,560.697 0,841.045Z" style="fill:#fff;fill-rule:nonzero;"/><rect x="218.209" y="1087" width="473.922" height="60.075" style="fill:#3a69da;"/><rect x="114.747" y="1253.87" width="627.446" height="20.025" style="fill:#f3f5fb;"/><rect x="114.747" y="1357.33" width="627.446" height="20.025" style="fill:#f3f5fb;"/><rect x="114.747" y="1460.79" width="627.446" height="20.025" style="fill:#f3f5fb;"/><rect x="114.747" y="1564.25" width="627.446" height="20.025" style="fill:#f3f5fb;"/><path d="M2340.78,1440.5l841.044,0c166.347,-280.349 166.347,-560.697 0,-841.045l-841.044,0c232.591,280.348 232.591,560.696 0,841.045Z" style="fill:#fff;fill-rule:nonzero;"/><rect x="2609.05" y="682.893" width="473.922" height="60.075" style="fill:#3a69da;"/><rect x="2558.99" y="849.767" width="627.446" height="20.025" style="fill:#f3f5fb;"/></svg>