<?xml version="1.0" encoding="UTF-8" standalone="no"?><!DOCTYPE svg PUBLIC "-//W3C//DTD SVG 1.1//EN" "http://www.w3.org/Graphics/SVG/1.1/DTD/svg11.dtd"><svg width="100%" height="100%" viewBox="0 0 3146 3250" version="1.1" xmlns="http://www.w3.org/2000/svg" xmlns:xlink="http://www.w3.org/1999/xlink" xml:space="preserve" xmlns:serif="http://www.serif.com/" style="fill-rule:evenodd;clip-rule:evenodd;stroke-linejoin:round;stroke-miterlimit:1.41421;"><path d="M784.227,847.703l14.205,-11.655c56.734,-3.23 113.488,6.017 166.9,27.193c85.226,34.963 234.37,66.042 276.983,54.387c42.612,-11.654 145.594,-34.963 145.594,-34.963c0,0 113.633,-50.501 138.49,11.655c24.859,62.156 -152.695,62.156 -152.695,62.156c0,0 -126.063,56.329 -214.84,48.56c-88.775,-7.769 -204.186,36.905 -257.452,-9.712c-53.265,-46.617 -117.185,-147.621 -117.185,-147.621Z" style="fill:#fbbebe;fill-rule:nonzero;"/><ellipse cx="1567.08" cy="2847.19" rx="1554.21" ry="402.811" style="fill:#3855be;fill-opacity:0.1;"/><path d="M2897.45,2217.6l0,243.013l-64.259,129.632l-2.031,4.104l-170.069,-11.234l-65.375,-4.343l-151.744,-9.999l0,-290.699l151.744,4.262l67.844,1.913l171.663,4.86l62.227,-71.509Z" style="fill:#f86d70;fill-rule:nonzero;"/><path d="M2897.45,2231.94l0,228.672l-15.736,31.671l-16.055,32.468l-32.468,65.493l3.625,-243.012l0.717,-49.04l30.875,-34.142l13.465,-14.899l15.577,-17.211Z" style="fill-opacity:0.1;fill-rule:nonzero;"/><path d="M2906.13,2153.06l0,84.895l-8.684,13.903l-15.616,24.82l-13.784,21.991l-30.517,48.602l-0.717,-0.04l-406.229,-20.915l0,-83.7l1.036,-1.115l48.483,-52.507l17.569,-19.003l31.75,-34.34l376.709,17.409Z" style="fill:#f86d70;fill-rule:nonzero;"/><path d="M2837.53,2263.53l0,83.74l-406.946,-20.955l0,-83.7l1.036,-1.115l405.91,22.03Z" style="fill-opacity:0.1;fill-rule:nonzero;"/><path d="M2906.13,2153.06l0,84.895l-68.601,109.316l0,-83.74l68.601,-110.471Z" style="fill-opacity:0.15;fill-rule:nonzero;"/><path d="M2881.91,2192.14l-0.04,57.009l-0.039,27.528l-0.119,215.604l-16.055,32.468l2.39,-226.081l0.358,-34.62l0.558,-51.072l-388.86,-23.983l17.569,-19.003l384.238,22.15Z" style="fill:#3f3d56;fill-rule:nonzero;"/><path d="M2691.05,2194.93l-27.249,59.16l-0.239,30.157l-2.47,298.866l-65.374,-4.343l0,-328.624l34.858,-55.216l60.474,0Z" style="fill:#3f3d56;fill-rule:nonzero;"/><path d="M2601.34,2198.91c-15.748,5.259 -32.685,5.855 -48.762,1.714c-3.125,-0.613 -6.052,-1.981 -8.526,-3.985c-2.673,-2.954 -4.503,-6.573 -5.299,-10.477c-2.843,-8.06 -4.415,-16.514 -4.661,-25.058c-0.196,-8.674 3.668,-16.962 10.438,-22.389c1.427,-0.857 2.761,-1.859 3.984,-2.988c1.443,-1.835 2.488,-3.952 3.067,-6.214c4.781,-14.223 13.984,-29.202 28.803,-31.512c13.665,-2.072 26.095,7.449 36.651,16.413l23.107,19.68c5.287,-14.261 18.969,-23.781 34.179,-23.781c14.854,0 28.287,9.08 33.824,22.864c13.985,-15.79 31.633,-27.912 51.391,-35.296c4.2,-2.166 9.152,-2.356 13.506,-0.518c2.485,1.8 4.361,4.316 5.378,7.211c6.301,13.768 9.718,28.683 10.039,43.822c3.315,-1.134 7.006,0.135 8.923,3.067c1.779,2.914 2.793,6.231 2.949,9.641c0.623,5.289 0.929,10.611 0.916,15.935c0.596,5.614 -0.816,11.262 -3.984,15.936c-4.7,5.497 -12.868,6.055 -19.919,6.214c3.506,3.108 1.793,9.363 -2.072,11.952c-4.133,2.217 -8.841,3.134 -13.505,2.629c-17.966,0 -37.089,-0.677 -52.068,-10.637c-5.896,-3.984 -10.836,-9.202 -16.772,-13.146c-14.501,-9.601 -32.747,-10.039 -49.518,-9.243c-15.618,0.757 -27.648,13.306 -42.069,18.166Z" style="fill:#3f3d56;fill-rule:nonzero;"/><path d="M2598.03,2194.97c0,0 -149.99,20.915 -170.944,111.548l31.432,-4.621l22.07,39.519c0,0 23.265,-88.362 91.866,-109.316c68.602,-20.955 93.023,-24.381 93.023,-24.381c0,0 47.805,11.593 90.671,149.991l24.421,-33.743l43.025,9.322c0,0 -31.392,-108.161 -116.287,-138.358l-109.277,0.039Z" style="fill:#3f3d56;fill-rule:nonzero;"/><path d="M2687.82,2312.65l0,328.265l-86.767,175.049l0,0.04l-2.749,5.538l-229.747,-15.179l-88.321,-5.856l-204.967,-13.545l0,-392.645l204.967,5.777l91.668,2.589l231.898,6.534l84.018,-96.567Z" style="fill:#3855be;fill-rule:nonzero;"/><path d="M2687.82,2332.01l0,308.904l-21.194,42.746l0,0.041l-21.752,43.821l-43.821,88.441l4.9,-328.266l0.996,-66.211l41.67,-46.092l0,-0.04l18.167,-20.079l21.034,-23.265Z" style="fill-opacity:0.1;fill-rule:nonzero;"/><path d="M2699.61,2225.45l0,114.695l-11.792,18.764l-21.035,33.503l-18.644,29.72l-41.192,65.652l-0.996,-0.079l-548.731,-28.205l0,-113.101l1.355,-1.473l65.534,-70.913l23.703,-25.695l42.905,-46.412l508.893,23.544Z" style="fill:#3855be;fill-rule:nonzero;"/><path d="M2606.95,2374.68l0,113.1l-549.727,-28.285l0,-113.101l1.355,-1.473l548.372,29.759Z" style="fill-opacity:0.1;fill-rule:nonzero;"/><path d="M2699.61,2225.45l0,114.695l-92.663,147.639l0,-113.099l92.663,-149.235Z" style="fill-opacity:0.15;fill-rule:nonzero;"/><path d="M2666.87,2278.23l-0.08,77.046l0,37.129l-0.159,291.256l0,0.041l-21.752,43.821l3.267,-305.398l0.478,-46.73l0,-0.04l0.757,-69l-525.265,-32.349l23.703,-25.695l519.051,29.919Z" style="fill:#3f3d56;fill-rule:nonzero;"/><path d="M2409.03,2282.01l-36.81,79.915l-0.32,40.755l-3.346,403.68l-88.321,-5.856l0,-443.877l47.129,-74.617l81.668,0Z" style="fill:#3f3d56;fill-rule:nonzero;"/><path d="M2287.84,2287.39c-21.27,7.087 -44.139,7.889 -65.853,2.311c-4.217,-0.808 -8.172,-2.642 -11.513,-5.339c-3.619,-3.983 -6.096,-8.869 -7.171,-14.142c-3.843,-10.906 -5.966,-22.344 -6.294,-33.903c0.278,-11.512 4.661,-23.544 14.102,-30.197c1.894,-1.166 3.681,-2.5 5.338,-3.984c1.908,-2.488 3.267,-5.353 3.985,-8.405c6.413,-19.203 18.883,-39.48 38.921,-42.547c18.445,-2.829 35.257,10.039 49.479,22.149l31.193,26.573c7.173,-19.234 25.646,-32.06 46.173,-32.06c20.049,0 38.185,12.235 45.694,30.824c18.888,-21.372 42.732,-37.788 69.437,-47.805c5.937,-2.231 12.869,-3.984 18.286,-0.718c3.33,2.446 5.856,5.832 7.251,9.721c8.494,18.606 13.104,38.752 13.545,59.2c4.412,-1.521 9.334,0.12 11.951,3.983c2.409,3.951 3.779,8.446 3.984,13.067c0.843,7.127 1.268,14.297 1.275,21.473c0,7.569 -0.717,15.935 -5.657,21.512c-6.374,7.41 -17.41,8.208 -27.17,8.447c4.702,4.183 2.391,12.588 -2.828,16.134c-5.582,3.001 -11.946,4.238 -18.246,3.545c-24.301,-0.239 -50.116,-0.915 -70.314,-14.421c-7.968,-5.298 -14.661,-12.39 -22.668,-17.688c-19.601,-12.988 -44.221,-13.585 -66.928,-12.51c-20.238,1.236 -36.492,18.247 -55.972,24.78Z" style="fill:#3f3d56;fill-rule:nonzero;"/><path d="M2283.38,2282.01c0,0 -202.617,28.285 -231.062,150.787l42.428,-6.294l29.839,53.423c0,0 31.432,-119.514 124.095,-147.64c92.664,-28.126 125.65,-32.986 125.65,-32.986c0,0 64.378,15.696 122.502,202.617l32.986,-45.576l58.283,12.59c0,0 -42.428,-146.087 -157.081,-186.921l-147.64,0Z" style="fill:#3f3d56;fill-rule:nonzero;"/><path d="M3016.64,2475.71l0,203.175l-53.702,108.36l-1.713,3.426l-142.182,-9.401l-54.658,-3.626l-126.844,-8.366l0,-243.013l126.844,3.546l56.73,1.593l143.536,4.064l51.989,-59.758Z" style="fill:#3f3d56;fill-rule:nonzero;"/><path d="M3016.64,2487.66l0,191.223l-13.107,26.453l-13.465,27.129l0,0.041l-27.13,54.737l3.028,-203.174l0.637,-40.994l25.776,-28.564l11.273,-12.429l12.988,-14.422Z" style="fill-opacity:0.1;fill-rule:nonzero;"/><path d="M3023.94,2421.73l0,70.992l-7.29,11.593l-13.027,20.755l-11.514,18.405l-25.496,40.596l-0.637,0l-339.621,-17.489l0,-69.996l0.837,-0.917l40.555,-43.9l14.701,-15.857l26.532,-28.763l314.96,14.581Z" style="fill:#3f3d56;fill-rule:nonzero;"/><path d="M2966.61,2514.07l0,69.996l-340.258,-17.489l0,-69.995l0.837,-0.917l339.421,18.405Z" style="fill-opacity:0.1;fill-rule:nonzero;"/><path d="M3023.94,2421.73l0,70.992l-57.327,91.349l0,-69.996l57.327,-92.345Z" style="fill-opacity:0.15;fill-rule:nonzero;"/><path d="M3003.66,2454.4l0,47.686l-0.039,22.986l-0.08,180.268l-13.465,27.129l2.031,-188.992l0.28,-28.962l0.478,-42.706l-325.12,-20.039l14.701,-15.856l321.214,18.486Z" style="fill:#3855be;fill-rule:nonzero;"/><path d="M2844.1,2456.75l-22.787,49.479l-0.199,25.177l-2.072,249.865l-54.658,-3.625l0,-274.724l29.161,-46.172l50.555,0Z" style="fill:#3855be;fill-rule:nonzero;"/><path d="M2769.09,2460.1c-13.166,4.371 -27.314,4.87 -40.754,1.434c-2.612,-0.527 -5.057,-1.675 -7.131,-3.346c-2.219,-2.466 -3.746,-5.477 -4.422,-8.725c-2.409,-6.749 -3.753,-13.832 -3.984,-20.994c-0.155,-7.241 3.074,-14.155 8.724,-18.684c1.187,-0.719 2.295,-1.561 3.306,-2.51c1.209,-1.526 2.078,-3.291 2.55,-5.179c3.985,-11.952 11.713,-24.421 24.102,-26.333c11.434,-1.753 21.832,6.215 30.636,13.704l19.321,16.453c4.431,-11.906 15.86,-19.848 28.563,-19.848c12.426,0 23.661,7.599 28.287,19.131c11.717,-13.174 26.474,-23.295 42.985,-29.48c3.502,-1.821 7.641,-1.982 11.274,-0.438c2.074,1.503 3.644,3.602 4.502,6.015c5.27,11.515 8.117,23.991 8.366,36.652c2.765,-0.966 5.856,0.092 7.45,2.549c1.478,2.409 2.339,5.146 2.51,7.968c0.509,4.416 0.763,8.859 0.756,13.305c0.449,4.71 -0.794,9.429 -3.505,13.307c-3.984,4.62 -10.757,5.098 -16.813,5.218c0.967,1.203 1.494,2.7 1.494,4.242c0,2.343 -1.215,4.525 -3.206,5.758c-3.465,1.852 -7.409,2.616 -11.315,2.19c-15.018,0 -31.033,-0.557 -43.542,-8.923c-4.94,-3.267 -9.083,-7.649 -14.023,-10.955c-11.952,-7.968 -27.369,-8.406 -41.393,-7.729c-12.628,0.637 -22.667,11.155 -34.738,15.218Z" style="fill:#3855be;fill-rule:nonzero;"/><path d="M2766.34,2456.75c0,0 -125.411,17.489 -142.899,93.34l26.253,-3.984l18.445,33.067c0,0 19.441,-73.9 76.808,-91.39c57.367,-17.488 77.764,-20.396 77.764,-20.396c0,0 39.838,9.72 75.692,125.37l20.437,-28.165l35.855,7.967c0,0 -26.253,-90.393 -97.206,-115.53l-91.149,-0.279Z" style="fill:#3855be;fill-rule:nonzero;"/><path d="M2691.67,731.068c-5.146,-30.161 -100.64,-95.432 -100.64,-95.432c0,0 -42.14,-22.508 -64.337,-48.572c-14.291,-16.565 -18.749,-16.384 -20.081,-14.134c-0.941,-0.588 -2.014,-0.943 -3.126,-1.035c-0.872,-0.631 -1.746,-1.215 -2.573,-1.891c0.303,-2.582 -1.129,-5.078 -3.538,-6.167c-1.131,-0.69 -2.22,-1.441 -3.264,-2.251c-7.26,-12.064 -9.833,-29.259 -10.707,-44.205c-1.056,-18.906 -22.977,-14.134 -29.916,-12.063c-5.055,-9.409 -10.018,-19.267 -14.66,-29.08c1.962,-3.197 3.565,-6.594 4.78,-10.129c13.326,-28.81 10.385,-61.805 16.175,-92.235c4.182,-22.058 12.822,-45.016 11.122,-66.488l0,-1.575c0.022,0.104 0.022,0.21 0,0.315c-0.48,-5.364 -1.717,-10.636 -3.677,-15.665c-3.814,-9.679 -10.523,-18.006 -13.786,-28.045c-4.826,-14.494 -1.746,-30.52 -5.744,-45.284c-5.01,-18.637 -20.864,-33.086 -38.786,-41.324c-17.923,-8.238 -37.775,-11.074 -57.397,-13.505c-49.08,-6.122 -101.1,-9.768 -145.906,10.759c-4.148,2.474 -8.932,3.739 -13.787,3.646c-4.435,-1.207 -8.63,-3.14 -12.407,-5.718c-12.041,-5.942 -27.159,-2.16 -37.867,5.807c-10.708,7.968 -18.014,19.357 -25.183,30.431c-7.169,11.074 -14.843,22.507 -25.964,29.755c-13.097,8.687 -30.376,11.614 -40.578,23.363c-4.65,5.561 -7.584,12.309 -8.456,19.447c0.023,-0.105 0.023,-0.212 0,-0.316l0,6.347c-0.115,1.904 -0.115,3.813 0,5.717c1.429,10.984 4.351,21.734 8.685,31.961c2.075,7.599 6.165,14.527 11.856,20.076c15.717,12.785 40.532,0.721 59.742,7.833c1.57,0.621 3.104,1.327 4.596,2.116l-0.69,2.161c-4.085,13.826 -6.157,28.149 -6.157,42.543c0,83.962 70.531,153.051 156.245,153.051c0.398,0 0.796,-0.001 1.194,-0.005c3.217,0 6.434,0 9.65,-0.359c0.46,1.666 0.966,3.33 1.379,4.996c4.854,18.691 6.408,38.056 4.596,57.259l-0.965,-8.327c-2.102,-1.011 -4.285,-1.854 -6.526,-2.522c-6.291,-2.063 -12.897,-3.053 -19.53,-2.925c-21.369,-0.316 -53.583,8.283 -87.911,49.786c0,0 -43.841,24.308 -56.755,30.16c-1.046,0.654 -1.878,1.593 -2.389,2.701c-0.511,1.109 -57.995,88.365 -64.015,121.676l-0.827,4.502l-98.343,-4.502c-0.682,-23.979 -6.31,-47.576 -16.544,-69.368c-1.72,-4.656 -4.826,-8.702 -8.915,-11.614c-6.571,-3.916 -15.118,-1.801 -22.38,0.855c-32.686,11.874 -61.922,31.393 -85.153,56.854c-9.319,-22.199 -31.513,-36.767 -56.018,-36.767c-25.094,0 -47.702,15.275 -56.617,38.252l-38.28,-31.509c-17.417,-14.45 -38.005,-29.845 -60.66,-26.469c-24.54,3.69 -39.842,27.863 -47.747,50.777c-0.929,3.662 -2.653,7.087 -5.055,10.037c-0.454,0.415 -0.929,0.805 -1.425,1.171l-30.145,-1.35l-52.573,55.368l-29.089,30.656l-80.328,84.628l-1.701,1.755l0,84.538c-2.336,6.13 -4.271,12.4 -5.79,18.772l5.79,-0.856l0,32.681l22.15,1.126l0,389.694l251.325,16.161l108.316,6.842l191.4,12.289c0,17.691 7.537,42.54 23.575,52.308c4.014,2.526 7.585,5.672 10.57,9.318c-0.827,1.576 -1.654,3.196 -2.436,4.817c-7.674,15.53 -14.476,32.861 -13.28,43.619c1.587,13.625 -1.66,27.379 -9.192,38.939c-7.532,11.558 -57.903,178.934 -56.616,230.341c1.287,51.407 -20.633,164.44 -20.633,164.44c0,0 -23.897,72.834 -9.697,93.542c14.2,20.706 30.33,111.142 30.33,111.142c0,0 10.983,20.706 10.294,38.307c-0.69,17.601 10.34,49.516 10.34,49.516l36.12,129.959c0,0 -3.86,34.526 9.697,59.015c13.557,24.488 12.223,16.926 5.79,59.644c-6.433,42.72 7.72,82.243 30.973,94.802c9.192,4.861 9.467,12.289 6.664,19.537l-0.23,0c-5.928,-2.296 -10.846,9.903 -13.786,19.761c-1.792,1.801 -2.988,2.836 -2.988,2.836l2.023,0.496c-1.287,4.726 -2.023,8.282 -2.023,8.282c0,0 -60.614,50.237 -64.336,68.423c-3.722,18.186 -46.46,27.639 -46.46,27.639c0,0 -64.336,17.556 -81.293,26.379c-9.885,4.475 -16.654,13.745 -17.785,24.353c-0.762,8.261 0.017,16.59 2.298,24.578c6.479,25.749 96.78,28.27 139.978,21.383c43.196,-6.888 132.9,-32.052 132.9,-32.052c0,0 94.161,-9.002 121.917,-20.076c27.757,-11.074 5.79,-40.154 5.79,-40.154l0,-2.745c0.69,-10.489 2.62,-48.572 -4.043,-58.79c-5.056,-7.743 -4.871,-27.009 -4.182,-39.298c18.841,-33.761 -21.645,-135.045 -21.645,-135.045c0,0 7.767,-99.033 2.573,-113.618c-5.192,-14.585 -27.066,-137.476 -27.066,-137.476c0,0 -13.557,-55.909 -8.41,-65.317c5.146,-9.407 -3.217,-36.416 -3.217,-36.416c0,0 -21.92,-30.115 -19.99,-39.524c1.93,-9.408 -6.434,-26.378 -6.434,-26.378c0,0 65.807,-97.953 59.971,-116.139c-5.836,-18.187 2.573,-47.716 2.573,-47.716l18.382,-30.475c12.224,-20.348 27.022,-44.791 32.168,-52.398c6.342,-9.679 21.599,-50.867 30.101,-74.635c3.584,-10.083 6.019,-17.016 6.019,-17.016c0,0 10.34,184.562 19.348,203.423c9.007,18.861 22.609,167.591 22.609,167.591c4.984,13.251 7.172,27.356 6.433,41.459c-1.286,23.228 20.635,124.287 20.635,124.287c0,0 9.695,71.574 3.216,90.389c-6.48,18.817 -1.286,157.554 -1.286,157.554c0,0 -35.477,27.009 -44.485,47.67c-9.006,20.662 1.287,77.246 1.287,77.246l4.136,1.935c-3.343,7.849 -5.808,16.029 -7.353,24.399c-1.286,11.928 -20.68,65.946 -18.703,73.465c1.976,7.517 -8.41,30.744 -9.697,42.674c-1.286,11.928 -17.416,29.529 -18.703,36.011c-2.039,5.655 -4.418,11.187 -7.123,16.566c-3.497,8.269 -6.294,16.806 -8.364,25.523c-6.433,26.334 70.31,30.746 70.31,30.746c113.509,20.706 134.188,-64.011 134.188,-64.011c0,0 14.154,-75.355 19.347,-81.027c1.267,-2.188 1.582,-4.786 0.873,-7.203c-2.976,-12.79 -8.539,-24.868 -16.36,-35.517c-3.63,-4.141 -3.906,-14.945 -3.262,-24.578c3.281,-0.282 6.528,-0.87 9.696,-1.756c45.955,-13.189 27.114,-89.175 27.114,-89.175c0,0 30.926,-50.191 30.926,-69.683c0,-19.491 10.984,-79.091 10.984,-79.091c39.337,-70.313 23.851,-241.056 30.33,-254.876c6.48,-13.818 -13.557,-65.271 -29.687,-88.498c-16.13,-23.228 -9.65,-86.024 0,-104.211c9.651,-18.186 -9.65,-81.027 -9.65,-81.027c0,0 18.703,-121.811 18.06,-140.626c-0.643,-18.817 16.084,-74.725 16.084,-74.725c0,0 16.774,-28.855 12.914,-37.633c-3.861,-8.778 12.912,-31.51 8.409,-41.458c-4.504,-9.949 3.86,-40.784 12.224,-59.015c4.32,-9.318 9.65,-35.022 13.786,-57.845l1.379,-7.517c18.796,11.839 35.891,20.662 42.278,18.275c11.489,-4.5 -6.801,-63.02 -19.393,-99.572c2.16,-1.576 3.033,-2.792 2.16,-3.376c-7.721,-4.997 0.873,-27.64 0.873,-27.64c45.587,-27.009 30.101,-46.861 15.487,-58.519c-14.613,-11.659 -5.147,-45.015 -9.467,-58.52c-4.319,-13.504 5.147,-74.499 12.914,-118.84c1.592,-9.653 1.499,-19.501 -0.276,-29.124c8.317,-12.515 16.865,-25.658 24.356,-37.858c25.78,-41.818 80.834,-241.055 80.834,-241.055l-0.368,-1.035c5.376,-10.579 9.191,-19.177 11.535,-24.894c16.175,-43.89 -14.798,-174.478 -19.945,-204.593Zm-400.861,-114.699l1.194,-0.584l0,0.989l-1.194,-0.405Zm-250.223,2136.91c-2.808,0.033 -5.594,-0.503 -8.18,-1.576l8.18,1.576Z" style="fill:url(#_Linear1);fill-rule:nonzero;"/><path d="M1540.42,1304.69c37.775,14.044 125.732,15.621 164.794,15.575l19.208,0l25.046,-49.921l-25.046,-41.639c0,0 -22.977,-6.167 -53.491,-11.569c-45.035,-7.968 -106.66,-14.18 -136.025,3.691c-49.264,29.8 -43.749,65.542 5.514,83.863Z" style="fill:#fec2be;fill-rule:nonzero;"/><path d="M1705.22,1320.27l19.209,0l25.046,-49.921l-25.046,-41.639c0,0 -22.977,-6.167 -53.492,-11.569c24.771,17.736 84.328,56.404 34.283,103.129Z" style="fill-opacity:0.1;fill-rule:nonzero;"/><path d="M2120,707.03l-11.076,-12.47c0,0 -56.937,88.23 -62.866,121.541c-5.928,33.312 -13.786,71.619 -13.786,71.619c0,0 -14.2,43.214 -23.39,62.391c-9.191,19.176 -17.831,37.453 -18.658,45.78c-0.828,8.328 3.401,26.649 -14.476,38.263c-17.876,11.614 -22.104,43.304 -22.104,43.304c0,0 -64.337,61.581 -98.572,63.247c-34.237,1.665 -131.706,18.321 -128.306,34.977c3.401,16.654 -40.808,26.648 -58.637,30.79c-17.831,4.141 114.885,54.018 37.406,118.209c0,0 49.264,9.993 54.365,21.652c5.101,11.659 56.937,-6.662 56.937,-6.662c0,0 11.076,-25.794 49.309,-27.459c38.235,-1.666 57.765,-18.322 57.765,-20.842c0,-2.521 38.235,-23.273 59.512,-29.125c21.276,-5.852 49.263,-8.328 50.136,-14.135c0.874,-5.807 127.433,-541.08 127.433,-541.08l-40.992,0Z" style="fill:#4c4981;fill-rule:nonzero;"/><path d="M2120,707.03l-11.076,-12.47c0,0 -56.937,88.23 -62.866,121.541c-5.928,33.312 -13.786,71.619 -13.786,71.619c0,0 -14.2,43.214 -23.39,62.391c-9.191,19.176 -17.831,37.453 -18.658,45.78c-0.828,8.328 3.401,26.649 -14.476,38.263c-17.876,11.614 -22.104,43.304 -22.104,43.304c0,0 -64.337,61.581 -98.572,63.247c-34.237,1.665 -131.706,18.321 -128.306,34.977c3.401,16.654 -40.808,26.648 -58.637,30.79c-17.831,4.141 114.885,54.018 37.406,118.209c0,0 49.264,9.993 54.365,21.652c5.101,11.659 56.937,-6.662 56.937,-6.662c0,0 11.076,-25.794 49.309,-27.459c38.235,-1.666 57.765,-18.322 57.765,-20.842c0,-2.521 38.235,-23.273 59.512,-29.125c21.276,-5.852 49.263,-8.328 50.136,-14.135c0.874,-5.807 127.433,-541.08 127.433,-541.08l-40.992,0Z" style="fill-opacity:0.05;fill-rule:nonzero;"/><path d="M2252.44,3016.98c112.176,20.616 132.58,-63.652 132.58,-63.652c0,0 13.786,-74.905 19.117,-80.531c1.269,-2.171 1.584,-4.756 0.873,-7.157c-2.935,-12.703 -8.435,-24.704 -16.176,-35.293c-7.031,-8.148 -1.287,-41.864 -1.287,-41.864l-130.006,-32.456c0,0 -11.488,25.614 -12.729,37.453c-1.24,11.839 -20.403,65.587 -18.382,73.059c2.022,7.473 -8.272,30.61 -9.559,42.45c-1.286,11.839 -17.186,29.349 -18.381,35.607c-2.016,5.606 -4.364,11.092 -7.031,16.43c-3.47,8.224 -6.237,16.716 -8.272,25.388c-6.663,26.199 69.253,30.566 69.253,30.566Z" style="fill:#ca8496;fill-rule:nonzero;"/><path d="M2252.44,3016.98c112.176,20.616 132.58,-63.652 132.58,-63.652c0,0 13.786,-74.905 19.117,-80.531c1.269,-2.171 1.584,-4.756 0.873,-7.157l-27.021,75.804c0,0 -22.289,45.601 -105.145,38.714c-47.149,-3.872 -70.356,-12.47 -81.615,-19.132c-3.469,8.224 -6.236,16.716 -8.272,25.388c-6.433,26.199 69.483,30.566 69.483,30.566Z" style="fill-opacity:0.1;fill-rule:nonzero;"/><path d="M2339.76,2898.36c0,0 -28.033,0.631 -29.963,-21.832l29.963,21.832Z" style="fill-opacity:0.1;fill-rule:nonzero;"/><path d="M1852.08,2160.43c13.786,20.617 29.963,110.512 29.963,110.512c0,0 10.844,20.617 10.201,38.082c-0.643,17.466 10.202,49.518 10.202,49.518l35.707,129.238c0,0 -3.86,34.301 9.559,58.518c13.418,24.219 12.086,16.881 5.698,59.331c-6.387,42.449 7.675,81.792 30.605,94.261c22.932,12.47 -10.201,41.819 -10.201,41.819c0,0 146.595,38.713 177.201,14.99c30.606,-23.723 -15.946,-141.077 -15.946,-141.077c0,0 7.628,-98.673 2.573,-113.033c-5.055,-14.36 -26.792,-136.846 -26.792,-136.846c0,0 -13.373,-55.548 -8.272,-64.911c5.101,-9.364 -3.216,-36.238 -3.216,-36.238c0,0 -21.644,-29.934 -19.761,-39.298c1.884,-9.362 -6.388,-26.108 -6.388,-26.108c0,0 64.98,-97.413 59.282,-115.509c-5.698,-18.096 2.528,-47.446 2.528,-47.446c0,0 8.225,-13.819 18.106,-30.294c12.086,-20.257 26.699,-44.521 31.616,-52.083c6.25,-9.678 21.324,-50.642 29.733,-74.23l5.974,-16.926c0,0 10.156,183.527 19.118,202.254c8.961,18.725 22.287,166.554 22.287,166.554c4.932,13.186 7.105,27.209 6.388,41.235c-1.287,23.092 20.404,123.611 20.404,123.611c0,0 9.558,71.169 3.171,90.03c-6.388,18.861 -1.287,156.697 -1.287,156.697c0,0 -35.064,27.01 -43.979,47.446c-8.914,20.437 1.287,76.796 1.287,76.796c0,0 101.973,49.921 147.055,36.822c45.081,-13.099 26.745,-88.635 26.745,-88.635c0,0 30.606,-49.967 30.606,-69.322c0,-19.357 10.845,-78.642 10.845,-78.642c38.878,-69.953 23.575,-239.75 29.916,-253.48c6.342,-13.729 -13.142,-64.956 -29.18,-87.869c-16.039,-22.913 -9.559,-85.529 0,-103.535c9.559,-18.005 -9.467,-81.027 -9.467,-81.027c0,0 18.381,-121.135 17.876,-139.861c-0.505,-18.726 15.946,-74.275 15.946,-74.275c0,0 16.544,-28.719 12.73,-37.453c-3.814,-8.732 12.73,-31.24 8.272,-41.233c-4.458,-9.993 3.814,-40.513 12.132,-58.52c4.227,-9.318 9.512,-34.841 13.786,-57.529c3.907,-21.562 6.802,-40.514 6.802,-40.514l-105.19,-83.007l-262.585,-67.522l-98.802,-31.241l-96.229,148.549c0,0 -9.927,15.531 -18.75,33.446c-7.536,15.441 -14.291,32.681 -13.097,43.35c1.604,13.519 -1.542,27.178 -8.915,38.713c-7.374,11.535 -57.582,178.034 -56.294,229.307c1.287,51.272 -20.22,163.584 -20.22,163.584c0,0 -23.759,72.384 -9.743,93.001Z" style="fill:#4c4981;fill-rule:nonzero;"/><path d="M2126.58,928.369l0,389.605l-105.144,207.789l-3.355,6.573l-278.347,-18.007l-106.982,-6.933l-248.338,-16.07l0,-466.04l248.338,6.887l111.073,3.062l280.92,7.787l101.835,-114.653Z" style="fill:#3855be;fill-rule:nonzero;"/><path d="M2126.58,951.372l0,366.602l-25.688,50.731l0,0.046l-26.378,51.992l0,0.045l-53.078,104.975l5.928,-389.605l1.195,-78.597l50.504,-54.737l22.012,-23.859l25.505,-27.593Z" style="fill-opacity:0.1;fill-rule:nonzero;"/><path d="M2140.83,824.924l0,136.08l-14.247,22.283l-25.504,39.794l-22.61,35.246l-49.907,77.876l-1.194,-0.045l-664.826,-33.492l0,-134.234l1.655,-1.756l79.364,-84.177l28.767,-30.431l51.929,-55.098l616.573,27.954Z" style="fill:#3855be;fill-rule:nonzero;"/><path d="M2028.55,1002.01l0,134.189l-666.019,-33.537l0,-134.234l1.654,-1.756l664.365,35.338Z" style="fill-opacity:0.1;fill-rule:nonzero;"/><path d="M2140.83,824.924l0,136.08l-112.268,175.199l0,-134.189l112.268,-177.09Z" style="fill-opacity:0.15;fill-rule:nonzero;"/><path d="M2101.16,887.54l-0.093,91.425l0,44.116l-0.183,345.624l0,0.046l-26.378,51.992l3.952,-362.416l0.597,-55.503l0.919,-81.883l-636.424,-38.442l28.767,-30.431l628.843,35.472Z" style="fill:#3f3d56;fill-rule:nonzero;"/><path d="M1788.81,892.041l-44.622,94.847l-0.367,48.347l-4.091,479.094l-106.982,-6.933l0,-526.855l57.076,-88.5l98.986,0Z" style="fill:#3f3d56;fill-rule:nonzero;"/><path d="M1641.93,898.254c-25.755,8.389 -53.439,9.343 -79.731,2.746c-5.044,-1.016 -9.77,-3.192 -13.787,-6.347c-4.361,-4.739 -7.345,-10.538 -8.639,-16.791c-4.643,-12.934 -7.216,-26.494 -7.629,-40.198c0.323,-13.505 5.653,-28 17.049,-36.013c2.331,-1.355 4.503,-2.955 6.48,-4.771c2.395,-2.916 4.106,-6.312 5.009,-9.949c7.812,-22.777 22.977,-46.861 47.15,-50.507c22.38,-3.331 42.737,11.975 59.97,26.334l37.821,31.511c8.717,-22.802 31.09,-37.998 55.947,-37.998c24.268,0 46.228,14.486 55.355,36.512c22.905,-25.301 51.8,-44.716 84.143,-56.538c7.169,-2.611 15.578,-4.772 22.104,-0.856c4.03,2.92 7.085,6.947 8.777,11.569c10.307,22.064 15.89,45.965 16.406,70.223c5.423,-1.806 11.453,0.243 14.567,4.953c2.942,4.671 4.619,10.001 4.872,15.484c1.011,8.473 1.518,16.994 1.516,25.524c0,9.002 -0.873,18.681 -6.846,25.523c-7.721,8.778 -21.048,9.724 -32.905,9.994c5.699,4.951 2.895,14.944 -3.4,19.176c-6.785,3.546 -14.505,5.004 -22.15,4.186c-29.411,-0.27 -60.706,-1.08 -85.199,-17.105c-9.651,-6.303 -17.74,-14.72 -27.573,-21.023c-23.759,-15.395 -53.584,-16.114 -81.064,-14.855c-24.908,1.442 -44.623,21.653 -68.243,29.216Z" style="fill:#3f3d56;fill-rule:nonzero;"/><path d="M1636.65,892.041c0,0 -245.489,33.537 -279.771,178.935l51.423,-7.427l36.12,63.381c0,0 38.097,-141.707 150.364,-175.244c112.266,-33.535 152.202,-39.163 152.202,-39.163c0,0 78.122,18.682 148.433,240.471l39.98,-54.018l70.402,14.945c0,0 -51.377,-173.353 -190.297,-221.834l-178.856,-0.046Z" style="fill:#3f3d56;fill-rule:nonzero;"/><path d="M2240.35,713.242c4.045,-1.621 281.289,-113.754 243.1,-136.08c-22.656,-13.235 -50.55,-69.278 -69.667,-113.168c-13.327,-30.701 -22.38,-55.369 -22.38,-55.369c0,0 -222.512,-38.713 -142.872,94.892c12.559,20.491 22.018,42.659 28.077,65.812c22.702,90.975 -34.419,142.247 -36.258,143.913Z" style="fill:#fec2be;fill-rule:nonzero;"/><path d="M2248.54,503.517c12.56,20.491 22.018,42.659 28.078,65.812c57.453,-3.955 108.141,-38.862 131.384,-90.48c2.208,-4.844 4.14,-9.803 5.79,-14.855c-13.326,-30.701 -22.38,-55.369 -22.38,-55.369c0,0 -222.512,-38.713 -142.872,94.892Z" style="fill-opacity:0.1;fill-rule:nonzero;"/><path d="M2110.21,412.361c0.002,83.565 70.201,152.327 155.51,152.327c61.492,0 117.451,-35.728 142.276,-90.836c8.77,-19.359 13.28,-40.311 13.235,-61.491c0,-83.566 -70.201,-152.33 -155.511,-152.33c-85.31,0 -155.51,68.764 -155.51,152.33Z" style="fill:#fec2be;fill-rule:nonzero;"/><path d="M1960.17,1592.66c16.314,14.495 22.564,42.088 22.564,42.088c0,0 76.698,51.273 71.414,18.727c-5.285,-32.545 39.52,-163.539 39.52,-163.539l-5.101,178.529c0,0 244.709,-11.208 262.585,-28.72c17.877,-17.51 122.377,-51.182 122.377,-51.182c0,0 32.168,25.164 61.395,44.25c3.906,-21.562 6.802,-40.513 6.802,-40.513l-105.19,-83.008l-262.585,-67.523l-98.803,-31.24l-96.229,148.55c0,0 -9.926,15.665 -18.749,33.581Z" style="fill-opacity:0.1;fill-rule:nonzero;"/><path d="M1952.17,1578.56c20.359,12.515 28.033,46.231 28.033,46.231c0,0 76.468,51.182 71.367,18.726c-5.101,-32.455 39.521,-163.584 39.521,-163.584l-5.101,178.529c0,0 244.754,-11.208 262.585,-28.72c17.83,-17.51 122.376,-51.182 122.376,-51.182c0,0 90.485,71.169 107.075,64.957c16.589,-6.212 -29.32,-127.392 -29.32,-127.392l-47.149,-709.213c0,0 12.73,-211.03 -6.387,-218.502c-2.95,-1.168 -5.671,-2.829 -8.042,-4.906c-12.592,-11.119 -16.36,-33.627 -17.463,-52.533c-1.241,-22.508 -31.846,-11.254 -31.846,-11.254l17.829,22.507l-157.945,94.037l-1.379,0.856c-6.154,-3.179 -12.491,-6.004 -18.979,-8.464c-13.786,-5.267 -32.582,-10.218 -44.76,-5.267c-6.805,3.373 -12.578,8.453 -16.727,14.72c-9.014,13.276 -16.243,27.634 -21.507,42.72l-57.351,94.891c0,0 -29.32,126.042 -29.32,131.085c0,5.04 -8.915,119.874 -19.117,132.344c-10.201,12.468 -20.403,74.95 -16.59,93.676c3.815,18.725 -6.386,88.635 -6.386,88.635c-42.049,33.715 -63.74,148.549 -63.74,148.549c0,0 -66.266,128.607 -71.367,143.597c-5.101,14.99 1.286,52.489 21.69,64.957Z" style="fill:#fff;fill-rule:nonzero;"/><path d="M2297.7,641.263c15.487,22.507 60.246,54.018 60.246,54.018l129.178,-106.866c-12.592,-11.118 -16.359,-33.626 -17.462,-52.533c-1.241,-22.507 -31.847,-11.253 -31.847,-11.253l3.676,4.501c2.804,3.532 4.327,7.88 4.327,12.354c0,7.006 -3.735,13.526 -9.841,17.177l-138.277,82.602Z" style="fill-opacity:0.1;fill-rule:nonzero;"/><path d="M2297.7,636.266c15.487,22.507 60.246,54.018 60.246,54.018l129.178,-106.866c-12.592,-11.118 -16.359,-33.626 -17.462,-52.532c-1.241,-22.508 -31.847,-11.253 -31.847,-11.253l3.676,4.5c2.804,3.532 4.327,7.88 4.327,12.354c0,7.006 -3.735,13.526 -9.841,17.177l-138.277,82.602Z" style="fill:#fff;fill-rule:nonzero;"/><path d="M2237.97,653.101c16.681,19.582 40.349,41.729 39.246,30.611c-1.103,-11.119 14.107,-35.607 23.804,-46.59c-15.136,-4.716 -31.465,-4.287 -46.322,1.215c-6.797,3.403 -12.566,8.495 -16.728,14.764Z" style="fill-opacity:0.1;fill-rule:nonzero;"/><path d="M2235.39,645.63c16.728,19.536 40.348,41.729 39.245,30.609c-1.103,-11.119 12.546,-29.08 22.242,-40.063c-13.786,-5.266 -32.535,-10.219 -44.759,-5.312c-6.818,3.375 -12.593,8.474 -16.728,14.766Z" style="fill:#fff;fill-rule:nonzero;"/><ellipse cx="2277.21" cy="739.486" rx="10.202" ry="9.993" style="fill:#ff718d;"/><ellipse cx="2199.88" cy="1009.17" rx="10.202" ry="9.993" style="fill:#ff718d;"/><ellipse cx="2112.33" cy="1282.23" rx="10.202" ry="9.993" style="fill:#ff718d;"/><ellipse cx="2109.8" cy="1579.37" rx="10.202" ry="9.993" style="fill:#ff718d;"/><ellipse cx="2232.18" cy="866.833" rx="10.202" ry="9.993" style="fill:#ff718d;"/><ellipse cx="2163.34" cy="1144.03" rx="10.202" ry="9.993" style="fill:#ff718d;"/><ellipse cx="2096.2" cy="1416.24" rx="10.202" ry="9.993" style="fill:#ff718d;"/><ellipse cx="2111.5" cy="1612.69" rx="10.202" ry="9.993" style="fill:#ff718d;"/><path d="M2487.08,589.676c0,0 -1.699,-14.99 20.404,10.803c22.105,25.794 63.739,48.301 63.739,48.301c0,0 94.346,64.912 99.4,94.892c5.055,29.98 35.661,159.803 19.531,203.108c-16.13,43.304 -139.381,250.553 -139.381,250.553c0,0 32.169,37.453 24.678,81.567c-7.49,44.116 -17.003,104.886 -12.775,118.21c4.227,13.324 -5.101,46.591 9.19,58.25c14.293,11.658 29.734,31.51 -15.302,58.294c0,0 -8.502,22.507 -0.873,27.459c7.628,4.952 -113.003,56.629 -160.611,29.125c-47.609,-27.504 -133.269,-247.222 -135.107,-296.334c-1.838,-49.111 26.332,-211.571 41.635,-249.743c15.303,-38.174 61.212,-187.263 80.742,-220.574c19.53,-33.311 104.73,-213.911 104.73,-213.911Z" style="fill-opacity:0.1;fill-rule:nonzero;"/><path d="M2492.19,589.676c0,0 -1.7,-14.99 20.404,10.803c22.104,25.794 63.739,48.301 63.739,48.301c0,0 94.299,64.912 99.446,94.892c5.146,29.98 35.66,159.803 19.53,203.108c-16.13,43.304 -139.564,250.553 -139.564,250.553c0,0 32.168,37.453 24.678,81.567c-7.49,44.116 -17.003,104.886 -12.775,118.21c4.227,13.324 -5.101,46.591 9.19,58.25c14.293,11.658 29.733,31.51 -15.303,58.294c0,0 -8.501,22.507 -0.872,27.459c7.628,4.952 -113.003,56.629 -160.611,29.125c-47.61,-27.504 -133.27,-247.222 -135.107,-296.334c-1.839,-49.111 26.332,-211.571 41.635,-249.743c15.303,-38.174 61.211,-187.263 80.742,-220.574c19.53,-33.311 104.868,-213.911 104.868,-213.911Z" style="fill:#4c4981;fill-rule:nonzero;"/><path d="M2526.19,731.157c0,0 -73.067,79.093 -70.541,131.534c0,0 -1.01,-84.898 70.541,-131.534Z" style="fill-opacity:0.1;fill-rule:nonzero;"/><path d="M2425.05,861.026c0,2.521 -49.263,182.311 -46.736,204.773c2.528,22.463 -14.43,89.04 -14.43,89.04l-22.977,-5.852c0,0 17.83,-92.371 21.231,-126.492c3.401,-34.121 62.912,-161.469 62.912,-161.469Z" style="fill-opacity:0.1;fill-rule:nonzero;"/><path d="M2405.52,1373.79c1.701,2.521 116.449,129.868 84.143,139.006c-32.306,9.139 -84.143,-139.006 -84.143,-139.006Z" style="fill-opacity:0.1;fill-rule:nonzero;"/><path d="M2499.87,1341.34c2.527,1.666 45.954,91.561 50.963,67.523c5.01,-24.038 -37.361,65.767 -44.162,-0.856l-6.801,-66.667Z" style="fill-opacity:0.1;fill-rule:nonzero;"/><path d="M2279.56,617.945c0,0 -47.38,-28.269 -106.891,44.115c0,0 -43.336,24.173 -56.064,29.98c-12.73,5.807 -27.206,160.658 -27.206,160.658c0,0 -28.032,66.577 -20.404,104.886c7.629,38.307 -22.058,169.841 -22.058,169.841c0,0 -49.309,236.374 -47.609,243.081c1.701,6.707 50.137,-74.094 49.264,-114.023c-0.874,-39.928 40.807,-164.845 46.782,-172.318c5.973,-7.472 46.781,-221.474 46.781,-221.474c0,0 33.133,-90.75 54.364,-120.685c21.231,-29.934 47.61,-86.563 58.639,-96.557c7.931,-6.74 16.796,-12.348 26.332,-16.656l-1.93,-10.848Z" style="fill-opacity:0.1;fill-rule:nonzero;"/><path d="M2280.01,617.945c0,0 -53.123,-28.269 -112.635,44.115c0,0 -43.334,24.173 -56.064,29.98c-12.73,5.807 -27.205,160.658 -27.205,160.658c0,0 -28.032,66.577 -20.404,104.886c7.629,38.307 -22.059,169.841 -22.059,169.841c0,0 -49.308,236.374 -47.608,243.081c1.7,6.707 50.136,-74.094 49.309,-114.023c-0.827,-39.928 40.762,-164.845 46.736,-172.318c5.974,-7.472 46.736,-221.428 46.736,-221.428c0,0 33.133,-90.751 54.364,-120.685c21.231,-29.936 47.609,-86.564 58.638,-96.557c11.029,-9.994 31.433,-16.656 31.433,-16.656l-1.241,-10.894Z" style="fill:#4c4981;fill-rule:nonzero;"/><path d="M2046.93,1138.23c0,0 -101.101,-64.912 -149.996,-32.906c-48.895,32.006 -128.673,77.425 -50.136,110.332c78.536,32.905 187.357,26.604 187.357,26.604l12.775,-104.03Z" style="fill:#fec2be;fill-rule:nonzero;"/><path d="M2117.24,1764.61c15.074,31.51 27.573,190.819 35.937,241.28c12.086,-20.257 26.7,-44.519 31.617,-52.082c6.25,-9.679 21.322,-50.642 29.732,-74.23c-9.604,-22.867 -36.12,-88.41 -36.12,-112.537c0,-29.35 -48.436,-66.172 -48.436,-66.172c0,0 -30.606,26.288 -12.73,63.741Z" style="fill-opacity:0.1;fill-rule:nonzero;"/><path d="M2442.28,2253.47c0,0 -112.175,-46.861 -145.308,-13.504c-33.133,33.356 145.308,13.504 145.308,13.504Z" style="fill-opacity:0.1;fill-rule:nonzero;"/><path d="M2379.19,2272.21c0,0 113.461,62.436 74.584,73.014c-38.878,10.578 -74.584,-73.014 -74.584,-73.014Z" style="fill-opacity:0.1;fill-rule:nonzero;"/><path d="M2040.13,2217.87c0,0 48.436,3.106 29.916,12.47c-18.519,9.363 -29.916,-12.47 -29.916,-12.47Z" style="fill-opacity:0.1;fill-rule:nonzero;"/><path d="M1979.57,2232.23c0.643,3.106 140.851,47.446 113.462,67.523c-27.39,20.076 -113.462,-67.523 -113.462,-67.523Z" style="fill-opacity:0.1;fill-rule:nonzero;"/><path d="M2425.7,2614.31c-21.001,-3.106 -138.277,-56.178 -92.415,-18.006c45.863,38.172 92.415,18.006 92.415,18.006Z" style="fill-opacity:0.1;fill-rule:nonzero;"/><path d="M2367.69,2656.14c0,0 -10.202,38.713 -49.079,33.716c-38.878,-4.997 49.079,-33.716 49.079,-33.716Z" style="fill-opacity:0.1;fill-rule:nonzero;"/><path d="M2400.23,2734.86c-7.031,-1.891 -90.53,-39.343 -92.414,-21.877c-1.885,17.466 79.639,48.076 86.027,38.712c3.658,-4.934 5.868,-10.758 6.387,-16.835Z" style="fill-opacity:0.1;fill-rule:nonzero;"/><path d="M2129.97,2689.85c-10.202,-0.63 -105.696,-30.564 -124.905,-3.736l124.905,3.736Z" style="fill-opacity:0.1;fill-rule:nonzero;"/><path d="M2043.31,2707.31c0,0 -16.589,-14.36 -33.132,-6.842c-16.544,7.517 33.132,6.842 33.132,6.842Z" style="fill-opacity:0.1;fill-rule:nonzero;"/><path d="M2254.88,2862.17c-2.148,10.821 -10.667,19.413 -21.645,21.833l21.645,-21.833Z" style="fill-opacity:0.1;fill-rule:nonzero;"/><path d="M1768.59,2920.87c6.388,25.568 95.631,28.089 138.323,21.202c42.692,-6.887 131.292,-31.646 131.292,-31.646c0,0 93.058,-8.733 120.447,-19.987c27.389,-11.254 5.744,-39.973 5.744,-39.973l0,-2.656c0.643,-10.443 2.573,-48.301 -3.998,-58.519c-7.674,-11.839 -3.217,-50.553 -3.217,-50.553c0,0 -131.889,24.984 -134.462,13.1c-2.574,-11.884 -22.978,-28.72 -32.491,-32.455c-9.512,-3.737 -16.589,31.195 -16.589,31.195c0,0 -59.741,49.967 -63.739,68.063c-3.998,18.096 -45.955,27.458 -45.955,27.458c0,0 -63.738,17.512 -80.328,26.244c-9.774,4.499 -16.46,13.699 -17.601,24.219c-0.624,8.188 0.247,16.419 2.574,24.308Z" style="fill:#ca8496;fill-rule:nonzero;"/><path d="M1768.59,2920.87c6.388,25.568 95.631,28.089 138.323,21.202c42.692,-6.887 131.292,-31.646 131.292,-31.646c0,0 93.058,-8.733 120.447,-19.987c27.389,-11.254 5.744,-39.973 5.744,-39.973l0,-2.656l-133.268,28.9c0,0 -65.623,27.459 -107.671,27.459c-36.765,0 -119.023,14.765 -157.211,-7.607c-0.699,8.174 0.095,16.406 2.344,24.308Z" style="fill-opacity:0.1;fill-rule:nonzero;"/><path d="M1949.14,2822.2c0,0 6.388,41.235 31.893,54.964l-31.893,-54.964Z" style="fill-opacity:0.1;fill-rule:nonzero;"/><path d="M2116.28,370.182c2.403,1.262 4.928,2.287 7.536,3.062c11.994,3.15 23.667,-4.727 34.283,-11.03c10.615,-6.301 25.274,-10.983 34.466,-2.836c11.994,10.669 3.309,33.492 15.67,43.755c7.812,6.527 20.22,4.502 28.905,9.679c8.685,5.176 11.305,17.06 13.511,27.234c2.206,10.173 6.572,21.697 16.728,24.667c10.155,2.971 19.53,-3.555 29.502,-3.195c2.068,0 4.596,0.315 5.882,-1.17c0.917,-1.317 1.263,-2.937 0.965,-4.502c-1.243,-12.098 -0.135,-24.318 3.264,-36.012c4.089,-11.479 13.786,-21.922 25.872,-23.768c17.922,-2.701 32.949,12.695 43.473,27.009c11.062,15.206 21.132,31.083 30.146,47.536c0.563,1.069 1.069,2.166 1.517,3.286c8.77,-19.358 13.28,-40.312 13.235,-61.49l0,-0.049c0,-83.567 -70.201,-152.331 -155.511,-152.331c-69.117,0 -130.328,45.137 -149.444,110.2l0,-0.045Z" style="fill-opacity:0.1;fill-rule:nonzero;"/><path d="M2376.52,420.554c-10.523,-14.45 -25.55,-29.8 -43.473,-27.009c-12.27,1.846 -21.782,12.245 -25.873,23.723c-3.4,11.694 -4.492,23.917 -3.216,36.012c0.251,1.577 -0.128,3.19 -1.058,4.502c-1.378,1.485 -3.767,1.26 -5.835,1.17c-9.973,-0.36 -19.899,5.987 -29.503,3.196c-9.605,-2.791 -14.522,-14.494 -16.728,-24.668c-2.206,-10.174 -4.596,-21.697 -13.511,-27.009c-8.914,-5.312 -21.093,-3.152 -28.905,-9.678c-12.362,-10.309 -3.677,-33.132 -15.671,-43.755c-9.19,-8.193 -23.85,-3.511 -34.466,2.791c-10.615,6.302 -22.287,14.18 -34.282,11.074c-4.044,-1.081 -7.674,-3.377 -11.626,-4.862c-18.888,-7.022 -43.381,4.907 -58.913,-7.787c-5.646,-5.517 -9.706,-12.396 -11.765,-19.943c-4.257,-10.183 -7.147,-20.867 -8.594,-31.78c-1.377,-11.044 1.727,-22.187 8.64,-31.016c10.109,-11.703 27.204,-14.585 40.118,-23.227c10.983,-7.337 18.382,-18.591 25.643,-29.62c7.261,-11.029 14.292,-22.508 24.861,-30.295c10.57,-7.787 25.551,-11.614 37.407,-5.717c3.75,2.528 7.894,4.443 12.27,5.672c4.856,0.096 9.64,-1.17 13.786,-3.647c44.208,-20.391 95.678,-16.79 144.16,-10.712c19.393,2.43 39.061,5.311 56.754,13.504c17.692,8.192 33.317,22.507 38.28,41.098c3.952,14.676 0.919,30.611 5.699,45.015c3.216,9.813 9.833,18.007 13.786,27.865c10.34,26.288 -2.023,55.188 -7.261,82.918c-5.744,30.294 -2.849,63.02 -15.993,91.785c-2.573,5.627 -5.468,15.485 -11.947,11.749c-4.596,-2.746 -9.467,-18.726 -12.224,-23.678c-9.133,-16.516 -19.341,-32.439 -30.56,-47.671Z" style="fill:#9a5e7f;fill-rule:nonzero;"/><path d="M2656.2,908.472l22.977,64.102c0,0 -54.409,198.065 -79.914,239.749c-25.505,41.685 -62.866,94.892 -62.866,94.892c0,0 -62.866,30.791 -135.98,16.655c-73.114,-14.134 -286.389,-51.631 -286.389,-51.631c0,0 -17.83,3.33 -27.16,-9.994c-9.328,-13.325 -57.81,-19.986 -57.81,-19.986c0,0 -56.065,-79.903 12.775,-113.213c0,0 8.456,18.32 45.035,5.852c36.581,-12.47 47.563,9.993 47.563,9.993c0,0 59.512,11.658 92.645,7.472c33.133,-4.186 115.576,-5.807 124.077,-12.468c4.436,-3.862 11.318,-3.496 15.303,0.81c3.986,4.306 20.359,-7.473 27.159,-14.946c6.802,-7.472 16.177,8.283 16.177,8.283c0,0 11.902,-6.617 8.501,-14.944c-3.4,-8.329 11.029,-39.974 11.029,-39.974c0,0 6.802,-20.797 2.528,-37.453c-4.274,-16.656 21.277,-76.525 21.277,-76.525c0.332,-10.101 -0.813,-20.197 -3.401,-29.98c-4.274,-14.99 32.168,-45.015 32.168,-45.015c0,0 35.707,-169.797 111.348,-114.024c75.642,55.774 62.958,132.345 62.958,132.345Z" style="fill-opacity:0.1;fill-rule:nonzero;"/><path d="M2661.44,908.472l22.977,64.102c0,0 -54.41,198.065 -79.914,239.749c-25.505,41.685 -62.866,94.892 -62.866,94.892c0,0 -62.912,30.791 -135.98,16.655c-73.068,-14.134 -286.481,-51.631 -286.481,-51.631c0,0 -17.831,3.33 -27.159,-9.994c-9.329,-13.325 -57.812,-19.986 -57.812,-19.986c0,0 -56.064,-79.903 12.777,-113.213c0,0 8.454,18.32 45.035,5.852c36.58,-12.47 47.563,9.993 47.563,9.993c0,0 59.741,11.658 92.644,7.472c32.903,-4.186 115.576,-5.807 124.077,-12.468c4.421,-3.856 11.289,-3.491 15.257,0.81c3.969,4.3 20.404,-7.473 27.206,-14.946c6.801,-7.472 16.176,8.283 16.176,8.283c0,0 11.856,-6.617 8.455,-14.944c-3.4,-8.329 11.075,-39.974 11.075,-39.974c0,0 6.802,-20.797 2.528,-37.453c-4.274,-16.656 21.276,-76.525 21.276,-76.525c0.333,-10.101 -0.812,-20.197 -3.4,-29.98c-4.274,-14.99 32.169,-45.015 32.169,-45.015c0,0 35.706,-169.797 111.347,-114.024c75.641,55.774 63.05,132.345 63.05,132.345Z" style="fill:#4c4981;fill-rule:nonzero;"/><path d="M2108.93,1176.54c0.874,5.807 19.577,29.126 12.777,33.267c-6.802,4.141 -17.877,1.666 -7.676,14.99c10.202,13.324 9.192,33.31 2.575,30.79c-6.618,-2.521 -17.831,-32.456 -17.831,-44.114c0,-11.66 10.155,-34.933 10.155,-34.933Z" style="fill-opacity:0.1;fill-rule:nonzero;"/><path d="M2361.35,1163.22c0,0 5.1,58.25 46.735,74.905c41.635,16.656 -46.735,-74.905 -46.735,-74.905Z" style="fill-opacity:0.1;fill-rule:nonzero;"/><path d="M2448.03,1143.23c2.527,0.81 59.465,30.79 33.96,48.256c-25.505,17.465 -33.96,-48.256 -33.96,-48.256Z" style="fill-opacity:0.1;fill-rule:nonzero;"/><path d="M2451.43,1101.58c0,0 83.27,16.656 55.146,30.79c-28.125,14.136 -55.146,-30.79 -55.146,-30.79Z" style="fill-opacity:0.1;fill-rule:nonzero;"/><ellipse cx="1625.62" cy="2775.65" rx="119.196" ry="22.907" style="fill:#3855be;"/><ellipse cx="1623.62" cy="2765.89" rx="13.864" ry="18.166" style="fill:#3f3d56;"/><ellipse cx="1623.62" cy="2743.7" rx="13.864" ry="18.166" style="fill:#3f3d56;"/><ellipse cx="1623.62" cy="2721.51" rx="13.864" ry="18.166" style="fill:#3f3d56;"/><ellipse cx="1623.62" cy="2699.32" rx="13.864" ry="18.166" style="fill:#3f3d56;"/><ellipse cx="1623.62" cy="2677.09" rx="13.864" ry="18.166" style="fill:#3f3d56;"/><ellipse cx="1623.62" cy="2654.89" rx="13.864" ry="18.166" style="fill:#3f3d56;"/><ellipse cx="1623.62" cy="2632.71" rx="13.864" ry="18.166" style="fill:#3f3d56;"/><path d="M1675.58,2480.88c1.902,-2.398 3.633,-4.928 5.179,-7.569l-36.452,-6.015l39.44,0.318c4.001,-8.751 6.066,-18.264 6.056,-27.887c0.01,-8.519 -1.627,-16.961 -4.821,-24.859l-52.905,27.449l48.801,-35.854c-11.902,-20.356 -33.782,-32.908 -57.362,-32.908c-36.454,0 -66.45,29.996 -66.45,66.45c0,14.809 4.95,29.2 14.059,40.875c-2.953,3.704 -5.503,7.71 -7.61,11.952l47.328,24.579l-50.435,-16.931c-7.19,21.263 -3.154,44.78 10.717,62.427c-9.212,11.71 -14.222,26.184 -14.222,41.083c0,36.454 29.996,66.45 66.45,66.45c36.452,0 66.45,-29.996 66.45,-66.45c0,-14.899 -5.011,-29.373 -14.223,-41.083c18.901,-24.047 18.901,-58.18 0,-82.226l0,0.199Z" style="fill:#3855be;fill-rule:nonzero;"/><path d="M1556.89,2521.88c-0.029,14.913 4.985,29.406 14.222,41.113c-9.212,11.711 -14.222,26.185 -14.222,41.084c0,36.453 29.996,66.45 66.45,66.45c36.453,0 66.45,-29.997 66.45,-66.45c0,-14.899 -5.011,-29.373 -14.222,-41.084c8.923,-11.313 -118.678,-48.563 -118.678,-41.113Z" style="fill-opacity:0.1;fill-rule:nonzero;"/><circle cx="1150.62" cy="456.577" r="60.833" style="fill:#3855be;fill-opacity:0.1;"/><circle cx="1368.25" cy="185.319" r="101.986" style="fill:#3855be;fill-opacity:0.1;"/><circle cx="1233.29" cy="680.188" r="101.986" style="fill:#3855be;fill-opacity:0.1;"/><circle cx="2906.92" cy="826.713" r="101.986" style="fill:#3855be;fill-opacity:0.1;"/><circle cx="3041.93" cy="1321.58" r="101.986" style="fill:#3855be;fill-opacity:0.1;"/><ellipse cx="353.875" cy="1401.82" rx="36.559" ry="39.207" style="fill:#3855be;fill-opacity:0.1;"/><ellipse cx="510.59" cy="1253.43" rx="61.283" ry="65.722" style="fill:#3855be;fill-opacity:0.1;"/><ellipse cx="217.277" cy="1355.37" rx="61.283" ry="65.722" style="fill:#3855be;fill-opacity:0.1;"/><circle cx="244.6" cy="221.182" r="144.414" style="fill:#3855be;fill-opacity:0.1;"/><circle cx="979.915" cy="1291.7" r="83.342" style="fill:#3855be;fill-opacity:0.1;"/><circle cx="1510.08" cy="1690.08" r="83.342" style="fill:#3855be;fill-opacity:0.1;"/><path d="M754.04,531.093c0,0 88.777,182.584 74.572,279.704c-14.203,97.119 -28.408,182.585 0,229.202c28.409,46.617 -152.695,-7.77 -152.695,-7.77l0,-271.934l78.123,-229.202Z" style="fill:#ff6584;fill-rule:nonzero;"/><path d="M944.026,1022.52c0,0 -214.84,262.223 -282.311,196.182c-67.469,-66.042 -129.613,-223.375 -79.898,-273.878c26.846,-27.27 28.835,-79.443 25,-121.709c-2.005,-21.868 -5.615,-43.524 -10.796,-64.76c-5.18,-21.234 106.532,-34.963 110.083,34.964c0.245,8.217 2.227,16.262 5.789,23.502c20.347,39.508 86.539,19.23 86.539,19.23l145.594,186.469Z" style="fill:#fbbebe;fill-rule:nonzero;"/><path d="M361.646,2331.69l-95.879,0l-35.51,77.695l46.164,54.387c0,0 88.776,-11.653 113.634,-42.732c24.857,-31.079 -28.409,-89.35 -28.409,-89.35Z" style="fill:#fbbebe;fill-rule:nonzero;"/><path d="M346.934,2331.69c0,0 39.57,-19.423 14.712,-42.733c-24.857,-23.308 -46.164,-54.386 -85.225,-23.308c-39.063,31.078 -230.82,190.354 -195.309,244.741c35.511,54.386 46.164,42.733 63.919,31.078c17.755,-11.655 74.573,-58.272 120.736,-58.272c46.165,0 28.409,-66.041 10.654,-85.465c-17.755,-19.423 55.8,-66.041 70.513,-66.041Z" style="fill:#3f3d56;fill-rule:nonzero;"/><path d="M716.753,2828.94l-39.062,73.81l39.062,46.618l110.083,0c0,0 -35.511,-77.695 -21.306,-112.658c14.204,-34.964 -88.777,-7.77 -88.777,-7.77Z" style="fill:#fbbebe;fill-rule:nonzero;"/><path d="M826.839,2883.32c0,0 -39.062,46.618 -63.919,38.848c-24.857,-7.769 -68.069,-51.842 -68.069,-51.842c0,0 -63.32,67.381 -34.912,98.459c28.409,31.078 142.043,89.35 174.003,112.659c31.959,23.308 138.491,7.77 134.94,-19.424c-3.551,-27.193 -56.817,-58.272 -81.674,-93.234c-24.858,-34.963 -60.369,-85.466 -60.369,-85.466Z" style="fill:#3f3d56;fill-rule:nonzero;"/><path d="M1015.04,1609.12c0,0 78.123,268.05 -28.409,582.716c0,0 -95.879,462.289 -131.389,555.523c-35.511,93.235 -35.511,132.083 -35.511,132.083c0,0 -134.94,3.884 -124.287,-27.193c0,0 46.164,-151.507 46.164,-209.779c0,-58.272 74.572,-372.939 74.572,-372.939l24.857,-672.066l174.003,11.655Z" style="fill:#3f3d56;fill-rule:nonzero;"/><path d="M1015.04,1609.12c0,0 78.123,268.05 -28.409,582.716c0,0 -95.879,462.289 -131.389,555.523c-35.511,93.235 -35.511,132.083 -35.511,132.083c0,0 -134.94,3.884 -124.287,-27.193c0,0 46.164,-151.507 46.164,-209.779c0,-58.272 74.572,-372.939 74.572,-372.939l24.857,-672.066l174.003,11.655Z" style="fill-opacity:0.1;fill-rule:nonzero;"/><path d="M997.289,1628.55c0,0 0,124.313 -74.573,178.7c0,0 56.817,435.095 -14.204,516.675c-71.022,81.58 -188.206,46.617 -188.206,46.617c0,0 -195.309,11.655 -340.903,73.811c0,0 -113.634,-34.963 -21.306,-124.313c0,0 113.634,-31.078 149.145,-58.271c35.511,-27.193 198.859,-81.581 241.472,-58.272c0,0 -3.551,-66.041 -17.755,-112.658c-12.804,-42.021 -35.511,-170.93 -35.511,-170.93c0,0 -99.429,-205.893 0,-314.667c99.43,-108.774 301.841,23.308 301.841,23.308Z" style="fill:#3f3d56;fill-rule:nonzero;"/><path d="M711.885,816.818c-32.688,17.976 -70.79,20.258 -105.077,6.294c-2.004,-21.868 -5.614,-43.524 -10.795,-64.76c-5.18,-21.234 106.532,-34.963 110.083,34.964c0.245,8.217 2.227,16.262 5.789,23.502Z" style="fill-opacity:0.1;fill-rule:nonzero;"/><ellipse cx="652.83" cy="676.772" rx="131.389" ry="143.736" style="fill:#fbbebe;"/><path d="M645.73,1212.88c0,0 149.145,116.543 81.674,240.856c-67.47,124.312 -46.164,194.239 -46.164,194.239c0,0 127.838,0 170.452,31.077c42.612,31.079 177.552,-23.308 177.552,-23.308c0,0 21.307,-155.391 -7.101,-229.201c-28.409,-73.811 -42.613,-190.355 -31.96,-213.663c10.653,-23.309 39.061,-132.083 -28.408,-194.239l-38.413,-22.572c0,0 24.208,111.922 -139.141,41.996c0,0 -35.51,229.202 -138.491,174.815Z" style="fill:#3855be;fill-rule:nonzero;"/><path d="M786.073,838.924l3.69,4.234l134.588,154.185l4.154,4.743l0.247,0.888l2.701,9.208l5.394,18.612l-21.198,-25.719l-130.538,-158.111l-5.75,-6.953l6.712,-1.087Z" style="fill:#3855be;fill-rule:nonzero;"/><path d="M795.496,1049.87c0,0 -110.702,-105.049 -188.826,-77.856c-78.123,27.193 37.869,258.322 61.547,261.244l9.474,-0.964c0,0 -145.593,-194.239 -63.918,-252.511c0,0 102.98,11.655 181.104,81.581l0.619,-11.494Z" style="fill:#3855be;fill-rule:nonzero;"/><path d="M727.404,1026.4l259.228,89.349l429.678,27.193c0,0 124.288,3.886 102.982,66.042c-21.307,62.156 -134.94,15.539 -134.94,15.539l-369.311,7.769c0,0 -305.392,-34.963 -330.249,-54.387c-24.858,-19.424 14.204,-163.16 42.612,-151.505Z" style="fill:#fbbebe;fill-rule:nonzero;"/><path d="M613.768,797.2c0,0 -14.205,-31.078 14.204,-66.041c14.462,-17.799 27.084,-55.737 35.991,-88.694c8.44,-31.272 37.125,-51.023 66.548,-45.82c25.424,4.49 52.232,5.922 60.809,-5.337c17.755,-23.31 -3.551,-147.623 -142.042,-120.428c-138.492,27.193 -227.268,-34.964 -227.268,112.657c0,147.622 85.225,190.355 24.858,337.976c-60.369,147.622 -177.554,163.161 -110.083,260.28c67.469,97.119 245.023,124.313 255.676,89.35c10.653,-34.963 -42.613,-170.93 -7.102,-225.318c35.51,-54.386 95.878,-112.657 78.123,-147.621c-17.756,-34.963 -49.714,-101.004 -49.714,-101.004Z" style="fill:#ff6584;fill-rule:nonzero;"/><defs><linearGradient id="_Linear1" x1="0" y1="0" x2="1" y2="0" gradientUnits="userSpaceOnUse" gradientTransform="matrix(1.78964e-13,-2862.96,2922.71,1.75305e-13,2036.5,3020.26)"><stop offset="0" style="stop-color:#808080;stop-opacity:0.25"/><stop offset="0.54" style="stop-color:#808080;stop-opacity:0.12"/><stop offset="1" style="stop-color:#808080;stop-opacity:0.1"/></linearGradient></defs></svg>