<?xml version="1.0" encoding="UTF-8" standalone="no"?><!DOCTYPE svg PUBLIC "-//W3C//DTD SVG 1.1//EN" "http://www.w3.org/Graphics/SVG/1.1/DTD/svg11.dtd"><svg width="100%" height="100%" viewBox="0 0 209 208" version="1.1" xmlns="http://www.w3.org/2000/svg" xmlns:xlink="http://www.w3.org/1999/xlink" xml:space="preserve" xmlns:serif="http://www.serif.com/" style="fill-rule:evenodd;clip-rule:evenodd;stroke-linejoin:round;stroke-miterlimit:1.41421;"><rect id="Artboard1" x="0" y="0" width="208.333" height="207.158" style="fill:none;"/><g><path d="M112.5,108.333c0,-23.908 -15.592,-44.216 -37.129,-51.379c7.333,-5.304 12.129,-13.904 12.129,-23.621c0,-16.079 -13.088,-29.166 -29.167,-29.166c-16.079,0 -29.166,13.087 -29.166,29.166c0,9.717 4.795,18.317 12.129,23.621c-21.538,7.163 -37.129,27.471 -37.129,51.379l0,4.167l108.333,0l0,-4.167Zm-75,-75c0,-11.487 9.346,-20.833 20.833,-20.833c11.488,0 20.834,9.346 20.834,20.833c0,11.488 -9.346,20.834 -20.834,20.834c-11.487,0 -20.833,-9.346 -20.833,-20.834Zm-24.813,70.834c2.113,-23.33 21.775,-41.667 45.646,-41.667c23.871,0 43.534,18.337 45.646,41.667l-91.292,0Z" style="fill:#3855be;fill-rule:nonzero;"/><path d="M167.038,148.621c7.333,-5.304 12.129,-13.904 12.129,-23.621c0,-16.079 -13.088,-29.167 -29.167,-29.167c-16.079,0 -29.167,13.088 -29.167,29.167c0,9.717 4.796,18.317 12.13,23.621c-21.538,7.162 -37.13,27.471 -37.13,51.379l0,4.167l108.334,0l0,-4.167c0,-23.908 -15.592,-44.217 -37.13,-51.379Zm-37.87,-23.621c0,-11.488 9.346,-20.833 20.833,-20.833c11.488,0 20.833,9.345 20.833,20.833c0,11.488 -9.345,20.833 -20.833,20.833c-11.487,0 -20.833,-9.346 -20.833,-20.833Zm-24.813,70.833c2.113,-23.329 21.775,-41.666 45.646,-41.666c23.871,0 43.533,18.337 45.646,41.666l-91.292,0Z" style="fill:#3855be;fill-rule:nonzero;"/><path d="M154.167,79.167l0,-50l-35.775,0l13.721,-13.721l-5.892,-5.892l-23.779,23.779l23.779,23.78l5.892,-5.892l-13.721,-13.721l27.441,0l0,41.667l8.334,0Z" style="fill:#3855be;fill-rule:nonzero;"/><path d="M51.221,157.112l13.721,13.721l-27.442,0l0,-41.666l-8.333,0l0,50l35.775,0l-13.721,13.72l5.892,5.892l23.779,-23.779l-23.78,-23.779l-5.891,5.891Z" style="fill:#3855be;fill-rule:nonzero;"/></g></svg>