<?xml version="1.0" encoding="UTF-8" standalone="no"?><!DOCTYPE svg PUBLIC "-//W3C//DTD SVG 1.1//EN" "http://www.w3.org/Graphics/SVG/1.1/DTD/svg11.dtd"><svg width="100%" height="100%" viewBox="0 0 4024 3337" version="1.1" xmlns="http://www.w3.org/2000/svg" xmlns:xlink="http://www.w3.org/1999/xlink" xml:space="preserve" xmlns:serif="http://www.serif.com/" style="fill-rule:evenodd;clip-rule:evenodd;stroke-linejoin:round;stroke-miterlimit:1.41421;"><path d="M3780.41,1843.75c-141.414,250 -114.916,590.583 -52.806,859.125c20.779,89.917 44.723,184.833 26.956,285.458c-21.733,123.042 -100.962,219.667 -181.144,275c-146.18,100.625 -313.102,97.834 -434.652,-7.375c-104.964,-90.875 -174.089,-249.375 -281.265,-335.375c-179.199,-143.958 -425.273,-56.708 -638.939,77.834c-151.099,94.958 -317.41,215.791 -457.071,147.375c-98.254,-48.042 -159.525,-183.584 -188.12,-331.084c-13.802,-71.208 -22.152,-149 -53.798,-203.25c-18.835,-32.25 -44.723,-53.833 -71.565,-71.541c-244.968,-161.417 -576.41,-26.459 -812.647,-209.25c-159.563,-123.417 -250.268,-378.334 -280.083,-650.917c-29.816,-272.583 -5.3,-564.25 25.392,-851.417c21.847,-204.166 51.396,-422.583 149.46,-588.625c103.744,-175.625 267.273,-254.166 409.411,-237.5c142.139,16.667 265.558,115.084 371.933,235.375c132.95,150.334 252.861,342.334 424.93,390.834c117.203,33.041 245.197,-5.209 369.835,-26.834c208.099,-36.166 413.301,-25.791 617.053,-12.208c195.06,13 391.302,29.167 573.055,104.167c128.603,53.125 227.315,163.708 347.34,235.625c78.238,46.875 166.502,52.833 239.402,115.333c89.79,77 167.494,219.125 131.539,398.792c-34.276,170.916 -159.181,267.791 -234.216,400.458Z" style="fill:#fff;fill-opacity:0.2;fill-rule:nonzero;"/><rect x="804.458" y="138.333" width="2377.54" height="2760.54" style="fill:url(#_Linear1);"/><rect x="832.167" y="170.458" width="2322.17" height="2696.21" style="fill:#f7f7fd;"/><rect x="972.417" y="474.375" width="587.042" height="46.75" style="fill:#e2e2ec;"/><rect x="972.417" y="588.667" width="1002.62" height="46.75" style="fill:#e2e2ec;"/><rect x="2626.5" y="429.708" width="416.625" height="359.5" style="fill:#fff;"/><path d="M3040.92,431.792l0,355.333l-412.5,0l0,-355.333l412.5,0m4.166,-4.167l-420.833,0l0,363.667l420.833,0l0,-363.667Z" style="fill:#e2e2ec;fill-rule:nonzero;"/><rect x="2205.71" y="429.708" width="416.625" height="359.5" style="fill:#fff;"/><path d="M2620.08,431.792l0,355.333l-412.5,0l0,-355.333l412.5,0m4.167,-4.167l-420.833,0l0,363.667l420.833,0l0,-363.667Z" style="fill:#e2e2ec;fill-rule:nonzero;"/><rect x="2626.5" y="793.375" width="416.625" height="359.5" style="fill:#fff;"/><path d="M3040.92,795.458l0,355.334l-412.5,0l0,-355.334l412.5,0m4.166,-4.166l-420.833,0l0,363.666l420.833,0l0,-363.666Z" style="fill:#e2e2ec;fill-rule:nonzero;"/><rect x="2205.71" y="793.375" width="416.625" height="359.5" style="fill:#fff;"/><path d="M2620.08,795.458l0,355.334l-412.5,0l0,-355.334l412.5,0m4.167,-4.166l-420.833,0l0,363.666l420.833,0l0,-363.666Z" style="fill:#e2e2ec;fill-rule:nonzero;"/><rect x="1784.92" y="793.375" width="416.625" height="359.5" style="fill:#fff;"/><path d="M2199.46,795.458l0,355.334l-412.5,0l0,-355.334l412.5,0m4.167,-4.166l-420.833,0l0,363.666l420.833,0l0,-363.666Z" style="fill:#e2e2ec;fill-rule:nonzero;"/><rect x="1364.12" y="793.375" width="416.625" height="359.5" style="fill:#fff;"/><path d="M1778.67,795.458l0,355.334l-412.5,0l0,-355.334l412.5,0m4.166,-4.166l-420.833,0l0,363.666l420.833,0l0,-363.666Z" style="fill:#e2e2ec;fill-rule:nonzero;"/><rect x="943.333" y="793.375" width="416.625" height="359.5" style="fill:#fff;"/><path d="M1357.88,795.458l0,355.334l-412.5,0l0,-355.334l412.5,0m4.167,-4.166l-420.834,0l0,363.666l420.834,0l0,-363.666Z" style="fill:#e2e2ec;fill-rule:nonzero;"/><rect x="2626.5" y="1157" width="416.625" height="359.5" style="fill:#fff;"/><path d="M3040.92,1159.12l0,355.333l-412.5,0l0,-355.333l412.5,0m4.166,-4.167l-420.833,0l0,363.667l420.833,0l0,-363.667Z" style="fill:#e2e2ec;fill-rule:nonzero;"/><rect x="2205.71" y="1157" width="416.625" height="359.5" style="fill:#fff;"/><path d="M2620.08,1159.12l0,355.333l-412.5,0l0,-355.333l412.5,0m4.167,-4.167l-420.833,0l0,363.667l420.833,0l0,-363.667Z" style="fill:#e2e2ec;fill-rule:nonzero;"/><rect x="1784.92" y="1157" width="416.625" height="359.5" style="fill:#fff;"/><path d="M2199.46,1159.12l0,355.333l-412.5,0l0,-355.333l412.5,0m4.167,-4.167l-420.833,0l0,363.667l420.833,0l0,-363.667Z" style="fill:#e2e2ec;fill-rule:nonzero;"/><rect x="1364.12" y="1157" width="416.625" height="359.5" style="fill:#fff;"/><path d="M1778.67,1159.12l0,355.333l-412.5,0l0,-355.333l412.5,0m4.166,-4.167l-420.833,0l0,363.667l420.833,0l0,-363.667Z" style="fill:#e2e2ec;fill-rule:nonzero;"/><rect x="943.333" y="1157" width="416.625" height="359.5" style="fill:#fff;"/><path d="M1357.88,1159.12l0,355.333l-412.5,0l0,-355.333l412.5,0m4.167,-4.167l-420.834,0l0,363.667l420.834,0l0,-363.667Z" style="fill:#e2e2ec;fill-rule:nonzero;"/><rect x="2626.5" y="1520.67" width="416.625" height="359.5" style="fill:#fff;"/><path d="M3040.92,1522.75l0,355.333l-412.5,0l0,-355.333l412.5,0m4.166,-4.167l-420.833,0l0,363.667l420.833,0l0,-363.667Z" style="fill:#e2e2ec;fill-rule:nonzero;"/><rect x="2205.71" y="1520.67" width="416.625" height="359.5" style="fill:#fff;"/><path d="M2620.08,1522.75l0,355.333l-412.5,0l0,-355.333l412.5,0m4.167,-4.167l-420.833,0l0,363.667l420.833,0l0,-363.667Z" style="fill:#e2e2ec;fill-rule:nonzero;"/><rect x="1784.92" y="1520.67" width="416.625" height="359.5" style="fill:#fff;"/><path d="M2199.46,1522.75l0,355.333l-412.5,0l0,-355.333l412.5,0m4.167,-4.167l-420.833,0l0,363.667l420.833,0l0,-363.667Z" style="fill:#e2e2ec;fill-rule:nonzero;"/><rect x="1364.12" y="1520.67" width="416.625" height="359.5" style="fill:#fff;"/><path d="M1778.67,1522.75l0,355.333l-412.5,0l0,-355.333l412.5,0m4.166,-4.167l-420.833,0l0,363.667l420.833,0l0,-363.667Z" style="fill:#e2e2ec;fill-rule:nonzero;"/><rect x="943.333" y="1520.67" width="416.625" height="359.5" style="fill:#fff;"/><path d="M1357.88,1522.75l0,355.333l-412.5,0l0,-355.333l412.5,0m4.167,-4.167l-420.834,0l0,363.667l420.834,0l0,-363.667Z" style="fill:#e2e2ec;fill-rule:nonzero;"/><rect x="2626.5" y="1884.29" width="416.625" height="359.5" style="fill:#fff;"/><path d="M3040.92,1886.42l0,355.291l-412.5,0l0,-355.291l412.5,0m4.166,-4.167l-420.833,0l0,363.625l420.833,0l0,-363.625Z" style="fill:#e2e2ec;fill-rule:nonzero;"/><rect x="2205.71" y="1884.29" width="416.625" height="359.5" style="fill:#fff;"/><path d="M2620.08,1886.42l0,355.291l-412.5,0l0,-355.291l412.5,0m4.167,-4.167l-420.833,0l0,363.625l420.833,0l0,-363.625Z" style="fill:#e2e2ec;fill-rule:nonzero;"/><rect x="1784.92" y="1884.29" width="416.625" height="359.5" style="fill:#fff;"/><path d="M2199.46,1886.42l0,355.291l-412.5,0l0,-355.291l412.5,0m4.167,-4.167l-420.833,0l0,363.625l420.833,0l0,-363.625Z" style="fill:#e2e2ec;fill-rule:nonzero;"/><rect x="1364.12" y="1884.29" width="416.625" height="359.5" style="fill:#fff;"/><path d="M1778.67,1886.42l0,355.291l-412.5,0l0,-355.291l412.5,0m4.166,-4.167l-420.833,0l0,363.625l420.833,0l0,-363.625Z" style="fill:#e2e2ec;fill-rule:nonzero;"/><rect x="943.333" y="1884.29" width="416.625" height="359.5" style="fill:#fff;"/><path d="M1357.88,1886.42l0,355.291l-412.5,0l0,-355.291l412.5,0m4.167,-4.167l-420.834,0l0,363.625l420.834,0l0,-363.625Z" style="fill:#e2e2ec;fill-rule:nonzero;"/><rect x="2626.5" y="2247.96" width="416.625" height="359.5" style="fill:#fff;"/><path d="M3040.92,2250.04l0,355.333l-412.5,0l0,-355.333l412.5,0m4.166,-4.167l-420.833,0l0,363.667l420.833,0l0,-363.667Z" style="fill:#e2e2ec;fill-rule:nonzero;"/><rect x="2205.71" y="2247.96" width="416.625" height="359.5" style="fill:#fff;"/><path d="M2620.08,2250.04l0,355.333l-412.5,0l0,-355.333l412.5,0m4.167,-4.167l-420.833,0l0,363.667l420.833,0l0,-363.667Z" style="fill:#e2e2ec;fill-rule:nonzero;"/><rect x="1784.92" y="2247.96" width="416.625" height="359.5" style="fill:#fff;"/><path d="M2199.46,2250.04l0,355.333l-412.5,0l0,-355.333l412.5,0m4.167,-4.167l-420.833,0l0,363.667l420.833,0l0,-363.667Z" style="fill:#e2e2ec;fill-rule:nonzero;"/><rect x="1364.12" y="2247.96" width="416.625" height="359.5" style="fill:#fff;"/><path d="M1778.67,2250.04l0,355.333l-412.5,0l0,-355.333l412.5,0m4.166,-4.167l-420.833,0l0,363.667l420.833,0l0,-363.667Z" style="fill:#e2e2ec;fill-rule:nonzero;"/><rect x="943.333" y="2247.96" width="416.625" height="359.5" style="fill:#fff;"/><path d="M1357.88,2250.04l0,355.333l-412.5,0l0,-355.333l412.5,0m4.167,-4.167l-420.834,0l0,363.667l420.834,0l0,-363.667Z" style="fill:#e2e2ec;fill-rule:nonzero;"/><path d="M1985.08,2937.04c11.917,-9.042 23.125,-19.709 26.584,-32.709c3.665,-14.205 -4.574,-28.982 -18.584,-33.333c-17.041,-5.333 -35.25,4.167 -49.083,14.042c-13.833,9.875 -29.625,20.833 -47.708,18.791c18.708,-13.541 27.625,-35.5 22.458,-55.458c-0.886,-4.3 -3.067,-8.227 -6.25,-11.25c-9.458,-8.333 -26.625,-4.708 -37.958,1.792c-36.042,20.833 -46.084,60.625 -46.292,96.583c-3.625,-12.958 -0.583,-26.458 -0.667,-39.792c-0.083,-13.333 -4.541,-28.041 -18.291,-35.208c-8.799,-3.815 -18.33,-5.65 -27.917,-5.375c-16.208,-0.5 -34.25,0.833 -45.292,10.5c-13.75,12 -10.166,32.167 1.792,45.375c11.958,13.208 30.167,21.5 46.875,30.625c12.75,6.958 25.667,15.083 33.333,26.083c1.006,1.457 1.844,3.023 2.5,4.667l101.542,0c22.367,-9.128 43.515,-20.996 62.958,-35.333Z" style="fill:#3a69da;fill-rule:nonzero;"/><circle cx="998.292" cy="848.042" r="23.75" style="fill:#fc6681;"/><circle cx="1057.62" cy="848.042" r="23.75" style="fill:#ffd037;"/><circle cx="1836.96" cy="1200.12" r="23.75" style="fill:#3a69da;"/><circle cx="1896.33" cy="1200.12" r="23.75" style="fill:#3a69da;"/><circle cx="3106.83" cy="1880.54" r="23.75" style="fill:#3a69da;"/><circle cx="3118.71" cy="1852.88" r="23.75" style="fill:#3a69da;"/><circle cx="3130.58" cy="1829.12" r="23.75" style="fill:#3a69da;"/><circle cx="2687.5" cy="848.042" r="23.75" style="fill:#3a69da;"/><circle cx="2746.83" cy="848.042" r="23.75" style="fill:#3a69da;"/><circle cx="2806.21" cy="848.042" r="23.75" style="fill:#3a69da;"/><circle cx="2865.54" cy="848.042" r="23.75" style="fill:#3a69da;"/><circle cx="2687.5" cy="1583.83" r="23.75" style="fill:#3a69da;"/><circle cx="2746.83" cy="1583.83" r="23.75" style="fill:#3a69da;"/><circle cx="2806.21" cy="1583.83" r="23.75" style="fill:#3a69da;"/><circle cx="2865.54" cy="1583.83" r="23.75" style="fill:#3a69da;"/><circle cx="1417.62" cy="1200.12" r="23.75" style="fill:#ffd037;"/><circle cx="998.292" cy="1560.12" r="23.75" style="fill:#fc6681;"/><path d="M3086.33,1940.12c26.042,15.375 66.667,25.375 118.125,-7.667l-0.5,73.167c3.667,50 65.709,232.958 65.709,232.958l43.75,150.417c31.348,106.262 47.536,216.42 48.083,327.208c0,36.709 3.417,74.542 13.958,103c23.292,62.959 -9.166,144.084 -23.25,174.292c-23.706,8.007 -47.807,14.794 -72.208,20.333c-2.195,0.505 -4.353,1.159 -6.458,1.959l-0.292,-0.417c0,0 -65.667,26.042 -94.833,22.458c-21.75,-2.666 -35.375,24.459 -18.334,44.417c-16.083,4.167 -32.583,7.125 -43.708,5.75c-29.167,-3.583 -43.792,46.583 10.958,60.917c54.75,14.333 364.959,0 364.959,0c17.889,-8.95 27.531,-29.026 23.333,-48.584c23.833,-0.916 38.708,-1.625 38.708,-1.625c0,0 54.75,-25 0,-93.208l-2.916,2.208l-11.709,-34.458l0,-46.542c0,0 69.334,-333.333 47.459,-372.75c-21.875,-39.416 -32.834,-240.125 -32.834,-240.125l7.417,-218.625c19.792,-40.833 29.917,-104.833 35.042,-154.875c7.446,-23.873 12.143,-48.519 14,-73.458c0.875,-11.75 1.583,-24.083 2.041,-36.875c0.185,-28.057 -4.409,-55.943 -13.583,-82.458c20.833,-30 54.708,-76.375 82.667,-103.792c43.791,-43 32.833,-93.208 32.833,-93.208l-18.25,-121.875l-43.792,-207.875c5.5,-57.667 -6.541,-90.875 -19.833,-109.625c3.167,-18.625 6.125,-37.25 8.333,-55.959c9.707,-81.354 5.38,-163.775 -12.791,-243.666c-6.334,-27.875 -14.959,-56.459 -34.5,-77.584c-22.125,-23.916 -58.042,-38.5 -66.292,-69.833c-2.042,-7.792 -2.125,-16.083 -5.083,-23.583c-8,-20.5 -33.334,-27.959 -55.5,-30.625c-39.5,-4.792 -96.625,-8.334 -134.584,7.083c-26.5,10.833 -63,40.667 -77.5,72.667c-8.333,14.708 -12.208,30.166 -8.666,44.708c1.397,5.358 3.513,10.502 6.291,15.292c-5.654,15.326 -8.533,31.538 -8.5,47.875c0.269,57.345 35.788,108.964 89.25,129.708c0.875,2.75 1.667,5.458 2.334,8.125c1.658,6.42 2.855,12.951 3.583,19.542c-0.708,12.5 -1.5,25.375 -2.083,38.083c-0.417,1.75 -0.861,3.472 -1.334,5.167c-31.387,13.896 -61.988,29.503 -91.666,46.75c21.916,32.25 -3.667,168.458 -3.667,168.458c-54.75,32.25 -109.5,114.708 -51.083,200.708c58.416,86 25.541,179.167 25.541,179.167l-9.125,140.125l0,0.25l-1.833,28.042l0.708,0l-0.708,10.625l1.583,0.291l0,11.417c-25.625,9.417 -63.083,28.417 -85.416,63.542c-10.561,17.278 -23.414,33.047 -38.209,46.875c-6.179,5.347 -9.736,13.127 -9.736,21.299c0,10.062 5.392,19.388 14.111,24.409Zm440.667,-372.333c-2.197,-24.241 2.285,-48.626 12.958,-70.5c8.584,0.166 17.181,0.264 25.792,0.291c0.875,6.042 1.917,11.792 3.167,17.042c7.416,31.583 -22.209,46.708 -41.959,53.125l0.042,0.042Z" style="fill:url(#_Linear2);fill-rule:nonzero;"/><path d="M3534.21,2956.92l14.042,42.125l-45.833,45.833l-151,35.125l-108.875,-10.542l7.041,-38.625c4.235,-16.904 17.615,-30.074 34.584,-34.041c44.75,-10.5 130.083,-34.5 148,-67.792l102.041,27.917Z" style="fill:#db8b8b;fill-rule:nonzero;"/><path d="M3534.21,2956.92l14.042,42.125l-45.833,45.833l-151,35.125l-108.875,-10.542l7.041,-38.625c4.235,-16.904 17.615,-30.074 34.584,-34.041c44.75,-10.5 130.083,-34.5 148,-67.792l102.041,27.917Z" style="fill-opacity:0.1;fill-rule:nonzero;"/><path d="M3277.83,3058.75l21.084,-28.083l-21.084,-32.542c0,0 -63.208,25.5 -91.291,22c-28.084,-3.5 -42.125,45.833 10.541,59.708c52.667,13.875 351.167,0 351.167,0c0,0 52.667,-24.583 0,-91.291l-45.833,35.125c0,0 -77.25,42.125 -115.875,35.125l-108.709,-0.042Z" style="fill:#2e3037;fill-rule:nonzero;"/><path d="M3183,3118.38l108.875,10.542l151,-35.125l45.833,-45.834l-3.708,-11.166l-5.25,-15.667l-5.25,-15.25l-101.833,-28.083c-5.203,8.491 -12.343,15.631 -20.834,20.833c-33.083,22.625 -92.5,38.958 -127.375,47.125c-1.413,0.347 -2.804,0.779 -4.166,1.292c-14.994,5.037 -26.417,17.404 -30.25,32.75l-7.042,38.583Z" style="fill:#db8b8b;fill-rule:nonzero;"/><path d="M3183,3118.38l108.875,10.542l151,-35.125l45.833,-45.834l-3.708,-11.166l-41.917,32.25c0,0 -77.25,42.125 -115.875,35.125l-109.083,0l21.083,-28.084l-18.916,-29.166c-14.994,5.037 -26.417,17.404 -30.25,32.75l-7.042,38.708Z" style="fill-opacity:0.1;fill-rule:nonzero;"/><path d="M3218.12,3107.92l21.083,-28.084l-21.083,-32.541c0,0 -63.208,25.5 -91.292,22c-28.083,-3.5 -42.125,45.833 10.542,59.708c52.667,13.875 351.167,0 351.167,0c0,0 52.666,-24.583 0,-91.292l-45.834,35.125c0,0 -77.25,42.125 -115.875,35.125l-108.708,-0.041Z" style="fill:#2e3037;fill-rule:nonzero;"/><path d="M3305.92,1071.12c0,0 168.583,17.542 144,-52.667c-6.874,-19.908 -8.665,-41.223 -5.209,-62c4.373,-25.759 14.563,-50.186 29.792,-71.416l-158.042,24.583c9.47,15.836 16.679,32.918 21.417,50.75c18.833,74.458 -31.958,110.75 -31.958,110.75Z" style="fill:#db8b8b;fill-rule:nonzero;"/><path d="M3593.88,1871.79c0,0 -3.5,151 -38.625,224.75l-7.042,214.208c0,0 10.542,196.667 31.625,235.292c21.084,38.625 -45.833,365.208 -45.833,365.208l0,56.208c0,0 -112.5,42.125 -144,-7.041l31.625,-417.917l-14.042,-579.417l186.292,-91.291Z" style="fill:#474463;fill-rule:nonzero;"/><path d="M3593.88,1871.79c0,0 -3.5,151 -38.625,224.75l-7.042,214.208c0,0 10.542,196.667 31.625,235.292c21.084,38.625 -45.833,365.208 -45.833,365.208l0,56.208c0,0 -112.5,42.125 -144,-7.041l31.625,-417.917l-14.042,-579.417l186.292,-91.291Z" style="fill-opacity:0.1;fill-rule:nonzero;"/><path d="M3664.12,1387.17l21.083,56.208l17.542,119.417c4.805,33.723 -6.989,67.767 -31.625,91.291c-42.125,42.125 -98.333,129.917 -98.333,129.917l-66.667,-200c0,0 66.667,-10.542 56.208,-56.208c-10.458,-45.667 -7.083,-130.25 -7.083,-130.25l108.875,-10.375Z" style="fill:#fc6681;fill-rule:nonzero;"/><path d="M3664.12,1387.17l21.083,56.208l17.542,119.417c4.805,33.723 -6.989,67.767 -31.625,91.291c-42.125,42.125 -98.333,129.917 -98.333,129.917l-66.667,-200c0,0 66.667,-10.542 56.208,-56.208c-10.458,-45.667 -7.083,-130.25 -7.083,-130.25l108.875,-10.375Z" style="fill-opacity:0.05;fill-rule:nonzero;"/><path d="M3352,2998.67c45.042,70.833 115.167,30.708 127.583,22.708l-5.083,-15.5l-101.833,-28.083c-5.15,8.487 -12.232,15.64 -20.667,20.875Z" style="fill-opacity:0.1;fill-rule:nonzero;"/><path d="M3211.12,2008.75c3.5,49.167 63.208,228.25 63.208,228.25l42.125,147.375c30.186,104.205 45.765,212.096 46.292,320.583c0,35.959 3.292,73.042 13.458,100.917c28.084,77.25 -28.083,182.625 -28.083,182.625c49.167,87.792 133.333,28.083 133.333,28.083l0,-56.166c0,0 66.667,-305.542 49.167,-365.209c-17.5,-59.666 -24.583,-221.25 -24.583,-221.25l0,-291.666c56.239,-56.039 90.463,-130.495 96.375,-209.667c0.833,-11.5 1.5,-23.583 1.958,-36.125c2.833,-79.167 -51.333,-172.125 -72.5,-205.208c-5.083,-8 -8.333,-12.5 -8.333,-12.5l-310.084,123l-0.708,0.291l0,38.542l-1.625,228.125Z" style="fill:#474463;fill-rule:nonzero;"/><path d="M3316.46,909.583c9.47,15.836 16.679,32.918 21.417,50.75c34.667,13.153 73.222,11.74 106.833,-3.916c4.379,-25.745 14.568,-50.157 29.792,-71.375l-158.042,24.541Z" style="fill-opacity:0.1;fill-rule:nonzero;"/><circle cx="3386.71" cy="825.25" r="136.958" style="fill:#db8b8b;"/><path d="M3211.12,1780.5l1.5,0.292c147.25,30.291 332.125,-123.209 332.125,-123.209c-4.954,-8.353 -9.232,-17.089 -12.792,-26.125c-5.083,-8 -8.333,-12.5 -8.333,-12.5l-310.083,123l-0.792,12.292l-1.625,26.25Z" style="fill-opacity:0.1;fill-rule:nonzero;"/><path d="M3249.75,1067.58c0,0 196.667,-119.416 259.875,-70.25l87.792,112.5c0,0 56.208,17.542 45.833,129.917l41.958,203.625l-126.416,31.625c0,0 -73.75,70.25 -14.042,172.083c0,0 -186.125,154.5 -333.625,122.917l10.542,-165.042c0,0 31.625,-91.291 -24.584,-175.583c-56.208,-84.292 -3.5,-165.042 49.167,-196.667c0,-0.041 24.542,-133.5 3.5,-165.125Z" style="fill:#fc6681;fill-rule:nonzero;"/><path d="M3239.21,1784c0,0 -73.75,14.042 -108.875,70.25c-10.134,16.86 -22.496,32.276 -36.75,45.833c-5.822,5.281 -9.147,12.787 -9.147,20.647c0,9.69 5.052,18.709 13.314,23.77c27.875,16.667 73.333,27.042 130.75,-20.125c98.5,-80.667 10.708,-140.375 10.708,-140.375Z" style="fill:#db8b8b;fill-rule:nonzero;"/><path d="M3348.08,1134.33c0,0 70.25,-7.041 87.792,175.584c17.542,182.625 45.833,224.75 45.833,224.75c0,0 17.542,94.833 -24.583,151c-42.125,56.166 -122.917,175.583 -122.917,175.583c0,0 -87.791,24.583 -105.333,-63.208l108.875,-203.667c0,0 17.542,-70.25 -24.583,-119.417c-42.125,-49.166 -73.959,-375.75 34.916,-340.625Z" style="fill-opacity:0.1;fill-rule:nonzero;"/><path d="M3340.92,1123.79c0,0 70.25,-7.042 87.791,175.583c17.542,182.625 45.834,224.75 45.834,224.75c0,0 17.541,94.833 -24.584,151c-42.125,56.167 -122.916,175.583 -122.916,175.583c0,0 -87.792,24.584 -105.334,-63.208l108.875,-203.667c0,0 17.542,-70.25 -24.583,-119.416c-42.125,-49.167 -73.833,-375.75 34.917,-340.625Z" style="fill:#fc6681;fill-rule:nonzero;"/><path d="M3283.08,1255.46c0,0 -7,108.75 24.5,168.584c31.5,59.833 31.625,136.958 0,179.166" style="fill-opacity:0.1;fill-rule:nonzero;"/><path d="M3265.54,1122.04c0,0 28.083,-28.084 108.875,-31.625c80.791,-3.542 115.875,-28.084 115.875,-28.084" style="fill-opacity:0.1;fill-rule:nonzero;"/><path d="M3460.88,648.292c21.333,2.625 45.833,9.958 53.417,30c2.833,7.375 2.916,15.5 4.875,23.125c7.958,30.666 42.5,44.958 63.791,68.416c18.792,20.834 27.084,48.709 33.334,76c17.533,78.261 21.759,158.919 12.5,238.584c-6.834,58.333 -20.834,115.583 -24.75,174.083c-3.917,58.5 3.25,120.042 35.208,169.208c13.75,21.125 31.917,39.709 41.667,62.959c-20.125,16.333 -47.917,18.666 -73.875,19.541c-30.195,1.028 -60.403,1.028 -90.625,0c-15.834,-0.541 -32.375,-1.583 -46.042,-9.583c-10.119,-6.471 -18.434,-15.403 -24.167,-25.958c-17.291,-29.167 -21.625,-64.584 -20.833,-98.584c0.792,-34 6.125,-67.833 6.75,-101.875c0.333,-18.541 -1.125,-38.25 -11.792,-53.416c-7.708,-10.959 -19.416,-18.334 -29.416,-27.209c-37.5,-33.333 -50.5,-86.75 -51.75,-136.958c-1.25,-50.208 7.041,-100.5 2.791,-150.542c-1.666,-19.583 -9,-43.125 -28.25,-46.916c-6.083,-1.209 -12.5,0 -18.333,-2.334c-15.458,-5.958 -13.958,-27.75 -18.375,-43.708c-4.958,-17.917 -20.25,-31.75 -24.542,-50c-10.125,-42.5 43.959,-93.208 79.417,-108c36.042,-15.083 91,-11.5 129,-6.833Z" style="fill-opacity:0.1;fill-rule:nonzero;"/><path d="M3464.38,641.292c21.333,2.625 45.833,9.958 53.417,30c2.833,7.375 2.916,15.5 4.875,23.125c7.958,30.666 42.5,44.958 63.791,68.416c18.792,20.834 27.084,48.709 33.334,76c17.533,78.261 21.759,158.919 12.5,238.584c-6.834,58.333 -20.834,115.583 -24.75,174.083c-3.917,58.5 3.25,120.042 35.208,169.208c13.75,21.125 31.917,39.709 41.667,62.959c-20.125,16.333 -47.917,18.666 -73.875,19.541c-30.195,1.028 -60.403,1.028 -90.625,0c-15.834,-0.541 -32.375,-1.583 -46.042,-9.583c-10.119,-6.471 -18.434,-15.403 -24.167,-25.958c-17.291,-29.167 -21.625,-64.584 -20.833,-98.584c0.792,-34 6.125,-67.833 6.75,-101.875c0.333,-18.541 -1.125,-38.25 -11.792,-53.416c-7.708,-10.959 -19.416,-18.334 -29.416,-27.209c-37.5,-33.333 -50.5,-86.75 -51.75,-136.958c-1.25,-50.208 7.041,-100.5 2.791,-150.542c-1.666,-19.583 -9,-43.125 -28.25,-46.916c-6.083,-1.209 -12.5,0 -18.333,-2.334c-15.458,-5.958 -13.958,-27.75 -18.375,-43.708c-4.958,-17.917 -20.25,-31.75 -24.542,-50c-10.125,-42.5 43.959,-93.208 79.417,-108c36.042,-15.125 91,-11.542 129,-6.833Z" style="fill:#472727;fill-rule:nonzero;"/><defs><linearGradient id="_Linear1" x1="0" y1="0" x2="1" y2="0" gradientUnits="userSpaceOnUse" gradientTransform="matrix(1.69032e-13,-2760.5,2760.5,1.69032e-13,1993.25,2898.83)"><stop offset="0" style="stop-color:#808080;stop-opacity:0.25"/><stop offset="0.54" style="stop-color:#808080;stop-opacity:0.12"/><stop offset="1" style="stop-color:#808080;stop-opacity:0.1"/></linearGradient><linearGradient id="_Linear2" x1="0" y1="0" x2="1" y2="0" gradientUnits="userSpaceOnUse" gradientTransform="matrix(1.56114e-13,-2549.54,2549.54,1.56114e-13,3394.21,3155.33)"><stop offset="0" style="stop-color:#808080;stop-opacity:0.25"/><stop offset="0.54" style="stop-color:#808080;stop-opacity:0.12"/><stop offset="1" style="stop-color:#808080;stop-opacity:0.1"/></linearGradient></defs></svg>