<?xml version="1.0" encoding="UTF-8" standalone="no"?><!DOCTYPE svg PUBLIC "-//W3C//DTD SVG 1.1//EN" "http://www.w3.org/Graphics/SVG/1.1/DTD/svg11.dtd"><svg width="100%" height="100%" viewBox="0 0 417 417" version="1.1" xmlns="http://www.w3.org/2000/svg" xmlns:xlink="http://www.w3.org/1999/xlink" xml:space="preserve" xmlns:serif="http://www.serif.com/" style="fill-rule:evenodd;clip-rule:evenodd;stroke-linejoin:round;stroke-miterlimit:1.41421;"><g id="surface1"><path d="M164.802,101.936l13.572,13.572l14.726,14.728c3.21,3.209 7.476,4.975 12.013,4.975l0.002,0c4.538,0 8.803,-1.768 12.016,-4.977c6.623,-6.625 6.625,-17.407 0,-24.034l-28.307,-28.305c-3.21,-3.21 -7.476,-4.978 -12.018,-4.978c-4.537,0 -8.805,1.768 -12.015,4.976c-6.602,6.604 -6.623,17.336 -0.065,23.97c0.025,0.025 0.051,0.048 0.076,0.073Z" style="fill:#3855be;fill-rule:nonzero;"/><path d="M129.416,137.319l8.855,8.856l19.446,19.443c0.008,0.006 0.014,0.014 0.023,0.023l6.957,6.957c0.031,0.032 0.065,0.063 0.096,0.094c3.208,3.211 7.476,4.979 12.016,4.979c4.537,0 8.805,-1.768 12.017,-4.977c3.208,-3.21 4.976,-7.477 4.976,-12.015c0,-4.539 -1.768,-8.809 -4.978,-12.017l-7.008,-7.01c-0.027,-0.025 -0.052,-0.048 -0.075,-0.073l-16.22,-16.223l-12.064,-12.061c-0.006,-0.006 -0.01,-0.01 -0.016,-0.017c0,0 0,-0.002 -0.003,-0.002c-3.21,-3.208 -7.473,-4.976 -12.011,-4.976c-4.539,0 -8.809,1.768 -12.019,4.978c-6.611,6.613 -6.623,17.366 -0.038,23.995c0.017,0.015 0.032,0.032 0.046,0.046Z" style="fill:#3855be;fill-rule:nonzero;"/><path d="M94.083,172.751l28.165,28.162c0.029,0.03 0.058,0.059 0.087,0.086c3.208,3.21 7.474,4.978 12.014,4.978c4.539,0 8.809,-1.768 12.019,-4.976c6.617,-6.621 6.623,-17.388 0.015,-24.016l-17.88,-17.878l-10.444,-10.445c-3.21,-3.21 -7.48,-4.979 -12.017,-4.979c-4.54,0 -8.805,1.769 -12.013,4.977c-3.213,3.212 -4.981,7.48 -4.981,12.017c0,4.54 1.768,8.807 4.979,12.015c0.018,0.021 0.037,0.04 0.056,0.059Z" style="fill:#3855be;fill-rule:nonzero;"/><path d="M97.623,247.056c2.552,2.527 5.767,4.147 9.249,4.7c0.071,0.013 0.14,0.023 0.209,0.036c0.821,0.121 1.657,0.182 2.503,0.182c4.538,0 8.805,-1.766 12.016,-4.977c6.623,-6.625 6.623,-17.407 -0.002,-24.032l-21.228,-21.228c-3.213,-3.21 -7.48,-4.979 -12.02,-4.979c-4.539,0 -8.807,1.769 -12.017,4.977c-6.623,6.625 -6.625,17.407 0.002,24.03c0.029,0.032 0.058,0.061 0.088,0.092l21.136,21.134c0.02,0.021 0.043,0.042 0.064,0.065Z" style="fill:#3855be;fill-rule:nonzero;"/><path d="M340.333,201.733c-5.507,-5.505 -14.02,-6.571 -20.701,-2.594c-3.474,2.071 -7.944,1.233 -10.434,-1.954l-0.474,-0.61c-2.495,-3.194 -2.217,-7.748 0.65,-10.613l13.261,-13.265c0.044,-0.042 0.088,-0.084 0.132,-0.128c3.13,-3.196 4.853,-7.411 4.853,-11.892c0,-4.537 -1.769,-8.807 -4.979,-12.017c-3.21,-3.211 -7.478,-4.977 -12.015,-4.977c-4.54,0 -8.807,1.769 -12.02,4.979c-3.132,3.135 -8.215,3.135 -11.35,0c-1.566,-1.568 -2.349,-3.622 -2.349,-5.677c0,-2.052 0.783,-4.106 2.351,-5.674c6.625,-6.625 6.625,-17.407 0,-24.035c-6.625,-6.623 -17.408,-6.623 -24.033,0c-3.133,3.135 -8.216,3.135 -11.351,0c-1.565,-1.567 -2.351,-3.622 -2.351,-5.674c0,-2.054 0.786,-4.109 2.354,-5.676c3.21,-3.209 4.978,-7.476 4.978,-12.016c0,-4.539 -1.768,-8.805 -4.978,-12.015c-6.626,-6.627 -17.408,-6.625 -24.035,0l-8.157,8.157l8.796,8.799c12.883,12.885 12.881,33.849 -0.002,46.732c-5.448,5.451 -12.462,8.761 -20.03,9.514c0.924,3.066 1.404,6.286 1.404,9.58c0,8.828 -3.438,17.125 -9.681,23.368c-6.242,6.241 -14.542,9.677 -23.366,9.677c-3.3,0 -6.524,-0.481 -9.597,-1.409c-0.735,7.319 -3.895,14.442 -9.49,20.039c-4.947,4.941 -11.18,8.115 -17.941,9.227c5.363,12.126 3.093,26.844 -6.828,36.769c-6.247,6.243 -14.542,9.677 -23.366,9.677l-0.002,0c-0.361,0 -0.721,-0.015 -1.08,-0.025l-13.142,13.141c-2.577,2.58 -3.885,6.21 -3.681,10.225c0.222,4.322 2.132,8.491 5.384,11.741l35.747,35.749c6.525,6.525 17.144,6.525 23.669,0l20.267,-20.266l7.745,-2.08c31.689,8.463 65.768,-0.669 88.935,-23.834l45.577,-45.578c0.035,-0.036 0.071,-0.071 0.106,-0.109l21.224,-21.224c6.625,-6.623 6.625,-17.405 0,-24.032Z" style="fill:#3855be;fill-rule:nonzero;"/><path d="M314.486,274.32l-29.709,29.709c-10.249,10.247 -22.411,18.3 -35.705,23.711l11.116,11.116c6.525,6.525 17.144,6.525 23.669,0l35.75,-35.747c6.416,-6.414 7.952,-15.716 3.356,-20.312c-3.173,-3.173 -6.111,-6.111 -8.477,-8.477Z" style="fill:#3855be;fill-rule:nonzero;"/></g></svg>