<?xml version="1.0" encoding="UTF-8" standalone="no"?><!DOCTYPE svg PUBLIC "-//W3C//DTD SVG 1.1//EN" "http://www.w3.org/Graphics/SVG/1.1/DTD/svg11.dtd"><svg width="100%" height="100%" viewBox="0 0 1738 1738" version="1.1" xmlns="http://www.w3.org/2000/svg" xmlns:xlink="http://www.w3.org/1999/xlink" xml:space="preserve" xmlns:serif="http://www.serif.com/" style="fill-rule:evenodd;clip-rule:evenodd;stroke-linejoin:round;stroke-miterlimit:1.41421;"><g><rect x="0" y="0" width="1736.11" height="1736.11" style="fill:none;"/><g><path d="M614.949,633.781c23.104,16.701 38.239,43.773 38.473,74.335l0.855,29.779l252.743,-257.39c17.783,-17.783 20.518,-46.395 4.914,-66.11c-9.846,-12.435 -24.204,-18.651 -38.564,-18.655c-12.579,0 -25.154,4.775 -34.696,14.313l-223.725,223.728Z" style="fill:#3855be;fill-rule:nonzero;"/><path d="M407.427,1048.21l16.349,-19.003l44.538,-323.841c1.588,-42.657 32.177,-78.006 72.575,-86.914l-1.298,-45.448c0,-26.719 -21.864,-48.58 -48.584,-48.58c-26.719,0 -48.58,21.861 -48.58,48.58l-46.647,339.159c-0.004,0.036 -0.022,0.073 -0.044,0.095l-45.038,52.361c-7.034,8.178 -6.568,20.394 1.067,28.014l55.662,55.577Z" style="fill:#3855be;fill-rule:nonzero;"/><path d="M964.761,490.084c20.192,4.756 38.297,16.143 51.514,32.84c8.809,11.13 14.61,23.76 17.54,36.903l26.232,-26.228c17.783,-17.786 20.519,-46.394 4.911,-66.113c-9.843,-12.436 -24.204,-18.652 -38.561,-18.652c-12.579,0 -25.154,4.772 -34.7,14.31l-26.936,26.94Z" style="fill:#3855be;fill-rule:nonzero;"/><path d="M1274.78,509.106c4.394,0 8.831,-1.313 12.692,-4.049l54.951,-38.884c9.919,-7.015 12.27,-20.749 5.251,-30.669c-7.015,-9.92 -20.749,-12.274 -30.669,-5.251l-54.95,38.883c-9.92,7.016 -12.271,20.75 -5.252,30.67c4.287,6.062 11.079,9.3 17.977,9.3Z" style="fill:#3855be;fill-rule:nonzero;"/><path d="M1196.84,453.532c2.549,0.961 5.167,1.416 7.738,1.416c8.904,0 17.284,-5.442 20.599,-14.269l23.69,-63.011c4.276,-11.372 -1.478,-24.061 -12.853,-28.337c-11.376,-4.28 -24.061,1.482 -28.337,12.854l-23.691,63.01c-4.276,11.373 1.482,24.061 12.854,28.337Z" style="fill:#3855be;fill-rule:nonzero;"/><path d="M1369.79,549.699l-0.455,0l-67.298,0.564c-12.149,0.246 -21.798,9.557 -21.552,21.703c0.242,11.996 10.045,21.74 21.993,21.74l0.454,0l67.298,-1.148c12.15,-0.25 21.798,-10.019 21.552,-22.169c-0.242,-11.995 -10.044,-20.69 -21.992,-20.69Z" style="fill:#3855be;fill-rule:nonzero;"/><path d="M1218.37,993.176c20.434,-20.434 18.993,-54.793 -4.338,-73.261c-8.735,-6.917 -19.22,-10.228 -29.727,-10.228c-13.22,0 -26.481,5.237 -36.386,15.142l-109.922,109.922c-4.423,4.423 -10.225,6.638 -16.026,6.638c-5.802,0 -11.6,-2.215 -16.026,-6.638l-0.286,-0.29c-9.579,-9.575 -9.579,-25.109 0,-34.684l177.308,-177.312c17.786,-17.783 20.522,-46.394 4.914,-66.113c-9.843,-12.436 -24.204,-18.652 -38.561,-18.652c-12.579,0 -25.154,4.771 -34.7,14.313l-179.002,179.003c-4.613,4.613 -10.657,6.92 -16.704,6.92c-6.048,0 -12.095,-2.307 -16.708,-6.92c-9.363,-9.367 -9.363,-24.545 0,-33.908l227.666,-227.666c17.783,-17.783 20.522,-46.395 4.915,-66.114c-9.843,-12.435 -24.204,-18.651 -38.562,-18.651c-12.582,0 -25.157,4.771 -34.699,14.313l-228.741,228.738c-4.672,4.675 -10.804,7.015 -16.932,7.015c-6.128,0 -12.26,-2.34 -16.932,-7.015c-9.237,-9.238 -9.237,-24.215 0,-33.449l177.928,-177.928c17.783,-17.783 20.522,-46.395 4.914,-66.113c-9.843,-12.436 -24.204,-18.652 -38.561,-18.652c-12.582,0 -25.154,4.771 -34.7,14.313l-258.288,258.288c-4.587,4.588 -10.25,6.649 -15.802,6.649c-11.379,0 -22.326,-8.655 -22.704,-21.952l-2.292,-80.038c0,-26.719 -21.86,-48.584 -48.58,-48.584c-26.72,0 -48.584,21.865 -48.584,48.584l-46.643,339.155c-0.008,0.04 -0.022,0.073 -0.048,0.099l-45.034,52.354c-7.037,8.178 -6.572,20.401 1.067,28.017l255.498,255.094c3.993,3.983 9.259,6.018 14.555,6.018c4.401,0 8.82,-1.404 12.538,-4.261l57.411,-44.088c2.461,-1.888 5.303,-3.161 8.328,-3.825c99.599,-21.71 212.98,-108.77 321.442,-217.237l127.004,-126.996Z" style="fill:#3855be;fill-rule:nonzero;"/><path d="M943.209,487.579l0.003,0" style="fill:none;fill-rule:nonzero;"/></g></g></svg>