<?xml version="1.0" encoding="UTF-8" standalone="no"?><!DOCTYPE svg PUBLIC "-//W3C//DTD SVG 1.1//EN" "http://www.w3.org/Graphics/SVG/1.1/DTD/svg11.dtd"><svg width="100%" height="100%" viewBox="0 0 4670 3594" version="1.1" xmlns="http://www.w3.org/2000/svg" xmlns:xlink="http://www.w3.org/1999/xlink" xml:space="preserve" xmlns:serif="http://www.serif.com/" style="fill-rule:evenodd;clip-rule:evenodd;stroke-miterlimit:10;"><path d="M4375,2034.42c-172.042,258.791 -128.5,618.5 -41.875,903.416c29.167,95.375 62.125,196.167 42.542,301.584c-23.959,128.916 -121.625,228.208 -221.75,283.791c-182.459,101.375 -394.25,93.042 -551.375,-21.625c-135.792,-99.125 -228.084,-268.25 -366.667,-362.5c-231.625,-157.166 -540.917,-73.083 -808,62c-188.958,95.459 -396.417,217.209 -575.5,140.834c-126,-53.75 -207.667,-198.5 -248.25,-354.792c-19.583,-75.458 -32.417,-157.667 -74.167,-215.875c-25,-34.583 -58.333,-58.333 -92.875,-77.625c-315.458,-178.083 -731.666,-46.458 -1036.88,-246.708c-205.958,-135 -328.5,-406.417 -374.25,-694.542c-45.75,-288.125 -23.208,-594.583 7.375,-896.167c21.709,-214.291 52.834,-443.541 172.375,-615.333c126.459,-181.708 331.584,-259.083 512.5,-237.292c180.917,21.792 340,129.709 478.459,260c173.041,162.5 330.708,368.584 550.416,425c149.625,38.542 310.875,2.375 468.125,-16.666c262.917,-31.459 523.459,-13.959 782.25,6.833c247.792,19.917 497.167,43.292 729.875,128.208c164.667,60.084 293.084,179.75 447.459,259.334c100.625,51.875 212.708,60.958 307,129.166c116.166,83.959 218.833,236.209 178.458,424.334c-38.375,179.125 -193.958,277.125 -285.25,414.625Z" style="fill:#d8e1f8;fill-opacity:0.3;fill-rule:nonzero;"/><rect x="3670" y="1068.42" width="170.375" height="257.917" style="fill:#3a69da;fill-opacity:0.1;"/><rect x="3686.54" y="1093.5" width="137.25" height="207.75" style="fill:#3a69da;fill-opacity:0.1;"/><rect x="3324.17" y="889.25" width="261.667" height="257.917" style="fill:#3a69da;fill-opacity:0.1;"/><rect x="3349.58" y="914.333" width="210.792" height="207.75" style="fill:#3a69da;fill-opacity:0.1;"/><rect x="269.25" y="505.5" width="799.792" height="21.292" style="fill:#3a69da;fill-opacity:0.1;"/><rect x="269.25" y="609.625" width="799.792" height="21.292" style="fill:#3a69da;fill-opacity:0.1;"/><rect x="1618.46" y="1885.96" width="81.708" height="913.083" style="fill:#d6d6e3;"/><path d="M4086.83,1981.83l0,-842.25c0.023,-48.556 39.985,-88.5 88.542,-88.5c48.494,0.092 88.352,40.006 88.375,88.5l0,1019.33c0,48.572 -39.969,88.541 -88.542,88.541l-548.375,0c-48.572,0 -88.541,-39.969 -88.541,-88.541c0,-48.573 39.969,-88.542 88.541,-88.542l371.459,0c48.572,0 88.541,-39.969 88.541,-88.542Z" style="fill:#aebee1;fill-rule:nonzero;"/><path d="M4086.83,1981.83l0,-842.25c0.023,-48.556 39.985,-88.5 88.542,-88.5c48.494,0.092 88.352,40.006 88.375,88.5l0,1019.33c0,48.572 -39.969,88.541 -88.542,88.541l-548.375,0c-48.572,0 -88.541,-39.969 -88.541,-88.541c0,-48.573 39.969,-88.542 88.541,-88.542l371.459,0c48.572,0 88.541,-39.969 88.541,-88.542Z" style="fill:#535461;fill-rule:nonzero;"/><path d="M3538.42,2154.17c2.509,-46.716 41.633,-83.793 88.416,-83.792l371.459,0c48.572,0 88.541,-39.969 88.541,-88.542l0,-842.25c-0.032,-46.993 37.353,-86.244 84.292,-88.5l0,1103.08l-632.708,0Z" style="fill:#d6d6e3;fill-rule:nonzero;"/><path d="M802.083,2010.25l0,-842.25c0,-48.494 -39.839,-88.428 -88.333,-88.542c-48.573,0 -88.542,39.969 -88.542,88.542l0,1019.33c0,0.07 0,0.139 0,0.209c0,48.572 39.969,88.541 88.542,88.541l548.333,0c48.573,0 88.542,-39.969 88.542,-88.541c0,-48.573 -39.969,-88.542 -88.542,-88.542l-371.416,0c-0.014,0 -0.028,0 -0.042,0c-48.573,0 -88.542,-39.969 -88.542,-88.542c0,-0.069 0,-0.139 0,-0.208Z" style="fill:#aebee1;fill-rule:nonzero;"/><path d="M802.083,2010.25l0,-842.25c0,-48.494 -39.839,-88.428 -88.333,-88.542c-48.573,0 -88.542,39.969 -88.542,88.542l0,1019.33c0,0.07 0,0.139 0,0.209c0,48.572 39.969,88.541 88.542,88.541l548.333,0c48.573,0 88.542,-39.969 88.542,-88.541c0,-48.573 -39.969,-88.542 -88.542,-88.542l-371.416,0c-0.014,0 -0.028,0 -0.042,0c-48.573,0 -88.542,-39.969 -88.542,-88.542c0,-0.069 0,-0.139 0,-0.208Z" style="fill:#535461;fill-rule:nonzero;"/><path d="M1350.5,2182.58c-2.51,-46.715 -41.634,-83.793 -88.417,-83.791l-371.416,0c-0.014,0 -0.028,0 -0.042,0c-48.573,0 -88.542,-39.969 -88.542,-88.542l0,0l0,-842.25c-0.009,-46.917 -37.307,-86.098 -84.166,-88.417l0,1103l632.583,0Z" style="fill:#d6d6e3;fill-rule:nonzero;"/><rect x="3235" y="1885.96" width="81.708" height="934.375" style="fill:#d6d6e3;"/><rect x="1618.46" y="1885.96" width="81.708" height="67.5" style="fill-opacity:0.1;"/><rect x="3235" y="1885.96" width="81.708" height="67.5" style="fill-opacity:0.1;"/><path d="M1910.29,1329.92c-1.306,14.389 -2.959,28.972 -4.959,43.75l-11.541,0l0,-43.75l16.5,0Z" style="fill-opacity:0.1;fill-rule:nonzero;"/><path d="M2245.08,1784.42c0.25,14.791 -10.416,26.916 -23.625,26.916l-249.375,0l0,-26l207.5,0c8.959,0 14.542,-10.833 10.042,-19.5l-188.167,-382.708c-2.709,-5.614 -8.351,-9.257 -14.583,-9.417l-93.083,0l0,-43.75l117.541,0c4.361,0.11 8.31,2.657 10.209,6.584l215.708,416.666c4.97,9.664 7.651,20.343 7.833,31.209Z" style="fill:#535461;fill-rule:nonzero;"/><path d="M1787.08,1715l-3.416,5.75l-31.959,-21.333l98.875,-760.292l25.459,0c0,0 1.041,3.5 2.75,10.167c17.041,65.708 100.75,437.833 -91.709,765.708Z" style="fill:#535461;fill-rule:nonzero;"/><path d="M1878.75,949.292l-91.667,765.708l-3.416,5.75l-31.959,-21.333l98.875,-760.292l25.459,0c0,0 1,3.625 2.708,10.167Z" style="fill-opacity:0.1;fill-rule:nonzero;"/><path d="M1816.59,931.258l-93.796,783.112l59.988,7.185l93.796,-783.112l-59.988,-7.185Z" style="fill:#d6d6e3;"/><path d="M1517.21,1784.71c-0.022,3.9 -3.225,7.103 -7.125,7.125l-10.666,0c-3.909,0 -7.125,-3.216 -7.125,-7.125c-0.034,-0.276 -0.034,-0.556 0,-0.833c0.438,-3.542 3.473,-6.235 7.041,-6.25l10.667,0c3.246,0.034 6.083,2.269 6.875,5.417c0.183,0.538 0.295,1.099 0.333,1.666Z" style="fill:#e3edf9;fill-rule:nonzero;"/><path d="M1549.17,1784.71c-0.023,3.9 -3.225,7.103 -7.125,7.125l-10.667,0c-3.909,0 -7.125,-3.216 -7.125,-7.125c0.004,-0.663 0.102,-1.322 0.292,-1.958c0.315,-1.156 0.933,-2.206 1.791,-3.042c1.317,-1.34 3.121,-2.092 5,-2.083l10.667,0c2.804,-0.013 5.368,1.62 6.542,4.167c0.406,0.919 0.618,1.912 0.625,2.916Z" style="fill:#e3edf9;fill-rule:nonzero;"/><path d="M1577.58,1784.71c-0.022,3.9 -3.225,7.103 -7.125,7.125l-10.666,0c-3.909,0 -7.125,-3.216 -7.125,-7.125c-0.018,-1.02 0.195,-2.032 0.625,-2.958c1.177,-2.506 3.69,-4.127 6.458,-4.167l10.667,0c0.014,0 0.028,0 0.041,0c3.886,0 7.084,3.198 7.084,7.084c0,0.013 0,0.027 0,0.041l0.041,0Z" style="fill:#e3edf9;fill-rule:nonzero;"/><path d="M1609.58,1784.71c-0.022,3.9 -3.225,7.103 -7.125,7.125l-10.666,0c-3.907,-0.003 -7.12,-3.218 -7.12,-7.125c0,-1.46 0.449,-2.886 1.286,-4.083l0.834,-0.917c1.316,-1.34 3.121,-2.092 5,-2.083l10.666,0c1.963,0.024 3.832,0.853 5.167,2.292c1.252,1.28 1.955,3.001 1.958,4.791Z" style="fill:#e3edf9;fill-rule:nonzero;"/><path d="M1517,1783c0.144,0.558 0.214,1.132 0.208,1.708c-0.022,3.9 -3.225,7.103 -7.125,7.125l-10.666,0c-3.909,0 -7.125,-3.216 -7.125,-7.125c-0.034,-0.276 -0.034,-0.556 0,-0.833l24.708,-0.875Z" style="fill-opacity:0.1;fill-rule:nonzero;"/><path d="M1548.58,1781.88c0.376,0.883 0.574,1.832 0.584,2.792c-0.023,3.9 -3.225,7.102 -7.125,7.125l-10.667,0c-3.909,0 -7.125,-3.217 -7.125,-7.125c0.004,-0.664 0.102,-1.323 0.292,-1.959l24.041,-0.833Z" style="fill-opacity:0.1;fill-rule:nonzero;"/><path d="M1576.54,1780.92c0.701,1.125 1.076,2.424 1.083,3.75c-0.023,3.9 -3.225,7.102 -7.125,7.125l-10.667,0c-3.908,0 -7.125,-3.217 -7.125,-7.125c-0.018,-1.021 0.196,-2.033 0.625,-2.959l23.209,-0.791Z" style="fill-opacity:0.1;fill-rule:nonzero;"/><path d="M1609.58,1784.71c-0.022,3.9 -3.225,7.103 -7.125,7.125l-10.666,0c-3.907,-0.003 -7.12,-3.218 -7.12,-7.125c0,-1.46 0.449,-2.886 1.286,-4.083l21.667,-0.75c1.262,1.291 1.966,3.028 1.958,4.833Z" style="fill-opacity:0.1;fill-rule:nonzero;"/><path d="M1673.5,1813.12l-206.042,0l0,-9.375c-0.005,-8.599 6.906,-15.751 15.5,-16.042l165.25,-5.708c0.278,-0.009 0.556,-0.014 0.834,-0.014c13.43,0 24.485,11.042 24.5,24.472l-0.042,6.667Z" style="fill:#d6d6e3;fill-rule:nonzero;"/><path d="M2690.04,1784.42c-0.25,14.791 10.416,26.916 23.625,26.916l249.5,0l0,-26l-207.75,0c-8.959,0 -14.542,-10.833 -10.042,-19.5l188.167,-382.708c2.709,-5.614 8.351,-9.257 14.583,-9.417l93.125,0l0,-43.75l-117.458,0c-4.291,0.163 -8.159,2.683 -10.042,6.542l-215.708,416.667c-5.035,9.662 -7.773,20.357 -8,31.25Z" style="fill:#535461;fill-rule:nonzero;"/><path d="M3148.08,1715l3.417,5.75l31.958,-21.333l-98.875,-760.292l-25.458,0c0,0 -1.042,3.5 -2.75,10.167c-17.083,65.708 -100.958,437.833 91.708,765.708Z" style="fill:#535461;fill-rule:nonzero;"/><path d="M3056.38,949.292l91.667,765.708l3.416,5.75l31.959,-21.333l-98.834,-760.292l-25.458,0c0,0 -1.042,3.625 -2.75,10.167Z" style="fill-opacity:0.1;fill-rule:nonzero;"/><path d="M3118.61,931.181l-59.988,7.185l93.797,783.111l59.987,-7.185l-93.796,-783.111Z" style="fill:#d6d6e3;"/><path d="M3417.92,1784.71c0.022,3.9 3.225,7.103 7.125,7.125l10.666,0c3.909,0 7.125,-3.216 7.125,-7.125c0.034,-0.276 0.034,-0.556 0,-0.833c-0.438,-3.542 -3.473,-6.235 -7.041,-6.25l-10.667,0c-3.246,0.034 -6.083,2.269 -6.875,5.417c-0.183,0.538 -0.295,1.099 -0.333,1.666Z" style="fill:#e3edf9;fill-rule:nonzero;"/><path d="M3385.96,1784.71c0.023,3.9 3.225,7.103 7.125,7.125l10.667,0c3.909,0 7.125,-3.216 7.125,-7.125c-0.004,-0.663 -0.102,-1.322 -0.292,-1.958c-0.315,-1.156 -0.933,-2.206 -1.791,-3.042c-1.317,-1.34 -3.121,-2.092 -5,-2.083l-10.875,0c-2.804,-0.013 -5.368,1.62 -6.542,4.167c-0.335,0.934 -0.477,1.926 -0.417,2.916Z" style="fill:#e3edf9;fill-rule:nonzero;"/><path d="M3357.54,1784.71c0.022,3.9 3.225,7.103 7.125,7.125l10.666,0c3.909,0 7.125,-3.216 7.125,-7.125c0.018,-1.02 -0.195,-2.032 -0.625,-2.958c-1.177,-2.506 -3.69,-4.127 -6.458,-4.167l-10.667,0c-0.014,0 -0.028,0 -0.041,0c-3.886,0 -7.084,3.198 -7.084,7.084c0,0.013 0,0.027 0,0.041l-0.041,0Z" style="fill:#e3edf9;fill-rule:nonzero;"/><path d="M3325.54,1784.71c0.022,3.9 3.225,7.103 7.125,7.125l10.666,0c3.907,-0.003 7.12,-3.218 7.12,-7.125c0,-1.46 -0.449,-2.886 -1.286,-4.083l-0.834,-0.917c-1.316,-1.34 -3.121,-2.092 -5,-2.083l-10.666,0c-1.963,0.024 -3.832,0.853 -5.167,2.292c-1.252,1.28 -1.955,3.001 -1.958,4.791Z" style="fill:#e3edf9;fill-rule:nonzero;"/><path d="M3418.12,1783c-0.144,0.558 -0.214,1.132 -0.208,1.708c0.022,3.9 3.225,7.103 7.125,7.125l10.666,0c3.909,0 7.125,-3.216 7.125,-7.125c0.034,-0.276 0.034,-0.556 0,-0.833l-24.708,-0.875Z" style="fill-opacity:0.1;fill-rule:nonzero;"/><path d="M3386.54,1781.88c-0.376,0.883 -0.574,1.832 -0.584,2.792c0.023,3.9 3.225,7.102 7.125,7.125l10.667,0c3.909,0 7.125,-3.217 7.125,-7.125c-0.004,-0.664 -0.102,-1.323 -0.292,-1.959l-24.041,-0.833Z" style="fill-opacity:0.1;fill-rule:nonzero;"/><path d="M3358.58,1780.92c-0.701,1.125 -1.076,2.424 -1.083,3.75c0.023,3.9 3.225,7.102 7.125,7.125l10.667,0c3.908,0 7.125,-3.217 7.125,-7.125c0.018,-1.021 -0.196,-2.033 -0.625,-2.959l-23.209,-0.791Z" style="fill-opacity:0.1;fill-rule:nonzero;"/><path d="M3325.54,1784.71c0.022,3.9 3.225,7.103 7.125,7.125l10.666,0c3.907,-0.003 7.12,-3.218 7.12,-7.125c0,-1.46 -0.449,-2.886 -1.286,-4.083l-21.667,-0.75c-1.262,1.291 -1.966,3.028 -1.958,4.833Z" style="fill-opacity:0.1;fill-rule:nonzero;"/><path d="M3261.62,1813.12l206.042,0l0,-9.375c0.005,-8.599 -6.906,-15.751 -15.5,-16.042l-165.25,-5.708c-0.278,-0.009 -0.556,-0.014 -0.834,-0.014c-13.43,0 -24.485,11.042 -24.5,24.472l0.042,6.667Z" style="fill:#d6d6e3;fill-rule:nonzero;"/><path d="M4124.04,1926.08c96.125,-163.041 61.291,-491.916 65.166,-498.208c3.459,-5.542 -9.791,-160.417 -98.125,-198.25c-15.958,-31.625 -31.666,-67.25 -31.666,-67.25c-1.546,1.452 -3.251,2.724 -5.084,3.792c-0.694,-1.889 -1.375,-3.806 -2.041,-5.75c-1.125,-3.292 -2.167,-6.667 -3.209,-10.042c2.473,0.79 4.992,1.43 7.542,1.917c6.735,1.644 13.828,1.014 20.167,-1.792c2.161,-1.16 4.117,-2.666 5.791,-4.458c6.959,-4.625 10.792,-12.959 14.042,-20.834l25.708,-61.583c11.584,-27.792 23.25,-55.75 29.417,-85.208c9.175,-44.327 5.621,-90.358 -10.25,-132.75c-6.083,-16.167 -14.5,-32.334 -28.792,-42c-28.625,-19.417 -68.458,-6 -101.166,-17.375c-10.75,-3.75 -20.459,-10.084 -31.209,-13.917c-23.208,-8.333 -49.416,-3.875 -71.75,6.5c-22.333,10.375 -40.416,26.875 -59.958,41.667c-9.625,7.375 -25,15 -36.333,25c-11,8.583 -19.459,18.958 -17.834,32.625c1.834,15.625 18.292,25 33.625,28.666c2.542,0.584 5.167,1.042 7.75,1.5c-27.7,28.062 -43.248,65.945 -43.248,105.376c0,66.203 43.828,124.941 107.29,143.791c7.819,14.682 14.586,29.901 20.25,45.542c0.75,2.139 1.486,4.291 2.208,6.458c-25.25,7.167 -45,13.125 -48.958,16.417c-11.958,9.916 13.083,96.75 13.083,96.75c-6.375,8.083 -12.875,17.291 -19.458,27.166c-49.922,75.827 -81.535,162.235 -92.333,252.375c-4.167,32.959 -9.584,66.667 -16.459,98.709l-298.625,-59.875l-0.625,7.375l-7.125,-1.75l-22.416,-5.542l-0.875,5.042l-3.417,-1.625c-55.542,-26.042 -149.125,-59.292 -212.5,-25c-66.875,36 77.458,83.833 170.083,109.291c-30.708,1.5 -60.083,8.875 -83.333,26.125c-67.167,50.334 122.792,76.542 212.5,85.834l3.625,0.375l0,1.916l31.083,2.875l7.292,0.667l0.708,11.083c0,0 44.5,7.292 103.959,16.125c-67.875,16.959 -151.75,28.709 -210,35.584c-61.75,7.25 -114.334,50.25 -130.917,110.208c-5.36,17.192 -5.879,35.533 -1.5,53c17.333,60.542 -3.833,505.917 -8.625,601.833l-109.792,63.209c0,0 -170.833,20.833 -57.041,60.875c10.252,3.5 20.736,6.285 31.375,8.333c-15,9.667 -13.709,22.292 30.5,37.792c113.875,39.916 378.583,-1.75 378.583,-1.75c0,0 -5.792,-46.917 -15.208,-85.917l2.916,0.25c0,0 -27.333,-101.708 14.125,-153c41.459,-51.292 -6.958,-441.667 -6.958,-441.667c0,0 72.583,-30.041 289.542,-32c175,44.917 260.291,-115.875 259.083,-199c-0.375,-1.875 -0.458,-3.791 -0.583,-5.5Z" style="fill:url(#_Linear1);fill-rule:nonzero;"/><path d="M3477.29,1673.42l-18.542,75c0,0 -16.667,-3.75 -41.667,-10.167c-84.666,-21.917 -263.25,-74.542 -191.666,-113.167c61.708,-33.333 152.583,-0.916 206.541,24.375c19.75,9.292 34.584,17.625 41.209,21.542c2.791,1.583 4.125,2.417 4.125,2.417Z" style="fill:#f8b9bf;fill-rule:nonzero;"/><path d="M3472.08,1694.58l-13.333,54.167c0,0 -16.667,-3.75 -41.667,-10.167l15.042,-88.791c19.75,9.291 34.583,17.625 41.208,21.541l-1.25,23.25Z" style="fill-opacity:0.1;fill-rule:nonzero;"/><path d="M3472.12,1753.88l-51.75,-12.792l16.083,-94.833l41.375,10.208l-5.708,97.417Z" style="fill:#d9dfe8;fill-rule:nonzero;"/><path d="M3472.12,1753.88l-22.333,-5.5l8.416,-96.75l19.625,4.833l-5.708,97.417Z" style="fill-opacity:0.1;fill-rule:nonzero;"/><path d="M3971.46,1361.08c0,0 -99.375,-57.416 -143.541,107.292c-44.167,164.708 -48.334,240.583 -48.334,240.583l-313.833,-62.75l-9.958,114.625c0,0 335.541,108.334 377.75,100.459c42.208,-7.875 179.166,-237.5 179.166,-237.5c0,0 124.5,-177.959 -41.25,-262.709Z" style="fill:#3a69da;fill-rule:nonzero;"/><g opacity="0.1"><path d="M3477.29,1673.42l-18.542,75c0,0 -16.667,-3.75 -41.667,-10.167c-84.666,-21.917 -263.25,-74.542 -191.666,-113.167c61.708,-33.333 152.583,-0.916 206.541,24.375c19.75,9.292 34.584,17.625 41.209,21.542c2.791,1.583 4.125,2.417 4.125,2.417Z" style="fill-rule:nonzero;"/><path d="M3472.08,1694.58l-13.333,54.167c0,0 -16.667,-3.75 -41.667,-10.167l15.042,-88.791c19.75,9.291 34.583,17.625 41.208,21.541l-1.25,23.25Z" style="fill-opacity:0.1;fill-rule:nonzero;"/><path d="M3472.12,1753.88l-51.75,-12.792l16.083,-94.833l41.375,10.208l-5.708,97.417Z" style="fill-rule:nonzero;"/><path d="M3472.12,1753.88l-22.333,-5.5l8.416,-96.75l19.625,4.833l-5.708,97.417Z" style="fill-opacity:0.1;fill-rule:nonzero;"/><path d="M3971.46,1365.25c0,0 -99.375,-57.417 -143.541,107.292c-44.167,164.708 -48.334,240.583 -48.334,240.583l-313.833,-62.75l-9.958,114.625c0,0 335.541,108.333 377.75,100.458c42.208,-7.875 179.166,-237.5 179.166,-237.5c0,0 124.5,-177.958 -41.25,-262.708Z" style="fill-rule:nonzero;"/></g><path d="M3339.38,2637.33l-128.125,73.792c0,0 -166,20.333 -55.417,59.083c110.584,38.75 367.667,-1.708 367.667,-1.708c0,0 -14.292,-115.5 -34.208,-131.625c-19.917,-16.125 -149.917,0.458 -149.917,0.458Z" style="fill:#68739d;fill-rule:nonzero;"/><path d="M3838.75,1809.42c0,0 -63.75,33.333 -177,62.125c-66.375,16.666 -149.458,28.5 -206.875,35.25c-59.99,6.528 -110.366,48.833 -127.167,106.791c-5.242,16.757 -5.747,34.642 -1.458,51.667c18.875,65.958 -9.292,602.125 -9.292,602.125l194.584,18c0,0 -26.542,-98.792 13.75,-148.583c40.291,-49.792 -6.75,-428.792 -6.75,-428.792c0,0 70.5,-29.167 281.166,-31.083c195.167,50 275.584,-163.625 245.459,-223.5c-30.125,-59.875 -206.417,-44 -206.417,-44Z" style="fill:#6394e2;fill-rule:nonzero;"/><g opacity="0.1"><path d="M3339.38,2637.33l-128.125,73.792c0,0 -166,20.333 -55.417,59.083c110.584,38.75 367.667,-1.708 367.667,-1.708c0,0 -14.292,-115.5 -34.208,-131.625c-19.917,-16.125 -149.917,0.458 -149.917,0.458Z" style="fill-rule:nonzero;"/><path d="M3838.75,1809.42c0,0 -63.75,33.333 -177,62.125c-66.375,16.666 -149.458,28.5 -206.875,35.25c-59.99,6.528 -110.366,48.833 -127.167,106.791c-5.242,16.757 -5.747,34.642 -1.458,51.667c18.875,65.958 -9.292,602.125 -9.292,602.125l194.584,18c0,0 -26.542,-98.792 13.75,-148.583c40.291,-49.792 -6.75,-428.792 -6.75,-428.792c0,0 70.5,-29.167 281.166,-31.083c195.167,50 275.584,-163.625 245.459,-223.5c-30.125,-59.875 -206.417,-44 -206.417,-44Z" style="fill-rule:nonzero;"/></g><path d="M3399.46,2682.12l-128.125,73.792c0,0 -165.916,20.166 -55.416,59.083c110.5,38.917 367.666,-1.708 367.666,-1.708c0,0 -14.291,-115.5 -34.208,-131.625c-19.917,-16.125 -149.917,0.458 -149.917,0.458Z" style="fill:#68739d;fill-rule:nonzero;"/><path d="M3859.58,2121.71c-210.666,1.917 -281.166,31.084 -281.166,31.084c0,0 47.041,379.166 6.75,428.791c-40.292,49.625 -13.75,148.584 -13.75,148.584l-194.584,-18c0,0 0.334,-6.334 0.875,-17.667c4.667,-93.167 25.209,-525.667 8.334,-584.458c-4.258,-16.973 -3.754,-34.796 1.458,-51.5c16.719,-58.037 67.089,-100.449 127.125,-107.042c57.375,-6.708 140.458,-18.375 206.833,-35.25l3.25,-0.833c111.25,-28.584 173.75,-61.292 173.75,-61.292c0,0 176.292,-15.833 206.417,44.042c4.248,9.494 6.354,19.808 6.167,30.208c1.5,80.792 -81.417,236.958 -251.459,193.333Z" style="fill:#6394e2;fill-rule:nonzero;"/><path d="M3566.12,1766.88l-7.125,77.083c0,0 -17.125,-1.208 -42.583,-3.875c-86.959,-9.041 -271.417,-34.458 -206.209,-83.333c56.084,-42 150.75,-23.667 207.875,-6.667c20.834,6.25 36.834,12.292 43.959,15.167c2.625,1 4.083,1.625 4.083,1.625Z" style="fill:#f8b9bf;fill-rule:nonzero;"/><path d="M4083.67,1262.92c0,0 -26.084,20.416 -57.959,42.833c-34.958,7.917 -75.541,14.458 -104.791,18.708c10.458,-33.333 4.166,-70.833 -7.625,-103.708c-12.828,-34.352 -30.431,-66.726 -52.292,-96.167l176.333,-55.041c-13.833,35.041 -7.583,75 4.167,109.75c10.374,29.583 24.548,57.694 42.167,83.625Z" style="fill:#f8b9bf;fill-rule:nonzero;"/><path d="M3564.12,1788.58l-5.125,55.375c0,0 -17.125,-1.208 -42.583,-3.875l1.666,-90.041c20.834,6.25 36.834,12.291 43.959,15.166l2.083,23.375Z" style="fill-opacity:0.1;fill-rule:nonzero;"/><path d="M3573,1847.21l-53.083,-4.916l1.75,-96.167l42.458,3.917l8.875,97.166Z" style="fill:#d9dfe8;fill-rule:nonzero;"/><path d="M4083.67,1262.92c0,0 -26.084,20.416 -57.959,42.833c-34.958,7.917 -75.541,14.458 -104.791,18.708c10.458,-33.333 4.166,-70.833 -7.625,-103.708c43.083,-12.5 104.708,-28.667 128.25,-41.667c10.344,29.654 24.505,57.836 42.125,83.834Z" style="fill-opacity:0.1;fill-rule:nonzero;"/><path d="M4048.42,1181.17c0,0 29.5,66.958 48.083,97.208c18.583,30.25 -215.917,58.333 -215.917,58.333c0,0 -24.333,-84.291 -12.708,-93.958c11.625,-9.667 160.917,-42 180.542,-61.583Z" style="fill:#d9dfe8;fill-rule:nonzero;"/><path d="M4111.38,1928.42c-9.865,17.4 -22.155,33.31 -36.5,47.25c-103.583,98.416 -273.375,-4.167 -350,-60.25c111.25,-28.584 173.75,-61.292 173.75,-61.292c0,0 176.292,-15.833 206.417,44.042c4.311,9.494 6.474,19.823 6.333,30.25Z" style="fill-opacity:0.1;fill-rule:nonzero;"/><path d="M4075.54,1968.62c-117.75,111.833 -320.834,-36.25 -375.584,-79.875c-8.875,-7.083 -13.833,-11.458 -13.833,-11.458c21.625,-20.25 40.625,-63.167 55.667,-115.667c14.019,-50.229 24.146,-101.464 30.291,-153.25c10.482,-87.551 41.182,-171.476 89.667,-245.125c6.375,-9.583 12.5,-18.542 18.875,-26.375c44.458,-56.542 119.167,-92.458 119.167,-92.458c157.666,-46.084 178.875,187.791 174.666,194.541c-4.208,6.75 37.959,399.625 -98.916,529.667Z" style="fill:#3a69da;fill-rule:nonzero;"/><path d="M4090.79,1648.92c0,0 -101.375,247.5 -141.917,261.625c-23.208,8.041 -147.167,-7.209 -248.917,-21.75c-8.875,-7.084 -13.833,-11.459 -13.833,-11.459c21.625,-20.25 40.625,-63.166 55.667,-115.666l131.041,6.25c0,0 -7.291,-75.584 11.959,-245.084c19.25,-169.5 125.958,-127.5 125.958,-127.5c176.542,59.125 80.042,253.584 80.042,253.584Z" style="fill-opacity:0.1;fill-rule:nonzero;"/><path d="M3573,1847.21l-22.917,-2.125l-6.083,-96.875l20.125,1.834l8.875,97.166Z" style="fill-opacity:0.1;fill-rule:nonzero;"/><path d="M4008.21,1384.42c0,0 -106.708,-41.959 -125.958,127.5c-19.25,169.458 -11.958,245.083 -11.958,245.083l-319.709,-15.292l7.209,114.834c0,0 347.958,57.125 388.5,43.041c40.541,-14.083 141.916,-261.625 141.916,-261.625c0,0 96.375,-194.458 -80,-253.541Z" style="fill:#3a69da;fill-rule:nonzero;"/><path d="M4015.38,1133.5c-4.667,-25.333 21.792,-25 31.292,-48.833l-176.334,55.041c12.24,16.433 23.163,33.806 32.667,51.959c9.148,2.715 18.54,4.53 28.042,5.416c42.041,4 55.166,-37.375 84.333,-63.583Z" style="fill-opacity:0.1;fill-rule:nonzero;"/><path d="M3789.94,1023.43c7.398,-80.054 78.399,-139.042 158.453,-131.644c80.055,7.399 139.042,78.399 131.644,158.454c-7.398,80.054 -78.399,139.042 -158.453,131.644c-80.055,-7.399 -139.042,-78.399 -131.644,-158.454Z" style="fill:#f8b9bf;"/><path d="M3791.25,905.25c1.792,15.167 17.792,24.417 32.667,27.833c14.875,3.417 31,3.584 44.041,11.542c20.834,12.833 26.459,41.333 23.834,65.833c-1.459,13.834 -3.542,30.792 7.791,38.834c3.56,2.18 7.532,3.598 11.667,4.166c11.821,2.394 23.958,2.816 35.917,1.25c7,-0.916 14.208,-2.5 20.833,-0.541c10.917,3.166 17.375,14.666 19.5,25.791c2.125,11.125 0.958,22.709 2.667,33.917c4.862,28.665 26.999,51.5 55.5,57.25c6.541,1.591 13.428,0.975 19.583,-1.75c7.917,-4.167 11.958,-13.042 15.375,-21.333l25,-59.834c11.25,-26.958 22.583,-54.166 28.583,-82.75c8.909,-43.047 5.456,-87.748 -9.958,-128.916c-5.917,-15.667 -14.083,-31.375 -27.958,-40.792c-27.792,-18.875 -66.667,-5.833 -98.25,-16.667c-10.459,-3.625 -19.875,-9.791 -30.292,-13.5c-22.542,-8.041 -48,-3.791 -69.708,6.334c-21.709,10.125 -39.25,26.083 -58.334,40.625c-16.541,12.875 -51.583,26.5 -48.458,52.708Z" style="fill-opacity:0.1;fill-rule:nonzero;"/><path d="M3795.08,902.042c1.792,15.166 17.792,24.416 32.667,27.833c14.875,3.417 31,3.583 44.042,11.542c20.833,12.833 26.458,41.333 23.833,65.833c-1.458,13.833 -3.542,30.792 7.792,38.833c3.559,2.18 7.531,3.599 11.666,4.167c11.822,2.393 23.958,2.816 35.917,1.25c7,-0.917 14.208,-2.5 20.833,-0.542c10.917,3.167 17.375,14.667 19.5,25.792c2.125,11.125 0.959,22.708 2.667,33.917c4.862,28.665 27,51.5 55.5,57.25c6.541,1.591 13.428,0.975 19.583,-1.75c7.917,-4.167 11.959,-13.042 15.375,-21.334l25,-59.833c11.25,-26.958 22.584,-54.167 28.584,-82.75c8.908,-43.047 5.455,-87.749 -9.959,-128.917c-5.916,-15.666 -14.083,-31.375 -27.958,-40.791c-27.792,-18.875 -66.667,-5.834 -98.25,-16.667c-10.458,-3.625 -19.875,-9.792 -30.292,-13.5c-22.541,-8.042 -48,-3.792 -69.708,6.333c-21.708,10.125 -39.25,26.084 -58.333,40.625c-16.5,12.875 -51.542,26.5 -48.459,52.709Z" style="fill:#b96b6b;fill-rule:nonzero;"/><path d="M3915.75,1477.5c0,0 -55.625,216.083 -111,236.083c-55.375,20 -30.917,25.667 -30.917,25.667" style="fill-opacity:0.1;fill-rule:nonzero;"/><rect x="3857.92" y="2269.08" width="60.458" height="397.375" style="fill:#d6d6e3;"/><rect x="3857.92" y="2269.08" width="60.458" height="29.458" style="fill-opacity:0.1;"/><path d="M3736.96,2267l0,8.333c0,10.721 8.822,19.542 19.542,19.542l263.25,0c10.72,0 19.542,-8.821 19.542,-19.542l0,-8.333c0,-10.72 -8.822,-19.542 -19.542,-19.542l-263.25,0c-10.72,0 -19.542,8.822 -19.542,19.542Z" style="fill:#d6d6e3;fill-rule:nonzero;"/><path d="M3741.46,2254.58l293.375,0c-3.7,-4.516 -9.244,-7.135 -15.083,-7.125l-263.25,0c-5.824,0.003 -11.35,2.62 -15.042,7.125Z" style="fill-opacity:0.1;fill-rule:nonzero;"/><path d="M4136.54,2667.75c0,-12.648 -10.269,-22.917 -22.917,-22.917l-450.875,0c-12.648,0 -22.917,10.269 -22.917,22.917l0,1.667c0,12.648 10.269,22.916 22.917,22.916l450.875,0c12.648,0 22.917,-10.268 22.917,-22.916l0,-1.667Z" style="fill:#d6d6e3;"/><circle cx="4108.46" cy="2722.58" r="30.25" style="fill:#535461;"/><circle cx="3667.88" cy="2722.58" r="30.25" style="fill:#535461;"/><circle cx="3888.17" cy="2722.58" r="30.25" style="fill:#535461;"/><path d="M4299.04,1816.42c0,-19.547 -15.87,-35.417 -35.417,-35.417l-404.292,0c-19.547,0 -35.416,15.87 -35.416,35.417l0,2.583c0,19.547 15.869,35.417 35.416,35.417l404.292,0c19.547,0 35.417,-15.87 35.417,-35.417l0,-2.583Z" style="fill:#d6d6e3;"/><path d="M3918.38,2644.83c0,0 -23.75,23.459 -60.458,0" style="fill-opacity:0.1;fill-rule:nonzero;"/><path d="M4299.04,1818.46l0,5.792c0,16.572 -13.637,30.208 -30.209,30.208l-414.708,0c-16.572,0 -30.208,-13.636 -30.208,-30.208l0,-5.792l475.125,0Z" style="fill-opacity:0.1;fill-rule:nonzero;"/><rect x="3426.83" y="1885.96" width="81.708" height="1041.08" style="fill:#d6d6e3;"/><rect x="3426.83" y="1885.96" width="81.708" height="67.5" style="fill-opacity:0.1;"/><rect x="970.583" y="2297.5" width="60.458" height="397.375" style="fill:#d6d6e3;"/><rect x="970.583" y="2297.5" width="60.458" height="29.458" style="fill-opacity:0.1;"/><path d="M1151.96,2295.46l0,8.334c0,10.72 -8.821,19.541 -19.541,19.541l-263.25,0c-10.721,0 -19.542,-8.821 -19.542,-19.541l0,-8.334c0.091,-10.657 8.884,-19.375 19.542,-19.375l263.25,0c10.72,0 19.541,8.822 19.541,19.542l0,-0.167Z" style="fill:#d6d6e3;fill-rule:nonzero;"/><path d="M1147.5,2283l-293.417,0c3.741,-4.439 9.279,-6.978 15.084,-6.917l263.25,0c5.804,-0.061 11.342,2.478 15.083,6.917Z" style="fill-opacity:0.1;fill-rule:nonzero;"/><path d="M1249.17,2696.17c0,-12.648 -10.269,-22.917 -22.917,-22.917l-450.875,0c-12.648,0 -22.917,10.269 -22.917,22.917l0,1.666c0,12.648 10.269,22.917 22.917,22.917l450.875,0c12.648,0 22.917,-10.269 22.917,-22.917l0,-1.666Z" style="fill:#d6d6e3;"/><circle cx="780.542" cy="2751" r="30.25" style="fill:#535461;"/><circle cx="1221.08" cy="2751" r="30.25" style="fill:#535461;"/><circle cx="1000.79" cy="2751" r="30.25" style="fill:#535461;"/><path d="M970.583,2673.25c0,0 23.75,23.458 60.459,0" style="fill-opacity:0.1;fill-rule:nonzero;"/><path d="M2512.96,1477c0,0 -67.833,-123.292 -43.041,-230.458c10.678,-44.876 6.51,-92.027 -11.875,-134.334c-8.829,-20.013 -19.471,-39.176 -31.792,-57.25" style="fill:none;fill-rule:nonzero;stroke:#535461;stroke-width:8.33px;"/><path d="M2441.29,987.292c3.541,16.166 -15.417,69.458 -15.417,69.458c0,0 -39.542,-40.417 -43.125,-56.583c-0.856,-2.821 -1.291,-5.752 -1.291,-8.7c0,-16.434 13.524,-29.958 29.958,-29.958c14.865,0 27.595,11.063 29.666,25.783l0.209,0Z" style="fill:#3a69da;fill-rule:nonzero;"/><path d="M2509.33,1066.17c-5.791,15.5 -50.666,50 -50.666,50c0,0 -11.25,-55.417 -5.417,-70.834c4.005,-12.303 15.548,-20.686 28.487,-20.686c16.435,0 29.959,13.524 29.959,29.958c0,3.97 -0.789,7.9 -2.321,11.562l-0.042,0Z" style="fill:#3a69da;fill-rule:nonzero;"/><path d="M2540.83,1219.58c-12.833,10.459 -68.958,17.5 -68.958,17.5c0,0 18.292,-53.5 31.125,-63.958c5.374,-4.454 12.138,-6.893 19.118,-6.893c16.434,0 29.958,13.524 29.958,29.958c0,9.095 -4.141,17.712 -11.243,23.393Z" style="fill:#3a69da;fill-rule:nonzero;"/><path d="M2538.54,1341c-10.875,12.5 -65,28.917 -65,28.917c0,0 8.958,-55.834 19.833,-68.292c5.687,-6.934 14.197,-10.96 23.164,-10.96c16.435,0 29.959,13.523 29.959,29.958c0,7.556 -2.859,14.838 -7.998,20.377l0.042,0Z" style="fill:#3a69da;fill-rule:nonzero;"/><path d="M2397.92,1132.71c14.083,8.709 70.625,8.334 70.625,8.334c0,0 -25,-50.709 -39.084,-59.417c-4.887,-3.214 -10.61,-4.926 -16.459,-4.926c-16.435,0 -29.958,13.523 -29.958,29.958c0,10.647 5.676,20.524 14.876,25.885l0,0.166Z" style="fill:#3a69da;fill-rule:nonzero;"/><path d="M2397.08,1274.79c16.042,4.166 69.917,-13 69.917,-13c0,0 -39.042,-40.917 -55.083,-45c-2.049,-0.436 -4.138,-0.656 -6.233,-0.656c-16.434,0 -29.958,13.524 -29.958,29.959c0,13.195 8.718,24.908 21.357,28.697Z" style="fill:#3a69da;fill-rule:nonzero;"/><path d="M2415.12,1412.96c15.083,6.75 71.125,-1 71.125,-1c0,0 -31.583,-46.916 -46.667,-53.666c-3.847,-1.72 -8.014,-2.61 -12.229,-2.61c-16.437,0 -29.963,13.526 -29.963,29.964c0,11.796 6.965,22.54 17.734,27.354l0,-0.042Z" style="fill:#3a69da;fill-rule:nonzero;"/><path d="M2441.29,987.292c3.541,16.166 -15.417,69.458 -15.417,69.458c0,0 -39.542,-40.417 -43.125,-56.583c-0.856,-2.821 -1.291,-5.752 -1.291,-8.7c0,-16.434 13.524,-29.958 29.958,-29.958c14.865,0 27.595,11.063 29.666,25.783l0.209,0Z" style="fill:#3a69da;fill-rule:nonzero;"/><path d="M2509.33,1066.17c-5.791,15.5 -50.666,50 -50.666,50c0,0 -11.25,-55.417 -5.417,-70.834c4.005,-12.303 15.548,-20.686 28.487,-20.686c16.435,0 29.959,13.524 29.959,29.958c0,3.97 -0.789,7.9 -2.321,11.562l-0.042,0Z" style="fill:#3a69da;fill-rule:nonzero;"/><path d="M2540.83,1219.58c-12.833,10.459 -68.958,17.5 -68.958,17.5c0,0 18.292,-53.5 31.125,-63.958c5.374,-4.454 12.138,-6.893 19.118,-6.893c16.434,0 29.958,13.524 29.958,29.958c0,9.095 -4.141,17.712 -11.243,23.393Z" style="fill:#3a69da;fill-rule:nonzero;"/><path d="M2538.54,1341c-10.875,12.5 -65,28.917 -65,28.917c0,0 8.958,-55.834 19.833,-68.292c5.687,-6.934 14.197,-10.96 23.164,-10.96c16.435,0 29.959,13.523 29.959,29.958c0,7.556 -2.859,14.838 -7.998,20.377l0.042,0Z" style="fill:#3a69da;fill-rule:nonzero;"/><path d="M2397.92,1132.71c14.083,8.709 70.625,8.334 70.625,8.334c0,0 -25,-50.709 -39.084,-59.417c-4.887,-3.214 -10.61,-4.926 -16.459,-4.926c-16.435,0 -29.958,13.523 -29.958,29.958c0,10.647 5.676,20.524 14.876,25.885l0,0.166Z" style="fill:#3a69da;fill-rule:nonzero;"/><path d="M2397.08,1274.79c16.042,4.166 69.917,-13 69.917,-13c0,0 -39.042,-40.917 -55.083,-45c-2.049,-0.436 -4.138,-0.656 -6.233,-0.656c-16.434,0 -29.958,13.524 -29.958,29.959c0,13.195 8.718,24.908 21.357,28.697Z" style="fill:#3a69da;fill-rule:nonzero;"/><path d="M2415.12,1412.96c15.083,6.75 71.125,-1 71.125,-1c0,0 -31.583,-46.916 -46.667,-53.666c-3.847,-1.72 -8.014,-2.61 -12.229,-2.61c-16.437,0 -29.963,13.526 -29.963,29.964c0,11.796 6.965,22.54 17.734,27.354l0,-0.042Z" style="fill:#3a69da;fill-rule:nonzero;"/><path d="M2485.38,1818.96c-0.006,0 -0.011,0 -0.017,0c-39.178,0 -71.417,-32.238 -71.417,-71.416c0,-1.501 0.048,-3.002 0.142,-4.5l19.959,-316.25l102.666,0l19.959,316.25c0.094,1.498 0.142,2.999 0.142,4.5c0,39.178 -32.239,71.416 -71.417,71.416c-0.006,0 -0.011,0 -0.017,0Z" style="fill:#3a69da;fill-rule:nonzero;"/><rect x="348.333" y="264.25" width="58.333" height="241.667" style="fill:#3a69da;fill-opacity:0.1;"/><rect x="423.333" y="264.25" width="58.333" height="241.667" style="fill:#3a69da;fill-opacity:0.1;"/><rect x="498.333" y="264.25" width="58.333" height="241.667" style="fill:#3a69da;fill-opacity:0.1;"/><rect x="573.333" y="264.25" width="58.333" height="241.667" style="fill:#3a69da;fill-opacity:0.1;"/><rect x="723.333" y="264.25" width="58.333" height="241.667" style="fill:#3a69da;fill-opacity:0.1;"/><rect x="798.333" y="264.25" width="58.333" height="241.667" style="fill:#3a69da;fill-opacity:0.1;"/><rect x="348.333" y="310.083" width="58.333" height="12.5" style="fill:#3a69da;fill-opacity:0.1;"/><rect x="348.333" y="460.083" width="58.333" height="12.5" style="fill:#3a69da;fill-opacity:0.1;"/><rect x="423.333" y="310.083" width="58.333" height="12.5" style="fill:#3a69da;fill-opacity:0.1;"/><rect x="423.333" y="460.083" width="58.333" height="12.5" style="fill:#3a69da;fill-opacity:0.1;"/><rect x="498.333" y="310.083" width="58.333" height="12.5" style="fill:#3a69da;fill-opacity:0.1;"/><rect x="498.333" y="460.083" width="58.333" height="12.5" style="fill:#3a69da;fill-opacity:0.1;"/><rect x="573.333" y="310.083" width="58.333" height="12.5" style="fill:#3a69da;fill-opacity:0.1;"/><rect x="573.333" y="460.083" width="58.333" height="12.5" style="fill:#3a69da;fill-opacity:0.1;"/><rect x="648.333" y="310.083" width="58.333" height="12.5" style="fill:#3a69da;fill-opacity:0.1;"/><rect x="648.333" y="460.083" width="58.333" height="12.5" style="fill:#3a69da;fill-opacity:0.1;"/><rect x="723.333" y="310.083" width="58.333" height="12.5" style="fill:#3a69da;fill-opacity:0.1;"/><rect x="723.333" y="460.083" width="58.333" height="12.5" style="fill:#3a69da;fill-opacity:0.1;"/><rect x="798.333" y="310.083" width="58.333" height="12.5" style="fill:#3a69da;fill-opacity:0.1;"/><rect x="798.333" y="460.083" width="58.333" height="12.5" style="fill:#3a69da;fill-opacity:0.1;"/><rect x="648.333" y="264.25" width="58.333" height="241.667" style="fill:#3a69da;fill-opacity:0.1;"/><path d="M911.524,263.141l-52.937,24.505l101.521,219.309l52.936,-24.505l-101.52,-219.309Z" style="fill:#3a69da;fill-opacity:0.1;"/><path d="M930.794,304.774l-52.937,24.505l5.251,11.344l52.937,-24.505l-5.251,-11.344Z" style="fill:#3a69da;fill-opacity:0.1;"/><path d="M993.774,440.882l-52.936,24.505l5.251,11.343l52.937,-24.505l-5.252,-11.343Z" style="fill:#3a69da;fill-opacity:0.1;"/><path d="M1621.42,2756.12l-105.875,-67.542c-0.542,-95.125 -2.042,-536.75 17.75,-595.833c5.104,-17.102 5.392,-35.286 0.833,-52.542c-13.75,-60.041 -63.917,-104.875 -124.708,-114.75c-57.334,-9.333 -139.834,-24.625 -206.25,-44.375c59.208,-6.125 103.583,-11.416 103.583,-11.416l1.167,-10.959l38.125,-1.833l0,-1.625l3.625,-0.208c89.041,-5.292 278.125,-22.917 213.875,-75.667c-22.042,-18.083 -50.792,-26.625 -81.125,-29.5c92.75,-21.167 237.708,-62.167 173.083,-100.708c-61.417,-36.584 -155.458,-7.834 -211.583,15.541l-3.459,1.459l-0.625,-5.042l-22.416,4.5l-7.125,1.417l-0.334,-7.334l-314.541,48.584c-2.466,-36.041 -6.749,-71.934 -12.834,-107.542c7.042,-46.917 39.792,-115.333 28.25,-152.042c-13.416,-42.625 -68.5,-56.583 -91.666,-95.083c-6.084,-10.042 -12.125,-19.458 -18.042,-27.708c-12.949,-17.598 -27.834,-33.685 -44.375,-47.959c1.002,-24.755 6.538,-49.118 16.333,-71.875c6.28,-15.224 13.632,-29.983 22,-44.166c75.67,-18.771 124.286,-94.16 110.167,-170.834c19.917,8.542 44.125,9.417 56.583,-7.25l-5.916,-2.291c0.583,-0.625 1.166,-1.25 1.666,-1.959c-12.125,-4.625 -25,-9.875 -34.5,-18.291c-2.405,-2.703 -4.437,-5.716 -6.041,-8.959c-5.75,-11.666 -5.084,-25.666 -10.584,-37.5c-2.588,-5.387 -6.262,-10.182 -10.791,-14.083c-9.648,-9.865 -21.857,-16.849 -35.25,-20.167c-15.042,-4.375 -30.875,-6.583 -45.292,-12.5c-40.09,-46.552 -104.48,-64.662 -162.958,-45.833l-5.209,1.792c0.942,-4.54 1.416,-9.165 1.416,-13.801c0,-37.281 -30.677,-67.958 -67.958,-67.958c-31.188,0 -58.565,21.469 -65.999,51.759c1.32,-15.183 7.723,-29.485 18.166,-40.584c-1.083,0.917 -2.208,1.792 -3.25,2.75c-13.662,12.846 -21.42,30.789 -21.42,49.542c0,17.306 6.606,33.976 18.462,46.583l1.208,1.167c4.811,5.886 10.571,10.928 17.042,14.917c-24.252,-8.565 -41.652,-30.186 -44.833,-55.709l0,4.167c2.075,35.759 32.067,64.06 67.885,64.06c1.47,0 2.94,-0.048 4.406,-0.143l1.875,-0.209l-1,1.375c-39.756,58.473 -34.035,137.259 13.75,189.375c2.766,6.335 6.444,12.231 10.917,17.5c1.572,1.799 3.256,3.497 5.042,5.084c11.407,12.036 27.022,19.231 43.583,20.083c2.778,3.306 5.736,6.486 8.875,9.542c-2.747,11.689 -6.34,23.164 -10.75,34.333c-8.88,22.243 -19.933,43.554 -33,63.625c-90,25.583 -97.917,178.417 -94.667,184.208c3.875,6.917 -13.416,246.917 53.25,536.834c-2.75,82.875 45.584,219.916 217.167,183.791c214.583,11.459 284.958,44.334 284.958,44.334c0,0 -20.375,373.208 8.709,427.541c18.208,34.042 5.291,84.042 -8.334,119.334c-5.05,8.73 -9.077,18.013 -12,27.666c-4.166,8.792 -7.208,14.125 -7.208,14.125l2.917,0c-11,38.209 -18.792,84.334 -18.792,84.334c0,0 260.125,52.791 374.542,18.25c44.416,-13.417 46.25,-25.834 31.833,-36.084c10.619,-1.561 21.116,-3.858 31.417,-6.875c114.5,-34.541 -53.75,-62.833 -53.75,-62.833Z" style="fill:url(#_Linear2);fill-rule:nonzero;"/><path d="M1055.42,984.417c0,82.287 -67.713,150 -150,150c-82.288,0 -150,-67.713 -150,-150c0,-82.288 67.712,-150 150,-150c82.287,0 150,67.712 150,150Z" style="fill:#fa595f;fill-rule:nonzero;"/><path d="M1393.29,1689.12l15.208,75.917c0,0 16.917,-3.042 41.958,-8.334c85.542,-18.125 266.292,-62.875 196.292,-104.625c-60.208,-35.875 -152.417,-7.666 -207.417,15.25c-20.166,8.334 -35.333,16.084 -42.125,19.709c-2.541,1.291 -3.916,2.083 -3.916,2.083Z" style="fill:#f8b9bf;fill-rule:nonzero;"/><path d="M1397.58,1710.54l10.917,54.5c0,0 16.917,-3.042 41.958,-8.334l-11.125,-89.375c-20.166,8.334 -35.333,16.084 -42.125,19.709l0.375,23.5Z" style="fill-opacity:0.1;fill-rule:nonzero;"/><path d="M1394.96,1769.75l52.25,-10.458l-11.833,-95.459l-41.833,8.375l1.416,97.542Z" style="fill:#d9dfe8;fill-rule:nonzero;"/><path d="M1394.96,1769.75l22.542,-4.542l-4.125,-96.958l-19.833,3.958l1.416,97.542Z" style="fill-opacity:0.1;fill-rule:nonzero;"/><path d="M913.375,1355.25c0,0 101.708,-53 138.667,113.542c36.958,166.541 37.5,242.458 37.5,242.458l316.333,-48.875l4.917,114.958c0,0 -340,93.459 -381.792,83.709c-41.792,-9.75 -168.667,-245.209 -168.667,-245.209c0,0 -116.25,-183.125 53.042,-260.583Z" style="fill:#3a69da;fill-rule:nonzero;"/><g opacity="0.1"><path d="M1393.29,1689.12l15.208,75.917c0,0 16.917,-3.042 41.958,-8.334c85.542,-18.125 266.292,-62.875 196.292,-104.625c-60.208,-35.875 -152.417,-7.666 -207.417,15.25c-20.166,8.334 -35.333,16.084 -42.125,19.709c-2.541,1.291 -3.916,2.083 -3.916,2.083Z" style="fill-rule:nonzero;"/><path d="M1397.58,1710.54l10.917,54.5c0,0 16.917,-3.042 41.958,-8.334l-11.125,-89.375c-20.166,8.334 -35.333,16.084 -42.125,19.709l0.375,23.5Z" style="fill-opacity:0.1;fill-rule:nonzero;"/><path d="M1394.96,1769.75l52.25,-10.458l-11.833,-95.459l-41.833,8.375l1.416,97.542Z" style="fill-rule:nonzero;"/><path d="M1394.96,1769.75l22.542,-4.542l-4.125,-96.958l-19.833,3.958l1.416,97.542Z" style="fill-opacity:0.1;fill-rule:nonzero;"/><path d="M921.708,1363.58c0,0 101.709,-53 138.667,113.542c36.958,166.542 37.5,242.458 37.5,242.458l316.333,-48.875l4.917,114.959c0,0 -340,93.458 -381.792,83.708c-41.791,-9.75 -168.666,-245.208 -168.666,-245.208c0,0 -116.25,-183.125 53.041,-260.584Z" style="fill-rule:nonzero;"/></g><path d="M1488.75,2658.21l124.75,79.167c0,0 164.958,27.625 52.75,61.5c-112.208,33.875 -367.208,-17.917 -367.208,-17.917c0,0 19.375,-114.75 40,-129.958c20.625,-15.208 149.708,7.208 149.708,7.208Z" style="fill:#f37291;fill-rule:nonzero;"/><path d="M1026.25,1809c0,0 62.208,36.125 174.083,69.875c65.584,19.792 148.084,35.083 205.084,44.375c59.683,9.213 108.141,53.791 122.291,112.5c4.475,16.912 4.201,34.734 -0.791,51.5c-21.75,65.083 -17.334,601.958 -17.334,601.958l-195.166,9.375c0,0 30.875,-97.541 -7.167,-149.041c-38.042,-51.5 25.667,-428.042 25.667,-428.042c0,0 -69.125,-32.25 -279.542,-43.458c-197.208,41.666 -268.083,-175.625 -235.333,-234.125c32.75,-58.5 208.208,-34.917 208.208,-34.917Z" style="fill:#96a2d0;fill-rule:nonzero;"/><g opacity="0.1"><path d="M1488.75,2658.21l124.75,79.167c0,0 164.958,27.625 52.75,61.5c-112.208,33.875 -367.208,-17.917 -367.208,-17.917c0,0 19.375,-114.75 40,-129.958c20.625,-15.208 149.708,7.208 149.708,7.208Z" style="fill-rule:nonzero;"/><path d="M1026.25,1809c0,0 62.208,36.125 174.083,69.875c65.584,19.792 148.084,35.083 205.084,44.375c59.683,9.213 108.141,53.791 122.291,112.5c4.475,16.912 4.201,34.734 -0.791,51.5c-21.75,65.083 -17.334,601.958 -17.334,601.958l-195.166,9.375c0,0 30.875,-97.541 -7.167,-149.041c-38.042,-51.5 25.667,-428.042 25.667,-428.042c0,0 -69.125,-32.25 -279.542,-43.458c-197.208,41.666 -268.083,-175.625 -235.333,-234.125c32.75,-58.5 208.208,-34.917 208.208,-34.917Z" style="fill-rule:nonzero;"/></g><path d="M1426.58,2700.33l124.75,79.167c0,0 164.959,27.625 52.75,61.5c-112.208,33.875 -367.208,-17.917 -367.208,-17.917c0,0 19.375,-114.75 40,-129.958c20.625,-15.208 149.708,7.208 149.708,7.208Z" style="fill:#f37291;fill-rule:nonzero;"/><path d="M991.417,2120.12c210.416,11.208 279.541,43.458 279.541,43.458c0,0 -19.958,365.917 8.334,419.167c30.208,56.5 -27,157.917 -27,157.917l195.166,-9.375l0,-17.667c-0.583,-93.25 -2,-526.25 17.375,-584.292c4.993,-16.766 5.267,-34.588 0.792,-51.5c-14.161,-58.703 -62.613,-103.276 -122.292,-112.5c-57.041,-9.25 -139.5,-24.541 -205.083,-44.333l-3.208,-1c-109.875,-33.333 -170.834,-68.875 -170.834,-68.875c0,0 -129.958,-9 -162.5,49.5c-4.166,7.583 -22.125,22.5 -22.875,34.542c-4.875,80.583 41,221.083 212.584,184.958Z" style="fill:#96a2d0;fill-rule:nonzero;"/><path d="M1300.46,1778.58l3.709,77.334c0,0 17.166,-0.459 42.75,-2c87.291,-5.209 272.708,-22.459 209.708,-74.167c-54.167,-44.458 -149.583,-30.292 -207.375,-15.833c-21.208,5.333 -37.5,10.666 -44.583,13.208c-2.75,0.917 -4.209,1.458 -4.209,1.458Z" style="fill:#f8b9bf;fill-rule:nonzero;"/><path d="M805.417,1252.29c0,0 25,21.541 56,45.375c34.583,9.416 75,17.791 103.875,23.333c-8.959,-33.958 -1,-70.833 12.208,-103.292c14.333,-33.762 33.354,-65.337 56.5,-93.791l-173.75,-62.792c12.292,35.625 4.167,75.417 -9.042,109.458c-11.659,29.105 -27.052,56.571 -45.791,81.709Z" style="fill:#f8b9bf;fill-rule:nonzero;"/><path d="M1301.5,1800.38l2.667,55.542c0,0 17.166,-0.459 42.75,-2l2.333,-90.042c-21.208,5.333 -37.5,10.667 -44.583,13.208l-3.167,23.292Z" style="fill-opacity:0.1;fill-rule:nonzero;"/><path d="M1290.08,1858.54l53.209,-2.542l2.5,-96.167l-42.584,2.042l-13.125,96.667Z" style="fill:#d9dfe8;fill-rule:nonzero;"/><path d="M782.625,1957.67c112.5,116.958 322.292,-22.042 378.708,-63.209c9.167,-6.708 14.292,-10.833 14.292,-10.833c-20.833,-21.208 -54.167,-40.833 -66.958,-93.958c-12.204,-54.222 -20.476,-109.254 -24.75,-164.667c-3.459,-43.958 41.958,-127.667 28.833,-169.417c-13.125,-41.75 -67.167,-55.458 -89.875,-93.25c-5.958,-9.833 -11.875,-19.083 -17.708,-27.166c-41.917,-58.334 -114.959,-97.625 -114.959,-97.625c-155.625,-53.125 -167.833,169.125 -163.958,176.041c3.875,6.917 -13.917,251.917 56.375,544.084Z" style="fill:#3a69da;fill-rule:nonzero;"/><path d="M781.458,1637.58c0,0 90.375,251.75 130.25,267.625c22.834,9.084 147.375,-0.708 249.625,-10.75c9.167,-6.708 14.292,-10.833 14.292,-10.833c-20.833,-21.208 -37.792,-64.917 -50.542,-118l-131.208,0.458c0,0 10.625,-75 -1.125,-245.375c-11.75,-170.375 -120.208,-132.916 -120.208,-132.916c-178.875,51.291 -91.084,249.791 -91.084,249.791Z" style="fill-opacity:0.1;fill-rule:nonzero;"/><path d="M1290.08,1858.54l22.959,-1.084l10.375,-96.541l-20.209,0.958l-13.125,96.667Z" style="fill-opacity:0.1;fill-rule:nonzero;"/><path d="M875.625,1376.96c0,0 108.333,-37.208 120.208,132.917c11.875,170.125 1.25,245.375 1.25,245.375l320.084,-1.167l-12.292,114.417c0,0 -350,41.667 -390,25.875c-40,-15.792 -130.292,-267.583 -130.292,-267.583c0,0 -87.875,-198.542 91.042,-249.834Z" style="fill:#3a69da;fill-rule:nonzero;"/><path d="M879.583,1126.08c5.792,-25 -20.833,-25.791 -29.166,-50l173.833,62.5c-12.949,15.875 -24.624,32.746 -34.917,50.459c-9.258,2.306 -18.72,3.702 -28.25,4.166c-42.25,2.084 -53.541,-39.708 -81.5,-67.125Z" style="fill-opacity:0.1;fill-rule:nonzero;"/><path d="M957.02,887.616c80.303,-3.858 148.631,58.207 152.488,138.51c3.857,80.303 -58.207,148.63 -138.51,152.487c-80.303,3.858 -148.631,-58.207 -152.488,-138.51c-3.857,-80.303 58.207,-148.63 138.51,-152.487Z" style="fill:#f8b9bf;"/><path d="M888.75,1485c0,0 46.083,218.292 100.5,240.583c54.417,22.292 29.75,27.042 29.75,27.042" style="fill-opacity:0.1;fill-rule:nonzero;"/><path d="M1078.67,1608.29c0,0 -38.5,12.041 -83.334,-45.5" style="fill-opacity:0.1;fill-rule:nonzero;"/><circle cx="788.75" cy="830.25" r="66.667" style="fill:#fa595f;"/><path d="M741.917,865.458c-23.916,-25.502 -23.916,-65.706 0,-91.208c-1.084,0.875 -2.167,1.75 -3.167,2.708c-13.401,12.597 -21.01,30.192 -21.01,48.584c0,36.577 30.099,66.676 66.677,66.676c16.964,0 33.305,-6.474 45.666,-18.093c1.042,-0.958 1.959,-2 2.875,-3c-26.94,22.291 -67.074,19.793 -91.041,-5.667Z" style="fill:#fa595f;fill-rule:nonzero;"/><path d="M780,890.625c-34.919,2.103 -65.857,-23.618 -70.167,-58.333l0,4.166c2.188,34.937 31.537,62.506 66.542,62.506c36.575,0 66.672,-30.097 66.672,-66.672c0,-1.39 -0.043,-2.78 -0.13,-4.167c0,-1.417 -0.292,-2.75 -0.459,-4.167c0.07,35.037 -27.491,64.455 -62.458,66.667Z" style="fill:#fa595f;fill-rule:nonzero;"/><path d="M1017.71,888.208c15.542,7.667 33.334,9.792 50,14.625c16.667,4.834 33.667,13.667 41,29.417c5.375,11.583 4.75,25.292 10.375,36.75c8.084,16.667 26.75,24.333 43.917,30.875c-14.75,19.792 -46.417,14.417 -67.083,0.958c-20.667,-13.458 -38.459,-33.333 -62.5,-38.541c-24.246,-4.782 -49.03,6.246 -61.709,27.458c-6.583,11.542 -8.916,25 -12.166,37.833c-8.334,33.834 -25,67.5 -54.167,86.709c-29.167,19.208 -72.625,19.083 -95.5,-7.209c-13.333,-15.333 -17.792,-36.208 -21.75,-56.125c-2.254,-9.286 -3.332,-18.819 -3.208,-28.375c1.333,-23.916 17.25,-44.291 33.333,-62.041c18.958,-20.834 39.125,-40.834 59.292,-60.709c17.416,-17.166 37.5,-46.25 63.75,-48.291c30.25,-2.417 51.625,24.541 76.416,36.666Z" style="fill-opacity:0.1;fill-rule:nonzero;"/><path d="M1013.54,884.042c15.541,7.666 33.333,9.791 50,14.625c16.666,4.833 33.666,13.666 41,29.416c5.375,11.584 4.75,25.292 10.375,36.75c8.083,16.667 26.75,24.334 43.916,30.875c-14.75,19.792 -46.416,14.417 -67.083,0.959c-20.667,-13.459 -38.458,-33.334 -62.5,-38.542c-24.246,-4.782 -49.029,6.246 -61.708,27.458c-6.584,11.542 -8.917,25 -12.167,37.834c-8.333,33.833 -25,67.5 -54.167,86.708c-29.166,19.208 -72.625,19.083 -95.5,-7.208c-13.333,-15.334 -17.791,-36.209 -21.75,-56.125c-2.254,-9.287 -3.332,-18.82 -3.208,-28.375c1.333,-23.917 17.25,-44.292 33.333,-62.042c18.959,-20.833 39.125,-40.833 59.292,-60.708c17.417,-17.167 37.5,-46.25 63.75,-48.292c30.25,-2.417 51.625,24.542 76.417,36.667Z" style="fill:#fa595f;fill-rule:nonzero;"/><path d="M1065.04,1844.83c0,-19.547 -15.87,-35.416 -35.417,-35.416l-404.292,0c-19.547,0 -35.416,15.869 -35.416,35.416l0,2.584c0,19.547 15.869,35.416 35.416,35.416l404.292,0c19.547,0 35.417,-15.869 35.417,-35.416l0,-2.584Z" style="fill:#d6d6e3;"/><path d="M589.917,1846.92l0,5.791c0,16.572 13.636,30.209 30.208,30.209l414.708,0c16.572,0 30.209,-13.637 30.209,-30.209l0,-5.791l-475.125,0Z" style="fill-opacity:0.1;fill-rule:nonzero;"/><rect x="1426.62" y="1885.96" width="81.708" height="1040.96" style="fill:#d6d6e3;"/><rect x="1426.62" y="1885.96" width="81.708" height="67.5" style="fill-opacity:0.1;"/><rect x="1387.54" y="1811.33" width="2160.08" height="135" style="fill:#d6d6e3;"/><defs><linearGradient id="_Linear1" x1="0" y1="0" x2="1" y2="0" gradientUnits="userSpaceOnUse" gradientTransform="matrix(193.054,-2145.04,2145.04,193.054,3600.4,2891.61)"><stop offset="0" style="stop-color:#808080;stop-opacity:0.25"/><stop offset="0.54" style="stop-color:#808080;stop-opacity:0.12"/><stop offset="1" style="stop-color:#808080;stop-opacity:0.1"/></linearGradient><linearGradient id="_Linear2" x1="0" y1="0" x2="1" y2="0" gradientUnits="userSpaceOnUse" gradientTransform="matrix(1.30471e-13,-2130.75,2130.75,1.30471e-13,1207.5,2873.5)"><stop offset="0" style="stop-color:#808080;stop-opacity:0.25"/><stop offset="0.54" style="stop-color:#808080;stop-opacity:0.12"/><stop offset="1" style="stop-color:#808080;stop-opacity:0.1"/></linearGradient></defs></svg>