<?xml version="1.0" encoding="UTF-8" standalone="no"?><!DOCTYPE svg PUBLIC "-//W3C//DTD SVG 1.1//EN" "http://www.w3.org/Graphics/SVG/1.1/DTD/svg11.dtd"><svg width="100%" height="100%" viewBox="0 0 30175 30175" version="1.1" xmlns="http://www.w3.org/2000/svg" xmlns:xlink="http://www.w3.org/1999/xlink" xml:space="preserve" xmlns:serif="http://www.serif.com/" style="fill-rule:evenodd;clip-rule:evenodd;stroke-linejoin:round;stroke-miterlimit:1.41421;"><g><rect x="0" y="0" width="30140.8" height="30140.8" style="fill:none;"/><path d="M12619.4,19694.6c5284.32,0 4975.93,35.541 5174.77,-88.194c2825.68,-1758.21 3297,-5696.48 942.49,-8067.62c-2002.17,-2016.36 -5273.24,-2067.84 -7336.07,-20.403c-2407.3,2389.35 -1909.51,6334.27 909.362,8088.06c92.801,57.735 200.119,88.157 309.447,88.157Zm-245.715,-5530.07c285.607,-738.788 869.654,-1336.14 1602.44,-1638.94c298.66,-123.479 640.686,18.648 764.091,317.271c123.406,298.624 -18.648,640.722 -317.271,764.091c-438.117,181.032 -787.273,538.049 -957.92,979.457c-116.458,301.292 -455.12,451.244 -756.632,334.749c-301.329,-116.495 -451.207,-455.266 -334.713,-756.632Zm1106.26,6700.14l3144.56,0c323.122,0 585.034,261.912 585.034,585.034l0,840.986c0,969.329 -785.774,1755.1 -1755.1,1755.1l-804.422,0c-969.328,0 -1755.1,-785.773 -1755.1,-1755.1l0,-840.986c0,-323.122 261.913,-585.034 585.034,-585.034Zm-4900.94,-5668.8c0,323.085 -261.949,585.034 -585.034,585.034l-1389.46,0c-323.085,0 -585.034,-261.949 -585.034,-585.034c0,-323.085 261.949,-585.034 585.034,-585.034l1389.46,0c323.085,0 585.034,261.949 585.034,585.034Zm1905.38,4602.61c228.493,228.456 228.493,598.892 0,827.348l-982.491,982.491c-114.228,114.265 -263.96,171.379 -413.656,171.379c-516.475,0 -783.324,-629.095 -413.655,-998.69l982.491,-982.491c228.419,-228.529 598.855,-228.529 827.311,-0.037Zm4019.37,-11694.9l0,-1389.45c0,-323.085 261.949,-585.034 585.034,-585.034c323.085,0 585.034,261.949 585.034,585.034l0,1389.45c0,323.085 -261.949,585.034 -585.034,585.034c-323.085,0 -585.034,-261.949 -585.034,-585.034Zm-5827.41,1507.93c-228.493,-228.456 -228.493,-598.892 0,-827.348c228.455,-228.493 598.892,-228.493 827.347,0l982.492,982.491c369.741,369.705 102.71,998.69 -413.656,998.69c-149.732,0 -299.427,-57.114 -413.655,-171.378l-982.528,-982.455Zm11014.3,156.935l982.491,-982.491c228.456,-228.493 598.892,-228.493 827.348,0c228.492,228.455 228.492,598.892 0,827.347l-982.491,982.492c-114.228,114.264 -263.96,171.378 -413.656,171.378c-516.512,0 -783.361,-629.094 -413.692,-998.726Zm4464.91,5429.96c0,323.085 -261.949,585.034 -585.034,585.034l-1389.46,0c-323.085,0 -585.034,-261.949 -585.034,-585.034c0,-323.085 261.949,-585.034 585.034,-585.034l1389.46,0c323.085,0 585.034,261.912 585.034,585.034Zm-2656.86,5584.33c228.493,228.456 228.493,598.892 0,827.348c-228.419,228.456 -598.892,228.492 -827.347,0l-982.492,-982.492c-228.492,-228.455 -228.492,-598.892 0,-827.347c228.456,-228.493 598.892,-228.493 827.348,0l982.491,982.491Z" style="fill:#3855be;fill-rule:nonzero;"/></g></svg>