<?xml version="1.0" encoding="UTF-8" standalone="no"?><!DOCTYPE svg PUBLIC "-//W3C//DTD SVG 1.1//EN" "http://www.w3.org/Graphics/SVG/1.1/DTD/svg11.dtd"><svg width="100%" height="100%" viewBox="0 0 7242 7242" version="1.1" xmlns="http://www.w3.org/2000/svg" xmlns:xlink="http://www.w3.org/1999/xlink" xml:space="preserve" xmlns:serif="http://www.serif.com/" style="fill-rule:evenodd;clip-rule:evenodd;stroke-linejoin:round;stroke-miterlimit:1.41421;"><g><rect x="0" y="0" width="7233.79" height="7233.79" style="fill:none;"/><path d="M3620.83,1452.08c-1197.75,0 -2168.75,970.996 -2168.75,2168.75c0,1197.76 970.996,2168.75 2168.75,2168.75c1197.76,0 2168.75,-970.995 2168.75,-2168.75c-1.341,-1197.19 -971.56,-2167.41 -2168.75,-2168.75Zm77.41,625.246l753.944,-301.38c85.564,38.722 168.34,83.34 247.727,133.534l1.976,1.236c78.01,49.418 152.561,104.096 223.158,163.645l6.072,5.294c31.663,26.968 62.443,54.89 92.376,83.693c3.777,3.707 7.731,7.237 11.508,11.014c31.38,30.639 61.772,62.231 91.176,94.741c2.436,2.754 4.766,5.648 7.201,8.401c25.803,28.91 50.618,58.843 74.692,89.271c5.789,7.236 11.578,14.472 17.191,21.708c26.121,33.816 51.394,68.233 75.256,103.743l-150.301,638.906l-739.472,246.526l-712.327,-569.968l-0.177,-730.364Zm-1681.91,311.581c5.613,-7.236 11.331,-14.473 17.12,-21.673c23.792,-30.181 48.395,-59.62 73.81,-88.353c2.753,-3.036 5.295,-6.142 8.013,-9.178c29.227,-32.58 59.478,-64.137 90.823,-94.706c3.601,-3.53 7.201,-7.236 10.978,-10.484c29.686,-28.627 60.22,-56.372 91.6,-83.199l7.236,-6.071c69.962,-59.125 143.807,-113.45 221.041,-162.656l2.823,-1.801c78.928,-50.088 161.174,-94.635 246.244,-133.393l757.403,299.933l0,730.152l-712.362,569.862l-739.472,-246.067l-150.301,-638.906c24.073,-35.44 49.065,-69.785 75.044,-103.46Zm-87.117,2341.25c-21.249,-32.404 -41.581,-65.408 -60.96,-99.048l-4.695,-8.118c-19.273,-33.463 -37.523,-67.491 -54.713,-102.049l-0.6,-1.094c-36.217,-72.715 -68.021,-147.548 -95.201,-224.111l0,-0.706c-12.848,-36.146 -24.568,-73.174 -35.404,-110.414l-3.918,-13.732c-9.919,-34.981 -18.92,-70.35 -26.969,-106.107c-0.705,-3.495 -1.588,-6.813 -2.294,-10.272c-17.755,-80.764 -30.498,-162.515 -38.193,-244.867l441.339,-529.586l734.354,244.761l213.133,852.463l-350.198,465.942l-715.681,-113.062Zm2173.02,856.487c-36.146,8.966 -73.245,16.697 -110.344,23.65c-5.189,1.024 -10.484,1.871 -15.673,2.824c-31.592,5.648 -63.537,10.484 -95.553,14.437c-8.542,1.095 -17.014,2.26 -25.521,3.283c-29.722,3.46 -59.725,6.072 -89.8,8.225c-9.46,0.635 -18.814,1.588 -28.274,2.188c-38.44,2.365 -77.198,3.742 -116.239,3.742c-35.757,0 -71.303,-0.953 -106.637,-2.824c-4.271,0 -8.366,-0.706 -12.637,-1.024c-31.451,-1.8 -62.761,-4.165 -94,-7.2l-3.601,-0.671c-68.444,-7.413 -136.5,-18.285 -203.849,-32.51l-427.608,-669.51l344.691,-459.624l1007.28,0l350.339,462.66l-372.577,652.354Zm1495.5,-1532.07c-0.741,3.46 -1.588,6.813 -2.33,10.272c-8.083,35.722 -17.084,71.092 -26.968,106.108l-3.883,13.731c-10.872,37.24 -22.556,74.127 -35.44,110.414l0,0.706c-27.179,76.563 -58.948,151.396 -95.2,224.112l-0.6,1.094c-17.296,34.593 -35.511,68.621 -54.713,102.048l-4.695,8.119c-19.273,33.746 -39.57,66.679 -60.855,98.907l-713.244,112.461l-352.634,-465.554l213.027,-852.251l734.354,-244.761l441.339,529.586c-7.66,82.387 -20.403,164.21 -38.158,245.008Z" style="fill:#3855be;fill-rule:nonzero;"/></g></svg>