<?xml version="1.0" encoding="UTF-8" standalone="no"?><!DOCTYPE svg PUBLIC "-//W3C//DTD SVG 1.1//EN" "http://www.w3.org/Graphics/SVG/1.1/DTD/svg11.dtd"><svg width="100%" height="100%" viewBox="0 0 125730 125730" version="1.1" xmlns="http://www.w3.org/2000/svg" xmlns:xlink="http://www.w3.org/1999/xlink" xml:space="preserve" xmlns:serif="http://www.serif.com/" style="fill-rule:evenodd;clip-rule:evenodd;stroke-linejoin:round;stroke-miterlimit:1.41421;"><g><path d="M58197.5,50420l-6222.27,0c-858.667,0 -1555.6,696.937 -1555.6,1555.6l0,18666.7c0,858.666 696.937,1555.6 1555.6,1555.6l6222.27,0c858.666,0 1555.6,-696.938 1555.6,-1555.61l0,-18666.7c0,-858.667 -696.938,-1555.6 -1555.6,-1555.6Z" style="fill:#3855be;fill-rule:nonzero;"/><path d="M45753.1,59753.4l-6222.27,0c-858.667,0 -1555.6,696.937 -1555.6,1555.6l0,9333.33c0,858.666 696.937,1555.6 1555.6,1555.6l6222.27,0c858.666,0 1555.6,-696.938 1555.6,-1555.61l0,-9333.33c-0.146,-858.667 -696.938,-1555.6 -1555.6,-1555.6Z" style="fill:#3855be;fill-rule:nonzero;"/><path d="M70641.9,41086.7l-6222.27,0c-858.667,0 -1555.61,696.938 -1555.61,1555.6l0,28000c0,858.666 696.938,1555.6 1555.61,1555.6l6222.27,0c858.667,0 1555.61,-696.938 1555.61,-1555.61l0,-28000c0,-858.666 -696.938,-1555.6 -1555.61,-1555.6Z" style="fill:#3855be;fill-rule:nonzero;"/><path d="M99285.9,94887.2l-18570.1,-18570.3c4392.94,-5363.6 7037.33,-12214.3 7037.33,-19674.7c0,-17154.7 -13956.4,-31111.1 -31111.1,-31111.1c-17154.7,0 -31111.2,13956.4 -31111.2,31111.1c0,17154.7 13956.4,31111.1 31111.1,31111.1c7460.4,0 14311.1,-2644.4 19674.7,-7037.33l18570.3,18570.3c606.667,606.666 1403.06,911.604 2199.6,911.604c796.542,0 1592.94,-304.938 2199.6,-911.605c1216.4,-1216.39 1216.4,-3182.67 -0.146,-4399.06Zm-42644,-13356c-13723.1,0 -24888.9,-11165.7 -24888.9,-24888.9c0,-13723.2 11165.9,-24888.9 24888.9,-24888.9c13723.1,0 24888.9,11165.9 24888.9,24888.9c0,13723.1 -11165.7,24888.9 -24888.9,24888.9Z" style="fill:#3855be;fill-rule:nonzero;"/></g></svg>