<?xml version="1.0" encoding="UTF-8" standalone="no"?><!DOCTYPE svg PUBLIC "-//W3C//DTD SVG 1.1//EN" "http://www.w3.org/Graphics/SVG/1.1/DTD/svg11.dtd"><svg width="100%" height="100%" viewBox="0 0 1738 1738" version="1.1" xmlns="http://www.w3.org/2000/svg" xmlns:xlink="http://www.w3.org/1999/xlink" xml:space="preserve" xmlns:serif="http://www.serif.com/" style="fill-rule:evenodd;clip-rule:evenodd;stroke-linejoin:round;stroke-miterlimit:1.41421;"><g><rect x="0" y="0" width="1736.11" height="1736.11" style="fill:none;"/><path d="M1305.99,616.041c-1.246,-27.404 -1.246,-53.563 -1.246,-79.721c0,-21.176 -16.193,-37.369 -37.369,-37.369c-155.705,0 -274.041,-44.844 -372.446,-140.758c-14.948,-13.702 -37.37,-13.702 -52.317,0c-98.406,95.914 -216.742,140.758 -372.447,140.758c-21.176,0 -37.369,16.193 -37.369,37.369c0,26.158 0,52.317 -1.246,79.721c-4.982,261.584 -12.456,620.329 424.764,771.051l12.456,2.491l12.457,-2.491c435.974,-150.722 429.745,-508.221 424.763,-771.051Zm-467.115,362.481c-7.474,6.228 -16.194,9.965 -26.159,9.965l-1.245,0c-9.965,0 -19.931,-4.982 -26.159,-12.456l-115.844,-128.301l56.054,-49.826l90.931,100.897l201.794,-191.829l51.071,54.809l-230.443,216.741Z" style="fill:#3855be;fill-rule:nonzero;"/></g></svg>