<?xml version="1.0" encoding="UTF-8" standalone="no"?><!DOCTYPE svg PUBLIC "-//W3C//DTD SVG 1.1//EN" "http://www.w3.org/Graphics/SVG/1.1/DTD/svg11.dtd"><svg width="100%" height="100%" viewBox="0 0 7242 7242" version="1.1" xmlns="http://www.w3.org/2000/svg" xmlns:xlink="http://www.w3.org/1999/xlink" xml:space="preserve" xmlns:serif="http://www.serif.com/" style="fill-rule:evenodd;clip-rule:evenodd;stroke-linejoin:round;stroke-miterlimit:1.41421;"><g><rect x="0" y="0" width="7233.79" height="7233.79" style="fill:none;"/><path d="M2615.05,2676.76l1178.87,0c92.607,471.483 508.989,828.282 1007.2,828.282c565.994,0 1026.48,-460.475 1026.48,-1026.48c0,-566.011 -460.483,-1026.49 -1026.49,-1026.49c-498.214,0 -914.604,356.799 -1007.21,828.29l-1178.86,0c-82.573,-243.417 -312.81,-418.666 -584.14,-418.666c-340.679,0 -616.853,276.174 -616.853,616.862c0,271.321 175.248,501.559 418.657,584.132l0,1525.9c-243.409,82.565 -418.657,312.802 -418.657,584.132c0,340.679 276.174,616.853 616.853,616.853c271.321,0 501.558,-175.249 584.131,-418.666l1001.88,0c82.573,243.417 312.811,418.658 584.132,418.658c340.688,0 616.853,-276.183 616.853,-616.854c0,-340.679 -276.174,-616.853 -616.853,-616.853c-271.313,0 -501.55,175.24 -584.123,418.657l-1001.88,0c-61.471,-181.188 -204.747,-324.464 -385.935,-385.927l0,-1525.91c181.179,-61.462 324.464,-204.739 385.935,-385.927Zm2186.07,-729.192c292.786,0 530.996,238.202 530.996,530.996c0,292.786 -238.202,530.997 -530.996,530.997c-292.785,0 -530.996,-238.194 -530.996,-530.997c0.008,-292.794 238.211,-530.996 530.996,-530.996Z" style="fill:#3855be;fill-rule:nonzero;"/></g></svg>