<?xml version="1.0" encoding="UTF-8" standalone="no"?><!DOCTYPE svg PUBLIC "-//W3C//DTD SVG 1.1//EN" "http://www.w3.org/Graphics/SVG/1.1/DTD/svg11.dtd"><svg width="100%" height="100%" viewBox="0 0 1738 1738" version="1.1" xmlns="http://www.w3.org/2000/svg" xmlns:xlink="http://www.w3.org/1999/xlink" xml:space="preserve" xmlns:serif="http://www.serif.com/" style="fill-rule:evenodd;clip-rule:evenodd;stroke-linejoin:round;stroke-miterlimit:1.41421;"><g><rect x="0" y="0" width="1736.11" height="1736.11" style="fill:none;"/><path d="M1254.91,1389.58l-772.324,0c-24.372,0 -44.133,-19.76 -44.133,-44.132l0,-130.661c0,-62.244 36.724,-118.864 93.562,-144.24c165.305,-73.812 156.244,-71.316 169.125,-71.316l52.454,0c20.313,0 38.002,13.863 42.856,33.588c18.5,75.18 126.09,75.216 144.599,0c4.854,-19.722 22.543,-33.588 42.855,-33.588c56.452,0 59.351,-1.12 70.447,3.834l151.133,67.482c56.835,25.376 93.562,81.996 93.562,144.24l0,130.661c-0.003,24.372 -19.764,44.132 -44.136,44.132Zm-385.084,-1041.67c-148.644,0 -269.574,120.929 -269.574,269.574c0,148.645 120.93,269.574 269.574,269.574c148.645,0 269.575,-120.929 269.575,-269.574c0,-148.645 -120.93,-269.574 -269.575,-269.574Zm-425.255,288.341c-93.592,0 -169.735,76.143 -169.735,169.738c0,93.592 76.143,169.735 169.735,169.735c93.595,0 169.738,-76.143 169.738,-169.735c-0.003,-93.595 -76.146,-169.738 -169.738,-169.738Zm848.354,0c-93.595,0 -169.738,76.143 -169.738,169.738c0,93.592 76.143,169.735 169.738,169.735c93.592,0 169.735,-76.143 169.735,-169.735c0,-93.595 -76.143,-169.738 -169.735,-169.738Zm196.165,404.307c-91.83,-41.011 -89.631,-41.43 -102.195,-41.43c-65.739,0 -108.743,-0.461 -137.833,-0.604c-28.912,-0.144 -38.489,38.635 -12.87,52.035c20.977,10.973 33.712,20.332 48.839,36.837c44.141,47.942 48.253,98.681 48.245,140.748c-0.003,15.234 12.341,27.564 27.575,27.564l147.823,0c24.383,0 44.133,-19.777 44.133,-44.133l0,-72.794c0,-42.395 -25.018,-80.929 -63.717,-98.223Zm-1138.49,-41.43c-12.506,0 -10.045,0.276 -102.195,41.43c-38.699,17.294 -63.717,55.828 -63.717,98.223l0,72.791c0,24.356 19.75,44.133 44.133,44.133l147.812,0c15.242,0 27.594,-12.346 27.575,-27.586c-0.05,-42.216 3.941,-92.593 48.256,-140.726c15.052,-16.425 27.895,-25.867 48.408,-36.644c25.567,-13.43 16.12,-52.096 -12.759,-52.046c-29.263,0.05 -72.262,0.425 -137.513,0.425Z" style="fill:#3855be;fill-rule:nonzero;"/></g></svg>