<?xml version="1.0" encoding="UTF-8" standalone="no"?><!DOCTYPE svg PUBLIC "-//W3C//DTD SVG 1.1//EN" "http://www.w3.org/Graphics/SVG/1.1/DTD/svg11.dtd"><svg width="100%" height="100%" viewBox="0 0 30175 30175" version="1.1" xmlns="http://www.w3.org/2000/svg" xmlns:xlink="http://www.w3.org/1999/xlink" xml:space="preserve" xmlns:serif="http://www.serif.com/" style="fill-rule:evenodd;clip-rule:evenodd;stroke-linejoin:round;stroke-miterlimit:1.41421;"><g><path d="M14571.5,23893.8l0,-2075.42l-260.851,0c-1141.24,0 -2069.71,-928.474 -2069.71,-2069.71c0,-1141.24 928.475,-2069.71 2069.71,-2069.71l260.851,0l0,-2075.42l-2591.41,0c-284.965,0 -515.991,-231.026 -515.991,-515.991l0,-776.842c0,-572.2 -465.528,-1037.73 -1037.73,-1037.73c-572.199,0 -1037.73,465.527 -1037.73,1037.73l0,776.842c0,284.965 -231.026,515.991 -515.991,515.991l-2591.41,0l0,7252.53c0,572.2 465.527,1037.73 1037.73,1037.73l7252.53,0Z" style="fill:#3855be;fill-rule:nonzero;"/><path d="M22856,23893.8c572.2,0 1037.73,-465.527 1037.73,-1037.73l0,-7252.53l-2075.42,0l0,260.851c0,1141.24 -928.474,2069.71 -2069.71,2069.71c-1141.24,0 -2069.71,-928.475 -2069.71,-2069.71l0,-260.851l-2075.42,0l0,2591.41c0,284.965 -231.026,515.991 -515.991,515.991l-776.842,0c-572.2,0 -1037.73,465.528 -1037.73,1037.73c0,572.199 465.527,1037.73 1037.73,1037.73l776.842,0c284.965,0 515.991,231.026 515.991,515.991l0,2591.41l7252.53,0Z" style="fill:#3855be;fill-rule:nonzero;"/><path d="M19748.6,16902.1c572.199,0 1037.73,-465.527 1037.73,-1037.73l0,-776.842c0,-284.965 231.026,-515.991 515.991,-515.991l2591.41,0l0,-7252.53c0,-572.2 -465.527,-1037.73 -1037.73,-1037.73l-7252.53,0l0,2075.42l260.851,0c1141.24,0 2069.71,928.474 2069.71,2069.71c0,1141.24 -928.475,2069.71 -2069.71,2069.71l-260.851,0l0,2075.42l2591.41,0c284.965,0 515.991,231.026 515.991,515.991l0,776.842c0,572.2 465.528,1037.73 1037.73,1037.73Z" style="fill:#3855be;fill-rule:nonzero;"/><path d="M7318.98,6281.25c-572.2,0 -1037.73,465.527 -1037.73,1037.73l0,7252.53l2075.42,0l0,-260.851c0,-1141.24 928.474,-2069.71 2069.71,-2069.71c1141.24,0 2069.71,928.475 2069.71,2069.71l0,260.851l2075.42,0l0,-2591.41c0,-284.965 231.026,-515.991 515.991,-515.991l776.842,0c572.2,0 1037.73,-465.528 1037.73,-1037.73c0,-572.199 -465.527,-1037.73 -1037.73,-1037.73l-776.842,0c-284.965,0 -515.991,-231.026 -515.991,-515.991l0,-2591.41l-7252.53,0Z" style="fill:#3855be;fill-rule:nonzero;"/></g></svg>