<?xml version="1.0" encoding="UTF-8" standalone="no"?><!DOCTYPE svg PUBLIC "-//W3C//DTD SVG 1.1//EN" "http://www.w3.org/Graphics/SVG/1.1/DTD/svg11.dtd"><svg width="100%" height="100%" viewBox="0 0 7242 7242" version="1.1" xmlns="http://www.w3.org/2000/svg" xmlns:xlink="http://www.w3.org/1999/xlink" xml:space="preserve" xmlns:serif="http://www.serif.com/" style="fill-rule:evenodd;clip-rule:evenodd;stroke-linejoin:round;stroke-miterlimit:1.41421;"><g><rect x="0" y="0" width="7233.79" height="7233.79" style="fill:none;"/><g><path d="M2785.88,3384.49c198.63,438.344 623.88,629.149 834.956,629.149c138.784,0 370.165,-82.557 568.843,-263.662c-72.645,5.068 -150.287,7.637 -233.256,7.637c-19.469,0 -39.893,-0.177 -61.72,-0.519c-41.826,32.21 -93.634,50.371 -147.399,50.371l-176.78,0c-133.222,0 -241.6,-108.378 -241.6,-241.599c0,-133.222 108.378,-241.6 241.6,-241.6l176.78,0c63.865,0 123.593,24.891 167.894,67.825c14.72,0.165 29.228,0.235 43.464,0.235c228.212,0 378.604,-20.93 476.988,-46.175c-12.763,-31.054 -19.717,-65.031 -19.717,-100.505l0,-612.567c0,-63.723 23.654,-124.806 64.549,-171.995c-21.827,-169.885 -61.437,-299.583 -120.552,-395.257c-121.814,-197.156 -356.672,-288.976 -739.094,-288.976c-317.25,0 -536.328,65.856 -669.738,201.329c-103.416,105.019 -163.345,254.87 -191.358,481.184c41.814,47.365 65.998,109.073 65.998,173.715l0,612.567c0.011,50.972 -14.638,98.537 -39.858,138.843Z" style="fill:#3855be;fill-rule:nonzero;"/><path d="M2351.22,3390.26l212.066,0c79.834,0 144.606,-64.749 144.606,-144.618l0,-612.567c0,-53.364 -28.98,-99.857 -71.973,-124.912c47.353,-501.596 240.916,-849.181 984.924,-849.181c427.254,0 693.968,109.603 839.352,344.898c84.595,136.922 125.29,313.773 144.3,505.037c-42.309,25.232 -70.712,71.313 -70.712,124.147l0,612.566c0,68.862 48.178,126.363 112.632,140.941c-93.481,61.142 -287.02,123.593 -687.757,123.593c-32.457,0 -66.292,-0.412 -101.53,-1.261c-20.625,-39.658 -62.015,-66.799 -109.816,-66.799l-176.769,0c-68.331,0 -123.746,55.403 -123.746,123.746c0,68.343 55.415,123.746 123.746,123.746l176.769,0c41.296,0 77.783,-20.306 100.246,-51.384c37.218,0.943 73.658,1.532 108.873,1.532c451.708,-0.012 738.858,-77.112 855.156,-230.085c4.95,-6.506 9.464,-12.988 13.577,-19.399l65.326,0c79.845,0 144.606,-64.749 144.606,-144.618l0,-612.567c0,-79.857 -64.749,-144.606 -144.606,-144.606l-79.763,0c-22.44,-231.087 -72.186,-427.808 -174.506,-593.368c-184.181,-298.11 -516.339,-443.023 -1015.39,-443.023c-499.086,0 -831.209,144.913 -1015.4,443.035c-102.308,165.56 -152.031,362.258 -174.482,593.368l-79.739,0c-79.87,0 -144.618,64.737 -144.618,144.606l0,612.567c0,79.857 64.76,144.606 144.629,144.606Z" style="fill:#3855be;fill-rule:nonzero;"/><path d="M5369.16,5191.56c-48.084,-298.959 -147.069,-684.057 -345.593,-820.884c-135.367,-93.352 -607.959,-345.853 -809.759,-453.665l-4.243,-2.263c-23.099,-12.339 -51.278,-9.864 -71.867,6.293c-105.868,83.099 -221.765,139.079 -344.462,166.386c-21.685,4.82 -39.492,20.247 -47.377,41.013l-125.03,329.53l-125.031,-329.53c-7.885,-20.778 -25.692,-36.193 -47.377,-41.013c-122.697,-27.307 -238.618,-83.287 -344.497,-166.386c-20.578,-16.169 -48.768,-18.644 -71.856,-6.293c-199.549,106.61 -678.258,364.414 -813.412,455.527c-228.624,154.022 -328.469,711.174 -346.159,821.297c-1.756,10.925 -0.743,22.097 2.946,32.515c8.179,23.1 217.888,565.496 1745.37,565.496c1527.46,0 1737.19,-542.396 1745.38,-565.484c3.701,-10.442 4.714,-21.626 2.958,-32.539Zm-711.222,-343.307l-604.988,0l0,-127.411l604.988,0l0,127.411Z" style="fill:#3855be;fill-rule:nonzero;"/></g></g></svg>