<?xml version="1.0" encoding="UTF-8" standalone="no"?><!DOCTYPE svg PUBLIC "-//W3C//DTD SVG 1.1//EN" "http://www.w3.org/Graphics/SVG/1.1/DTD/svg11.dtd"><svg width="100%" height="100%" viewBox="0 0 7242 7242" version="1.1" xmlns="http://www.w3.org/2000/svg" xmlns:xlink="http://www.w3.org/1999/xlink" xml:space="preserve" xmlns:serif="http://www.serif.com/" style="fill-rule:evenodd;clip-rule:evenodd;stroke-linejoin:round;stroke-miterlimit:1.41421;"><g><g><path d="M1910.31,1765.38l1631.7,-305.947c52.086,-9.801 105.557,-9.801 157.643,0l1631.7,305.947l0,1984.86c0,627.392 -323.19,1210.6 -855.236,1543.13l-741.981,463.693c-69.328,43.362 -157.284,43.362 -226.612,0l-741.98,-463.693c-532.047,-332.529 -855.236,-915.737 -855.236,-1543.13l0,-1984.86Z" style="fill:#3855be;"/><path d="M4155.39,3262.07c118.078,0 213.783,95.756 213.783,213.835l0,641.452c0,118.078 -95.705,213.834 -213.783,213.834l-1069.12,0c-118.079,0 -213.783,-95.756 -213.783,-213.834l0,-641.452c0,-118.079 95.704,-213.835 213.783,-213.835l0,-106.892c0,-295.221 239.338,-534.56 534.56,-534.56c295.222,0 534.561,239.339 534.561,534.56l0,106.892Zm-534.561,-427.618c-177.143,0 -320.726,143.583 -320.726,320.726l0,106.892l641.452,0l0,-106.892c0,-177.143 -143.582,-320.726 -320.726,-320.726Z" style="fill:#c3cced;"/></g></g></svg>