<?xml version="1.0" encoding="UTF-8" standalone="no"?><!DOCTYPE svg PUBLIC "-//W3C//DTD SVG 1.1//EN" "http://www.w3.org/Graphics/SVG/1.1/DTD/svg11.dtd"><svg width="100%" height="100%" viewBox="0 0 8875 8875" version="1.1" xmlns="http://www.w3.org/2000/svg" xmlns:xlink="http://www.w3.org/1999/xlink" xml:space="preserve" xmlns:serif="http://www.serif.com/" style="fill-rule:evenodd;clip-rule:evenodd;stroke-linejoin:round;stroke-miterlimit:1.41421;"><g id="surface1"><path d="M2422.12,6348.98l0,-3714.06c-212.822,41.3 -363.025,224.082 -363.025,441.888l0,3822.96c0,249.093 200.271,454.394 449.409,454.394l2743.9,0c214.068,0 393.067,-150.204 439.396,-350.52l-2620,0c-359.287,0 -649.681,-295.423 -649.681,-654.666Z" style="fill:#c3cced;fill-rule:nonzero;"/><path d="M6069.82,2659.98l614.611,0l-945.059,-985.158l0,662.187c0,178.998 150.203,322.971 330.448,322.971Z" style="fill:#c3cced;fill-rule:nonzero;"/><path d="M2972.91,5798.19l0,-3711.52c-200.316,45.039 -350.52,225.284 -350.52,439.352l0,3822.96c0,249.094 200.316,454.394 449.409,454.394l2743.9,0c214.069,0 393.067,-150.203 439.396,-350.475l-2632.5,0c-359.287,0 -649.681,-295.423 -649.681,-654.71Z" style="fill:#c3cced;fill-rule:nonzero;"/><path d="M5539.06,2337.01l0,-816.174l-1916.47,0c-249.138,0 -449.41,205.301 -449.41,454.394l0,3822.96c0,249.138 200.316,454.394 449.41,454.394l2743.9,0c249.138,0 449.409,-205.301 449.409,-454.394l0,-2937.94l-746.078,0c-290.394,0 -530.764,-234.095 -530.764,-523.243Zm485.725,3314.72l-2060.48,0c-55.053,0 -100.136,-45.039 -100.136,-100.136c0,-55.053 45.083,-100.136 100.136,-100.136l2061.73,0c55.053,0 100.136,45.083 100.136,100.136c0,55.097 -45.083,100.136 -101.382,100.136Zm-1030.24,-451.902c-689.735,0 -1250.54,-560.761 -1250.54,-1250.54c0,-689.735 560.805,-1250.5 1250.54,-1250.5c689.736,0 1250.54,560.761 1250.54,1250.5c0,689.78 -560.805,1250.54 -1250.54,1250.54Z" style="fill:#3855be;fill-rule:nonzero;"/><path d="M4994.54,2899.06c-579.586,0 -1050.27,470.683 -1050.27,1050.22c0,579.586 470.682,1050.27 1050.27,1050.27c579.586,0 1050.27,-470.683 1050.27,-1050.27c0,-579.541 -470.683,-1050.22 -1050.27,-1050.22Zm424.354,1238.04l-485.681,0c-55.097,0 -96.398,-41.345 -96.398,-96.398l0,-637.175c0,-55.097 45.039,-100.136 100.136,-100.136c55.097,0 100.136,45.039 100.136,100.136l0,533.256l380.56,0c55.053,0 100.136,45.084 100.136,100.136c0,55.097 -43.792,100.181 -98.889,100.181Z" style="fill:#3855be;fill-rule:nonzero;"/></g></svg>