<?xml version="1.0" encoding="UTF-8" standalone="no"?><!DOCTYPE svg PUBLIC "-//W3C//DTD SVG 1.1//EN" "http://www.w3.org/Graphics/SVG/1.1/DTD/svg11.dtd"><svg width="100%" height="100%" viewBox="0 0 8875 8875" version="1.1" xmlns="http://www.w3.org/2000/svg" xmlns:xlink="http://www.w3.org/1999/xlink" xml:space="preserve" xmlns:serif="http://www.serif.com/" style="fill-rule:evenodd;clip-rule:evenodd;stroke-linejoin:round;stroke-miterlimit:1.41421;"><g><path d="M5683.84,3020.26c-0.058,-58.707 -23.658,-114.948 -65.458,-156.16c-42.914,-41.741 -100.447,-64.989 -160.328,-64.812c-122.814,-0.177 -223.026,98.216 -225.081,220.972l0,171.188l450.867,0l0,-171.188Z" style="fill:#c3cced;fill-rule:nonzero;"/><path d="M2858.41,3020.26c0.704,-58.472 -22.074,-114.713 -63.286,-156.16c-40.39,-41.565 -95.927,-64.989 -153.929,-64.812c-58.354,0.176 -114.184,23.541 -155.22,65.047c-41.036,41.446 -63.873,97.57 -63.404,155.925l0,171.188l435.839,0l0,-171.188Z" style="fill:#c3cced;fill-rule:nonzero;"/><path d="M4050.8,4308.99c141.131,0.47 276.626,-55.536 376.193,-155.573c77.492,-77.786 129.272,-177.529 148.293,-285.666l-1048.97,0c42.563,256.02 264.944,443.059 524.486,441.239Z" style="fill:#c3cced;fill-rule:nonzero;"/><path d="M3364.34,5212.89c15.675,-14.559 36.281,-22.66 57.65,-22.602l2782.17,0c208.937,-0.058 378.952,-168.077 381.417,-376.955l0,-2341.81c-2.465,-208.878 -172.421,-377.015 -381.417,-377.191l-4306.78,0c-207.998,0.529 -376.369,169.193 -376.545,377.191l0,2341.81c0.176,207.997 168.606,376.544 376.545,376.955l280.031,0c50.664,-0.528 92.639,39.158 94.87,89.763l0,906.842l1092.06,-974.003Zm1688.29,-2192.64c1.82,-162.97 100.917,-309.033 251.676,-370.851c150.758,-61.877 323.884,-27.592 439.654,87.062c76.319,74.793 119.586,176.942 120.231,283.789l0,259.19c-0.528,50.487 -41.153,91.406 -91.699,92.345l-622.292,0c-49.783,0 -97.57,-42.562 -97.57,-92.345l0,-259.19Zm-1624.12,667.143l1244.52,0c23.894,-0.177 46.79,9.158 63.697,26.007c16.966,16.79 26.477,39.627 26.477,63.462c-1.761,392.219 -320.245,709.177 -712.406,709.177c-392.22,0 -710.645,-316.958 -712.465,-709.177c0.059,-23.835 9.569,-46.672 26.477,-63.462c16.966,-16.79 39.862,-26.184 63.697,-26.007Zm-1186.29,-407.953l0,-259.19c-0.528,-221.207 178.469,-400.909 399.676,-401.319c6.692,0 12.563,0.176 19.197,0.528c2.524,0.117 4.696,0.352 7.221,0.528c4.05,0.294 7.984,0.529 12.035,0.94c4.05,0.352 7.925,0.939 11.917,1.467c2.524,0.352 5.049,0.587 7.514,0.94c4.932,0.763 9.804,1.643 14.677,2.524c1.527,0.293 3.17,0.528 4.697,0.822c6.281,1.233 12.445,2.642 18.668,4.168l0.47,0.117c5.108,1.292 10.098,2.701 15.146,4.169c1.233,0.411 2.525,0.704 3.758,1.056c12.034,3.64 23.835,7.867 35.4,12.622l1.35,0.529c5.342,2.23 10.626,4.579 15.91,7.044c0.645,0.294 1.291,0.529 1.878,0.881c5.225,2.466 10.391,5.049 15.499,7.749c0.645,0.353 1.291,0.646 1.937,0.998c4.814,2.583 9.569,5.343 14.266,8.102c0.88,0.528 1.878,0.998 2.759,1.526c3.933,2.348 7.749,4.814 11.624,7.339c1.644,1.056 3.346,2.054 4.931,3.17c3.405,2.231 6.693,4.638 9.98,7.045c2.055,1.467 4.11,2.817 6.106,4.285c3.405,2.524 6.634,5.166 9.921,7.749c1.879,1.468 3.816,2.936 5.636,4.462c3.053,2.524 6.047,5.166 9.041,7.808c1.996,1.761 4.109,3.405 5.988,5.225c2.642,2.407 5.166,4.931 7.749,7.397c2.231,2.113 4.521,4.168 6.693,6.34l-1.292,0c75.204,75.204 117.062,177.412 116.181,283.789l0,259.19c0.704,23.835 -8.102,46.965 -24.539,64.284c-16.38,17.318 -38.982,27.416 -62.817,28.061l-622.349,0c-23.777,-0.645 -46.32,-10.743 -62.64,-28.12c-16.321,-17.319 -25.01,-40.449 -24.188,-64.225Z" style="fill:#3855be;fill-rule:nonzero;"/><path d="M4778.7,6780.66c287.663,1.644 532.646,-208.702 574.504,-493.254l754.44,0c603.446,1.116 1093.41,-487.383 1094.12,-1090.77l0,-1126.58c96.396,-121.875 149.937,-272.164 152.403,-427.561c-0.353,-341.262 -250.561,-630.862 -588.242,-680.704l0,1361.35c90.702,-13.386 177.706,-45.263 255.492,-93.814l0,967.252c-0.293,241.989 -96.749,473.88 -268.113,644.658c-171.424,170.778 -403.668,266.411 -645.657,265.824l-754.44,0c-48.902,-305.333 -328.229,-519.026 -635.735,-486.385c-307.505,32.641 -535.698,300.226 -519.378,609.024c16.321,308.856 271.46,550.903 580.668,550.962l-0.059,0Z" style="fill:#3855be;fill-rule:nonzero;"/></g></svg>