<?xml version="1.0" encoding="UTF-8" standalone="no"?><!DOCTYPE svg PUBLIC "-//W3C//DTD SVG 1.1//EN" "http://www.w3.org/Graphics/SVG/1.1/DTD/svg11.dtd"><svg width="100%" height="100%" viewBox="0 0 1738 1738" version="1.1" xmlns="http://www.w3.org/2000/svg" xmlns:xlink="http://www.w3.org/1999/xlink" xml:space="preserve" xmlns:serif="http://www.serif.com/" style="fill-rule:evenodd;clip-rule:evenodd;stroke-linejoin:round;stroke-miterlimit:1.41421;"><g><path d="M844.858,1147.22l0,87.118l43.01,0l0,-87.118c-7.118,0.559 -14.236,1.097 -21.505,1.097c-7.269,0 -14.387,-0.538 -21.505,-1.097Z" style="fill:#3855be;fill-rule:nonzero;"/><path d="M350.234,430.427c-13.204,-15.118 -21.506,-34.666 -21.506,-56.301c0,-47.441 38.581,-86.021 86.022,-86.021c47.441,0 86.022,38.58 86.022,86.021c0,21.635 -8.302,41.183 -21.506,56.301c35.097,14.431 64.774,40.043 84,73.14c14.86,-25.419 23.527,-54.903 23.527,-86.43c0,-94.86 -77.183,-172.043 -172.043,-172.043c-94.86,0 -172.043,77.183 -172.043,172.043c0,31.527 8.667,61.011 23.548,86.452c19.226,-33.097 48.882,-58.731 83.979,-73.162Z" style="fill:#3855be;fill-rule:nonzero;"/><path d="M295.567,540.922c30.946,29.806 72.925,48.258 119.183,48.258c46.258,0 88.237,-18.452 119.183,-48.258c-19.527,-47.978 -66.71,-80.774 -119.183,-80.774c-52.473,0 -99.656,32.796 -119.183,80.774Z" style="fill:#3855be;fill-rule:nonzero;"/><circle cx="414.75" cy="374.126" r="43.011" style="fill:#3855be;"/><path d="M1467.12,311.976c-9.291,-62.108 -62.99,-109.893 -127.635,-109.893c-64.645,0 -118.344,47.785 -127.634,109.893c-37.742,9.075 -65.914,43.14 -65.914,83.656c0,47.441 38.58,86.021 86.021,86.021l215.054,0c47.441,0 86.022,-38.58 86.022,-86.021c0,-40.516 -28.172,-74.581 -65.914,-83.656Z" style="fill:#3855be;fill-rule:nonzero;"/><circle cx="371.739" cy="1470.9" r="64.516" style="fill:#3855be;"/><path d="M265.309,1364.45l30.409,30.409c20.301,-20.302 47.312,-31.484 76.021,-31.484c28.71,0 55.721,11.182 76.022,31.484l30.408,-30.409c-28.43,-28.43 -66.215,-44.086 -106.43,-44.086c-40.215,0 -78,15.656 -106.43,44.086Z" style="fill:#3855be;fill-rule:nonzero;"/><path d="M204.47,1303.63l30.409,30.408c75.484,-75.462 198.258,-75.462 273.742,0l30.409,-30.408c-92.258,-92.237 -242.323,-92.237 -334.56,0Z" style="fill:#3855be;fill-rule:nonzero;"/><path d="M1468.51,1234.34l-301.075,0c-11.871,0 -21.505,9.656 -21.505,21.506l0,215.054c0,11.849 9.634,21.505 21.505,21.505l301.075,0c11.871,0 21.506,-9.656 21.506,-21.505l0,-215.054c0,-11.85 -9.635,-21.506 -21.506,-21.506Zm-21.505,215.054l-258.064,0l0,-172.043l43.01,0l0,129.032l43.011,0l0,-43.01l43.011,0l0,43.01l43.011,0l0,-86.021l43.01,0l0,86.021l43.011,0l0,43.011Z" style="fill:#3855be;fill-rule:nonzero;"/><path d="M758.836,1470.9c0,11.849 9.634,21.505 21.505,21.505l172.043,0c11.871,0 21.506,-9.656 21.506,-21.505l0,-21.506l-215.054,0l0,21.506Z" style="fill:#3855be;fill-rule:nonzero;"/><rect x="758.836" y="1363.37" width="215.054" height="43.011" style="fill:#3855be;fill-rule:nonzero;"/><path d="M952.384,1277.35l-172.043,0c-11.871,0 -21.505,9.656 -21.505,21.506l0,21.505l215.054,0l0,-21.505c0,-11.85 -9.635,-21.506 -21.506,-21.506Z" style="fill:#3855be;fill-rule:nonzero;"/><rect x="1274.96" y="847.245" width="215.054" height="43.011" style="fill:#3855be;fill-rule:nonzero;"/><path d="M1468.51,761.223l-172.043,0c-11.871,0 -21.505,9.656 -21.505,21.505l0,21.506l215.054,0l0,-21.506c0,-11.849 -9.635,-21.505 -21.506,-21.505Z" style="fill:#3855be;fill-rule:nonzero;"/><path d="M1274.96,954.772c0,11.849 9.634,21.505 21.505,21.505l172.043,0c11.871,0 21.506,-9.656 21.506,-21.505l0,-21.506l-215.054,0l0,21.506Z" style="fill:#3855be;fill-rule:nonzero;"/><rect x="242.707" y="847.245" width="215.054" height="43.011" style="fill:#3855be;fill-rule:nonzero;"/><path d="M264.212,976.277l172.043,0c11.871,0 21.506,-9.656 21.506,-21.505l0,-21.506l-215.054,0l0,21.506c0,11.849 9.634,21.505 21.505,21.505Z" style="fill:#3855be;fill-rule:nonzero;"/><path d="M457.761,782.728c0,-11.849 -9.635,-21.505 -21.506,-21.505l-172.043,0c-11.871,0 -21.505,9.656 -21.505,21.505l0,21.506l215.054,0l0,-21.506Z" style="fill:#3855be;fill-rule:nonzero;"/><path d="M973.89,266.599c0,-11.849 -9.635,-21.505 -21.506,-21.505l-172.043,0c-11.871,0 -21.505,9.656 -21.505,21.505l0,21.506l215.054,0l0,-21.506Z" style="fill:#3855be;fill-rule:nonzero;"/><path d="M780.341,460.148l172.043,0c11.871,0 21.506,-9.656 21.506,-21.506l0,-21.505l-215.054,0l0,21.505c0,11.85 9.634,21.506 21.505,21.506Z" style="fill:#3855be;fill-rule:nonzero;"/><rect x="758.836" y="331.116" width="215.054" height="43.011" style="fill:#3855be;fill-rule:nonzero;"/><path d="M630.901,890.255c2.795,30.753 11.548,59.764 25.032,86.022l90.666,0c-4.838,-26.602 -7.806,-55.505 -8.795,-86.022l-106.903,0Z" style="fill:#3855be;fill-rule:nonzero;"/><path d="M976.148,718.212l72.537,0c-26.795,-32.408 -62.172,-57.311 -102.451,-71.849c11.914,19.763 22,44 29.914,71.849Z" style="fill:#3855be;fill-rule:nonzero;"/><path d="M942.04,761.223l-151.355,0c-5.247,26 -8.774,54.903 -9.892,86.022l171.14,0c-1.118,-31.119 -4.645,-60.022 -9.893,-86.022Z" style="fill:#3855be;fill-rule:nonzero;"/><path d="M951.933,890.255l-171.14,0c1.118,31.119 4.667,60.022 9.892,86.022l151.355,0c5.248,-26 8.775,-54.903 9.893,-86.022Z" style="fill:#3855be;fill-rule:nonzero;"/><path d="M931.073,1019.29l-129.441,0c16.967,53.182 41.613,86.021 64.709,86.021c23.097,0 47.764,-32.839 64.732,-86.021Z" style="fill:#3855be;fill-rule:nonzero;"/><path d="M801.653,718.212l129.441,0c-16.968,-53.182 -41.613,-86.021 -64.71,-86.021c-23.096,0 -47.763,32.839 -64.731,86.021Z" style="fill:#3855be;fill-rule:nonzero;"/><path d="M986.126,976.277l90.667,0c13.462,-26.258 22.237,-55.269 25.032,-86.022l-106.903,0c-0.968,30.517 -3.957,59.42 -8.796,86.022Z" style="fill:#3855be;fill-rule:nonzero;"/><path d="M976.148,1019.29c-7.914,27.849 -18,52.086 -29.914,71.849c40.301,-14.516 75.656,-39.441 102.451,-71.849l-72.537,0Z" style="fill:#3855be;fill-rule:nonzero;"/><path d="M756.578,1019.29l-72.538,0c26.796,32.408 62.172,57.311 102.452,71.849c-11.914,-19.763 -22,-44 -29.914,-71.849Z" style="fill:#3855be;fill-rule:nonzero;"/><path d="M655.911,761.223c-13.462,26.258 -22.236,55.269 -25.032,86.022l106.903,0c0.99,-30.517 3.957,-59.42 8.796,-86.022l-90.667,0Z" style="fill:#3855be;fill-rule:nonzero;"/><path d="M1076.82,761.223l-90.667,0c4.839,26.602 7.806,55.505 8.796,86.022l106.903,0c-2.796,-30.753 -11.57,-59.764 -25.032,-86.022Z" style="fill:#3855be;fill-rule:nonzero;"/><path d="M756.578,718.212c7.914,-27.849 18,-52.086 29.914,-71.849c-40.301,14.516 -75.656,39.441 -102.452,71.849l72.538,0Z" style="fill:#3855be;fill-rule:nonzero;"/><path d="M1167.44,1191.33l51.914,0l-140.817,-140.818c-9.355,10.904 -19.505,21.054 -30.409,30.409l111.226,111.226c2.688,-0.344 5.312,-0.817 8.086,-0.817Z" style="fill:#3855be;fill-rule:nonzero;"/><path d="M1231.95,890.255l0,-43.01l-87.118,0c0.559,7.118 1.097,14.236 1.097,21.505c0,7.269 -0.538,14.387 -1.097,21.505l87.118,0Z" style="fill:#3855be;fill-rule:nonzero;"/><path d="M1231.95,524.664c-15.484,0 -30.258,-2.882 -44.021,-7.892l-139.828,139.827c10.903,9.355 21.054,19.506 30.408,30.409l162.345,-162.344l-8.904,0Z" style="fill:#3855be;fill-rule:nonzero;"/><path d="M887.868,590.277l0,-87.118l-43.01,0l0,87.118c7.118,-0.559 14.236,-1.097 21.505,-1.097c7.269,0 14.387,0.538 21.505,1.097Z" style="fill:#3855be;fill-rule:nonzero;"/><path d="M550.836,583.61l103.376,103.377c9.355,-10.904 19.506,-21.054 30.409,-30.409l-103.376,-103.376c-9.097,11.118 -19.291,21.311 -30.409,30.408Z" style="fill:#3855be;fill-rule:nonzero;"/><path d="M500.772,847.245l0,43.01l87.118,0c-0.559,-7.118 -1.097,-14.236 -1.097,-21.505c0,-7.269 0.538,-14.387 1.097,-21.505l-87.118,0Z" style="fill:#3855be;fill-rule:nonzero;"/><path d="M507.073,1197.63l30.408,30.408l147.118,-147.118c-10.903,-9.355 -21.053,-19.505 -30.408,-30.409l-147.118,147.119Z" style="fill:#3855be;fill-rule:nonzero;"/></g></svg>