<?xml version="1.0" encoding="UTF-8" standalone="no"?><!DOCTYPE svg PUBLIC "-//W3C//DTD SVG 1.1//EN" "http://www.w3.org/Graphics/SVG/1.1/DTD/svg11.dtd"><svg width="100%" height="100%" viewBox="0 0 417 417" version="1.1" xmlns="http://www.w3.org/2000/svg" xmlns:xlink="http://www.w3.org/1999/xlink" xml:space="preserve" xmlns:serif="http://www.serif.com/" style="fill-rule:evenodd;clip-rule:evenodd;stroke-linejoin:round;stroke-miterlimit:1.41421;"><g><path d="M294.776,140.379l-172.878,0c-5.53,0 -10.04,4.471 -10.04,10.012l0,34.086c0,5.54 4.51,10.012 10.04,10.012l172.878,0c5.519,0 10.026,-4.472 10.026,-10.012l0,-34.086c0,-5.541 -4.514,-10.012 -10.026,-10.012Zm-164.838,23.741c-3.416,0 -6.185,-2.761 -6.185,-6.181c0,-3.41 2.769,-6.178 6.185,-6.178c3.424,0 6.182,2.768 6.182,6.178c0,3.423 -2.758,6.181 -6.182,6.181Zm148.496,17.822l-43.674,0l0,-14.505l43.677,0l0,14.505l-0.003,0Z" style="fill:#3855be;fill-rule:nonzero;"/><path d="M294.776,199.994l-172.878,0c-5.53,0 -10.04,4.479 -10.04,10.019l0,34.083c0,5.533 4.51,10.015 10.04,10.015l172.878,0c5.519,0 10.026,-4.482 10.026,-10.015l0,-34.083c0,-5.54 -4.514,-10.019 -10.026,-10.019Zm-164.838,23.749c-3.416,0 -6.185,-2.751 -6.185,-6.182c0,-3.406 2.769,-6.188 6.185,-6.188c3.424,0 6.182,2.779 6.182,6.188c0,3.427 -2.758,6.182 -6.182,6.182Zm148.496,17.818l-43.674,0l0,-14.508l43.677,0l0,14.508l-0.003,0Z" style="fill:#3855be;fill-rule:nonzero;"/><path d="M294.776,259.613l-172.878,0c-5.53,0 -10.04,4.479 -10.04,10.016l0,34.082c0,5.538 4.51,10.02 10.04,10.02l172.878,0c5.519,0 10.026,-4.482 10.026,-10.02l0,-34.082c0,-5.537 -4.514,-10.016 -10.026,-10.016Zm-164.838,23.742c-3.416,0 -6.185,-2.744 -6.185,-6.182c0,-3.413 2.769,-6.174 6.185,-6.174c3.424,0 6.182,2.758 6.182,6.174c0,3.438 -2.758,6.182 -6.182,6.182Zm148.496,17.818l-43.674,0l0,-14.508l43.677,0l0,14.508l-0.003,0Z" style="fill:#3855be;fill-rule:nonzero;"/><path d="M238.191,346.33l-18.424,0l0,-26.804l-22.857,0l0,26.804l-18.445,0l0,7.063l-64.49,0l0,22.867l64.49,0l0,7.073l59.726,0l0,-7.073l64.487,0l0,-22.867l-64.487,0l0,-7.063Z" style="fill:#3855be;fill-rule:nonzero;"/><path d="M310.374,85.397c-2.474,-0.209 -4.747,-1.472 -6.22,-3.466c-13.86,-18.717 -36.083,-30.262 -59.732,-30.262c-1.48,0 -2.964,0.046 -4.447,0.134c-2.053,0.124 -4.071,-0.488 -5.711,-1.727c-14.398,-10.859 -31.845,-16.743 -50.106,-16.743c-32.719,0 -61.761,18.955 -75.334,47.657c-1.247,2.63 -3.732,4.457 -6.614,4.861c-36.061,5.073 -63.903,36.129 -63.903,73.564c0,35.69 25.303,65.563 58.915,72.669l0,-22.071c0,-2.751 0.51,-5.374 1.356,-7.842c-17.974,-5.908 -31.003,-22.828 -31.003,-42.753c0,-24.821 20.194,-45.015 45.019,-45.015c1.253,0 2.485,0.099 3.714,0.198c7.155,0.556 13.627,-4.085 15.372,-11.024c6.05,-24.124 27.636,-40.972 52.475,-40.972c14.196,0 27.632,5.48 37.828,15.436c3.484,3.398 8.437,4.846 13.202,3.851c3.041,-0.633 6.146,-0.955 9.237,-0.955c17.379,0 32.9,9.771 40.501,25.497c2.673,5.53 8.514,8.822 14.629,8.192c1.522,-0.152 3.041,-0.226 4.513,-0.226c24.825,0 45.023,20.194 45.023,45.015c0,19.928 -13.036,36.844 -31.006,42.753c0.842,2.471 1.352,5.091 1.352,7.842l0,22.067c33.608,-7.102 58.925,-36.972 58.925,-72.666c-0.003,-38.833 -29.969,-70.806 -67.985,-74.014Z" style="fill:#3855be;fill-rule:nonzero;"/></g></svg>