<?xml version="1.0" encoding="UTF-8" standalone="no"?><!DOCTYPE svg PUBLIC "-//W3C//DTD SVG 1.1//EN" "http://www.w3.org/Graphics/SVG/1.1/DTD/svg11.dtd"><svg width="100%" height="100%" viewBox="0 0 417 417" version="1.1" xmlns="http://www.w3.org/2000/svg" xmlns:xlink="http://www.w3.org/1999/xlink" xml:space="preserve" xmlns:serif="http://www.serif.com/" style="fill-rule:evenodd;clip-rule:evenodd;stroke-linejoin:round;stroke-miterlimit:1.41421;"><g><rect x="0" y="0" width="416.667" height="416.667" style="fill:none;"/><g><rect x="118.49" y="199.405" width="17.857" height="17.857" style="fill:#3855be;fill-rule:nonzero;"/><rect x="151.345" y="101.19" width="101.631" height="17.857" style="fill:#c3cced;fill-rule:nonzero;"/><rect x="151.345" y="297.619" width="101.631" height="17.857" style="fill:#c3cced;fill-rule:nonzero;"/><rect x="118.49" y="145.833" width="17.857" height="35.714" style="fill:#c3cced;fill-rule:nonzero;"/><rect x="118.49" y="235.119" width="17.857" height="35.714" style="fill:#c3cced;fill-rule:nonzero;"/><rect x="280.878" y="145.833" width="17.857" height="35.714" style="fill:#c3cced;fill-rule:nonzero;"/><rect x="280.878" y="235.119" width="17.857" height="35.714" style="fill:#c3cced;fill-rule:nonzero;"/><rect x="280.878" y="199.405" width="17.857" height="17.857" style="fill:#3855be;fill-rule:nonzero;"/><path d="M92.262,65.476l71.428,0c4.931,0 8.929,3.998 8.929,8.929l0,71.428c0,4.931 -3.998,8.929 -8.929,8.929l-71.428,0c-4.931,0 -8.929,-3.998 -8.929,-8.929l0,-71.428c0,-4.931 3.998,-8.929 8.929,-8.929Z" style="fill:#3855be;fill-rule:nonzero;"/><path d="M252.976,65.476l71.429,0c4.931,0 8.928,3.998 8.928,8.929l0,71.428c0,4.931 -3.997,8.929 -8.928,8.929l-71.429,0c-4.931,0 -8.928,-3.998 -8.928,-8.929l0,-71.428c0,-4.931 3.997,-8.929 8.928,-8.929Z" style="fill:#3855be;fill-rule:nonzero;"/><path d="M92.262,261.905l71.428,0c4.931,0 8.929,3.998 8.929,8.928l0,71.429c0,4.931 -3.998,8.928 -8.929,8.928l-71.428,0c-4.931,0 -8.929,-3.997 -8.929,-8.928l0,-71.429c0,-4.93 3.998,-8.928 8.929,-8.928Z" style="fill:#3855be;fill-rule:nonzero;"/><path d="M252.976,261.905l71.429,0c4.931,0 8.928,3.998 8.928,8.928l0,71.429c0,4.931 -3.997,8.928 -8.928,8.928l-71.429,0c-4.931,0 -8.928,-3.997 -8.928,-8.928l0,-71.429c0,-4.93 3.997,-8.928 8.928,-8.928Z" style="fill:#3855be;fill-rule:nonzero;"/><rect x="261.905" y="83.333" width="17.857" height="17.857" style="fill:#fff;fill-rule:nonzero;"/><rect x="101.19" y="83.333" width="17.857" height="17.857" style="fill:#fff;fill-rule:nonzero;"/><rect x="261.905" y="279.762" width="17.857" height="17.857" style="fill:#fff;fill-rule:nonzero;"/><rect x="101.19" y="279.762" width="17.857" height="17.857" style="fill:#fff;fill-rule:nonzero;"/></g></g></svg>