<?xml version="1.0" encoding="UTF-8" standalone="no"?><!DOCTYPE svg PUBLIC "-//W3C//DTD SVG 1.1//EN" "http://www.w3.org/Graphics/SVG/1.1/DTD/svg11.dtd"><svg width="100%" height="100%" viewBox="0 0 417 417" version="1.1" xmlns="http://www.w3.org/2000/svg" xmlns:xlink="http://www.w3.org/1999/xlink" xml:space="preserve" xmlns:serif="http://www.serif.com/" style="fill-rule:evenodd;clip-rule:evenodd;stroke-linejoin:round;stroke-miterlimit:1.41421;"><g><rect x="0" y="0" width="416.667" height="416.667" style="fill:none;"/><g><g><rect x="165.609" y="285.238" width="51.27" height="17.09" style="fill:#3855be;fill-rule:nonzero;"/><rect x="113.77" y="285.238" width="34.749" height="17.09" style="fill:#3855be;"/><path d="M88.135,62.5c-14.136,0 -25.635,11.499 -25.635,25.635l0,42.724l205.648,0l0,-68.359l-180.013,0Zm34.179,51.27l-17.089,0c-4.723,0 -8.545,-3.822 -8.545,-8.545c0,-4.723 3.822,-8.545 8.545,-8.545l17.089,0c4.724,0 8.545,3.822 8.545,8.545c0,4.723 -3.821,8.545 -8.545,8.545Zm51.84,0l-17.09,0c-4.723,0 -8.545,-3.822 -8.545,-8.545c0,-4.723 3.822,-8.545 8.545,-8.545l17.09,0c4.723,0 8.545,3.822 8.545,8.545c0,4.723 -3.822,8.545 -8.545,8.545Zm51.269,0l-17.09,0c-4.723,0 -8.545,-3.822 -8.545,-8.545c0,-4.723 3.822,-8.545 8.545,-8.545l17.09,0c4.723,0 8.545,3.822 8.545,8.545c0,4.723 -3.822,8.545 -8.545,8.545Z" style="fill:#3855be;fill-rule:nonzero;"/><rect x="233.968" y="285.238" width="51.27" height="17.09" style="fill:#3855be;"/><rect x="113.77" y="251.058" width="86.019" height="17.09" style="fill:#3855be;fill-rule:nonzero;"/><rect x="268.148" y="182.699" width="34.18" height="17.09" style="fill:#3855be;"/><path d="M62.5,147.949l0,180.583c0,14.135 11.499,25.635 25.635,25.635l240.397,0c14.135,0 25.635,-11.5 25.635,-25.635l0,-180.583l-291.667,0Zm239.827,162.923c0,4.723 -3.821,8.545 -8.544,8.545l-188.558,0c-4.723,0 -8.545,-3.822 -8.545,-8.545l0,-102.539c0,-4.723 3.822,-8.545 8.545,-8.545l120.198,0c4.723,0 8.545,3.822 8.545,8.545l0,25.635l59.815,0c4.723,0 8.544,3.822 8.544,8.545l0,68.359Zm17.09,-102.539c0,4.723 -3.822,8.545 -8.545,8.545l-51.269,0c-4.723,0 -8.545,-3.822 -8.545,-8.545l0,-34.179c0,-4.723 3.822,-8.545 8.545,-8.545l51.269,0c4.723,0 8.545,3.822 8.545,8.545l0,34.179Z" style="fill:#c3cced;fill-rule:nonzero;"/><path d="M328.532,62.5l-43.294,0l0,68.359l68.929,0l0,-42.724c0,-14.136 -11.5,-25.635 -25.635,-25.635Z" style="fill:#3855be;fill-rule:nonzero;"/><rect x="216.878" y="251.058" width="68.359" height="17.09" style="fill:#3855be;fill-rule:nonzero;"/><rect x="113.77" y="216.878" width="34.749" height="17.09" style="fill:#3855be;"/><rect x="165.609" y="216.878" width="51.27" height="17.09" style="fill:#3855be;"/></g></g></g></svg>