<?xml version="1.0" encoding="UTF-8" standalone="no"?><!DOCTYPE svg PUBLIC "-//W3C//DTD SVG 1.1//EN" "http://www.w3.org/Graphics/SVG/1.1/DTD/svg11.dtd"><svg width="100%" height="100%" viewBox="0 0 7242 7242" version="1.1" xmlns="http://www.w3.org/2000/svg" xmlns:xlink="http://www.w3.org/1999/xlink" xml:space="preserve" xmlns:serif="http://www.serif.com/" style="fill-rule:evenodd;clip-rule:evenodd;stroke-linejoin:round;stroke-miterlimit:1.41421;"><g><path d="M6243.82,912.5l-5245.92,0c-197.612,0 -358.311,160.744 -358.311,358.326l0,4700.03c0,197.582 160.699,358.311 358.311,358.311l5245.93,0c197.551,0 358.25,-160.729 358.25,-358.311l0,-4700.03c0.045,-197.567 -160.714,-358.326 -358.265,-358.326Zm-1080.35,601.7c0,-73.067 59.232,-132.314 132.284,-132.314l132.314,0c73.097,0 132.283,59.232 132.283,132.314l0,149.95c0,73.067 -59.231,132.299 -132.283,132.299l-132.314,0c-73.052,0 -132.284,-59.232 -132.284,-132.299l0,-149.95Zm-615.231,0c0,-73.067 59.263,-132.314 132.314,-132.314l132.284,0c73.052,0 132.314,59.232 132.314,132.314l0,149.95c0,73.067 -59.262,132.299 -132.314,132.299l-132.284,0c-73.051,0 -132.314,-59.232 -132.314,-132.299l0,-149.95Zm1623.86,4384.97l-5102.54,0l0,-3705.28l5102.54,0l0,3705.28Zm3.481,-4235.02c0,73.067 -59.232,132.299 -132.283,132.299l-132.314,0c-73.113,0 -132.299,-59.232 -132.299,-132.299l0,-149.95c0,-73.067 59.232,-132.314 132.299,-132.314l132.314,0c73.066,0 132.283,59.232 132.283,132.314l0,149.95Z" style="fill:#3855be;fill-rule:nonzero;"/><path d="M1919.47,4186.27l959.083,446.003c24.797,11.478 51.19,17.301 78.48,17.301c35.545,0 70.193,-10.095 100.311,-29.251c53.926,-34.466 86.142,-93.196 86.142,-157.11l0,-4.896c0,-72.246 -42.341,-138.593 -107.883,-169.03l-599.845,-278.706l599.845,-278.737c65.542,-30.467 107.883,-96.799 107.883,-169.015l0,-4.85c0,-64.005 -32.216,-122.766 -86.142,-157.11c-29.814,-19.05 -64.553,-29.13 -100.418,-29.13c-27.046,0 -54.169,5.945 -78.449,17.226l-959.022,445.957c-65.48,30.468 -107.791,96.83 -107.791,169.015l0,13.333c-0.015,72.079 42.265,138.411 107.806,169Z" style="fill:#3855be;fill-rule:nonzero;"/><path d="M3152.03,5094.69c34.983,47.875 91.25,76.472 150.512,76.472l4.805,0c81.367,0 152.656,-52.086 177.452,-129.486l631.772,-1957.59c18.122,-56.495 8.073,-118.859 -26.925,-166.825c-34.983,-47.89 -91.25,-76.472 -150.528,-76.472l-4.789,0c-81.398,0 -152.762,52.071 -177.559,129.471l-631.832,1957.74c-17.986,56.571 -7.86,118.844 27.092,166.689Z" style="fill:#3855be;fill-rule:nonzero;"/><path d="M4098.18,3562.81c0,72.14 42.311,138.487 107.867,169.106l599.845,278.661l-599.845,278.676c-65.526,30.467 -107.867,96.814 -107.867,169.03l0,4.895c0,63.93 32.185,122.66 86.172,157.141c30.011,19.126 64.675,29.251 100.266,29.251c27.259,0 53.637,-5.823 78.601,-17.362l959.022,-445.988c65.48,-30.543 107.791,-96.875 107.791,-168.984l0,-13.333c0,-72.186 -42.311,-138.548 -107.852,-169.015l-959.022,-445.958c-24.189,-11.25 -51.281,-17.195 -78.327,-17.195c-35.804,0 -70.589,10.05 -100.403,29.069c-53.987,34.405 -86.202,93.15 -86.202,157.156l0,4.835l-0.046,0l0,0.015Z" style="fill:#3855be;fill-rule:nonzero;"/></g></svg>