<?xml version="1.0" encoding="UTF-8" standalone="no"?><!DOCTYPE svg PUBLIC "-//W3C//DTD SVG 1.1//EN" "http://www.w3.org/Graphics/SVG/1.1/DTD/svg11.dtd"><svg width="100%" height="100%" viewBox="0 0 7242 7242" version="1.1" xmlns="http://www.w3.org/2000/svg" xmlns:xlink="http://www.w3.org/1999/xlink" xml:space="preserve" xmlns:serif="http://www.serif.com/" style="fill-rule:evenodd;clip-rule:evenodd;stroke-linejoin:round;stroke-miterlimit:1.41421;"><g><rect x="0" y="0" width="7233.79" height="7233.79" style="fill:none;"/><g><path d="M1488.55,1761.9c18.067,4.533 34.604,13.904 47.784,27.071l1472.3,1472.33l266.412,-266.387l-1472.33,-1472.33c-13.208,-13.191 -22.537,-29.779 -27.1,-47.904l-92.662,-369.387l-614.28,-351.184l-300.808,300.796l351.292,614.7l369.387,92.296Z" style="fill:#3855be;fill-rule:nonzero;"/><path d="M2797.77,5120.33l2336.31,-2336.35c25.592,-25.616 62.721,-35.891 97.834,-27.15c307.6,78.834 634.329,10.521 884.683,-184.8c250.388,-195.337 396.033,-495.72 394.354,-813.25c0,-19.341 -0.566,-38.825 -1.821,-58.479l-543.4,543.334c-27.537,27.558 -68.37,37.224 -105.383,24.875l-618.046,-206.042c-30.775,-10.192 -54.912,-34.329 -65.183,-65.075l-205.988,-618.058c-12.358,-36.963 -2.725,-77.809 24.88,-105.396l543.383,-543.371c-327.217,-20.358 -644.454,117.116 -853.458,369.704c-208.975,252.637 -284.496,590.008 -203.213,907.592c8.804,35.162 -1.454,72.279 -27.075,97.883l-2336.27,2336.19c-25.633,25.421 -62.725,35.729 -97.862,27.125c-81.333,-20.888 -164.983,-31.713 -249,-32.042c-443.638,-2.921 -840.033,276.75 -986.1,695.746c-145.988,418.958 -9.267,884.433 340.133,1157.88c349.4,273.442 834.084,294.354 1205.69,51.921c371.633,-242.421 547.842,-694.396 438.321,-1124.4c-8.709,-35.096 1.587,-72.284 27.204,-97.834Zm-774.517,758.838l-501.392,0l-247.283,-412.017l247.283,-412.083l501.392,0l247.233,412.083l-247.233,412.017Zm397.542,-1205.94l2266.19,-2266.21l145.629,145.658l-2266.18,2266.21l-145.633,-145.659Z" style="fill:#3855be;fill-rule:nonzero;"/><path d="M5666.33,6457.25c229.438,86.267 488.121,30.325 661.459,-143c173.35,-173.379 229.304,-432.096 143,-661.483l-804.459,804.483Z" style="fill:#3855be;fill-rule:nonzero;"/><path d="M6327.79,5429.67l-1156.95,-1157.42c-127.613,107.271 -316.059,99.117 -434.013,-18.692c-117.962,-117.779 -126.279,-306.171 -19.192,-433.92l-163.85,-164.046l-884.433,884.475l164.842,164.825c127.612,-107.271 316.087,-99.142 433.975,18.625c117.95,117.804 126.316,306.225 19.216,433.987l1155.98,1156.58c12.613,12.609 25.921,24.296 39.367,35.663l880.758,-880.758c-11.341,-13.471 -23.079,-26.729 -35.691,-39.325Zm-610.738,419.3l-1030.08,-1030.08l145.629,-145.659l1030.1,1030.13l-145.658,145.605Z" style="fill:#3855be;fill-rule:nonzero;"/></g></g></svg>