<?xml version="1.0" encoding="UTF-8" standalone="no"?><!DOCTYPE svg PUBLIC "-//W3C//DTD SVG 1.1//EN" "http://www.w3.org/Graphics/SVG/1.1/DTD/svg11.dtd"><svg width="100%" height="100%" viewBox="0 0 30175 30175" version="1.1" xmlns="http://www.w3.org/2000/svg" xmlns:xlink="http://www.w3.org/1999/xlink" xml:space="preserve" xmlns:serif="http://www.serif.com/" style="fill-rule:evenodd;clip-rule:evenodd;stroke-linejoin:round;stroke-miterlimit:1.41421;"><g><path d="M6593.46,21156.9l-2426.84,0c-223.276,0.31 -404.171,181.205 -404.481,404.481l0,4853.68l3235.8,0l0,-4853.68c-0.31,-223.232 -181.204,-404.171 -404.481,-404.481Z" style="fill:#3855be;fill-rule:nonzero;"/><path d="M13065.1,15494.2l-2426.84,0c-223.276,0.31 -404.171,181.205 -404.481,404.481l0,10516.3l3235.8,0l0,-10516.3c-0.309,-223.232 -181.204,-404.171 -404.48,-404.481Z" style="fill:#3855be;fill-rule:nonzero;"/><path d="M19536.7,17921.1l-2426.84,0c-223.276,0.31 -404.171,181.205 -404.48,404.481l0,8089.48l3235.8,0l0,-8089.53c-0.31,-223.232 -181.249,-404.171 -404.481,-404.437Z" style="fill:#3855be;fill-rule:nonzero;"/><path d="M26008.2,14685.3l-2426.84,0c-223.276,0.31 -404.171,181.205 -404.48,404.481l0,11325.3l3235.8,0l0,-11325.3c-0.266,-223.276 -181.205,-404.215 -404.481,-404.481Z" style="fill:#3855be;fill-rule:nonzero;"/><path d="M23683.7,7362.78c527.112,499.993 1323.07,586.923 1945.65,212.437c622.581,-374.442 918.896,-1118.28 724.287,-1818.28c-194.609,-700 -832.32,-1184.15 -1558.82,-1183.54c-516.893,-6.813 -1005.07,236.946 -1310.19,654.212c-305.119,417.266 -389.351,956.411 -226.108,1446.89l-3824.18,2390.08c-565.689,-543.702 -1442.16,-597.01 -2069.61,-125.861l-4043.17,-2887.99c327.017,-714.112 93.743,-1559.97 -553.125,-2005.46c-646.869,-445.49 -1520.33,-361.834 -2070.85,198.37c-550.515,560.203 -619.041,1434.95 -162.403,2073.99l-4458.89,5294.97c-734.905,-349.89 -1615.4,-98.787 -2055.18,586.127c-439.783,684.914 -301.756,1590.01 322.24,2112.7c623.996,522.688 1539.27,499.861 2136.45,-53.22c597.188,-553.081 690.046,-1463.92 216.685,-2126.1l4458.89,-5294.88c536.978,264.684 1177.34,203.722 1654.77,-157.493l4043.17,2887.99c-311.887,659.122 -145.592,1445.34 406.472,1921.71c552.063,476.37 1354.17,525.785 1960.51,120.774c606.345,-405.012 867.888,-1164.91 639.259,-1857.3l3824.14,-2390.12Z" style="fill:#3855be;fill-rule:nonzero;"/></g></svg>