<?xml version="1.0" encoding="UTF-8" standalone="no"?><!DOCTYPE svg PUBLIC "-//W3C//DTD SVG 1.1//EN" "http://www.w3.org/Graphics/SVG/1.1/DTD/svg11.dtd"><svg width="100%" height="100%" viewBox="0 0 7242 7242" version="1.1" xmlns="http://www.w3.org/2000/svg" xmlns:xlink="http://www.w3.org/1999/xlink" xml:space="preserve" xmlns:serif="http://www.serif.com/" style="fill-rule:evenodd;clip-rule:evenodd;stroke-linejoin:round;stroke-miterlimit:1.41421;"><g><rect x="0" y="0" width="7233.79" height="7233.79" style="fill:none;"/><g><path d="M4817.12,3108.14l-683.593,0l0,1008.14l-341.797,-216.357l0,-1475.38l683.594,0l0,-1720.38l-1708.99,0l0,1720.38l683.594,0l0,1475.38l-341.797,216.357l0,-1008.14l-683.594,0l0,-683.594l-1720.38,0l0,1708.99l1720.38,0l0,-683.594l341.797,0l0,882.713l-170.853,108.145l1025.35,683.582l1025.35,-683.571l-170.852,-108.156l0,-882.713l341.796,0l0,683.594l1720.38,0l0,-1708.99l-1720.38,0l0,683.594Zm-1367.19,-1708.98l341.797,0l0,341.797l-341.797,0l0,-341.797Zm-1708.98,2050.78l-341.797,0l0,-341.797l341.797,0l0,341.797Zm3759.76,-341.797l341.797,0l0,341.797l-341.797,0l0,-341.797Z" style="fill:#3855be;fill-rule:nonzero;"/><path d="M3791.73,5421.32l0,1116.18l1025.39,-683.639l0,-1116.19l-1025.39,683.651Z" style="fill:#3855be;fill-rule:nonzero;"/><path d="M2424.54,4737.67l0,1116.19l1025.39,683.639l0,-1116.18l-1025.39,-683.651Z" style="fill:#3855be;fill-rule:nonzero;"/></g></g></svg>