<?xml version="1.0" encoding="UTF-8" standalone="no"?><!DOCTYPE svg PUBLIC "-//W3C//DTD SVG 1.1//EN" "http://www.w3.org/Graphics/SVG/1.1/DTD/svg11.dtd"><svg width="100%" height="100%" viewBox="0 0 3292 3046" version="1.1" xmlns="http://www.w3.org/2000/svg" xmlns:xlink="http://www.w3.org/1999/xlink" xml:space="preserve" xmlns:serif="http://www.serif.com/" style="fill-rule:evenodd;clip-rule:evenodd;stroke-linejoin:round;stroke-miterlimit:1.41421;"><path d="M2298.62,183.292l-1385.42,3.375c-31.176,0.068 -56.792,25.74 -56.792,56.916c0,0.056 0.001,0.111 0.001,0.167l6.291,2591.21c0.069,31.177 25.74,56.792 56.917,56.792c0.055,0 0.111,0 0.167,0l1385.42,-3.375c31.177,-0.068 56.792,-25.74 56.792,-56.917c0,-0.069 0,-0.139 0,-0.208l-6.292,-2591.21c-0.091,-31.161 -25.755,-56.751 -56.916,-56.751c-0.056,0 -0.111,0.001 -0.167,0.001Z" style="fill:url(#_Linear1);fill-rule:nonzero;"/><path d="M2335.53,275.363c-0.077,-31.367 -25.605,-56.771 -56.972,-56.694l-1345.12,3.287c-31.367,0.076 -56.771,25.605 -56.694,56.972l6.156,2519.45c0.077,31.367 25.605,56.771 56.972,56.694l1345.12,-3.287c31.367,-0.076 56.771,-25.605 56.694,-56.972l-6.156,-2519.45Z" style="fill:#fff;"/><path id="_869b38ff-715e-463a-98e7-ca2bce61d391" serif:id="869b38ff-715e-463a-98e7-ca2bce61d391" d="M1972.62,285.417c-8.534,57.457 -58.205,100.543 -116.292,100.875l-503.875,1.208c-58.04,-0.104 -107.852,-42.925 -116.666,-100.292l-266.875,0.667c-30.354,0.068 -55.292,25.063 -55.292,55.417c0,0.041 0,0.083 0,0.125l5.792,2390.29c0.068,30.354 25.063,55.292 55.416,55.292c0.056,0 0.111,0 0.167,0l1275,-3.083c30.353,-0.069 55.292,-25.063 55.292,-55.417c0,-0.042 0,-0.083 0,-0.125l-5.792,-2390.29c-0.068,-30.353 -25.063,-55.291 -55.417,-55.291c-0.041,0 -0.083,0 -0.125,0l-271.333,0.625Z" style="fill:#3755be;fill-opacity:0.4;fill-rule:nonzero;"/><path d="M1755.56,323.919c-0.069,-4.599 -3.859,-8.276 -8.458,-8.207l-308.382,4.629c-4.599,0.069 -8.276,3.859 -8.207,8.457l0.055,3.667c0.069,4.598 3.859,8.276 8.457,8.207l308.382,-4.629c4.599,-0.069 8.277,-3.859 8.208,-8.458l-0.055,-3.666Z" style="fill:#dbdbdb;"/><path d="M1824.39,310.427c6.737,-0.101 12.289,5.287 12.39,12.024c0.102,6.737 -5.286,12.289 -12.023,12.39c-6.737,0.101 -12.289,-5.287 -12.39,-12.024c-0.102,-6.737 5.286,-12.289 12.023,-12.39Z" style="fill:#dbdbdb;"/><path d="M1779.46,2102.62c0,-0.049 0,-0.098 0,-0.147c0,-225.948 -185.927,-411.875 -411.875,-411.875c-225.948,0 -411.875,185.927 -411.875,411.875c0,137.018 68.373,265.369 182.084,341.814l0.25,1.833c13.453,12.891 29.329,22.989 46.708,29.708l0.542,-1.833c19.291,16.667 100.5,43.042 193.791,42.792l2.042,0c59.083,0 123.25,-10.417 179.667,-40.959c0,0 0.5,-1.083 1.25,-3.125c14.29,-6.713 27.403,-15.69 38.833,-26.583c0.222,-1.583 0.444,-3.139 0.667,-4.667c111.324,-76.739 177.949,-203.622 177.916,-338.833Z" style="fill:url(#_Linear2);fill-rule:nonzero;"/><circle cx="1367.54" cy="2102.67" r="399.542" style="fill:#f5f5f5;"/><path d="M1214.92,2266.96c0,0 -95.209,7.792 -70,181.209c13.036,12.539 28.431,22.368 45.291,28.916l53.542,-181.208l-28.833,-28.917Z" style="fill:#fda57d;fill-rule:nonzero;"/><path d="M1523.83,2266.96c0,0 95.209,7.792 70,181.209c-13.036,12.539 -28.431,22.368 -45.291,28.916l-53.542,-181.291l28.833,-28.834Z" style="fill:#fda57d;fill-rule:nonzero;"/><path d="M1219.04,1982.75c0,0 -45.292,131.833 -70,119.333c0,0 238.416,205.959 448.958,0c0,0 -37.083,-65.916 -90.625,-119.458l-288.333,0.125Z" style="fill:#333;fill-rule:nonzero;"/><circle cx="1371.88" cy="1970.38" r="177.125" style="fill:#333;"/><path d="M1522,2266.96l-308.875,0l-28.833,123.584c0,0 -16.917,57.208 4.166,82.375c21.084,25.166 217.834,82.375 362.5,4.166c12.616,-32.933 14.081,-69.113 4.167,-102.958c-16.667,-57.667 -4.167,-4.167 -4.167,-4.167l-28.958,-103Z" style="fill-opacity:0.1;fill-rule:nonzero;"/><path d="M1526.12,2266.96l-308.917,0l-28.833,123.584c0,0 -16.917,57.208 4.167,82.375c21.083,25.166 217.833,82.375 362.5,4.166c12.616,-32.933 14.08,-69.113 4.166,-102.958c-16.666,-57.667 -4.166,-4.167 -4.166,-4.167l-28.917,-103Z" style="fill-opacity:0.1;fill-rule:nonzero;"/><path d="M1523.83,2266.96l-308.916,0l-28.834,123.584c0,0 -16.916,57.208 4.167,82.375c21.083,25.166 217.833,82.375 362.5,4.166c12.616,-32.933 14.08,-69.113 4.167,-102.958c-16.667,-57.667 -4.167,-4.167 -4.167,-4.167l-28.917,-103Z" style="fill:#3755be;fill-rule:nonzero;"/><path d="M1309.67,2164.42l123.666,0l0,119.583c0,22.515 -18.527,41.042 -41.041,41.042l-41.667,0c-22.515,0 -41.042,-18.527 -41.042,-41.042l0,-119.583l0.084,0Z" style="fill-opacity:0.1;fill-rule:nonzero;"/><path d="M1309.67,2159.88l123.666,0l0,119.583c0,22.515 -18.527,41.042 -41.041,41.042l-41.667,0c-22.515,0 -41.042,-18.527 -41.042,-41.042l0,-119.583l0.084,0Z" style="fill:#fda57d;fill-rule:nonzero;"/><path d="M1309.92,2177.67c39.819,14.878 83.684,14.996 123.583,0.333l0,-15.167l-123.583,0l0,14.834Z" style="fill-opacity:0.1;fill-rule:nonzero;"/><circle cx="1371.88" cy="2008.83" r="177.125" style="fill:#fda57d;"/><path d="M1202.58,1941.54l337.75,0c0,0 -28.833,-136.375 -156.5,-127.667c-127.666,8.708 -181.25,127.667 -181.25,127.667Z" style="fill:#333;fill-rule:nonzero;"/><ellipse cx="1198.46" cy="2001.29" rx="16.458" ry="30.875" style="fill:#fda57d;"/><ellipse cx="1544.42" cy="2001.29" rx="16.458" ry="30.875" style="fill:#fda57d;"/><path d="M1202.58,1946.12l337.75,0c0,0 -28.833,-136.375 -156.5,-127.667c-127.666,8.709 -181.25,127.667 -181.25,127.667Z" style="fill-opacity:0.1;fill-rule:nonzero;"/><path d="M1445.58,1016.04c0,-0.049 0,-0.099 0,-0.148c0,-225.948 185.927,-411.875 411.875,-411.875c225.948,0 411.875,185.927 411.875,411.875c0,137.018 -68.372,265.37 -182.083,341.814l-0.25,1.834c-13.424,13.011 -29.302,23.223 -46.708,30.041l-0.542,-1.833c-19.292,16.667 -100.5,43.042 -193.792,42.792l-2.041,0c-59.084,0 -123.25,-10.417 -179.667,-40.959c0,0 -0.5,-1.083 -1.25,-3.125c-14.29,-6.713 -27.404,-15.69 -38.833,-26.583c-0.223,-1.583 -0.445,-3.139 -0.667,-4.667c-111.421,-76.805 -178.059,-203.838 -177.917,-339.166Z" style="fill:url(#_Linear3);fill-rule:nonzero;"/><circle cx="1857.46" cy="1016.08" r="399.542" style="fill:#f5f5f5;"/><path d="M1700.83,1168.25c0,0 -95.208,7.792 -70,181.208c13.044,12.51 28.438,22.31 45.292,28.834l53.542,-181.209l-28.834,-28.833Z" style="fill:#be7c5e;fill-rule:nonzero;"/><path d="M2009.71,1168.25c0,0 95.209,7.792 70,181.208c-13.043,12.51 -28.438,22.31 -45.291,28.834l-53.542,-181.209l28.833,-28.833Z" style="fill:#be7c5e;fill-rule:nonzero;"/><path d="M1704.92,884.042c0,0 -7.334,21.333 -17.709,45.833c-22.666,54.167 3.209,261.292 57.417,283.333c60.833,25 140.833,40.667 223.958,10.375c72.209,-26.333 94.5,-262.5 43.417,-319.791c-6,-6.75 -12.25,-13.459 -18.792,-19.959l-288.291,0.209Z" style="fill:#333;fill-rule:nonzero;"/><circle cx="1857.75" cy="871.708" r="177.125" style="fill:#333;"/><path d="M2007.92,1168.25l-308.917,0l-28.833,123.583c0,0 -16.917,57.209 4.166,82.375c21.084,25.167 217.834,82.375 362.5,4.167c12.616,-32.933 14.081,-69.114 4.167,-102.958c-16.667,-57.667 -4.167,-4.167 -4.167,-4.167l-28.916,-103Z" style="fill-opacity:0.1;fill-rule:nonzero;"/><path d="M2012,1168.25l-308.917,0l-28.833,123.583c0,0 -16.917,57.209 4.167,82.375c21.083,25.167 217.833,82.375 362.5,4.167c12.616,-32.933 14.08,-69.114 4.166,-102.958c-16.666,-57.667 -4.166,-4.167 -4.166,-4.167l-28.917,-103Z" style="fill-opacity:0.1;fill-rule:nonzero;"/><path d="M2009.71,1168.25l-308.875,0l-28.833,123.583c0,0 -16.917,57.209 4.167,82.375c21.083,25.167 217.833,82.375 362.5,4.167c12.616,-32.933 14.08,-69.114 4.166,-102.958c-16.666,-57.667 -4.166,-4.167 -4.166,-4.167l-28.959,-103Z" style="fill:#f55f44;fill-rule:nonzero;"/><path d="M1795.54,1065.75l123.583,0l0,119.583c0,22.515 -18.527,41.042 -41.042,41.042l-41.666,0c-22.515,0 -41.042,-18.527 -41.042,-41.042l0,-119.583l0.167,0Z" style="fill-opacity:0.1;fill-rule:nonzero;"/><path d="M1795.54,1061.17l123.583,0l0,119.583c0,22.515 -18.527,41.042 -41.042,41.042l-41.666,0c-22.515,0 -41.042,-18.527 -41.042,-41.042l0,-119.583l0.167,0Z" style="fill:#be7c5e;fill-rule:nonzero;"/><path d="M1795.83,1078.96c39.82,14.878 83.684,14.997 123.584,0.334l0,-15.167l-123.584,0l0,14.833Z" style="fill-opacity:0.1;fill-rule:nonzero;"/><circle cx="1857.75" cy="910.125" r="177.125" style="fill:#be7c5e;"/><path d="M1688.46,842.875l337.75,0c0,0 -28.833,-136.375 -156.5,-127.667c-127.666,8.709 -181.25,127.667 -181.25,127.667Z" style="fill:#333;fill-rule:nonzero;"/><ellipse cx="1684.33" cy="902.583" rx="16.458" ry="30.875" style="fill:#be7c5e;"/><ellipse cx="2030.29" cy="902.583" rx="16.458" ry="30.875" style="fill:#be7c5e;"/><path d="M1688.46,847.458l337.75,0c0,0 -28.833,-136.375 -156.5,-127.666c-127.666,8.708 -181.25,127.666 -181.25,127.666Z" style="fill-opacity:0.1;fill-rule:nonzero;"/><path d="M20.833,658.792l0,594.666l936.917,0c0,0 69.167,136.125 188.083,175.709c0,0 -37.958,-96.417 1.667,-175.709l260.833,0l0,-594.666l-1387.5,0Z" style="fill:url(#_Linear4);fill-rule:nonzero;"/><path d="M58.333,679.167l0,562.5l937.5,0c0,0 0,112.5 112.5,150c0,0 -37.5,-75 0,-150l262.5,0l0,-562.5l-1312.5,0Z" style="fill:#fff;fill-rule:nonzero;"/><rect x="170.833" y="791.667" width="750" height="75" style="fill:#3755be;"/><rect x="170.833" y="904.167" width="1012.5" height="75" style="fill:#3755be;"/><rect x="170.833" y="1016.67" width="900" height="75" style="fill:#3755be;"/><path d="M3208.33,1804.62l0,594.667l-936.875,0c0,0 -69.166,136.125 -188.125,175.708c0,0 37.959,-96.417 -1.666,-175.708l-260.834,0l0,-594.667l1387.5,0Z" style="fill:url(#_Linear5);fill-rule:nonzero;"/><path d="M3170.83,1825l0,562.5l-937.5,0c0,0 0,112.5 -112.5,150c0,0 37.5,-75 0,-150l-262.5,0l0,-562.5l1312.5,0Z" style="fill:#fff;fill-rule:nonzero;"/><rect x="2012.5" y="1937.5" width="750" height="75" style="fill:#3755be;"/><rect x="2012.5" y="2050" width="1012.5" height="75" style="fill:#3755be;"/><rect x="2012.5" y="2162.5" width="900" height="75" style="fill:#3755be;"/><g opacity="0.5"><rect x="350" y="2975" width="12.5" height="70.833" style="fill:#47e6b1;"/><path d="M391.667,3016.67l0,-12.5l-70.834,0l0,12.5l70.834,0Z" style="fill:#47e6b1;"/></g><g opacity="0.5"><rect x="2637.5" y="800" width="12.5" height="70.833" style="fill:#47e6b1;"/><path d="M2679.17,841.667l0,-12.5l-70.834,0l0,12.5l70.834,0Z" style="fill:#47e6b1;"/></g><g opacity="0.5"><rect x="2904.17" y="2550" width="12.5" height="70.833" style="fill:#47e6b1;"/><path d="M2945.83,2591.67l0,-12.5l-70.833,0l0,12.5l70.833,0Z" style="fill:#47e6b1;"/></g><g opacity="0.5"><rect x="2116.67" y="0" width="12.5" height="70.833" style="fill:#47e6b1;"/><path d="M2158.33,41.667l0,-12.5l-70.833,0l0,12.5l70.833,0Z" style="fill:#47e6b1;"/></g><path d="M1077.92,2967.96c-7.025,-3.155 -10.625,-11.148 -8.334,-18.5c0.178,-0.554 0.29,-1.127 0.334,-1.708c0.01,-0.164 0.016,-0.329 0.016,-0.493c0,-4.206 -3.461,-7.667 -7.667,-7.667c-2.416,0 -4.695,1.142 -6.141,3.077c-0.335,0.466 -0.615,0.969 -0.833,1.5c-3.155,7.024 -11.149,10.625 -18.5,8.333c-0.555,-0.178 -1.128,-0.29 -1.709,-0.333c-0.164,-0.011 -0.328,-0.016 -0.493,-0.016c-4.206,0 -7.667,3.461 -7.667,7.666c0,2.416 1.142,4.695 3.077,6.141c0.466,0.336 0.969,0.615 1.5,0.834c7.024,3.155 10.625,11.148 8.333,18.5c-0.178,0.554 -0.29,1.127 -0.333,1.708c-0.011,0.164 -0.016,0.329 -0.016,0.493c0,4.206 3.461,7.667 7.667,7.667c2.416,0 4.694,-1.142 6.141,-3.077c0.335,-0.466 0.615,-0.969 0.833,-1.5c3.155,-7.024 11.149,-10.625 18.5,-8.333c0.554,0.178 1.128,0.29 1.708,0.333c0.165,0.011 0.329,0.016 0.494,0.016c4.206,0 7.666,-3.461 7.666,-7.666c0,-2.416 -1.141,-4.695 -3.076,-6.141c-0.466,-0.336 -0.97,-0.615 -1.5,-0.834Z" style="fill:#4d8af0;fill-opacity:0.5;fill-rule:nonzero;"/><path d="M241.25,1645.67c-7.024,-3.155 -10.625,-11.149 -8.333,-18.5c0.178,-0.555 0.29,-1.128 0.333,-1.709c0.011,-0.164 0.016,-0.328 0.016,-0.493c0,-4.206 -3.461,-7.667 -7.667,-7.667c-2.416,0 -4.694,1.142 -6.141,3.077c-0.335,0.466 -0.615,0.969 -0.833,1.5c-3.155,7.024 -11.149,10.625 -18.5,8.333c-0.554,-0.178 -1.128,-0.29 -1.708,-0.333c-0.165,-0.011 -0.329,-0.016 -0.494,-0.016c-4.206,0 -7.666,3.461 -7.666,7.667c0,2.416 1.141,4.694 3.076,6.141c0.466,0.335 0.97,0.615 1.5,0.833c7.025,3.155 10.625,11.149 8.334,18.5c-0.178,0.554 -0.29,1.128 -0.334,1.708c-0.027,0.264 -0.041,0.528 -0.041,0.793c0,4.206 3.461,7.667 7.667,7.667c2.455,0 4.767,-1.18 6.208,-3.168c0.335,-0.466 0.615,-0.969 0.833,-1.5c3.155,-7.024 11.149,-10.625 18.5,-8.333c0.554,0.178 1.128,0.29 1.708,0.333c0.165,0.011 0.329,0.016 0.494,0.016c4.206,0 7.666,-3.461 7.666,-7.667c0,-2.416 -1.141,-4.694 -3.076,-6.141c-0.468,-0.411 -0.986,-0.761 -1.542,-1.041Z" style="fill:#4d8af0;fill-opacity:0.5;fill-rule:nonzero;"/><path d="M695.417,2008.17c-7.025,-3.155 -10.625,-11.149 -8.334,-18.5c0.178,-0.555 0.29,-1.128 0.334,-1.709c0.01,-0.164 0.016,-0.328 0.016,-0.493c0,-4.206 -3.461,-7.667 -7.667,-7.667c-2.416,0 -4.695,1.142 -6.141,3.077c-0.335,0.466 -0.615,0.969 -0.833,1.5c-3.155,7.024 -11.149,10.625 -18.5,8.333c-0.555,-0.178 -1.128,-0.29 -1.709,-0.333c-0.164,-0.011 -0.328,-0.016 -0.493,-0.016c-4.206,0 -7.667,3.461 -7.667,7.667c0,2.416 1.142,4.694 3.077,6.141c0.466,0.335 0.969,0.615 1.5,0.833c7.024,3.155 10.625,11.149 8.333,18.5c-0.178,0.554 -0.29,1.128 -0.333,1.708c-0.027,0.264 -0.041,0.528 -0.041,0.793c0,4.206 3.461,7.667 7.667,7.667c2.455,0 4.766,-1.18 6.207,-3.168c0.336,-0.466 0.615,-0.969 0.834,-1.5c3.155,-7.024 11.148,-10.625 18.5,-8.333c0.554,0.178 1.127,0.29 1.708,0.333c0.164,0.011 0.329,0.016 0.493,0.016c4.206,0 7.667,-3.461 7.667,-7.667c0,-2.416 -1.142,-4.694 -3.077,-6.141c-0.468,-0.411 -0.986,-0.761 -1.541,-1.041Z" style="fill:#4d8af0;fill-opacity:0.5;fill-rule:nonzero;"/><path d="M3287.08,2991.5c-7.024,-3.155 -10.625,-11.149 -8.333,-18.5c0.178,-0.554 0.29,-1.128 0.333,-1.708c0.011,-0.165 0.016,-0.329 0.016,-0.494c0,-4.206 -3.461,-7.666 -7.666,-7.666c-2.416,0 -4.695,1.141 -6.141,3.076c-0.336,0.466 -0.615,0.97 -0.834,1.5c-3.155,7.025 -11.148,10.625 -18.5,8.334c-0.554,-0.178 -1.127,-0.29 -1.708,-0.334c-0.164,-0.01 -0.329,-0.016 -0.493,-0.016c-4.206,0 -7.667,3.461 -7.667,7.667c0,2.416 1.142,4.695 3.077,6.141c0.466,0.335 0.969,0.615 1.5,0.833c7.024,3.155 10.625,11.149 8.333,18.5c-0.178,0.555 -0.29,1.128 -0.333,1.709c-0.028,0.263 -0.041,0.528 -0.041,0.792c0,4.206 3.46,7.667 7.666,7.667c2.456,0 4.767,-1.18 6.208,-3.168c0.335,-0.466 0.615,-0.969 0.833,-1.5c3.155,-7.024 11.149,-10.625 18.5,-8.333c0.555,0.178 1.128,0.29 1.709,0.333c0.164,0.011 0.328,0.016 0.493,0.016c4.206,0 7.667,-3.461 7.667,-7.666c0,-2.416 -1.142,-4.695 -3.077,-6.141c-0.468,-0.411 -0.986,-0.761 -1.542,-1.042Z" style="fill:#4d8af0;fill-opacity:0.5;fill-rule:nonzero;"/><circle cx="25" cy="2745.83" r="25" style="fill:#f55f44;fill-opacity:0.5;"/><circle cx="2845.83" cy="266.667" r="25" style="fill:#4d8af0;fill-opacity:0.5;"/><circle cx="141.667" cy="316.667" r="25" style="fill:#47e6b1;fill-opacity:0.5;"/><circle cx="2870.83" cy="1441.67" r="25" style="fill:#f55f44;fill-opacity:0.5;"/><circle cx="2650.81" cy="1178.53" r="200.486" style="fill:#fff;fill-opacity:0.1;"/><g><path d="M2650.81,1218.59c11.019,0 20.449,-3.923 28.295,-11.765c7.844,-7.843 11.767,-17.277 11.767,-28.296l0,-64.101c0,-11.018 -3.92,-20.449 -11.767,-28.295c-7.846,-7.845 -17.276,-11.77 -28.295,-11.77c-11.017,0 -20.449,3.925 -28.295,11.77c-7.846,7.845 -11.768,17.277 -11.768,28.295l0,64.101c0,11.018 3.924,20.453 11.768,28.296c7.845,7.842 17.278,11.765 28.295,11.765Z" style="fill:#fff;fill-rule:nonzero;"/><path d="M2720.54,1156.87c-1.581,-1.586 -3.463,-2.379 -5.633,-2.379c-2.168,0 -4.046,0.793 -5.634,2.379c-1.584,1.586 -2.377,3.464 -2.377,5.633l0,16.026c0,15.442 -5.489,28.65 -16.466,39.626c-10.972,10.976 -24.182,16.464 -39.624,16.464c-15.442,0 -28.65,-5.488 -39.627,-16.464c-10.975,-10.973 -16.462,-24.183 -16.462,-39.626l0,-16.026c0,-2.169 -0.793,-4.047 -2.379,-5.633c-1.586,-1.586 -3.462,-2.379 -5.633,-2.379c-2.172,0 -4.05,0.793 -5.635,2.379c-1.587,1.586 -2.38,3.464 -2.38,5.633l0,16.026c0,18.447 6.157,34.494 18.467,48.139c12.311,13.646 27.522,21.47 45.636,23.472l0,16.529l-32.051,0c-2.17,0 -4.048,0.794 -5.634,2.38c-1.586,1.585 -2.379,3.463 -2.379,5.633c0,2.167 0.793,4.049 2.379,5.634c1.586,1.585 3.464,2.38 5.634,2.38l80.126,0c2.169,0 4.05,-0.795 5.633,-2.38c1.588,-1.584 2.382,-3.466 2.382,-5.634c0,-2.169 -0.794,-4.048 -2.382,-5.633c-1.583,-1.586 -3.463,-2.38 -5.633,-2.38l-32.047,0l0,-16.529c18.11,-2.002 33.321,-9.826 45.632,-23.472c12.312,-13.645 18.471,-29.692 18.471,-48.139l0,-16.026c0,-2.169 -0.795,-4.045 -2.384,-5.633Z" style="fill:#fff;fill-rule:nonzero;"/></g><circle cx="335.732" cy="2126.64" r="200.486" style="fill:#fff;fill-opacity:0.1;"/><path d="M287.852,2046.98c-15.026,-8.619 -27.208,-1.558 -27.208,15.758l0,127.788c0,17.334 12.182,24.386 27.208,15.775l111.693,-64.056c15.031,-8.622 15.031,-22.591 0,-31.211l-111.693,-64.054Z" style="fill:#fff;fill-rule:nonzero;"/><circle cx="550.842" cy="367.011" r="200.486" style="fill:#fff;fill-opacity:0.1;"/><g><path d="M554.328,423.089c-5.609,-0.086 -11.017,-2.103 -15.313,-5.71l-28.289,-24.915c-4.452,-4.159 -11.259,-4.489 -16.091,-0.778l-40.228,29.586l0,19.206c-0.289,5.152 3.654,9.562 8.806,9.851c0.265,0.015 0.531,0.019 0.797,0.011l142.485,0c5.709,0 11.419,-4.153 11.419,-9.862l0,-50.35l-51.128,29.587c-3.759,2.26 -8.072,3.428 -12.458,3.374Z" style="fill:#fff;fill-rule:nonzero;"/><circle cx="552.252" cy="361.32" r="11.42" style="fill:#fff;"/><path d="M644.906,303.963c-1.657,-2.258 -4.216,-3.679 -7.007,-3.893l-141.447,-16.351c-2.758,-0.231 -5.51,0.503 -7.786,2.077c-2.016,1.75 -3.386,4.126 -3.893,6.748l-2.336,20.243l124.058,0c11.828,0.269 21.391,9.718 21.801,21.542l0,91.615c0,-0.519 2.336,-1.038 3.374,-2.076c2.149,-1.688 3.395,-4.275 3.374,-7.008l12.198,-105.371c0.27,-2.722 -0.573,-5.436 -2.336,-7.526Z" style="fill:#fff;fill-rule:nonzero;"/><path d="M606.495,323.168l-142.485,0c-5.71,0 -9.603,5.45 -9.603,11.16l0,73.968l34.259,-24.916c8.696,-6.451 20.727,-5.909 28.808,1.298l28.549,24.915c4.305,3.655 10.454,4.176 15.312,1.298l56.579,-32.961l0,-43.602c-0.393,-6.093 -5.319,-10.907 -11.419,-11.16Zm-54.243,59.952c-12.04,0 -21.801,-9.76 -21.801,-21.801c0,-12.04 9.76,-21.801 21.801,-21.801c12.04,0 21.801,9.761 21.801,21.801c0,12.041 -9.761,21.801 -21.801,21.801Z" style="fill:#fff;fill-rule:nonzero;"/></g><circle cx="2973.78" cy="577.687" r="200.486" style="fill:#fff;fill-opacity:0.1;"/><g><path d="M3012.85,496.306l0,31.38l31.379,0l-31.379,-31.38Z" style="fill:#fff;fill-rule:nonzero;"/><path d="M3006.18,534.353l0,-39.999l-104.82,0l0,166.666l144.834,0l0,-126.667l-40.014,0Zm-84.821,24.121l63.848,0l0,6.667l-63.848,0l0,-6.667Zm104.821,72.567l-104.821,0l0,-6.667l104.821,0l0,6.667Zm0,-21.966l-104.821,0l0,-6.667l104.821,0l0,6.667Zm0,-21.967l-104.821,0l0,-6.667l104.821,0l0,6.667Z" style="fill:#fff;fill-rule:nonzero;"/></g><defs><linearGradient id="_Linear1" x1="0" y1="0" x2="1" y2="0" gradientUnits="userSpaceOnUse" gradientTransform="matrix(1178.74,-2802.39,2802.39,1178.74,1019.86,2938.67)"><stop offset="0" style="stop-color:#808080;stop-opacity:0.12"/><stop offset="0.54" style="stop-color:#808080;stop-opacity:0.06"/><stop offset="1" style="stop-color:#808080;stop-opacity:0.05"/></linearGradient><linearGradient id="_Linear2" x1="0" y1="0" x2="1" y2="0" gradientUnits="userSpaceOnUse" gradientTransform="matrix(5.05932e-14,-826.25,826.25,5.05932e-14,1367.54,2517)"><stop offset="0" style="stop-color:#808080;stop-opacity:0.12"/><stop offset="0.54" style="stop-color:#808080;stop-opacity:0.06"/><stop offset="1" style="stop-color:#808080;stop-opacity:0.05"/></linearGradient><linearGradient id="_Linear3" x1="0" y1="0" x2="1" y2="0" gradientUnits="userSpaceOnUse" gradientTransform="matrix(5.05932e-14,-826.25,826.25,5.05932e-14,1857.46,1430.42)"><stop offset="0" style="stop-color:#808080;stop-opacity:0.12"/><stop offset="0.54" style="stop-color:#808080;stop-opacity:0.06"/><stop offset="1" style="stop-color:#808080;stop-opacity:0.05"/></linearGradient><linearGradient id="_Linear4" x1="0" y1="0" x2="1" y2="0" gradientUnits="userSpaceOnUse" gradientTransform="matrix(4.71719e-14,-770.375,770.375,4.71719e-14,714.583,1429.17)"><stop offset="0" style="stop-color:#808080;stop-opacity:0.12"/><stop offset="0.54" style="stop-color:#808080;stop-opacity:0.06"/><stop offset="1" style="stop-color:#808080;stop-opacity:0.05"/></linearGradient><linearGradient id="_Linear5" x1="0" y1="0" x2="1" y2="0" gradientUnits="userSpaceOnUse" gradientTransform="matrix(4.71719e-14,-770.375,770.375,4.71719e-14,2514.58,2575)"><stop offset="0" style="stop-color:#808080;stop-opacity:0.12"/><stop offset="0.54" style="stop-color:#808080;stop-opacity:0.06"/><stop offset="1" style="stop-color:#808080;stop-opacity:0.05"/></linearGradient></defs></svg>