<?xml version="1.0" encoding="UTF-8" standalone="no"?><!DOCTYPE svg PUBLIC "-//W3C//DTD SVG 1.1//EN" "http://www.w3.org/Graphics/SVG/1.1/DTD/svg11.dtd"><svg width="100%" height="100%" viewBox="0 0 2134 2119" version="1.1" xmlns="http://www.w3.org/2000/svg" xmlns:xlink="http://www.w3.org/1999/xlink" xml:space="preserve" xmlns:serif="http://www.serif.com/" style="fill-rule:evenodd;clip-rule:evenodd;stroke-linejoin:round;stroke-miterlimit:1.41421;"><rect id="Artboard1" x="0" y="0" width="2133.33" height="2118.36" style="fill:none;"/><g><path d="M1600,800c164.507,-0.18 299.82,-135.493 300,-300l0,-400c0,-18.286 -15.047,-33.333 -33.333,-33.333l-333.334,0c-127.944,0.155 -233.178,105.389 -233.333,233.333l0,200c0.18,164.507 135.493,299.82 300,300Zm-66.667,-666.667l300,0l0,133.334l-463.312,0c15.881,-77.254 84.444,-133.231 163.312,-133.334Zm-166.666,200l466.666,0l0,166.667c0,128.003 -105.33,233.333 -233.333,233.333c-128.003,0 -233.333,-105.33 -233.333,-233.333l0,-166.667Z" style="fill:#3855be;fill-rule:nonzero;"/><path d="M1766.67,833.333l-333.334,0c-164.507,0.181 -299.819,135.493 -300,300l0,900c0,18.286 15.048,33.334 33.334,33.334l866.666,0c18.286,0 33.334,-15.048 33.334,-33.334l0,-900c-0.181,-164.507 -135.493,-299.819 -300,-300Zm-203.163,233.334l72.992,0l62.083,620.929l-98.579,98.604l-98.6,-98.604l62.104,-620.929Zm120.613,-166.667l-40,100l-88.213,0l-40,-100l168.213,0Zm315.883,1100l-800,0l0,-866.667c0.155,-127.944 105.389,-233.178 233.333,-233.333l10.763,0l55.254,138.15l-65.854,658.517c-0.985,9.942 2.543,19.819 9.604,26.887l133.333,133.333c12.93,12.926 34.204,12.926 47.134,0l133.333,-133.333c7.061,-7.068 10.589,-16.945 9.604,-26.887l-65.854,-658.517l55.254,-138.15l10.763,0c127.944,0.155 233.178,105.389 233.333,233.333l0,866.667Z" style="fill:#3855be;fill-rule:nonzero;"/><path d="M1600,666.667c73.117,-0.073 133.26,-60.217 133.333,-133.334l-66.666,0c0,36.573 -30.095,66.667 -66.667,66.667c-36.572,0 -66.667,-30.094 -66.667,-66.667l-66.666,0c0.073,73.117 60.216,133.261 133.333,133.334Z" style="fill:#3855be;fill-rule:nonzero;"/><path d="M1011.67,1517.67c14.099,-19.764 21.681,-43.447 21.681,-67.725c0,-63.974 -52.643,-116.617 -116.617,-116.617c-0.021,0 -0.043,0 -0.064,0l-316.667,0l0,-200c0,-73.144 -60.189,-133.333 -133.333,-133.333c-73.145,0 -133.334,60.189 -133.334,133.333l0,84.279c-0.184,85.963 -18.798,170.895 -54.583,249.055l-178.75,0c-18.286,0 -33.333,15.047 -33.333,33.333l0,533.333c0,18.286 15.047,33.334 33.333,33.334l783.333,0c0.022,0 0.043,0 0.065,0c63.974,0 116.616,-52.643 116.616,-116.617c0,-24.278 -7.581,-47.961 -21.681,-67.725c34.173,-21.242 55.013,-58.734 55.013,-98.971c0,-24.269 -7.581,-47.942 -21.679,-67.696c34.174,-21.251 55.012,-58.749 55.012,-98.991c0,-40.243 -20.838,-77.741 -55.012,-98.992Zm-878.334,15.658l133.334,0l0,466.667l-133.334,0l0,-466.667Zm816.667,133.334l-50,0c-18.286,0 -33.333,15.047 -33.333,33.333c0,18.286 15.047,33.333 33.333,33.333l16.667,0c27.429,0 50,22.571 50,50c0,27.43 -22.571,50 -50,50l-50,0c-18.286,0 -33.334,15.048 -33.334,33.334c0,18.286 15.048,33.333 33.334,33.333l16.666,0c27.43,0 50,22.571 50,50c0,27.429 -22.57,50 -50,50l-550,0l0,-492.254c43.749,-90.466 66.538,-189.644 66.667,-290.134l0,-84.279c0,-36.572 30.094,-66.666 66.667,-66.666c36.572,0 66.666,30.094 66.666,66.666l0,233.334c0,18.286 15.048,33.333 33.334,33.333l350,0c27.429,0 50,22.571 50,50c0,27.429 -22.571,50 -50,50l-16.667,0c-18.286,0 -33.333,15.047 -33.333,33.333c0,18.286 15.047,33.334 33.333,33.334l50,0c27.429,0 50,22.57 50,50c0,27.429 -22.571,50 -50,50Z" style="fill:#3855be;fill-rule:nonzero;"/><path d="M201.563,623.308c-4.388,13.821 0.748,28.991 12.629,37.304l123.896,86.888l-47.255,141.988c-1.129,3.393 -1.704,6.946 -1.704,10.523c0,18.286 15.047,33.333 33.333,33.333c6.921,0 13.672,-2.155 19.313,-6.165l124.892,-88.604l124.904,88.604c5.64,4.01 12.392,6.165 19.313,6.165c18.286,0 33.333,-15.047 33.333,-33.333c0,-3.577 -0.575,-7.13 -1.704,-10.523l-47.267,-141.988l123.896,-86.879c8.886,-6.235 14.189,-16.432 14.189,-27.288c0,-18.285 -15.046,-33.332 -33.331,-33.333l-154.167,0l-47.525,-143.783c-4.508,-13.606 -17.309,-22.85 -31.641,-22.85c-14.333,0 -27.134,9.244 -31.642,22.85l-47.525,143.783l-154.167,0c-14.504,-0.001 -27.417,9.473 -31.77,23.308Zm210.025,43.359c14.346,0.01 27.158,-9.256 31.641,-22.884l23.438,-70.9l23.437,70.9c4.483,13.628 17.296,22.894 31.642,22.884l72.687,0l-57.766,40.529c-12.035,8.42 -17.141,23.856 -12.5,37.792l22.916,68.879l-61.1,-43.359c-11.531,-8.191 -27.077,-8.191 -38.608,0l-61.125,43.359l22.917,-68.867c4.64,-13.935 -0.466,-29.372 -12.5,-37.792l-57.767,-40.541l72.688,0Z" style="fill:#3855be;fill-rule:nonzero;"/><rect x="433.333" y="233.333" width="66.667" height="133.333" style="fill:#3855be;"/><path d="M160.253,346.452l-47.135,47.135l94.272,94.272l47.135,-47.135l-94.272,-94.272Z" style="fill:#3855be;"/><path d="M773.082,346.449l-94.272,94.272l47.135,47.135l94.272,-94.272l-47.135,-47.135Z" style="fill:#3855be;"/><circle cx="1500" cy="433.333" r="33.333" style="fill:#3855be;"/><circle cx="1700" cy="433.333" r="33.333" style="fill:#3855be;"/></g></svg>