<?xml version="1.0" encoding="UTF-8" standalone="no"?><!DOCTYPE svg PUBLIC "-//W3C//DTD SVG 1.1//EN" "http://www.w3.org/Graphics/SVG/1.1/DTD/svg11.dtd"><svg width="100%" height="100%" viewBox="0 0 1667 1667" version="1.1" xmlns="http://www.w3.org/2000/svg" xmlns:xlink="http://www.w3.org/1999/xlink" xml:space="preserve" xmlns:serif="http://www.serif.com/" style="fill-rule:evenodd;clip-rule:evenodd;stroke-linejoin:round;stroke-miterlimit:1.41421;"><g><path d="M833.342,1516.15c-157.84,0 -315.691,-28.701 -436.12,-86.1c-240.857,-114.798 -240.857,-300.923 -0.003,-415.717c120.428,-57.399 278.269,-86.096 436.109,-86.096c157.841,0 315.688,28.697 436.117,86.099c240.857,114.794 240.857,300.916 0,415.717c-120.429,57.399 -278.262,86.097 -436.103,86.097Z" style="fill:#f9fdff;fill-rule:nonzero;"/><path d="M721.055,1321.02l328.659,-189.75c3.342,-1.933 3.345,-5.065 0.003,-6.998l-30.406,-17.592c-3.342,-1.933 -8.76,-1.937 -12.105,-0.007l-328.747,189.753c-3.345,1.93 -3.345,5.062 0,6.991l30.484,17.603c3.345,1.93 8.766,1.93 12.112,0Z" style="fill:#afd3f0;fill-rule:nonzero;"/><path d="M1211.83,1334c31.365,14.95 82.22,14.95 113.588,0c31.365,-14.95 31.365,-39.188 0,-54.138c-31.368,-14.95 -82.223,-14.95 -113.588,0c-31.368,14.95 -31.368,39.188 0,54.138Z" style="fill:#afd3f0;fill-rule:nonzero;"/><path d="M378.763,1312.42l28.397,-16.397c0,0 23.426,-17.215 35.028,-49.184c8.777,-24.189 7.567,-42.592 1.272,-51.813c-7.742,-11.35 -27.775,-9.368 -28.572,14.562c-1.566,47.118 -15.313,79.717 -36.125,102.832Z" style="fill:#c4e4f8;fill-rule:nonzero;"/><path d="M378.763,1314.17c-0.552,0 -1.098,-0.262 -1.437,-0.755c-0.549,-0.794 -0.353,-1.881 0.441,-2.429c65.704,-45.466 52.977,-108.807 52.84,-109.443c-0.202,-0.94 0.399,-1.873 1.339,-2.076c0.951,-0.21 1.874,0.398 2.08,1.339c0.14,0.657 13.419,66.214 -54.267,113.053c-0.304,0.21 -0.65,0.311 -0.996,0.311Z" style="fill:#fff;fill-rule:nonzero;"/><path d="M321.969,1345.21c0,0 -9.885,-8.05 -7.494,-18.945c2.39,-10.899 8.77,-18.736 -2.192,-32.791c-10.962,-14.062 -13.793,-32.791 -0.902,-42.949c9.966,-7.854 25.513,3.276 31.131,-17.533c4.096,-15.17 2.698,-48.758 22.052,-59.933c19.351,-11.175 31.368,5.649 28.394,28.429c-2.657,20.382 -6.4,40.009 -3.513,45.35c5.645,10.444 15.348,9.042 14.908,28.19c-0.412,17.831 -17.271,32.588 -17.271,32.588l-65.113,37.594Z" style="fill:#d9eefb;fill-rule:nonzero;"/><path d="M354.448,1328.21c-0.873,0 -1.625,-0.65 -1.733,-1.538c-5.002,-41.417 6.917,-112.927 16.778,-134.183c0.405,-0.877 1.437,-1.265 2.321,-0.85c0.877,0.406 1.258,1.444 0.849,2.318c-9.686,20.889 -21.263,92.71 -16.477,132.299c0.115,0.954 -0.57,1.825 -1.528,1.94l-0.21,0.014Z" style="fill:#fff;fill-rule:nonzero;"/><path d="M353.501,1295.96l-0.765,-0.178c-12.129,-5.928 -19.816,-26.992 -20.138,-27.883c-0.325,-0.906 0.144,-1.909 1.053,-2.237c0.908,-0.326 1.908,0.143 2.237,1.055c0.073,0.203 7.529,20.616 18.386,25.926c0.867,0.423 1.223,1.468 0.8,2.338c-0.304,0.619 -0.926,0.979 -1.573,0.979Z" style="fill:#fff;fill-rule:nonzero;"/><path d="M353.305,1309.92c-0.692,0 -1.349,-0.416 -1.625,-1.097c-0.356,-0.895 0.077,-1.912 0.975,-2.272c20.41,-8.18 33.134,-32.501 33.26,-32.742c0.443,-0.86 1.496,-1.202 2.352,-0.755c0.86,0.44 1.195,1.496 0.755,2.356c-0.542,1.048 -13.461,25.726 -35.066,34.385l-0.651,0.125Z" style="fill:#fff;fill-rule:nonzero;"/><path d="M1066.84,1121.89c0,0 -15.286,-24.719 -16.761,-51.631c-1.475,-26.915 4.432,-38.083 12.535,-41.292c8.102,-3.205 8.717,6.67 12.901,12.525c4.191,5.854 12.657,2.502 15.782,-15.699c3.129,-18.197 14.604,-49.041 38.342,-54.927c26.219,-6.495 12.154,24.258 5.575,36.258c-6.585,12 -11.717,28.341 -7.375,32.791c4.338,4.45 11.066,-3.772 17.522,3.849c7.792,9.2 -16.432,42.277 -30.33,50.303l-48.191,27.823Z" style="fill:#d9eefb;fill-rule:nonzero;"/><path d="M1087.77,1111.48l-0.09,-0.004c-0.965,-0.049 -1.703,-0.873 -1.654,-1.835c3.849,-71.573 38.779,-121.145 39.132,-121.638c0.566,-0.786 1.657,-0.965 2.44,-0.402c0.783,0.559 0.964,1.654 0.402,2.437c-0.347,0.485 -34.693,49.278 -38.485,119.789c-0.046,0.929 -0.818,1.653 -1.745,1.653Z" style="fill:#fff;fill-rule:nonzero;"/><path d="M1089.77,1090.84l-0.85,-0.216c-9.787,-5.418 -15.208,-21.494 -15.435,-22.176c-0.305,-0.915 0.192,-1.905 1.111,-2.209c0.912,-0.314 1.909,0.196 2.209,1.108c0.049,0.154 5.219,15.464 13.811,20.218c0.842,0.465 1.15,1.528 0.681,2.373c-0.318,0.577 -0.915,0.902 -1.527,0.902Z" style="fill:#fff;fill-rule:nonzero;"/><path d="M1091.49,1080.25c-0.783,0 -1.496,-0.525 -1.696,-1.318c-0.237,-0.941 0.329,-1.888 1.266,-2.122c25.23,-6.383 33.968,-19.606 34.052,-19.735c0.518,-0.811 1.605,-1.045 2.412,-0.532c0.815,0.518 1.056,1.594 0.538,2.405c-0.374,0.591 -9.451,14.499 -36.142,21.246l-0.43,0.056Z" style="fill:#fff;fill-rule:nonzero;"/><path d="M686.6,1067.54c0,0 -33.518,-8.172 -35.262,-70.933c-1.884,-67.745 8.214,-146.777 -31.319,-153.202c-39.53,-6.432 -61.713,42.043 -61.206,98.369c0.444,49.457 20.361,156.767 127.783,177.799l0.004,-52.033Z" style="fill:#1bb99b;fill-rule:nonzero;"/><path d="M686.6,1113.12l-0.315,-0.028c-24.174,-4.401 -43.847,-17.698 -58.475,-39.52c-43.427,-64.784 -29.743,-185.713 -25.251,-206.839c0.199,-0.944 1.125,-1.542 2.073,-1.346c0.943,0.203 1.545,1.129 1.345,2.073c-4.442,20.888 -18.008,140.394 24.738,204.165c14.083,21.008 32.99,33.801 56.196,38.027c0.951,0.175 1.58,1.087 1.405,2.035c-0.154,0.842 -0.888,1.433 -1.716,1.433Z" style="fill:#fff;fill-rule:nonzero;"/><path d="M686.603,1274.25c-34.657,4.694 -90.948,4.61 -123.375,-20.962c-32.424,-25.577 -25.677,-47.615 -13.206,-56.808c12.472,-9.197 23.308,-19.704 1.849,-40.107c-21.458,-20.403 -55.948,-53.19 -67.098,-102.378c-11.154,-49.185 -5.663,-79.924 16.285,-90.176c21.298,-9.941 26.908,5.855 39.943,38.436c13.034,32.588 42.375,4.653 67.455,14.824c25.083,10.169 24.097,30.306 25.681,47.615c1.58,17.306 9.864,22.092 24.062,22.092c14.202,0 28.394,8.196 28.397,24.59l0.007,162.874Z" style="fill:#58c2b1;fill-rule:nonzero;"/><path d="M686.603,1217.14l-0.471,-0.066c-1.5,-0.42 -37.342,-10.85 -89.505,-58.769c-55.571,-51.048 -81.811,-127.58 -82.066,-128.346c-0.311,-0.916 0.182,-1.908 1.098,-2.216c0.915,-0.301 1.905,0.185 2.212,1.097c0.255,0.763 26.226,76.467 81.119,126.892c51.467,47.276 87.725,57.874 88.085,57.979c0.93,0.262 1.468,1.224 1.21,2.157c-0.217,0.765 -0.916,1.272 -1.682,1.272Z" style="fill:#fff;fill-rule:nonzero;"/><path d="M611.14,1170.51c-0.699,0 -1.36,-0.422 -1.629,-1.111c-11.217,-28.827 -13.758,-90.448 -13.859,-93.056c-0.039,-0.965 0.713,-1.776 1.678,-1.817c0.895,0.01 1.775,0.713 1.814,1.681c0.024,0.629 2.621,63.645 13.625,91.923c0.35,0.898 -0.098,1.912 -0.996,2.262l-0.633,0.118Z" style="fill:#fff;fill-rule:nonzero;"/><path d="M610.847,1211.96c-5.432,0 -9.19,-0.43 -9.644,-0.482c-0.958,-0.112 -1.643,-0.983 -1.528,-1.944c0.112,-0.954 0.975,-1.664 1.94,-1.524c0.325,0.028 32.847,3.705 47.786,-11.524c0.671,-0.696 1.783,-0.696 2.472,-0.028c0.688,0.674 0.699,1.786 0.024,2.471c-10.934,11.147 -29.662,13.031 -41.05,13.031Z" style="fill:#fff;fill-rule:nonzero;"/><path d="M1040.63,398.728l-296.299,171.067c-8.357,4.828 -15.135,16.562 -15.135,26.216l0,702.826c0,9.655 6.778,13.566 15.135,8.739l296.302,-171.064c8.361,-4.827 15.136,-16.568 15.136,-26.216l-0.004,-702.829c0,-9.651 -6.774,-13.566 -15.135,-8.739Z" style="fill:#3e63ae;fill-rule:nonzero;"/><path d="M744.327,569.795l296.299,-171.067c7.477,-4.317 13.667,-1.632 14.901,5.883c-1.136,-9.008 -7.348,-19.001 -14.901,-23.36l-12.322,-7.117c-8.361,-4.827 -21.916,-4.827 -30.274,0l-296.298,171.067c-4.177,2.412 -7.963,6.554 -10.703,11.298l42.599,24.594c2.737,-4.744 6.522,-8.886 10.699,-11.298Z" style="fill:#6396d0;fill-rule:nonzero;"/><path d="M686.603,1274.25c0,9.651 6.775,21.389 15.136,26.212l12.325,7.117c7.557,4.362 19.326,4.743 27.698,1.216c-7.135,2.706 -12.57,-1.314 -12.57,-9.955l0,-702.826c0,-4.827 1.695,-10.175 4.436,-14.918l-42.599,-24.594c-2.737,4.743 -4.433,10.091 -4.433,14.918l0.007,702.83Z" style="fill:#354ea2;fill-rule:nonzero;"/><path d="M752.475,663.463l280.006,-161.661c5.016,-2.898 9.085,-0.549 9.085,5.243l0.004,520.067c0,5.792 -4.073,12.835 -9.085,15.729l-280.01,161.665c-5.012,2.894 -9.081,0.545 -9.081,-5.243l0,-520.071c0,-5.792 4.065,-12.831 9.081,-15.729Z" style="fill:#fff;fill-rule:nonzero;"/><path d="M892.478,510.922c-2.939,1.698 -5.323,5.826 -5.323,9.224c0,3.394 2.384,4.771 5.323,3.073c2.943,-1.696 5.327,-5.827 5.327,-9.221c0,-3.395 -2.384,-4.772 -5.327,-3.076Z" style="fill:#25306f;fill-rule:nonzero;"/><path d="M892.485,1148.64c-11.612,6.704 -21.021,23.007 -21.021,36.416c0,13.405 9.409,18.84 21.021,12.136c11.609,-6.701 21.022,-23.004 21.022,-36.412c0,-13.405 -9.413,-18.841 -21.022,-12.14Z" style="fill:#354ea2;fill-rule:nonzero;"/><path d="M842.189,565.021c-5.883,3.397 -10.647,11.653 -10.647,18.445c0,6.792 4.764,9.546 10.647,6.149c5.883,-3.395 10.647,-11.651 10.647,-18.442c0,-6.792 -4.767,-9.547 -10.647,-6.152Z" style="fill:#25306f;fill-rule:nonzero;"/><path d="M868.227,562.721c0,4.526 3.387,6.239 7.568,3.827l70.059,-40.446c4.177,-2.415 7.567,-8.043 7.567,-12.569c-0.003,-4.527 -3.39,-6.24 -7.571,-3.828l-70.055,40.449c-4.181,2.412 -7.568,8.036 -7.568,12.567Z" style="fill:#25306f;fill-rule:nonzero;"/><path d="M710.163,685.97c4.705,2.716 8.522,9.322 8.522,14.754c0,5.432 -3.817,7.634 -8.522,4.918c-4.705,-2.716 -8.519,-9.322 -8.519,-14.754c0,-5.432 3.814,-7.634 8.519,-4.918Z" style="fill:#25306f;fill-rule:nonzero;"/><path d="M710.163,751.597c4.705,2.72 8.522,9.326 8.522,14.758c0,5.432 -3.817,7.634 -8.522,4.918c-4.705,-2.716 -8.519,-9.322 -8.519,-14.754c0,-5.436 3.814,-7.634 8.519,-4.922Z" style="fill:#25306f;fill-rule:nonzero;"/><path d="M707.534,687.284c4.705,2.716 8.519,9.323 8.519,14.755c0,5.432 -3.814,7.637 -8.519,4.918c-4.708,-2.716 -8.518,-9.323 -8.518,-14.755c0,-5.431 3.813,-7.634 8.518,-4.918Z" style="fill:#3e63ae;fill-rule:nonzero;"/><path d="M707.534,752.915c4.705,2.716 8.519,9.322 8.519,14.758c0,5.432 -3.814,7.634 -8.519,4.918c-4.708,-2.72 -8.518,-9.326 -8.518,-14.758c0,-5.432 3.813,-7.634 8.518,-4.918Z" style="fill:#3e63ae;fill-rule:nonzero;"/><path d="M1098.36,523.488c0,-5.792 -4.066,-8.138 -9.085,-5.244l-33.514,19.351l-246.492,142.314c-5.016,2.894 -9.082,9.937 -9.082,15.729l0.004,520.067c0,5.792 4.065,8.138 9.081,5.243l246.576,-142.366l33.43,-19.295c5.016,-2.897 9.085,-9.941 9.085,-15.729l-0.003,-520.07Z" style="fill:#fff;fill-rule:nonzero;"/><path d="M805.214,1223.94c-1.164,0 -2.258,-0.279 -3.233,-0.842c-2.279,-1.318 -3.534,-3.943 -3.534,-7.393l-0.003,-520.067c0,-6.445 4.373,-14.02 9.955,-17.243l246.492,-142.313l1.747,3.027l-246.491,142.313c-4.45,2.57 -8.208,9.078 -8.208,14.216l0.004,520.067c0,2.118 0.65,3.709 1.786,4.366c1.136,0.654 2.838,0.419 4.673,-0.636l246.576,-142.363l1.748,3.024l-246.576,142.362c-1.709,0.99 -3.387,1.482 -4.936,1.482Z" style="fill:#d9eefb;fill-rule:nonzero;"/><path d="M1056.73,1080.1l-1.748,-3.024l33.431,-19.298c4.449,-2.573 8.21,-9.081 8.21,-14.216l-0.003,-520.07c0,-2.119 -0.654,-3.709 -1.786,-4.363c-1.129,-0.653 -2.839,-0.426 -4.677,0.633l-33.515,19.351l-1.747,-3.027l33.514,-19.351c2.985,-1.723 5.89,-1.954 8.172,-0.636c2.276,1.318 3.534,3.943 3.534,7.393l0.004,520.07c0,6.442 -4.373,14.017 -9.959,17.239l-33.43,19.299Z" style="fill:#d9eefb;fill-rule:nonzero;"/><path d="M1329.35,453.358l-5.775,3.332c0.462,-2.126 0.79,-4.233 0.79,-6.264c0,-11.692 -8.211,-16.432 -18.337,-10.584c-2.946,1.698 -5.687,4.159 -8.155,7.008l0.004,-0.087c0,-15.74 -11.049,-22.123 -24.685,-14.251c-13.632,7.871 -24.685,27.012 -24.685,42.756c0,0.8 0.046,1.559 0.105,2.314c-2.884,-0.517 -6.327,0.192 -10.028,2.331c-10.13,5.848 -18.338,20.064 -18.338,31.76c0,1.608 0.172,3.073 0.465,4.408l-3.076,1.775c-8.361,4.828 -15.135,14.244 -15.135,21.036c0,6.788 6.774,8.382 15.135,3.555l111.715,-64.498c8.357,-4.827 15.135,-14.244 15.135,-21.036c0,-6.788 -6.778,-8.382 -15.135,-3.555Z" style="fill:#d9eefb;fill-rule:nonzero;"/><path d="M949.276,644.346c31.368,-18.11 56.794,-3.429 56.794,32.791c0,36.216 -25.426,80.259 -56.794,98.369c-31.365,18.11 -56.794,3.429 -56.794,-32.791c0,-36.216 25.429,-80.262 56.794,-98.369Z" style="fill:#afd3f0;fill-rule:nonzero;"/><path d="M949.276,672.852c10.175,-5.88 18.428,-1.115 18.428,10.636c0,11.748 -8.253,26.038 -18.428,31.914c-10.175,5.872 -18.425,1.111 -18.425,-10.64c0,-11.749 8.25,-26.038 18.425,-31.91Z" style="fill:#d9eefb;fill-rule:nonzero;"/><path d="M985.192,735.504c0,-19.305 -13.556,-27.128 -30.275,-17.477l-10.451,6.033c-16.715,9.651 -30.271,33.126 -30.271,52.432l0,5.194c9.665,3.209 21.83,1.471 35.081,-6.18c13.629,-7.868 26.128,-20.637 35.916,-35.524l0,-4.478Z" style="fill:#d9eefb;fill-rule:nonzero;"/><path d="M839.386,855.38l73.083,-42.193c3.345,-1.933 6.054,-0.367 6.054,3.495l0,2.412c0,3.863 -2.709,8.557 -6.054,10.487l-73.083,42.193c-3.342,1.933 -6.054,0.367 -6.054,-3.495l0,-2.412c0,-3.863 2.712,-8.557 6.054,-10.487Z" style="fill:#6396d0;fill-rule:nonzero;"/><path d="M836.359,906.313l221.122,-127.665c1.674,-0.964 3.03,-0.185 3.03,1.748l0,25.8c0,1.929 -1.356,4.278 -3.03,5.243l-221.122,127.668c-1.671,0.961 -3.027,0.182 -3.027,-1.748l0,-25.803c0,-1.93 1.356,-4.275 3.027,-5.243Z" style="fill:#c4e4f8;fill-rule:nonzero;"/><path d="M839.386,970.146l73.083,-42.193c3.345,-1.933 6.054,-0.367 6.054,3.495l0,2.412c0,3.863 -2.709,8.557 -6.054,10.487l-73.083,42.193c-3.342,1.933 -6.054,0.367 -6.054,-3.495l0,-2.412c0,-3.863 2.712,-8.554 6.054,-10.487Z" style="fill:#6396d0;fill-rule:nonzero;"/><path d="M836.359,1021.08l221.122,-127.665c1.674,-0.964 3.03,-0.185 3.03,1.748l0,25.8c0,1.929 -1.356,4.278 -3.03,5.243l-221.122,127.664c-1.671,0.965 -3.027,0.186 -3.027,-1.747l0,-25.8c0,-1.93 1.356,-4.275 3.027,-5.243Z" style="fill:#c4e4f8;fill-rule:nonzero;"/><path d="M924.58,1035.73l87.282,-50.39c3.345,-1.933 6.054,-0.367 6.054,3.495l0,27.002c0,3.863 -2.709,8.557 -6.054,10.487l-87.282,50.394c-3.345,1.929 -6.057,0.367 -6.057,-3.496l0,-27.006c0,-3.862 2.712,-8.556 6.057,-10.486Z" style="fill:#6396d0;fill-rule:nonzero;"/><path d="M1131.5,921.846c0,0 -42.938,-59.234 -45.556,-66.284c-1.978,-5.313 0.137,-13.216 0.626,-16.89c0.489,-3.67 1.199,-11.849 1.811,-14.125c1.069,-3.971 -4.08,-3.156 -6.967,0.454c-2.957,3.699 -3.904,10.917 -5.376,12.105c-1.468,1.189 -12.943,-15.481 -18.931,-23.196c-5.984,-7.714 -9.728,-12.363 -13.367,-9.504c-2.621,2.063 -0.671,6.554 3.667,13.126c4.341,6.568 6.264,9.612 6.917,11.021c0.654,1.412 -2.915,1.524 -4.841,4.488c-1.499,2.314 -0.101,6.061 -2.09,7.844c-1.996,1.789 -3.852,5.002 -1.667,8.62c2.782,4.614 8.364,11.202 14.785,15.652c6.418,4.45 9.022,6.012 12.808,12.063c3.789,6.051 38.002,67.826 40.299,71.531c2.289,3.705 6.749,11.255 13.499,11.472c6.757,0.22 61.971,-47.328 64.816,-49.698c9.102,-7.589 11.972,-8.704 13.542,-1.867c0.492,2.139 0.814,4.579 1.157,7.333c1.094,8.655 6.987,39.632 6.987,39.632c0,0 27.929,13.534 50.925,6.861c22.997,-6.669 30.708,-16.274 30.708,-16.274l-11.504,-18.75c3.132,-7.739 17.596,-39.037 22.137,-60.971l-72.006,-11.626c-1.479,-0.322 -3.838,-0.912 -6.851,-1.706c-3.954,-1.041 -13.891,-4.533 -21.557,2.133c-24.779,21.552 -73.971,66.556 -73.971,66.556Z" style="fill:#f7a7a8;fill-rule:nonzero;"/><path d="M1274.26,1285.16l-12.909,17.939c0,0 5.977,3.506 18.749,3.988c11.549,0.441 14.727,-3.352 15.153,-4.261c1.947,-4.184 -1.094,-11.731 -1.929,-18.211l-19.064,0.545Z" style="fill:#25306f;fill-rule:nonzero;"/><path d="M1262.08,1294.48c0,0 -15.642,-0.996 -26.461,-2.359c-10.818,-1.364 -19.375,3.914 -16.827,8.371c2.541,4.45 8.491,8.155 17.761,11.27c7.941,2.674 17.459,4.617 25.751,7.099c8.497,2.541 13.936,5.453 18.749,3.796c5.366,-1.849 7.673,-3.992 7.215,-7.9c-0.455,-3.908 -4.345,-16.491 -4.345,-16.491l-21.843,-3.786Z" style="fill:#25306f;fill-rule:nonzero;"/><path d="M1295.26,1267.13c0,0 -1.957,16.292 -2.108,19.791c-0.15,3.495 -15.9,4.617 -18.885,-1.769l-0.49,-19.92l21.483,1.898Z" style="fill:#f49090;fill-rule:nonzero;"/><path d="M1279.37,1277.16l5.635,24.716c0,0 0.531,3.016 -12.346,4.932c-12.878,1.922 -33.064,-6.732 -36.503,-8.49c-3.436,-1.762 -3.845,-5.261 8.798,-4.562c12.643,0.703 17.124,0.727 17.124,0.727l-4.104,-10.955l21.396,-6.368Z" style="fill:#f7a7a8;fill-rule:nonzero;"/><path d="M1305.88,866.489l8.899,-2.457c0,0 18.648,58.957 20.707,64.634c2.063,5.68 4.387,11.734 0.378,18.76c-4.778,8.361 -29.984,42.026 -29.984,42.026l-15.999,-15.656l18.149,-33.256l-16.055,-32.529l13.905,-41.522Z" style="fill:#f49090;fill-rule:nonzero;"/><path d="M1214.24,789.855c0,0 -7.137,-11.423 0.378,-25.412c8.861,-16.481 28.666,-24.521 52.236,-21.438c10.888,1.426 23.741,10.364 30.788,24.014c7.746,14.988 8.469,45.2 10.392,56.623l-93.794,-33.787Z" style="fill:#25306f;fill-rule:nonzero;"/><path d="M1213.71,796.304c0,0 -5.599,10.664 -4.631,11.633c0.972,0.968 4.705,1.754 4.705,1.754l-0.074,-13.387Z" style="fill:#f7a7a8;fill-rule:nonzero;"/><path d="M1230.7,762.597c-6.089,3.971 -16.572,11.231 -17.034,35.189c-0.471,24.594 3.003,32.522 6.638,35.37c2.454,1.923 16.81,0.951 22.976,-0.499c6.162,-1.448 23.891,-10.204 30.27,-23.518c7.502,-15.666 5.985,-38.604 -5.183,-45.259c-15.712,-9.375 -32.511,-4.642 -37.667,-1.283Z" style="fill:#f7a7a8;fill-rule:nonzero;"/><path d="M1295.25,946.21c10.78,16.774 21.025,31.55 23.209,50.4c4.618,39.814 -10.528,85.328 -13.74,114.767c0,0 10.172,13.223 10.161,28.764c-0.007,12.164 -19.627,126.993 -19.627,126.993c0,0 -14.272,4.348 -21.483,-1.898l-13.485,-211.244l7.102,-25.716l27.863,-82.066Z" style="fill:#3e63ae;fill-rule:nonzero;"/><path d="M1260.29,1053.99l7.102,-25.716c0,0 19.694,-4.761 38.496,-15.268c0,0 -7.288,13.233 -28.159,20.49l-10.871,33.06l-0.937,75.652l-5.631,-88.218Z" style="fill:#354ea2;fill-rule:nonzero;"/><path d="M1295.25,946.21c5.767,9.413 19.553,25.509 16.624,40.977c-3.555,18.742 -13.639,31.917 -44.487,41.089l-28.931,104.776c0,0 15.065,14.1 19.672,27.509c4.6,13.408 21.242,116.598 21.242,116.598c0,0 -5.145,8.403 -21.396,6.368c0,0 -56.661,-129.419 -60.667,-137.752c-3.999,-8.333 -6.592,-14.562 -4.795,-28.135c1.803,-13.569 21.105,-162.017 21.105,-162.017l81.633,-9.413Z" style="fill:#3e63ae;fill-rule:nonzero;"/><path d="M1305.88,866.489l-72.006,-11.626c-1.475,-0.322 -3.852,-0.919 -6.862,-1.709l-0.007,-0.004c0,0 -3.069,45.148 -21.535,55.508l-0.004,0c0.437,2.153 0.818,4.576 1.161,7.333c1.094,8.655 6.987,39.632 6.987,39.632c0,0 27.929,13.534 50.925,6.861c22.997,-6.669 30.708,-16.274 30.708,-16.274l-11.504,-18.75c3.132,-7.739 17.596,-39.037 22.137,-60.971Z" style="fill:#fddb4b;fill-rule:nonzero;"/><path d="M1286.89,920.088c-0.294,0.678 -23.147,12.923 -29.935,14.796c10.703,-0.527 19.599,-3.044 26.796,-7.424l3.139,-7.372Z" style="fill:#fdc00f;fill-rule:nonzero;"/><path d="M1228.9,763.807c0,0 -3.356,22.731 4.775,36.062c0,0 3.051,-9.05 10.738,-7.319c7.739,1.74 8.06,11.79 2.688,17.487c-5.376,5.698 -11.357,3.639 -11.357,3.639c0,0 -1.206,16.429 -1.856,30.201c-0.626,13.276 -4.327,43.794 11.172,56.063c15.502,12.273 54.35,16.415 72.558,-9.039c10.133,-14.16 -3.328,-39.191 -9.584,-67.259c-5.757,-25.807 -8.994,-64.051 -36.378,-70.185c-27.379,-6.135 -42.756,10.35 -42.756,10.35Z" style="fill:#25306f;fill-rule:nonzero;"/><path d="M522.289,621.902c-15.918,12.514 -20.766,15.247 -23.646,-1.472c-2.877,-16.722 6.435,-42.214 22.353,-54.731c15.918,-12.514 22.028,-13.451 24.905,3.268c2.88,16.722 -7.69,40.421 -23.612,52.935Zm63.387,-71.828l-3.754,-21.794l-19.449,12.797c-1.947,-3.726 -4.45,-6.718 -7.393,-8.977l9.305,-25.174l-17.327,-3.873l-12.8,24.388c-4.24,0.654 -8.718,2.087 -13.332,4.345l-5.54,-18.386l-20.749,16.313l1.36,21.672c-4.202,4.673 -8.047,9.784 -11.476,15.16l-17.142,-0.846l-12.02,26.946l14.722,6.278c-1.555,5.795 -2.555,11.545 -2.908,17.075l-18.69,17.187l3.754,21.794l19.445,-12.796c1.947,3.726 4.45,6.718 7.397,8.979l-9.309,25.171l17.327,3.873l18.309,-17.851c4.244,-0.654 3.209,-8.623 7.827,-10.882l5.536,18.387l20.753,-16.314l-0.535,-8.525c4.198,-4.67 20.057,-14.982 23.486,-20.358l4.306,-7.102l12.018,-26.947l-5.6,-10.144l-6.211,-13.209l18.69,-17.187Z" style="fill:#afd3f0;fill-rule:nonzero;"/><path d="M547.058,503.053l22.672,13.073l-12.801,24.388l-22.671,-13.073l12.8,-24.388Z" style="fill:#d9eefb;fill-rule:nonzero;"/><path d="M604.59,541.349l-19.445,12.801l-22.672,-13.073l19.449,-12.797l22.668,13.069Z" style="fill:#d9eefb;fill-rule:nonzero;"/><path d="M601.468,603.687l-14.723,-6.278l-22.668,-13.073l14.72,6.278l22.671,13.073Z" style="fill:#afd3f0;fill-rule:nonzero;"/><path d="M469.77,676.333l22.668,13.07l9.309,-25.168l-22.668,-13.073l-9.309,25.171Z" style="fill:#afd3f0;fill-rule:nonzero;"/><path d="M541.441,682.929l-22.672,-13.069l-5.536,-18.387l22.668,13.073l5.54,18.383Z" style="fill:#afd3f0;fill-rule:nonzero;"/><path d="M544.961,634.975c-15.918,12.517 -31.159,9.109 -34.039,-7.613c-2.88,-16.719 7.694,-40.418 23.612,-52.932c15.918,-12.517 31.158,-9.109 34.039,7.61c2.876,16.719 -7.694,40.421 -23.612,52.935Zm63.383,-71.831l-3.754,-21.795l-19.445,12.801c-1.947,-3.726 -4.454,-6.719 -7.397,-8.98l9.309,-25.171l-17.327,-3.873l-12.801,24.388c-4.243,0.654 -8.721,2.083 -13.335,4.341l-5.54,-18.382l-20.749,16.313l1.356,21.672c-4.198,4.67 -8.039,9.784 -11.468,15.16l-17.146,-0.846l-12.02,26.946l14.722,6.278c-1.555,5.795 -2.555,11.545 -2.908,17.079l-18.69,17.183l3.754,21.794l19.445,-12.796c1.947,3.726 4.453,6.718 7.397,8.979l-9.309,25.168l17.327,3.876l12.801,-24.391c4.24,-0.65 8.717,-2.083 13.335,-4.342l5.54,18.383l20.749,-16.313l-1.36,-21.669c4.202,-4.673 8.047,-9.783 11.476,-15.163l17.141,0.846l12.021,-26.943l-14.723,-6.278c1.556,-5.799 2.556,-11.545 2.905,-17.078l18.694,-17.187Z" style="fill:#c4e4f8;fill-rule:nonzero;"/><path d="M538.054,526.473l-22.668,-13.073l-20.749,16.313l22.668,13.073l20.749,-16.313Z" style="fill:#d9eefb;fill-rule:nonzero;"/><path d="M494.637,529.713l1.36,21.672l22.664,13.073l-1.356,-21.672l-22.668,-13.073Z" style="fill:#afd3f0;fill-rule:nonzero;"/><path d="M507.193,579.618l-22.672,-13.073l-17.142,-0.846l22.668,13.073l17.146,0.846Z" style="fill:#d9eefb;fill-rule:nonzero;"/><path d="M467.379,565.699l-12.02,26.946l22.668,13.073l12.02,-26.946l-22.668,-13.073Z" style="fill:#afd3f0;fill-rule:nonzero;"/><path d="M489.841,629.075l-22.668,-13.077l-18.69,17.187l22.668,13.073l18.69,-17.183Z" style="fill:#d9eefb;fill-rule:nonzero;"/><path d="M474.905,668.052l-22.668,-13.073l-3.754,-21.794l22.668,13.073l3.754,21.794Z" style="fill:#afd3f0;fill-rule:nonzero;"/><path d="M569.73,516.126l-22.672,-13.073l17.327,3.873l22.672,13.073l-17.327,-3.873Z" style="fill:#d9eefb;fill-rule:nonzero;"/><path d="M393.472,532.495c-21.627,12.486 -35.07,3.629 -35.07,-21.346c0,-24.972 17.872,-55.564 39.502,-68.046c21.626,-12.489 34.727,-3.405 34.727,21.567c0,24.975 -17.533,55.34 -39.159,67.825Zm90.64,-81.272l0,-32.55l-25.905,11.678c-1.562,-6.012 -3.943,-11.167 -6.998,-15.418l16.321,-32.91l-19.935,-11.51l-20.34,30.592c-5.208,-0.521 -10.86,-0.007 -16.848,1.65l-2.842,-28.275l-28.187,16.275l-2.842,31.553c-5.987,5.261 -11.64,11.27 -16.851,17.81l-20.337,-7.107l-19.934,34.525l16.32,14.066c-3.055,7.781 -5.436,15.684 -6.998,23.496l-25.905,18.236l0,32.549l25.905,-11.678c1.562,6.012 3.943,11.168 6.998,15.419l-16.32,32.909l19.934,11.511l20.337,-30.592c5.211,0.52 10.864,0.007 16.851,-1.65l2.842,28.274l28.187,-16.274l2.842,-31.554c8.4,-2.803 17.386,-9.305 22.598,-15.841l14.59,5.138l19.935,-34.524l-12.231,-10.539c3.055,-7.785 3.38,-20.221 2.908,-27.023l25.905,-18.236Z" style="fill:#afd3f0;fill-rule:nonzero;"/><path d="M470.267,383.586l-22.672,-13.073l-20.34,30.592l22.668,13.073l20.344,-30.592Z" style="fill:#d9eefb;fill-rule:nonzero;"/><path d="M506.78,431.746l-22.668,-13.073l-25.905,11.678l22.668,13.07l25.905,-11.675Z" style="fill:#d9eefb;fill-rule:nonzero;"/><path d="M402.046,613.149l-22.668,-13.073l-2.842,-28.274l22.672,13.073l2.838,28.274Z" style="fill:#afd3f0;fill-rule:nonzero;"/><path d="M319.414,592.533l22.668,13.073l16.32,-32.909l-22.668,-13.073l-16.32,32.909Z" style="fill:#afd3f0;fill-rule:nonzero;"/><path d="M416.14,545.568c-21.627,12.486 -39.16,2.363 -39.16,-22.608c0,-24.972 17.533,-55.34 39.16,-67.826c21.626,-12.486 39.159,-2.363 39.159,22.609c0,24.971 -17.533,55.336 -39.159,67.825Zm90.64,-81.272l0,-32.55l-25.905,11.675c-1.562,-6.009 -3.943,-11.165 -6.998,-15.415l16.321,-32.91l-19.931,-11.51l-20.344,30.592c-5.208,-0.521 -10.86,-0.007 -16.848,1.646l-2.838,-28.271l-28.191,16.275l-2.838,31.553c-5.988,5.258 -11.64,11.27 -16.852,17.806l-20.343,-7.103l-19.931,34.529l16.32,14.062c-3.055,7.781 -5.432,15.68 -6.995,23.496l-25.904,18.236l0,32.549l25.904,-11.678c1.563,6.012 3.94,11.165 6.995,15.419l-16.32,32.909l19.931,11.507l20.343,-30.588c5.212,0.52 10.864,0.003 16.852,-1.65l2.838,28.274l28.191,-16.274l2.838,-31.554c5.988,-5.257 11.64,-11.273 16.848,-17.806l20.344,7.1l19.931,-34.525l-16.321,-14.062c3.055,-7.781 5.436,-15.681 6.998,-23.496l25.905,-18.236Z" style="fill:#c4e4f8;fill-rule:nonzero;"/><path d="M359.685,440.118l22.671,13.069l-20.343,-7.103l-22.665,-13.073l20.337,7.107Z" style="fill:#d9eefb;fill-rule:nonzero;"/><path d="M342.082,480.613l-22.668,-13.077l19.934,-34.525l22.665,13.073l-19.931,34.529Z" style="fill:#d9eefb;fill-rule:nonzero;"/><path d="M319.414,467.536l22.668,13.077l16.32,14.062l-22.668,-13.073l-16.32,-14.066Z" style="fill:#afd3f0;fill-rule:nonzero;"/><path d="M328.736,505.098l22.671,13.073l-25.904,18.236l-22.672,-13.073l25.905,-18.236Z" style="fill:#d9eefb;fill-rule:nonzero;"/><path d="M302.831,523.334l22.672,13.073l0,32.549l-22.672,-13.073l0,-32.549Z" style="fill:#afd3f0;fill-rule:nonzero;"/><path d="M430.237,387.553l-22.672,-13.073l-28.187,16.275l22.668,13.073l28.191,-16.275Z" style="fill:#d9eefb;fill-rule:nonzero;"/></g></svg>