<?xml version="1.0" encoding="UTF-8" standalone="no"?><!DOCTYPE svg PUBLIC "-//W3C//DTD SVG 1.1//EN" "http://www.w3.org/Graphics/SVG/1.1/DTD/svg11.dtd"><svg width="100%" height="100%" viewBox="0 0 1667 1667" version="1.1" xmlns="http://www.w3.org/2000/svg" xmlns:xlink="http://www.w3.org/1999/xlink" xml:space="preserve" xmlns:serif="http://www.serif.com/" style="fill-rule:evenodd;clip-rule:evenodd;stroke-linejoin:round;stroke-miterlimit:1.41421;"><g><ellipse cx="833.5" cy="1287.64" rx="675" ry="233" style="fill:#ccd0fc;"/><path d="M1026.89,1057.59c0.827,-1.106 0.358,-75.988 25.745,-98.253c25.386,-22.273 47.78,-4.613 33.085,22.069c-9.689,17.576 -37.105,48.718 -37.155,78.568l-21.678,-2.384l0.003,0Z" style="fill:#24ba9e;fill-rule:nonzero;"/><path d="M1035.97,1059.35c0.683,0 1.274,-0.516 1.349,-1.214c7.613,-71.789 36.371,-97.526 36.657,-97.776c0.565,-0.491 0.633,-1.346 0.14,-1.912c-0.494,-0.569 -1.353,-0.622 -1.912,-0.143c-1.217,1.052 -29.842,26.564 -37.587,99.542c-0.075,0.748 0.462,1.413 1.206,1.496l0.143,0.007l0.004,0Z" style="fill:#fff;fill-rule:nonzero;"/><path d="M1031.8,1136.85c9.295,-42.255 22.573,-66.782 75.161,-93.855c48.464,-24.953 90.11,-51.324 41.674,-60.912c-40.203,-7.96 -117.64,55.934 -120.386,111.853l3.547,42.914l0.004,0Z" style="fill:#2c9c8b;fill-rule:nonzero;"/><path d="M1036.96,1083.76c0.548,0 1.067,-0.34 1.271,-0.884c15.887,-42.355 66.528,-83.328 110.586,-89.484c0.741,-0.1 1.264,-0.784 1.156,-1.528c-0.1,-0.741 -0.748,-1.285 -1.532,-1.156c-44.928,6.274 -96.563,48.042 -112.759,91.216c-0.261,0.705 0.097,1.482 0.799,1.75l0.476,0.086l0.003,0Z" style="fill:#fff;fill-rule:nonzero;"/><path d="M644.676,1200.97c1.382,1.836 1.64,6.081 3.043,11.826c1.403,5.74 1.875,10.189 0.937,13.002c-0.937,2.81 -7.108,9.134 -14.685,11.479c-7.569,2.34 -16.879,0.372 -25.898,-5.015c-9.008,-5.386 -15.812,-11.94 -28.65,-15.594c-12.842,-3.654 -19.267,-6.621 -25.344,-11.499c-7.119,-5.716 -16.625,-21.514 -3.01,-25.168c13.733,-3.683 43.243,9.255 70.175,10.425l23.432,10.544Z" style="fill:#2c2c45;fill-rule:nonzero;"/><path d="M644.676,1184.13l-0.003,20.175c0,0 -1.861,6.976 -10.719,8.494c-2.216,0.375 -4.417,0.035 -6.471,-0.688c-6.718,-2.369 -11.099,-8.872 -11.561,-15.973l-0.791,-12.008l29.545,0Z" style="fill:#f7a0a1;fill-rule:nonzero;"/><path d="M606.137,1059.4c-0.147,25.1 7.047,133.571 7.047,133.571c0,0 10.265,12.989 32.57,0l7.566,-121.162l-47.183,-12.409Z" style="fill:#43455c;fill-rule:nonzero;"/><path d="M671.265,1287.04c-2.816,-20.955 -24.57,-60.325 -61.889,-76.99c-37.319,-16.66 -82.473,-11.925 -91.07,-4.688c-8.597,7.24 -10.819,22.376 7.137,27.222c17.963,4.85 32.076,13.297 20.956,22.541c-11.117,9.249 -14.578,22.28 3.614,25.813c18.196,3.536 39.657,-9.442 44.707,2.133c5.053,11.575 -5.612,20.44 14.656,24.631c20.261,4.191 45.15,-11.489 59.162,11.625l2.724,-32.287l0.003,0Z" style="fill:#2c9c8b;fill-rule:nonzero;"/><path d="M670.045,1302.91l0.526,-0.104c0.691,-0.294 1.017,-1.088 0.727,-1.779c-27.699,-65.637 -107.741,-95.382 -135.665,-93.582c-0.748,0.046 -1.317,0.687 -1.271,1.435c0.047,0.748 0.687,1.342 1.439,1.271c22.183,-1.325 104.169,23.622 132.995,91.932c0.218,0.519 0.719,0.827 1.249,0.827Z" style="fill:#fff;fill-rule:nonzero;"/><path d="M560.429,1262.65l0.558,-0.118c0.376,-0.168 37.967,-16.811 72.691,-9.023c0.748,0.154 1.46,-0.3 1.621,-1.031c0.165,-0.73 -0.297,-1.456 -1.03,-1.621c-35.634,-7.978 -74.016,9.023 -74.399,9.198c-0.683,0.312 -0.988,1.113 -0.676,1.794c0.222,0.508 0.719,0.801 1.235,0.801Z" style="fill:#fff;fill-rule:nonzero;"/><path d="M869.239,958.093l117.64,67.899l-279.4,161.313l-88.232,-50.948l-29.413,-16.951l279.405,-161.313Z" style="fill:#fcd956;fill-rule:nonzero;"/><path d="M589.838,1119.41l0,16.979l88.228,50.941l0.046,-16.979l-88.274,-50.941Z" style="fill:#febe28;fill-rule:nonzero;"/><path d="M856.633,1043c0,0 -103.024,-31.088 -120.933,-35.991c-17.907,-4.9 -52.262,-13.16 -62.294,-8.661c-10.04,4.495 -15.14,9.713 -16.06,24.194c-0.193,2.72 0,15.974 0,15.974c0,0 49.789,15.415 90.583,15.415c40.795,0 108.704,-10.931 108.704,-10.931Z" style="fill:#2756a6;fill-rule:nonzero;"/><path d="M768.581,867.904l6.846,36.94l37.874,4.37l-5.465,-50.98l-39.255,9.67Z" style="fill:#f7a0a1;fill-rule:nonzero;"/><path d="M733.226,838.413c0,0 -4.971,15.239 -3.45,16.173c1.521,0.938 8.282,0.484 8.282,0.484l-4.832,-16.657Z" style="fill:#f58e8c;fill-rule:nonzero;"/><path d="M742.983,789.576c-6.521,6.865 -12.72,18.361 -9.989,47.462c2.992,31.893 12.527,40.401 16.542,42.269c6.002,2.795 26.425,-2.097 33.064,-6.986c8.311,-6.124 23.958,-21.371 28.038,-40.161c4.796,-22.104 -1.342,-47.222 -17.491,-52.301c-22.727,-7.148 -44.645,3.912 -50.164,9.717Z" style="fill:#f7a0a1;fill-rule:nonzero;"/><path d="M728.098,805.274c3.869,7.305 11.188,25.469 31.914,30.622c0,0 1.146,-12.383 11.407,-12.505c10.329,-0.122 13.761,12.516 8.665,21.349c-5.097,8.837 -11.503,6.801 -11.503,6.801c0,0 1.027,17.387 13.589,23.6c0,0 15.075,6.868 28.83,-1.911c6.195,-3.948 13.346,-21.067 17.04,-34.817c7.806,-29.08 6.417,-51.346 -12.076,-55.87c-3.89,-12.194 -10.154,-16.109 -21.786,-16.879c-25.035,-1.657 -41.216,16.879 -62.036,16.879c-10.859,0 -8.472,14.388 -4.044,22.731Z" style="fill:#22376d;fill-rule:nonzero;"/><path d="M815.506,784.612l12.534,-5.365c-1.482,-3.461 -5.49,-5.065 -8.951,-3.583c-3.465,1.482 -5.065,5.487 -3.583,8.948Z" style="fill:#22376d;fill-rule:nonzero;"/><path d="M856.379,1030.61c-0.039,19.792 1.854,40.382 -6.396,54.881c-7.974,14.016 -45.633,44.349 -87.734,37.259c-27.498,-4.628 -116.37,-38.501 -116.37,-38.501c0,0 -39.567,-14.509 -39.746,-24.849c-0.257,-15.251 0.784,-36.696 35.304,-35.78c31.443,0.83 124.738,16.113 124.738,16.113l90.2,-9.123l0.004,0Z" style="fill:#43455c;fill-rule:nonzero;"/><path d="M849.056,902.689c-3.4,-10.336 -16.514,-21.589 -29.635,-19.151c-24.108,4.481 -50.482,12.287 -57.469,14.352l-0.007,-0.004c0,0 3.135,53.121 -24.119,69.202l-3.597,67.651c0,0 6.746,13.476 17.154,20.093c11.264,7.159 26.933,17.889 55.236,15.541c33.601,-2.785 50.014,-27.377 50.014,-27.377c0,0 -0.311,-63.922 -1.389,-92.537c-0.923,-24.309 -3.854,-40.676 -6.191,-47.77l0.003,0Z" style="fill:#5894cf;fill-rule:nonzero;"/><path d="M737.128,980.191c0,0 14.241,-14.768 19.252,-31.915c0,0 0,25.082 -19.531,38.636l0.279,-6.721Z" style="fill:#3266b0;fill-rule:nonzero;"/><path d="M643.51,931.655l-15.297,-21.969c0,0 -3.647,-5.293 -4.993,-7.512c-1.357,-2.219 -2.284,-9.546 2.222,-11.446c8.164,-3.386 25.122,-11.403 30.101,-11.421c2.043,-0.007 10.554,14.27 25.168,33.515c8.725,11.485 20.816,27.48 20.816,28.883c0,1.399 3.117,2.863 -9.567,9.359c-12.681,6.496 -28.207,11.31 -28.207,11.31l-20.243,-30.719Z" style="fill:#4860ff;fill-rule:nonzero;"/><path d="M633.778,907.8c9.363,13.483 29.377,46.836 29.961,47.767c0.504,0.801 29.466,-11.611 37.376,-15.018c0.265,0.583 0.415,0.988 0.415,1.156c0,1.399 3.118,2.863 -9.567,9.359c-12.68,6.496 -28.206,11.31 -28.206,11.31l-20.247,-30.719l-15.294,-21.969c0,0 -3.647,-5.293 -4.996,-7.512c-1.353,-2.219 -2.284,-9.546 2.226,-11.446c-0.877,0.483 -1.031,3.593 8.329,17.072l0.003,0Z" style="fill:#4352c6;fill-rule:nonzero;"/><path d="M658.488,886.304l-28.933,11.736l32.283,49.363l28.865,-12.38l-32.215,-48.719Z" style="fill:#ceeafa;fill-rule:nonzero;"/><path d="M761.945,897.886c-14.882,4.467 -23.944,5.272 -40.386,30.565c-16.439,25.294 -52.448,75.465 -56.02,81.493c-4.961,8.385 -7.097,18.371 -2.817,26.077c3.998,7.19 15.641,4.041 31.958,-10.276c15.773,-13.84 47.036,-52.992 47.036,-52.992c0,0 16.299,-35.687 20.229,-74.867Z" style="fill:#f7a0a1;fill-rule:nonzero;"/><path d="M666.348,1039.74c-7.541,-2.148 -18.905,-30.14 -27.57,-61.872c-8.665,-31.735 -13.042,-38.811 -13.343,-48.815c-0.293,-10.003 0.473,-22.759 0.473,-22.759l14.849,21.41c0,0 0.577,-5.526 3.751,-12.054c1.915,-3.923 5.505,-7.001 8.45,-4.653c1.579,1.26 -2.566,6.635 -1.682,18.636c0.53,7.151 -0.884,14.391 -0.884,14.391l27.677,67.029l-11.721,28.687Z" style="fill:#f7a0a1;fill-rule:nonzero;"/><path d="M761.945,897.886c0,0 -13.271,2.778 -21.514,6.815c-2.537,1.238 -10.898,4.445 -16.263,13.353c-11.503,19.113 -27.949,46.317 -27.949,46.317c0,0 -2.81,23.694 25.962,31.947l15.305,-16.51c6.234,-6.733 11.449,-14.36 15.25,-22.713c6.478,-14.245 13.873,-36.858 9.209,-59.209Z" style="fill:#5894cf;fill-rule:nonzero;"/><path d="M723.151,583.969l306.871,-177.172c7.741,-4.467 14.155,-1.686 15.429,6.095c-1.177,-9.331 -7.609,-19.678 -15.429,-24.194l-12.767,-7.37c-8.654,-5 -22.691,-5 -31.349,0l-306.867,177.168c-4.334,2.502 -8.25,6.79 -11.088,11.704l44.12,25.469c2.834,-4.914 6.753,-9.202 11.08,-11.7Z" style="fill:#ccd0fc;fill-rule:nonzero;"/><path d="M663.366,1313.56c-0.003,9.993 7.015,22.151 15.67,27.151l12.766,7.366c7.831,4.52 20.018,4.914 28.69,1.259c-7.387,2.803 -13.013,-1.363 -13.013,-10.307l0,-727.906c0,-5 1.753,-10.537 4.588,-15.451l-44.119,-25.469c-2.839,4.91 -4.589,10.451 -4.589,15.447l0.007,727.91Z" style="fill:#c6c9fc;fill-rule:nonzero;"/><path d="M722.192,1235.89c0,6.01 4.198,8.436 9.41,5.43l289.973,-167.433c5.215,-3.007 9.413,-10.279 9.413,-16.292l0,-538.605c0,-6.009 -4.198,-8.436 -9.413,-5.43l-11.55,6.661l-278.427,160.772c-5.211,3.003 -9.409,10.279 -9.409,16.289l0,538.608l0.003,0Zm0.981,-651.918l306.845,-177.172c8.654,-4.993 15.676,-0.938 15.676,9.051l0,727.907c0,9.992 -7.022,22.154 -15.676,27.151l-306.845,177.171c-8.69,4.997 -15.677,0.941 -15.677,-9.051l0,-727.906c0,-9.993 6.987,-22.155 15.677,-27.151Z" style="fill:#f6f6fd;fill-rule:nonzero;"/><path d="M876.59,522.995c-3.049,1.761 -5.515,6.035 -5.515,9.553c0,3.518 2.466,4.943 5.515,3.182c3.046,-1.758 5.512,-6.035 5.512,-9.549c0,-3.518 -2.466,-4.943 -5.512,-3.186Z" style="fill:#c6c9fc;fill-rule:nonzero;"/><path d="M824.504,579.029c-6.092,3.515 -11.031,12.066 -11.031,19.098c0,7.033 4.939,9.886 11.031,6.368c6.091,-3.515 11.03,-12.069 11.03,-19.098c0,-7.037 -4.939,-9.889 -11.03,-6.368Z" style="fill:#c6c9fc;fill-rule:nonzero;"/><path d="M851.472,576.642c0,4.689 3.508,6.464 7.835,3.966l72.558,-41.893c4.328,-2.498 7.839,-8.325 7.839,-13.014c0,-4.692 -3.511,-6.464 -7.842,-3.969l-72.555,41.893c-4.327,2.498 -7.835,8.325 -7.835,13.017Z" style="fill:#c6c9fc;fill-rule:nonzero;"/><path d="M986.879,533.586l34.707,-20.039c5.193,-3 9.406,-0.569 9.406,5.429l0.003,538.627c0,5.998 -4.212,13.289 -9.406,16.288l-34.706,20.039l-0.004,-560.344Z" style="fill:#c6c9fc;fill-rule:nonzero;"/><path d="M962.119,1040.33l24.764,-14.294l-0.004,-492.446l-255.281,147.404c-5.208,3.003 -9.406,10.279 -9.406,16.289l0,224.057c0.673,-1.113 1.332,-2.208 1.976,-3.282c5.365,-8.908 13.726,-12.115 16.263,-13.353c8.243,-4.037 21.514,-6.815 21.514,-6.815l0.007,0.004c2.183,-0.645 6.26,-1.851 11.568,-3.343l-3.153,-17.004c-5.38,1.542 -11.253,2.58 -15.652,2.58c-2.158,0 -3.962,-0.25 -5.179,-0.816c-3.113,-1.453 -9.545,-6.893 -13.675,-24.141c-0.401,0.007 -0.834,0.015 -1.282,0.015c-1.904,0 -4.03,-0.115 -4.806,-0.595c-1.41,-0.866 2.759,-14.019 3.378,-15.937c-0.053,-0.53 -0.107,-1.067 -0.157,-1.611c-0.87,-9.252 -0.834,-16.728 -0.176,-22.838c-2.068,-3.529 -3.554,-6.721 -4.72,-8.926c-4.424,-8.343 -6.815,-22.731 4.044,-22.731c19.928,0 35.608,-16.986 58.876,-16.986c1.041,0 2.097,0.036 3.16,0.107c10.873,0.716 17.051,4.181 20.992,14.585c0.504,-1.983 1.893,-3.719 3.919,-4.585c0.876,-0.376 1.786,-0.555 2.68,-0.555c2.645,0 5.161,1.55 6.271,4.138l-9.517,4.076c16.049,5.909 16.947,27.413 9.517,55.09c-3.694,13.75 -10.845,30.869 -17.04,34.817c-0.487,0.315 -0.974,0.605 -1.46,0.877l1.195,11.159c2.899,-0.612 5.809,-1.195 8.686,-1.728c1.228,-0.226 2.459,-0.337 3.68,-0.337c11.811,0 22.874,10.118 25.955,19.488c2.33,7.094 5.265,23.461 6.188,47.77c0.169,4.431 0.315,9.703 0.448,15.455l13.547,-7.821l117.64,67.899l-24.813,14.327c0.014,0 0.039,0.004 0.05,0.007l0.003,0Zm-226.419,-33.321l1.428,-26.814l-14.921,16.102c-0.004,0.007 -0.008,0.014 -0.015,0.018l0,7.212c4.997,1.209 9.639,2.426 13.508,3.482Z" style="fill:#ccd0fc;fill-rule:nonzero;"/><path d="M722.192,1178.83l239.927,-138.507c-0.014,-0.003 -0.039,-0.007 -0.053,-0.007l-239.874,138.489l0,0.025Z" style="fill:#f6fcfe;fill-rule:nonzero;"/><path d="M722.192,1178.81l239.874,-138.489l24.81,-14.327l-117.641,-67.899l-13.547,7.821c0.72,31.413 0.942,77.082 0.942,77.082c0,0 -0.043,0.065 -0.133,0.186c0.19,15.637 -0.003,30.87 -6.514,42.312c-7.158,12.584 -38.249,38.322 -74.992,38.322c-4.184,0 -8.436,-0.337 -12.742,-1.063c-8.751,-1.471 -23.718,-5.909 -40.06,-11.267l0,67.322l0.003,0Z" style="fill:#fcde6e;fill-rule:nonzero;"/><path d="M734.229,1034.74l1.471,-27.734c-3.869,-1.056 -8.515,-2.273 -13.508,-3.482l0,29.423c4.177,0.612 8.211,1.214 12.037,1.793Z" style="fill:#43455c;fill-rule:nonzero;"/><path d="M773.52,894.547c9.653,-2.71 23.378,-6.36 37.215,-9.281l-1.195,-11.159c-4.907,2.727 -9.9,3.593 -14.267,3.593c-7.498,-0.003 -13.106,-2.559 -13.106,-2.559c-0.763,-0.376 -1.485,-0.794 -2.166,-1.249c-2.584,1.335 -5.994,2.609 -9.638,3.651l3.153,17.004l0.004,0Z" style="fill:#f8acac;fill-rule:nonzero;"/><path d="M734.579,855.181c0.448,0 0.881,-0.008 1.282,-0.015c-1.103,-4.613 -2.04,-10.068 -2.71,-16.517c-0.615,1.918 -4.785,15.071 -3.378,15.937c0.773,0.48 2.899,0.595 4.806,0.595Z" style="fill:#f69c9b;fill-rule:nonzero;"/><path d="M754.715,880.123c4.399,0 10.272,-1.038 15.652,-2.58c3.64,-1.042 7.054,-2.316 9.638,-3.651c-10.515,-7.011 -11.424,-22.351 -11.424,-22.351c0,0 0.637,0.204 1.675,0.204c2.24,0 6.335,-0.956 9.828,-7.005c5.071,-8.79 1.696,-21.349 -8.518,-21.349l-0.147,0c-10.261,0.122 -11.41,12.505 -11.41,12.505c-14.467,-3.6 -22.405,-13.536 -27.194,-21.696c-0.659,6.11 -0.694,13.586 0.175,22.838c0.05,0.544 0.104,1.081 0.158,1.611c0.673,6.449 1.61,11.904 2.709,16.517c4.13,17.248 10.562,22.688 13.676,24.141c1.217,0.566 3.021,0.816 5.179,0.816l0.003,0Z" style="fill:#f8acac;fill-rule:nonzero;"/><path d="M795.277,877.7c4.363,0 9.356,-0.866 14.263,-3.593c0.486,-0.272 0.973,-0.562 1.456,-0.877c6.196,-3.948 13.35,-21.067 17.04,-34.817c7.43,-27.677 6.532,-49.181 -9.516,-55.09l-3.018,1.289c-0.615,-1.435 -0.698,-2.96 -0.336,-4.363c-3.937,-10.404 -10.118,-13.869 -20.991,-14.585c-1.063,-0.071 -2.119,-0.107 -3.161,-0.107c-23.267,0 -38.947,16.986 -58.876,16.986c-10.858,0 -8.468,14.388 -4.044,22.731c1.167,2.205 2.656,5.397 4.721,8.926c4.789,8.16 12.727,18.096 27.197,21.696c0,0 1.146,-12.383 11.407,-12.505l0.147,0c10.214,0 13.589,12.559 8.518,21.349c-3.49,6.049 -7.588,7.005 -9.828,7.005c-1.038,0 -1.675,-0.204 -1.675,-0.204c0,0 0.909,15.34 11.424,22.351c0.68,0.455 1.403,0.873 2.165,1.249c0,0 5.609,2.556 13.107,2.559Z" style="fill:#2c2c45;fill-rule:nonzero;"/><path d="M815.506,784.612l3.017,-1.289l9.517,-4.076c-1.11,-2.588 -3.626,-4.138 -6.271,-4.138c-0.894,0 -1.804,0.179 -2.68,0.555c-2.026,0.866 -3.415,2.602 -3.919,4.585c-0.362,1.403 -0.28,2.928 0.336,4.363Z" style="fill:#2c2c45;fill-rule:nonzero;"/><path d="M774.994,1123.82c36.743,0 67.835,-25.738 74.993,-38.322c6.51,-11.442 6.703,-26.675 6.514,-42.312c-1.6,2.28 -18.003,24.549 -49.885,27.191c-2.703,0.225 -5.29,0.333 -7.774,0.333c-23.483,0 -37.276,-9.399 -47.462,-15.874c-10.405,-6.617 -17.155,-20.093 -17.155,-20.093c-3.826,-0.579 -7.86,-1.181 -12.036,-1.793l0,78.54c16.342,5.358 31.309,9.796 40.064,11.267c4.305,0.726 8.557,1.063 12.741,1.063Z" style="fill:#43455c;fill-rule:nonzero;"/><path d="M798.845,1070.71c2.484,0 5.072,-0.108 7.774,-0.333c31.879,-2.642 48.282,-24.911 49.882,-27.191c0.089,-0.121 0.132,-0.186 0.132,-0.186c0,0 -0.225,-45.669 -0.941,-77.082c-0.133,-5.752 -0.279,-11.024 -0.448,-15.455c-0.923,-24.309 -3.854,-40.676 -6.191,-47.77c-3.082,-9.37 -14.141,-19.488 -25.956,-19.488c-1.22,0 -2.451,0.111 -3.679,0.337c-2.878,0.533 -5.787,1.116 -8.687,1.728c-13.833,2.921 -27.562,6.571 -37.215,9.281c-5.308,1.492 -9.381,2.698 -11.567,3.343l-0.008,-0.004c3.791,18.175 -0.39,36.521 -5.565,50.397c-0.004,0.609 -0.24,25.243 -19.531,38.629l0.279,-6.721c0,0 0.376,-0.387 1.031,-1.117c-0.226,0.247 -0.448,0.49 -0.673,0.734l-0.358,0.383l-1.428,26.814l-1.471,27.734c0,0 6.747,13.476 17.155,20.093c10.186,6.475 23.979,15.874 47.462,15.874l0.003,0Zm-51.961,-102.942c3.622,-5.444 7.366,-12.226 9.481,-19.438c-1.184,3.175 -2.426,6.117 -3.629,8.769c-1.686,3.704 -3.647,7.265 -5.852,10.669Z" style="fill:#4860ff;fill-rule:nonzero;"/><path d="M736.849,986.912c19.287,-13.386 19.527,-38.02 19.531,-38.629c-0.004,0.014 -0.011,0.029 -0.015,0.043c-2.115,7.212 -5.859,13.994 -9.481,19.438c-2.595,3.994 -5.519,7.774 -8.726,11.31c-0.655,0.73 -1.03,1.117 -1.03,1.117l-0.279,6.721Z" style="fill:#4352c6;fill-rule:nonzero;"/><path d="M722.192,996.311c0.007,-0.004 0.007,-0.011 0.015,-0.018l-0.015,0.014l0,0.004Z" style="fill:#f8acac;fill-rule:nonzero;"/><path d="M722.192,996.307l0.015,-0.014l14.921,-16.102l0.358,-0.383c0.225,-0.244 0.447,-0.487 0.672,-0.734c3.204,-3.536 6.131,-7.316 8.726,-11.31c2.205,-3.404 4.163,-6.965 5.852,-10.669c1.203,-2.652 2.445,-5.594 3.629,-8.769c0.004,-0.014 0.007,-0.029 0.015,-0.043c5.175,-13.876 9.355,-32.222 5.565,-50.397c0,0 -13.271,2.778 -21.514,6.815c-2.537,1.238 -10.898,4.445 -16.263,13.353c-0.644,1.074 -1.303,2.169 -1.976,3.282l0,74.971Z" style="fill:#4860ff;fill-rule:nonzero;"/><path d="M722.192,1178.83l0,-0.025l0,-67.322l0,-78.54l0,-29.423l0,-7.212l0,-0.004l0,-74.971l0,-224.057l0,481.554Z" style="fill:#4874ba;fill-rule:nonzero;"/><path d="M988.794,532.48l21.235,-12.258l0,-0.004l-21.235,12.262Z" style="fill:#fff;fill-rule:nonzero;"/><path d="M986.883,1026.03l23.146,-13.365l0,-492.449l-21.235,12.262l-1.915,1.106l0.004,492.446Z" style="fill:#ccd0fc;fill-rule:nonzero;"/><path d="M722.185,1235.89l-0.004,-40.075l264.695,-152.823l41.37,23.859c-1.703,2.956 -4.058,5.536 -6.66,7.036l-289.999,167.433c-5.193,2.999 -9.406,0.569 -9.406,-5.43l0.004,0Z" style="fill:#ccd0fc;fill-rule:nonzero;"/><path d="M722.181,1212.8l88.243,50.948l-0.007,-16.979l-88.232,-50.949l-0.004,16.98Z" style="fill:#febe28;fill-rule:nonzero;"/><path d="M1089.82,1085.45l-279.404,161.313l0.007,16.979l279.401,-161.313l-0.008,-16.979l0.004,0Z" style="fill:#febe28;fill-rule:nonzero;"/><path d="M986.879,1026.01l102.942,59.441l-279.404,161.313l-88.232,-50.949l0,-16.982l264.694,-152.823Z" style="fill:#fcd956;fill-rule:nonzero;"/><path d="M984.292,891.684c8.758,0 15.436,0.529 31.592,23.962c13.658,19.806 58.443,81.603 61.099,84.552c2.659,2.952 -20.183,13.328 -20.183,13.328l-60.289,-60.715l-12.223,-61.127l0.004,0Z" style="fill:#f7a0a1;fill-rule:nonzero;"/><path d="M1067.91,995.194c0,0 -4.796,-2.573 -16.925,-2.477c-7.541,0.065 -12.251,0.534 -13.053,-1.896c-1.203,-3.648 -4.148,-10.373 -5.712,-10.323l0,17.846l35.69,-3.15Z" style="fill:#f58e8c;fill-rule:nonzero;"/><path d="M1089.16,1262.87c20.211,26.729 36.006,32.899 41.528,38.693c5.523,5.788 2.316,17.18 -11.173,19.864c-13.494,2.688 -28.15,-0.572 -36.872,-9.27c-8.715,-8.693 -14.739,-20.078 -23.636,-26.438c-8.898,-6.357 -13.451,-8.05 -14.771,-15.548c-1.317,-7.494 5.397,-29.785 5.397,-29.785l39.524,22.484l0.003,0Z" style="fill:#2c2c45;fill-rule:nonzero;"/><path d="M1079.46,1222.15c-1.893,9.707 -3.976,18.186 2.631,29.868c1.997,3.539 4.334,7.151 7.072,10.848c11.793,15.884 21.403,28.278 23.11,30.462c1.704,2.179 -8.321,9.094 -19.757,4.355c-11.442,-4.735 -21.241,-21.65 -28.682,-31.836c-3.322,-4.545 -6.575,-8.668 -9.148,-11.839c-3.472,-4.263 -5.258,-9.614 -5.047,-15.104l0.598,-15.49l29.223,-1.264Z" style="fill:#f7a0a1;fill-rule:nonzero;"/><path d="M1039.92,1300.84c20.211,26.728 36.009,32.899 41.531,38.69c5.527,5.791 2.316,17.179 -11.177,19.867c-13.49,2.688 -28.149,-0.576 -36.868,-9.27c-8.719,-8.693 -14.742,-20.078 -23.636,-26.435c-8.898,-6.363 -13.45,-8.056 -14.771,-15.551c-1.317,-7.498 5.397,-29.789 5.397,-29.789l39.52,22.488l0.004,0Z" style="fill:#2c2c45;fill-rule:nonzero;"/><path d="M1030.22,1260.12c-1.897,9.71 -3.98,18.189 2.627,29.867c2,3.543 4.33,7.158 7.072,10.852c11.789,15.884 21.403,28.278 23.11,30.461c1.704,2.18 -8.321,9.091 -19.76,4.356c-11.439,-4.739 -21.235,-21.65 -28.676,-31.836c-3.321,-4.549 -6.574,-8.668 -9.155,-11.843c-3.468,-4.263 -5.254,-9.613 -5.043,-15.1l0.598,-15.494l29.227,-1.263Z" style="fill:#f7a0a1;fill-rule:nonzero;"/><path d="M898.333,1022.54c-15.465,31.843 -9.374,63.368 32.494,84.037c23.379,11.543 68.651,31.929 68.651,31.929c0,0 -6.521,18.092 -6.808,48.568c-0.25,26.836 6.901,85.218 6.901,85.218c0,0 17.48,8.117 30.025,0.14c0,0 5.551,-36.038 9.728,-72.652c5.222,-45.802 9.638,-72.745 7.294,-82.623c-2.069,-8.712 -20.297,-21.475 -34.191,-31.249l48.547,22.831c0,0 -10.419,14.402 -12.892,40.361c-2.996,31.385 0.794,85.286 0.794,85.286c0,0 13.823,7.724 29.997,1.271c0,0 34.165,-133.042 29.037,-151.467c-7.384,-26.5 -108.225,-66.807 -113.336,-77.183l-96.245,15.533l0.004,0Z" style="fill:#43455c;fill-rule:nonzero;"/><path d="M932.742,891.752c-31.585,2.952 -36.607,-2.108 -46.177,23.496l28.951,73.769l-17.183,33.521c4.084,6.11 52.315,32.022 94.642,1.106c0,0 12.899,-46.431 17.77,-82.09c3.185,-23.317 -17.348,-49.029 -27.573,-50.074c-3.705,-0.383 -7.416,-0.691 -11.139,-0.609l-39.291,0.881Z" style="fill:#ff522b;fill-rule:nonzero;"/><path d="M915.516,989.017c0,0 3.318,5.436 13.504,5.436c-9.041,-6.131 -16.9,-18.296 -24.28,-32.895l10.776,27.459Z" style="fill:#e73006;fill-rule:nonzero;"/><path d="M1042.83,995.123c-6.493,0.207 -6.335,-4.016 -7.982,-8.132c-1.936,-4.835 -3.704,-9.127 -3.704,-9.127l-4.338,15.637l-5.952,29.027c0,0 17.455,-0.24 30.265,0c12.806,0.239 27.408,-4.052 28.904,-13.236c0.917,-5.648 -3.45,-13.593 -16.51,-14.839c-8.135,-0.773 -16.263,0.526 -20.687,0.67l0.004,0Z" style="fill:#f7a0a1;fill-rule:nonzero;"/><path d="M1030.43,958.093c6.582,2.298 4.864,13.3 2.13,25.652c-2.735,12.351 -7.344,33.052 -8.751,38.518c-1.403,5.469 -3.246,8.84 -11.453,8.84c-8.203,0 -21.442,0.87 -27.208,0c-5.763,-0.873 -6.464,-6.006 -5.387,-17.591c1.41,-15.186 4.567,-31.815 6.181,-39.563c2.298,-11.017 3.708,-16.879 10.566,-16.876c7.96,0 27.033,-1.381 33.919,1.02l0.003,0Z" style="fill:#2c2c45;fill-rule:nonzero;"/><path d="M1030.87,991.39c-0.644,2.891 -6.564,5.307 -11.965,5.529c-5.404,0.226 -17.788,-0.111 -23.303,-1.575c-5.512,-1.463 -9.002,7.993 -3.712,16.658c5.29,8.668 17.287,11.274 31.868,10.493c0,0 7.634,-7.34 8.315,-16.009c0.676,-8.665 -1.207,-15.096 -1.207,-15.096l0.004,0Z" style="fill:#f7a0a1;fill-rule:nonzero;"/><path d="M901.196,895.08c-17.426,3.246 -24.685,19.871 -25.204,51.976c-0.519,32.104 3.605,139.022 3.98,143.768c0.373,4.745 -0.443,13.131 -8.5,18.901c-12.416,8.89 -27.43,16.023 -34.76,20.991c-9.667,6.546 0.004,17.287 11.872,18.017c11.124,0.684 28.919,-8.948 33.461,-12.713c0,0 -3.98,5.222 -5.169,9.836c-1.943,7.537 0.025,11.997 3.483,10.415c1.979,-0.913 4.377,-3.884 11.174,-12.219c11.811,-14.485 14.33,-20.988 14.481,-39.03c0.1,-12.198 1.013,-75.121 2.011,-99.062c0.616,-14.671 0.473,-46.524 0.226,-66.327c-0.244,-19.485 -3.39,-41.754 -7.055,-44.553Z" style="fill:#f7a0a1;fill-rule:nonzero;"/><path d="M1009.23,831.895c0,0 11.095,-17.677 3.204,-34.699c-7.882,-17.019 -39.671,-39.195 -75.995,-23.4c-34.56,15.028 -31.471,54.738 -31.611,72.741c-0.132,16.961 104.402,-14.642 104.402,-14.642Z" style="fill:#2c2c45;fill-rule:nonzero;"/><path d="M999.113,796.104c-5.032,-9.882 -36.997,-25.633 -67.384,-10.193c-30.382,15.44 -26.868,56.95 -26.868,85.572l0,52.649c0,7.494 17.574,17.809 34.499,11.818l-1.213,-76.836c0,0 -4.753,-46.933 9.817,-58.178c14.567,-11.238 51.149,-4.832 51.149,-4.832Z" style="fill:#2c2c45;fill-rule:nonzero;"/><path d="M938.147,837.357c-1.983,1.181 -4.807,-2.62 -7.248,-5.176c-2.437,-2.551 -10.411,-6.045 -14.384,2.334c-4.052,8.536 5.146,19.889 10.544,23.64c6.413,4.456 11.084,0.959 11.084,0.959l0.526,32.419c0,0 7.967,17.548 27.137,20.147c19.169,2.598 15.222,-13.207 8.926,-20.952l-0.029,-11.868c0,0 9.904,1.99 14.571,0.744c2.505,-0.666 8.472,-7.877 12.319,-15.945c4.32,-9.055 11.51,-25.135 5.107,-52.336c-6.875,-29.22 -38.26,-30.111 -56.975,-18.329c-18.719,11.779 -11.582,44.363 -11.582,44.363l0.004,0Z" style="fill:#f7a0a1;fill-rule:nonzero;"/><path d="M974.707,878.86c0,0 -17.749,-3.579 -23.958,-6.879c-4.152,-2.205 -7.574,-6.031 -8.579,-8.483c0,0 1.163,5.265 4.874,10.011c4.539,5.798 27.659,10.072 27.659,10.072l0,-4.721l0.004,0Z" style="fill:#f58e8c;fill-rule:nonzero;"/><path d="M974.499,836.602c0,2.04 -1.592,3.69 -3.557,3.682c-1.965,-0.003 -3.554,-1.664 -3.554,-3.7c0,-2.044 1.589,-3.694 3.554,-3.687c1.965,0.004 3.557,1.664 3.557,3.705Z" style="fill:#2c2c45;fill-rule:nonzero;"/><path d="M970.727,823.173l-7.609,4.198c-1.12,-2.183 -0.333,-4.896 1.772,-6.059c2.101,-1.16 4.717,-0.326 5.837,1.861Z" style="fill:#2c2c45;fill-rule:nonzero;"/><path d="M931.812,766.899l-2.069,12.537c-3.529,-0.69 -5.916,-4.058 -5.351,-7.519c0.573,-3.461 3.894,-5.709 7.42,-5.018Z" style="fill:#2c2c45;fill-rule:nonzero;"/><path d="M916.619,773.105l11.653,5.072c-1.532,3.249 -5.383,4.749 -8.6,3.346c-3.218,-1.399 -4.582,-5.168 -3.053,-8.418Z" style="fill:#2c2c45;fill-rule:nonzero;"/><path d="M972.084,858.591l8.113,3.043c-0.805,2.33 -3.267,3.532 -5.511,2.695c-2.245,-0.841 -3.411,-3.411 -2.606,-5.738l0.004,0Z" style="fill:#f58e8c;fill-rule:nonzero;"/><path d="M1006.22,826.133l-6.936,-5.344c1.414,-1.99 4.112,-2.398 6.031,-0.927c1.915,1.478 2.323,4.284 0.902,6.271l0.003,0Z" style="fill:#2c2c45;fill-rule:nonzero;"/><path d="M1004.08,835.589c-0.004,2.04 -1.593,3.69 -3.562,3.683c-1.965,-0.004 -3.554,-1.665 -3.554,-3.701c0,-2.044 1.589,-3.694 3.554,-3.687c1.969,0.004 3.558,1.665 3.558,3.705l0.004,0Z" style="fill:#2c2c45;fill-rule:nonzero;"/><path d="M989.26,833.975l-2.864,21.227l11.679,-1.643l-8.815,-19.584Z" style="fill:#f58e8c;fill-rule:nonzero;"/><path d="M999.281,792.93c0,0 -16.084,34.441 -63.99,29.627c0,0 -5.544,-24.012 13.353,-33.264c18.898,-9.252 41.539,-9.857 50.637,3.637Z" style="fill:#2c2c45;fill-rule:nonzero;"/><path d="M949.768,818.227c-5.616,0.715 -7.269,9.291 -5.884,16.463c1.385,7.173 -5.397,7.742 -10.676,0c-5.28,-7.738 -5.623,-19.391 -5.623,-19.391l22.183,2.928Z" style="fill:#2c2c45;fill-rule:nonzero;"/><path d="M1012.43,1085.91c0,0 -29.216,-19.728 -37.72,-23.647c0,0 16.457,-3.239 24.406,-14.044c0,0 -2.527,9.527 -6.915,14.048l68.776,46.474l-48.547,-22.831Z" style="fill:#2c2c45;fill-rule:nonzero;"/><path d="M334.549,791.355l201.771,-116.492c5.193,-2.999 9.406,-0.569 9.406,5.429l-0.004,283.922c0,5.998 -4.209,13.292 -9.406,16.288l-201.767,116.496c-5.197,2.999 -9.406,0.565 -9.406,-5.434l0,-283.917c0,-5.999 4.213,-13.293 9.406,-16.292Z" style="fill:#4860ff;fill-rule:nonzero;"/><path d="M595.138,912.582l-64.119,37.025l0,-50.944l62.738,7.244c5.955,0.691 6.578,3.676 1.381,6.675Z" style="fill:#4860ff;fill-rule:nonzero;"/><path d="M508.471,733.388l-146.077,84.341c-4.33,2.498 -7.838,8.325 -7.838,13.014c0,4.688 3.508,6.463 7.838,3.965l146.077,-84.341c4.331,-2.498 7.842,-8.328 7.842,-13.013c0,-4.689 -3.511,-6.464 -7.842,-3.966Z" style="fill:#ceeafa;fill-rule:nonzero;"/><path d="M508.525,784.297l-146.08,84.341c-4.328,2.498 -7.835,8.321 -7.835,13.013c0,4.689 3.507,6.464 7.835,3.966l146.08,-84.341c4.327,-2.502 7.834,-8.328 7.834,-13.017c0,-4.689 -3.507,-6.464 -7.834,-3.962Z" style="fill:#ceeafa;fill-rule:nonzero;"/><path d="M508.471,835.256l-146.077,84.341c-4.33,2.502 -7.838,8.328 -7.838,13.013c0,4.689 3.508,6.468 7.838,3.966l146.077,-84.341c4.331,-2.498 7.842,-8.325 7.842,-13.014c0,-4.688 -3.511,-6.463 -7.842,-3.965Z" style="fill:#ceeafa;fill-rule:nonzero;"/><path d="M508.471,886.193l-146.077,84.341c-4.33,2.502 -7.838,8.329 -7.838,13.017c0,4.693 3.508,6.464 7.838,3.962l146.077,-84.337c4.331,-2.498 7.842,-8.325 7.842,-13.014c0,-4.692 -3.511,-6.467 -7.842,-3.969Z" style="fill:#ceeafa;fill-rule:nonzero;"/><path d="M508.471,937.149l-146.077,84.341c-4.33,2.498 -7.838,8.328 -7.838,13.017c0,4.688 3.508,6.464 7.838,3.962l146.077,-84.338c4.331,-2.498 7.842,-8.325 7.842,-13.017c0,-4.688 -3.511,-6.464 -7.842,-3.965Z" style="fill:#ceeafa;fill-rule:nonzero;"/><path d="M1158.04,621.502l201.774,-116.491c5.193,-2.996 9.409,-0.566 9.409,5.433l-0.003,283.917c0,5.999 -4.216,13.293 -9.41,16.292l-201.77,116.492c-5.197,2.999 -9.402,0.569 -9.402,-5.429l0,-283.922c0,-5.998 4.212,-13.292 9.402,-16.292Z" style="fill:#4860ff;fill-rule:nonzero;"/><path d="M1331.97,563.539l-146.08,84.338c-4.327,2.498 -7.839,8.325 -7.839,13.017c0,4.688 3.512,6.46 7.839,3.962l146.08,-84.338c4.33,-2.498 7.838,-8.328 7.838,-13.017c0,-4.685 -3.508,-6.46 -7.838,-3.962Z" style="fill:#ceeafa;fill-rule:nonzero;"/><path d="M1332.02,614.444l-146.08,84.341c-4.327,2.499 -7.838,8.325 -7.838,13.018c0,4.685 3.511,6.46 7.838,3.962l146.08,-84.341c4.331,-2.499 7.838,-8.325 7.838,-13.014c0,-4.689 -3.507,-6.467 -7.838,-3.966Z" style="fill:#ceeafa;fill-rule:nonzero;"/><path d="M1331.97,665.403l-146.08,84.341c-4.327,2.502 -7.839,8.329 -7.839,13.018c0,4.688 3.512,6.463 7.839,3.962l146.08,-84.338c4.33,-2.498 7.838,-8.325 7.838,-13.017c0,-4.689 -3.508,-6.464 -7.838,-3.966Z" style="fill:#ceeafa;fill-rule:nonzero;"/><path d="M1331.97,716.344l-146.08,84.341c-4.327,2.502 -7.839,8.325 -7.839,13.014c0,4.692 3.512,6.467 7.839,3.966l146.08,-84.341c4.33,-2.499 7.838,-8.325 7.838,-13.014c0,-4.689 -3.508,-6.464 -7.838,-3.966Z" style="fill:#ceeafa;fill-rule:nonzero;"/><path d="M1331.97,767.3l-146.08,84.341c-4.327,2.498 -7.839,8.325 -7.839,13.013c0,4.689 3.512,6.464 7.839,3.966l146.08,-84.341c4.33,-2.498 7.838,-8.325 7.838,-13.017c0,-4.689 -3.508,-6.46 -7.838,-3.962Z" style="fill:#ceeafa;fill-rule:nonzero;"/><path d="M1163.34,890.141l-57.401,33.135c-3.414,1.976 -7.047,-2.219 -4.603,-5.318l62.001,-78.762l0,50.945l0.003,0Z" style="fill:#4860ff;fill-rule:nonzero;"/><path d="M1398.63,272.768l0,131.101c0,5.999 -4.205,13.293 -9.402,16.289l-157.655,91.023c-5.193,2.999 -9.406,0.565 -9.406,-5.43l0,-131.101c0,-5.999 4.213,-13.293 9.41,-16.292l157.651,-91.023c5.197,-2.996 9.402,-0.566 9.402,5.433Z" style="fill:#c6c9fc;fill-rule:nonzero;"/><path d="M1173.8,471.782l63.071,-65.543l0,50.937l-59.281,20.537c-3.593,1.245 -6.431,-3.189 -3.793,-5.931l0.003,0Z" style="fill:#c6c9fc;fill-rule:nonzero;"/><path d="M1222.17,338.315c-12.183,7.036 -22.058,24.141 -22.058,38.207c0,14.065 9.878,19.77 22.058,12.734c12.183,-7.029 22.058,-24.137 22.058,-38.203c0,-14.066 -9.879,-19.767 -22.058,-12.738Z" style="fill:#4860ff;fill-rule:nonzero;"/><path d="M1361.38,310.126l-101.961,58.872c-4.33,2.499 -7.842,8.325 -7.842,13.014c0,4.688 3.512,6.46 7.839,3.962l101.964,-58.865c4.327,-2.502 7.838,-8.329 7.838,-13.017c0,-4.689 -3.511,-6.468 -7.838,-3.966Z" style="fill:#fff;fill-rule:nonzero;"/><path d="M1361.38,351.332l-101.961,58.872c-4.33,2.502 -7.842,8.325 -7.842,13.014c0,4.688 3.512,6.464 7.839,3.962l101.964,-58.865c4.327,-2.498 7.838,-8.329 7.838,-13.017c0,-4.689 -3.511,-6.464 -7.838,-3.966Z" style="fill:#fff;fill-rule:nonzero;"/><path d="M1361.38,392.538l-101.961,58.876c-4.33,2.498 -7.842,8.321 -7.842,13.01c0,4.692 3.512,6.464 7.839,3.965l101.964,-58.868c4.327,-2.499 7.838,-8.325 7.838,-13.017c0,-4.689 -3.511,-6.464 -7.838,-3.966Z" style="fill:#fff;fill-rule:nonzero;"/><path d="M531.019,451.042l-0.003,131.101c0.003,5.999 -4.213,13.289 -9.403,16.289l-157.658,91.019c-5.19,3 -9.402,0.569 -9.402,-5.429l0,-131.098c0,-5.999 4.212,-13.293 9.405,-16.289l157.655,-91.023c5.194,-2.999 9.406,-0.565 9.406,5.43Z" style="fill:#c6c9fc;fill-rule:nonzero;"/><path d="M577.454,509.552l-61.095,7.058l0,50.941l63.787,-51.585c2.816,-2.283 0.909,-6.829 -2.692,-6.414Z" style="fill:#c6c9fc;fill-rule:nonzero;"/><path d="M354.556,516.592c-12.179,7.033 -22.058,24.138 -22.058,38.207c0,14.062 9.879,19.767 22.058,12.731c12.183,-7.029 22.062,-24.137 22.062,-38.203c0,-14.066 -9.879,-19.767 -22.062,-12.735Z" style="fill:#4860ff;fill-rule:nonzero;"/><path d="M493.768,488.4l-101.968,58.872c-4.327,2.502 -7.838,8.329 -7.838,13.014c0,4.688 3.511,6.467 7.838,3.965l101.965,-58.868c4.327,-2.502 7.838,-8.329 7.838,-13.017c0,-4.689 -3.511,-6.464 -7.838,-3.966l0.003,0Z" style="fill:#fff;fill-rule:nonzero;"/><path d="M493.768,529.606l-101.968,58.872c-4.327,2.502 -7.838,8.325 -7.838,13.014c0,4.688 3.511,6.464 7.838,3.965l101.965,-58.868c4.327,-2.499 7.838,-8.325 7.838,-13.017c0,-4.689 -3.511,-6.464 -7.838,-3.966l0.003,0Z" style="fill:#fff;fill-rule:nonzero;"/><path d="M493.768,570.812l-101.968,58.872c-4.327,2.498 -7.838,8.325 -7.838,13.017c0,4.685 3.511,6.461 7.838,3.962l101.965,-58.868c4.327,-2.499 7.838,-8.325 7.838,-13.017c0,-4.689 -3.511,-6.464 -7.838,-3.966l0.003,0Z" style="fill:#fff;fill-rule:nonzero;"/></g></svg>