<?xml version="1.0" encoding="UTF-8" standalone="no"?><!DOCTYPE svg PUBLIC "-//W3C//DTD SVG 1.1//EN" "http://www.w3.org/Graphics/SVG/1.1/DTD/svg11.dtd"><svg width="100%" height="100%" viewBox="0 0 1667 1667" version="1.1" xmlns="http://www.w3.org/2000/svg" xmlns:xlink="http://www.w3.org/1999/xlink" xml:space="preserve" xmlns:serif="http://www.serif.com/" style="fill-rule:evenodd;clip-rule:evenodd;stroke-linejoin:round;stroke-miterlimit:1.41421;"><g><ellipse cx="855.5" cy="1272.64" rx="675" ry="233" style="fill:#ccd0fc;"/><path d="M635.167,1047.36c0,0 -36.165,-8.817 -38.046,-76.533c-2.033,-73.094 8.862,-158.366 -33.792,-165.298c-42.651,-6.94 -66.585,45.363 -66.038,106.136c0.479,53.361 21.968,169.143 137.871,191.836l0.005,-56.141Z" style="fill:#2c9c8b;fill-rule:nonzero;"/><path d="M635.167,1096.54l-0.34,-0.03c-26.083,-4.748 -47.309,-19.095 -63.092,-42.64c-46.855,-69.899 -32.091,-200.375 -27.244,-223.169c0.214,-1.019 1.213,-1.664 2.236,-1.452c1.018,0.219 1.667,1.218 1.451,2.236c-4.792,22.537 -19.429,151.479 26.692,220.284c15.194,22.667 35.594,36.47 60.632,41.03c1.026,0.188 1.705,1.172 1.516,2.195c-0.166,0.909 -0.958,1.546 -1.851,1.546Z" style="fill:#fff;fill-rule:nonzero;"/><path d="M635.17,1270.39c-37.393,5.064 -98.128,4.974 -133.116,-22.617c-34.984,-27.596 -27.704,-51.374 -14.248,-61.293c13.456,-9.923 25.148,-21.26 1.995,-43.274c-23.152,-22.013 -60.365,-57.389 -72.396,-110.461c-12.034,-53.068 -6.11,-86.234 17.571,-97.295c22.979,-10.726 29.032,6.317 43.097,41.471c14.063,35.16 45.72,5.02 72.78,15.994c27.064,10.972 26,32.699 27.709,51.374c1.704,18.673 10.642,23.836 25.961,23.836c15.324,0 30.636,8.843 30.639,26.532l0.008,175.733Z" style="fill:#1bb99b;fill-rule:nonzero;"/><path d="M635.17,1208.77l-0.508,-0.071c-1.619,-0.453 -40.29,-11.707 -96.572,-63.409c-59.958,-55.078 -88.27,-137.653 -88.545,-138.479c-0.335,-0.988 0.196,-2.059 1.185,-2.391c0.987,-0.325 2.055,0.199 2.386,1.183c0.276,0.824 28.297,82.505 87.524,136.911c55.53,51.008 94.651,62.443 95.039,62.556c1.004,0.283 1.584,1.321 1.306,2.328c-0.234,0.825 -0.989,1.372 -1.815,1.372Z" style="fill:#fff;fill-rule:nonzero;"/><path d="M553.749,1158.46c-0.754,0 -1.467,-0.455 -1.758,-1.198c-12.102,-31.103 -14.844,-97.589 -14.953,-100.403c-0.042,-1.041 0.77,-1.916 1.811,-1.961c0.965,0.011 1.915,0.77 1.957,1.814c0.026,0.679 2.828,68.67 14.701,99.181c0.377,0.968 -0.106,2.063 -1.075,2.44l-0.683,0.127Z" style="fill:#fff;fill-rule:nonzero;"/><path d="M553.433,1203.18c-5.861,0 -9.916,-0.464 -10.405,-0.52c-1.034,-0.121 -1.773,-1.061 -1.649,-2.098c0.121,-1.029 1.052,-1.795 2.093,-1.644c0.351,0.03 35.44,3.998 51.559,-12.434c0.724,-0.751 1.924,-0.751 2.667,-0.03c0.742,0.727 0.754,1.927 0.026,2.666c-11.797,12.027 -32.004,14.06 -44.291,14.06Z" style="fill:#fff;fill-rule:nonzero;"/><path d="M1017.15,325.744l-319.692,184.573c-9.017,5.21 -16.33,17.87 -16.33,28.286l0,758.315c0,10.417 7.313,14.637 16.33,9.429l319.695,-184.57c9.021,-5.208 16.331,-17.876 16.331,-28.285l-0.004,-758.319c0,-10.413 -7.309,-14.637 -16.33,-9.429Z" style="fill:#f6f6fd;fill-rule:nonzero;"/><path d="M697.451,510.317l319.692,-184.573c8.068,-4.657 14.747,-1.76 16.078,6.348c-1.226,-9.719 -7.928,-20.501 -16.078,-25.204l-13.294,-7.679c-9.021,-5.208 -23.647,-5.208 -32.665,0l-319.691,184.573c-4.506,2.602 -8.591,7.071 -11.548,12.19l45.963,26.535c2.953,-5.118 7.037,-9.587 11.543,-12.19Z" style="fill:#ccd0fc;fill-rule:nonzero;"/><path d="M635.17,1270.39c0,10.413 7.31,23.078 16.331,28.281l13.298,7.679c8.154,4.707 20.852,5.118 29.885,1.312c-7.698,2.92 -13.563,-1.418 -13.563,-10.741l0,-758.315c0,-5.208 1.829,-10.978 4.787,-16.095l-45.963,-26.536c-2.953,5.117 -4.783,10.888 -4.783,16.096l0.008,758.319Z" style="fill:#c6c9fc;fill-rule:nonzero;"/><path d="M706.243,611.381l302.112,-174.425c5.412,-3.127 9.803,-0.592 9.803,5.657l0.004,561.127c0,6.249 -4.395,13.848 -9.802,16.971l-302.117,174.429c-5.408,3.122 -9.798,0.588 -9.798,-5.657l0,-561.132c0,-6.249 4.386,-13.844 9.798,-16.97Z" style="fill:#ccd0fc;fill-rule:nonzero;"/><path d="M857.299,446.796c-3.171,1.832 -5.743,6.286 -5.743,9.953c0,3.661 2.572,5.147 5.743,3.315c3.175,-1.83 5.748,-6.287 5.748,-9.949c0,-3.663 -2.573,-5.149 -5.748,-3.319Z" style="fill:#c6c9fc;fill-rule:nonzero;"/><path d="M803.04,505.166c-6.348,3.666 -11.488,12.573 -11.488,19.902c0,7.328 5.14,10.299 11.488,6.634c6.347,-3.663 11.487,-12.571 11.487,-19.898c0,-7.328 -5.143,-10.301 -11.487,-6.638Z" style="fill:#c6c9fc;fill-rule:nonzero;"/><path d="M831.133,502.685c0,4.883 3.655,6.731 8.166,4.129l75.59,-43.639c4.507,-2.606 8.165,-8.678 8.165,-13.562c-0.004,-4.884 -3.658,-6.732 -8.169,-4.13l-75.586,43.643c-4.511,2.602 -8.166,8.67 -8.166,13.559Z" style="fill:#c6c9fc;fill-rule:nonzero;"/><path d="M660.59,635.665c5.077,2.93 9.195,10.057 9.195,15.918c0,5.861 -4.118,8.237 -9.195,5.307c-5.076,-2.931 -9.192,-10.058 -9.192,-15.919c0,-5.861 4.116,-8.237 9.192,-5.306Z" style="fill:#f6f6fd;fill-rule:nonzero;"/><path d="M660.59,706.473c5.077,2.935 9.195,10.062 9.195,15.923c0,5.861 -4.118,8.237 -9.195,5.306c-5.076,-2.93 -9.192,-10.058 -9.192,-15.919c0,-5.865 4.116,-8.236 9.192,-5.31Z" style="fill:#f6f6fd;fill-rule:nonzero;"/><path d="M657.753,637.082c5.077,2.931 9.192,10.059 9.192,15.92c0,5.861 -4.115,8.24 -9.192,5.306c-5.079,-2.93 -9.19,-10.059 -9.19,-15.919c0,-5.86 4.114,-8.237 9.19,-5.307Z" style="fill:#ccd0fc;fill-rule:nonzero;"/><path d="M657.753,707.895c5.077,2.93 9.192,10.058 9.192,15.923c0,5.861 -4.115,8.237 -9.192,5.306c-5.079,-2.934 -9.19,-10.062 -9.19,-15.923c0,-5.861 4.114,-8.237 9.19,-5.306Z" style="fill:#ccd0fc;fill-rule:nonzero;"/><path d="M1079.44,460.354c0,-6.249 -4.387,-8.78 -9.803,-5.658l-36.16,20.879l-265.952,153.55c-5.412,3.122 -9.799,10.722 -9.799,16.971l0.004,561.127c0,6.249 4.386,8.78 9.798,5.657l266.043,-153.606l36.07,-20.819c5.412,-3.125 9.802,-10.726 9.802,-16.971l-0.003,-561.13Z" style="fill:#ccd0fc;fill-rule:nonzero;"/><path d="M763.145,1216.11c-1.255,0 -2.436,-0.301 -3.488,-0.909c-2.459,-1.422 -3.813,-4.254 -3.813,-7.976l-0.003,-561.127c0,-6.954 4.718,-15.127 10.741,-18.605l265.953,-153.548l1.885,3.266l-265.952,153.548c-4.801,2.773 -8.856,9.795 -8.856,15.339l0.004,561.127c0,2.285 0.702,4.002 1.927,4.71c1.226,0.706 3.062,0.452 5.042,-0.686l266.044,-153.603l1.886,3.263l-266.044,153.602c-1.844,1.068 -3.654,1.599 -5.326,1.599Z" style="fill:#f6f6fd;fill-rule:nonzero;"/><path d="M1034.52,1060.91l-1.886,-3.263l36.07,-20.822c4.801,-2.776 8.859,-9.798 8.859,-15.338l-0.004,-561.13c0,-2.287 -0.705,-4.002 -1.927,-4.708c-1.218,-0.704 -3.063,-0.459 -5.046,0.683l-36.161,20.879l-1.885,-3.266l36.16,-20.879c3.221,-1.859 6.355,-2.108 8.817,-0.686c2.456,1.422 3.813,4.254 3.813,7.977l0.005,561.13c0,6.95 -4.719,15.123 -10.746,18.6l-36.069,20.823Z" style="fill:#f6f6fd;fill-rule:nonzero;"/><path d="M918.581,590.754c33.845,-19.54 61.278,-3.699 61.278,35.38c0,39.075 -27.433,86.596 -61.278,106.135c-33.841,19.54 -61.278,3.7 -61.278,-35.379c0,-39.076 27.437,-86.599 61.278,-106.136Z" style="fill:#ceeafa;fill-rule:nonzero;"/><path d="M918.581,621.511c10.979,-6.344 19.883,-1.203 19.883,11.476c0,12.675 -8.904,28.093 -19.883,34.433c-10.978,6.336 -19.879,1.199 -19.879,-11.48c0,-12.676 8.901,-28.094 19.879,-34.429Z" style="fill:#f6f6fd;fill-rule:nonzero;"/><path d="M957.333,689.109c0,-20.829 -14.626,-29.27 -32.665,-18.857l-11.276,6.51c-18.035,10.413 -32.661,35.741 -32.661,56.571l0,5.604c10.428,3.463 23.553,1.588 37.85,-6.668c14.705,-8.489 28.191,-22.266 38.752,-38.328l0,-4.832Z" style="fill:#f6f6fd;fill-rule:nonzero;"/><path d="M800.015,818.45l78.853,-45.525c3.609,-2.085 6.532,-0.396 6.532,3.771l0,2.603c0,4.168 -2.923,9.232 -6.532,11.315l-78.853,45.524c-3.605,2.086 -6.532,0.396 -6.532,-3.771l0,-2.602c0,-4.168 2.927,-9.233 6.532,-11.315Z" style="fill:#ceeafa;fill-rule:nonzero;"/><path d="M796.749,873.404l238.58,-137.744c1.806,-1.041 3.269,-0.2 3.269,1.886l0,27.836c0,2.082 -1.463,4.616 -3.269,5.657l-238.58,137.748c-1.803,1.037 -3.266,0.196 -3.266,-1.886l0,-27.84c0,-2.083 1.463,-4.613 3.266,-5.657Z" style="fill:#f6f6fd;fill-rule:nonzero;"/><path d="M800.015,942.277l78.853,-45.525c3.609,-2.085 6.532,-0.396 6.532,3.771l0,2.603c0,4.168 -2.923,9.232 -6.532,11.315l-78.853,45.524c-3.605,2.085 -6.532,0.396 -6.532,-3.771l0,-2.603c0,-4.168 2.927,-9.229 6.532,-11.314Z" style="fill:#ceeafa;fill-rule:nonzero;"/><path d="M796.749,997.232l238.58,-137.744c1.806,-1.041 3.269,-0.2 3.269,1.886l0,27.836c0,2.082 -1.463,4.616 -3.269,5.657l-238.58,137.744c-1.803,1.041 -3.266,0.2 -3.266,-1.885l0,-27.837c0,-2.083 1.463,-4.613 3.266,-5.657Z" style="fill:#f6f6fd;fill-rule:nonzero;"/><path d="M891.936,1013.04l94.173,-54.368c3.609,-2.086 6.532,-0.396 6.532,3.771l0,29.134c0,4.168 -2.923,9.232 -6.532,11.315l-94.173,54.372c-3.61,2.082 -6.536,0.396 -6.536,-3.772l0,-29.138c0,-4.167 2.926,-9.231 6.536,-11.314Z" style="fill:#4860ff;fill-rule:nonzero;"/><path d="M1086.95,835.294c0,0 -52.199,-72.009 -55.382,-80.58c-2.404,-6.459 0.167,-16.066 0.761,-20.533c0.595,-4.461 1.458,-14.404 2.202,-17.171c1.299,-4.828 -4.96,-3.837 -8.47,0.552c-3.595,4.496 -4.746,13.271 -6.535,14.715c-1.785,1.446 -15.735,-18.819 -23.014,-28.198c-7.275,-9.378 -11.827,-15.03 -16.25,-11.554c-3.187,2.508 -0.816,7.967 4.458,15.957c5.277,7.984 7.615,11.685 8.408,13.398c0.795,1.716 -3.543,1.852 -5.885,5.456c-1.822,2.813 -0.122,7.368 -2.54,9.536c-2.427,2.174 -4.683,6.08 -2.027,10.479c3.382,5.609 10.168,13.618 17.974,19.028c7.802,5.409 10.968,7.308 15.57,14.664c4.606,7.356 46.199,82.455 48.991,86.959c2.783,4.504 8.205,13.683 16.41,13.946c8.215,0.268 75.337,-57.535 78.796,-60.416c11.065,-9.226 14.554,-10.582 16.463,-2.27c0.598,2.6 0.989,5.566 1.406,8.914c1.33,10.522 8.494,48.18 8.494,48.18c0,0 33.953,16.453 61.909,8.341c27.957,-8.107 37.331,-19.784 37.331,-19.784l-13.985,-22.794c3.807,-9.408 21.391,-47.456 26.911,-74.121l-87.536,-14.134c-1.798,-0.391 -4.666,-1.108 -8.329,-2.074c-4.807,-1.265 -16.887,-5.51 -26.206,2.593c-30.124,26.201 -89.925,80.911 -89.925,80.911Z" style="fill:#f7a7a8;fill-rule:nonzero;"/><path d="M1260.5,1276.97l-15.693,21.808c0,0 7.266,4.262 22.793,4.848c14.04,0.536 17.903,-4.075 18.421,-5.18c2.367,-5.086 -1.33,-14.261 -2.345,-22.139l-23.176,0.663Z" style="fill:#2c2c45;fill-rule:nonzero;"/><path d="M1245.69,1288.3c0,0 -19.015,-1.211 -32.168,-2.868c-13.151,-1.658 -23.554,4.758 -20.456,10.177c3.089,5.409 10.322,9.914 21.592,13.7c9.653,3.251 21.224,5.613 31.305,8.631c10.329,3.089 16.941,6.629 22.792,4.614c6.524,-2.248 9.328,-4.853 8.771,-9.604c-0.553,-4.75 -5.282,-20.047 -5.282,-20.047l-26.554,-4.603Z" style="fill:#2c2c45;fill-rule:nonzero;"/><path d="M1286.03,1255.05c0,0 -2.38,19.806 -2.563,24.06c-0.182,4.249 -19.329,5.613 -22.958,-2.151l-0.596,-24.216l26.117,2.307Z" style="fill:#f49090;fill-rule:nonzero;"/><path d="M1266.71,1267.24l6.851,30.047c0,0 0.645,3.667 -15.009,5.996c-15.656,2.336 -40.195,-8.184 -44.376,-10.321c-4.177,-2.142 -4.674,-6.396 10.696,-5.546c15.369,0.855 20.817,0.884 20.817,0.884l-4.989,-13.318l26.01,-7.742Z" style="fill:#f7a7a8;fill-rule:nonzero;"/><path d="M1298.94,767.998l10.818,-2.987c0,0 22.67,71.673 25.173,78.574c2.508,6.905 5.334,14.265 0.46,22.806c-5.809,10.165 -36.451,51.091 -36.451,51.091l-19.45,-19.033l22.064,-40.429l-19.518,-39.545l16.904,-50.477Z" style="fill:#f49090;fill-rule:nonzero;"/><path d="M1187.54,674.835c0,0 -8.676,-13.886 0.46,-30.892c10.772,-20.036 34.848,-29.81 63.502,-26.062c13.236,1.733 28.861,12.599 37.428,29.193c9.417,18.221 10.296,54.949 12.634,68.836l-114.024,-41.075Z" style="fill:#2c2c45;fill-rule:nonzero;"/><path d="M1186.89,682.675c0,0 -6.807,12.964 -5.63,14.142c1.182,1.177 5.72,2.133 5.72,2.133l-0.09,-16.275Z" style="fill:#f7a7a8;fill-rule:nonzero;"/><path d="M1207.55,641.698c-7.402,4.828 -20.146,13.654 -20.708,42.779c-0.572,29.898 3.651,39.536 8.07,42.999c2.983,2.337 20.436,1.156 27.931,-0.607c7.491,-1.76 29.044,-12.405 36.799,-28.59c9.12,-19.045 7.276,-46.931 -6.301,-55.021c-19.101,-11.397 -39.523,-5.643 -45.791,-1.56Z" style="fill:#f7a7a8;fill-rule:nonzero;"/><path d="M1286.02,864.913c13.105,20.392 25.56,38.355 28.215,61.27c5.614,48.401 -12.799,103.732 -16.703,139.52c0,0 12.366,16.075 12.352,34.968c-0.008,14.788 -23.86,154.383 -23.86,154.383c0,0 -17.35,5.286 -26.116,-2.307l-16.394,-256.805l8.634,-31.263l33.872,-99.766Z" style="fill:#43455c;fill-rule:nonzero;"/><path d="M1243.52,995.939l8.634,-31.262c0,0 23.942,-5.788 46.799,-18.561c0,0 -8.86,16.087 -34.233,24.909l-13.215,40.19l-1.139,91.969l-6.846,-107.245Z" style="fill:#2c2c45;fill-rule:nonzero;"/><path d="M1286.02,864.913c7.011,11.443 23.771,31.011 20.21,49.815c-4.322,22.784 -16.581,38.801 -54.082,49.951l-35.171,127.374c0,0 18.314,17.141 23.915,33.442c5.592,16.3 25.823,141.746 25.823,141.746c0,0 -6.254,10.216 -26.01,7.742c0,0 -68.882,-157.332 -73.752,-167.463c-4.861,-10.13 -8.014,-17.702 -5.829,-34.203c2.192,-16.495 25.657,-196.961 25.657,-196.961l99.239,-11.443Z" style="fill:#43455c;fill-rule:nonzero;"/><path d="M1298.94,767.998l-87.536,-14.134c-1.793,-0.391 -4.683,-1.117 -8.342,-2.077l-0.009,-0.005c0,0 -3.731,54.885 -26.179,67.48l-0.005,0c0.531,2.617 0.994,5.563 1.411,8.914c1.33,10.522 8.494,48.18 8.494,48.18c0,0 33.953,16.453 61.909,8.341c27.957,-8.107 37.331,-19.784 37.331,-19.784l-13.985,-22.794c3.807,-9.408 21.391,-47.456 26.911,-74.121Z" style="fill:#ff522b;fill-rule:nonzero;"/><path d="M1275.85,833.157c-0.357,0.824 -28.139,15.71 -36.391,17.987c13.011,-0.64 23.826,-3.7 32.575,-9.025l3.816,-8.962Z" style="fill:#e73006;fill-rule:nonzero;"/><path d="M1205.36,643.169c0,0 -4.08,27.634 5.805,43.84c0,0 3.709,-11.002 13.054,-8.897c9.408,2.115 9.798,14.333 3.268,21.258c-6.536,6.927 -13.807,4.424 -13.807,4.424c0,0 -1.466,19.973 -2.256,36.715c-0.761,16.139 -5.26,53.239 13.581,68.155c18.846,14.92 66.073,19.955 88.208,-10.989c12.318,-17.214 -4.046,-47.644 -11.651,-81.765c-6.999,-31.373 -10.934,-77.866 -44.224,-85.323c-33.284,-7.458 -51.978,12.582 -51.978,12.582Z" style="fill:#2c2c45;fill-rule:nonzero;"/><path d="M490.252,566.538c-17.175,13.502 -22.406,16.451 -25.513,-1.588c-3.104,-18.042 6.943,-45.547 24.118,-59.052c17.174,-13.502 23.767,-14.513 26.871,3.526c3.107,18.042 -8.297,43.612 -25.476,57.114Zm68.391,-77.499l-4.05,-23.514l-20.985,13.807c-2.1,-4.02 -4.801,-7.248 -7.976,-9.686l10.039,-27.161l-18.695,-4.179l-13.81,26.313c-4.575,0.706 -9.407,2.252 -14.385,4.688l-5.977,-19.837l-22.387,17.601l1.467,23.383c-4.534,5.042 -8.682,10.556 -12.382,16.357l-18.495,-0.913l-12.969,29.073l15.884,6.774c-1.678,6.253 -2.757,12.457 -3.138,18.423l-20.165,18.544l4.05,23.515l20.98,-13.807c2.101,4.021 4.802,7.249 7.981,9.688l-10.044,27.159l18.695,4.178l19.755,-19.26c4.579,-0.706 3.462,-9.304 8.445,-11.741l5.973,19.839l22.391,-17.602l-0.577,-9.198c4.529,-5.039 21.641,-16.165 25.34,-21.966l4.646,-7.662l12.967,-29.075l-6.042,-10.945l-6.701,-14.252l20.165,-18.544Z" style="fill:#1f47b6;fill-rule:nonzero;"/><path d="M516.976,438.306l24.462,14.105l-13.811,26.314l-24.461,-14.106l13.81,-26.313Z" style="fill:#4f8cef;fill-rule:nonzero;"/><path d="M579.05,479.626l-20.98,13.811l-24.462,-14.105l20.985,-13.807l24.457,14.101Z" style="fill:#4f8cef;fill-rule:nonzero;"/><path d="M575.682,546.885l-15.885,-6.773l-24.458,-14.106l15.882,6.774l24.461,14.105Z" style="fill:#afd3f0;fill-rule:nonzero;"/><path d="M433.586,625.267l24.458,14.102l10.044,-27.156l-24.458,-14.105l-10.044,27.159Z" style="fill:#4f8cef;fill-rule:nonzero;"/><path d="M510.916,632.383l-24.462,-14.1l-5.973,-19.839l24.457,14.105l5.978,19.834Z" style="fill:#4f8cef;fill-rule:nonzero;"/><path d="M514.714,580.643c-17.175,13.506 -33.619,9.829 -36.727,-8.214c-3.107,-18.039 8.302,-43.609 25.476,-57.111c17.175,-13.505 33.618,-9.828 36.727,8.211c3.103,18.039 -8.302,43.612 -25.476,57.114Zm68.387,-77.502l-4.051,-23.515l-20.98,13.811c-2.1,-4.02 -4.805,-7.249 -7.981,-9.689l10.044,-27.158l-18.695,-4.179l-13.811,26.314c-4.578,0.705 -9.41,2.247 -14.388,4.683l-5.978,-19.833l-22.387,17.601l1.463,23.383c-4.529,5.039 -8.673,10.556 -12.373,16.357l-18.5,-0.913l-12.969,29.074l15.885,6.773c-1.678,6.253 -2.757,12.457 -3.138,18.428l-20.166,18.539l4.051,23.515l20.98,-13.806c2.101,4.02 4.804,7.248 7.981,9.687l-10.044,27.156l18.695,4.182l13.812,-26.317c4.574,-0.701 9.405,-2.248 14.387,-4.685l5.978,19.834l22.387,-17.601l-1.467,-23.379c4.533,-5.042 8.682,-10.556 12.382,-16.36l18.494,0.912l12.97,-29.07l-15.885,-6.773c1.678,-6.257 2.757,-12.457 3.134,-18.427l20.17,-18.544Z" style="fill:#2361dc;fill-rule:nonzero;"/><path d="M507.261,463.575l-24.457,-14.105l-22.387,17.601l24.457,14.105l22.387,-17.601Z" style="fill:#4f8cef;fill-rule:nonzero;"/><path d="M460.417,467.071l1.467,23.383l24.453,14.105l-1.463,-23.383l-24.457,-14.105Z" style="fill:#afd3f0;fill-rule:nonzero;"/><path d="M473.964,520.916l-24.462,-14.105l-18.495,-0.913l24.457,14.105l18.5,0.913Z" style="fill:#4f8cef;fill-rule:nonzero;"/><path d="M431.007,505.898l-12.969,29.073l24.457,14.106l12.969,-29.074l-24.457,-14.105Z" style="fill:#4f8cef;fill-rule:nonzero;"/><path d="M455.242,574.278l-24.458,-14.11l-20.165,18.544l24.457,14.105l20.166,-18.539Z" style="fill:#4f8cef;fill-rule:nonzero;"/><path d="M439.127,616.332l-24.458,-14.105l-4.05,-23.515l24.457,14.105l4.051,23.515Z" style="fill:#4f8cef;fill-rule:nonzero;"/><path d="M541.438,452.411l-24.462,-14.105l18.695,4.179l24.462,14.105l-18.695,-4.179Z" style="fill:#4f8cef;fill-rule:nonzero;"/><path d="M351.264,470.072c-23.334,13.472 -37.838,3.916 -37.838,-23.031c0,-26.943 19.283,-59.951 42.62,-73.418c23.334,-13.475 37.469,-3.674 37.469,23.27c0,26.946 -18.917,59.709 -42.251,73.179Zm97.797,-87.688l0,-35.12l-27.951,12.6c-1.685,-6.487 -4.254,-12.049 -7.55,-16.635l17.609,-35.508l-21.508,-12.419l-21.946,33.007c-5.619,-0.562 -11.718,-0.007 -18.178,1.78l-3.067,-30.507l-30.412,17.56l-3.067,34.044c-6.459,5.676 -12.559,12.16 -18.181,19.216l-21.943,-7.668l-21.507,37.251l17.608,15.176c-3.296,8.396 -5.865,16.923 -7.551,25.351l-27.95,19.676l0,35.119l27.95,-12.6c1.686,6.487 4.255,12.05 7.551,16.636l-17.608,35.508l21.507,12.419l21.943,-33.007c5.622,0.561 11.722,0.008 18.181,-1.78l3.067,30.506l30.412,-17.559l3.067,-34.045c9.063,-3.024 18.758,-10.04 24.382,-17.092l15.742,5.544l21.508,-37.25l-13.196,-11.371c3.296,-8.399 3.647,-21.817 3.137,-29.156l27.951,-19.676Z" style="fill:#1f47b6;fill-rule:nonzero;"/><path d="M434.123,309.407l-24.462,-14.105l-21.946,33.007l24.457,14.105l21.951,-33.007Z" style="fill:#4f8cef;fill-rule:nonzero;"/><path d="M473.518,361.369l-24.457,-14.105l-27.951,12.6l24.458,14.102l27.95,-12.597Z" style="fill:#4f8cef;fill-rule:nonzero;"/><path d="M360.515,557.094l-24.457,-14.105l-3.067,-30.506l24.462,14.105l3.062,30.506Z" style="fill:#4f8cef;fill-rule:nonzero;"/><path d="M271.36,534.851l24.457,14.105l17.609,-35.508l-24.458,-14.105l-17.608,35.508Z" style="fill:#4f8cef;fill-rule:nonzero;"/><path d="M375.722,484.178c-23.334,13.471 -42.252,2.549 -42.252,-24.393c0,-26.944 18.918,-59.709 42.252,-73.181c23.334,-13.472 42.251,-2.55 42.251,24.394c0,26.942 -18.917,59.705 -42.251,73.18Zm97.796,-87.689l0,-35.12l-27.95,12.597c-1.685,-6.483 -4.254,-12.047 -7.55,-16.632l17.609,-35.508l-21.504,-12.419l-21.951,33.007c-5.619,-0.562 -11.717,-0.007 -18.178,1.776l-3.062,-30.503l-30.417,17.56l-3.062,34.044c-6.46,5.673 -12.559,12.16 -18.182,19.212l-21.949,-7.664l-21.505,37.255l17.609,15.173c-3.297,8.395 -5.861,16.917 -7.548,25.351l-27.949,19.675l0,35.119l27.949,-12.6c1.687,6.487 4.251,12.047 7.548,16.636l-17.609,35.508l21.505,12.415l21.949,-33.003c5.623,0.561 11.722,0.003 18.182,-1.78l3.062,30.506l30.417,-17.559l3.062,-34.045c6.461,-5.672 12.559,-12.163 18.178,-19.212l21.951,7.661l21.504,-37.251l-17.609,-15.172c3.296,-8.395 5.865,-16.919 7.55,-25.351l27.95,-19.676Z" style="fill:#2361dc;fill-rule:nonzero;"/><path d="M314.81,370.402l24.461,14.101l-21.949,-7.664l-24.455,-14.105l21.943,7.668Z" style="fill:#4f8cef;fill-rule:nonzero;"/><path d="M295.817,414.094l-24.457,-14.109l21.507,-37.251l24.455,14.105l-21.505,37.255Z" style="fill:#4f8cef;fill-rule:nonzero;"/><path d="M271.36,399.985l24.457,14.109l17.609,15.173l-24.458,-14.106l-17.608,-15.176Z" style="fill:#4f8cef;fill-rule:nonzero;"/><path d="M281.417,440.512l24.461,14.106l-27.949,19.675l-24.462,-14.105l27.95,-19.676Z" style="fill:#4f8cef;fill-rule:nonzero;"/><path d="M253.467,460.188l24.462,14.105l0,35.119l-24.462,-14.105l0,-35.119Z" style="fill:#4f8cef;fill-rule:nonzero;"/><path d="M390.932,313.687l-24.462,-14.105l-30.412,17.56l24.457,14.105l30.417,-17.56Z" style="fill:#4f8cef;fill-rule:nonzero;"/></g></svg>