<?xml version="1.0" encoding="UTF-8" standalone="no"?><!DOCTYPE svg PUBLIC "-//W3C//DTD SVG 1.1//EN" "http://www.w3.org/Graphics/SVG/1.1/DTD/svg11.dtd"><svg width="100%" height="100%" viewBox="0 0 1667 1667" version="1.1" xmlns="http://www.w3.org/2000/svg" xmlns:xlink="http://www.w3.org/1999/xlink" xml:space="preserve" xmlns:serif="http://www.serif.com/" style="fill-rule:evenodd;clip-rule:evenodd;stroke-linejoin:round;stroke-miterlimit:1.41421;"><g><ellipse cx="833.5" cy="1277.64" rx="675" ry="233" style="fill:#ccd0fc;"/><path d="M1241.36,1062.6c1.411,-17.499 14.895,-47.343 34.873,-68.6c19.985,-21.256 51.946,-31.497 71.663,-22.928c18.364,7.975 14.326,32.588 -9.909,47.163c-24.227,14.571 -60.328,32.425 -72.685,59.996l-23.942,33.115l0,-48.746Z" style="fill:#00b2a7;fill-rule:nonzero;"/><path d="M1243.98,1097.78l0,-10.502c11.621,-63.512 76.685,-102.377 96.534,-106.158c0.99,-0.191 1.641,-1.146 1.45,-2.136c-0.168,-0.877 -0.932,-1.485 -1.797,-1.485c-0.113,0 -0.226,0.007 -0.339,0.027c-18.914,3.606 -77.655,38.05 -95.848,94.811l0,-22.828c5.029,-17.097 16.665,-38.919 32.254,-55.506c15.195,-16.161 37.316,-25.957 55.712,-25.957c5.796,0 11.226,0.974 15.951,3.029c7.691,3.34 11.457,9.605 11.445,16.82c-0.008,10.014 -7.27,21.872 -21.354,30.343c-17.097,10.28 -40.1,22.2 -56.508,38.007c-15.553,7.679 -31.29,22.095 -37.5,41.535Z" style="fill:#2c9c8b;fill-rule:nonzero;"/><path d="M1241.36,1093.94l-0.246,-0.016c-1.002,-0.132 -1.699,-1.052 -1.567,-2.054c9.211,-68.342 79.28,-110.341 100.276,-114.344c1.002,-0.179 1.949,0.468 2.136,1.458c0.191,0.99 -0.46,1.945 -1.45,2.136c-20.372,3.879 -88.379,44.723 -97.344,111.233c-0.121,0.92 -0.905,1.587 -1.805,1.587Z" style="fill:#fff;fill-rule:nonzero;"/><path d="M1243.98,1141.35c3.598,-9.609 18.863,-26.838 40.97,-35.344c22.102,-8.498 38.701,-16.107 46.641,-29.801c7.941,-13.695 -5.937,-27.167 -28.23,-26.208c-22.298,0.967 -59.349,24.305 -62,61.357l2.619,29.996Z" style="fill:#00b2a7;fill-rule:nonzero;"/><path d="M1242.39,1124.96l-0.359,-0.035c-0.99,-0.198 -1.633,-1.157 -1.438,-2.148c6.595,-33.13 55.311,-61.672 73.971,-63.508c1.017,-0.047 1.902,0.635 2,1.645c0.101,1.002 -0.636,1.894 -1.641,1.996c-17.858,1.754 -64.46,28.986 -70.744,60.581c-0.171,0.869 -0.935,1.469 -1.789,1.469Z" style="fill:#fff;fill-rule:nonzero;"/><path d="M1214.28,1141.35c-1.906,-4.483 -11.566,-8.233 -24.332,-4.635c-9.363,2.639 -20.672,0.644 -28.035,-5.874c-4.226,-3.727 -6.822,-9.858 -7.446,-15.347c-0.557,-4.822 0.094,-12.158 -2.666,-16.283c-2.039,-3.036 -5.929,-4.213 -9.558,-4.654c-3.633,-0.444 -7.419,-0.39 -10.767,-1.863c-2.495,-1.096 -4.608,-3.014 -5.941,-5.388c-3.208,-5.722 -1.571,-12.922 -3.224,-19.264c-1.177,-4.499 -4.081,-8.518 -7.979,-11.044c-5.528,-3.574 -19.37,-7.671 -13.449,-16.976c5.068,-7.964 17.639,-8.311 25.576,-5.73c9.363,3.044 17.44,8.716 25.825,13.776c2.413,1.454 4.853,2.927 7.539,3.781c5.582,1.766 11.66,-0.756 17.246,-1.583c6.061,-0.892 12.357,-0.912 18.052,1.634c14.146,6.295 8.985,17.686 19.155,21.135c0,0 9.824,6.557 8.448,27.26c-1.384,20.699 -8.444,41.055 -8.444,41.055Z" style="fill:#00b2a7;fill-rule:nonzero;"/><path d="M1214.28,1141.34c-1.376,-3.223 -6.763,-6.061 -14.431,-6.061c-2.986,0 -6.322,0.429 -9.897,1.434c-2.678,0.757 -5.508,1.131 -8.358,1.131c-7.141,0 -14.415,-2.351 -19.677,-7.005c-4.226,-3.727 -6.822,-9.858 -7.446,-15.347c-0.557,-4.822 0.094,-12.158 -2.666,-16.283c-2.039,-3.036 -5.929,-4.213 -9.558,-4.654c-3.633,-0.444 -7.419,-0.39 -10.767,-1.863c-2.495,-1.096 -4.608,-3.014 -5.941,-5.388c-3.208,-5.722 -1.571,-12.922 -3.224,-19.264c-1.177,-4.499 -4.081,-8.518 -7.979,-11.044c-4.58,-2.966 -14.879,-6.287 -14.895,-12.637c0,-1.314 0.437,-2.749 1.446,-4.339c3.318,-5.216 9.851,-7.165 16.197,-7.165c3.349,0 6.635,0.546 9.379,1.435c9.363,3.044 17.44,8.716 25.825,13.776c2.413,1.454 4.853,2.927 7.539,3.781c1.396,0.44 2.819,0.616 4.261,0.616c4.327,0 8.79,-1.575 12.985,-2.199c2.272,-0.335 4.58,-0.545 6.872,-0.545c3.824,0 7.617,0.588 11.18,2.179c14.146,6.295 8.985,17.686 19.155,21.135l0,68.307Z" style="fill:#2c9c8b;fill-rule:nonzero;"/><path d="M1219.72,1122.91c-0.807,0 -1.544,-0.534 -1.762,-1.345c-7.04,-25.845 -89.104,-75.643 -104.474,-77.433c-1.002,-0.12 -1.719,-1.025 -1.606,-2.027c0.125,-1.001 1.045,-1.703 2.027,-1.606c16.135,1.879 100.026,52.38 107.581,80.107c0.261,0.971 -0.312,1.984 -1.282,2.242l-0.484,0.062Z" style="fill:#fff;fill-rule:nonzero;"/><path d="M1139.28,1078.03c-0.698,0 -1.372,-0.406 -1.672,-1.088c-0.409,-0.92 0.008,-2.003 0.932,-2.409c0.623,-0.277 15.389,-6.697 29.314,-5.504c1.005,0.086 1.75,0.975 1.664,1.976c-0.09,1.01 -0.967,1.743 -1.976,1.665c-13.036,-1.099 -27.377,5.145 -27.521,5.204l-0.741,0.156Z" style="fill:#fff;fill-rule:nonzero;"/><path d="M1186.1,1085.83c-0.846,0 -1.602,-0.589 -1.786,-1.446c-2.451,-11.5 1.579,-25.533 1.755,-26.126c0.28,-0.966 1.274,-1.528 2.261,-1.239c0.974,0.28 1.528,1.298 1.247,2.265c-0.043,0.136 -3.945,13.752 -1.688,24.336c0.211,0.99 -0.421,1.96 -1.407,2.171l-0.382,0.039Z" style="fill:#fff;fill-rule:nonzero;"/><path d="M464.577,778.483c-4.101,-2.366 -7.422,-8.377 -7.422,-13.421l0,-97.68c0,-5.048 3.715,-10.852 8.295,-12.965l131.867,-60.909c4.584,-2.116 11.62,-1.91 15.721,0.457c4.101,2.366 7.422,8.373 7.422,13.417l0,97.68c0,5.048 -3.715,10.852 -8.295,12.969l-131.867,60.908c-4.584,2.117 -11.62,1.91 -15.721,-0.456Z" style="fill:#4f8cef;fill-rule:nonzero;"/><path d="M486.847,675.389l-27.185,-15.698c-1.544,2.374 -2.507,5.13 -2.507,7.691l0,97.68c0,5.044 3.321,11.055 7.422,13.421c4.101,2.366 11.137,2.569 15.721,0.456l6.549,-3.025l0,-100.525Z" style="fill:#1f47b6;fill-rule:nonzero;"/><path d="M480.298,662.985l131.867,-60.905c4.58,-2.116 8.295,0.258 8.295,5.302l0,97.68c0,5.048 -3.715,10.852 -8.295,12.969l-131.867,60.908c-4.584,2.117 -8.295,-0.265 -8.295,-5.309l0,-97.676c0,-5.044 3.711,-10.852 8.295,-12.969Z" style="fill:#2361dc;fill-rule:nonzero;"/><path d="M509.402,932.245l0,223.714c0,1.883 -1.337,4.199 -2.97,5.142l-7.988,4.612c-1.633,0.943 -4.307,0.943 -5.937,-0.004l-7.983,-4.604c-1.633,-0.947 -2.97,-3.263 -2.97,-5.146l0,-223.714c0,-5.555 4.498,-10.057 10.057,-10.057l7.734,0c5.555,0 10.057,4.502 10.057,10.057Z" style="fill:#4f8cef;fill-rule:nonzero;"/><path d="M488.512,922.188c3.851,0 6.966,3.118 6.966,6.962l-0.004,235.245c0,1.668 -1.177,2.351 -2.623,1.516l-8.444,-4.876c-1.571,-0.908 -2.853,-3.13 -2.853,-4.943l0,-226.942c0,-3.844 3.118,-6.962 6.958,-6.962Z" style="fill:#1f47b6;fill-rule:nonzero;"/><path d="M660.022,1010.78l0,230.341c0,1.898 -1.329,4.198 -2.966,5.142l-7.991,4.615c-1.642,0.943 -4.3,0.943 -5.937,0l-7.988,-4.615c-1.637,-0.94 -2.966,-3.244 -2.966,-5.142l0,-230.341c0,-1.895 1.532,-3.43 3.426,-3.43l20.992,0.004c1.894,0 3.43,1.535 3.43,3.426Z" style="fill:#334fa2;fill-rule:nonzero;"/><path d="M635.6,1007.35l7.068,0c1.894,0 3.43,1.535 3.43,3.43l0,238.379c0,1.898 -1.333,2.662 -2.97,1.719l-7.988,-4.615c-1.637,-0.94 -2.966,-3.244 -2.966,-5.142l0,-230.341c0,-1.895 1.532,-3.43 3.426,-3.43Z" style="fill:#4063ae;fill-rule:nonzero;"/><path d="M481.554,927.462l0,3.072c0,5.048 3.317,11.538 7.406,14.497l149.728,104.392c4.089,2.955 10.95,3.306 15.323,0.784l188.378,-108.758c4.37,-2.522 7.909,-8.662 7.909,-13.71l0,-3.154c0,-5.052 -3.715,-10.856 -8.295,-12.973l-185.22,-85.923c-4.584,-2.116 -11.839,-1.785 -16.209,0.741l-151.107,87.318c-4.37,2.523 -7.913,8.666 -7.913,13.714Z" style="fill:#1f47b6;fill-rule:nonzero;"/><path d="M489.467,913.748l151.107,-87.318c4.37,-2.526 11.625,-2.857 16.209,-0.741l185.22,85.923c4.58,2.117 4.756,5.875 0.386,8.401l-188.378,108.762c-4.369,2.522 -11.234,2.171 -15.323,-0.788l-149.724,-104.31c-4.093,-2.959 -3.867,-7.406 0.503,-9.929Z" style="fill:#2361dc;fill-rule:nonzero;"/><path d="M541.41,832.137c-15.839,23.942 -21.206,62.187 -5.961,91.91c7.376,14.384 76.794,93.832 127.138,87.264c86.648,-11.301 167.238,-126.588 167.238,-126.588l-116.332,-62.748l-172.083,10.162Z" style="fill:#43455c;fill-rule:nonzero;"/><path d="M934.841,1104.59c40.147,32.323 66.023,35.633 76.427,42.209c10.404,6.572 9.87,24.769 -9.254,33.82c-19.124,9.048 -42.217,9.656 -58.472,-0.058c-16.259,-9.714 -29.501,-24.453 -45.145,-30.616c-15.647,-6.163 -23.08,-6.986 -27.848,-17.682c-4.775,-10.689 -3.076,-46.458 -3.076,-46.458l67.368,18.785Z" style="fill:#2c2c45;fill-rule:nonzero;"/><path d="M905.157,1047.46c0.795,15.191 0.854,28.62 15.078,43.581c4.311,4.529 9.133,9.055 14.606,13.546c23.529,19.296 42.502,34.194 45.858,36.81c3.36,2.623 -9.017,16.68 -27.852,13.889c-18.84,-2.795 -39.765,-24.371 -54.68,-36.791c-6.661,-5.543 -13.047,-10.478 -18.083,-14.247c-6.767,-5.06 -11.429,-12.381 -13.164,-20.649l-4.9,-23.338l43.137,-12.801Z" style="fill:#f69da3;fill-rule:nonzero;"/><path d="M905.157,1047.46l-1.828,0.093c0.401,7.566 0.608,14.86 2.568,22.255c1.95,7.387 5.711,14.82 13.009,22.488c4.365,4.588 9.246,9.168 14.777,13.702c23.545,19.307 42.521,34.218 45.893,36.841l0.281,-0.362l-0.421,0.183l0.14,0.179l0.281,-0.362l-0.421,0.183l0.23,-0.097l-0.246,0.046l0.016,0.051l0.23,-0.097l-0.246,0.046l0,0.035c0.039,0.226 -0.315,1.322 -1.298,2.522c-1.442,1.836 -4.062,4.047 -7.55,5.739c-3.489,1.703 -7.844,2.919 -12.825,2.919c-1.486,0 -3.033,-0.109 -4.631,-0.347c-8.841,-1.286 -18.622,-7.192 -27.966,-14.423c-9.355,-7.219 -18.29,-15.69 -25.813,-21.962c-6.689,-5.57 -13.106,-10.521 -18.158,-14.306c-6.412,-4.799 -10.829,-11.726 -12.474,-19.565l-4.549,-21.689l41.519,-12.322l-0.518,-1.75l-1.828,0.093l1.828,-0.093l-0.519,-1.755l-44.75,13.285l5.243,24.983c1.824,8.701 6.736,16.412 13.858,21.736c5.017,3.758 11.382,8.674 18.009,14.194c7.383,6.147 16.376,14.672 25.923,22.044c9.558,7.359 19.662,13.639 29.657,15.144c1.777,0.269 3.504,0.39 5.169,0.39c7.445,-0.004 13.663,-2.421 18.056,-5.38c2.194,-1.477 3.945,-3.095 5.188,-4.674c1.228,-1.594 2.043,-3.087 2.086,-4.783c0.023,-0.92 -0.386,-2.031 -1.255,-2.685c-3.345,-2.604 -22.31,-17.503 -45.823,-36.783c-5.411,-4.444 -10.182,-8.915 -14.443,-13.398c-6.919,-7.286 -10.299,-14.049 -12.131,-20.91c-1.824,-6.861 -2.05,-13.877 -2.444,-21.506l-0.121,-2.315l-2.222,0.658l0.519,1.755Z" style="fill:#f69da3;fill-rule:nonzero;"/><path d="M832.094,1163.8c40.147,32.323 66.019,35.629 76.427,42.205c10.4,6.576 9.87,24.769 -9.258,33.824c-19.121,9.044 -42.213,9.656 -58.472,-0.058c-16.259,-9.719 -29.498,-24.453 -45.145,-30.616c-15.643,-6.163 -23.077,-6.99 -27.848,-17.682c-4.771,-10.693 -3.076,-46.462 -3.076,-46.462l67.372,18.789Z" style="fill:#2c2c45;fill-rule:nonzero;"/><path d="M802.406,1106.66c0.791,15.191 0.857,28.624 15.078,43.581c4.307,4.533 9.137,9.055 14.61,13.55c23.525,19.292 42.497,34.19 45.854,36.81c3.36,2.615 -9.013,16.68 -27.852,13.881c-18.836,-2.791 -39.769,-24.363 -54.68,-36.783c-6.658,-5.543 -13.047,-10.482 -18.083,-14.251c-6.763,-5.064 -11.429,-12.381 -13.164,-20.649l-4.896,-23.338l43.133,-12.801Z" style="fill:#f69da3;fill-rule:nonzero;"/><path d="M802.406,1106.66l-1.828,0.093c0.401,7.57 0.608,14.86 2.564,22.255c1.957,7.394 5.719,14.824 13.016,22.492c4.362,4.584 9.239,9.164 14.77,13.702c23.549,19.311 42.529,34.214 45.897,36.841l0.285,-0.366l-0.421,0.187l0.136,0.179l0.285,-0.366l-0.421,0.187l0.23,-0.102l-0.25,0.047l0.02,0.055l0.23,-0.102l-0.25,0.047l0.004,0.035c0.039,0.226 -0.323,1.322 -1.302,2.522c-1.438,1.836 -4.062,4.043 -7.547,5.738c-3.489,1.7 -7.843,2.916 -12.825,2.916c-1.489,0 -3.036,-0.109 -4.634,-0.347c-8.845,-1.286 -18.622,-7.188 -27.966,-14.415c-9.355,-7.223 -18.29,-15.694 -25.813,-21.966c-6.689,-5.567 -13.102,-10.521 -18.154,-14.306c-6.416,-4.799 -10.829,-11.726 -12.474,-19.561l-4.553,-21.693l41.519,-12.322l-0.518,-1.75l-1.828,0.093l1.828,-0.093l-0.523,-1.751l-44.746,13.281l5.243,24.983c1.828,8.705 6.74,16.412 13.861,21.74c5.013,3.754 11.379,8.67 18.006,14.19c7.387,6.151 16.372,14.672 25.919,22.044c9.562,7.363 19.666,13.639 29.665,15.148c1.773,0.261 3.504,0.382 5.168,0.382c7.446,0 13.663,-2.421 18.053,-5.372c2.198,-1.485 3.945,-3.099 5.192,-4.674c1.224,-1.598 2.043,-3.091 2.082,-4.787c0.027,-0.92 -0.382,-2.031 -1.252,-2.685c-3.348,-2.604 -22.313,-17.503 -45.822,-36.783c-5.415,-4.44 -10.182,-8.915 -14.443,-13.394c-6.919,-7.29 -10.303,-14.049 -12.131,-20.91c-1.828,-6.865 -2.054,-13.881 -2.448,-21.506l-0.121,-2.319l-2.226,0.662l0.523,1.751Z" style="fill:#f69da3;fill-rule:nonzero;"/><path d="M694.688,1176.17l0,266.871c0,2.023 1.419,4.479 3.162,5.481l8.521,4.919c1.75,1.01 4.584,1.01 6.335,0l8.513,-4.919c1.747,-1.002 3.165,-3.458 3.165,-5.481l0,-266.875c0,-2.015 -1.637,-3.652 -3.656,-3.652l-22.383,0.004c-2.019,0 -3.657,1.633 -3.657,3.652Z" style="fill:#c6c9fc;fill-rule:nonzero;"/><path d="M711.291,1453.88c-1.037,0 -1.755,-0.831 -1.755,-2.257l0,-255.531c2.293,0 4.581,-0.507 6.331,-1.513l8.517,-4.919l0,253.387c0,2.023 -1.418,4.479 -3.165,5.481l-8.513,4.919c-0.511,0.292 -0.991,0.433 -1.415,0.433Z" style="fill:#f6f6fd;"/><path d="M1214.28,876.272l0,266.874c0,2.019 1.419,4.471 3.166,5.481l8.517,4.919c1.75,1.01 4.584,1.01 6.331,0l8.517,-4.919c1.746,-1.01 3.165,-3.462 3.165,-5.481l0,-266.874c0,-2.019 -1.633,-3.657 -3.656,-3.657l-22.383,0c-2.019,0 -3.657,1.638 -3.657,3.657Z" style="fill:#c6c9fc;fill-rule:nonzero;"/><path d="M1230.88,1153.98c-1.037,0 -1.755,-0.822 -1.755,-2.257l-0.004,-253.48l14.852,-8.568l0,253.476c0,2.019 -1.419,4.471 -3.165,5.481l-8.517,4.919c-0.507,0.293 -0.987,0.429 -1.411,0.429Z" style="fill:#f6f6fd;fill-rule:nonzero;"/><path d="M427.471,1021.98l0,266.875c0,2.015 1.411,4.471 3.161,5.481l8.522,4.915c1.746,1.014 4.58,1.014 6.33,0l8.514,-4.915c1.746,-1.01 3.165,-3.466 3.165,-5.481l0,-266.879c0,-2.019 -1.637,-3.656 -3.653,-3.656l-22.387,0.004c-2.015,0 -3.652,1.633 -3.652,3.656Z" style="fill:#c6c9fc;fill-rule:nonzero;"/><path d="M444.069,1299.69c-1.037,0 -1.75,-0.831 -1.75,-2.265l-0.004,-253.473l14.848,8.568l0,236.337c0,2.015 -1.419,4.471 -3.165,5.481l-8.514,4.915c-0.51,0.296 -0.986,0.437 -1.415,0.437Z" style="fill:#f6f6fd;fill-rule:nonzero;"/><path d="M709.536,1196.09l-0.003,0l0,-17.144l0.003,0c2.289,0 4.581,-0.507 6.331,-1.513l536.622,-309.82c1.746,-1.01 2.619,-2.331 2.619,-3.656c0,-1.322 -0.873,-2.647 -2.619,-3.653l-284.252,-164.112c-1.747,-1.009 -4.039,-1.516 -6.331,-1.516c-2.288,0 -4.58,0.507 -6.327,1.516l-246.046,142.052l246.046,-142.052c1.747,-1.009 4.039,-1.516 6.327,-1.516c2.292,0 4.584,0.507 6.331,1.516l284.252,164.112c3.493,2.019 6.327,6.923 6.327,10.962l0,2.522c0,4.038 -2.834,8.95 -6.327,10.965l-8.514,4.92l-14.852,8.568l-14.844,8.576l-300.153,173.292l-3.161,1.824l-32.382,18.695l-3.298,1.907l-8.018,4.627l-55.837,32.241l-3.165,1.824l-32.351,18.68l-3.306,1.91l-8.092,4.67l-40.132,23.171l-8.517,4.919c-1.75,1.006 -4.038,1.513 -6.331,1.513Z" style="fill:#c3c6fa;fill-rule:nonzero;"/><path d="M709.533,838.241l-290.583,167.765c-3.493,2.019 -6.331,6.927 -6.331,10.965l0,2.522c0,4.035 2.838,8.947 6.331,10.966l284.252,164.115c1.75,1.006 4.042,1.513 6.331,1.513l0,-357.846Z" style="fill:#c3c6fa;fill-rule:nonzero;"/><path d="M418.953,1013.32l284.253,164.115c3.493,2.016 9.16,2.016 12.661,0l536.622,-309.82c3.493,-2.019 3.493,-5.29 0,-7.309l-284.252,-164.112c-3.493,-2.023 -9.165,-2.023 -12.658,0l-536.626,309.817c-3.496,2.019 -3.496,5.29 0,7.309Z" style="fill:#ccd0fc;fill-rule:nonzero;"/><path d="M709.536,1178.94l-0.003,0c-2.289,0 -4.581,-0.507 -6.327,-1.513l-284.253,-164.115c-1.75,-1.01 -2.623,-2.331 -2.623,-3.653c0,-1.321 0.873,-2.643 2.623,-3.656l536.626,-309.817c1.747,-1.009 4.039,-1.516 6.327,-1.516c2.292,0 4.584,0.507 6.331,1.516l284.252,164.112c1.746,1.006 2.619,2.331 2.619,3.653c0,1.325 -0.873,2.646 -2.619,3.656l-536.622,309.82c-1.75,1.006 -4.042,1.513 -6.331,1.513Z" style="fill:#f6f6fd;fill-rule:nonzero;"/><path d="M768.932,867.591l0,1.278c0,2.016 1.419,4.471 3.17,5.481l53.045,30.632c1.755,1.009 4.585,1.001 6.327,-0.016l171.83,-100.171c1.747,-1.017 3.162,-3.477 3.162,-5.492l0,-0.269c0,-2.015 -1.419,-4.471 -3.166,-5.481l-52.944,-30.627c-1.747,-1.006 -4.581,-1.006 -6.327,-0.004l-171.927,99.188c-1.751,1.006 -3.17,3.461 -3.17,5.481Z" style="fill:#4f8cef;fill-rule:nonzero;"/><path d="M768.932,867.591l0,1.278c0,2.016 1.419,4.471 3.17,5.481l53.045,30.632c0.878,0.502 2.028,0.752 3.166,0.752l0,-53.658l-38.822,0l-17.389,10.034c-1.751,1.006 -3.17,3.461 -3.17,5.481Z" style="fill:#597ed3;fill-rule:nonzero;"/><path d="M1003.3,797.21l-171.818,99.2c-1.746,1.005 -4.576,1.005 -6.331,0l-53.045,-30.648c-1.751,-1.009 -1.751,-2.646 0,-3.652l171.927,-99.188c1.746,-1.002 4.58,-1.002 6.327,0.004l52.944,30.627c1.747,1.01 1.747,2.647 -0.004,3.657Z" style="fill:#2361dc;fill-rule:nonzero;"/><path d="M910.107,838.456l-0.83,0l-5.426,3.126l0,0.484l5.839,3.371l0.835,0l5.422,-3.13l0,-0.483l-5.84,-3.368Zm-110.676,22.847l-5.422,3.134l0,0.483l5.836,3.368l0.834,0l5.422,-3.13l0,-0.483l-5.839,-3.372l-0.831,0Zm17.924,19.015l-0.83,0l-5.426,3.134l0,0.48l5.843,3.371l0.83,0l5.423,-3.13l0,-0.483l-5.84,-3.372Zm76.907,-32.713l-0.831,0l-5.422,3.126l0,0.484l5.839,3.367l0.835,0l5.418,-3.126l0,-0.483l-5.839,-3.368Zm7.924,-4.577l-0.834,0l-5.418,3.131l0,0.483l5.835,3.368l0.838,0l5.415,-3.13l0,-0.484l-5.836,-3.368Zm-33.438,19.308l-0.834,0l-5.418,3.126l0,0.484l5.835,3.371l0.834,0l5.423,-3.134l0,-0.483l-5.84,-3.364Zm17.596,-10.163l-0.834,0l-5.422,3.135l0,0.483l5.839,3.364l0.834,0l5.419,-3.126l0,-0.484l-5.836,-3.372Zm-25.513,14.739l-0.838,-0.004l-5.418,3.127l0,0.483l5.839,3.368l0.83,0l5.423,-3.126l0,-0.484l-5.836,-3.364Zm15.842,-9.149l-0.838,0l-5.415,3.127l0,0.479l5.836,3.376l0.834,0l5.419,-3.134l0,-0.484l-5.836,-3.364Zm-0.113,-40.989l-5.426,3.131l0,0.483l5.843,3.368l0.827,0l5.426,-3.13l0,-0.48l-5.836,-3.372l-0.834,0Zm15.842,-9.145l-5.422,3.127l0,0.483l5.839,3.368l0.831,0l5.422,-3.126l0,-0.484l-5.84,-3.368l-0.83,0Zm-7.925,4.573l-5.418,3.13l0,0.483l5.835,3.365l0.834,0l5.419,-3.123l0,-0.483l-5.836,-3.372l-0.834,0Zm31.688,-18.294l-5.418,3.13l0,0.48l5.835,3.372l0.834,0l5.419,-3.131l0,-0.483l-5.836,-3.368l-0.834,0Zm-15.842,9.149l-5.422,3.126l0,0.484l5.839,3.368l0.831,0l5.422,-3.127l0,-0.483l-5.836,-3.368l-0.834,0Zm7.921,-4.577l-5.422,3.131l0,0.479l5.839,3.376l0.831,0l5.422,-3.134l0,-0.48l-5.84,-3.372l-0.83,0Zm-74.626,43.566l-0.834,0l-5.422,3.13l0,0.484l5.835,3.368l0.834,0l5.423,-3.123l0,-0.483l-5.836,-3.376Zm35.017,-20.699l-5.418,3.134l0,0.48l5.835,3.368l0.834,0l5.419,-3.131l0,-0.475l-5.836,-3.376l-0.834,0Zm-45.023,35.625l-5.423,3.13l0,0.484l5.836,3.368l0.834,0l5.426,-3.127l0,-0.483l-5.847,-3.372l-0.826,0Zm-7.508,-4.814l-0.834,0l-5.415,3.13l0,0.483l5.832,3.368l0.838,0l5.414,-3.13l0,-0.483l-5.835,-3.368Zm44.614,-26.235l-15.846,9.149l0,0.476l5.836,3.372l0.834,0l15.846,-9.149l0,-0.48l-5.84,-3.368l-0.83,0Zm-19.179,30.332l-5.422,3.122l0,0.484l5.835,3.368l0.835,0l5.422,-3.127l0,-0.483l-5.84,-3.364l-0.83,0Zm-34.19,0.479l-5.419,3.127l0,0.483l5.836,3.368l0.834,0l5.418,-3.126l0,-0.484l-5.831,-3.368l-0.838,0Zm17.51,-12.517l0.838,0l5.415,-3.13l0,-0.483l-5.84,-3.368l-0.834,0l-5.418,3.126l0,0.483l5.839,3.372Zm28.351,-16.368l0.834,0l6.674,-3.851l0,-0.484l-5.839,-3.368l-0.835,0l-6.669,3.852l0,0.483l5.835,3.368Zm83.802,-48.384l0.831,0l6.669,-3.847l0,-0.484l-5.835,-3.371l-0.834,0l-6.67,3.855l0,0.475l5.839,3.372Zm-65.461,37.793l0.838,0l6.67,-3.852l0,-0.483l-5.836,-3.368l-0.834,0l-6.67,3.851l0,0.484l5.832,3.368Zm56.289,-32.495l0.83,0l6.674,-3.851l0,-0.484l-5.839,-3.368l-0.835,0l-6.669,3.852l0,0.483l5.839,3.368Zm-47.113,27.201l0.834,0l44.611,-25.755l0,-0.483l-5.84,-3.372l-0.83,0l-44.61,25.755l0,0.483l5.835,3.372Zm-38.358,22.142l0.839,0l8.334,-4.815l0,-0.479l-5.836,-3.372l-0.834,0l-8.338,4.814l0,0.484l5.835,3.368Zm20.014,-11.551l0.834,0l6.669,-3.855l0,-0.479l-5.835,-3.372l-0.834,0l-6.67,3.851l0,0.48l5.836,3.375Zm-84.633,42.12l14.174,8.182l0.838,0l5.414,-3.13l0,-0.476l-14.173,-8.186l-0.831,0l-5.422,3.126l0,0.484Zm13.757,-1.205l0.838,0l5.414,-3.126l0,-0.483l-5.835,-3.368l-0.835,0l-5.418,3.126l0,0.483l5.836,3.368Zm41.277,-23.825l0.834,0l5.419,-3.13l0,-0.484l-5.84,-3.368l-0.834,0l-5.418,3.127l0,0.483l5.839,3.372Zm91.306,-50.31l-5.426,3.131l0,0.479l5.839,3.372l0.831,0l5.426,-3.13l0,-0.48l-5.844,-3.372l-0.826,0Zm-107.148,59.455l0.83,0l5.423,-3.13l0,-0.484l-5.84,-3.368l-0.83,0l-5.426,3.13l0,0.484l5.843,3.368Zm-17.511,10.108l0.831,0l13.339,-7.703l0,-0.483l-5.835,-3.368l-0.835,0l-13.343,7.698l0,0.484l5.843,3.372Zm165.098,-51.861l-0.834,0l-5.422,3.126l0,0.484l5.839,3.368l0.831,0l5.426,-3.127l0,-0.483l-5.84,-3.368Zm-7.921,4.576l-0.838,0l-5.414,3.127l0,0.479l5.835,3.368l0.834,0l5.419,-3.126l0,-0.48l-5.836,-3.368Zm-10.427,-37.441l0.834,0l8.338,-4.815l0,-0.479l-5.835,-3.376l-0.835,0l-8.338,4.818l0,0.484l5.836,3.368Zm-0.94,43.998l-0.838,0.004l-5.418,3.13l0,0.48l5.835,3.368l0.835,0l5.422,-3.127l0,-0.483l-5.836,-3.372Zm-15.842,9.149l-0.838,0l-5.414,3.13l0,0.48l5.831,3.371l0.838,0l5.415,-3.13l0,-0.479l-5.832,-3.372Zm43.051,-24.855l-0.834,0l-5.422,3.127l0,0.483l5.839,3.372l0.831,0l5.422,-3.134l0,-0.48l-5.836,-3.368Zm-35.13,20.282l-0.834,0l-5.422,3.131l0,0.479l5.835,3.372l0.835,0l5.422,-3.134l0,-0.476l-5.836,-3.372Zm-15.846,9.145l-0.83,0l-5.422,3.131l0,0.479l5.831,3.372l0.839,0l5.422,-3.13l0,-0.484l-5.84,-3.368Zm28.878,-57.24l5.835,3.368l0.835,0l6.669,-3.847l0,-0.48l-5.835,-3.372l-0.834,0l-6.67,3.852l0,0.479Zm4.584,6.982l5.839,3.368l0.835,0l10.419,-6.015l0,-0.484l-5.835,-3.368l-0.838,0l-10.42,6.019l0,0.48Zm25.435,16.255l-0.838,0l-5.414,3.134l0,0.48l5.835,3.368l0.835,0l5.418,-3.131l0,-0.479l-5.836,-3.372Zm5.115,-2.951l5.835,3.372l0.838,0l6.67,-3.851l0,-0.484l-5.843,-3.372l-0.827,0l-6.673,3.856l0,0.479Zm-20.13,-9.695l5.839,3.372l0.834,0l8.339,-4.814l0,-0.483l-5.836,-3.368l-0.834,0l-8.342,4.814l0,0.479Zm11.262,3.131l5.831,3.368l0.838,0l5.419,-3.127l0,-0.483l-5.836,-3.368l-0.838,0l-5.414,3.126l0,0.484Zm-44.611,-3.61l-5.422,3.126l0,0.484l5.839,3.368l0.831,0l5.422,-3.127l0,-0.483l-5.836,-3.368l-0.834,0Zm-7.504,31.294l5.419,-3.134l0,-0.483l-5.832,-3.368l-0.838,0l-5.418,3.13l0,0.479l5.835,3.376l0.834,0Zm7.921,-4.576l5.419,-3.13l0,-0.484l-5.836,-3.368l-0.834,0l-5.418,3.13l0,0.48l5.831,3.372l0.838,0Zm-31.684,18.29l5.419,-3.126l0,-0.48l-5.836,-3.376l-0.834,0l-5.418,3.134l0,0.484l5.831,3.364l0.838,0Zm15.842,-9.145l5.419,-3.127l0,-0.483l-5.836,-3.368l-0.834,0l-5.418,3.126l0,0.484l5.831,3.368l0.838,0Zm-7.921,4.572l5.419,-3.126l0,-0.483l-5.836,-3.368l-0.834,0l-5.418,3.126l0,0.483l5.835,3.368l0.834,0Zm31.684,-18.29l5.419,-3.13l0,-0.479l-5.836,-3.372l-0.834,0l-5.418,3.13l0,0.479l5.835,3.372l0.834,0Zm7.921,-4.576l5.419,-3.126l0,-0.484l-5.836,-3.372l-0.834,0l-5.418,3.13l0,0.484l5.835,3.368l0.834,0Zm-27.517,-1.442l-5.418,3.126l0,0.483l5.839,3.368l0.831,0l5.422,-3.126l0,-0.483l-5.839,-3.368l-0.835,0Zm7.921,-4.573l-5.418,3.126l0,0.484l5.835,3.372l0.835,0l5.422,-3.135l0,-0.479l-5.839,-3.368l-0.835,0Zm7.921,-4.576l-5.418,3.134l0,0.475l5.839,3.372l0.831,0l5.422,-3.13l0,-0.48l-5.835,-3.371l-0.839,0Zm19.596,6.018l5.423,-3.126l0,-0.483l-5.844,-3.372l-0.83,0l-5.418,3.13l0,0.483l5.835,3.368l0.834,0Zm-10.84,-10.591l-0.835,0l-5.418,3.13l0,0.48l5.836,3.372l0.834,0l5.422,-3.131l0,-0.479l-5.839,-3.372Zm-60.453,51.752l5.423,-3.13l0,-0.48l-5.84,-3.372l-0.83,0l-5.422,3.134l0,0.476l5.835,3.372l0.834,0Zm-68.369,22.625l-0.838,0l-5.419,3.13l0,0.483l5.836,3.368l0.838,0l5.418,-3.13l0,-0.476l-5.835,-3.375Zm76.294,-27.198l5.415,-3.13l0,-0.479l-5.832,-3.372l-0.838,0l-5.415,3.13l0,0.483l5.832,3.368l0.838,0Zm-59.622,34.421l5.422,-3.13l0,-0.48l-5.835,-3.372l-0.834,0l-5.423,3.134l0,0.476l5.836,3.372l0.834,0Zm-18.341,10.108l-14.177,-8.182l-0.834,0l-5.419,3.13l0,0.479l14.174,8.182l0.834,0l5.422,-3.126l0,-0.483Zm1.669,-0.963l0.83,0l5.422,-3.126l0,-0.484l-5.835,-3.368l-0.838,0l-5.419,3.127l0,0.479l5.84,3.372Zm7.5,-11.554l-5.419,3.134l0,0.475l5.832,3.372l0.834,0l5.426,-3.13l0,-0.483l-5.839,-3.368l-0.834,0Zm-16.259,-0.238l-5.419,3.13l0,0.476l5.84,3.376l0.83,0l5.418,-3.135l0,-0.475l-5.835,-3.372l-0.834,0Zm97.137,-56.086l-5.414,3.13l0,0.483l5.835,3.368l0.835,0l5.418,-3.126l0,-0.484l-5.835,-3.371l-0.839,0Zm-80.044,72.692l0.838,0l5.415,-3.13l0,-0.48l-5.84,-3.368l-0.834,0l-5.418,3.127l0,0.483l5.839,3.368Zm50.863,-46.212l-5.415,3.13l0,0.475l5.832,3.372l0.838,0l5.415,-3.13l0,-0.479l-5.832,-3.368l-0.838,0Zm-42.104,41.64l5.419,-3.131l0,-0.483l-5.84,-3.364l-0.834,0l-5.418,3.126l0,0.484l5.839,3.368l0.834,0Zm17.507,-10.112l5.422,-3.123l0,-0.483l-5.839,-3.372l-0.831,0l-5.426,3.126l0,0.484l5.843,3.368l0.831,0Zm-9.586,5.539l5.419,-3.13l0,-0.484l-5.84,-3.364l-0.83,0l-5.422,3.123l0,0.483l5.835,3.372l0.838,0Zm71.289,-68.116l-5.418,3.126l0,0.48l5.835,3.368l0.835,0.004l5.422,-3.131l0,-0.483l-5.839,-3.364l-0.835,0Zm38.771,4.569l5.423,-3.127l0,-0.483l-5.836,-3.368l-0.834,0l-5.422,3.126l0,0.484l5.839,3.368l0.83,0Zm-7.917,4.572l5.415,-3.126l0,-0.484l-5.832,-3.368l-0.838,0l-5.415,3.127l0,0.483l5.832,3.368l0.838,0Zm-7.925,4.573l5.423,-3.123l0,-0.483l-5.84,-3.372l-0.83,0l-5.423,3.13l0,0.483l5.836,3.365l0.834,0Zm-15.842,9.149l5.419,-3.131l0,-0.475l-5.832,-3.376l-0.838,0l-5.419,3.134l0,0.476l5.836,3.372l0.834,0Zm39.609,-22.863l5.419,-3.134l0,-0.484l-5.836,-3.368l-0.834,0l-5.419,3.131l0,0.479l5.832,3.376l0.838,0Zm-31.684,18.29l5.415,-3.13l0,-0.48l-5.832,-3.372l-0.838,0l-5.415,3.131l0,0.483l5.832,3.368l0.838,0Zm39.605,-22.866l5.419,-3.131l0,-0.483l-5.836,-3.368l-0.834,0l-5.419,3.13l0,0.48l5.832,3.372l0.838,0Zm-18.762,-25.272l-0.834,0l-5.422,3.126l0,0.48l5.839,3.372l0.831,0l5.426,-3.131l0,-0.479l-5.84,-3.368Zm-8.755,4.568l-5.418,3.131l0,0.483l5.835,3.368l0.835,0l5.418,-3.126l0,-0.484l-5.836,-3.372l-0.834,0Zm23.763,6.023l-0.834,0l-5.418,3.126l0,0.48l5.835,3.372l0.838,0l5.415,-3.13l0,-0.484l-5.836,-3.364Zm11.671,10.108l5.423,-3.13l0,-0.48l-5.832,-3.372l-0.838,0l-5.422,3.131l0,0.479l5.839,3.372l0.83,0Zm-22.094,-13.721l-0.835,0l-5.418,3.13l0,0.483l5.839,3.364l0.831,0.004l5.422,-3.13l0,-0.48l-5.839,-3.371Zm-41.274,50.309l5.422,-3.134l0,-0.48l-5.839,-3.368l-0.83,0l-5.423,3.131l0,0.479l5.836,3.368l0.834,0.004Zm-7.921,4.572l5.419,-3.13l0,-0.483l-5.832,-3.368l-0.838,0l-5.419,3.126l0.004,0.484l5.832,3.371l0.834,0Zm-38.771,-4.572l-12.092,6.978l0,0.479l14.178,8.182l0.83,0l6.253,-3.606l0,-0.483l-7.5,-4.335l0,-0.475l5.001,-2.889l0,-0.483l-5.836,-3.368l-0.834,0Zm-7.925,14.201l-5.418,3.13l0,0.476l5.835,3.375l0.835,0l5.422,-3.134l0,-0.483l-5.839,-3.364l-0.835,0Zm39.609,-32.499l-5.422,3.13l0,0.484l5.843,3.368l0.827,0l5.426,-3.127l0,-0.483l-5.843,-3.372l-0.831,0Zm-7.921,4.573l-5.418,3.134l0,0.475l5.835,3.376l0.835,0l5.418,-3.134l0,-0.476l-5.836,-3.375l-0.834,0Zm-7.921,4.576l-5.422,3.13l0,0.48l5.839,3.372l0.831,0l5.422,-3.131l0,-0.483l-5.839,-3.368l-0.831,0Zm-7.921,4.573l-5.422,3.126l0,0.483l5.839,3.372l0.831,0l5.422,-3.13l0,-0.483l-5.836,-3.368l-0.834,0Zm22.929,13.717l5.419,-3.126l0,-0.48l-5.836,-3.368l-0.834,0l-5.419,3.127l0,0.479l5.832,3.368l0.838,0Zm-7.921,4.576l5.419,-3.13l0,-0.479l-5.836,-3.368l-0.834,0l-5.419,3.126l0,0.484l5.836,3.367l0.834,0Zm-21.26,12.276l5.418,-3.127l0,-0.483l-5.839,-3.368l-0.831,0l-5.422,3.122l0,0.484l5.839,3.372l0.835,0Zm9.589,-5.536l9.168,-5.293l0,-0.484l-5.835,-3.368l-0.834,0l-9.173,5.294l0,0.483l5.836,3.368l0.838,0Zm-17.51,10.108l5.414,-3.126l0,-0.483l-5.835,-3.368l-0.835,0l-5.418,3.126l0,0.483l5.836,3.368l0.838,0Zm-9.59,-11.792l-5.422,3.127l0,0.483l5.839,3.372l0.831,0l5.422,-3.134l0,-0.484l-5.836,-3.364l-0.834,0Z" style="fill:#c6e5f8;fill-rule:nonzero;"/><path d="M829.619,887.401l-0.838,0l-5.415,3.126l0,0.484l1.551,0.896l0.835,0l5.418,-3.13l0,-0.479l-1.551,-0.897Z" style="fill:#c6e5f8;fill-rule:nonzero;"/><path d="M837.54,882.828l-0.835,0l-5.422,3.127l0,0.479l1.559,0.901l0.827,0l5.426,-3.131l0,-0.483l-1.555,-0.893Z" style="fill:#c6e5f8;fill-rule:nonzero;"/><path d="M845.461,878.252l-0.838,0l-5.415,3.13l0,0.48l1.552,0.896l0.834,0l5.422,-3.126l0,-0.483l-1.555,-0.897Z" style="fill:#c6e5f8;fill-rule:nonzero;"/><path d="M853.382,873.679l-0.834,0l-5.419,3.131l0,0.479l1.552,0.897l0.834,0l5.422,-3.13l0,-0.48l-1.555,-0.897Z" style="fill:#c6e5f8;fill-rule:nonzero;"/><path d="M549.416,982.106l186.659,-107.768c1.75,-1.013 4.584,-1.013 6.334,0l112.435,64.912c1.746,1.01 3.161,3.466 3.165,5.481l0,1.263c0,2.019 -1.415,4.475 -3.165,5.485l-186.667,107.768c-1.746,1.009 -4.58,1.009 -6.327,0l-112.434,-64.916c-1.75,-1.01 -3.165,-3.462 -3.165,-5.481l0,-1.259c0,-2.023 1.419,-4.475 3.165,-5.485Z" style="fill:#4f8cef;fill-rule:nonzero;"/><path d="M546.251,987.591l0,1.259c0,2.019 1.415,4.471 3.165,5.481l112.438,64.916c0.874,0.502 2.016,0.756 3.162,0.756l0,-82.263l-108.033,0l-7.567,4.366c-1.746,1.006 -3.165,3.462 -3.165,5.485Z" style="fill:#1f47b6;fill-rule:nonzero;"/><path d="M549.416,982.106l186.659,-107.768c1.75,-1.013 4.584,-1.013 6.334,0l112.435,64.912c1.746,1.01 1.746,2.647 0,3.653l-186.667,107.775c-1.746,1.006 -4.576,1.006 -6.323,0l-112.438,-64.915c-1.746,-1.01 -1.746,-2.647 0,-3.657Z" style="fill:#2361dc;fill-rule:nonzero;"/><path d="M706.387,908.622c1.75,-1.013 4.584,-1.021 6.338,-0.019c13.924,7.937 68.923,39.78 82.738,47.787c1.75,1.01 1.747,2.651 0,3.657c-18.189,10.493 -109.179,62.99 -127.29,73.48c-1.742,1.013 -4.576,1.013 -6.323,0.004l-82.745,-47.768c-1.751,-1.01 -1.751,-2.647 0,-3.657l127.282,-73.484Z" style="fill:#c4e4f8;fill-rule:nonzero;"/><path d="M765.51,914.166c-5.559,3.208 -5.559,8.412 0,11.624c5.559,3.212 14.567,3.212 20.13,0c5.555,-3.208 5.555,-8.412 0,-11.621c-5.563,-3.208 -14.571,-3.212 -20.13,-0.003Z" style="fill:#c4e4f8;fill-rule:nonzero;"/><path d="M796.785,926.242l-9.028,5.266c-2.624,1.513 -3.092,3.7 -1.037,4.877c2.046,1.189 5.831,0.92 8.455,-0.589l9.036,-5.266c2.623,-1.516 3.083,-3.699 1.036,-4.884c-2.054,-1.182 -5.839,-0.916 -8.462,0.596Z" style="fill:#c4e4f8;fill-rule:nonzero;"/><path d="M807.329,932.35l-9.028,5.267c-2.623,1.516 -3.087,3.699 -1.041,4.88c2.051,1.185 5.836,0.916 8.463,-0.592l9.028,-5.267c2.624,-1.512 3.087,-3.699 1.037,-4.88c-2.05,-1.185 -5.835,-0.92 -8.459,0.592Z" style="fill:#c6e5f8;fill-rule:nonzero;"/><path d="M817.87,938.463l-9.028,5.266c-2.62,1.513 -3.084,3.699 -1.037,4.884c2.05,1.178 5.839,0.917 8.459,-0.596l9.032,-5.266c2.623,-1.517 3.087,-3.7 1.033,-4.881c-2.051,-1.189 -5.832,-0.92 -8.459,0.593Z" style="fill:#c4e4f8;fill-rule:nonzero;"/><path d="M736.18,891.4l-9.032,5.267c-2.623,1.512 -3.087,3.699 -1.037,4.88c2.051,1.185 5.836,0.916 8.459,-0.592l9.032,-5.267c2.624,-1.512 3.084,-3.699 1.037,-4.884c-2.05,-1.181 -5.839,-0.916 -8.459,0.596Z" style="fill:#c4e4f8;fill-rule:nonzero;"/><path d="M746.717,897.513l-9.024,5.266c-2.628,1.513 -3.092,3.699 -1.045,4.877c2.054,1.185 5.843,0.92 8.467,-0.593l9.032,-5.266c2.619,-1.517 3.083,-3.696 1.037,-4.881c-2.051,-1.185 -5.84,-0.916 -8.467,0.597Z" style="fill:#c6e5f8;fill-rule:nonzero;"/><path d="M757.261,903.617l-9.028,5.27c-2.623,1.513 -3.087,3.7 -1.041,4.885c2.055,1.181 5.84,0.916 8.467,-0.597l9.024,-5.27c2.628,-1.512 3.096,-3.695 1.041,-4.88c-2.046,-1.181 -5.839,-0.92 -8.463,0.592Z" style="fill:#c4e4f8;fill-rule:nonzero;"/><path d="M943.893,939.266l-0.909,-0.523c-1.746,-1.013 -3.165,-3.461 -3.165,-5.48l-0.004,-181.256c0,-2.019 1.419,-4.475 3.162,-5.485l245.442,-142.403c1.743,-1.013 4.58,-1.017 6.327,-0.004l1.524,0.881c1.75,1.006 3.165,3.462 3.165,5.481l0,181.252c0,2.019 -1.415,4.475 -3.165,5.485l-246.043,142.052c-1.75,1.009 -4.584,1.013 -6.334,0Z" style="fill:#4f8cef;fill-rule:nonzero;"/><path d="M1006.44,786.813l-65.699,-37.932c-0.569,0.994 -0.928,2.116 -0.928,3.126l0.004,181.256c0,2.019 1.419,4.467 3.165,5.48l0.909,0.523c1.75,1.013 4.584,1.009 6.334,0l56.215,-32.452l0,-120.001Z" style="fill:#1f47b6;fill-rule:nonzero;"/><path d="M1196.27,797.214l-246.043,142.052c-1.75,1.009 -3.165,0.191 -3.165,-1.829l0,-181.251c0,-2.02 1.415,-4.475 3.165,-5.485l246.043,-142.048c1.75,-1.014 3.165,-0.195 3.165,1.824l0,181.252c0,2.019 -1.415,4.475 -3.165,5.485Z" style="fill:#2361dc;fill-rule:nonzero;"/><path d="M1080.68,872.514l-3.839,14.138l0,0.043l-4.238,15.418l0,0.035l-20.687,-11.944c0.55,-0.99 1.353,-1.868 2.23,-2.343l21.198,-12.279l5.336,-3.068Z" style="fill:#ccd0fc;fill-rule:nonzero;"/><path d="M1124.72,886.142c0.226,1.941 -0.913,4.276 -2.554,5.266l-38.416,22.181c-0.912,0.514 -2.046,0.768 -3.216,0.732l-3.691,-27.626l0,-0.043l-1.497,-11.07l-9.613,-71.558l43.858,-25.331c0.62,1.026 1.095,2.156 1.243,3.181l13.886,104.268Z" style="fill:#2361dc;fill-rule:nonzero;"/><path d="M1109.59,778.693l-43.858,25.331l-5.808,-3.548c0.471,-1.021 1.239,-1.933 2.155,-2.448l38.374,-22.149c1.758,-0.951 4.498,-0.912 6.178,0.109l0.585,0.367c0.873,0.51 1.684,1.352 2.374,2.338Z" style="fill:#4f8cef;fill-rule:nonzero;"/><path d="M1080.53,914.321c-1.06,-0.038 -2.117,-0.257 -2.955,-0.732l-23.431,-13.523c-1.751,-1.021 -3.177,-3.469 -3.177,-5.481l0,-1.278c0,-1.026 0.366,-2.121 0.947,-3.103l20.687,11.909l-3.103,-23.167l-0.475,-3.477l-9.652,-72.143c-0.105,-0.912 0.109,-1.938 0.55,-2.85l5.808,3.548l9.613,71.558l1.497,11.07l0,0.043l3.691,27.626Z" style="fill:#335fc2;fill-rule:nonzero;"/><path d="M1054.72,741.533c2.046,-1.186 3.707,-0.098 3.707,2.424l0,25.147c0,2.526 -1.669,5.532 -3.723,6.72c-2.058,1.186 -3.726,0.106 -3.723,-2.42l0.02,-25.163c0,-2.522 1.664,-5.523 3.719,-6.708Z" style="fill:#1f47b6;fill-rule:nonzero;"/><path d="M1068.32,733.767c2.051,-1.181 3.715,-0.097 3.715,2.425l0,25.151c0,2.518 -1.672,5.527 -3.73,6.716c-2.055,1.185 -3.719,0.106 -3.715,-2.416l0.019,-25.163c0,-2.526 1.661,-5.531 3.711,-6.713Z" style="fill:#1f47b6;fill-rule:nonzero;"/><path d="M1081.93,726.002c2.05,-1.181 3.711,-0.097 3.711,2.429l0,25.143c0,2.526 -1.669,5.535 -3.727,6.72c-2.054,1.189 -3.723,0.106 -3.723,-2.417l0.02,-25.162c0,-2.522 1.664,-5.528 3.719,-6.713Z" style="fill:#1f47b6;fill-rule:nonzero;"/><path d="M1095.53,718.241c2.047,-1.185 3.711,-0.097 3.711,2.425l0,25.147c0,2.526 -1.672,5.527 -3.726,6.72c-2.055,1.185 -3.723,0.101 -3.723,-2.421l0.023,-25.162c0,-2.522 1.661,-5.524 3.715,-6.709Z" style="fill:#1f47b6;fill-rule:nonzero;"/><path d="M709.369,718.151c0,0 80.356,37.532 98.911,42.95c18.559,5.419 33.189,6.795 49.709,11.769c18.033,5.438 54.223,22.621 59.381,29.099c5.165,6.483 -2.971,15.488 -17.811,16.918c-14.848,1.435 -41.27,-6.334 -45.897,-6.362c-4.627,-0.031 -1.114,1.759 4.327,8.572c5.438,6.818 7.321,15.258 2.85,18.79c-2.85,2.257 -7.145,-4.086 -15.281,-7.75c-7.028,-3.161 -15.218,-11.613 -22.933,-20.894c-7.706,-9.282 -13.44,-13.429 -34.81,-19.019c-24.227,-6.338 -85.938,-21.471 -85.938,-21.471l7.492,-52.602Z" style="fill:#f69da3;fill-rule:nonzero;"/><path d="M709.369,718.151l-0.776,1.653c0.004,0.004 20.099,9.391 42.521,19.456c11.215,5.036 23.007,10.24 33.169,14.528c10.182,4.292 18.672,7.66 23.487,9.067c18.746,5.466 33.391,6.849 49.689,11.769c8.849,2.662 22.379,8.299 34.253,14.049c5.933,2.877 11.472,5.785 15.807,8.353c2.167,1.283 4.035,2.484 5.485,3.536c1.446,1.045 2.491,1.98 2.935,2.549c0.83,1.053 1.154,2.043 1.158,3.068c0.027,1.961 -1.392,4.417 -4.467,6.541c-3.049,2.113 -7.614,3.809 -13.246,4.347c-1.185,0.113 -2.464,0.167 -3.817,0.167c-7.332,0.004 -16.684,-1.594 -24.687,-3.223c-4.007,-0.811 -7.683,-1.622 -10.641,-2.242c-2.994,-0.616 -5.13,-1.044 -6.565,-1.072l-0.125,0c-0.795,0.008 -1.411,0.031 -2.101,0.238c-0.339,0.109 -0.744,0.281 -1.134,0.682c-0.398,0.39 -0.643,1.049 -0.624,1.563c0.063,1.1 0.491,1.544 0.854,2.105c0.596,0.792 1.403,1.649 2.428,2.776c1.022,1.126 2.242,2.499 3.587,4.179c3.161,3.929 4.978,8.482 4.95,11.772c-0.015,2.07 -0.619,3.497 -1.801,4.444l-0.206,0.078c-0.152,0.015 -0.702,-0.129 -1.474,-0.593c-2.374,-1.36 -6.209,-4.978 -11.721,-7.472c-6.456,-2.862 -14.654,-11.184 -22.278,-20.392c-3.891,-4.705 -7.473,-8.291 -12.774,-11.316c-5.306,-3.021 -12.225,-5.488 -22.976,-8.303c-24.258,-6.35 -85.966,-21.479 -85.97,-21.479l-0.432,1.774l1.808,0.257l7.493,-52.605l-1.809,-0.254l-0.776,1.653l0.776,-1.653l-1.809,-0.261l-7.726,54.243l1.606,0.394c0.008,0.004 3.855,0.947 10.018,2.463c18.489,4.553 57.751,14.256 75.897,19.004c10.622,2.775 17.249,5.176 22.087,7.944c4.826,2.768 7.968,5.89 11.78,10.474c7.8,9.348 15.986,17.928 23.584,21.39c3.266,1.469 5.921,3.43 8.186,5.094c1.134,0.835 2.163,1.595 3.185,2.199c1.025,0.589 2.058,1.076 3.325,1.091c0.853,0.016 1.773,-0.3 2.471,-0.865c2.253,-1.77 3.208,-4.51 3.189,-7.309c-0.02,-4.522 -2.206,-9.589 -5.746,-14.053c-1.883,-2.362 -3.547,-4.132 -4.686,-5.399c-0.569,-0.623 -1.009,-1.13 -1.251,-1.458l-0.195,-0.296l-0.351,0.176l0.371,-0.11l-0.02,-0.066l-0.351,0.176l0.371,-0.11l-1.057,0.308l1.096,0l-0.039,-0.308l-1.057,0.308l1.096,0l-1.392,0l1.006,0.959l0.386,-0.959l-1.392,0l1.006,0.959l-0.792,-0.756l0.425,1.021l0.367,-0.265l-0.792,-0.756l0.425,1.021l-0.159,-0.378l0.12,0.394l0.039,-0.016l-0.159,-0.378l0.12,0.394c0.004,-0.012 0.382,-0.074 0.998,-0.066l0.098,0c0.686,-0.012 2.951,0.382 5.843,0.994c8.81,1.828 24.352,5.531 36.077,5.543c1.447,0 2.838,-0.055 4.168,-0.183c6.162,-0.601 11.289,-2.437 14.976,-4.986c3.653,-2.53 6.019,-5.863 6.042,-9.543c0.008,-1.875 -0.67,-3.746 -1.953,-5.344c-0.846,-1.049 -2.066,-2.074 -3.652,-3.232c-5.528,-3.999 -15.628,-9.355 -26.41,-14.388c-10.786,-5.02 -22.181,-9.667 -30.222,-12.096c-16.735,-5.032 -31.353,-6.4 -49.721,-11.772c-4.467,-1.298 -12.981,-4.658 -23.089,-8.927c-15.183,-6.404 -34.081,-14.891 -49.175,-21.771c-7.551,-3.442 -14.15,-6.479 -18.859,-8.658c-4.713,-2.183 -7.527,-3.492 -7.535,-3.496l-2.23,-1.045l-0.347,2.44l1.809,0.261Z" style="fill:#f69da3;fill-rule:nonzero;"/><path d="M679.837,575.702c12.863,-2.019 28.261,0.3 34.553,8.205c6.28,7.91 13.518,20.15 6.888,48.626l-41.441,-56.831Z" style="fill:#f69da3;fill-rule:nonzero;"/><path d="M679.837,575.702l0.284,1.805c2.803,-0.441 5.734,-0.671 8.658,-0.671c5.036,0 10.049,0.682 14.31,2.066c4.272,1.38 7.749,3.473 9.866,6.147c4.386,5.563 9.094,12.884 9.13,27.042c0,5.539 -0.749,12.131 -2.585,20.032l1.778,0.41l1.477,-1.072l-41.441,-56.839l-1.477,1.08l0.284,1.805l-0.284,-1.805l-1.478,1.072l43.796,60.062l0.904,-3.89c1.891,-8.12 2.678,-14.985 2.682,-20.855c0.031,-14.996 -5.274,-23.514 -9.925,-29.318c-2.756,-3.45 -6.88,-5.812 -11.597,-7.348c-4.724,-1.532 -10.076,-2.238 -15.44,-2.241c-3.111,0 -6.229,0.241 -9.223,0.709l-2.955,0.468l1.758,2.413l1.478,-1.072Z" style="fill:#f69da3;fill-rule:nonzero;"/><path d="M679.837,575.702c0,0 16.824,15.296 34.194,44.119c13.316,22.091 16.415,31.177 15.308,51.062c-1.15,20.8 -9.621,38.01 -13.199,54.613c-4.596,21.315 -4.023,57.567 -2.647,96.479c0,0 -37.091,46.204 -94.772,44.532c-57.68,-1.672 -77.311,-34.37 -77.311,-34.37l34.576,-62.542l-17.23,-65.832l17.456,-108.142c0,0 20.06,-5.071 52.005,-13.051l51.62,-6.868Z" style="fill:#ff522b;fill-rule:nonzero;"/><path d="M599.149,791.838l-23.163,-22.243l-8.139,-31.095l-9.091,-34.737l29.724,-55.404c0,0 0.222,3.738 0.222,10.089c0,14.957 -1.201,44.395 -9.278,73.421l19.725,59.969Z" style="fill:#e73006;fill-rule:nonzero;"/><path d="M660.135,552.749l-21.942,-1.216c-41.005,-2.28 -72.4,-37.371 -70.12,-78.372c2.616,-47.066 42.887,-83.1 89.953,-80.485c47.067,2.616 83.097,42.891 80.481,89.958c-2.28,41 -37.367,72.396 -78.372,70.115Z" style="fill:#2c2c45;fill-rule:nonzero;"/><path d="M713.337,430.324c5.391,3.478 19.062,22.493 15.082,73.009c-3.372,42.813 -14.86,52.742 -22.005,55.404c-7.149,2.666 -20.5,0.059 -33.462,-2.85l-1.161,20.883c0,0 13.355,17.803 6.042,27.154c-5.43,6.935 -21.487,9.827 -35.041,4.3c-18.983,-7.746 -25.497,-22.808 -25.497,-22.808l3.457,-62.191c0,0 -9.488,11.305 -23.396,0.908c-13.917,-10.396 -13.145,-34.167 -4.273,-42.228c8.869,-8.058 26.823,-4.351 29.544,7.613c0,0 2.242,-25.416 25.342,-47.195c22.426,-21.14 54.886,-15.367 65.368,-11.999Z" style="fill:#f69da3;fill-rule:nonzero;"/><path d="M713.337,430.324l-0.994,1.532c1.836,1.154 5.719,5.403 8.958,13.971c3.263,8.572 6.007,21.503 6.007,40.136c0,5.278 -0.218,11.008 -0.709,17.229c-1.673,21.253 -5.368,34.226 -9.395,42.065c-4.046,7.851 -8.276,10.572 -11.429,11.769c-1.786,0.666 -4.222,0.998 -7.087,0.994c-6.915,0.011 -16.212,-1.86 -25.338,-3.91l-2.105,-0.476l-1.314,23.701l0.398,0.534l0.323,0.448c0.749,1.057 2.671,3.895 4.374,7.403c1.715,3.504 3.177,7.691 3.165,11.262c-0.007,2.245 -0.534,4.186 -1.8,5.82c-1.427,1.832 -3.945,3.5 -7.185,4.662c-3.235,1.165 -7.161,1.836 -11.316,1.836c-4.725,0 -9.738,-0.866 -14.408,-2.768c-9.172,-3.742 -15.308,-9.238 -19.163,-13.795c-1.922,-2.281 -3.274,-4.323 -4.136,-5.777c-0.432,-0.729 -0.74,-1.31 -0.939,-1.708l-0.215,-0.436l-0.058,-0.125l-1.676,0.725l1.824,0.101l3.762,-67.668l-3.528,4.203l0.203,0.171l-0.199,-0.175l-0.004,0.004l0.203,0.171l-0.199,-0.175c-0.055,0.062 -1.107,1.267 -2.916,2.413c-1.809,1.154 -4.331,2.245 -7.418,2.245c-2.932,-0.008 -6.448,-0.959 -10.576,-4.035c-6.892,-5.126 -10.002,-14.041 -9.995,-22.445c-0.027,-7.173 2.331,-13.819 5.859,-16.969c2.795,-2.545 6.752,-3.82 10.825,-3.82c3.579,0 7.204,0.994 10.046,2.811c2.849,1.82 4.912,4.389 5.66,7.675l2.581,11.352l1.025,-11.597l0.023,-0.238c0.3,-2.639 3.548,-25.814 24.75,-45.788c12.31,-11.612 27.809,-14.844 40.895,-14.848c9.878,-0.004 18.333,1.867 22.66,3.259l0.561,-1.739l-0.994,1.532l0.994,-1.532l0.554,-1.746c-4.698,-1.505 -13.429,-3.426 -23.775,-3.43c-13.647,-0.004 -30.183,3.383 -43.402,15.842c-23.584,22.258 -25.884,48.142 -25.907,48.368l1.82,0.16l1.778,-0.406c-0.982,-4.346 -3.754,-7.73 -7.262,-9.952c-3.513,-2.229 -7.769,-3.371 -12.007,-3.375c-4.806,0.004 -9.655,1.485 -13.281,4.767c-4.658,4.288 -7.032,11.761 -7.059,19.674c0.004,9.239 3.364,19.292 11.46,25.373c4.639,3.469 9.009,4.763 12.767,4.76c4.093,-0.004 7.371,-1.49 9.593,-2.951c2.234,-1.466 3.454,-2.912 3.536,-3.006l-1.4,-1.177l-1.824,-0.097l-3.481,62.615l0.172,0.398c0.097,0.218 6.841,15.741 26.484,23.775c5.157,2.101 10.622,3.032 15.787,3.036c4.545,-0.004 8.86,-0.725 12.556,-2.05c3.691,-1.333 6.79,-3.267 8.825,-5.851c1.875,-2.394 2.581,-5.251 2.577,-8.069c-0.023,-5.158 -2.21,-10.389 -4.327,-14.427c-2.128,-4.027 -4.233,-6.83 -4.268,-6.881l-1.462,1.096l1.828,0.105l1.158,-20.886l-1.825,-0.102l-0.401,1.786c9.196,2.058 18.61,3.992 26.137,3.999c3.134,-0.004 5.952,-0.327 8.365,-1.224c3.992,-1.469 9.079,-5.04 13.402,-13.526c4.35,-8.486 8.085,-21.888 9.788,-43.445c0.495,-6.307 0.722,-12.139 0.722,-17.514c0,-18.992 -2.795,-32.355 -6.253,-41.434c-3.481,-9.09 -7.5,-13.842 -10.385,-15.744l-0.206,-0.129l-0.23,-0.078l-0.554,1.746Z" style="fill:#f69da3;fill-rule:nonzero;"/><path d="M682.604,470.655l-12.252,4.876c-1.278,-3.504 0.433,-7.437 3.821,-8.786c3.379,-1.349 7.16,0.401 8.431,3.91Z" style="fill:#0c2b34;fill-rule:nonzero;"/><path d="M684.152,490.017c-0.016,3.095 -2.448,5.586 -5.426,5.562c-2.986,-0.023 -5.388,-2.557 -5.368,-5.652c0.015,-3.099 2.444,-5.59 5.426,-5.566c2.982,0.027 5.383,2.557 5.368,5.656Z" style="fill:#2c2c45;fill-rule:nonzero;"/><path d="M716.21,471.126l10.81,7.555c2.042,-3.119 1.278,-7.34 -1.708,-9.43c-2.986,-2.081 -7.059,-1.243 -9.102,1.875Z" style="fill:#2c2c45;fill-rule:nonzero;"/><path d="M683.571,526.429l12.299,4.694c-1.24,3.524 -4.994,5.332 -8.389,4.038c-3.396,-1.294 -5.146,-5.204 -3.91,-8.732Z" style="fill:#f48a8f;fill-rule:nonzero;"/><path d="M683.571,526.429l-0.647,1.712l12.295,4.689l0.651,-1.707l-1.723,-0.605c-0.718,2.031 -2.526,3.232 -4.413,3.232c-0.53,0 -1.068,-0.09 -1.602,-0.296c-1.899,-0.714 -3.13,-2.632 -3.13,-4.69c0,-0.577 0.093,-1.158 0.296,-1.727l-1.727,-0.608l-0.647,1.712l0.647,-1.712l-1.723,-0.6c-0.339,0.963 -0.503,1.957 -0.503,2.935c0,3.485 2.07,6.795 5.485,8.104c0.951,0.367 1.941,0.542 2.904,0.538c3.45,0.004 6.646,-2.206 7.862,-5.679l0.589,-1.676l-15.717,-5.996l-0.62,1.774l1.723,0.6Z" style="fill:#f48a8f;fill-rule:nonzero;"/><path d="M723.948,488.317c-0.02,3.095 -2.452,5.586 -5.434,5.563c-2.982,-0.024 -5.383,-2.557 -5.364,-5.653c0.016,-3.099 2.444,-5.589 5.422,-5.566c2.986,0.027 5.388,2.557 5.376,5.656Z" style="fill:#2c2c45;fill-rule:nonzero;"/><path d="M697.959,483.776l-0.943,32.499l17.374,-4.343l-16.431,-28.156Z" style="fill:#f48a8f;fill-rule:nonzero;"/><path d="M697.959,483.776l-1.824,-0.055l-1.018,34.912l22.075,-5.516l-20.874,-35.781l-0.183,6.385l1.824,0.055l-1.575,0.92l15.199,26.051l-12.673,3.169l0.873,-30.09l-1.824,-0.05l-1.575,0.92l1.575,-0.92Z" style="fill:#f48a8f;fill-rule:nonzero;"/><path d="M672.952,555.887c-10.848,-1.843 -32.311,-9.675 -36.732,-17.284c0,0 -0.101,5.025 6.678,12.221c6.782,7.196 29.591,13.417 29.591,13.417l0.463,-8.354Z" style="fill:#f48a8f;fill-rule:nonzero;"/><path d="M672.952,555.887l0.308,-1.797c-5.215,-0.884 -13.23,-3.278 -20.36,-6.361c-3.57,-1.54 -6.923,-3.255 -9.601,-5.002c-2.686,-1.738 -4.662,-3.563 -5.5,-5.04l-3.255,-5.59l-0.152,6.467l0,0.055c-0.016,0.69 0.288,6.17 7.176,13.456c1.957,2.062 4.783,3.851 7.976,5.504c9.539,4.912 22.403,8.405 22.461,8.424l2.183,0.597l0.678,-12.237l-1.606,-0.273l-0.308,1.797l-1.828,-0.097l-0.46,8.35l1.825,0.101l0.479,-1.762c0,0 -0.343,-0.093 -0.967,-0.273c-2.191,-0.635 -7.816,-2.335 -13.577,-4.635c-5.746,-2.268 -11.679,-5.274 -14.193,-8.002c-3.154,-3.345 -4.682,-6.12 -5.442,-8.038c-0.382,-0.959 -0.565,-1.7 -0.655,-2.199l-0.078,-0.553l-0.011,-0.16l-1.31,0l1.31,0.031l0,-0.031l-1.31,0l1.31,0.031l-1.825,-0.047l-1.579,0.924c1.369,2.323 3.735,4.335 6.658,6.257c8.783,5.71 22.902,10.447 31.345,11.904l0.308,-1.801l-1.828,-0.097l1.828,0.097Z" style="fill:#f48a8f;fill-rule:nonzero;"/><path d="M585.373,400.936c17.296,9.294 8.537,24.364 -1.419,42.892c-9.96,18.531 -17.358,33.508 -34.651,24.215c-17.292,-9.297 -23.236,-31.856 -13.277,-50.387c9.96,-18.528 32.055,-26.017 49.347,-16.72Z" style="fill:#2c2c45;fill-rule:nonzero;"/><path d="M610.048,490.134l1.337,-24.048l14.221,0.787l-2.129,38.272c-7.855,-0.432 -13.869,-7.157 -13.429,-15.011Z" style="fill:#2c2c45;fill-rule:nonzero;"/><path d="M713.337,430.324c0,0 -4.962,71.305 -102.669,48.599c0,0 1.797,-38.935 35.364,-55.077c40.291,-19.374 67.305,6.478 67.305,6.478Z" style="fill:#2c2c45;fill-rule:nonzero;"/><path d="M713.337,430.324c0,0 -37.227,45.106 -102.669,48.599c0,0 -6.643,-38.124 27.72,-58.204c34.354,-20.087 69.804,-4.744 74.949,9.605Z" style="fill:#2c2c45;fill-rule:nonzero;"/><path d="M692.872,967.418c-0.406,0 -0.776,-0.273 -0.881,-0.682l-2.242,-8.572c-0.124,-0.487 0.168,-0.986 0.655,-1.115c0.495,-0.113 0.99,0.168 1.119,0.651l2.234,8.572c0.125,0.487 -0.168,0.99 -0.651,1.119l-0.234,0.027Z" style="fill:#0c2b34;fill-rule:nonzero;"/><path d="M676.808,945.132l11.725,16.299c1.719,2.393 5.501,1.239 5.59,-1.708l0.616,-20.223l-17.931,5.632Z" style="fill:#1f47b6;fill-rule:nonzero;"/><path d="M661.005,828.512c-0.722,-1.817 -2.526,-2.62 -4.744,-2.682c-5.93,-0.23 -14.689,4.802 -12.751,9.652l33.309,109.647c2.316,1.906 7.212,1.988 11.422,0.218c2.768,-1.146 5.255,-3.103 6.502,-5.847l-33.738,-110.988Z" style="fill:#2361dc;fill-rule:nonzero;"/><path d="M652.682,819.741c-0.62,-2.109 -2.838,-3.314 -4.947,-2.69c-2.109,0.624 -3.317,2.838 -2.689,4.947l2.678,8.79c0.167,0.565 0.709,1.018 1.582,1.232c1.747,0.417 4.167,-0.296 5.403,-1.602c0.616,-0.651 0.826,-1.325 0.655,-1.891l-2.682,-8.786Z" style="fill:#1f47b6;fill-rule:nonzero;"/><path d="M576.212,595.621c-22.282,4.822 -34.194,17.624 -40.548,45.421c-6.397,27.993 -34.756,155.973 -37.941,168.653c-3.181,12.685 1.4,19.974 16.158,35.181c13.32,13.729 78.898,61.369 84.067,68.436c5.169,7.067 24.391,19.993 34.682,25.677c10.291,5.687 22.091,6.9 34.276,6.9c8.346,0 21.861,-8.452 32.257,-9.485c10.389,-1.033 13.137,-10.602 6.888,-14.208c-6.24,-3.602 -41.055,-17.004 -41.055,-17.004l-2.931,-10.891c0,0 -2.69,-4.362 -16.649,-4.631c-13.955,-0.277 -17.643,4.939 -35.286,-11.18c-18.337,-16.758 -62.565,-71.469 -62.565,-71.469l33.341,-113.093c0,0 20.551,-72.521 -4.694,-98.307Z" style="fill:#f69da3;fill-rule:nonzero;"/><path d="M576.212,595.621l-0.386,-1.785c-11.394,2.456 -20.375,7.048 -27.216,14.657c-6.85,7.601 -11.512,18.072 -14.728,32.144c-3.2,14.01 -11.889,52.995 -20.176,90.074c-8.284,37.068 -16.182,72.272 -17.756,78.544c-0.655,2.631 -1.01,5.091 -1.01,7.473c-0.012,4.806 1.473,9.219 4.405,13.811c2.935,4.603 7.285,9.488 13.222,15.608c3.47,3.571 10.069,9.118 18.197,15.647c12.178,9.78 27.723,21.693 40.7,31.817c6.487,5.063 12.334,9.679 16.786,13.347c2.222,1.832 4.097,3.43 5.519,4.713c1.412,1.267 2.398,2.288 2.706,2.717c1.45,1.98 3.691,4.159 6.439,6.506c8.233,7.016 20.988,15.355 28.835,19.697c10.732,5.917 22.863,7.122 35.157,7.126c4.764,-0.035 10.28,-2.253 16.022,-4.483c5.718,-2.245 11.616,-4.545 16.415,-5.009c7.363,-0.702 11.842,-5.532 11.85,-10.548c0.024,-2.764 -1.473,-5.501 -4.225,-7.064c-1.743,-0.998 -5.072,-2.491 -9.247,-4.276c-12.478,-5.309 -32.062,-12.845 -32.066,-12.848l-0.659,1.703l1.766,-0.472l-3.001,-11.156l-0.141,-0.226c-0.179,-0.3 -1.165,-1.657 -3.871,-2.908c-2.713,-1.263 -7.133,-2.448 -14.294,-2.589c-0.386,-0.007 -0.764,-0.011 -1.138,-0.011c-4.931,0.004 -8.557,0.612 -11.761,0.604c-2.795,-0.008 -5.294,-0.394 -8.564,-1.969c-3.255,-1.582 -7.255,-4.412 -12.626,-9.328c-9.017,-8.229 -24.679,-26.102 -37.999,-41.846c-6.67,-7.879 -12.763,-15.234 -17.195,-20.622c-4.424,-5.387 -7.177,-8.79 -7.184,-8.794l-1.423,1.146l1.754,0.515l33.341,-113.097l0.004,-0.012c0.011,-0.085 7.948,-28 7.956,-55.646c0,-8.494 -0.749,-16.972 -2.748,-24.651c-2,-7.672 -5.259,-14.576 -10.354,-19.787l-0.705,-0.725l-0.987,0.218l0.386,1.785l-1.306,1.275c4.503,4.6 7.539,10.891 9.43,18.154c1.891,7.254 2.627,15.452 2.627,23.731c0,13.48 -1.949,27.174 -3.91,37.473c-0.978,5.15 -1.96,9.457 -2.693,12.467c-0.367,1.508 -0.671,2.685 -0.885,3.492c-0.211,0.803 -0.327,1.216 -0.327,1.22l1.758,0.495l-1.755,-0.514l-33.609,114.009l0.604,0.744c0.008,0.008 11.071,13.695 24.43,29.486c13.378,15.799 28.998,33.653 38.322,42.186c5.52,5.04 9.761,8.092 13.499,9.913c3.735,1.824 6.994,2.346 10.159,2.335c3.653,-0.004 7.145,-0.605 11.761,-0.601c0.35,0 0.705,0.004 1.068,0.012c6.79,0.129 10.7,1.255 12.821,2.245c1.064,0.495 1.684,0.951 2.015,1.244l0.304,0.3l0.027,0.031l0.819,-0.592l-0.861,0.53l0.042,0.062l0.819,-0.592l-0.861,0.53l1.555,-0.955l-1.766,0.471l3.173,11.792l0.865,0.335c0.008,0 2.172,0.835 5.532,2.148c5.036,1.965 12.739,5.002 19.756,7.878c3.508,1.435 6.849,2.838 9.585,4.039c2.733,1.197 4.9,2.218 5.929,2.814c1.708,1.014 2.378,2.37 2.402,3.899c0.011,2.72 -2.554,6.279 -8.561,6.911c-5.594,0.569 -11.655,3.013 -17.382,5.247c-5.695,2.253 -11.109,4.26 -14.692,4.225c-12.076,0.004 -23.54,-1.22 -33.391,-6.669c-5.06,-2.795 -12.408,-7.426 -19.081,-12.205c-3.341,-2.39 -6.514,-4.822 -9.149,-7.068c-2.632,-2.241 -4.729,-4.327 -5.863,-5.886c-0.877,-1.173 -2.468,-2.651 -4.826,-4.709c-8.19,-7.094 -25.143,-20.083 -41.539,-32.834c-8.194,-6.369 -16.243,-12.681 -22.96,-18.13c-6.708,-5.446 -12.115,-10.073 -14.902,-12.954c-5.89,-6.061 -10.093,-10.821 -12.763,-15.027c-2.67,-4.222 -3.828,-7.792 -3.84,-11.85c0,-2.016 0.301,-4.175 0.905,-6.584c1.606,-6.417 9.484,-41.543 17.775,-78.634c8.288,-37.079 16.977,-76.076 20.173,-90.058c3.138,-13.726 7.606,-23.561 13.874,-30.515c6.272,-6.946 14.388,-11.164 25.279,-13.53l-0.386,-1.786l-1.306,1.275l1.306,-1.275Z" style="fill:#f69da3;fill-rule:nonzero;"/></g></svg>