<?xml version="1.0" encoding="UTF-8" standalone="no"?><!DOCTYPE svg PUBLIC "-//W3C//DTD SVG 1.1//EN" "http://www.w3.org/Graphics/SVG/1.1/DTD/svg11.dtd"><svg width="100%" height="100%" viewBox="0 0 2134 2134" version="1.1" xmlns="http://www.w3.org/2000/svg" xmlns:xlink="http://www.w3.org/1999/xlink" xml:space="preserve" xmlns:serif="http://www.serif.com/" style="fill-rule:evenodd;clip-rule:evenodd;stroke-linejoin:round;stroke-miterlimit:1.41421;"><g><path d="M1602.08,883.833c-14.431,0 -26.115,11.699 -26.115,26.115l0,793.074c0,37.951 -30.874,68.802 -68.818,68.802l-1142.12,0c-37.96,0 -68.818,-30.873 -68.818,-68.802l0,-845.296l1079.5,0c14.431,0 26.115,-11.699 26.115,-26.114c0,-14.416 -11.692,-26.115 -26.115,-26.115l-1105.62,0c-14.43,0 -26.114,11.699 -26.114,26.115l0,871.418c0,66.744 54.31,121.039 121.055,121.039l1142.11,0c66.752,0 121.055,-54.295 121.07,-121.039l0,-793.082c-0.007,-14.416 -11.691,-26.115 -26.122,-26.115Z" style="fill:#3855be;fill-rule:nonzero;"/><path d="M985.989,1539.03l-142.036,-23.926c-14.446,-2.349 -27.698,7.223 -30.101,21.432c-2.387,14.224 7.193,27.698 21.432,30.101l144.102,24.263c1.423,0.222 2.884,0.352 4.338,0.352c67.341,0 122.126,46.185 122.126,102.982l0,77.594l-705.173,0l0,-77.594c0,-56.79 54.793,-102.982 122.126,-102.982c1.446,0 2.915,-0.115 4.339,-0.352l147.261,-24.799c14.232,-2.402 23.835,-15.877 21.432,-30.101c-2.403,-14.224 -15.915,-23.888 -30.101,-21.432l-145.196,24.462c-95.093,1.087 -172.083,70.295 -172.083,155.204l0,103.709c0,14.415 11.684,26.115 26.115,26.115l757.403,0c14.43,0 26.114,-11.7 26.114,-26.115l0,-103.709c-0.007,-84.909 -77.02,-154.117 -172.098,-155.204Z" style="fill:#3855be;fill-rule:nonzero;"/><path d="M845.078,1406.19l-184.432,0c-14.431,0 -26.115,11.699 -26.115,26.115l0,94.022c0,10.253 5.991,19.565 15.334,23.781c32.266,14.614 67.647,21.922 102.997,21.922c35.373,0 70.754,-7.3 103.005,-21.922c9.335,-4.216 15.334,-13.528 15.334,-23.781l0,-94.022c-0.008,-14.408 -11.7,-26.115 -26.123,-26.115Zm-26.122,102.515c-42.313,14.898 -89.829,14.929 -132.196,0l0,-50.278l132.196,0l0,50.278Z" style="fill:#3855be;fill-rule:nonzero;"/><path d="M1375.71,805.497l-1079.5,0l0,-78.352l1001.15,0c14.431,0 26.115,-11.699 26.115,-26.115c0,-14.415 -11.684,-26.114 -26.115,-26.114l-1027.27,0c-14.43,-0.008 -26.114,11.691 -26.114,26.107l0,130.589c0,14.415 11.684,26.114 26.114,26.114l1105.62,0c14.431,0 26.115,-11.699 26.115,-26.114c0,-14.416 -11.684,-26.115 -26.115,-26.115Z" style="fill:#3855be;fill-rule:nonzero;"/><path d="M759.542,936.093l-13.36,0c-118.048,0 -214.097,96.05 -214.097,214.105l0,195.773c0,62 50.446,112.447 112.446,112.447l216.669,0c62,0 112.447,-50.447 112.447,-112.447l0,-195.773c0,-118.055 -96.042,-214.105 -214.105,-214.105Zm161.868,409.87c-0.008,33.208 -27.01,60.21 -60.218,60.21l-216.668,0c-33.208,0 -60.21,-27.002 -60.21,-60.21l0,-195.772c0,-89.24 72.621,-161.876 161.86,-161.876l13.36,0c89.255,0 161.876,72.621 161.876,161.876l0,195.772Z" style="fill:#3855be;fill-rule:nonzero;"/><path d="M1445.36,1014.43l-313.407,0c-14.431,0 -26.114,11.699 -26.114,26.114c0,14.416 11.683,26.115 26.114,26.115l313.407,0c14.431,0 26.115,-11.699 26.115,-26.115c0,-14.415 -11.684,-26.114 -26.115,-26.114Z" style="fill:#3855be;fill-rule:nonzero;"/><path d="M1445.36,1118.9l-313.407,0c-14.431,0 -26.114,11.699 -26.114,26.114c0,14.416 11.683,26.115 26.114,26.115l313.407,0c14.431,0 26.115,-11.699 26.115,-26.115c0,-14.415 -11.684,-26.114 -26.115,-26.114Z" style="fill:#3855be;fill-rule:nonzero;"/><path d="M1445.36,1223.37l-313.407,0c-14.431,0 -26.114,11.699 -26.114,26.115c0,14.415 11.683,26.114 26.114,26.114l313.407,0c14.431,0 26.115,-11.699 26.115,-26.114c0.007,-14.416 -11.684,-26.115 -26.115,-26.115Z" style="fill:#3855be;fill-rule:nonzero;"/><path d="M1575.95,309.264c-172.818,0 -313.407,140.605 -313.407,313.407c0,172.802 140.589,313.407 313.407,313.407c172.817,0 313.407,-140.605 313.407,-313.407c0,-172.802 -140.59,-313.407 -313.407,-313.407Zm0,574.585c-143.994,0 -261.17,-117.161 -261.17,-261.17c0,-144.01 117.176,-261.178 261.17,-261.178c143.994,0 261.17,117.161 261.17,261.17c0,144.01 -117.176,261.178 -261.17,261.178Z" style="fill:#3855be;fill-rule:nonzero;"/><path d="M1787.1,557.916c-7.858,-24.118 -29.313,-39.696 -54.663,-39.696l-72.031,0c-2.273,0 -4.254,-1.439 -4.974,-3.619l-22.266,-68.504c-7.835,-24.133 -29.313,-39.712 -54.693,-39.712c-25.357,0 -46.827,15.579 -54.662,39.712l-22.266,68.534c-0.689,2.158 -2.701,3.589 -4.974,3.589l-72.031,0c-25.358,0 -46.805,15.578 -54.663,39.696c-7.85,24.133 0.337,49.353 20.866,64.288l58.282,42.336c1.851,1.332 2.601,3.696 1.905,5.854l-22.266,68.504c-7.82,24.133 0.367,49.337 20.866,64.25c20.552,14.928 47.034,14.913 67.593,0.015l58.282,-42.336c1.79,-1.316 4.254,-1.354 6.152,0l58.281,42.336c10.277,7.46 22.045,11.179 33.797,11.179c11.768,0 23.521,-3.734 33.812,-11.194c20.514,-14.913 28.701,-40.117 20.866,-64.25l-22.266,-68.481c-0.688,-2.181 0.038,-4.53 1.905,-5.877l58.282,-42.351c20.545,-14.928 28.732,-40.14 20.866,-64.273Zm-51.564,22.014l-58.281,42.336c-20.178,14.668 -28.602,40.484 -20.897,64.257l22.266,68.504c0.329,0.995 1.163,3.619 -1.89,5.854c-3.122,2.234 -5.379,0.612 -6.175,0l-58.281,-42.336c-10.108,-7.338 -21.937,-11.011 -33.767,-11.011c-11.859,0 -23.689,3.673 -33.766,11.011l-58.282,42.336c-0.795,0.642 -3.068,2.272 -6.174,0c-3.069,-2.235 -2.219,-4.859 -1.89,-5.854l22.266,-68.534c7.69,-23.751 -0.72,-49.575 -20.897,-64.235l-58.281,-42.321c-0.85,-0.612 -3.092,-2.249 -1.89,-5.876c1.178,-3.619 3.933,-3.619 4.973,-3.619l72.032,0c25.005,0 46.957,-15.969 54.662,-39.712l22.266,-68.504c0.337,-0.995 1.179,-3.619 4.974,-3.619c3.826,0 4.675,2.624 5.004,3.619l22.266,68.481c7.705,23.766 29.673,39.735 54.662,39.735l72.032,0c1.048,0 3.803,0 4.973,3.619c1.171,3.642 -1.071,5.272 -1.905,5.869Z" style="fill:#3855be;fill-rule:nonzero;"/></g></svg>