<?xml version="1.0" encoding="UTF-8" standalone="no"?><!DOCTYPE svg PUBLIC "-//W3C//DTD SVG 1.1//EN" "http://www.w3.org/Graphics/SVG/1.1/DTD/svg11.dtd"><svg width="100%" height="100%" viewBox="0 0 24 24" version="1.1" xmlns="http://www.w3.org/2000/svg" xmlns:xlink="http://www.w3.org/1999/xlink" xml:space="preserve" xmlns:serif="http://www.serif.com/" style="fill-rule:evenodd;clip-rule:evenodd;stroke-linejoin:round;stroke-miterlimit:1.41421;"><g><rect x="0" y="0" width="24" height="24" style="fill:none;"/><path d="M8,17c0.552,0 1,0.448 1,1l0,3c0,0.552 -0.448,1 -1,1l-5,0c-0.552,0 -1,-0.448 -1,-1l0,-3c0,-0.552 0.448,-1 1,-1l0,-0.5c0,-1.381 1.119,-2.5 2.5,-2.5c1.381,0 2.5,1.119 2.5,2.5l0,0.5Zm-2.5,-2c-0.828,0 -1.5,0.672 -1.5,1.5l0,0.5l3,0l0,-0.5c0,-0.828 -0.672,-1.5 -1.5,-1.5Z" style="fill:#c5e1f7;"/><path d="M2,11.865l0,-5.865c0,-1.657 1.343,-3 3,-3l14,0c1.657,0 3,1.343 3,3l0,9c0,0.003 0,0.007 0,0.01l0.025,-0.01l0,4.586c0,0.552 -0.448,1 -1,1c-0.265,0 -0.52,-0.106 -0.707,-0.293l-2.293,-2.293l-5.041,0c-0.258,-3.909 -3.51,-7 -7.484,-7c-1.264,0 -2.455,0.313 -3.5,0.865Zm4,-4.865c-0.552,0 -1,0.448 -1,1c0,0.552 0.448,1 1,1l9,0c0.552,0 1,-0.448 1,-1c0,-0.552 -0.448,-1 -1,-1l-9,0Z" style="fill:#00b8ff;"/></g></svg>