<?xml version="1.0" encoding="UTF-8" standalone="no"?><!DOCTYPE svg PUBLIC "-//W3C//DTD SVG 1.1//EN" "http://www.w3.org/Graphics/SVG/1.1/DTD/svg11.dtd"><svg width="100%" height="100%" viewBox="0 0 24 24" version="1.1" xmlns="http://www.w3.org/2000/svg" xmlns:xlink="http://www.w3.org/1999/xlink" xml:space="preserve" xmlns:serif="http://www.serif.com/" style="fill-rule:evenodd;clip-rule:evenodd;stroke-linejoin:round;stroke-miterlimit:1.41421;"><g><rect x="0" y="0" width="24" height="24" style="fill:none;"/><path d="M3.5,21l17,0c0.828,0 1.5,-0.672 1.5,-1.5l0,-11c0,-0.828 -0.672,-1.5 -1.5,-1.5l-10.5,0l-2.561,-2.561c-0.281,-0.281 -0.662,-0.439 -1.06,-0.439l-2.879,0c-0.828,0 -1.5,0.672 -1.5,1.5l0,14c0,0.828 0.672,1.5 1.5,1.5Z" style="fill:#c5e1f7;"/><path d="M14.5,13c0.552,0 1,0.448 1,1l0,3c0,0.552 -0.448,1 -1,1l-5,0c-0.552,0 -1,-0.448 -1,-1l0,-3c0,-0.552 0.448,-1 1,-1l0,-0.5c0,-1.381 1.119,-2.5 2.5,-2.5c1.381,0 2.5,1.119 2.5,2.5l0,0.5Zm-2.5,-2c-0.828,0 -1.5,0.672 -1.5,1.5l0,0.5l3,0l0,-0.5c0,-0.828 -0.672,-1.5 -1.5,-1.5Z" style="fill:#00b8ff;"/></g></svg>