<?xml version="1.0" encoding="UTF-8" standalone="no"?><!DOCTYPE svg PUBLIC "-//W3C//DTD SVG 1.1//EN" "http://www.w3.org/Graphics/SVG/1.1/DTD/svg11.dtd"><svg width="100%" height="100%" viewBox="0 0 24 24" version="1.1" xmlns="http://www.w3.org/2000/svg" xmlns:xlink="http://www.w3.org/1999/xlink" xml:space="preserve" xmlns:serif="http://www.serif.com/" style="fill-rule:evenodd;clip-rule:evenodd;stroke-linejoin:round;stroke-miterlimit:1.41421;"><g><path d="M0,0l24,0l0,24l-24,0l0,-24Z" style="fill:none;"/><path d="M18,14c-1.657,0 -3,-1.343 -3,-3c0,-1.657 1.343,-3 3,-3c1.657,0 3,1.343 3,3c0,1.657 -1.343,3 -3,3Zm-9,-3c-2.209,0 -4,-1.791 -4,-4c0,-2.209 1.791,-4 4,-4c2.209,0 4,1.791 4,4c0,2.209 -1.791,4 -4,4Z" style="fill:#c5e1f7;fill-rule:nonzero;"/><path d="M17.601,15.001c3.407,0.037 6.188,1.759 6.397,5.399c0.009,0.147 0,0.6 -0.542,0.6l-3.856,0c0,-2.251 -0.744,-4.328 -1.999,-5.999Zm-17.6,5.198c0.387,-4.772 4.261,-7.199 8.982,-7.199c4.788,0 8.722,2.293 9.015,7.2c0.012,0.195 0,0.8 -0.751,0.8l-16.519,0c-0.251,0 -0.748,-0.541 -0.727,-0.801Z" style="fill:#00b8ff;fill-rule:nonzero;"/></g></svg>