<?xml version="1.0" encoding="UTF-8" standalone="no"?><!DOCTYPE svg PUBLIC "-//W3C//DTD SVG 1.1//EN" "http://www.w3.org/Graphics/SVG/1.1/DTD/svg11.dtd"><svg width="100%" height="100%" viewBox="0 0 2134 2134" version="1.1" xmlns="http://www.w3.org/2000/svg" xmlns:xlink="http://www.w3.org/1999/xlink" xml:space="preserve" xmlns:serif="http://www.serif.com/" style="fill-rule:evenodd;clip-rule:evenodd;stroke-linejoin:round;stroke-miterlimit:1.41421;"><path d="M1743.47,1307.1c0.208,28.3 -16.546,53.783 -42.217,65.687c-161.537,74.929 -386.104,121.442 -634.583,121.442c-248.479,0 -473.046,-46.508 -634.588,-121.442c-25.671,-11.908 -42.425,-37.391 -42.216,-65.687c5.062,-680.125 129.479,-1273.69 676.804,-1273.69c547.325,0 671.741,593.567 676.8,1273.69Z" style="fill:#5a4146;fill-rule:nonzero;"/><path d="M1316.08,1417.18l0,-172.366l-498.817,0l0,172.366c0,46.009 -29.437,86.859 -73.091,101.405l-339.546,113.183c-72.742,24.25 -121.809,92.325 -121.809,169.004l0,227.896c0,39.358 31.901,71.258 71.259,71.258l1425.19,0c39.358,0 71.258,-31.9 71.258,-71.258l0,-227.896c0,-76.679 -49.067,-144.758 -121.813,-169.004l-339.545,-113.183c-43.65,-14.55 -73.088,-55.396 -73.088,-101.405Z" style="fill:#e6af78;fill-rule:nonzero;"/><path d="M1728.71,1631.77l-277.45,-92.484c-132.05,179.146 -286.179,279.255 -384.591,311.234c-98.409,-31.984 -252.538,-132.088 -384.592,-311.234l-277.45,92.484c-72.746,24.25 -121.812,92.325 -121.812,169.004l0,227.896c0,39.354 31.908,71.258 71.258,71.258l1425.19,0c39.354,0 71.258,-31.908 71.258,-71.258l0,-227.896c0,-76.675 -49.067,-144.75 -121.813,-169.004Z" style="fill:#e4eaf6;fill-rule:nonzero;"/><g><path d="M526.104,1880.04l-197.65,-197.65c-28.496,31.92 -45.642,73.533 -45.642,118.387l0,227.896c0,39.358 31.9,71.258 71.259,71.258l213.779,0l0,-119.116c0,-37.796 -15.013,-74.046 -41.746,-100.775Z" style="fill:#d7deed;fill-rule:nonzero;"/><path d="M1607.23,1880.04l197.65,-197.65c28.496,31.92 45.642,73.533 45.642,118.387l0,227.896c0,39.358 -31.9,71.258 -71.258,71.258l-213.78,0l0,-119.116c0,-37.796 15.013,-74.046 41.746,-100.775Z" style="fill:#d7deed;fill-rule:nonzero;"/></g><g><path d="M609.446,781.988l-41.375,-0.134c-39.442,-0.125 -71.488,31.817 -71.488,71.258l0,140.859c0,39.908 32.775,72.037 72.68,71.246l61.412,-1.225l-21.229,-282.005Z" style="fill:#707487;fill-rule:nonzero;"/><path d="M1523.89,781.988l41.375,-0.134c39.441,-0.125 71.487,31.817 71.487,71.258l0,140.859c0,39.908 -32.775,72.037 -72.679,71.246l-61.413,-1.225l21.23,-282.005Z" style="fill:#707487;fill-rule:nonzero;"/></g><path d="M603.479,460.958l0,153.625c0,63.834 2.45,127.646 7.346,191.288l20.533,266.908c4.909,63.8 38.134,122.046 90.555,158.738l215.158,150.612c37.967,26.579 83.196,40.838 129.542,40.838l0.108,0c46.346,0 91.575,-14.259 129.542,-40.838l215.158,-150.612c52.421,-36.696 85.65,-94.942 90.554,-158.742l20.533,-266.908c4.896,-63.642 7.346,-127.459 7.346,-191.288l0,-153.621l-926.375,0Z" style="fill:#f0c087;fill-rule:nonzero;"/><path d="M567.85,425.329l0,249.408c422.125,0 743.454,-146.958 797.275,-179.429c57.842,143.796 162.058,179.429 162.058,179.429l38.304,0l0,-249.408l-997.637,0Z" style="fill:#5a4146;fill-rule:nonzero;"/><path d="M1041.47,1932.06l25.2,8.85l25.2,-8.85c115.587,-40.62 288.45,-157.212 443.358,-364.779l-83.971,-27.991c-132.05,179.145 -286.179,279.254 -384.592,311.233c-98.408,-31.983 -252.537,-132.088 -384.591,-311.234l-83.971,27.992c154.917,207.563 327.779,324.154 443.367,364.779Z" style="fill:#d7deed;fill-rule:nonzero;"/><path d="M1739.27,1600.08l-276.988,-92.325c-0.083,-0.029 -0.17,-0.058 -0.254,-0.083l-39.675,-13.225c108.834,-21.288 209.109,-52.458 292.959,-91.354c37.7,-17.492 61.866,-55.263 61.562,-96.242c-4.183,-561.012 -82.346,-1306.85 -710.208,-1306.85c-627.863,0 -706.025,745.838 -710.204,1306.85c-0.305,40.975 23.862,78.75 61.562,96.238c83.85,38.891 184.121,70.062 292.954,91.35l-39.704,13.237c-0.071,0.021 -0.137,0.046 -0.204,0.067l-277.004,92.333c-86.525,28.842 -144.659,109.5 -144.659,200.7l0,227.896c0,57.712 46.95,104.662 104.663,104.662l1425.19,0c57.712,0 104.662,-46.95 104.662,-104.662l0,-227.896c0,-91.2 -58.129,-171.858 -144.654,-200.696Zm-1160.81,-784.783l16.275,216.008l-26.129,0.521c-10.233,0.2 -19.933,-3.638 -27.258,-10.813c-7.321,-7.179 -11.358,-16.783 -11.358,-27.033l0,-140.858c0,-10.134 3.954,-19.654 11.129,-26.813c7.175,-7.158 16.596,-11.037 26.846,-11.046l10.495,0.034Zm64.317,-35.55c-1.537,-22.838 -2.771,-47.059 -3.737,-73.384c340.812,-13.033 608.854,-115.549 710.262,-164.908c46.996,93.684 111.892,137.592 145.342,155.104c-1.013,30.038 -2.35,57.388 -4.079,83.054l-21.896,290.605c-1.296,16.841 -4.896,33.17 -10.575,48.616c-45.2,36.284 -123.13,69.763 -257.213,76.475c-12.691,-32.241 -44.075,-55.154 -80.771,-55.154l-35.629,0c-47.887,0 -86.846,38.963 -86.846,86.846c0,47.887 38.963,86.846 86.846,86.846l35.629,0c35.313,0 65.717,-21.217 79.275,-51.546c51.313,-2.342 95.792,-8.446 134.388,-17.204l-156.663,109.667c-32.521,22.762 -70.695,34.795 -110.491,34.795c-39.696,0 -77.863,-12.033 -110.392,-34.795l-215.158,-150.613c-44.4,-31.083 -72.25,-79.896 -76.4,-133.883l-21.892,-290.521Zm921.954,252.075l-26.129,-0.521l16.275,-216.008l10.487,-0.038c10.034,-0.029 19.667,3.892 26.846,11.046c7.175,7.154 11.129,16.675 11.129,26.813l0,140.858c0,10.258 -4.033,19.854 -11.358,27.033c-7.317,7.179 -16.933,11.05 -27.25,10.817Zm-424.575,195.179c0,11.05 -8.992,20.042 -20.042,20.042l-35.629,0c-11.05,0 -20.041,-8.992 -20.041,-20.042c0,-11.05 8.991,-20.042 20.041,-20.042l35.629,0c11.05,0 20.042,8.992 20.042,20.042Zm-289.492,190.183l0,-54.762l67.255,47.079c43.808,30.662 95.225,46.871 148.804,46.871c53.471,0 104.891,-16.208 148.696,-46.871l67.254,-47.083l0,54.766c0,60.484 38.55,113.967 95.929,133.092l17.354,5.787c-81.121,99.742 -205.158,214.846 -329.296,259.171c-124.133,-44.325 -248.175,-159.429 -329.295,-259.171l17.354,-5.787c57.391,-19.125 95.945,-72.612 95.945,-133.092Zm-427.395,-109.837c2.908,-390.688 46.2,-678.2 132.341,-878.971c104.396,-243.296 271.567,-361.571 511.059,-361.571c239.491,0 406.662,118.275 511.054,361.571c86.146,200.771 129.437,488.283 132.341,878.962c0.113,14.855 -8.866,28.646 -22.87,35.146c-93.305,43.275 -208.834,76.554 -334.413,96.429c-2.137,-6.912 -3.308,-14.212 -3.308,-21.729l0,-101.108c0,-0.138 -0.017,-0.271 -0.021,-0.408l81.121,-56.784c36.766,-25.733 65.175,-60.379 83.221,-100.091c22.454,-20.48 37.895,-41.413 48.5,-60.196c0,0 2.533,0.046 3.245,0.046c27.546,0 53.471,-10.58 73.205,-29.925c20.245,-19.846 31.396,-46.392 31.396,-74.742l0,-140.858c0,-28.017 -10.93,-54.346 -30.771,-74.125c-19.846,-19.784 -46.225,-30.7 -74.225,-30.538l-5.834,0.017c1.167,-22.713 2.088,-46.792 2.792,-72.834c0.246,-9.008 -3.167,-17.737 -9.454,-24.2c-4.808,-4.937 -10.988,-8.233 -17.658,-9.508c-16.8,-7.112 -92.892,-44.746 -138.884,-159.083c-3.654,-9.088 -11.108,-16.109 -20.396,-19.213c-9.291,-3.104 -19.466,-1.979 -27.85,3.079c-54.033,32.596 -356.246,165.988 -743.946,173.846c-8.895,0.184 -17.35,3.9 -23.487,10.338c-6.142,6.437 -9.463,15.058 -9.225,23.954c0.704,26.35 1.633,50.662 2.808,73.625l-5.833,-0.017l-0.342,0c-27.891,0 -54.116,10.842 -73.883,30.538c-19.846,19.779 -30.771,46.104 -30.771,74.125l0,140.858c0,28.354 11.146,54.896 31.396,74.742c19.733,19.346 45.654,29.925 73.204,29.925c0.717,0 33.142,-0.642 33.142,-0.642c11.029,64.921 47.266,122.692 101.829,160.888l81.121,56.783c0,0.138 -0.021,0.271 -0.021,0.408l0,101.109c0,7.516 -1.171,14.816 -3.308,21.729c-125.58,-19.871 -241.109,-53.15 -334.413,-96.429c-13.996,-6.504 -22.971,-20.296 -22.862,-35.146Zm-8.08,356.112l254.684,-84.895c134.333,174.616 286.55,271.254 386.471,303.725c3.354,1.091 6.841,1.633 10.325,1.633c3.483,0 6.97,-0.542 10.325,-1.633c99.925,-32.475 252.137,-129.113 386.47,-303.725l254.684,84.895c14.087,4.7 27.029,11.45 38.646,19.784l-173.184,173.179c-33.225,33.229 -51.525,77.404 -51.525,124.396l0,85.712l-930.829,0l0,-85.712c0,-46.992 -18.3,-91.167 -51.525,-124.396l-173.183,-173.179c11.612,-8.334 24.558,-15.088 38.641,-19.784Zm-98.975,365.213l0,-227.896c0,-23.921 5.888,-46.754 16.43,-66.962l169.841,169.841c20.609,20.613 31.959,48.013 31.959,77.159l0,85.716l-180.375,0c-20.871,0 -37.855,-16.983 -37.855,-37.858Zm1500.91,0c0,20.875 -16.984,37.858 -37.859,37.858l-180.375,0l0,-85.712c0,-29.146 11.35,-56.546 31.959,-77.159l169.841,-169.841c10.542,20.208 16.43,43.041 16.43,66.962l0,227.892l0.004,0Z" style="fill-rule:nonzero;"/></svg>