<?xml version="1.0" encoding="UTF-8" standalone="no"?><!DOCTYPE svg PUBLIC "-//W3C//DTD SVG 1.1//EN" "http://www.w3.org/Graphics/SVG/1.1/DTD/svg11.dtd"><svg width="100%" height="100%" viewBox="0 0 24 24" version="1.1" xmlns="http://www.w3.org/2000/svg" xmlns:xlink="http://www.w3.org/1999/xlink" xml:space="preserve" xmlns:serif="http://www.serif.com/" style="fill-rule:evenodd;clip-rule:evenodd;stroke-linejoin:round;stroke-miterlimit:1.41421;"><g><rect x="0" y="0" width="24" height="24" style="fill:none;"/><path d="M8,2.5c-0.69,0 -1.25,0.56 -1.25,1.25l0,16.5c0,0.69 0.56,1.25 1.25,1.25l8,0c0.69,0 1.25,-0.56 1.25,-1.25l0,-16.5c0,-0.69 -0.56,-1.25 -1.25,-1.25l-8,0Z" style="fill:#c5e1f7;"/><path d="M8,2.5c-0.69,0 -1.25,0.56 -1.25,1.25l0,16.5c0,0.69 0.56,1.25 1.25,1.25l8,0c0.69,0 1.25,-0.56 1.25,-1.25l0,-16.5c0,-0.69 -0.56,-1.25 -1.25,-1.25l-8,0Zm0,-1.5l8,0c1.519,0 2.75,1.231 2.75,2.75l0,16.5c0,1.519 -1.231,2.75 -2.75,2.75l-8,0c-1.519,0 -2.75,-1.231 -2.75,-2.75l0,-16.5c0,-1.519 1.231,-2.75 2.75,-2.75Zm1.5,0.75l5,0c0.276,0 0.5,0.224 0.5,0.5l0,1c0,0.276 -0.224,0.5 -0.5,0.5l-5,0c-0.276,0 -0.5,-0.224 -0.5,-0.5l0,-1c0,-0.276 0.224,-0.5 0.5,-0.5Z" style="fill:#00b8ff;fill-rule:nonzero;"/></g></svg>