<?xml version="1.0" encoding="UTF-8" standalone="no"?><!DOCTYPE svg PUBLIC "-//W3C//DTD SVG 1.1//EN" "http://www.w3.org/Graphics/SVG/1.1/DTD/svg11.dtd"><svg width="100%" height="100%" viewBox="0 0 2134 2134" version="1.1" xmlns="http://www.w3.org/2000/svg" xmlns:xlink="http://www.w3.org/1999/xlink" xml:space="preserve" xmlns:serif="http://www.serif.com/" style="fill-rule:evenodd;clip-rule:evenodd;stroke-linejoin:round;stroke-miterlimit:1.41421;"><g><g><g><rect x="746.667" y="1297.78" width="533.333" height="391.113" style="fill:#00b8ff;"/><path d="M1493.33,1688.89l0,71.112l-748.087,0l0.712,-71.113l0.713,-71.112l675.554,0c39.221,0.121 70.992,31.888 71.108,71.113Z" style="fill:#00b8ff;fill-rule:nonzero;"/></g><g><path d="M1173.33,1297.78l0,391.109l-427.379,0l0.713,-71.109l0,-320l426.666,0Z" style="fill:#00b8ff;fill-rule:nonzero;"/><path d="M1386.67,1688.89l0,71.112l-641.421,0l0.712,-71.113l0.713,-71.112l568.887,0c39.221,0.121 70.992,31.888 71.109,71.113Z" style="fill:#00b8ff;fill-rule:nonzero;"/></g><path d="M1742.22,408.888l0,888.887l-1351.11,0l0,-888.888c0,-78.545 63.675,-142.22 142.22,-142.22l1066.67,0c78.546,0 142.221,63.675 142.221,142.221Z" style="fill:#e0e5f4;fill-rule:nonzero;"/><path d="M1635.55,408.888l0,888.887l-1244.44,0l0,-888.888c0,-78.545 63.675,-142.22 142.22,-142.22l960,0c78.546,0 142.221,63.675 142.221,142.221Z" style="fill:#e0e5f4;fill-rule:nonzero;"/><g><path d="M746.667,1226.67l995.554,0l0,173.154c-14.875,3.192 -30.05,4.742 -45.263,4.621l-950.291,0l0,-177.775Z" style="fill:#00b8ff;fill-rule:nonzero;"/><path d="M1528.89,1226.67l0,173.154c-14.842,3.175 -29.98,4.725 -45.155,4.621l-772.62,0l0,-177.775l817.775,0Z" style="fill:#00b8ff;fill-rule:nonzero;"/></g><path d="M1528.89,1226.67l0,173.154c-14.842,3.175 -29.98,4.725 -45.155,4.621l-772.62,0l0,-177.775l817.775,0Z" style="fill:#00b8ff;fill-rule:nonzero;"/><path d="M2097.78,1155.55l0,604.446l-462.225,0l0,-604.446l462.225,0" style="fill:#e0e5f4;fill-rule:nonzero;"/><g><path d="M2097.78,1159.11l0,67.554l-462.225,0l0,-67.555c0,-41.237 33.429,-74.666 74.667,-74.666l312.887,0c41.242,0 74.671,33.429 74.671,74.667" style="fill:#00b8ff;fill-rule:nonzero;"/><path d="M2097.78,1724.45l0,67.554c0,19.804 -7.867,38.796 -21.871,52.796c-14.004,14.004 -32.995,21.871 -52.795,21.871l-312.888,0c-41.237,0 -74.667,-33.429 -74.667,-74.667l0,-67.554l462.221,0" style="fill:#00b8ff;fill-rule:nonzero;"/></g><path d="M2045.37,1087.82l0.321,0l-0.321,0m-19.346,-3.375c6.538,0.242 13.017,1.342 19.271,3.271c-6.25,-1.929 -12.729,-3.029 -19.271,-3.271" style="fill:#ccc;fill-rule:nonzero;"/><path d="M2097.78,1226.67l-106.667,0l0,497.779l106.667,0l0,-497.779m0,-71.113l0,3.554l0,-3.554" style="fill:#e0e5f4;fill-rule:nonzero;"/><rect x="35.554" y="800" width="817.779" height="924.446" style="fill:#e0e5f4;"/><rect x="35.554" y="800" width="711.112" height="924.446" style="fill:#e0e5f4;"/><g><path d="M853.333,1688.89l0,52.979c0.021,33.104 -13.125,64.858 -36.533,88.266c-23.408,23.409 -55.162,36.55 -88.267,36.534l-568.179,0c-33.104,0.02 -64.858,-13.125 -88.266,-36.534c-23.409,-23.408 -36.55,-55.162 -36.534,-88.266l0,-52.98l817.779,0Z" style="fill:#00b8ff;fill-rule:nonzero;"/><path d="M853.333,782.579l0,52.979l-817.779,0l0,-52.979c-0.021,-33.104 13.125,-64.858 36.534,-88.267c23.408,-23.408 55.162,-36.55 88.266,-36.533l568.179,0c33.105,-0.021 64.859,13.125 88.267,36.533c23.408,23.405 36.554,55.163 36.533,88.267Z" style="fill:#00b8ff;fill-rule:nonzero;"/></g></g><path d="M2023.11,1048.89l-245.334,0l0,-640c-0.121,-98.134 -79.646,-177.659 -177.779,-177.775l-1066.67,0c-98.133,0.116 -177.658,79.641 -177.779,177.779l0,213.333l-195.058,0c-88.596,0.096 -160.396,71.896 -160.496,160.496l0,959.004c0.1,88.6 71.9,160.4 160.496,160.496l567.892,0c67.67,-0.204 127.916,-42.892 150.541,-106.667l614.404,0c19.638,0 35.554,-15.917 35.554,-35.554l0,-71.112c0,-58.909 -47.758,-106.667 -106.666,-106.667l-106.667,0l0,-142.221l284.446,0l0,352c0,60.875 49.35,110.221 110.221,110.221l312.887,0c60.875,0 110.221,-49.35 110.221,-110.221l0,-632.887c0.004,-60.875 -49.346,-110.225 -110.217,-110.225Zm-352,213.333l391.113,0l0,426.667l-391.113,0l0,-426.667Zm391.109,-103.108l0,32l-391.113,0l0,-32c0,-21.601 17.513,-39.113 39.113,-39.113l312.887,0c21.604,0 39.113,17.513 39.113,39.113Zm-1635.55,-750.226c0,-58.908 47.758,-106.666 106.666,-106.666l1066.67,0c58.908,0 106.667,47.758 106.667,106.666l0,640.355c-59.342,1.916 -106.504,50.491 -106.667,109.866l0,32l-711.113,0l0,-408.391c-0.1,-88.6 -71.9,-160.4 -160.495,-160.496l-301.725,0l0,-213.334Zm-355.555,462.225l746.667,0l0,782.221l-746.667,0l0,-782.221Zm89.384,-177.779l567.891,0c49.35,0.038 89.346,40.038 89.388,89.388l0,17.279l-746.667,0l0,-17.279c0.042,-49.35 40.038,-89.35 89.388,-89.388Zm567.896,1137.78l-567.896,0c-49.35,-0.037 -89.346,-40.037 -89.388,-89.387l0,-17.279l746.667,0l0,17.279c-0.038,49.35 -40.033,89.346 -89.383,89.387Zm729.387,-142.224l0,35.554l-568.892,0l0,-71.109l533.334,0c19.637,0 35.558,15.921 35.558,35.554Zm-213.333,-106.666l-355.554,0l0,-142.221l355.554,0l0,142.221Zm35.554,-213.334l-391.113,0l0,-106.666l711.113,0l0,106.666l-320,0Zm743.112,462.225l-312.887,0c-21.6,0 -39.112,-17.512 -39.112,-39.112l0,-32l391.112,0l0,32c-0.004,21.6 -17.512,39.112 -39.112,39.112Z" style="fill-rule:nonzero;"/></g></svg>