<?xml version="1.0" encoding="UTF-8" standalone="no"?><!DOCTYPE svg PUBLIC "-//W3C//DTD SVG 1.1//EN" "http://www.w3.org/Graphics/SVG/1.1/DTD/svg11.dtd"><svg width="100%" height="100%" viewBox="0 0 2134 2134" version="1.1" xmlns="http://www.w3.org/2000/svg" xmlns:xlink="http://www.w3.org/1999/xlink" xml:space="preserve" xmlns:serif="http://www.serif.com/" style="fill-rule:evenodd;clip-rule:evenodd;stroke-linejoin:round;stroke-miterlimit:1.41421;"><g id="_033---Insurance" serif:id="033---Insurance"><path id="Shape" d="M1600,278.756l0,547.911c0.037,114.252 -54.869,221.551 -147.556,288.355l-368.355,265.956c-10.415,7.466 -24.43,7.466 -34.845,0l-35.911,-25.956l-332.444,-240c-92.686,-66.804 -147.593,-174.103 -147.556,-288.355l0,-547.911c-0.086,-6.643 3.846,-12.682 9.956,-15.289l470.044,-206.223l46.578,-20.266c4.328,-1.778 9.183,-1.778 13.511,0l516.622,226.489c6.111,2.607 10.042,8.646 9.956,15.289Z" style="fill:#e0e5f4;fill-rule:nonzero;"/><path id="Shape1" serif:id="Shape" d="M509.013,1484.02l-162.417,-162.454c-34.838,-34.838 -62.714,-76 -82.134,-121.28l-79.573,-185.564c-12.262,-28.584 -40.364,-47.122 -71.467,-47.147c-26.437,0.039 -51.047,13.494 -65.348,35.729c-14.301,22.234 -16.337,50.209 -5.407,74.28l139.342,306.56c17.088,37.579 40.789,71.781 69.973,100.978l257.031,257.102l344.32,0l0,-101.724c1.161,-76.137 -23.56,-150.412 -70.115,-210.667c-26.02,-34.334 -61.462,-60.363 -102.009,-74.915c-78.933,-33.315 -151.69,-79.689 -215.218,-137.174c-50.73,-42.35 -125.417,-38.891 -172.018,7.965" style="fill:#ffe0b2;fill-rule:nonzero;"/><path id="Shape2" serif:id="Shape" d="M1624.25,1484.02l162.453,-162.454c34.838,-34.838 62.714,-76 82.134,-121.28l79.608,-185.564c12.273,-28.607 40.41,-47.151 71.538,-47.147c26.424,0.063 51.012,13.528 65.296,35.758c14.284,22.231 16.313,50.191 5.389,74.251l-139.343,306.56c-17.088,37.579 -40.789,71.781 -69.973,100.978l-257.102,257.102l-344.249,0l0,-101.724c-1.151,-76.141 23.583,-150.417 70.151,-210.667c26.02,-34.334 61.461,-60.363 102.009,-74.915c78.922,-33.316 151.667,-79.689 215.182,-137.174c50.748,-42.337 125.434,-38.88 172.054,7.965" style="fill:#ffe0b2;fill-rule:nonzero;"/><path id="Shape3" serif:id="Shape" d="M2097.78,1045.33c0.033,11.177 -2.395,22.223 -7.111,32.356l-139.378,306.489c-17.079,37.601 -40.808,71.81 -70.045,100.978l-257.066,257.066l-106.667,0l257.067,-257.066c29.237,-29.168 52.965,-63.377 70.044,-100.978l139.378,-306.489c4.717,-10.133 7.145,-21.179 7.111,-32.356c-0.097,-21.407 -8.964,-41.84 -24.533,-56.533c14.33,-13.771 33.459,-21.422 53.333,-21.333c42.924,0.194 77.672,34.943 77.867,77.866Z" style="fill:#dfc49c;fill-rule:nonzero;"/><path id="Rectangle-path" d="M1639.93,1777.78c0,-19.624 -15.932,-35.556 -35.555,-35.556l-359.934,0c-19.623,0 -35.555,15.932 -35.555,35.556l0,284.444c0,19.624 15.932,35.556 35.555,35.556l359.934,0c19.623,0 35.555,-15.932 35.555,-35.556l0,-284.444Z" style="fill:#00b8ff;"/><path id="Rectangle-path1" serif:id="Rectangle-path" d="M924.409,1777.78c0,-19.624 -15.932,-35.556 -35.556,-35.556l-391.111,0c-19.623,0 -35.555,15.932 -35.555,35.556l0,284.444c0,19.624 15.932,35.556 35.555,35.556l391.111,0c19.624,0 35.556,-15.932 35.556,-35.556l0,-284.444Z" style="fill:#00b8ff;"/><path id="Shape4" serif:id="Shape" d="M1066.67,1422.22c-13.703,-0.002 -27.056,-4.332 -38.151,-12.373l-368.605,-265.849c-101.657,-73.512 -161.94,-191.277 -162.133,-316.729l0,-558.258c0.007,-14.131 8.382,-26.916 21.333,-32.569l533.333,-233.457c9.069,-3.958 19.376,-3.958 28.445,0l533.333,233.457c12.952,5.653 21.326,18.438 21.334,32.569l0,558.223c-0.193,125.451 -60.477,243.216 -162.134,316.728l-368.604,265.92c-11.107,8.016 -24.455,12.332 -38.151,12.338Zm-497.778,-1129.95l0,535.004c0.163,102.61 49.474,198.932 132.622,259.058l365.156,263.36l365.155,-263.36c83.149,-60.126 132.46,-156.448 132.622,-259.058l0,-535.004l-497.777,-217.885l-497.778,217.885Z" style="fill-rule:nonzero;"/><path id="Shape5" serif:id="Shape" d="M853.333,1777.78l-344.284,0c-9.429,-0.002 -18.471,-3.75 -25.138,-10.418l-257.102,-257.102c-32.241,-32.184 -58.393,-69.936 -77.191,-111.431l-139.342,-306.525c-16.355,-37.047 -11.703,-80.006 12.204,-112.694c23.907,-32.687 63.436,-50.137 103.698,-45.777c40.261,4.36 75.138,29.868 91.493,66.916l76.907,179.697c59.986,-39.666 138.843,-35.495 194.311,10.276c59.8,54.971 128.67,99.168 203.555,130.631c47.088,16.636 88.281,46.682 118.507,86.436c51.517,66.541 78.987,148.564 77.938,232.711l0,101.724c0,19.637 -15.919,35.556 -35.556,35.556Zm-329.564,-71.111l294.009,0l0,-66.169c1.073,-68.047 -20.893,-134.458 -62.329,-188.445c-21.751,-28.979 -51.462,-51.005 -85.511,-63.395c-83.56,-34.003 -160.379,-82.647 -226.845,-143.645c-33.25,-27.398 -81.019,-28.194 -115.164,-1.92c12.823,19.177 27.508,37.041 43.84,53.334l162.418,162.453c9.243,8.927 12.949,22.147 9.696,34.578c-3.254,12.431 -12.963,22.14 -25.394,25.393c-12.431,3.254 -25.651,-0.453 -34.578,-9.695l-162.418,-162.454c-38.107,-37.989 -68.55,-82.954 -89.671,-132.444l-79.538,-185.494c-6.63,-15.557 -21.914,-25.649 -38.826,-25.635c-14.371,0.005 -27.755,7.31 -35.533,19.394c-7.778,12.084 -8.885,27.292 -2.938,40.375l139.342,306.524c15.296,33.719 36.556,64.398 62.755,90.56l246.685,246.685Z" style="fill-rule:nonzero;"/><path id="Shape6" serif:id="Shape" d="M888.889,2133.33l-391.111,0c-39.274,0 -71.111,-31.837 -71.111,-71.111l0,-284.444c0,-39.274 31.837,-71.111 71.111,-71.111l391.111,0c39.273,0 71.111,31.837 71.111,71.111l0,284.444c0,39.274 -31.838,71.111 -71.111,71.111Zm-391.111,-355.555l0,284.444l391.111,0l0,-284.444l-391.111,0Z" style="fill-rule:nonzero;"/><path id="Shape7" serif:id="Shape" d="M782.222,1955.56l-35.555,0c-19.637,0 -35.556,-15.919 -35.556,-35.556c0,-19.637 15.919,-35.556 35.556,-35.556l35.555,0c19.637,0 35.556,15.919 35.556,35.556c0,19.637 -15.919,35.556 -35.556,35.556Z" style="fill-rule:nonzero;"/><path id="Shape8" serif:id="Shape" d="M1624.28,1777.78l-344.284,0c-19.637,0 -35.556,-15.919 -35.556,-35.556l0,-101.724c-1.089,-84.207 26.384,-166.3 77.938,-232.889c30.226,-39.754 71.419,-69.8 118.507,-86.436c74.886,-31.463 143.756,-75.66 203.555,-130.631c55.474,-45.861 134.369,-50.187 194.525,-10.666l76.729,-179.023c15.928,-37.705 50.946,-63.894 91.615,-68.516c40.67,-4.623 80.672,13.039 104.656,46.208c23.983,33.169 28.222,76.691 11.089,113.864l-139.342,306.524c-18.799,41.496 -44.951,79.248 -77.192,111.431l-257.102,256.996c-6.666,6.668 -15.708,10.416 -25.138,10.418Zm-308.728,-71.111l294.008,0l246.685,-246.685c26.2,-26.162 47.459,-56.841 62.755,-90.56l139.343,-306.524c5.946,-13.083 4.839,-28.291 -2.939,-40.375c-7.778,-12.084 -21.162,-19.389 -35.532,-19.394c-16.901,-0.01 -32.178,10.062 -38.827,25.6l-79.538,185.529c-21.121,49.49 -51.564,94.455 -89.671,132.444l-162.418,162.454c-13.951,13.474 -36.127,13.281 -49.842,-0.434c-13.715,-13.715 -13.908,-35.891 -0.433,-49.842l162.417,-162.453c16.435,-16.386 31.193,-34.371 44.054,-53.689c-34.261,-26.297 -82.164,-25.367 -115.378,2.24c-66.472,61.006 -143.305,109.651 -226.88,143.644c-33.982,12.426 -63.626,34.449 -85.333,63.396c-41.495,53.977 -63.512,120.404 -62.471,188.48l0,66.169Z" style="fill-rule:nonzero;"/><path id="Shape9" serif:id="Shape" d="M1635.56,2133.33l-391.112,0c-39.273,0 -71.111,-31.837 -71.111,-71.111l0,-284.444c0,-39.274 31.838,-71.111 71.111,-71.111l391.112,0c39.273,0 71.111,31.837 71.111,71.111l0,284.444c0,39.274 -31.838,71.111 -71.111,71.111Zm-391.112,-355.555l0,284.444l391.112,0l0,-284.444l-391.112,0Z" style="fill-rule:nonzero;"/><path id="Shape10" serif:id="Shape" d="M1386.67,1955.56l-35.556,0c-19.637,0 -35.555,-15.919 -35.555,-35.556c0,-19.637 15.918,-35.556 35.555,-35.556l35.556,0c19.636,0 35.555,15.919 35.555,35.556c0,19.637 -15.919,35.556 -35.555,35.556Z" style="fill-rule:nonzero;"/><path id="Shape11" serif:id="Shape" d="M995.556,924.444c-7.694,0 -15.179,-2.495 -21.334,-7.111l-142.222,-106.666c-15.709,-11.782 -18.893,-34.069 -7.111,-49.778c11.782,-15.71 34.068,-18.893 49.778,-7.111l112.142,84.124l263.609,-395.413c10.898,-16.338 32.978,-20.747 49.315,-9.849c16.338,10.898 20.748,32.978 9.849,49.316l-284.444,426.666c-5.419,8.13 -13.944,13.672 -23.574,15.325c-1.986,0.324 -3.995,0.491 -6.008,0.497Z" style="fill:#00b8ff;fill-rule:nonzero;"/></g></svg>