<?xml version="1.0" encoding="UTF-8" standalone="no"?><!DOCTYPE svg PUBLIC "-//W3C//DTD SVG 1.1//EN" "http://www.w3.org/Graphics/SVG/1.1/DTD/svg11.dtd"><svg width="100%" height="100%" viewBox="0 0 24 24" version="1.1" xmlns="http://www.w3.org/2000/svg" xmlns:xlink="http://www.w3.org/1999/xlink" xml:space="preserve" xmlns:serif="http://www.serif.com/" style="fill-rule:evenodd;clip-rule:evenodd;stroke-linejoin:round;stroke-miterlimit:1.41421;"><g><rect x="0" y="0" width="24" height="24" style="fill:none;"/><path d="M5,15l-2,6.5l6.5,-2l-4.5,-4.5Z" style="fill:#c5e1f7;"/><path d="M16,10l0,-0.5c0,-1.381 -1.119,-2.5 -2.5,-2.5c-1.381,0 -2.5,1.119 -2.5,2.5l0,0.5c-0.552,0 -1,0.448 -1,1l0,3c0,0.552 0.448,1 1,1l5,0c0.552,0 1,-0.448 1,-1l0,-3c0,-0.552 -0.448,-1 -1,-1Zm-2.5,11c-5.247,0 -9.5,-4.253 -9.5,-9.5c0,-5.247 4.253,-9.5 9.5,-9.5c5.247,0 9.5,4.253 9.5,9.5c0,5.247 -4.253,9.5 -9.5,9.5Zm0,-13c0.828,0 1.5,0.672 1.5,1.5l0,0.5l-3,0l0,-0.5c0,-0.828 0.672,-1.5 1.5,-1.5Z" style="fill:#00b8ff;"/></g></svg>