<?xml version="1.0" encoding="UTF-8" standalone="no"?><!DOCTYPE svg PUBLIC "-//W3C//DTD SVG 1.1//EN" "http://www.w3.org/Graphics/SVG/1.1/DTD/svg11.dtd"><svg width="100%" height="100%" viewBox="0 0 24 24" version="1.1" xmlns="http://www.w3.org/2000/svg" xmlns:xlink="http://www.w3.org/1999/xlink" xml:space="preserve" xmlns:serif="http://www.serif.com/" style="fill-rule:evenodd;clip-rule:evenodd;stroke-linejoin:round;stroke-miterlimit:1.41421;"><g><rect x="0" y="0" width="24" height="24" style="fill:none;"/><path d="M5,15l-2,6.5l6.5,-2l-4.5,-4.5Z" style="fill:#c5e1f7;"/><path d="M13,2c5.523,0 10,4.477 10,10c0,5.523 -4.477,10 -10,10c-5.523,0 -10,-4.477 -10,-10c0,-5.523 4.477,-10 10,-10Zm-5.832,11.555c1.51,2.264 3.478,3.445 5.832,3.445c2.354,0 4.322,-1.181 5.832,-3.445c0.306,-0.46 0.182,-1.081 -0.277,-1.387c-0.46,-0.306 -1.081,-0.182 -1.387,0.277c-1.157,1.736 -2.522,2.555 -4.168,2.555c-1.646,0 -3.011,-0.819 -4.168,-2.555c-0.306,-0.459 -0.927,-0.583 -1.387,-0.277c-0.459,0.306 -0.583,0.927 -0.277,1.387Z" style="fill:#00b8ff;"/></g></svg>