<?xml version="1.0" encoding="UTF-8" standalone="no"?><!DOCTYPE svg PUBLIC "-//W3C//DTD SVG 1.1//EN" "http://www.w3.org/Graphics/SVG/1.1/DTD/svg11.dtd"><svg width="100%" height="100%" viewBox="0 0 2134 2134" version="1.1" xmlns="http://www.w3.org/2000/svg" xmlns:xlink="http://www.w3.org/1999/xlink" xml:space="preserve" xmlns:serif="http://www.serif.com/" style="fill-rule:evenodd;clip-rule:evenodd;stroke-linejoin:round;stroke-miterlimit:1.41421;"><path d="M1058.88,1173.8l-325.025,-88.642l-295.833,0l-325.025,88.642c-48.263,13.163 -81.746,57 -81.746,107.025l0,765.788l1109.38,0l0,-765.788c0,-50.025 -33.483,-93.862 -81.746,-107.025Z" style="fill:#00b8ff;fill-rule:nonzero;"/><g><path d="M31.25,1280.83l0,765.792l221.875,0l0,-528.23c0,-41.116 -13.704,-81.058 -38.946,-113.516l-154.096,-198.121c-17.925,19.883 -28.833,45.879 -28.833,74.075Z" style="fill:#00b8ff;fill-rule:nonzero;"/><path d="M1140.62,1280.83l0,765.792l-221.875,0l0,-528.23c0,-41.116 13.704,-81.058 38.946,-113.516l154.092,-198.121c17.929,19.883 28.837,45.879 28.837,74.075Z" style="fill:#00b8ff;fill-rule:nonzero;"/></g><rect x="401.042" y="937.25" width="369.792" height="295.833" style="fill:#fad7a5;"/><path d="M401.042,1085.16l0,0.017c56.933,23.75 119.362,36.962 184.895,36.962c65.534,0 127.963,-13.216 184.896,-36.962l0,-0.017l0,-129.429l-369.791,0l0,129.429Z" style="fill:#f0c891;fill-rule:nonzero;"/><path d="M2032.35,1427.05l-253.567,-101.425c-28.079,-11.233 -46.492,-38.425 -46.492,-68.667l0,-134.825l-295.833,0l0,134.825c0,30.242 -18.412,57.438 -46.492,68.667l-253.566,101.425c-42.113,16.846 -69.729,57.638 -69.729,103l0,146.767c0,20.425 16.554,36.979 36.979,36.979l0,332.813l961.458,-0.001l0,-332.812c20.425,0 36.979,-16.554 36.979,-36.979l0,-146.767c0,-45.362 -27.616,-86.154 -69.737,-103Z" style="fill:#e6af78;fill-rule:nonzero;"/><path d="M1584.38,1307.03c53.375,0 104.313,-9.908 151.708,-27.179c-2.383,-7.287 -3.791,-14.954 -3.791,-22.892l0,-134.825l-295.834,0l0,134.825c0,7.942 -1.408,15.605 -3.791,22.892c47.395,17.267 98.333,27.179 151.708,27.179Z" style="fill:#d29b6e;fill-rule:nonzero;"/><path d="M2032.35,1427.05l-210.15,-84.062c-35.042,55.187 -114.146,161.054 -237.825,222.891c-123.675,-61.837 -202.783,-167.704 -237.825,-222.891l-210.15,84.062c-42.117,16.846 -69.733,57.638 -69.733,103l0,183.746l184.896,0l0,332.813l665.625,-0.001l0,-332.812l184.895,0l0,-183.746c0,-45.362 -27.616,-86.154 -69.733,-103Z" style="fill:#00b8ff;fill-rule:nonzero;"/><g><path d="M364.063,1048.18l221.875,184.896l-119.242,89.433c-15.979,11.984 -38.588,9.113 -51.063,-6.483l-108.633,-135.792c-10.058,-12.575 -10.825,-30.212 -1.892,-43.612l58.954,-88.442Z" style="fill:#00b8ff;fill-rule:nonzero;"/><path d="M807.813,1048.18l-221.875,184.896l119.241,89.433c15.979,11.984 38.588,9.113 51.063,-6.483l108.633,-135.792c10.058,-12.575 10.825,-30.212 1.892,-43.612l-58.954,-88.442Z" style="fill:#00b8ff;fill-rule:nonzero;"/></g><path d="M918.75,530.471l0,-221.875l-665.625,0l0,221.875c-40.846,0 -73.958,33.112 -73.958,73.958c0,40.846 33.112,73.959 73.958,73.959c0,183.808 149.004,332.812 332.813,332.812c183.808,0 332.812,-149.004 332.812,-332.812c40.846,0 73.958,-33.113 73.958,-73.959c0,-40.85 -33.112,-73.958 -73.958,-73.958Z" style="fill:#ffe1b4;fill-rule:nonzero;"/><path d="M438.021,678.388l0,-369.792l-184.896,0l0,221.875c-40.846,0 -73.958,33.112 -73.958,73.958c0,40.846 33.112,73.959 73.958,73.959c0,183.808 149.004,332.812 332.813,332.812c32.116,0 63.066,-4.796 92.45,-13.283c-138.78,-40.1 -240.367,-167.838 -240.367,-319.529Z" style="fill:#fad7a5;fill-rule:nonzero;"/><path d="M834.863,495.271c10.799,28.6 41.37,41.554 71.479,36.275c4.025,-0.704 8.17,-1.075 12.408,-1.075c13.542,0 26.062,3.904 36.979,10.258l0,-232.133c0,-55.325 -30.733,-102.988 -75.712,-128.354c-8.409,-52.942 -53.88,-93.521 -109.184,-93.521l-295.833,0c-142.963,0 -258.854,115.891 -258.854,258.854l0,195.154c10.916,-6.354 23.437,-10.258 36.979,-10.258l43.642,0c17.629,0 32.804,-12.442 36.262,-29.725l22.625,-113.133c4.242,-21.2 25.408,-34.071 46.229,-28.255c99.809,27.88 301.417,38.471 405.925,-13.783l21.529,129.179c1.192,7.125 3.059,13.983 5.525,20.517Z" style="fill:#d59f63;fill-rule:nonzero;"/><path d="M475,86.721c-142.958,0 -258.854,115.891 -258.854,258.854l0,195.154c10.916,-6.354 23.437,-10.258 36.979,-10.258l43.642,0c17.629,0 32.808,-12.442 36.262,-29.729l22.629,-113.134c4.238,-21.2 25.404,-34.066 46.23,-28.25c10.866,3.034 23.116,5.813 36.133,8.38l0,-59.142c0,-122.538 99.337,-221.875 221.875,-221.875l-184.896,0Z" style="fill:#cd915a;fill-rule:nonzero;"/><path d="M1761.23,275.492c4.717,-13.059 8.046,-26.58 8.046,-40.855c0,-81.691 -82.779,-147.916 -184.896,-147.916c-102.117,0 -184.896,66.225 -184.896,147.916c0,14.759 3.521,28.726 8.55,42.171c-137.146,68.946 -230.425,214.871 -230.425,378.088l0,97.45c184.896,-73.958 258.854,-184.896 258.854,-184.896c184.896,147.917 480.729,36.979 480.729,295.833l12.421,-18.633c40.121,-60.188 61.538,-130.908 61.538,-203.242c0,-161.187 -93.975,-300.079 -229.921,-365.916Z" style="fill:#785546;fill-rule:nonzero;"/><path d="M1644.82,239.596c-22.2,-3.317 -44.834,-5.313 -68.054,-4.888c-22.563,0.413 -44.455,3.213 -65.896,7.284c-0.125,-2.459 -0.45,-4.863 -0.45,-7.355c0,-60.245 31.841,-113.6 80.9,-147.358c-2.359,-0.071 -4.563,-0.558 -6.942,-0.558c-102.117,0 -184.896,66.225 -184.896,147.916c0,14.792 2.988,28.971 8.088,42.413c-136.892,69.042 -229.963,214.817 -229.963,377.846l0,97.45c184.896,-73.958 258.854,-184.896 258.854,-184.896l0,-73.958c0,-125.704 89.63,-230.396 208.446,-253.863c-0.033,-0.008 -0.058,-0.029 -0.087,-0.033Z" style="fill:#64463c;fill-rule:nonzero;"/><path d="M1917.19,863.283c0,-244.829 -264.65,-158.85 -449.767,-273.971c-16.854,-10.483 -39.3,-5.949 -50.267,10.596c-28.562,43.096 -87.025,113.992 -163.225,115.438c-41.687,0.792 -76.325,31.704 -76.325,73.396l0,0.587c0,40.846 33.113,73.959 73.958,73.959c0,25.42 2.851,50.179 8.251,73.966c33.633,148.209 166.179,258.846 324.562,258.846c158.383,0 290.929,-110.637 324.563,-258.846c5.399,-23.796 8.25,-48.55 8.25,-73.971Z" style="fill:#f0c087;fill-rule:nonzero;"/><path d="M1436.46,863.283l0,-277.308c-7.591,2.438 -14.595,6.825 -19.304,13.929c-28.566,43.1 -87.025,113.992 -163.225,115.442c-41.687,0.791 -76.325,31.704 -76.325,73.396l0,0.587c0,40.846 33.113,73.958 73.959,73.958c0,25.421 2.85,50.176 8.25,73.967c33.633,148.208 166.175,258.846 324.562,258.846c32.142,0 63.125,-4.762 92.529,-13.267c-138.821,-40.07 -240.446,-167.829 -240.446,-319.55Z" style="fill:#e6af78;fill-rule:nonzero;"/><path d="M585.938,857.554c37.404,0 73.204,-17.696 98.229,-48.542c10.87,-13.404 8.82,-33.083 -4.584,-43.954c-13.404,-10.875 -33.083,-8.821 -43.954,4.584c-13.292,16.391 -30.937,25.416 -49.687,25.416c-18.75,0 -36.396,-9.025 -49.688,-25.416c-10.867,-13.405 -30.55,-15.455 -43.954,-4.584c-13.404,10.871 -15.454,30.55 -4.583,43.954c25.016,30.846 60.816,48.542 98.22,48.542Z" style="fill-rule:nonzero;"/><path d="M438.021,672.658c17.258,0 31.25,-13.991 31.25,-31.25l0,-36.979c0,-17.258 -13.992,-31.25 -31.25,-31.25c-17.258,0 -31.25,13.992 -31.25,31.25l0,36.979c0,17.259 13.992,31.25 31.25,31.25Z" style="fill-rule:nonzero;"/><path d="M733.854,672.658c17.259,0 31.25,-13.991 31.25,-31.25l0,-36.979c0,-17.258 -13.991,-31.25 -31.25,-31.25c-17.258,0 -31.25,13.992 -31.25,31.25l0,36.979c0,17.259 13.992,31.25 31.25,31.25Z" style="fill-rule:nonzero;"/><path d="M207.117,1293.05c-7.717,-15.437 -26.488,-21.696 -41.925,-13.975c-15.438,7.717 -21.696,26.488 -13.975,41.925l70.658,141.321l0,584.288c0,17.258 13.992,31.25 31.25,31.25c17.258,0 31.25,-13.992 31.25,-31.25l0,-591.667c0,-4.854 -1.129,-9.638 -3.3,-13.975l-73.958,-147.917Z" style="fill-rule:nonzero;"/><path d="M1006.68,1279.08c-15.437,-7.721 -34.208,-1.462 -41.925,13.975l-73.958,147.917c-2.171,4.341 -3.3,9.121 -3.3,13.975l0,591.667c0,17.258 13.992,31.25 31.25,31.25c17.258,0 31.25,-13.992 31.25,-31.25l0,-584.288l70.658,-141.321c7.721,-15.433 1.463,-34.204 -13.975,-41.925Z" style="fill-rule:nonzero;"/><path d="M1682.6,993.904c10.871,-13.404 8.821,-33.083 -4.583,-43.954c-13.404,-10.875 -33.083,-8.821 -43.954,4.583c-13.292,16.392 -30.938,25.417 -49.688,25.417c-18.75,0 -36.396,-9.025 -49.687,-25.417c-10.867,-13.404 -30.55,-15.454 -43.955,-4.583c-13.404,10.871 -15.454,30.55 -4.583,43.954c25.021,30.85 60.825,48.542 98.229,48.542c37.404,0 73.196,-17.692 98.221,-48.542Z" style="fill-rule:nonzero;"/><path d="M1436.46,758.075c-17.258,0 -31.25,13.992 -31.25,31.25l0,36.979c0,17.258 13.992,31.25 31.25,31.25c17.259,0 31.25,-13.992 31.25,-31.25l0,-36.979c0,-17.263 -13.991,-31.25 -31.25,-31.25Z" style="fill-rule:nonzero;"/><path d="M1732.29,857.554c17.258,0 31.25,-13.991 31.25,-31.25l0,-36.979c0,-17.258 -13.992,-31.25 -31.25,-31.25c-17.259,0 -31.25,13.992 -31.25,31.25l0,36.979c0,17.259 13.991,31.25 31.25,31.25Z" style="fill-rule:nonzero;"/><path d="M2043.95,1398.04l-253.566,-101.43c-16.309,-6.52 -26.846,-22.087 -26.846,-39.654l0,-76.804c17.35,-9.792 33.946,-20.996 49.541,-33.604c63.496,-51.321 108.359,-123.2 126.33,-202.388c5.987,-26.387 9.025,-53.6 9.025,-80.883c0,-182.021 -131.846,-208.196 -259.346,-233.508c-81.542,-16.188 -165.859,-32.929 -233.113,-86.729c-7.358,-5.888 -16.991,-8.121 -26.191,-6.109c-9.205,2.009 -17.021,8.079 -21.263,16.496c-0.175,0.346 -17.683,34.813 -47.296,68.375c-25.079,28.425 -64.466,62.308 -109.671,62.308c-15.2,0 -29.645,3.267 -42.708,9.096l0,-51.804c0,-207.062 168.458,-375.521 375.521,-375.521c207.062,0 375.521,168.459 375.521,375.521l0,73.958c0,17.259 13.991,31.25 31.25,31.25c17.258,0 31.25,-13.991 31.25,-31.25l0,-73.958c0,-163.825 -90.417,-306.904 -223.959,-382.029c1.355,-8.175 2.084,-16.442 2.084,-24.742c0,-98.791 -96.963,-179.166 -216.146,-179.166c-119.183,0 -216.146,80.375 -216.146,179.166c0,8.304 0.721,16.571 2.079,24.746c-133.537,75.125 -223.954,218.204 -223.954,382.025l0,147.917c0,47.491 31.633,87.737 74.938,100.771c1.333,18.241 4.02,36.341 8.045,54.07c17.971,79.188 62.838,151.067 126.33,202.388c15.595,12.608 32.191,23.812 49.541,33.604l0,76.804c0,17.567 -10.537,33.129 -26.846,39.654l-253.562,101.425c-54.296,21.717 -89.379,73.538 -89.379,132.017l0,183.767c0,8.291 3.295,16.241 9.158,22.104c5.858,5.858 13.804,9.146 22.092,9.146l5.729,0l0,301.546c0,17.258 13.991,31.25 31.25,31.25c17.258,0 31.25,-13.992 31.25,-31.25l0,-301.563l85.416,0l0,301.563c0,17.258 13.992,31.25 31.25,31.25c17.259,0 31.25,-13.992 31.25,-31.25l0,-406.771c0,-17.259 -13.991,-31.25 -31.25,-31.25c-17.258,0 -31.25,13.991 -31.25,31.25l0,42.708l-116.666,0l-0.017,0l-5.712,0l0,-152.5c0,-32.775 19.662,-61.817 50.091,-73.988l197.192,-78.875c26.175,44.359 100.471,154.284 225.196,216.646c4.4,2.2 9.187,3.3 13.975,3.3c4.787,0 9.575,-1.1 13.975,-3.3c124.725,-62.362 199.025,-172.287 225.196,-216.646l197.196,78.88c30.429,12.17 50.091,41.216 50.091,73.987l0,152.5l-5.729,0l-116.667,0l0,-42.708c0,-17.259 -13.991,-31.25 -31.25,-31.25c-17.258,0 -31.25,13.991 -31.25,31.25l0,406.771c0,17.258 13.992,31.25 31.25,31.25c17.259,0 31.25,-13.992 31.25,-31.25l0,-301.563l85.417,0l0,301.563c0,17.258 13.992,31.25 31.25,31.25c17.258,0 31.25,-13.992 31.25,-31.25l0,-301.563l5.729,0c17.259,0 31.25,-13.992 31.25,-31.25l0,-183.75c0.004,-58.475 -35.079,-110.296 -89.375,-132.016Zm-459.579,-1280.07c83.196,0 151.108,50.475 153.529,113.212c-47.804,-17.95 -99.533,-27.796 -153.529,-27.796c-53.996,0 -105.729,9.846 -153.529,27.796c2.421,-62.737 70.333,-113.212 153.529,-113.212Zm-294.092,812.362c-4.958,-21.854 -7.47,-44.416 -7.47,-67.05c0,-17.258 -13.992,-31.25 -31.25,-31.25c-23.55,0 -42.709,-19.158 -42.709,-42.708c0,-23.55 19.159,-42.708 42.709,-42.708c94.762,0 163.495,-85.809 194.533,-133.817c72.879,46.921 156.233,63.471 230.825,78.283c137.346,27.267 209.017,47.309 209.017,172.205c0,22.637 -2.517,45.195 -7.471,67.049c-14.875,65.555 -52.05,125.08 -104.671,167.613c-54.146,43.767 -119.646,66.9 -189.421,66.9c-69.775,0 -135.275,-23.133 -189.421,-66.9c-52.621,-42.537 -89.791,-102.063 -104.671,-167.617Zm294.092,600.25c-94.283,-52.079 -154.929,-136.35 -180.3,-177.05c38.725,-16.646 63.633,-54.221 63.633,-96.575l0,-48.937c37.375,12.641 76.8,19.325 116.667,19.325c39.867,0 79.292,-6.684 116.667,-19.325l0,48.937c0,42.354 24.908,79.925 63.633,96.571c-25.383,40.721 -86.029,124.984 -180.3,177.054Z" style="fill-rule:nonzero;"/><path d="M912.992,1160.43l139.591,41.879c33.967,10.192 56.792,40.867 56.792,76.33c0,17.258 13.992,31.25 31.25,31.25c17.258,0 31.25,-13.992 31.25,-31.25c0,-63.28 -40.721,-118.009 -101.329,-136.192l-202.913,-60.871l-33.821,-50.729c-4.916,-7.379 -12.741,-12.321 -21.516,-13.592c-3.434,-0.5 -6.879,-0.4 -10.217,0.221l0,-46.421c82.896,-61.383 138.979,-157.016 146.942,-265.854c43.3,-13.033 74.933,-53.279 74.933,-100.771c0,-30.741 -13.817,-59.879 -36.979,-79.687l0,-216.146c0,-59.258 -30.012,-114.688 -79.2,-147.904c-16.438,-61.784 -71.854,-105.221 -136.942,-105.221l-295.833,0c-159.967,0 -290.104,130.137 -290.104,290.104l0,179.167c-23.163,19.808 -36.979,48.941 -36.979,79.687c0,47.492 31.633,87.738 74.933,100.771c7.963,108.838 64.042,204.471 146.942,265.854l0,46.417c-3.338,-0.625 -6.784,-0.725 -10.217,-0.221c-8.775,1.275 -16.596,6.213 -21.517,13.592l-33.82,50.729l-202.913,60.871c-60.604,18.187 -101.325,72.916 -101.325,136.196l0,767.979c0,17.258 13.992,31.25 31.25,31.25c17.258,0 31.25,-13.992 31.25,-31.25l0,-767.98c0,-35.462 22.825,-66.137 56.792,-76.329l139.591,-41.879c0.271,6.483 2.559,12.883 6.817,18.204l125.525,156.909c13.521,16.9 33.238,25.72 53.213,25.72c14.254,0 28.645,-4.495 41,-13.762l69.245,-51.933l0,751.041c0,17.259 13.992,31.25 31.25,31.25c17.259,0 31.25,-13.991 31.25,-31.25l0,-751.041l69.246,51.933c12.354,9.267 26.742,13.762 41,13.762c19.975,0 39.696,-8.825 53.213,-25.72l125.525,-156.909c4.266,-5.321 6.55,-11.721 6.825,-18.204Zm-628.617,-482.042c0,-17.258 -13.992,-31.25 -31.25,-31.25c-23.55,0 -42.708,-19.158 -42.708,-42.708c0,-15.158 8.016,-28.875 21.446,-36.692c0.691,-0.404 1.32,-0.879 1.975,-1.329c5.945,-3.021 12.541,-4.687 19.287,-4.687l43.642,0c32.412,0 60.55,-23.067 66.904,-54.846l22.737,-113.675c0.317,-1.588 1.146,-2.796 2.459,-3.592c1.033,-0.625 2.745,-1.221 5.037,-0.55c55.509,16.192 121.913,24.746 192.034,24.746c89.983,0 173.054,-13.987 233.912,-39.392c15.925,-6.65 23.446,-24.95 16.8,-40.879c-6.65,-15.925 -24.946,-23.441 -40.879,-16.8c-52.629,21.967 -129.113,34.567 -209.838,34.567c-63.362,0 -125.345,-7.9 -174.529,-22.246c-18.537,-5.404 -38.558,-2.821 -54.929,7.1c-16.2,9.817 -27.629,26.142 -31.358,44.792l-22.738,113.671c-0.533,2.666 -2.896,4.604 -5.616,4.604l-43.638,0c-1.913,0 -3.821,0.083 -5.729,0.187l0,-153.833c0,-125.5 102.104,-227.604 227.604,-227.604l295.833,0c39.2,0 72.138,28.25 78.317,67.171c1.496,9.416 7.208,17.637 15.513,22.32c36.895,20.809 59.812,59.559 59.812,101.134l0,232.133c0,11.125 5.917,21.413 15.533,27.008c13.429,7.817 21.446,21.534 21.446,36.692c0,23.55 -19.158,42.708 -42.708,42.708c-17.259,0 -31.25,13.992 -31.25,31.25c0,166.284 -135.279,301.563 -301.563,301.563c-166.283,0 -301.558,-135.283 -301.558,-301.563Zm301.562,364.063c54.88,0 106.934,-12.25 153.646,-34.092l0,56l-153.646,128.038l-153.645,-128.038l0,-56c46.712,21.838 98.766,34.092 153.645,34.092Zm-137.995,255.054c-2.492,1.871 -5.963,1.425 -7.909,-1.004l-111.254,-139.067l41.992,-62.987l164.804,137.333l-87.633,65.725Zm283.9,-1.004c-1.946,2.433 -5.417,2.871 -7.909,1.004l-87.633,-65.721l164.804,-137.333l41.992,62.987l-111.254,139.063Z" style="fill-rule:nonzero;"/><path d="M475.371,1534.64l-0.371,0c-17.258,0 -31.067,13.991 -31.067,31.25c0,17.258 14.175,31.25 31.434,31.25c17.258,0 31.25,-13.992 31.25,-31.25c0,-17.259 -13.988,-31.25 -31.246,-31.25Z" style="fill-rule:nonzero;"/><path d="M475.371,1830.47l-0.371,0c-17.258,0 -31.067,13.992 -31.067,31.25c0,17.258 14.175,31.25 31.434,31.25c17.258,0 31.25,-13.992 31.25,-31.25c0,-17.258 -13.988,-31.25 -31.246,-31.25Z" style="fill-rule:nonzero;"/><path d="M475.371,1682.55l-0.371,0c-17.258,0 -31.067,13.992 -31.067,31.25c0,17.258 14.175,31.25 31.434,31.25c17.258,0 31.25,-13.992 31.25,-31.25c0,-17.258 -13.988,-31.25 -31.246,-31.25Z" style="fill-rule:nonzero;"/></svg>