<?xml version="1.0" encoding="UTF-8" standalone="no"?><!DOCTYPE svg PUBLIC "-//W3C//DTD SVG 1.1//EN" "http://www.w3.org/Graphics/SVG/1.1/DTD/svg11.dtd"><svg width="100%" height="100%" viewBox="0 0 512 512" version="1.1" xmlns="http://www.w3.org/2000/svg" xmlns:xlink="http://www.w3.org/1999/xlink" xml:space="preserve" xmlns:serif="http://www.serif.com/" style="fill-rule:evenodd;clip-rule:evenodd;stroke-linejoin:round;stroke-miterlimit:1.41421;"><g><path d="M149.652,31c-21.809,0 -39.55,17.742 -39.55,39.551c0,21.809 17.741,39.551 39.55,39.551c21.81,0 39.551,-17.742 39.551,-39.551c0,-21.809 -17.741,-39.551 -39.551,-39.551Z" style="fill:#c5e1f7;fill-rule:nonzero;"/><path d="M441.449,31l-186.328,0c-21.809,0 -39.551,17.742 -39.551,39.551l0,46.847c3.904,2.274 7.636,4.872 10.918,8.153l25.852,25.852l18.746,-9.373c12.567,-6.262 23.495,-6.529 34.914,-4.028l63.267,-31.634c19.502,-9.661 43.159,-2.062 53.044,17.651c9.851,19.675 1.857,43.347 -17.664,53.108l-60.632,30.315c-4.655,12.622 -13.675,22.905 -25.782,28.947l-11.098,5.548l134.314,0c21.809,0 39.551,-17.741 39.551,-39.55l0,-131.836c0,-21.809 -17.742,-39.551 -39.551,-39.551Z" style="fill:#00b8ff;fill-rule:nonzero;"/><path d="M398.75,135.846c-3.27,-6.514 -11.162,-9.128 -17.69,-5.896l-73.522,36.76c-7.32,-4.197 -16.325,-5.244 -24.659,-1.092l-35.74,17.87l-39.293,-39.294c-4.983,-4.983 -11.6,-7.725 -18.643,-7.725l-105.469,0c-29.084,0 -52.734,23.65 -52.734,52.734l0,79.981c0,18.174 18.108,30.934 35.161,24.86l17.573,-6.205l0,166.794c0,14.561 11.805,26.367 26.368,26.367c14.562,0 26.367,-11.806 26.367,-26.367l0,-93.164c0,-7.283 5.902,-13.184 13.183,-13.184c7.281,0 13.184,5.901 13.184,13.184l0,93.164c0,14.561 11.805,26.367 26.367,26.367c14.563,0 26.367,-11.806 26.367,-26.367l0,-220.536l17.574,6.193c7.349,2.6 14.284,2.006 20.587,-1.133l52.734,-26.368c9.119,-4.549 14.104,-13.69 14.265,-23.191l72.124,-36.062c6.514,-3.257 9.153,-11.175 5.896,-17.69Z" style="fill:#c5e1f7;fill-rule:nonzero;"/></g></svg>