<?xml version="1.0" encoding="UTF-8" standalone="no"?><!DOCTYPE svg PUBLIC "-//W3C//DTD SVG 1.1//EN" "http://www.w3.org/Graphics/SVG/1.1/DTD/svg11.dtd"><svg width="100%" height="100%" viewBox="0 0 24 24" version="1.1" xmlns="http://www.w3.org/2000/svg" xmlns:xlink="http://www.w3.org/1999/xlink" xml:space="preserve" xmlns:serif="http://www.serif.com/" style="fill-rule:evenodd;clip-rule:evenodd;stroke-linejoin:round;stroke-miterlimit:1.41421;"><g><rect x="0" y="0" width="24" height="24" style="fill:none;"/><path d="M17.272,8.685c-0.379,-0.402 -0.36,-1.035 0.043,-1.413c0.402,-0.379 1.035,-0.36 1.413,0.043l4,4.25c0.363,0.385 0.363,0.985 0,1.37l-4,4.25c-0.378,0.403 -1.011,0.422 -1.413,0.043c-0.403,-0.378 -0.422,-1.011 -0.043,-1.413l3.355,-3.565l-3.355,-3.565Zm-10.544,0l-3.355,3.565l3.355,3.565c0.379,0.402 0.36,1.035 -0.043,1.413c-0.402,0.379 -1.035,0.36 -1.413,-0.043l-4,-4.25c-0.363,-0.385 -0.363,-0.985 0,-1.37l4,-4.25c0.378,-0.403 1.011,-0.422 1.413,-0.043c0.403,0.378 0.422,1.011 0.043,1.413Z" style="fill:#00b8ff;fill-rule:nonzero;"/><path d="M14.778,5.497c0.143,-0.533 -0.174,-1.082 -0.707,-1.224c-0.534,-0.143 -1.082,0.174 -1.225,0.707l-3.624,13.523c-0.143,0.533 0.174,1.082 0.707,1.224c0.534,0.143 1.082,-0.174 1.225,-0.707l3.624,-13.523Z" style="fill:#c5e1f7;"/></g></svg>