<?xml version="1.0" encoding="UTF-8" standalone="no"?><!DOCTYPE svg PUBLIC "-//W3C//DTD SVG 1.1//EN" "http://www.w3.org/Graphics/SVG/1.1/DTD/svg11.dtd"><svg width="100%" height="100%" viewBox="0 0 2513 2513" version="1.1" xmlns="http://www.w3.org/2000/svg" xmlns:xlink="http://www.w3.org/1999/xlink" xml:space="preserve" xmlns:serif="http://www.serif.com/" style="fill-rule:evenodd;clip-rule:evenodd;stroke-linejoin:round;stroke-miterlimit:1.41421;"><g id="filled_outline_33_"><path d="M2382.65,1964.16l-499.254,-499.255l-20.925,20.925c-34.655,34.655 -90.905,34.655 -125.559,0c-34.654,-34.654 -34.654,-90.904 0,-125.558l20.925,-20.925l-125.558,-125.558l-418.521,418.525l125.558,125.558l20.925,-20.925c34.655,-34.654 90.905,-34.654 125.559,0c34.654,34.654 34.654,90.904 0,125.558l-20.925,20.925l499.254,499.255c15.15,15.024 31.85,28.374 49.846,39.8l408.479,-408.48c-11.429,-17.995 -24.779,-34.696 -39.804,-49.846Z" style="fill:#00b8ff;fill-rule:nonzero;"/><path d="M2422.45,2014.01l-408.479,408.48c137.358,88.224 320.254,48.425 408.479,-88.938c62.529,-97.304 62.529,-222.192 0,-319.542Z" style="fill:#dadddf;fill-rule:nonzero;"/><path d="M544.121,376.754l-41.854,-167.412l-292.963,-167.409l-167.412,167.409l167.412,292.966l167.409,41.855l962.6,962.6l167.408,-167.409l-962.6,-962.6Z" style="fill:#cfd2d4;fill-rule:nonzero;"/><path d="M2455.18,390.9l-278.821,278.821l-251.112,-83.704l-83.705,-251.113l278.821,-278.821c-245.337,-62.612 -494.946,85.542 -557.554,330.88c-18.958,74.37 -18.958,152.3 0,226.67l-949.208,949.209c-247.85,-62.904 -499.759,86.97 -562.663,334.816c-62.904,247.85 86.971,499.759 334.817,562.663c247.85,62.904 499.758,-86.967 562.662,-334.817c18.959,-74.75 18.959,-153.096 0,-227.842l949.209,-949.208c245.504,62.442 495.112,-85.962 557.554,-331.471c18.875,-74.162 18.875,-151.879 0,-226.083Zm-1827.35,1827.35l-251.113,0l-125.558,-209.262l125.558,-209.263l251.113,0l125.558,209.263l-125.558,209.262Z" style="fill:#dadddf;fill-rule:nonzero;"/><path d="M2469.32,2173.43c-0.042,-56.542 -16.321,-111.871 -46.875,-159.417l-120.534,120.534l0.001,305.145c102.287,-49.258 167.366,-152.716 167.408,-266.262Z" style="fill:#cfd2d4;fill-rule:nonzero;"/><path d="M5.567,230.271l167.408,292.967c5.65,9.92 15.108,17.075 26.158,19.837l156.192,39.05l535.708,535.708l59.179,-59.179l-544.079,-544.083c-5.358,-5.358 -12.054,-9.167 -19.42,-11.008l-150.084,-37.667l-142.546,-249.563l122.209,-122.208l249.691,142.675l37.667,150.083c1.842,7.367 5.65,14.105 11.008,19.463l544.08,544.079l59.179,-59.179l-535.709,-535.709l-39.05,-156.108c-2.762,-11.091 -9.921,-20.55 -19.837,-26.2l-292.967,-167.412c-16.362,-9.292 -36.912,-6.53 -50.221,6.737l-167.412,167.408c-13.475,13.225 -16.404,33.859 -7.154,50.309Z" style="fill-rule:nonzero;"/><path d="M1686.38,765.678l-920.738,920.738l59.187,59.187l920.738,-920.738l-59.187,-59.187Z"/><path d="M663.692,1778.17c-7.575,-12.596 -21.179,-20.3 -35.867,-20.3l-251.113,0c-14.691,0 -28.291,7.7 -35.866,20.3l-125.559,209.262c-7.95,13.267 -7.95,29.842 0,43.109l125.559,209.262c7.575,12.596 21.179,20.3 35.866,20.3l251.113,0c14.692,0 28.292,-7.7 35.867,-20.3l125.558,-209.262c7.95,-13.267 7.95,-29.842 0,-43.109l-125.558,-209.262Zm-59.554,398.225l-203.738,0l-100.446,-167.408l100.446,-167.409l203.737,0l100.446,167.409l-100.446,167.408Z" style="fill-rule:nonzero;"/><path d="M2008.95,1004.53c276.433,0.921 501.262,-222.404 502.183,-498.837c0.125,-42.063 -5.021,-83.996 -15.358,-124.763c-5.567,-22.433 -28.292,-36.075 -50.725,-30.508c-7.367,1.842 -14.104,5.65 -19.463,11.008l-260.529,260.363l-206.708,-68.888l-68.929,-206.666l260.529,-260.571c16.321,-16.363 16.321,-42.859 -0.042,-59.179c-5.4,-5.4 -12.179,-9.209 -19.587,-11.05c-268.063,-67.884 -540.396,94.375 -608.279,362.441c-10.296,40.679 -15.442,82.492 -15.317,124.425c0.083,32.938 3.517,65.792 10.171,98.059l-916.563,916.566c-32.266,-6.654 -65.121,-10.045 -98.058,-10.17c-277.354,0 -502.225,224.87 -502.225,502.225c0,277.354 224.871,502.225 502.225,502.225c277.354,0 502.225,-224.871 502.225,-502.225c-0.083,-32.938 -3.517,-65.792 -10.171,-98.059l219.429,-219.429l95.967,95.967c16.321,16.321 42.858,16.321 59.179,0l20.925,-20.925c18.375,-18.246 48.004,-18.246 66.379,0c18.329,18.287 18.375,47.962 0.083,66.296c-0.041,0.041 -0.041,0.041 -0.083,0.083l-20.925,20.925c-16.321,16.321 -16.321,42.858 0,59.179l499.254,499.254c131.334,132.504 345.196,133.467 477.7,2.175c132.505,-131.333 133.467,-345.196 2.175,-477.7c-0.712,-0.712 -1.42,-1.425 -2.175,-2.175l-499.254,-499.258c-16.321,-16.321 -42.858,-16.321 -59.179,0l-20.925,20.925c-18.375,18.246 -48.004,18.246 -66.379,0c-18.333,-18.288 -18.375,-47.963 -0.083,-66.296c0.041,-0.042 0.041,-0.042 0.083,-0.083l20.925,-20.925c16.321,-16.321 16.321,-42.859 0,-59.179l-95.967,-95.967l219.429,-219.429c32.271,6.654 65.125,10.041 98.063,10.166Zm164.437,1422.98c-30.425,-0.041 -60.558,-5.525 -89.02,-16.237l326.866,-326.867c49.342,131.209 -17.033,277.563 -148.241,326.867c-28.667,10.754 -59.009,16.279 -89.605,16.237Zm-474.141,-1087.74c-46.329,55.287 -39.092,137.692 16.196,184.025c48.591,40.721 119.404,40.679 167.954,-0.125l469.666,470.083c5.105,5.104 9.875,10.504 14.48,15.988l-357.838,357.837c-5.483,-4.604 -10.883,-9.375 -15.987,-14.479l-470.042,-470.083c46.329,-55.288 39.092,-137.696 -16.196,-184.025c-48.592,-40.721 -119.404,-40.679 -167.954,0.125l-66.963,-66.963l359.721,-359.175l66.963,66.792Zm168.996,-420.95l-949.417,949.25c-10.421,10.379 -14.608,25.487 -11.05,39.758c57.421,225.5 -78.85,454.85 -304.35,512.271c-225.5,57.379 -454.85,-78.85 -512.271,-304.35c-57.421,-225.5 78.85,-454.85 304.35,-512.271c68.221,-17.366 139.704,-17.366 207.921,0c14.271,3.475 29.337,-0.712 39.758,-11.05l949.209,-949.25c10.379,-10.379 14.562,-25.487 11.008,-39.758c-57.046,-222.863 77.383,-449.746 300.246,-506.746c42.104,-10.796 85.671,-14.9 129.071,-12.221l-220.771,220.854c-11.217,11.217 -15.15,27.792 -10.129,42.817l83.704,251.113c4.183,12.512 13.979,22.308 26.491,26.45l251.113,83.704c15.025,5.021 31.6,1.129 42.817,-10.088l220.77,-220.771c0.505,7.996 0.755,15.905 0.755,23.771c1.17,229.979 -184.275,417.35 -414.255,418.521c-35.575,0.167 -70.979,-4.183 -105.425,-13.017c-14.27,-3.558 -29.379,0.63 -39.758,11.009c0.004,0.004 0.213,0.004 0.213,0.004Z" style="fill-rule:nonzero;"/><path d="M1745.49,1686.45l-59.187,59.187l418.509,418.509l59.187,-59.187l-418.509,-418.509Z"/></g></svg>