<?xml version="1.0" encoding="UTF-8" standalone="no"?><!DOCTYPE svg PUBLIC "-//W3C//DTD SVG 1.1//EN" "http://www.w3.org/Graphics/SVG/1.1/DTD/svg11.dtd"><svg width="100%" height="100%" viewBox="0 0 24 24" version="1.1" xmlns="http://www.w3.org/2000/svg" xmlns:xlink="http://www.w3.org/1999/xlink" xml:space="preserve" xmlns:serif="http://www.serif.com/" style="fill-rule:evenodd;clip-rule:evenodd;stroke-linejoin:round;stroke-miterlimit:1.41421;"><g><rect x="0" y="0" width="24" height="24" style="fill:none;"/><path d="M16,15.632l0,-3.632c0,-1.657 -1.343,-3 -3,-3l-6.838,0l0,-3.474c0,-1.395 1.131,-2.526 2.526,-2.526l11.79,0c1.395,0 2.526,1.131 2.526,2.526l0,7.579l0.017,4.682c0.001,0.276 -0.222,0.501 -0.499,0.502c-0.133,0 -0.261,-0.053 -0.355,-0.147l-2.51,-2.51l-3.657,0Z" style="fill:#00b8ff;"/><path d="M1.985,18l0,-5c0,-1.105 0.895,-2 2,-2l8,0c1.105,0 2,0.895 2,2l0,5c0,1.105 -0.895,2 -2,2l-7.884,0l-1.244,1.191c-0.2,0.19 -0.516,0.184 -0.707,-0.016c-0.089,-0.093 -0.139,-0.217 -0.139,-0.346l0,-2.505c-0.017,-0.105 -0.026,-0.214 -0.026,-0.324Zm4.515,-4c-0.276,0 -0.5,0.224 -0.5,0.5c0,0.276 0.224,0.5 0.5,0.5l5,0c0.276,0 0.5,-0.224 0.5,-0.5c0,-0.276 -0.224,-0.5 -0.5,-0.5l-5,0Zm3,2c-0.276,0 -0.5,0.224 -0.5,0.5c0,0.276 0.224,0.5 0.5,0.5l2,0c0.276,0 0.5,-0.224 0.5,-0.5c0,-0.276 -0.224,-0.5 -0.5,-0.5l-2,0Z" style="fill:#c5e1f7;"/></g></svg>