<?xml version="1.0" encoding="UTF-8" standalone="no"?><!DOCTYPE svg PUBLIC "-//W3C//DTD SVG 1.1//EN" "http://www.w3.org/Graphics/SVG/1.1/DTD/svg11.dtd"><svg width="100%" height="100%" viewBox="0 0 24 24" version="1.1" xmlns="http://www.w3.org/2000/svg" xmlns:xlink="http://www.w3.org/1999/xlink" xml:space="preserve" xmlns:serif="http://www.serif.com/" style="fill-rule:evenodd;clip-rule:evenodd;stroke-linejoin:round;stroke-miterlimit:1.41421;"><g><rect x="0" y="0" width="24" height="24" style="fill:none;"/><path d="M4,7l16,0c1.105,0 2,0.895 2,2l0,10c0,1.105 -0.895,2 -2,2l-16,0c-1.105,0 -2,-0.895 -2,-2l0,-10c0,-1.105 0.895,-2 2,-2Zm12,11c2.209,0 4,-1.791 4,-4c0,-2.209 -1.791,-4 -4,-4c-2.209,0 -4,1.791 -4,4c0,2.209 1.791,4 4,4Z" style="fill:#c5e1f7;"/><path d="M20.619,7.098c-0.195,-0.064 -0.403,-0.098 -0.619,-0.098l-2.799,0l-9.188,-5.127c-0.483,-0.269 -0.655,-0.878 -0.386,-1.36c0.269,-0.483 0.878,-0.655 1.36,-0.386l11.125,6.207c0.293,0.163 0.472,0.453 0.507,0.764Z" style="fill:#00b8ff;"/><path d="M16,16c1.105,0 2,-0.895 2,-2c0,-1.105 -0.895,-2 -2,-2c-1.105,0 -2,0.895 -2,2c0,1.105 0.895,2 2,2Z" style="fill:#00b8ff;"/><path d="M9,12c0,-0.552 -0.448,-1 -1,-1l-3,0c-0.552,0 -1,0.448 -1,1c0,0.552 0.448,1 1,1l3,0c0.552,0 1,-0.448 1,-1Z" style="fill:#aad3f3;"/><path d="M9,16c0,-0.552 -0.448,-1 -1,-1l-3,0c-0.552,0 -1,0.448 -1,1c0,0.552 0.448,1 1,1l3,0c0.552,0 1,-0.448 1,-1Z" style="fill:#aad3f3;"/></g></svg>