<?xml version="1.0" encoding="UTF-8" standalone="no"?><!DOCTYPE svg PUBLIC "-//W3C//DTD SVG 1.1//EN" "http://www.w3.org/Graphics/SVG/1.1/DTD/svg11.dtd"><svg width="100%" height="100%" viewBox="0 0 24 24" version="1.1" xmlns="http://www.w3.org/2000/svg" xmlns:xlink="http://www.w3.org/1999/xlink" xml:space="preserve" xmlns:serif="http://www.serif.com/" style="fill-rule:evenodd;clip-rule:evenodd;stroke-linejoin:round;stroke-miterlimit:1.41421;"><g><rect x="0" y="0" width="24" height="24" style="fill:none;"/><path d="M5,2l14,0c1.105,0 2,0.895 2,2l0,2c0,1.105 -0.895,2 -2,2l-14,0c-1.105,0 -2,-0.895 -2,-2l0,-2c0,-1.105 0.895,-2 2,-2Zm6,2c-0.552,0 -1,0.448 -1,1c0,0.552 0.448,1 1,1l5,0c0.552,0 1,-0.448 1,-1c0,-0.552 -0.448,-1 -1,-1l-5,0Zm-4,2c0.552,0 1,-0.448 1,-1c0,-0.552 -0.448,-1 -1,-1c-0.552,0 -1,0.448 -1,1c0,0.552 0.448,1 1,1Z" style="fill:#c5e1f7;"/><path d="M5,9l14,0c1.105,0 2,0.895 2,2l0,2c0,1.105 -0.895,2 -2,2l-14,0c-1.105,0 -2,-0.895 -2,-2l0,-2c0,-1.105 0.895,-2 2,-2Zm6,2c-0.552,0 -1,0.448 -1,1c0,0.552 0.448,1 1,1l5,0c0.552,0 1,-0.448 1,-1c0,-0.552 -0.448,-1 -1,-1l-5,0Zm-4,2c0.552,0 1,-0.448 1,-1c0,-0.552 -0.448,-1 -1,-1c-0.552,0 -1,0.448 -1,1c0,0.552 0.448,1 1,1Z" style="fill:#00b8ff;"/><path d="M5,16l14,0c1.105,0 2,0.895 2,2l0,2c0,1.105 -0.895,2 -2,2l-14,0c-1.105,0 -2,-0.895 -2,-2l0,-2c0,-1.105 0.895,-2 2,-2Zm6,2c-0.552,0 -1,0.448 -1,1c0,0.552 0.448,1 1,1l5,0c0.552,0 1,-0.448 1,-1c0,-0.552 -0.448,-1 -1,-1l-5,0Zm-4,2c0.552,0 1,-0.448 1,-1c0,-0.552 -0.448,-1 -1,-1c-0.552,0 -1,0.448 -1,1c0,0.552 0.448,1 1,1Z" style="fill:#00b8ff;"/></g></svg>