<?xml version="1.0" encoding="UTF-8" standalone="no"?><!DOCTYPE svg PUBLIC "-//W3C//DTD SVG 1.1//EN" "http://www.w3.org/Graphics/SVG/1.1/DTD/svg11.dtd"><svg width="100%" height="100%" viewBox="0 0 2000 2000" version="1.1" xmlns="http://www.w3.org/2000/svg" xmlns:xlink="http://www.w3.org/1999/xlink" xml:space="preserve" xmlns:serif="http://www.serif.com/" style="fill-rule:evenodd;clip-rule:evenodd;stroke-linejoin:round;stroke-miterlimit:1.41421;"><path d="M1494.84,1600l-989.68,0c-45.134,0 -87.208,-22.835 -111.801,-60.677c-24.593,-37.858 -28.369,-85.58 -10.026,-126.823l50,-112.5l0,-600c0,-220.915 179.086,-400 400,-400l333.334,0c220.914,0 400,179.085 400,400l0,600l50,112.5c18.343,41.243 14.567,88.965 -10.026,126.823c-24.593,37.842 -66.667,60.677 -111.801,60.677Z" style="fill:#e0e5f4;fill-rule:nonzero;"/><path d="M716.667,497.965l-33.334,-57.698c23.503,-13.591 48.747,-23.942 75.033,-30.762l16.667,64.535c-20.459,5.273 -40.088,13.314 -58.366,23.925Z" style="fill:#ffcb73;fill-rule:nonzero;"/><path d="M600,833.333l-66.667,0l0,-133.333c-0.228,-81.136 32.683,-158.838 91.097,-215.137l46.436,47.803c-45.443,43.799 -71.029,104.232 -70.866,167.334l0,133.333Z" style="fill:#ffcb73;fill-rule:nonzero;"/><path d="M1166.67,300l-333.334,0l-133.333,-266.667l600,0l-133.333,266.667Z" style="fill:#e0e5f4;fill-rule:nonzero;"/><path d="M1066.67,833.333l-133.334,0c-36.816,0 -66.666,-29.85 -66.666,-66.666c0,-36.817 29.85,-66.667 66.666,-66.667l233.334,0l0,-66.667l-133.334,0l0,-66.666l-66.666,0l0,66.666l-33.334,0c-73.632,0 -133.333,59.701 -133.333,133.334c0,73.632 59.701,133.333 133.333,133.333l133.334,0c36.816,0 66.666,29.85 66.666,66.667c0,36.816 -29.85,66.666 -66.666,66.666l-233.334,0l0,66.667l133.334,0l0,66.667l66.666,0l0,-66.667l33.334,0c73.632,0 133.333,-59.701 133.333,-133.333c0,-73.633 -59.701,-133.334 -133.333,-133.334Z" style="fill:#f58f00;fill-rule:nonzero;"/><path d="M1687.34,1356.84c-171.81,-133.643 -409.635,-143.083 -591.504,-23.503l-262.5,0c-73.632,0 -133.333,59.701 -133.333,133.334c0,73.632 59.701,133.333 133.333,133.333l-66.666,0l-519.206,-259.993c-49.316,-24.708 -108.366,-19.385 -152.49,13.72l-1.677,1.237c-37.76,28.223 -59.993,72.624 -59.961,119.776l0,3.499c0.033,54.541 29.834,104.704 77.735,130.794l566.097,308.806c58.74,32.031 124.593,48.828 191.504,48.828l831.331,0l0,-600l-12.663,-9.831Z" style="fill:#f3c9a6;fill-rule:nonzero;"/><rect x="1700" y="1366.67" width="266.667" height="600" style="fill:#00b8ff;fill-rule:nonzero;"/><rect x="1800" y="1766.67" width="66.667" height="66.667" style="fill:#1a5485;fill-rule:nonzero;"/><path d="M1233.33,1633.33l-400,0c-18.408,0 -33.333,-14.925 -33.333,-33.333c0,-18.408 14.925,-33.333 33.333,-33.333l400,0c18.409,0 33.334,14.925 33.334,33.333c0,18.408 -14.925,33.333 -33.334,33.333Z" style="fill:#feb784;fill-rule:nonzero;"/><path d="M1600,1166.67l0,-466.667c0.472,-219.271 -163.363,-404.118 -381.104,-429.997l111.101,-221.777c5.176,-10.352 4.606,-22.656 -1.514,-32.503c-6.12,-9.831 -16.894,-15.788 -28.483,-15.723l-600,0c-11.556,0 -22.282,5.973 -28.369,15.804c-6.071,9.814 -6.624,22.087 -1.465,32.422l110.97,221.777c-217.383,26.563 -380.859,211.003 -381.136,429.997l0,600l66.667,0l0,-600c0.244,-202.409 164.257,-366.423 366.666,-366.667l333.334,0c97.282,-0.146 190.641,38.444 259.423,107.243c68.799,68.783 107.39,162.142 107.243,259.424l0,466.667l66.667,0Zm-453.939,-900l-292.122,0l-100,-200l492.122,0l-100,200Z" style="fill-rule:nonzero;"/><path d="M716.667,497.965c18.245,-10.595 37.858,-18.652 58.3,-23.925l-16.666,-64.535c-26.286,6.82 -51.53,17.171 -75.033,30.762l33.399,57.698Z" style="fill-rule:nonzero;"/><path d="M533.333,833.333l66.667,0l0,-133.333c-0.163,-63.102 25.423,-123.535 70.866,-167.334l-46.436,-47.803c-58.414,56.299 -91.325,134.001 -91.097,215.137l0,133.333Z" style="fill-rule:nonzero;"/><path d="M95.068,1638.27l565.902,308.643c63.688,34.814 135.107,53.076 207.699,53.092l1098,0c18.408,0 33.333,-14.925 33.333,-33.333l0,-600c0,-18.409 -14.925,-33.334 -33.333,-33.334l-255.095,0l-3.808,-2.962c-39.144,-30.566 -82.422,-55.436 -128.532,-73.909c-161.735,-66 -345.394,-49.773 -493.067,43.538l-252.832,0c-53.076,-0.016 -102.994,25.26 -134.407,68.05c-31.397,42.79 -40.544,97.982 -24.626,148.617l-412.06,-206.462c-61.198,-30.729 -134.587,-23.714 -188.835,18.066c-46.126,34.555 -73.307,88.77 -73.405,146.403l0,3.663c-0.081,66.715 36.41,128.125 95.068,159.928Zm1638.27,-238.265l200,0l0,533.333l-200,0l0,-533.333Zm-1666.67,74.674c0.244,-37.32 18.164,-72.33 48.307,-94.335c33.936,-25.603 79.476,-29.688 117.432,-10.531l519.368,259.993c4.606,2.328 9.717,3.532 14.893,3.532l500,0l0,-66.666l-433.334,0c-55.224,0 -100,-44.776 -100,-100c0,-55.225 44.776,-100 100,-100l262.663,0c6.527,-0.017 12.907,-1.921 18.376,-5.502c130.599,-86.002 295.231,-102.05 439.99,-42.871c40.283,16.146 78.092,37.875 112.305,64.535l0,550.504l-797.998,0c-61.426,-0.016 -121.843,-15.478 -175.733,-44.938l-566.064,-308.691c-37.175,-20.166 -60.287,-59.082 -60.205,-101.367l0,-3.663Z" style="fill-rule:nonzero;"/><rect x="1800" y="1766.67" width="66.667" height="66.667" style="fill-rule:nonzero;"/><path d="M1033.33,1166.67l0,-66.667l33.334,0c73.632,0 133.333,-59.701 133.333,-133.333c0,-73.633 -59.701,-133.334 -133.333,-133.334l-133.334,0c-36.816,0 -66.666,-29.85 -66.666,-66.666c0,-36.817 29.85,-66.667 66.666,-66.667l233.334,0l0,-66.667l-133.334,0l0,-66.666l-66.666,0l0,66.666l-33.334,0c-73.632,0 -133.333,59.701 -133.333,133.334c0,73.632 59.701,133.333 133.333,133.333l133.334,0c36.816,0 66.666,29.85 66.666,66.667c0,36.816 -29.85,66.666 -66.666,66.666l-233.334,0l0,66.667l133.334,0l0,66.667l66.666,0Z" style="fill-rule:nonzero;"/></svg>