<?xml version="1.0" encoding="UTF-8" standalone="no"?><!DOCTYPE svg PUBLIC "-//W3C//DTD SVG 1.1//EN" "http://www.w3.org/Graphics/SVG/1.1/DTD/svg11.dtd"><svg width="100%" height="100%" viewBox="0 0 24 24" version="1.1" xmlns="http://www.w3.org/2000/svg" xmlns:xlink="http://www.w3.org/1999/xlink" xml:space="preserve" xmlns:serif="http://www.serif.com/" style="fill-rule:evenodd;clip-rule:evenodd;stroke-linejoin:round;stroke-miterlimit:1.41421;"><g><rect x="0" y="0" width="24" height="24" style="fill:none;"/><path d="M9.518,17.322c-3.204,-1.044 -5.518,-4.056 -5.518,-7.608c0,-4.418 3.582,-8 8,-8c4.418,0 8,3.582 8,8c0,3.552 -2.314,6.564 -5.518,7.608l-2.482,4.964l-2.482,-4.964Zm2.482,-5.322c1.263,0 2.286,-1.023 2.286,-2.286c0,-1.263 -1.023,-2.285 -2.286,-2.285c-1.263,0 -2.286,1.022 -2.286,2.285c0,1.263 1.023,2.286 2.286,2.286Z" style="fill:#00b8ff;"/></g></svg>