<?xml version="1.0" encoding="UTF-8" standalone="no"?><!DOCTYPE svg PUBLIC "-//W3C//DTD SVG 1.1//EN" "http://www.w3.org/Graphics/SVG/1.1/DTD/svg11.dtd"><svg width="100%" height="100%" viewBox="0 0 476 476" version="1.1" xmlns="http://www.w3.org/2000/svg" xmlns:xlink="http://www.w3.org/1999/xlink" xml:space="preserve" xmlns:serif="http://www.serif.com/" style="fill-rule:evenodd;clip-rule:evenodd;stroke-linejoin:round;stroke-miterlimit:1.41421;"><g><path d="M235.882,326.136l0,-67.216c0,-5.135 2.802,-9.802 7.469,-12.137l29.874,-16.337l8.402,-4.668c-9.336,-7.001 -20.071,-13.07 -31.274,-17.737c24.739,-17.271 41.075,-46.21 41.075,-78.886c0,-53.212 -42.942,-96.155 -96.155,-96.155c-53.212,0 -96.156,42.943 -96.156,96.155c0,32.675 16.338,61.615 41.078,78.886c-53.68,21.939 -91.489,74.217 -91.489,135.833l0,69.549c0,7.936 6.069,14.004 14.003,14.004l218.451,0c-1.867,-1.401 -3.267,-3.268 -4.667,-4.668c-25.673,-25.206 -40.611,-60.214 -40.611,-96.623Z" style="fill:#00b8ff;fill-rule:nonzero;"/><circle cx="312.163" cy="327.869" r="115.131" style="fill:#c5e1f7;"/><path d="M341.591,294.74l-43.411,35.476l-14.469,-16.804c-5.135,-6.068 -14.003,-6.535 -19.606,-1.4c-5.601,5.134 -6.534,14.002 -1.399,19.605l23.338,27.539c2.801,3.267 6.535,5.134 10.736,5.134c3.266,0 6.068,-0.933 8.869,-3.267l54.146,-44.344c6.068,-4.667 7.002,-13.536 1.867,-19.605c-5.601,-6.535 -14.471,-7.467 -20.071,-2.334Z" style="fill:#00b8ff;fill-rule:nonzero;"/></g></svg>