<?xml version="1.0" encoding="UTF-8" standalone="no"?><!DOCTYPE svg PUBLIC "-//W3C//DTD SVG 1.1//EN" "http://www.w3.org/Graphics/SVG/1.1/DTD/svg11.dtd"><svg width="100%" height="100%" viewBox="0 0 3581 3200" version="1.1" xmlns="http://www.w3.org/2000/svg" xmlns:xlink="http://www.w3.org/1999/xlink" xml:space="preserve" xmlns:serif="http://www.serif.com/" style="fill-rule:evenodd;clip-rule:evenodd;stroke-linejoin:round;stroke-miterlimit:1.41421;"><path d="M1797.5,44.776l-1123.76,691.544c0,0 0,1426.31 1123.76,2204.3c1123.76,-777.987 1123.76,-2204.3 1123.76,-2204.3l-1123.76,-691.544Z" style="fill:#e8eaf2;fill-rule:nonzero;"/><path d="M1804.21,44.776l-19.209,11.822l0,2870.53c6.379,4.51 12.756,9.022 19.209,13.49c1123.76,-777.987 1123.76,-2204.3 1123.76,-2204.3l-1123.76,-691.544Z" style="fill:#3a69da;fill-opacity:0.04;fill-rule:nonzero;"/><path d="M1525.44,1446.12l211.846,194.191l262.616,-378.85l105.925,88.271l-368.542,467.121l-300.116,-335.425l88.271,-35.308Z" style="fill:url(#_Linear1);fill-rule:nonzero;"/><path d="M1575.44,1457.78l171.846,157.525l243.45,-358.016l85.925,71.604l-329.375,429.621l-243.45,-272.092l71.604,-28.642Z" style="fill:#3ad29f;fill-rule:nonzero;"/><path d="M688.707,199.818c-7.096,-3.091 -10.789,-11.101 -8.531,-18.504c0.177,-0.551 0.289,-1.121 0.333,-1.698c0.009,-0.156 0.014,-0.311 0.014,-0.467c0,-4.211 -3.466,-7.677 -7.677,-7.677c-2.408,0 -4.681,1.133 -6.131,3.055c-0.341,0.468 -0.626,0.974 -0.849,1.508c-3.091,7.096 -11.101,10.789 -18.505,8.531c-0.551,-0.177 -1.121,-0.289 -1.698,-0.333c-0.155,-0.009 -0.311,-0.014 -0.466,-0.014c-4.212,0 -7.678,3.466 -7.678,7.677c0,2.408 1.133,4.681 3.056,6.131c0.467,0.341 0.973,0.626 1.508,0.849c7.096,3.091 10.789,11.101 8.531,18.504c-0.178,0.551 -0.289,1.121 -0.333,1.699c-0.01,0.155 -0.014,0.31 -0.014,0.466c0,4.212 3.465,7.677 7.677,7.677c2.408,0 4.681,-1.132 6.13,-3.055c0.342,-0.467 0.627,-0.973 0.85,-1.508c3.09,-7.096 11.101,-10.789 18.504,-8.531c0.551,0.178 1.121,0.289 1.698,0.333c0.155,0.01 0.311,0.014 0.467,0.014c4.211,0 7.677,-3.465 7.677,-7.677c0,-2.408 -1.133,-4.681 -3.056,-6.13c-0.467,-0.342 -0.973,-0.627 -1.507,-0.85Z" style="fill:#4d8af0;fill-opacity:0.5;fill-rule:nonzero;"/><path d="M80.374,1553.99c-7.097,-3.091 -10.79,-11.101 -8.532,-18.505c0.178,-0.551 0.29,-1.12 0.333,-1.698c0.01,-0.155 0.015,-0.311 0.015,-0.466c0,-4.212 -3.466,-7.678 -7.678,-7.678c-2.408,0 -4.681,1.133 -6.13,3.056c-0.342,0.467 -0.627,0.973 -0.85,1.508c-3.09,7.096 -11.101,10.789 -18.504,8.531c-0.551,-0.178 -1.121,-0.289 -1.698,-0.333c-0.155,-0.01 -0.311,-0.014 -0.467,-0.014c-4.211,0 -7.677,3.465 -7.677,7.677c0,2.408 1.133,4.681 3.056,6.13c0.467,0.342 0.973,0.627 1.507,0.85c7.097,3.091 10.79,11.101 8.531,18.504c-0.177,0.551 -0.289,1.121 -0.333,1.698c-0.009,0.156 -0.014,0.311 -0.014,0.467c0,4.211 3.466,7.677 7.678,7.677c2.408,0 4.68,-1.133 6.13,-3.055c0.341,-0.468 0.627,-0.974 0.85,-1.508c3.09,-7.096 11.1,-10.789 18.504,-8.531c0.551,0.177 1.121,0.289 1.698,0.333c0.155,0.009 0.311,0.014 0.466,0.014c4.212,0 7.678,-3.466 7.678,-7.677c0,-2.408 -1.133,-4.681 -3.056,-6.131c-0.467,-0.341 -0.973,-0.626 -1.507,-0.849Z" style="fill:#4d8af0;fill-opacity:0.5;fill-rule:nonzero;"/><circle cx="3118.33" cy="1058.33" r="25" style="fill:#f55f44;fill-opacity:0.5;"/><circle cx="505.83" cy="2845.83" r="25" style="fill:#f55f44;fill-opacity:0.5;"/><circle cx="3543.33" cy="2020.83" r="25" style="fill:#f55f44;fill-opacity:0.5;"/><path d="M2934.54,320.651c-7.096,-3.09 -10.789,-11.1 -8.531,-18.504c0.177,-0.551 0.289,-1.121 0.333,-1.698c0.009,-0.155 0.014,-0.311 0.014,-0.466c0,-4.212 -3.465,-7.678 -7.677,-7.678c-2.408,0 -4.681,1.133 -6.13,3.056c-0.342,0.467 -0.627,0.973 -0.85,1.507c-3.091,7.097 -11.101,10.79 -18.504,8.531c-0.551,-0.177 -1.121,-0.289 -1.698,-0.333c-0.156,-0.009 -0.311,-0.014 -0.467,-0.014c-4.212,0 -7.677,3.466 -7.677,7.678c0,2.408 1.133,4.68 3.055,6.13c0.468,0.342 0.974,0.627 1.508,0.85c7.096,3.09 10.789,11.1 8.531,18.504c-0.177,0.551 -0.289,1.121 -0.333,1.698c-0.009,0.155 -0.014,0.311 -0.014,0.466c0,4.212 3.466,7.678 7.677,7.678c2.408,0 4.681,-1.133 6.131,-3.056c0.341,-0.467 0.626,-0.973 0.849,-1.507c3.091,-7.097 11.101,-10.79 18.504,-8.531c0.551,0.177 1.121,0.289 1.699,0.332c0.155,0.01 0.31,0.015 0.466,0.015c4.212,0 7.677,-3.466 7.677,-7.678c0,-2.408 -1.133,-4.68 -3.055,-6.13c-0.468,-0.342 -0.974,-0.627 -1.508,-0.85Z" style="fill:#4d8af0;fill-opacity:0.5;fill-rule:nonzero;"/><path d="M3351.21,2937.32c-7.096,-3.091 -10.789,-11.101 -8.531,-18.504c0.177,-0.551 0.289,-1.121 0.333,-1.698c0.009,-0.156 0.014,-0.311 0.014,-0.467c0,-4.211 -3.466,-7.677 -7.677,-7.677c-2.408,0 -4.681,1.133 -6.131,3.055c-0.341,0.468 -0.626,0.974 -0.849,1.508c-3.091,7.096 -11.101,10.789 -18.505,8.531c-0.551,-0.177 -1.121,-0.289 -1.698,-0.333c-0.155,-0.009 -0.311,-0.014 -0.466,-0.014c-4.212,0 -7.678,3.466 -7.678,7.677c0,2.408 1.133,4.681 3.056,6.131c0.467,0.341 0.973,0.626 1.508,0.849c7.096,3.091 10.789,11.101 8.531,18.504c-0.178,0.551 -0.289,1.121 -0.333,1.699c-0.01,0.155 -0.014,0.31 -0.014,0.466c0,4.212 3.465,7.677 7.677,7.677c2.408,0 4.681,-1.132 6.13,-3.055c0.342,-0.467 0.627,-0.973 0.85,-1.508c3.09,-7.096 11.101,-10.789 18.504,-8.531c0.551,0.178 1.121,0.289 1.698,0.333c0.155,0.01 0.311,0.014 0.467,0.014c4.211,0 7.677,-3.465 7.677,-7.677c0,-2.408 -1.133,-4.681 -3.056,-6.13c-0.467,-0.342 -0.973,-0.627 -1.507,-0.85Z" style="fill:#4d8af0;fill-opacity:0.5;fill-rule:nonzero;"/><path d="M51.207,762.318c-7.096,-3.091 -10.789,-11.101 -8.531,-18.504c0.177,-0.551 0.289,-1.121 0.333,-1.698c0.009,-0.156 0.014,-0.311 0.014,-0.467c0,-4.211 -3.466,-7.677 -7.677,-7.677c-2.408,0 -4.681,1.133 -6.131,3.055c-0.341,0.468 -0.626,0.974 -0.849,1.508c-3.091,7.096 -11.101,10.789 -18.505,8.531c-0.551,-0.177 -1.121,-0.289 -1.698,-0.333c-0.155,-0.009 -0.311,-0.014 -0.466,-0.014c-4.212,0 -7.678,3.466 -7.678,7.677c0,2.408 1.133,4.681 3.056,6.131c0.467,0.341 0.973,0.626 1.508,0.849c7.096,3.091 10.789,11.101 8.531,18.504c-0.178,0.551 -0.289,1.121 -0.333,1.699c-0.01,0.155 -0.014,0.31 -0.014,0.466c0,4.212 3.465,7.677 7.677,7.677c2.408,0 4.681,-1.132 6.13,-3.055c0.342,-0.467 0.627,-0.973 0.85,-1.508c3.09,-7.096 11.101,-10.789 18.504,-8.531c0.551,0.178 1.121,0.289 1.698,0.333c0.155,0.01 0.311,0.014 0.467,0.014c4.211,0 7.677,-3.465 7.677,-7.677c0,-2.408 -1.133,-4.681 -3.056,-6.13c-0.467,-0.342 -0.973,-0.627 -1.507,-0.85Z" style="fill:#4d8af0;fill-opacity:0.5;fill-rule:nonzero;"/><circle cx="330.83" cy="1183.33" r="25" style="fill:#47e6b1;fill-opacity:0.5;"/><circle cx="3555.83" cy="1383.33" r="25" style="fill:#47e6b1;fill-opacity:0.5;"/><g opacity="0.5"><rect x="2430.83" y="0" width="12.5" height="70.833" style="fill:#47e6b1;"/><path d="M2472.5,41.667l0,-12.5l-70.834,0l0,12.5l70.834,0Z" style="fill:#47e6b1;"/></g><g opacity="0.5"><rect x="2476.66" y="2775" width="12.5" height="70.833" style="fill:#47e6b1;"/><path d="M2518.33,2816.67l0,-12.5l-70.833,0l0,12.5l70.833,0Z" style="fill:#47e6b1;"/></g><g opacity="0.5"><rect x="109.997" y="2925" width="12.5" height="70.833" style="fill:#47e6b1;"/><path d="M151.663,2966.67l0,-12.5l-70.833,0l0,12.5l70.833,0Z" style="fill:#47e6b1;"/></g><g opacity="0.5"><rect x="2955.83" y="1650" width="12.5" height="70.833" style="fill:#47e6b1;"/><path d="M2997.5,1691.67l0,-12.5l-70.834,0l0,12.5l70.834,0Z" style="fill:#47e6b1;"/></g><path d="M3315.03,512.575l26.846,24.608l38.033,-55.933l13.425,11.188l-51.458,67.12l-38.033,-42.508l11.187,-4.475Z" style="fill:#47e6b1;fill-opacity:0.5;fill-rule:nonzero;"/><path d="M2548.62,996.966l-92.607,3.591l4.617,119.066l92.607,-3.592l-4.617,-119.065Z" style="fill:#3a69da;"/><path d="M2130.87,1413.96c0,0 -128.246,-61.274 -126.194,-8.356c2.052,52.918 129.272,87.733 129.272,87.733l-3.078,-79.377Z" style="fill:#ffb9b9;fill-rule:nonzero;"/><path d="M2201.23,1861.71c0,0 -60.504,148.09 -82.859,254.953c-22.355,106.862 -56.4,253.926 -12.608,358.223c43.793,104.297 168.3,410.831 169.583,443.904c1.282,33.074 -10.665,66.661 15.794,65.635c26.459,-1.026 170.445,-46.358 176.29,-66.459c5.846,-20.1 -49.125,-70.966 -49.125,-70.966l-135.738,-425.343l141.622,-277.105l102.152,413.396l20.008,515.951c0,0 98.195,-30.306 112.451,-4.36c0,0 43.995,-61.329 49.583,-88.044c5.589,-26.716 -20.777,-535.796 -20.777,-535.796c0,0 90.135,-579.846 17.372,-577.024c-72.762,2.821 -357.764,-171.619 -503.748,-6.965Z" style="fill:#3a69da;fill-rule:nonzero;"/><path d="M2290.12,2957.97c0,0 -67.119,148.346 -73.477,155.218c-6.359,6.871 -50.097,74.814 -17.023,73.532c33.074,-1.283 111.168,-37.435 168.649,-92.661c57.481,-55.227 133.267,-150.912 126.396,-157.27c-6.871,-6.359 -53.944,-24.407 -53.944,-24.407l-150.601,45.588Z" style="fill:#575a89;fill-rule:nonzero;"/><path d="M2558.3,3040.31c0,0 -4.05,66.405 -16.253,93.377c-12.204,26.972 -10.665,66.66 22.409,65.378c33.074,-1.283 118.553,-17.847 118.553,-17.847c0,0 5.076,-39.945 -1.796,-46.303c-6.871,-6.359 -36.152,-78.095 -23.692,-98.452c12.46,-20.358 -99.221,3.847 -99.221,3.847Z" style="fill:#575a89;fill-rule:nonzero;"/><path d="M2607.23,885.385c0,0 70.508,109.886 97.993,135.319c27.486,25.433 -49.84,81.429 -49.84,81.429l-138.397,18.616c0,0 1.741,-125.937 -5.386,-138.91c-7.128,-12.973 95.63,-96.454 95.63,-96.454Z" style="fill:#ffb9b9;fill-rule:nonzero;"/><path d="M2486.94,1029.17c0,0 28.511,51.892 54.97,50.866c26.459,-1.026 163.317,-59.331 169.163,-79.432c5.845,-20.101 45.332,143.986 45.332,143.986l-334.882,589.336l-81.685,-56.455l39.579,-346.02l32.507,-186.752l75.016,-115.529Z" style="fill:#3a69da;fill-rule:nonzero;"/><path d="M2723.42,1556.6c-13.359,27.945 -21.702,57.085 -20.545,86.918c0.051,1.323 0.103,2.646 0.22,3.966c3.169,61.222 25.723,132.027 33.814,183.519c5.871,36.937 4.2,63.898 -17.415,70.235c-52.405,15.281 7.641,26.202 -195.109,93.687c-202.749,67.484 -238.131,9.234 -238.644,-3.995c-0.513,-13.23 28.713,-113.734 21.842,-120.092c-6.872,-6.358 -96.144,83.225 -123.116,71.021c-26.972,-12.203 -3.078,-79.377 -3.078,-79.377c0,0 60.761,-141.475 59.479,-174.549c-1.283,-33.074 92.039,-189.061 92.039,-189.061l63.474,-413.194c0,0 24.407,-53.944 57.224,-61.842c32.817,-7.897 60.046,10.921 60.046,10.921l-54.916,121.375l-57.94,214.237l9.693,79.121c0,0 67.376,-141.731 111.627,-196.445c44.252,-54.714 138.599,-184.242 138.599,-184.242c0,0 22.027,-74.322 5.399,-96.533c-16.63,-22.276 69.361,-25.611 106.026,65.713c19.433,48.402 50.983,120.58 70.747,187.784c17.612,59.535 25.931,115.191 8.483,147.004c-26.668,48.6 -93.75,112.48 -127.949,183.829Z" style="fill:#575a89;fill-rule:nonzero;"/><path d="M2851.37,1372.77c-26.668,48.6 -93.75,112.48 -127.949,183.829c-8.933,-32.181 -19.83,-65.478 -19.83,-65.478c0,0 -41.795,-223.62 81.834,-281.411c20.478,-1.98 40.976,3.747 57.462,16.056c17.612,59.535 25.931,115.191 8.483,147.004Z" style="fill-opacity:0.1;fill-rule:nonzero;"/><path d="M2360.6,1358.68l-104.81,30.563l-145.525,5.643l-14.971,126.45l239.158,17.225c0,0 59.735,-167.934 26.148,-179.881Z" style="fill:#575a89;fill-rule:nonzero;"/><path d="M2531.5,1783.84c0,0 -140.215,23.263 -108.212,65.457c32.003,42.195 156.216,-2.165 156.216,-2.165l-48.004,-63.292Z" style="fill:#ffb9b9;fill-rule:nonzero;"/><path d="M2703.1,1647.48c3.169,61.222 25.723,132.027 33.814,183.519c-44.667,42.275 -87.143,79.563 -103.151,80.184c-33.074,1.282 -86.248,-3.28 -105.836,4.104c-19.588,7.384 -31.076,-118.04 -31.076,-118.04c0,0 11.69,-40.201 63.839,-62.098c35.199,-14.813 102.671,-54.991 142.41,-87.669Z" style="fill-opacity:0.1;fill-rule:nonzero;"/><path d="M2783.89,1170.02c0,0 111.938,-17.59 105.89,168.136c-6.047,185.727 11.8,304.28 -33.221,339.149c-45.021,34.87 -191.261,192.909 -224.335,194.191c-33.074,1.283 -86.248,-3.28 -105.836,4.104c-19.588,7.385 -31.076,-118.039 -31.076,-118.039c0,0 11.69,-40.202 63.839,-62.098c52.148,-21.897 175.007,-99.533 173.981,-125.992c-1.026,-26.459 -31.076,-118.04 -31.076,-118.04c0,0 -41.795,-223.619 81.834,-281.411Z" style="fill:#575a89;fill-rule:nonzero;"/><circle cx="2508.52" cy="902.462" r="145.634" style="fill:#ffb9b9;"/><path d="M2410.46,693.726c-3.512,3.026 -7.719,5.137 -12.245,6.145c-4.698,0.838 -9.259,-2.321 -10.126,-7.014c-3.332,6.91 -7.091,14.274 -13.894,17.82c-6.803,3.546 -17.322,0.572 -18.303,-7.036c-0.993,5.776 -3.549,11.172 -7.39,15.6c-4.221,4.024 -11.875,5.04 -15.56,0.52c2.979,16.281 1.14,33.024 2.076,49.549c0.936,16.525 5.342,34.044 17.827,44.91c18.208,15.847 45.588,11.936 69.539,8.934c3.621,-0.76 7.38,-0.555 10.897,0.596c8.968,3.821 8.561,16.304 8.682,26.052c1.504,35.168 28.453,64.394 63.384,68.739c9.503,1.467 19.21,-0.902 26.969,-6.582c6.8,-5.764 10.274,-15.158 18.066,-19.488c12.675,-7.043 28.048,3.228 37.315,14.381c9.267,11.153 18.401,24.873 32.757,26.914c18.987,2.7 33.449,-16.65 40.544,-34.467c19.768,-50.43 18.327,-106.771 -3.993,-156.124c-39.646,-86.421 -175.076,-100.09 -246.545,-49.449Z" style="fill:#2f2e41;fill-rule:nonzero;"/><defs><linearGradient id="_Linear1" x1="0" y1="0" x2="1" y2="0" gradientUnits="userSpaceOnUse" gradientTransform="matrix(668.659,0,0,668.659,1437.17,1539.16)"><stop offset="0" style="stop-color:#808080;stop-opacity:0.17"/><stop offset="0.54" style="stop-color:#808080;stop-opacity:0.08"/><stop offset="1" style="stop-color:#808080;stop-opacity:0.07"/></linearGradient></defs></svg>