<?xml version="1.0" encoding="UTF-8" standalone="no"?><!DOCTYPE svg PUBLIC "-//W3C//DTD SVG 1.1//EN" "http://www.w3.org/Graphics/SVG/1.1/DTD/svg11.dtd"><svg width="100%" height="100%" viewBox="0 0 3146 3250" version="1.1" xmlns="http://www.w3.org/2000/svg" xmlns:xlink="http://www.w3.org/1999/xlink" xml:space="preserve" xmlns:serif="http://www.serif.com/" style="fill-rule:evenodd;clip-rule:evenodd;stroke-linejoin:round;stroke-miterlimit:1.41421;"><ellipse cx="1523.85" cy="2946.12" rx="1516.54" ry="185.5" style="fill:#3755be;fill-opacity:0.09;"/><path d="M2709.88,418.422c0,-14.518 -14.283,-26.306 -31.875,-26.306l-2310.92,0c-17.591,0 -31.875,11.788 -31.875,26.306l0,1799.69c0,14.519 14.284,26.307 31.875,26.307l2310.92,0c17.592,0 31.875,-11.788 31.875,-26.307l0,-1799.69Z" style="fill:#e8eaf2;"/><path d="M2709.85,406.875l0,107.75l-2374.67,0l0,-107.75c0,-17.488 8.304,-31.875 18.396,-31.875l2337.9,0c10.079,0 18.371,14.371 18.371,31.833l0,0.042Z" style="fill:#65617d;fill-rule:nonzero;"/><circle cx="398.725" cy="444.833" r="27.167" style="fill:#fa5959;fill-opacity:0.8;"/><circle cx="471.933" cy="444.833" r="27.167" style="fill:#fed253;fill-opacity:0.8;"/><circle cx="545.183" cy="444.833" r="27.167" style="fill:#8ccf4d;fill-opacity:0.8;"/><path d="M2520.02,704.042c0,-17.592 -14.284,-31.875 -31.875,-31.875l-1938.25,0c-17.592,0 -31.875,14.283 -31.875,31.875l0,865.875c0,17.591 14.283,31.875 31.875,31.875l1938.25,0c17.591,0 31.875,-14.284 31.875,-31.875l0,-865.875Z" style="fill:#3755be;fill-opacity:0.2;"/><path d="M2520.02,1505.62c0,-4.346 -3.529,-7.875 -7.875,-7.875l-1986.25,0c-4.346,0 -7.875,3.529 -7.875,7.875l0,48.042c0,4.346 3.529,7.875 7.875,7.875l1986.25,0c4.346,0 7.875,-3.529 7.875,-7.875l0,-48.042Z" style="fill:#fff;"/><path d="M2520.02,1640.29c0,-4.346 -3.529,-7.875 -7.875,-7.875l-1986.25,0c-4.346,0 -7.875,3.529 -7.875,7.875l0,48.041c0,4.346 3.529,7.875 7.875,7.875l1986.25,0c4.346,0 7.875,-3.529 7.875,-7.875l0,-48.041Z" style="fill:#fff;"/><path d="M2520.02,1774.92c0,-4.346 -3.529,-7.875 -7.875,-7.875l-1986.25,0c-4.346,0 -7.875,3.529 -7.875,7.875l0,48.041c0,4.346 3.529,7.875 7.875,7.875l1986.25,0c4.346,0 7.875,-3.529 7.875,-7.875l0,-48.041Z" style="fill:#fff;"/><path d="M2520.02,1909.58c0,-4.345 -3.529,-7.875 -7.875,-7.875l-1986.25,0c-4.346,0 -7.875,3.53 -7.875,7.875l0,48.042c0,4.346 3.529,7.875 7.875,7.875l1986.25,0c4.346,0 7.875,-3.529 7.875,-7.875l0,-48.042Z" style="fill:#fff;"/><path d="M2520.02,2044.21c0,-4.345 -3.529,-7.875 -7.875,-7.875l-1986.25,0c-4.346,0 -7.875,3.53 -7.875,7.875l0,48.042c0,4.346 3.529,7.875 7.875,7.875l1986.25,0c4.346,0 7.875,-3.529 7.875,-7.875l0,-48.042Z" style="fill:#fff;"/><path d="M2270.02,1288.33c0,-4.346 -3.529,-7.875 -7.875,-7.875l-248.834,0c-4.345,0 -7.875,3.529 -7.875,7.875l0,48.042c0,4.346 3.53,7.875 7.875,7.875l248.834,0c4.346,0 7.875,-3.529 7.875,-7.875l0,-48.042Z" style="fill:#3755be;"/><path d="M2106.35,1398.58c3.925,5.375 8.629,10.138 13.958,14.125c3.5,2.875 7.042,5.792 10.75,8.334l3.25,2.166c-0.125,0.184 -0.237,0.38 -0.333,0.584c-0.879,1.587 -1.212,3.412 -0.958,5.208c0.8,2.167 2.254,4.033 4.166,5.333c8.671,8.054 14.517,18.696 16.667,30.334c1.292,6.75 -3.25,13.958 -2.958,20.833c0.658,6.725 2.45,13.287 5.291,19.417c5.667,14.458 11.709,29.416 23.084,39.958c2.683,23.212 11.629,45.267 25.875,63.792c11.958,15.333 27.916,26.875 43.625,38.25c4.979,3.987 10.404,7.383 16.166,10.125c5.175,1.887 10.521,3.283 15.959,4.166c46.133,9.359 92.987,14.738 140.041,16.084c1.334,28 1.905,56.029 1.709,84.083c0.254,4.608 -0.396,9.225 -1.917,13.583c-2.333,4.1 -5.129,7.917 -8.333,11.375c-10.792,14.334 -11.334,33.709 -10.417,51.625c1.054,20.971 3.487,41.85 7.292,62.5c4.875,26.417 0.416,55.625 9.791,80.75c3.709,9.917 7.417,19.875 11.084,29.792c1.245,2.779 1.991,5.754 2.208,8.792c0,6.541 -4.167,12.083 -7.5,17.75c-4.625,8.237 -6.875,17.6 -6.5,27.041c-0.042,1.071 0.233,2.129 0.792,3.042c1.208,1.625 3.666,1.5 5.708,1.167c8.288,-1.184 16.633,-1.95 25,-2.292c-1.529,1.871 -2.921,3.846 -4.167,5.917c-2.004,3.504 -3.77,7.137 -5.291,10.875c-2.992,6.233 -5.35,12.754 -7.042,19.458c-0.304,0.971 -0.542,1.958 -0.708,2.958c-0.459,2 -0.875,4.167 -1.209,6.042c-1.783,11.829 -2.508,23.792 -2.166,35.75c-1.167,22.292 -2.292,45.542 -4.459,52.375c-3.041,9.625 0.75,25 4.5,39.708c0.196,10.142 2.025,20.188 5.417,29.75c0.296,10.542 1.508,21.042 3.625,31.375c12.863,72.529 26.583,144.929 41.167,217.209c1.291,6.25 2.541,12.5 4.166,18.666c5.417,20.088 14.909,38.854 27.875,55.125c11.4,14.425 21.184,30.063 29.167,46.625c-0.833,3.917 -1.708,7.875 -2.667,11.792c-8.333,34.583 -19,68.667 -22.791,104.167c-1.5,14.083 -1.917,28.583 -7.5,41.666c-2.834,6.625 -7,12.917 -7.584,20.125c-0.333,4.559 0.742,9.113 3.084,13.042l-2.75,2.25l-1.542,1.25c-10.583,8.333 -24.75,10.125 -37.792,13.542c-13.041,3.416 -27.041,10.25 -31.083,23.208c-0.267,0.804 -0.475,1.625 -0.625,2.458c-2.375,11.917 4.833,24.584 15,31.584c10.833,7.458 24.333,9.75 37.5,11.458c13.167,1.708 26.5,2.917 38.292,8.792c10.208,5.041 18.791,13.333 29.583,17l1.958,0.541c-2.458,1.459 -4.875,2.875 -7.416,4.167c-11.175,5.779 -23.25,9.625 -35.709,11.375c-12.5,1.708 -27.583,2.542 -34.041,13.5c-5.292,9.042 -1.459,21.292 6.166,28.458c7.625,7.167 18.209,10.334 28.417,12.5c23.375,4.584 47.046,7.521 70.833,8.792l23.084,1.792c22.541,1.708 45.125,3.458 67.791,3.541c27.938,0.092 55.83,-2.337 83.334,-7.25c0.204,0.017 0.404,0.025 0.608,0.025c3.908,0 7.125,-3.216 7.125,-7.125c0,-0.412 -0.037,-0.825 -0.108,-1.233c-0.492,-28.308 -3.929,-56.487 -10.25,-84.083c-1.917,-8.334 -13.209,3.041 -19.5,10.166c-0.875,-4.166 -1.792,-8.333 -2.875,-12.208l4.958,-2.333c3.788,-1.446 6.983,-4.117 9.083,-7.584c1.009,-2.8 1.338,-5.8 0.959,-8.75c-0.917,-18.166 -2.042,-37 -10.667,-52.958c-5.625,-9.546 -12.646,-18.2 -20.833,-25.667c-1.963,-57.137 -8.938,-113.995 -20.834,-169.916c-6.375,-28.459 -14.291,-57.25 -30.75,-81.334c-2.083,-3 -4.166,-6 -6.541,-9.041c-1.779,-27.371 -5.092,-54.625 -9.917,-81.625c-0.962,-3.563 -0.962,-7.313 0,-10.875c1.579,-3.059 3.6,-5.867 6,-8.334c9.917,-12.791 5.875,-30.958 4.708,-47.125c-1.625,-23.166 3.834,-46.208 9.292,-68.833l20.125,-83.708c1.646,-7.938 4.017,-15.704 7.083,-23.209c5.292,-10.166 11.355,-19.916 18.125,-29.166c18.792,-29.613 27.642,-64.467 25.25,-99.459c3.834,1.375 7.625,2.75 11.375,4.167c2.834,-23.375 -7.041,-50 0,-71.875c12.121,-8.829 21.905,-20.487 28.5,-33.958c5.542,-12.5 7.084,-26.25 12.875,-38.5c3.25,-6.917 7.834,-13.25 9.75,-20.834c2.834,-11.083 -0.75,-22.75 -0.583,-34.208c0.375,-25 18.417,-48.042 14.542,-72.625c-1.875,-11.667 -8.667,-22.542 -8.334,-34.375c0.559,-6.417 2.18,-12.696 4.792,-18.583c13.75,-36.292 27.208,-75 20.208,-113.125c-1.791,-9.792 -4.958,-19.5 -4.416,-29.417c0.583,-11.375 5.958,-22.417 4.166,-33.708c-0.675,-4.288 -2.408,-8.342 -5.041,-11.792c4.908,-7.546 9.096,-15.542 12.5,-23.875c2.254,-4.775 3.383,-10.008 3.291,-15.292c-0.97,-7.258 -4.854,-13.82 -10.75,-18.166c-5.879,-4.204 -12.162,-7.821 -18.75,-10.792c-2.066,-0.921 -3.925,-2.254 -5.458,-3.917c-1.175,-1.879 -2.204,-3.841 -3.083,-5.875c-3.667,-6.375 -11.667,-8.333 -17.917,-12.208c-22.708,-13.875 -20.542,-49.583 -39.917,-67.833c-13.537,-12.134 -33.875,-13.217 -48.625,-2.584c-1.829,1.867 -4.237,3.059 -6.833,3.375c-2.508,-0.508 -4.812,-1.737 -6.625,-3.541c-4.821,-3.246 -10.571,-4.842 -16.375,-4.542c-3.562,-14.212 -5.104,-28.858 -4.583,-43.5l1.75,0c2.291,0.071 4.579,-0.196 6.791,-0.792c9.959,-2.875 15.625,-13.208 19.709,-22.791c3.521,-8.109 6.446,-16.463 8.75,-25c0.208,-0.834 0.375,-1.625 0.583,-2.459c19.083,13.417 41.25,27.459 46.583,24.5c9.75,-5.375 -43.75,-43.458 -43.75,-43.458c6.292,-5.583 9.792,-15.667 11.375,-24.583c3.784,-17.717 3.925,-36.017 0.417,-53.792c-4.167,-17.542 -14.708,-34.25 -30.708,-42.458c-7.084,-3.667 -15.667,-6.167 -20.834,-11.792c-0.783,-0.833 -1.47,-1.758 -2.041,-2.75c-0.288,-0.471 -0.554,-0.958 -0.792,-1.458c-0.546,-1.554 -1.304,-3.025 -2.25,-4.375c-2.917,-3.417 -8.333,-2.375 -12.5,-1.834l-1.458,0l-1.167,0l-1.208,0c-15.875,0.334 -31.25,-8.541 -47.292,-8.541c-17.583,0 -32.583,10.208 -48.042,17.208c-3.125,1.417 -6.083,2.708 -8.875,4.167c-9.708,4.541 -17.333,9.333 -22.208,20.25c-3.079,3.616 -5.292,7.896 -6.458,12.5c-0.479,2.108 -0.759,4.258 -0.834,6.416c-20.187,19.988 -31.558,47.246 -31.558,75.655c0,48.233 32.779,90.725 79.433,102.97c0.375,1.042 0.792,2.084 1.125,3.167c3.18,9.579 4.742,19.617 4.625,29.708l0,2.167c-8.087,1.908 -15.833,5.058 -22.958,9.333c-9.087,5.375 -15.975,13.813 -19.417,23.792c-0.208,0.792 -0.416,1.542 -0.583,2.25c-5.654,-1.862 -11.55,-2.871 -17.5,-3c-5.429,-0.771 -10.929,0.875 -15.042,4.5c-1.366,1.692 -2.337,3.675 -2.833,5.792c-2.042,1.875 -2.417,5.166 -3.875,7.666c-4.458,7.834 -16.083,5.25 -25,7.417c-9.5,2.333 -17,11.25 -26.75,11.292c-3.721,-0.571 -7.496,-0.713 -11.25,-0.417c-3.667,0.917 -6.542,5.958 -3.75,8.333c-4.467,-0.458 -8.825,1.642 -11.25,5.417c-2.708,3.5 -4.458,7.667 -7.458,10.958c-2.617,-3.666 -7.179,-5.437 -11.584,-4.5c-4.312,0.95 -8.45,2.584 -12.25,4.834c-1.695,0.908 -3.525,1.541 -5.416,1.875c-2.213,0.137 -4.429,-0.059 -6.584,-0.584c-10.462,-1.745 -21.212,-0.295 -30.833,4.167c-8.333,4.167 -16.667,-3.375 -26,-3.958c-3.417,0.187 -6.792,-0.863 -9.5,-2.959c-1.758,-2.191 -2.983,-4.758 -3.583,-7.5c-4.263,-12.22 -14.604,-21.375 -27.25,-24.125c5.012,-15.82 -3.184,-33.037 -18.625,-39.125c1.233,-11.145 -3.142,-22.208 -11.667,-29.5c-2.058,-1.375 -4.008,-2.908 -5.833,-4.583c-2.475,-2.925 -4.321,-6.329 -5.417,-10c-2.779,-7.279 -5.554,-14.571 -8.333,-21.875c-3.625,-0.75 -6.5,-2.25 -9.959,-2.833l0,-2.25c-0.108,-7.484 -1.375,-14.904 -3.75,-22c-4.25,-11.517 -10.204,-22.334 -17.666,-32.084c-7.875,-11.041 -16.667,-21.875 -28.375,-28.541c-3.917,-2.096 -7.95,-3.959 -12.084,-5.584l-21.291,-8.791c-1.217,-0.575 -2.534,-0.913 -3.875,-1c-5.75,0 -6.792,8.833 -3.542,13.583c6.5,9.542 21.083,12.208 25.208,23.042c-7.087,0.246 -13.25,5.058 -15.208,11.875c-0.158,1.758 -0.875,3.425 -2.042,4.75c-1.875,1.541 -4.833,0.666 -6.958,1.833c-3.792,2 -2.125,7.667 -2.542,11.958c-0.916,3.721 -2.216,7.338 -3.875,10.792c-1.812,6.742 -0.462,13.954 3.667,19.583Zm510.417,1492.79l-0.5,-6.583c0.458,1.166 0.875,2.375 1.333,3.541c3.75,9.834 7.917,19.555 12.5,29.167l-0.792,-0.375c-3.22,-1.479 -6.65,-2.462 -10.166,-2.917c-0.917,0 -1.875,-0.208 -2.834,-0.25c1.234,-7.466 1.388,-15.07 0.459,-22.583Z" style="fill:url(#_Linear1);fill-rule:nonzero;"/><path d="M2559.06,1455.08c-0.416,15.542 -5.666,30.625 -6.5,46.125c45.834,2.292 90.959,-19.916 136.25,-13.125c-12.5,-8.333 -19.416,-22.958 -23.416,-37.5c-5.079,-18.758 -6.592,-38.308 -4.459,-57.625c0.117,-1.079 0.296,-2.15 0.542,-3.208c1.708,-7.583 6.042,-18.333 4.875,-24.333c-1.542,-7.917 -9,-6.334 -15.708,-5.875c-20.488,1.537 -40.875,4.166 -61.084,7.875c-5.291,0.916 -56.583,13.708 -57.333,12.5c8.992,14.458 16.433,29.821 22.208,45.833c3.15,9.454 4.713,19.367 4.625,29.333Z" style="fill:#ee8e9e;fill-rule:nonzero;"/><path d="M2106.35,1407.04c3.913,5.387 8.621,10.15 13.958,14.125c3.5,2.833 7.042,5.75 10.75,8.333c6.659,5.112 14.58,8.325 22.917,9.292c10.875,0.75 34.042,-5.667 40.833,-15c2.842,-4.696 4.192,-10.146 3.875,-15.625c-0.108,-7.442 -1.375,-14.821 -3.75,-21.875c-4.25,-11.479 -10.208,-22.255 -17.666,-31.959c-7.875,-10.958 -16.667,-21.75 -28.375,-28.375c-3.909,-2.1 -7.942,-3.95 -12.084,-5.541l-21.291,-8.834c-1.217,-0.575 -2.534,-0.912 -3.875,-1c-5.75,0 -6.792,8.792 -3.542,13.5c6.5,9.5 21.083,12.167 25.208,22.959c-7.083,0.183 -13.266,4.979 -15.208,11.791c-0.158,1.759 -0.875,3.425 -2.042,4.75c-1.875,1.5 -4.833,0.667 -6.958,1.792c-3.792,2 -2.125,7.667 -2.542,11.917c-0.929,3.704 -2.229,7.304 -3.875,10.75c-1.683,6.558 -0.337,13.537 3.667,19Z" style="fill:#ee8e9e;fill-rule:nonzero;"/><path d="M2737.6,2965.75c-3.542,-3.5 -9.292,-2.917 -14.208,-2.125c-26.496,4.125 -53.267,6.229 -80.084,6.292c-3.333,-16.334 6.375,-32.25 9.5,-48.625c0.434,-4.3 1.5,-8.513 3.167,-12.5c3.792,-7.25 12.5,-10.542 20.25,-12.209c14.375,-3.041 36.875,-8.333 44.917,6.125c9.625,17.625 12.708,43.417 16.458,63.042Z" style="fill:#65617d;fill-rule:nonzero;"/><path d="M2444.81,2903.79c10.834,7.416 24.334,9.708 37.5,11.416c13.167,1.709 26.5,2.917 38.292,8.709c10.208,5.041 18.792,13.291 29.583,16.916c10.042,2.771 20.625,2.942 30.75,0.5c12.125,-2.291 25,-6.708 31.584,-17.166c5.833,-9.334 5.208,-21.125 4.416,-32.084c-0.958,-12.5 -1.833,-25 -2.75,-37.208c0.025,-3.154 -0.779,-6.258 -2.333,-9c-8.75,-12.792 -30.083,5.333 -41.667,5.333c-18.083,0 -37.5,-9.833 -50.541,-21.833c-1.146,-1.179 -2.467,-2.179 -3.917,-2.958c-5.167,-2.292 -10.292,1.958 -14.875,5.708l-1.542,1.25c-10.583,8.333 -24.75,10.083 -37.791,13.458c-13.042,3.375 -27.042,10.209 -31.084,23.084c-0.266,0.816 -0.475,1.654 -0.625,2.5c-2.375,11.833 4.834,24.458 15,31.375Z" style="fill:#3f3d56;fill-rule:nonzero;"/><path d="M2444.81,2903.79c10.834,7.416 24.334,9.708 37.5,11.416c13.167,1.709 26.5,2.917 38.292,8.709c10.208,5.041 18.792,13.291 29.583,16.916c10.042,2.771 20.625,2.942 30.75,0.5c12.125,-2.291 25,-6.708 31.584,-17.166c5.833,-9.334 5.208,-21.125 4.416,-32.084c-0.958,-12.5 -1.833,-25 -2.75,-37.208c0.025,-3.154 -0.779,-6.258 -2.333,-9c-8.75,-12.792 -30.083,5.333 -41.667,5.333c-18.083,0 -37.5,-9.833 -50.541,-21.833c-1.146,-1.179 -2.467,-2.179 -3.917,-2.958c-5.167,-2.292 -10.292,1.958 -14.875,5.708l-1.542,1.25c-10.583,8.333 -24.75,10.083 -37.791,13.458c-13.042,3.375 -27.042,10.209 -31.084,23.084c-0.266,0.816 -0.475,1.654 -0.625,2.5c-2.375,11.833 4.834,24.458 15,31.375Z" style="fill-opacity:0.04;fill-rule:nonzero;"/><path d="M2444.81,2907.96c10.834,7.417 24.334,9.709 37.5,11.417c13.167,1.708 26.5,2.917 38.292,8.708c10.208,5.042 18.792,13.292 29.583,16.917c10.042,2.771 20.625,2.942 30.75,0.5c12.892,-2.742 24.225,-10.396 31.584,-21.333c5.833,-9.334 5.208,-21.125 4.416,-32.084c-0.958,-12.5 -1.833,-25 -2.75,-37.208c0.025,-3.154 -0.779,-6.258 -2.333,-9c-8.75,-12.792 -30.083,5.333 -41.667,5.333c-18.083,0 -37.5,-9.833 -50.541,-21.833c-1.146,-1.179 -2.467,-2.179 -3.917,-2.958c-5.167,-2.292 -10.292,1.958 -14.875,5.708c2.963,9.275 7.167,18.104 12.5,26.25c8.838,13.887 23.483,23.079 39.833,25c8.084,0.583 16.375,-1 24.209,1.083c7.833,2.084 15.083,10.084 12.5,17.667c-2.584,7.583 -12.292,9.042 -20.167,9.458c-10.996,1.263 -22.129,0.471 -32.833,-2.333c-6.417,-2.125 -12.5,-5.667 -18.5,-8.333c-26.542,-10.959 -60,-4.834 -81.875,-23.375c-2.08,-1.909 -4.321,-3.621 -6.709,-5.125c-5.75,12 4.834,28.625 15,35.541Z" style="fill:#e8eaf2;fill-rule:nonzero;"/><path d="M2444.81,2907.96c10.834,7.417 24.334,9.709 37.5,11.417c13.167,1.708 26.5,2.917 38.292,8.708c10.208,5.042 18.792,13.292 29.583,16.917c10.042,2.771 20.625,2.942 30.75,0.5c12.892,-2.742 24.225,-10.396 31.584,-21.333c5.833,-9.334 5.208,-21.125 4.416,-32.084c-0.958,-12.5 -1.833,-25 -2.75,-37.208c0.025,-3.154 -0.779,-6.258 -2.333,-9c-8.75,-12.792 -30.083,5.333 -41.667,5.333c-18.083,0 -37.5,-9.833 -50.541,-21.833c-1.146,-1.179 -2.467,-2.179 -3.917,-2.958c-5.167,-2.292 -10.292,1.958 -14.875,5.708c2.963,9.275 7.167,18.104 12.5,26.25c8.838,13.887 23.483,23.079 39.833,25c8.084,0.583 16.375,-1 24.209,1.083c7.833,2.084 15.083,10.084 12.5,17.667c-2.584,7.583 -12.292,9.042 -20.167,9.458c-10.996,1.263 -22.129,0.471 -32.833,-2.333c-6.417,-2.125 -12.5,-5.667 -18.5,-8.333c-26.542,-10.959 -60,-4.834 -81.875,-23.375c-2.08,-1.909 -4.321,-3.621 -6.709,-5.125c-5.75,12 4.834,28.625 15,35.541Z" style="fill-opacity:0.04;fill-rule:nonzero;"/><path d="M2732.43,2096.92c8.442,41.454 0.409,84.608 -22.375,120.25c-6.779,9.246 -12.837,18.995 -18.125,29.166c-3.066,7.459 -5.437,15.188 -7.083,23.084l-20.125,83.333c-5.458,22.5 -10.917,45.417 -9.292,68.458c1.167,16.084 5.209,34.167 -4.708,46.875c-2.392,2.471 -4.417,5.28 -6,8.334c-0.954,3.545 -0.954,7.287 0,10.833c10.167,60.458 17.708,123.667 -0.667,182.167c-16.666,53.041 -17.625,111.791 -31.791,165.5c-1.15,6.825 -4.2,13.196 -8.792,18.375c-3.8,3.171 -8.346,5.321 -13.208,6.25c-20.834,5 -42.917,-0.834 -62.5,-9.875c-13.667,-6.334 -28.417,-17.459 -27.25,-32.5c0.583,-7.125 4.75,-13.417 7.583,-20c5.583,-12.917 6,-27.375 7.5,-41.375c3.792,-35.125 14.625,-69.084 22.792,-103.459c8.166,-34.375 13.75,-70.291 6.833,-104.958c-14.146,-71.696 -36.821,-141.442 -67.542,-207.75c-1.329,-3.521 -3.437,-6.7 -6.166,-9.292c-3.142,-1.829 -6.125,-3.921 -8.917,-6.25c-2.188,-3.266 -3.613,-6.983 -4.167,-10.875c-3.041,-10.958 -12.083,-19.041 -18.166,-28.708c-15.334,-24.333 -10.459,-55.5 -9.875,-84.25c0.541,-27.917 -3.5,-56.125 1.083,-83.708c4.583,-27.584 20.375,-55.792 46.958,-64.417c13.167,-4.167 27.417,-3.292 41.209,-1.958c73.333,7.25 144.25,20.5 212.791,46.75Z" style="fill:#303d5c;fill-rule:nonzero;"/><path d="M2732.43,2096.92c8.442,41.454 0.409,84.608 -22.375,120.25c-6.779,9.246 -12.837,18.995 -18.125,29.166c-3.066,7.459 -5.437,15.188 -7.083,23.084l-20.125,83.333c-5.458,22.5 -10.917,45.417 -9.292,68.458c1.167,16.084 5.209,34.167 -4.708,46.875c-2.392,2.471 -4.417,5.28 -6,8.334c-0.954,3.545 -0.954,7.287 0,10.833c10.167,60.458 17.708,123.667 -0.667,182.167c-16.666,53.041 -17.625,111.791 -31.791,165.5c-1.15,6.825 -4.2,13.196 -8.792,18.375c-3.8,3.171 -8.346,5.321 -13.208,6.25c-20.834,5 -42.917,-0.834 -62.5,-9.875c-13.667,-6.334 -28.417,-17.459 -27.25,-32.5c0.583,-7.125 4.75,-13.417 7.583,-20c5.583,-12.917 6,-27.375 7.5,-41.375c3.792,-35.125 14.625,-69.084 22.792,-103.459c8.166,-34.375 13.75,-70.291 6.833,-104.958c-14.146,-71.696 -36.821,-141.442 -67.542,-207.75c-1.329,-3.521 -3.437,-6.7 -6.166,-9.292c-3.142,-1.829 -6.125,-3.921 -8.917,-6.25c-2.188,-3.266 -3.613,-6.983 -4.167,-10.875c-3.041,-10.958 -12.083,-19.041 -18.166,-28.708c-15.334,-24.333 -10.459,-55.5 -9.875,-84.25c0.541,-27.917 -3.5,-56.125 1.083,-83.708c4.583,-27.584 20.375,-55.792 46.958,-64.417c13.167,-4.167 27.417,-3.292 41.209,-1.958c73.333,7.25 144.25,20.5 212.791,46.75Z" style="fill-opacity:0.04;fill-rule:nonzero;"/><path d="M2435.06,2272.17c0.242,10.866 1.471,21.687 3.667,32.333c12.863,72.221 26.583,144.238 41.167,216.042c1.291,6.25 2.541,12.5 4.166,18.583c5.413,20.004 14.905,38.671 27.875,54.833c60.667,75.625 65.917,185.417 98.792,276.625c2.25,6.167 4.458,12.5 6.833,18.459c5.942,15.45 12.717,30.571 20.292,45.291c0.883,2.142 2.321,4.013 4.167,5.417c2.054,1.004 4.346,1.433 6.625,1.25c29.612,0.179 58.871,-6.467 85.5,-19.417c3.783,-1.429 6.983,-4.083 9.083,-7.541c1.008,-2.784 1.338,-5.771 0.958,-8.709c-0.916,-18.083 -2.041,-36.791 -10.666,-52.708c-5.638,-9.488 -12.663,-18.083 -20.834,-25.5c-1.962,-56.837 -8.933,-113.387 -20.833,-169c-6.375,-28.333 -14.292,-56.958 -30.75,-80.917c-12.125,-17.666 -29.542,-35.125 -27.417,-56.458c0.959,-9.375 4.875,-21.042 -2.75,-26.542c-3.333,-2.416 -8.333,-2.708 -10.5,-6.166c-0.916,-1.617 -1.416,-3.434 -1.458,-5.292c-1.575,-14.629 -0.675,-29.421 2.667,-43.75c2.791,-9.362 4.975,-18.896 6.541,-28.542c1.505,-9.77 -1.091,-19.741 -7.166,-27.541c-0.417,-19.5 0,-39.709 -0.25,-59.167c-0.775,-11.075 0.137,-22.2 2.708,-33c1.5,-5.083 3.75,-9.958 4.875,-15.167c4.167,-18.708 -6.083,-41.125 6,-55.958c5.042,-6.125 12.833,-9.208 19.417,-13.667c12.941,-9.416 22.337,-22.925 26.666,-38.333c4.271,-15.304 6.8,-31.046 7.542,-46.917c0.354,-3.366 0.354,-6.758 0,-10.125c-0.233,-1.733 -0.696,-3.429 -1.375,-5.041c-3.75,-8.334 -13.875,-11.75 -22.875,-13.917c-57.179,-13.7 -115.787,-20.554 -174.583,-20.417c-21.75,-14.791 -34,-9.5 -43.209,6.209c-5.1,9.558 -9.216,19.612 -12.291,30c-4.167,12.75 -4.459,83.958 -8.584,96.75c-5.208,16.625 10.209,50.583 10,68Z" style="fill:#303d5c;fill-rule:nonzero;"/><path d="M2828.35,1624.08c1.583,11.209 -3.792,22.209 -4.167,33.334c-0.541,9.916 2.625,19.541 4.417,29.166c7,37.959 -6.458,76.417 -20.208,112.5c-2.609,5.859 -4.225,12.113 -4.792,18.5c-0.375,11.792 6.417,22.584 8.333,34.209c3.875,24.458 -14.166,47.458 -14.541,72.208c0,11.417 3.416,23 0.583,34.042c-2.6,7.15 -5.867,14.041 -9.75,20.583c-5.792,12.167 -7.333,26 -12.875,38.292c-9.958,22.25 -31.375,36.75 -51.792,50c-11.583,-3.875 -24.125,-8.334 -30.5,-18.875c-2.808,-5.171 -4.616,-10.825 -5.333,-16.667c-4.417,-25.333 -4.167,-51.208 -4.167,-76.917c-0.379,-22.108 0.792,-44.221 3.5,-66.166c4.167,-27.959 13.209,-54.875 19.709,-82.334c8.333,-34.666 12.5,-70.458 25,-103.708c11.208,-29.167 28.708,-55.417 47.083,-80.5c7.042,-9.583 12.5,-23.292 26.208,-21.083c11.917,2.07 21.284,11.491 23.292,23.416Z" style="fill:#3f3d56;fill-rule:nonzero;"/><path d="M2828.35,1624.08c1.583,11.209 -3.792,22.209 -4.167,33.334c-0.541,9.916 2.625,19.541 4.417,29.166c7,37.959 -6.458,76.417 -20.208,112.5c-2.609,5.859 -4.225,12.113 -4.792,18.5c-0.375,11.792 6.417,22.584 8.333,34.209c3.875,24.458 -14.166,47.458 -14.541,72.208c0,11.417 3.416,23 0.583,34.042c-2.6,7.15 -5.867,14.041 -9.75,20.583c-5.792,12.167 -7.333,26 -12.875,38.292c-9.958,22.25 -31.375,36.75 -51.792,50c-11.583,-3.875 -24.125,-8.334 -30.5,-18.875c-2.808,-5.171 -4.616,-10.825 -5.333,-16.667c-4.417,-25.333 -4.167,-51.208 -4.167,-76.917c-0.379,-22.108 0.792,-44.221 3.5,-66.166c4.167,-27.959 13.209,-54.875 19.709,-82.334c8.333,-34.666 12.5,-70.458 25,-103.708c11.208,-29.167 28.708,-55.417 47.083,-80.5c7.042,-9.583 12.5,-23.292 26.208,-21.083c11.917,2.07 21.284,11.491 23.292,23.416Z" style="fill-opacity:0.04;fill-rule:nonzero;"/><path d="M2532.22,1379.75c8.992,14.458 16.433,29.821 22.208,45.833c8.25,2.03 16.713,3.05 25.209,3.042c33,0 56.375,-18.75 75.75,-42.458c1.666,-7.625 12.125,-14.709 10.958,-20.834c-1.542,-7.916 -9,-6.333 -15.708,-5.875c-20.488,1.538 -40.875,4.167 -61.084,7.875c-5.291,0.959 -56.583,13.75 -57.333,12.417Z" style="fill-opacity:0.09;fill-rule:nonzero;"/><circle cx="2579.64" cy="1320" r="105.708" style="fill:#ee8e9e;"/><path d="M2445.93,2077.42c18.292,-1.084 36.709,-0.375 55.084,0.375c11.487,0.12 22.937,1.291 34.208,3.5c13.875,3.166 26.875,9.5 40.542,13.458c21.958,6.375 45.083,6.667 67.791,8.875c14.925,1.467 29.759,3.787 44.417,6.958c-0.233,-1.733 -0.696,-3.429 -1.375,-5.041c-3.75,-8.334 -13.875,-11.75 -22.875,-13.917c-57.179,-13.7 -115.787,-20.554 -174.583,-20.417c-21.625,-14.791 -33.875,-9.625 -43.209,6.209Z" style="fill-opacity:0.09;fill-rule:nonzero;"/><path d="M2518.1,1493.04c4.625,5.333 10.792,11.208 17.625,9.5c2.471,-0.867 4.792,-2.121 6.875,-3.709c12.167,-7.833 27.125,-9.666 41.458,-11.833c28.905,-4.371 57.463,-10.787 85.459,-19.208c8.112,-2.954 16.625,-4.684 25.25,-5.125c17.916,0 33.791,12 45.041,25.958c11.25,13.958 19.167,30.292 30.209,44.417c7.833,10.083 17.166,18.958 24.5,29.416c18.541,26.375 22.5,60.792 17.708,92.667c-4.792,31.875 -17.5,61.917 -30.125,91.667c-6.725,17.229 -14.954,33.833 -24.583,49.625c4.166,24.208 2,51.916 -9.5,73.625c-3.75,7.083 -8.334,13.958 -9.584,21.875c-0.57,5.35 -0.345,10.758 0.667,16.041l5.375,38.292c1.625,11.667 3.25,23.333 5.375,34.875c3.875,21.208 9.167,44.208 -0.667,63.375c-11.75,22.958 0.625,52.375 -2.5,78c-33.066,-12.783 -67.716,-21.012 -103,-24.458c-22.708,-2.25 -45.833,-2.542 -67.791,-8.917c-13.667,-4.167 -26.667,-10.292 -40.542,-13.458c-11.271,-2.209 -22.721,-3.379 -34.208,-3.5c-25.334,-1 -50.834,-2.042 -75.917,1.708c-2.042,0.292 -4.5,0.458 -5.708,-1.167c-0.55,-0.9 -0.825,-1.945 -0.792,-3c-0.375,-9.4 1.875,-18.72 6.5,-26.916c3.208,-5.625 7.625,-11.167 7.5,-17.667c-0.221,-3.021 -0.967,-5.983 -2.208,-8.75l-11.084,-29.792c-9.375,-25 -4.916,-54.166 -9.791,-80.333c-3.805,-20.537 -6.238,-41.304 -7.292,-62.167c-0.917,-17.833 -0.375,-37.125 10.417,-51.375c3.212,-3.425 6.008,-7.212 8.333,-11.291c1.517,-4.329 2.167,-8.917 1.917,-13.5c0.25,-35.667 -0.721,-71.321 -2.917,-106.959c9.375,-16.666 19.125,-34.083 28.542,-50.916c10.916,-19.625 21.958,-39.625 26.375,-61.625c2.916,-14.584 2.833,-29.542 4.916,-44.25c-0.008,-0.175 -0.008,-0.354 -0.008,-0.529c0,-8.138 6.696,-14.834 14.833,-14.834c1.325,0 2.646,0.179 3.925,0.529c6.621,0.25 13.171,1.5 19.417,3.709Z" style="fill:#3f3d56;fill-rule:nonzero;"/><path d="M2131.06,1429.54c6.659,5.112 14.58,8.325 22.917,9.291c10.875,0.75 34.042,-5.666 40.833,-15c2.842,-4.695 4.192,-10.145 3.875,-15.625c-1.466,-0.495 -2.996,-0.787 -4.541,-0.875c-11.821,-1.345 -23.784,-0.87 -35.459,1.417c-11.871,2.379 -22.025,10.058 -27.541,20.833c-5.517,10.775 -0.042,-0.083 -0.084,-0.041Z" style="fill-opacity:0.09;fill-rule:nonzero;"/><path d="M2482.81,1658.17c-6.458,8 -13.166,16.25 -22.291,20.833c-10.5,5.458 -22.875,5.583 -34.709,5.333c-48.708,-1.037 -97.229,-6.379 -145,-15.958c-5.433,-0.904 -10.775,-2.296 -15.958,-4.167c-5.75,-2.741 -11.175,-6.125 -16.167,-10.083c-15.708,-11.292 -31.666,-22.833 -43.625,-38.083c-14.191,-18.375 -23.108,-40.275 -25.791,-63.334c-11.375,-10.5 -17.417,-25.375 -23.084,-39.75c-2.837,-6.1 -4.625,-12.637 -5.291,-19.333c-0.292,-6.833 4.166,-14 2.958,-20.833c-2.171,-11.584 -8.017,-22.163 -16.667,-30.167c-1.916,-1.275 -3.379,-3.129 -4.166,-5.292c-0.246,-1.779 0.091,-3.591 0.958,-5.166c5.546,-10.75 15.688,-18.421 27.542,-20.834c11.691,-2.266 23.662,-2.741 35.5,-1.416c3.929,0.741 7.804,1.775 11.583,3.083l8.333,21.75c1.096,3.658 2.942,7.05 5.417,9.958c1.825,1.675 3.775,3.209 5.833,4.584c8.467,7.187 12.842,18.12 11.667,29.166c15.425,5.984 23.642,23.15 18.625,38.917c12.625,2.713 22.962,11.821 27.25,24c0.6,2.729 1.829,5.283 3.583,7.458c2.717,2.08 6.084,3.129 9.5,2.959c9.334,0.541 17.5,7.916 26,3.916c9.621,-4.462 20.371,-5.912 30.834,-4.166c2.158,0.483 4.37,0.679 6.583,0.583c1.892,-0.333 3.721,-0.967 5.417,-1.875c3.808,-2.233 7.941,-3.863 12.25,-4.833c4.404,-0.917 8.954,0.854 11.583,4.5c3,-3.25 4.75,-7.417 7.458,-10.917c2.442,-3.754 6.796,-5.833 11.25,-5.375c-2.791,-2.5 0,-7.5 3.75,-8.333c3.754,-0.275 7.525,-0.134 11.25,0.416c9.75,0 17.25,-8.916 26.75,-11.25c8.75,-2.125 20.375,0.417 25,-7.375c1.584,-2.75 1.917,-6.5 4.625,-8.333c1.817,-0.913 3.9,-1.146 5.875,-0.667c6.209,0.792 12.238,2.621 17.834,5.417c9.166,35.792 4.166,72.958 -2.625,109.292c-2.559,16.591 -9.392,32.229 -19.834,45.375Z" style="fill:#3f3d56;fill-rule:nonzero;"/><path d="M2483.06,1786.58l45.542,91.667c-4.917,-8.333 -15.292,-11.792 -23.5,-17.208c-10.404,-7.509 -18.246,-18.046 -22.458,-30.167c-4.134,-12.075 -7.009,-24.542 -8.584,-37.208c-0.916,-5.834 -2.875,-14 0,-19.25c5.209,1.083 6.875,7.75 9,12.166Z" style="fill-opacity:0.09;fill-rule:nonzero;"/><path d="M2614.06,1864.42c10.292,10.166 22.834,17.625 34.167,26.625c26.375,20.833 45.208,50 63.583,78.208c5.2,7.379 9.563,15.317 13,23.667c-2.166,1.833 -5.375,0 -7.5,-1.959l-35.75,-31.416c-4.391,-3.58 -8.383,-7.613 -11.916,-12.042c-6.209,-8.333 -8.959,-18.792 -14.584,-27.542c-6.145,-8.396 -13.475,-15.862 -21.75,-22.166c-8.333,-7.042 -45.833,-38.917 -36.75,-51.334c6.667,3.375 12.084,12.584 17.5,17.959Z" style="fill-opacity:0.09;fill-rule:nonzero;"/><path d="M2535.97,1466.5c11.721,-6.487 24.554,-10.729 37.833,-12.5c7.88,-1.792 15.988,-2.371 24.042,-1.708c7.458,0.916 14.583,3.791 22.083,4.166c10.5,0.584 20.584,-3.666 30.75,-6.458c10.167,-2.792 21.875,-3.833 30.417,2.292c1.813,1.804 4.117,3.033 6.625,3.541c2.596,-0.316 5.004,-1.508 6.833,-3.375c14.767,-10.566 35.059,-9.491 48.625,2.584c19.375,18.166 17.209,53.666 39.917,67.458c6.25,3.792 14.25,5.792 17.917,12.167c0.921,2.112 2.008,4.146 3.25,6.083c1.525,1.663 3.383,2.983 5.458,3.875c6.596,2.958 12.879,6.571 18.75,10.792c5.896,4.291 9.779,10.816 10.75,18.041c0.092,5.255 -1.038,10.463 -3.292,15.209c-22.754,55.716 -78.421,91.308 -138.541,88.583c-5.217,0.254 -10.359,-1.358 -14.5,-4.542c-2.175,-2.454 -3.896,-5.275 -5.084,-8.333c-10.708,-22.375 -30.75,-38.917 -43.5,-60.208c-7.583,-12.709 -12.5,-26.875 -20.333,-39.375c-12,-18.959 -30.208,-32.959 -48.042,-46.5c-10.041,-7.667 -21.25,-15.709 -33.875,-15.167c-11.25,0.458 -19.458,1.083 -15.333,-12.75c3.375,-9.992 10.2,-18.458 19.25,-23.875Z" style="fill:#3f3d56;fill-rule:nonzero;"/><path d="M2535.97,1466.5c11.721,-6.487 24.554,-10.729 37.833,-12.5c7.88,-1.792 15.988,-2.371 24.042,-1.708c7.458,0.916 14.583,3.791 22.083,4.166c10.5,0.584 20.584,-3.666 30.75,-6.458c10.167,-2.792 21.875,-3.833 30.417,2.292c1.813,1.804 4.117,3.033 6.625,3.541c2.596,-0.316 5.004,-1.508 6.833,-3.375c14.767,-10.566 35.059,-9.491 48.625,2.584c19.375,18.166 17.209,53.666 39.917,67.458c6.25,3.792 14.25,5.792 17.917,12.167c0.921,2.112 2.008,4.146 3.25,6.083c1.525,1.663 3.383,2.983 5.458,3.875c6.596,2.958 12.879,6.571 18.75,10.792c5.896,4.291 9.779,10.816 10.75,18.041c0.092,5.255 -1.038,10.463 -3.292,15.209c-22.754,55.716 -78.421,91.308 -138.541,88.583c-5.217,0.254 -10.359,-1.358 -14.5,-4.542c-2.175,-2.454 -3.896,-5.275 -5.084,-8.333c-10.708,-22.375 -30.75,-38.917 -43.5,-60.208c-7.583,-12.709 -12.5,-26.875 -20.333,-39.375c-12,-18.959 -30.208,-32.959 -48.042,-46.5c-10.041,-7.667 -21.25,-15.709 -33.875,-15.167c-11.25,0.458 -19.458,1.083 -15.333,-12.75c3.375,-9.992 10.2,-18.458 19.25,-23.875Z" style="fill-opacity:0.04;fill-rule:nonzero;"/><path d="M2480.93,2998.71c7.667,7.167 18.209,10.292 28.417,12.5c23.379,4.567 47.046,7.492 70.833,8.75l23.084,1.75c22.541,1.709 45.125,3.459 67.791,3.542c27.938,0.104 55.83,-2.308 83.334,-7.208c0.237,0.025 0.471,0.037 0.708,0.037c3.863,0 7.042,-3.179 7.042,-7.041c0,-0.446 -0.042,-0.892 -0.125,-1.33c-0.492,-28.154 -3.925,-56.183 -10.25,-83.625c-2.625,-11.291 -22.834,14 -23.75,15.042c-4.229,5.983 -11.05,9.621 -18.375,9.792c-23.25,1.25 -49.292,-12.875 -67.792,-25.459c-3.942,-2.937 -8.125,-5.545 -12.5,-7.791c-3.229,-1.45 -6.654,-2.417 -10.167,-2.875c-11.962,-1.129 -24,1.308 -34.583,7c-13.875,6.875 -26.083,16.666 -39.833,23.875c-11.179,5.754 -23.254,9.571 -35.709,11.291c-12.5,1.75 -27.583,2.584 -34.041,13.459c-5.542,9 -1.709,21.166 5.916,28.291Z" style="fill:#3f3d56;fill-rule:nonzero;"/><path d="M2480.93,3002.88c7.667,7.167 18.209,10.292 28.417,12.5c23.379,4.567 47.046,7.492 70.833,8.75l23.084,1.75c22.541,1.708 45.125,3.458 67.791,3.542c27.938,0.104 55.83,-2.309 83.334,-7.209c2.55,-0.087 4.954,-1.233 6.625,-3.166c2.175,-2.884 3.916,-6.071 5.166,-9.459c-0.5,-28.125 -8.083,-56.208 -14.416,-83.625c-2.625,-11.291 -22.834,14 -23.75,15.042c-4.229,5.983 -11.05,9.621 -18.375,9.792c-23.25,1.25 -49.292,-12.875 -67.792,-25.459c-3.942,-2.937 -8.125,-5.545 -12.5,-7.791c-3.229,-1.45 -6.654,-2.417 -10.167,-2.875c3,16.666 27,36.916 39.375,43.083c25,12.5 54.834,6.25 82.792,7.708c2.054,-0.087 4.088,0.405 5.875,1.417c3.333,2.208 3.542,6.958 3.458,10.958c-0.25,6.667 -1.083,14.5 -6.875,17.917c-2.9,1.375 -6.087,2.033 -9.291,1.917c-68.888,3.004 -137.909,0.579 -206.417,-7.25c-11.525,-0.746 -22.867,-3.263 -33.625,-7.459c-7.033,-3.27 -13.592,-7.475 -19.5,-12.5c-9,6.834 -1.667,25.292 5.958,32.417Z" style="fill:#e8eaf2;fill-rule:nonzero;"/><path d="M2538.52,1318.83c0.375,10.917 -7.084,32.125 13.375,26.209c12.166,-3.5 15.625,-17.959 31.083,-14.75c15.458,3.208 19,22.291 24.25,34.75c8.683,20.075 26.713,34.645 48.167,38.916c4.37,1.042 8.921,1.042 13.291,0c9.959,-2.833 15.625,-13.125 19.709,-22.666c3.529,-8.109 6.454,-16.463 8.75,-25c1.575,-5.984 2.633,-12.088 3.166,-18.25c0.325,-4.159 0.325,-8.342 0,-12.5c-1.833,-25 -16,-47.542 -34.125,-64.667c-18.125,-17.125 -40.083,-29.5 -61.833,-41.667c-7.092,-4.416 -14.762,-7.825 -22.792,-10.125c-7.92,-1.625 -16.054,-1.962 -24.083,-1c-10.571,0.446 -20.962,2.892 -30.625,7.209c-3.963,1.945 -7.604,4.487 -10.792,7.541c-4.529,4.217 -7.766,9.638 -9.333,15.625c-3.917,16.042 6.292,30.5 14.625,43.209c7.458,11.125 16.625,23.083 17.167,37.166Z" style="fill:#3f3d56;fill-rule:nonzero;"/><path d="M2194.52,1553.46c4.375,-11.041 22.708,-41.458 17.416,-51.958c-5.508,7.833 -10.2,16.208 -14,25c-3.458,8.5 -0.625,19.917 -3.416,26.958Z" style="fill-opacity:0.09;fill-rule:nonzero;"/><path d="M2520.93,1281.54c-8.333,-12.709 -18.583,-27.167 -14.666,-43.25c1.941,-7.063 6.125,-13.309 11.916,-17.792c-1.337,2.354 -2.362,4.875 -3.041,7.5c-3.917,16.083 6.333,30.542 14.666,43.25c7.417,11.25 16.667,23.25 17.084,37.292c0.416,10.916 -7.042,32.166 13.416,26.208c12.167,-3.5 15.625,-17.958 31.084,-14.75c15.458,3.208 19,22.25 24.25,34.75c8.683,20.075 26.712,34.646 48.166,38.917c4.355,1.041 8.896,1.041 13.25,0c2.284,-0.575 4.446,-1.567 6.375,-2.917c-3.095,6.254 -8.533,11.046 -15.125,13.333c-4.354,1.042 -8.895,1.042 -13.25,0c-21.454,-4.271 -39.483,-18.841 -48.166,-38.916c-5.25,-12.5 -8.667,-31.459 -24.25,-34.75c-15.584,-3.292 -18.917,11.25 -31.084,14.75c-20.458,5.958 -13,-15.292 -13.416,-26.209c-0.542,-14.166 -9.792,-26.166 -17.209,-37.416Z" style="fill-opacity:0.09;fill-rule:nonzero;"/><path d="M2516.39,1259.83c1.925,3.092 4.025,6.067 6.291,8.917c4.321,5.458 9.163,10.483 14.459,15c3.121,2.704 6.375,5.25 9.75,7.625c6.312,4.463 12.954,8.433 19.875,11.875c20.291,9.488 41.425,17.063 63.125,22.625l42.208,12.292c5.208,3.916 14.667,11 25,18.291c1.575,-5.983 2.633,-12.087 3.167,-18.25c0.325,-4.158 0.325,-8.341 0,-12.5c-1.834,-25 -16,-47.541 -34.125,-64.666c-18.125,-17.125 -40.084,-29.5 -61.834,-41.667c-7.091,-4.417 -14.762,-7.825 -22.791,-10.125c-7.921,-1.625 -16.055,-1.962 -24.084,-1c-10.571,0.446 -20.962,2.892 -30.625,7.208c-3.962,1.946 -7.604,4.488 -10.791,7.542c-2.38,3.521 -4.205,7.383 -5.417,11.458c-2.583,8.375 1.083,17.667 5.792,25.375Z" style="fill-opacity:0.09;fill-rule:nonzero;"/><path d="M2516.39,1256.96c1.925,3.105 4.025,6.096 6.291,8.959c4.309,5.454 9.155,10.466 14.459,14.958c3.108,2.729 6.362,5.292 9.75,7.667c6.325,4.416 12.966,8.358 19.875,11.791c20.3,9.471 41.433,17.042 63.125,22.625l42.208,12.292c14.75,11.125 64.042,47.625 72.333,43.083c9.75,-5.375 -43.75,-43.25 -43.75,-43.25l-2.458,1.875c7.833,-4.958 11.917,-16.375 13.708,-26.25c3.784,-17.616 3.925,-35.825 0.417,-53.5c-4.167,-17.458 -14.708,-34.083 -30.708,-42.25c-7.084,-3.666 -15.667,-6.125 -20.834,-11.75c-0.783,-0.821 -1.47,-1.729 -2.041,-2.708c-0.288,-0.471 -0.555,-0.958 -0.792,-1.458c-0.546,-1.555 -1.304,-3.025 -2.25,-4.375c-2.917,-3.375 -8.333,-2.334 -12.5,-1.792l-1.458,0l-2.375,0c-15.875,0.333 -31.25,-8.333 -47.292,-8.333c-17.583,0 -32.583,10.166 -48.042,17.125l-8.875,4.166c-11.208,5.209 -19.625,10.75 -24.25,25.584c-2.916,8.541 0.75,17.875 5.459,25.541Z" style="fill:#303d5c;fill-rule:nonzero;"/><path d="M2639.14,1193.12c-0.621,1.096 -0.963,2.325 -1,3.583c0.008,2.188 0.987,4.267 2.666,5.667c1.946,1.417 4.263,2.242 6.667,2.375c1.725,0.246 3.467,0.383 5.208,0.417c2.338,0.183 4.688,-0.217 6.834,-1.167c0.416,-0.237 0.82,-0.504 1.208,-0.792c-0.783,-0.82 -1.471,-1.729 -2.042,-2.708c-0.375,0.292 -0.791,0.208 -2.375,0c-2.821,-0.158 -5.616,-0.633 -8.333,-1.417c-1.146,-0.333 -2.229,-0.854 -3.208,-1.541c-1.43,-1.225 -2.484,-2.829 -3.042,-4.625l-2.583,0.208Z" style="fill-opacity:0.09;fill-rule:nonzero;"/><path d="M2699.52,1334.67c-2.246,1.371 -4.738,2.291 -7.334,2.708c-6.595,1.921 -13.712,0.854 -19.458,-2.917" style="fill-opacity:0.09;fill-rule:nonzero;"/><path d="M930.517,1693.54c-7,-46.875 -49.542,-156.167 -49.542,-156.167c-0.75,-3.292 -1.583,-6.5 -2.542,-9.75c-30.208,-103.833 -72.041,-113.042 -72.041,-113.042l-149.75,-31.916c1.2,0.791 2.241,1.795 3.083,2.958l-2.375,0.375c-6.858,-8.096 -11.396,-17.904 -13.125,-28.375c-0.292,-1.542 -0.542,-3.167 -0.75,-4.792c20.321,-19.816 31.796,-47.029 31.796,-75.412c0,-32.354 -14.908,-62.967 -40.379,-82.921c-1.542,-1.208 -3.125,-2.417 -4.792,-3.542c7.083,-7.5 7.292,-17.958 2.042,-28.375c-11.834,-24.541 -37.5,-40.041 -63.834,-47.583c-20.166,-5.792 -42.041,-7.667 -62,-1.333c-11.187,4.15 -22.025,9.179 -32.416,15.041c-19.917,9.959 -41.667,17.792 -56.792,34.125c-3.929,3.429 -6.029,8.509 -5.667,13.709c1.35,3.591 3.246,6.95 5.625,9.958c4.167,7.458 3.167,16.667 0.292,25c-2.875,8.333 -7.208,15.667 -9.25,24c-2.042,8.333 -1.25,18.125 5,24.083c3.004,2.371 6.133,4.584 9.375,6.625c3.421,2.909 6.421,6.271 8.917,10l17.75,23.959c8.312,10.629 15.729,21.933 22.166,33.791c3.809,8.975 8.409,17.592 13.75,25.75c1.73,2.275 3.717,4.342 5.917,6.167l-1.75,-0.667c5.279,5.154 12.458,7.917 19.833,7.625l0.917,0c1.333,-0.025 2.613,-0.546 3.583,-1.458l0,3.25c0.334,11.542 0.25,23.792 -0.541,35.292l-1.375,-0.709c-4.192,-2.121 -9.263,-1.579 -12.917,1.375l-137.958,110.625c0,0 -30,41.042 -25.792,111.792l-24.167,106.167c0,0 -30.25,90.083 -7,154.416c23.25,64.334 36.709,101.125 36.709,101.125c0,0 9.333,73.084 23.25,79.167c13.916,6.083 20,9.208 20,9.208l2.791,17.459c0,0 0.917,1.708 2.542,4.583c10.167,17.667 47.792,80 69.667,73.333c2.729,16.925 3.916,34.067 3.541,51.209l21.625,145.25c0,0 15.084,39.5 14.167,60.208c-0.917,20.708 17.667,50 17.667,50c-11.279,20.621 -14.588,44.683 -9.292,67.583c8.833,38.584 20,216.917 20,216.917l16.25,43.208l-0.458,50.625c-1.346,8.209 -4.792,15.929 -10,22.417c-10.459,11.375 -9.75,24.5 -34.875,40c-25.125,15.5 -41.125,21.375 -41.125,42.042c-0.034,2.791 -0.284,5.579 -0.75,8.333c-2.334,15.083 -6.875,23.25 39.458,27.667c33.063,2.641 65.813,-8.321 90.625,-30.334c24.813,-22.012 8.042,-14.5 45.833,-20.333c0,0 12.875,-0.708 13.584,-12.083c0.25,-3.917 0,-11.459 0,-19.709c-0.625,-15.791 -2.125,-34.166 -4.167,-35.083c-2.042,-0.917 -6.917,-17 -8.333,-22.75l10.458,0c0,0 9.792,-73.083 0,-120.417c-9.792,-47.333 -0.917,-80.875 -0.917,-80.875l-1.875,-125c0,0 -13,-13.791 -2.791,-38.166c10.208,-24.375 0,-144.792 0,-144.792c0,0 3.75,-43.167 14.416,-53.292c10.667,-10.125 0.542,-63.291 0,-66.083l19.042,63.792c0,0 8.333,126.833 26.042,150l5.083,57.416c0,0 36.25,52.875 29.167,81.375c-7.084,28.5 7.458,131.417 7.458,131.417l0,105.083c0,0 -16.292,42.25 6.5,57.417l9.792,-0.375c-3.334,3 -5.709,7.542 -9.459,11.417c-4.375,4.5 -6.833,21.541 -8.333,36.208c-1.167,12.5 -1.542,23.083 -1.542,23.083c6.359,9.425 16.605,15.542 27.917,16.667c18.125,1.042 78.083,46.875 78.083,46.875c0,0 59.292,0 74.625,-3.083l0.875,-0.25c4.938,-1.538 9.092,-4.93 11.584,-9.459c3.108,-5.208 4.108,-11.412 2.791,-17.333c-1.875,-9.083 -9.083,-19 -25,-27.458c-39.791,-20.834 -45.833,-40.625 -45.833,-40.625l-25.833,-38.917l3.708,0c0,0 -2.333,-41.375 26,-87.792l-1.875,-204.833c0,0 11.625,-70.333 -8.333,-108.333c0,0 -1.625,-40.417 11.708,-52.834c13.333,-12.416 -17.75,-137.875 -17.75,-137.875c0,0 -6.375,-67.333 -14.042,-128.791c31.375,29.75 63.959,-77.417 69.417,-96.459l0.792,0l-0.375,-1.375l0.375,-1.375c0,0 -6.959,-25 -1.875,-19.75c5.083,5.25 17.666,-13.791 17.666,-13.791c0,0 -1.833,-102.5 20,-154.167c21.834,-51.667 -9.666,-177.333 -9.666,-177.333Zm-93.459,65.208l0,-0.292c3.25,62.5 -0.625,196.125 -0.625,196.125c0,0 -4.166,17.125 -8.916,37.292l-3.292,-126.875l-3.125,-119.5l15.958,13.25Zm-400,-43.125c0,0 15.792,197.625 0,226.125c-4.5,8.083 -8.333,22.542 -11.416,39.042c-5.209,-13.709 -16.25,-45.834 -12.5,-62.959c5.083,-22.041 -10.25,-79.958 -10.25,-81.333c0,-1.375 -1.375,-32.167 9.791,-55.875c11.167,-23.708 3.709,-33.75 3.709,-33.75c0,0 9.333,-38.625 20.5,-31.125l0.166,-0.125Z" style="fill:url(#_Linear2);fill-rule:nonzero;"/><path d="M475.35,2160.67c-13.75,60.5 -68.5,-31 -80.958,-52.917c-1.625,-2.875 -2.542,-4.583 -2.542,-4.583l5.958,-27.834l31.375,-12.75c4.963,2.588 9.663,5.642 14.042,9.125c17.167,13.417 42.75,42.084 32.125,88.959Z" style="fill:#a1616a;fill-rule:nonzero;"/><path d="M900.1,2061.58c0,0 0,0.459 -0.333,1.334l-0.459,1.5c-5.333,18.875 -37.291,125.25 -68.083,95.833c-33.75,-32.375 -17.333,-106.792 -17.333,-106.792l0.208,0l70.833,-7.291l14.042,14.458l1.125,0.958Z" style="fill:#a1616a;fill-rule:nonzero;"/><path d="M859.017,2584.92l1.791,203c-27.791,46.083 -25.5,87.166 -25.5,87.166l-91.666,3.625c-22.375,-15.041 -6.375,-57 -6.375,-57l0,-104.5c0,0 -14.167,-102.166 -7.334,-130.458c6.834,-28.292 -28.708,-80.75 -28.708,-80.75l-5.083,-56.917c-17.334,-22.791 -25.542,-148.708 -25.542,-148.708l-18.667,-63.292c0.5,2.75 10.167,55.792 0,65.584c-10.166,9.791 -14.125,52.916 -14.125,52.916c0,0 10.042,119.5 0,143.709c-10.041,24.208 2.709,37.875 2.709,37.875l1.833,124.083c0,0 -8.667,33.333 0.917,80.25c9.583,46.917 0,119.542 0,119.542l-98.584,0l0.459,-50.625l-15.875,-43.042c0,0 -10.959,-176.958 -19.625,-215.292c-5.209,-22.708 -1.963,-46.554 9.125,-67.041c11.087,-20.488 -18.25,-29.167 -17.334,-49.75c0.917,-20.584 -13.833,-59.75 -13.833,-59.75l-21.208,-144.167c0.562,-27.808 -3.034,-55.546 -10.667,-82.292c-12.5,-41.041 -30.542,-94.875 -30.542,-94.875l20.584,1.834l103.958,9.25c0,0 252.708,-17 264.042,-2.875c2.391,4.604 3.996,9.575 4.75,14.708c11.333,51 26.333,210.667 26.333,210.667c0,0 30.583,124.541 17.458,136.833c-13.125,12.292 -11.5,52.458 -11.5,52.458c19.584,38.042 8.209,107.834 8.209,107.834Z" style="fill:#3f3d56;fill-rule:nonzero;"/><path d="M645.392,2937.88c-0.709,11.333 -13.334,12 -13.334,12c-36.958,5.792 -44.833,20.208 -44.833,20.208c-24.267,21.792 -56.446,32.688 -88.958,30.125c-45.459,-4.416 -41,-12.5 -38.709,-27.5c0.471,-2.754 0.721,-5.541 0.75,-8.333c0,-20.542 15.709,-26.375 40.375,-41.667c24.667,-15.291 23.917,-28.416 34.209,-39.666c10.291,-11.25 11.291,-33.334 11.291,-33.334c11.625,-20.166 41.042,3.084 41.042,3.084c1.375,7.166 45.167,6.166 45.167,6.166c0,0 5.833,23.25 8.791,24.625c2,0.917 3.459,19.167 4.167,34.834c0.208,8.125 0.292,15.583 0.042,19.458Z" style="fill:#303d5c;fill-rule:nonzero;"/><path d="M645.392,2937.88c-0.709,11.333 -13.334,12 -13.334,12c-36.958,5.792 -44.833,20.208 -44.833,20.208c-24.267,21.792 -56.446,32.688 -88.958,30.125c-45.459,-4.416 -41,-12.5 -38.709,-27.5c20.292,5.042 59.167,12.084 81.792,-0.25c31.5,-17.083 54.167,-29.166 54.167,-29.166l50,-25c0.041,8.25 0.125,15.708 -0.125,19.583Z" style="fill-opacity:0.09;fill-rule:nonzero;"/><path d="M923.85,2998.79c-2.458,4.458 -6.529,7.812 -11.375,9.375l-0.875,0.25c-15.042,3.041 -73.25,3.041 -73.25,3.041c0,0 -58.833,-45.5 -76.625,-46.541c-11.108,-1.121 -21.154,-7.146 -27.375,-16.417c-6.221,-9.271 0.333,-10.583 1.5,-22.917c1.375,-14.541 3.792,-31.458 8.083,-35.916c7.875,-8.334 9.584,-19.5 27.375,-12.5c0,0 25.292,-44.542 55.042,-10.125l30.833,46.75c0,0 5.792,19.5 44.834,40.375c15.625,8.333 22.708,18.208 24.541,27.208c1.321,5.938 0.355,12.163 -2.708,17.417Z" style="fill:#303d5c;fill-rule:nonzero;"/><path d="M923.85,2998.79c-3.5,2.916 -7.333,6.125 -11.375,9.375l-0.875,0.25c-15.042,3.041 -73.25,3.041 -73.25,3.041c0,0 -58.833,-45.5 -76.625,-46.541c-11.108,-1.121 -21.154,-7.146 -27.375,-16.417c-6.221,-9.271 0.333,-10.583 1.5,-22.917c18.083,5.459 45.542,15 52.917,25.334c11.25,15.708 45.541,37.5 45.541,37.5c0,0 63.875,-6.125 92.25,-7c1.313,5.925 0.342,12.129 -2.708,17.375Z" style="fill-opacity:0.09;fill-rule:nonzero;"/><path d="M675.1,1406.79l-84.125,88.958c0,0 -101.958,-7.542 -84.167,-37.5c9.084,-15.333 10.5,-47.458 9.709,-75.375c-0.75,-26.917 -3.542,-50 -3.542,-50c0,0 143.042,-71.292 132.083,-4.625c-2.341,12.517 -2.483,25.35 -0.416,37.917c6.25,33.333 30.458,40.625 30.458,40.625Z" style="fill:#a1616a;fill-rule:nonzero;"/><path d="M645.058,1328.25c-2.341,12.517 -2.483,25.35 -0.416,37.917c-19.084,19.291 -45.584,15.041 -75,15.041c-19.417,0 -40.25,0.292 -55.875,-8.916c-0.75,-26.959 -0.917,-39.25 -0.917,-39.25c0,0 143.167,-71.459 132.208,-4.792Z" style="fill-opacity:0.09;fill-rule:nonzero;"/><path d="M675.1,1286.58c-0.021,57.813 -47.604,105.375 -105.417,105.375c-57.766,-0.066 -105.271,-47.608 -105.291,-105.375c1.945,-56.429 48.891,-101.787 105.354,-101.787c56.462,0 103.408,45.358 105.354,101.787Z" style="fill:#a1616a;fill-rule:nonzero;"/><path d="M818.517,2077.29c-26.209,62.5 -195.042,63.75 -195.042,63.75l0,-68.084l-10.208,-0.666c4.416,19.5 -6.209,67.041 -6.209,67.041c-133.333,18.834 -165.916,-57.125 -165.916,-57.125l4.625,-26l103.958,9.25c0,0 252.708,-17 264.042,-2.875c2.391,4.605 3.995,9.575 4.75,14.709Z" style="fill-opacity:0.09;fill-rule:nonzero;"/><path d="M623.475,2132.83l0,-68.125l-10.208,-0.625c4.416,19.459 -6.209,67.042 -6.209,67.042c-100.416,14.167 -143.666,-25.375 -158.916,-45.833c-2.725,-3.521 -5.071,-7.321 -7,-11.334l40.708,-229.166l9.583,-337.5l14.709,-59.167l3.375,-28.417l0,-0.333l0.375,0l10.375,4.458l62.125,26.875l70.583,-53.291l1,-0.792l3.542,-2.667l5.833,4.709l14.5,11.625l46.542,300.416c0,0 80.708,231.375 95.833,324.75c0.583,3.709 1.083,7.167 1.458,10.417c9.834,85.375 -198.208,86.958 -198.208,86.958Z" style="fill:#e1e7ef;fill-rule:nonzero;"/><circle cx="589.975" cy="1457.46" r="6" style="fill:#67647e;"/><circle cx="592.725" cy="1512.21" r="6" style="fill:#67647e;"/><circle cx="598.725" cy="1600.79" r="6" style="fill:#67647e;"/><circle cx="608.642" cy="1696.25" r="6" style="fill:#67647e;"/><circle cx="614.642" cy="1785.92" r="6" style="fill:#67647e;"/><circle cx="620.642" cy="1881.38" r="6" style="fill:#67647e;"/><circle cx="618.225" cy="1975.79" r="6" style="fill:#67647e;"/><path d="M513.517,1878.25c0,0 -6.709,87.792 -19,113.333c-12.292,25.542 -17.792,97.167 -17.792,97.167l-28.583,-3.25c-2.725,-3.521 -5.071,-7.321 -7,-11.333l40.708,-229.167l9.583,-337.5l14.709,-59.167l3.375,-28.416l0.416,0c3.209,-1.559 6.959,-1.559 10.167,0l1.375,0.708c-0.417,1.167 -0.833,2.375 -1.167,3.583c-11.166,34.917 -15.333,99.25 -15.333,99.25c0,0 16,117.709 17.792,172.459c1.791,54.75 -9.25,182.333 -9.25,182.333Z" style="fill-opacity:0.09;fill-rule:nonzero;"/><path d="M443.225,2071.71c-0.325,0.734 -0.7,1.446 -1.125,2.125c-11.083,18.75 -39.167,30.625 -47.708,33.917c-1.625,-2.875 -2.542,-4.583 -2.542,-4.583l5.958,-27.834l31.375,-12.75c4.963,2.588 9.663,5.642 14.042,9.125Z" style="fill-opacity:0.09;fill-rule:nonzero;"/><path d="M367.225,1623.71l-26,15.5l-23.708,105.417c0,0 -29.667,89.375 -6.875,153.25c22.791,63.875 36.041,100.375 36.041,100.375c0,0 9.125,72.542 22.834,78.458c13.708,5.917 19.625,9.125 19.625,9.125l2.625,17.417c0,0 37.125,-12.5 50.291,-34.792c13.167,-22.291 -9.666,-77.416 -9.666,-77.416c0,0 -19.625,-47 -14.625,-68.875c5,-21.875 -10,-79.167 -10,-80.75c0,-1.584 -1.375,-31.959 9.541,-55.459c10.917,-23.5 3.667,-33.333 3.667,-33.333l-6.833,-67.083l-46.917,-61.834Z" style="fill:#303d5c;fill-rule:nonzero;"/><path d="M820.683,2057.42c0,0 -68.875,26 -90.791,3.208c-21.917,-22.792 -19.625,-129.583 -19.625,-129.583c0,0 -20.834,-197.042 -34.209,-229.459c-13.375,-32.416 -6.375,-265.958 -6.375,-265.958c0,0 -8.916,-30.208 -16.666,-38.083c-0.488,-0.521 -1.034,-0.979 -1.625,-1.375l2.625,0.583l9.375,2.042l14.5,11.625l46.541,300.416c0,0 80.709,231.375 95.834,324.75l0.416,21.834Z" style="fill-opacity:0.09;fill-rule:nonzero;"/><path d="M900.1,2064.42l-0.792,0c-8.625,1.125 -85.208,10.375 -85.5,-5.584c-0.008,-1.837 0.088,-3.675 0.292,-5.5l70.833,-7.291l14.042,14.458c0.25,0.917 0.458,1.75 0.667,2.375l0.458,1.542Z" style="fill-opacity:0.09;fill-rule:nonzero;"/><path d="M826.642,1518.17l50.333,26.25c0,0 41.667,108.333 48.625,155.041c0,0 31.042,124.625 9.583,175.917c-21.458,51.292 -19.583,153 -19.583,153c0,0 -12.5,18.708 -17.375,13.667c-4.875,-5.042 1.875,19.541 1.875,19.541c0,0 -85.958,11.417 -86.333,-5.458c-0.375,-16.875 19.666,-97.542 19.666,-97.542c0,0 5.459,-192.083 -2.291,-222.208c-7.75,-30.125 -4.5,-218.208 -4.5,-218.208Z" style="fill:#303d5c;fill-rule:nonzero;"/><path d="M676.517,1722.71c0,0 -28.25,69.334 -37.5,73.917c-9.25,4.583 1.791,22.792 1.791,22.792c0,0 51.709,-72.084 35.709,-96.709Z" style="fill-opacity:0.09;fill-rule:nonzero;"/><path d="M659.642,1479.54c0.333,-1.334 -33.75,33.333 -42.875,38.625c-9.125,5.291 33.333,-0.292 42.875,-38.625Z" style="fill-opacity:0.09;fill-rule:nonzero;"/><path d="M564.767,1717.25c0,0 -52,33.625 -45.167,46.917c6.833,13.291 45.167,-46.917 45.167,-46.917Z" style="fill-opacity:0.09;fill-rule:nonzero;"/><path d="M659.183,2208.08c0,0 44.292,28.5 113.167,35.584l-113.167,-35.584Z" style="fill-opacity:0.09;fill-rule:nonzero;"/><path d="M552.892,2276.54c0,0 41.083,51.708 59.708,52.916c18.625,1.209 -59.708,-52.916 -59.708,-52.916Z" style="fill-opacity:0.09;fill-rule:nonzero;"/><path d="M610.392,2478.62c-1.834,0.917 -23.292,46.542 -45.167,47.917c-21.875,1.375 45.167,-47.917 45.167,-47.917Z" style="fill-opacity:0.09;fill-rule:nonzero;"/><path d="M800.6,2578.54c0,0 40.708,-9.125 49.75,20.083c0,0 -2.75,-9.125 -49.75,-20.083Z" style="fill-opacity:0.09;fill-rule:nonzero;"/><path d="M773.267,2745.5c0,0 49.25,-10.042 59.75,3.667c10.5,13.708 -59.75,-3.667 -59.75,-3.667Z" style="fill-opacity:0.09;fill-rule:nonzero;"/><path d="M633.808,2768.75c0,0.458 -50,10.042 -48.208,16.458c1.792,6.417 53.542,5.459 55.333,-4.583c0.234,-0.833 0.35,-1.696 0.35,-2.558c0,-4.459 -3.125,-8.35 -7.475,-9.317Z" style="fill-opacity:0.09;fill-rule:nonzero;"/><path d="M756.808,2812.12c0,0 82.459,-10.042 77.25,7.292c-5.208,17.333 -77.25,-7.292 -77.25,-7.292Z" style="fill-opacity:0.09;fill-rule:nonzero;"/><path d="M325.1,1796.62c0.458,1.375 54.167,8.667 61.583,26c0,0 -52.916,-24.625 -61.125,-24.625" style="fill-opacity:0.09;fill-rule:nonzero;"/><path d="M400.975,1937.58c0,0 -44.708,14.125 -41.667,35.584c3.042,21.458 -4.375,-10 41.667,-35.584Z" style="fill-opacity:0.09;fill-rule:nonzero;"/><path d="M380.142,2046.17c0,0 16.291,-22.375 31.791,-18.25c15.5,4.125 -31.791,18.25 -31.791,18.25Z" style="fill-opacity:0.09;fill-rule:nonzero;"/><path d="M635.517,1204c-1.575,1.525 -3.342,2.842 -5.25,3.917c-12.959,7.5 -16.667,19.083 -22.667,32.416c-5.667,12.209 -12,25 -23.5,32.084c-14.833,8.958 -34.417,5.666 -50,13.458c-13.95,7.35 -22.121,22.471 -20.625,38.167c0.913,5.925 2.304,11.762 4.167,17.458c3.541,12.329 5.129,25.138 4.708,37.958c0.042,0.375 0.042,0.75 0,1.125c-35.604,-17.837 -58.179,-54.391 -58.179,-94.216c0,-57.809 47.567,-105.375 105.375,-105.375c23.875,0 47.058,8.116 65.721,23.008l0.25,0Z" style="fill-opacity:0.09;fill-rule:nonzero;"/><path d="M632.767,1172.29c-11.584,-24.334 -36.75,-39.75 -62.5,-47.25c-19.75,-5.709 -41.209,-7.584 -60.834,-1.292c-10.975,4.129 -21.604,9.117 -31.791,14.917c-19.542,9.875 -41.042,17.708 -55.75,33.916c-3.846,3.425 -5.892,8.446 -5.542,13.584c1.304,3.558 3.158,6.891 5.5,9.875c4.167,7.416 3.083,16.666 0.292,25c-2.792,8.333 -7.084,15.541 -9.084,23.833c-2,8.292 -1.208,17.958 4.917,23.875c2.942,2.35 6,4.546 9.167,6.583c3.379,2.88 6.337,6.217 8.791,9.917l17.375,23.792c8.167,10.566 15.455,21.783 21.792,33.541c3.733,8.896 8.25,17.446 13.5,25.542c5.792,7.708 14.833,13.875 24.458,13.042c1.496,0.041 2.925,-0.642 3.834,-1.834c0.358,-0.754 0.529,-1.583 0.5,-2.416c0.375,-12.821 -1.213,-25.621 -4.709,-37.959c-1.97,-5.683 -3.445,-11.525 -4.416,-17.458c-1.459,-15.742 6.804,-30.879 20.833,-38.167c15.5,-7.791 35.083,-4.458 50,-13.416c11.5,-6.959 17.833,-19.875 23.5,-32.125c6.208,-13.334 9.667,-25 22.667,-32.417c13,-7.417 13.916,-20.292 7.5,-33.083Z" style="fill:#303d5c;fill-rule:nonzero;"/><path d="M585.558,2894.92c0,0 16.042,20.541 11.917,32.166c-4.125,11.625 -11.917,-32.166 -11.917,-32.166Z" style="fill-opacity:0.09;fill-rule:nonzero;"/><path d="M803.642,2946.12c0,0 3.583,-27.542 17.958,-27.792c14.375,-0.25 15.042,-1.5 26,2.709c10.958,4.208 21.25,10.791 18,11.791c-3.25,1 -18.917,-15.791 -34.875,-7.25c-9.992,5.471 -19.121,12.396 -27.083,20.542Z" style="fill-opacity:0.09;fill-rule:nonzero;"/><path d="M537.6,1485.33l45,-31.666c0,0 -66.042,-39 -73.917,-33.542c-7.875,5.458 -13.25,54.792 -13.25,54.792l42.167,10.416Z" style="fill-opacity:0.09;fill-rule:nonzero;"/><path d="M537.267,1483.25l45.166,-32.333c0,0 -66.041,-39 -73.916,-33.334c-7.875,5.667 -13.25,57.5 -13.25,57.5l42,8.167Z" style="fill:#e1e7ef;fill-rule:nonzero;"/><path d="M537.267,1483.25l45.166,-32.333c0,0 -66.041,-39 -73.916,-33.334c-7.875,5.667 -13.25,57.5 -13.25,57.5l42,8.167Z" style="fill-opacity:0.03;fill-rule:nonzero;"/><path d="M516.017,1417.75l-1.375,-0.667c-4.067,-2.016 -8.95,-1.495 -12.5,1.334l-135.375,109.833c0,0 -29.417,40.708 -25.334,110.958l79.5,113.167c0,0 9.125,-38.333 20.084,-31.042c0,0 15.5,196.167 0,224.459c-15.5,28.291 -22.375,134.125 -22.375,134.125l52.458,5.916c0,0 5.5,-71.625 17.792,-97.166c12.291,-25.542 19.041,-113.292 19.041,-113.292c0,0 11.084,-127.583 9.25,-182.333c-1.833,-54.75 -17.791,-172.417 -17.791,-172.417c0,0 4.583,-69 16.625,-102.875Z" style="fill:#303d5c;fill-rule:nonzero;"/><path d="M650.892,1465.29l-56.292,-20.834c0,0 71.667,-78.458 80.583,-34.916l-24.291,55.75Z" style="fill-opacity:0.09;fill-rule:nonzero;"/><path d="M650.892,1462.54l-56.292,-20.834c0,0 71.667,-78.5 80.583,-34.958l-24.291,55.792Z" style="fill:#e1e7ef;fill-rule:nonzero;"/><path d="M650.892,1462.54l-56.292,-20.834c0,0 71.667,-78.5 80.583,-34.958l-24.291,55.792Z" style="fill-opacity:0.03;fill-rule:nonzero;"/><path d="M649.058,1395.83c0.809,-0.15 1.642,0.013 2.334,0.459l-2.334,-0.459Z" style="fill-opacity:0.09;fill-rule:nonzero;"/><path d="M654.517,1390.33l149.291,32.209c0,0 41.042,9.125 70.834,112.208c29.791,103.083 -40.584,229.417 -40.584,229.417l-15.541,-13.167l7.791,301.083c0,0 -68.916,26 -90.791,3.209c-21.875,-22.792 -19.625,-129.584 -19.625,-129.584c0,0 -20.834,-197.083 -34.209,-229.458c-13.375,-32.375 -6.583,-265.958 -6.583,-265.958c0,0 -12.25,-41.75 -20.583,-39.959Z" style="fill:#303d5c;fill-rule:nonzero;"/><path d="M791.058,1582.42c-2.125,1.958 -4.583,93.041 4.542,162.5c5.604,42.237 14.25,84.012 25.875,125l-13.542,-277.834c0,0 -10.5,-15.833 -16.875,-9.666Z" style="fill-opacity:0.09;fill-rule:nonzero;"/><path d="M772.808,1503.75c3.625,2.25 19.584,40.125 12.292,55.625c-7.292,15.5 -12.292,-55.625 -12.292,-55.625Z" style="fill-opacity:0.09;fill-rule:nonzero;"/><path d="M631.892,1172.29c-7.3,-14.454 -18.73,-26.421 -32.834,-34.375c10.459,7.466 18.917,17.4 24.625,28.916c6.375,12.792 4.542,25.625 -8,32.875c-12.541,7.25 -16.666,19.042 -22.666,32.417c-5.667,12.208 -11.959,25 -23.5,32.083c-14.834,8.959 -34.417,5.667 -50,13.459c-13.959,7.341 -22.134,22.47 -20.625,38.166c0.916,5.921 2.312,11.759 4.166,17.459c3.542,12.329 5.13,25.137 4.709,37.958c0.05,0.838 -0.125,1.671 -0.5,2.417c-0.904,1.196 -2.334,1.879 -3.834,1.833c-3.866,0.279 -7.737,-0.442 -11.25,-2.083c5.155,5.104 12.209,7.841 19.459,7.541c0.146,0.017 0.296,0.025 0.441,0.025c2.059,0 3.75,-1.691 3.75,-3.75c0,-0.145 -0.008,-0.295 -0.025,-0.441c0.413,-12.817 -1.162,-25.621 -4.666,-37.959c-1.971,-5.683 -3.446,-11.525 -4.417,-17.458c-1.496,-15.696 6.675,-30.817 20.625,-38.167c15.458,-7.791 35.042,-4.458 50,-13.416c11.542,-6.959 17.833,-19.875 23.5,-32.125c6.25,-13.334 9.708,-25 22.667,-32.417c12.958,-7.417 14.75,-20.167 8.375,-32.958Z" style="fill-opacity:0.09;fill-rule:nonzero;"/><ellipse cx="2164.89" cy="3224.75" rx="170.833" ry="23.458" style="fill:#3755be;fill-opacity:0.09;"/><path d="M2234.14,3195.5c7.658,-6.229 13.241,-14.646 16,-24.125c2.041,-9.583 -2.042,-21.042 -11.167,-24.542c-10.25,-3.916 -21.208,3.167 -29.5,10.375c-8.292,7.209 -17.833,15.334 -28.708,13.834c11.362,-10.292 16.5,-25.842 13.5,-40.875c-0.45,-3.071 -1.75,-5.959 -3.75,-8.334c-5.667,-6.083 -16,-3.5 -22.834,1.292c-21.666,15.25 -27.708,44.667 -27.791,71.167c-2.209,-9.542 -0.375,-19.5 -0.417,-29.167c-0.042,-9.667 -2.75,-20.833 -11,-25.958c-5.121,-2.734 -10.867,-4.084 -16.667,-3.917c-9.75,-0.375 -20.583,0.583 -27.25,7.708c-8.333,8.875 -6.125,23.709 1.084,33.334c7.208,9.625 18.125,15.833 28.166,22.583c8.088,4.796 14.984,11.363 20.167,19.208c0.608,1.105 1.108,2.263 1.5,3.459l61.042,0c13.65,-6.959 26.304,-15.717 37.625,-26.042Z" style="fill:#3755be;fill-rule:nonzero;"/><ellipse cx="121.767" cy="3082.83" rx="121.417" ry="16.667" style="fill:#3755be;fill-opacity:0.09;"/><path d="M154.933,3028.25c7.659,-6.25 13.238,-14.679 16,-24.167c2.042,-9.541 -2,-21.041 -11.166,-24.541c-10.25,-3.917 -21.209,3.208 -29.5,10.375c-8.292,7.166 -17.834,15.333 -28.709,13.833c11.38,-10.279 16.517,-25.842 13.5,-40.875c-0.45,-3.071 -1.75,-5.958 -3.75,-8.333c-5.666,-6.084 -16,-3.5 -22.791,1.291c-21.667,15.25 -27.709,44.667 -27.834,71.167c-2.208,-9.542 -0.375,-19.5 -0.416,-29.167c-0.042,-9.666 -2.75,-20.833 -11,-25.958c-5.117,-2.746 -10.863,-4.096 -16.667,-3.917c-9.75,-0.375 -20.583,0.625 -27.25,7.709c-8.333,8.875 -6.125,23.708 1.083,33.333c7.209,9.625 18.125,15.875 28.209,22.583c8.066,4.809 14.946,11.375 20.125,19.209c0.608,1.104 1.108,2.262 1.5,3.458l61.041,0c13.65,-6.942 26.305,-15.687 37.625,-26Z" style="fill:#3755be;fill-rule:nonzero;"/><path d="M3061.97,2726.58c0,0 22.917,29.959 -10.542,75c-33.458,45.042 -61.041,83.334 -50,111.542c0,0 50.459,-83.958 91.667,-85.125c41.208,-1.167 14.083,-50.917 -31.125,-101.417Z" style="fill:#3755be;fill-rule:nonzero;"/><path d="M3061.97,2726.58c2.004,2.9 3.588,6.071 4.708,9.417c40.084,47.083 61.417,91.042 22.875,92.125c-35.875,1.042 -78.916,65.208 -89.25,81.417c0.334,1.262 0.755,2.5 1.25,3.708c0.496,1.208 50.459,-83.958 91.667,-85.125c41.208,-1.167 13.958,-51.042 -31.25,-101.542Z" style="fill-opacity:0.09;fill-rule:nonzero;"/><path d="M3104.56,2764.75c0,10.542 -1.208,19.083 -2.666,19.083c-1.459,0 -2.625,-8.541 -2.625,-19.083c0,-10.542 1.458,-5.583 2.916,-5.583c1.459,0 2.375,-4.959 2.375,5.583Z" style="fill:#ffd037;fill-rule:nonzero;"/><path d="M3119.14,2777.33c-9.25,5.042 -17.292,8.084 -18,6.792c-0.709,-1.292 6.208,-6.375 15.458,-11.417c9.25,-5.041 5.625,-1.375 6.333,0c0.709,1.375 5.459,-0.416 -3.791,4.625Z" style="fill:#ffd037;fill-rule:nonzero;"/><path d="M2941.1,2726.58c0,0 -22.917,29.959 10.542,75c33.458,45.042 61.041,83.334 50,111.542c0,0 -50.5,-83.958 -91.667,-85.125c-41.167,-1.167 -14.042,-50.917 31.125,-101.417Z" style="fill:#3755be;fill-rule:nonzero;"/><path d="M2941.1,2726.58c-2.004,2.9 -3.587,6.071 -4.708,9.417c-40.084,47.083 -61.417,91.042 -22.875,92.125c35.875,1.042 78.916,65.208 89.25,81.417c-0.342,1.254 -0.742,2.491 -1.209,3.708c-0.466,1.217 -50.5,-83.958 -91.666,-85.125c-41.167,-1.167 -13.959,-51.042 31.208,-101.542Z" style="fill-opacity:0.09;fill-rule:nonzero;"/><path d="M2898.52,2764.75c0,10.542 1.208,19.083 2.666,19.083c1.459,0 2.625,-8.541 2.625,-19.083c0,-10.542 -1.458,-5.583 -2.916,-5.583c-1.459,0 -2.375,-4.959 -2.375,5.583Z" style="fill:#ffd037;fill-rule:nonzero;"/><path d="M2883.93,2777.33c9.25,5.042 17.334,8.084 18,6.792c0.667,-1.292 -6.208,-6.375 -15.458,-11.417c-9.25,-5.041 -5.625,-1.375 -6.333,0c-0.709,1.375 -5.459,-0.416 3.791,4.625Z" style="fill:#ffd037;fill-rule:nonzero;"/><path d="M2905.81,2909.33c0,0 64,-2 83.334,-15.708c19.333,-13.708 98.458,-30.125 103.25,-8.333c4.791,21.791 96.166,109.541 23.916,110.125c-72.25,0.583 -167.875,-11.25 -187.125,-22.959c-19.25,-11.708 -23.375,-63.125 -23.375,-63.125Z" style="fill:#a8a8a8;fill-rule:nonzero;"/><path d="M3117.56,2987.96c-72.25,0.584 -167.875,-11.25 -187.125,-22.958c-14.666,-8.917 -20.5,-40.958 -22.458,-55.75l-2.167,0c0,0 4.167,51.583 23.334,63.333c19.166,11.75 114.875,23.542 187.125,22.959c20.833,0 28.041,-7.584 27.666,-18.542c-2.916,6.708 -10.875,10.833 -26.375,10.958Z" style="fill-opacity:0.2;fill-rule:nonzero;"/><path d="M1655.38,1064.26l-27.308,0l0,-53.046c0,-59.863 -47.729,-109.625 -107.588,-110.529c-0.383,-0.005 -0.766,-0.009 -1.15,-0.009c-59.887,0 -109.216,49.179 -109.4,109.067l0,54.517l-27.25,0c-24.904,0.079 -45.371,20.545 -45.45,45.45l0,218.116c0.079,24.904 20.546,45.371 45.45,45.45l272.696,0c24.9,-0.079 45.363,-20.55 45.429,-45.45l0,-218.117c-0.066,-24.899 -20.529,-45.37 -45.429,-45.45Zm-120.425,141.792l0,78.121c0.054,8.533 -6.604,15.742 -15.117,16.362c-0.25,0.013 -0.495,0.021 -0.745,0.021c-8.746,0 -15.942,-7.196 -15.942,-15.941l0,-78.604c-12.45,-6.071 -20.379,-18.759 -20.379,-32.609c0,-19.9 16.379,-36.279 36.279,-36.279c19.904,0 36.279,16.379 36.279,36.279c0,13.85 -7.929,26.538 -20.375,32.609l0,0.041Zm61.35,-141.791l-154.567,0l0,-54.517c0,-42.383 34.875,-77.254 77.255,-77.254c42.379,0 77.254,34.871 77.254,77.254l0.058,54.517Z" style="fill:#3755be;fill-rule:nonzero;"/><defs><linearGradient id="_Linear1" x1="0" y1="0" x2="1" y2="0" gradientUnits="userSpaceOnUse" gradientTransform="matrix(1.13298e-13,-1850.29,1850.29,1.13298e-13,2470.52,3025.25)"><stop offset="0" style="stop-color:#808080;stop-opacity:0.25"/><stop offset="0.54" style="stop-color:#808080;stop-opacity:0.11"/><stop offset="1" style="stop-color:#808080;stop-opacity:0.09"/></linearGradient><linearGradient id="_Linear2" x1="0" y1="0" x2="1" y2="0" gradientUnits="userSpaceOnUse" gradientTransform="matrix(1.16691e-13,-1905.71,1905.71,1.16691e-13,621.558,3015.33)"><stop offset="0" style="stop-color:#808080;stop-opacity:0.25"/><stop offset="0.54" style="stop-color:#808080;stop-opacity:0.11"/><stop offset="1" style="stop-color:#808080;stop-opacity:0.09"/></linearGradient></defs></svg>