<?xml version="1.0" encoding="UTF-8" standalone="no"?><!DOCTYPE svg PUBLIC "-//W3C//DTD SVG 1.1//EN" "http://www.w3.org/Graphics/SVG/1.1/DTD/svg11.dtd"><svg width="100%" height="100%" viewBox="0 0 456 413" version="1.1" xmlns="http://www.w3.org/2000/svg" xmlns:xlink="http://www.w3.org/1999/xlink" xml:space="preserve" xmlns:serif="http://www.serif.com/" style="fill-rule:evenodd;clip-rule:evenodd;stroke-linejoin:round;stroke-miterlimit:1.41421;"><g><path d="M67.106,349.575c88.758,37.396 232.663,37.397 321.418,0.001c88.758,-37.396 88.758,-98.025 0,-135.42c-88.757,-37.396 -232.662,-37.396 -321.419,-0.001c-88.756,37.396 -88.756,98.025 0.001,135.42Z" style="fill:#ccd0fc;fill-rule:nonzero;"/><path d="M124.173,328.806l-47.918,-27.476l63.142,-35.512l-14.932,63.493" style="fill:#ccd0fc;fill-rule:nonzero;"/><path d="M54.163,285.352c-0.626,-7.775 -4.185,-20.545 -13.225,-32.699c-9.675,-13.005 -21.47,-21.145 -30.233,-17.338c-8.161,3.546 -5.067,14.809 8.978,25.92c9.856,7.798 20.076,17.941 25.568,30.193l8.912,15.59l0,-21.666Z" style="fill:#00afa6;fill-rule:nonzero;"/><path d="M52.566,304.225l-7.315,-12.797c-5.492,-12.252 -15.712,-22.395 -25.568,-30.193c-8.929,-7.064 -13.432,-14.189 -13.431,-19.353c0.001,-2.959 1.48,-5.275 4.453,-6.567c1.47,-0.638 3.023,-0.94 4.64,-0.94c8.019,0 17.541,7.454 25.593,18.278c9.04,12.154 12.599,24.924 13.225,32.699l0,2.742l-1.597,16.131Z" style="fill:#00ad9e;fill-rule:nonzero;"/><path d="M53.374,291.279c-0.225,0 -0.438,-0.139 -0.519,-0.364c-7.829,-21.555 -24.131,-43.367 -37.921,-50.735c-0.27,-0.144 -0.371,-0.479 -0.228,-0.748c0.146,-0.271 0.48,-0.37 0.748,-0.227c14.004,7.482 30.528,29.55 38.44,51.332c0.104,0.287 -0.044,0.605 -0.331,0.708l-0.189,0.034Z" style="fill:#fff;fill-rule:nonzero;"/><path d="M53.375,311.921c0,0 -5.771,5.124 -15.599,6.681c-9.829,1.556 -14.166,-3.145 -14.166,-3.145c0,0 3.87,-9.217 9.452,-11.803c0,0 -9.463,1.928 -17.058,6.996c0,0 -6.001,0.091 -8.39,-9.068c0,0 3.556,-5.512 15.486,-8.49c0,0 -7.258,-1.827 -17.718,0.841c-0.784,0.312 -4.127,-11.531 -5.139,-16.995c-1.01,-5.463 1.185,-5.406 5.444,-6.543c4.259,-1.137 18.764,-1.852 21.43,0.491c2.667,2.342 4.022,10.353 4.022,10.353c0,0 2.55,-4.533 1.939,-8.579c0,0 4.277,-1.452 9.062,0.217c4.785,1.667 4.481,4 4.481,7.481c0,3.724 -0.367,6.196 -1.433,10.369c0,0 3.304,-2.86 3.421,-13.399c0,0 6.467,5.534 9.064,10.291c2.597,4.757 1.939,17.203 -4.298,24.302Z" style="fill:#2c9c8b;fill-rule:nonzero;"/><path d="M53.374,312.473c-0.204,0 -0.402,-0.115 -0.497,-0.313c-7.931,-16.476 -37.417,-35.623 -47.979,-37.677c-0.299,-0.058 -0.496,-0.348 -0.437,-0.649c0.058,-0.299 0.351,-0.492 0.648,-0.437c10.736,2.089 40.707,21.544 48.763,38.284c0.133,0.276 0.017,0.606 -0.258,0.737l-0.24,0.055Z" style="fill:#fff;fill-rule:nonzero;"/><path d="M51.336,137.139l0,179.521l167.533,-96.725l-0.001,-162.02l-114.445,66.012l-4.296,-15.022l-48.791,28.234Z" style="fill:#2e2c44;fill-rule:nonzero;"/><path d="M51.336,316.66l8.59,-157.64l167.532,-96.724l-8.589,157.639l-167.533,96.725Z" style="fill:#f1f2f3;fill-rule:nonzero;"/><path d="M51.336,316.66l15.167,-153.25l167.532,-96.725l-15.166,153.25l-167.533,96.725Z" style="fill:#44455c;fill-rule:nonzero;"/><path d="M123.855,329.508c-0.466,0 -0.536,-0.537 -0.536,-0.859l0,-230.637c0,-1.082 0.792,-2.454 1.73,-2.995l161.854,-93.389c0.225,-0.129 0.436,-0.198 0.612,-0.198c0.466,0 0.535,0.539 0.535,0.859l0,230.638c0,1.082 -0.792,2.454 -1.73,2.995l-161.855,93.389c-0.224,0.129 -0.435,0.197 -0.61,0.197Z" style="fill:#f6f6fd;fill-rule:nonzero;"/><path d="M287.515,0.847c-0.272,0 -0.578,0.088 -0.904,0.275l-161.854,93.39c-1.116,0.644 -2.021,2.211 -2.021,3.5l0,230.637c0,0.914 0.455,1.443 1.118,1.443c0.272,0 0.579,-0.089 0.903,-0.276l161.854,-93.389c1.117,-0.644 2.022,-2.212 2.022,-3.501l0,-230.637c0,-0.914 -0.455,-1.443 -1.118,-1.442Zm-0.077,1.179c0.014,0.057 0.028,0.143 0.028,0.263l0,230.637c0,0.869 -0.686,2.056 -1.438,2.49l-161.855,93.39c-0.107,0.062 -0.188,0.092 -0.242,0.106c-0.014,-0.056 -0.029,-0.143 -0.029,-0.263l0,-230.637c0,-0.869 0.686,-2.056 1.439,-2.49l161.854,-93.389c0.109,-0.062 0.189,-0.092 0.243,-0.107Z" style="fill:#c6c9fc;fill-rule:nonzero;"/><path d="M136.956,103.888l47.399,-27.366l0.001,54.732l-47.399,27.366l-0.001,-54.732Z" style="fill:#4860ff;fill-rule:nonzero;"/><path d="M177.246,90.205l0,16.419l-1.485,0.83l0,-5.031c0,-2.778 -2.262,-3.723 -5.053,-2.113l-20.104,11.607c-2.791,1.611 -5.053,5.169 -5.053,7.948l0,5.03l-1.484,0.886l-0.001,-16.42l33.18,-19.156Z" style="fill:#fbfdfd;fill-rule:nonzero;"/><path d="M168.103,132.053c-2.432,1.404 -4.403,-0.071 -4.403,-3.293l0,-26.336l-6.088,3.313l0,26.538c0,3.223 -1.971,6.973 -4.403,8.377l-4.403,2.542l0,1.742l23.7,-13.682l0,-1.743c0,0 -1.971,1.138 -4.403,2.542Z" style="fill:#fbfdfd;fill-rule:nonzero;"/><path d="M193.836,73.786c0,1.511 1.357,1.953 3.031,0.986l74.515,-42.963c1.674,-0.967 3.031,-2.976 3.031,-4.487c0,-1.512 -1.357,-1.953 -3.031,-0.987l-74.515,42.964c-1.674,0.967 -3.032,2.975 -3.031,4.487Z" style="fill:#ccd0fc;fill-rule:nonzero;"/><path d="M193.836,90.205c0,1.512 1.357,1.953 3.031,0.987l74.515,-42.964c1.674,-0.966 3.031,-2.975 3.031,-4.487c0,-1.511 -1.357,-1.953 -3.031,-0.986l-74.515,42.963c-1.674,0.967 -3.032,2.976 -3.031,4.487Z" style="fill:#ccd0fc;fill-rule:nonzero;"/><path d="M193.836,106.624c0,1.512 1.357,1.954 3.031,0.987l74.515,-42.963c1.674,-0.967 3.031,-2.976 3.031,-4.487c0,-1.512 -1.357,-1.953 -3.031,-0.987l-74.515,42.963c-1.674,0.967 -3.032,2.976 -3.031,4.487Z" style="fill:#ccd0fc;fill-rule:nonzero;"/><path d="M193.836,123.044c0,1.512 1.357,1.953 3.031,0.986l74.515,-42.963c1.674,-0.966 3.031,-2.975 3.031,-4.487c0,-1.511 -1.357,-1.953 -3.031,-0.986l-74.515,42.963c-1.674,0.966 -3.032,2.976 -3.031,4.487Z" style="fill:#ccd0fc;fill-rule:nonzero;"/><path d="M136.956,172.308c0,1.511 1.358,1.953 3.032,0.986l131.394,-75.806c1.674,-0.967 3.031,-2.976 3.031,-4.488c0,-1.511 -1.357,-1.953 -3.031,-0.986l-131.395,75.807c-1.674,0.967 -3.031,2.975 -3.031,4.487Z" style="fill:#ccd0fc;fill-rule:nonzero;"/><path d="M136.956,188.728c0,1.511 1.358,1.953 3.032,0.986l131.394,-75.807c1.674,-0.967 3.031,-2.976 3.031,-4.488c0,-1.511 -1.357,-1.953 -3.031,-0.986l-131.395,75.807c-1.674,0.967 -3.031,2.976 -3.031,4.488Z" style="fill:#ccd0fc;fill-rule:nonzero;"/><path d="M136.956,205.147c0,1.511 1.358,1.953 3.032,0.986l131.394,-75.807c1.674,-0.967 3.031,-2.975 3.031,-4.487c0,-1.511 -1.357,-1.953 -3.031,-0.986l-131.395,75.807c-1.674,0.966 -3.031,2.976 -3.031,4.487Z" style="fill:#ccd0fc;fill-rule:nonzero;"/><path d="M136.956,221.564c0,1.511 1.358,1.953 3.032,0.986l131.394,-75.807c1.674,-0.967 3.031,-2.976 3.031,-4.487c0,-1.512 -1.357,-1.953 -3.031,-0.986l-131.395,75.807c-1.674,0.966 -3.031,2.975 -3.031,4.487Z" style="fill:#ccd0fc;fill-rule:nonzero;"/><path d="M136.956,237.98c0,1.512 1.358,1.954 3.032,0.987l131.394,-75.807c1.674,-0.967 3.031,-2.976 3.031,-4.488c0,-1.511 -1.357,-1.953 -3.031,-0.986l-131.395,75.807c-1.674,0.967 -3.031,2.976 -3.031,4.487Z" style="fill:#ccd0fc;fill-rule:nonzero;"/><path d="M136.956,254.397c0,1.512 1.358,1.953 3.032,0.986l131.394,-75.807c1.674,-0.966 3.031,-2.975 3.031,-4.487c0,-1.511 -1.357,-1.953 -3.031,-0.986l-131.395,75.807c-1.674,0.967 -3.031,2.976 -3.031,4.487Z" style="fill:#ccd0fc;fill-rule:nonzero;"/><path d="M136.956,270.814c0,1.511 1.358,1.953 3.032,0.986l131.394,-75.807c1.674,-0.967 3.031,-2.976 3.031,-4.487c0,-1.512 -1.357,-1.953 -3.031,-0.987l-131.395,75.808c-1.674,0.966 -3.031,2.975 -3.031,4.487Z" style="fill:#ccd0fc;fill-rule:nonzero;"/><path d="M136.956,287.23c0,1.512 1.358,1.954 3.032,0.987l131.394,-75.807c1.674,-0.967 3.031,-2.976 3.031,-4.488c0,-1.511 -1.357,-1.953 -3.031,-0.986l-131.395,75.808c-1.674,0.966 -3.031,2.975 -3.031,4.486Z" style="fill:#ccd0fc;fill-rule:nonzero;"/><path d="M136.956,303.647c0,1.512 1.358,1.953 3.032,0.986l131.394,-75.807c1.674,-0.966 3.031,-2.975 3.031,-4.487c0,-1.511 -1.357,-1.953 -3.031,-0.986l-131.395,75.807c-1.674,0.967 -3.031,2.976 -3.031,4.487Z" style="fill:#ccd0fc;fill-rule:nonzero;"/><path d="M339.316,185.396c0,-9.573 4.797,-16.454 4.797,-16.454l0,-9.288c0,-1.203 -0.397,-2.067 -1.045,-2.521c-0.091,-0.064 -0.188,-0.119 -0.289,-0.166l-30.18,-17.43l-0.025,-0.015l-0.031,-0.018l-0.001,0.003c-0.727,-0.395 -1.719,-0.327 -2.813,0.304l-23.75,13.713c-2.233,1.289 -3.828,4.42 -3.929,6.996c-0.272,6.803 -2.497,19.391 -14.504,26.323c-12.09,6.98 -14.265,-3.22 -14.511,-9.705c-0.097,-2.576 -1.691,-3.618 -3.924,-2.329l-23.75,13.712c-2.232,1.29 -4.042,4.424 -4.042,7.002l0,9.288c0,0 4.796,1.341 4.796,10.915c0,9.574 -7.414,26.956 -7.414,51.063c0,12.071 3.828,22.156 11.865,26.785l0,0.002l30.19,17.421l0.006,-0.004c8.011,4.713 20.256,3.958 37.127,-5.782c33.578,-19.387 48.843,-53.206 48.843,-77.313c0,-24.107 -7.416,-32.928 -7.416,-42.502Z" style="fill:#2361dc;fill-rule:nonzero;"/><path d="M309.728,139.81l-23.749,13.712c-2.231,1.289 -3.828,4.425 -3.93,7.002c-0.252,6.264 -2.156,17.447 -11.855,24.579l-18.269,-10.548l-0.094,-0.057c-0.681,-0.392 -1.624,-0.326 -2.717,0.309l-23.757,13.713c-0.327,0.187 -0.635,0.411 -0.934,0.672c-0.746,0.625 -1.409,1.437 -1.922,2.343c-0.729,1.27 -1.186,2.698 -1.186,3.986l0,9.289l1.317,0.755c1.436,1.167 3.481,3.903 3.481,10.157c0,9.578 -7.412,26.96 -7.412,51.063c0,12.07 3.827,22.161 11.865,26.792l30.119,17.372c-7.889,-4.686 -11.641,-14.693 -11.641,-26.651c0,-24.103 7.41,-41.486 7.41,-51.063c0,-9.578 -4.797,-10.913 -4.797,-10.913l0,-9.288c0,-1.288 0.449,-2.717 1.186,-3.986c0.728,-1.27 1.746,-2.371 2.856,-3.015l23.758,-13.714c1.046,-0.607 1.951,-0.7 2.623,-0.354l0.094,0.046c0.719,0.411 1.148,1.317 1.204,2.633c0.242,6.488 2.418,16.691 14.507,9.708c12.008,-6.933 14.235,-19.52 14.507,-26.321c0.103,-2.576 1.697,-5.707 3.929,-6.996l23.748,-13.713c1.046,-0.607 1.998,-0.691 2.707,-0.355l-30.173,-17.428c-0.784,-0.43 -1.784,-0.355 -2.875,0.271Z" style="fill:#00afa6;fill-rule:nonzero;"/><path d="M221.315,195.521l0,-0.002l0,-0.007l0,0.009Zm0,-0.016l0,-0.009l0,0.009Zm0,-0.015l0,-0.008l0,0.008Zm0,-0.015l0,-0.009l0,0.009Zm0,-0.015c0,-0.003 0,-0.006 0.001,-0.009c-0.001,0.003 -0.001,0.006 -0.001,0.009Zm0.001,-0.015l0,-0.009l0,0.009Zm0,-0.016l0,-0.008l0,0.008Zm0,-0.015l0,-0.007l0,0.007Zm0,-0.015c0,-0.002 0.001,-0.004 0.001,-0.006c0,0.002 -0.001,0.004 -0.001,0.006Zm0.001,-0.016l0,-0.005l0,0.005Zm0,-0.015l0,-0.005l0,0.005Zm0.001,-0.015l0,-0.004l0,0.004Zm0.88,-3.25c0.094,-0.191 0.194,-0.38 0.301,-0.565c-0.106,0.186 -0.207,0.374 -0.301,0.565Z" style="fill:#e2e2e2;fill-rule:nonzero;"/><path d="M251.657,222.322l-28.987,-16.73l-0.02,-0.017l-0.018,-0.01l-1.298,-0.746l-0.019,-0.009l0,-9.289l0,-0.061c0,-0.003 0,-0.006 0.001,-0.009l0,-0.052c0,-0.002 0.001,-0.004 0.001,-0.006l0,-0.03c0,-0.003 0.001,-0.007 0.001,-0.01l0,-0.016c0.035,-1.048 0.361,-2.178 0.88,-3.234c0.094,-0.191 0.195,-0.379 0.301,-0.565l21.525,12.42l8.819,5.09c-0.737,1.269 -1.186,2.698 -1.186,3.986l0,9.288Z" style="fill:#4063ae;fill-rule:nonzero;"/><path d="M252.843,209.048c0,-0.001 0,-0.001 0.001,-0.001l-0.001,0.001Z" style="fill:#00ad9e;fill-rule:nonzero;"/><path d="M252.844,209.047l-8.82,-5.089l-21.523,-12.423c0.513,-0.906 1.176,-1.718 1.922,-2.343c0.299,-0.261 0.607,-0.485 0.934,-0.672l23.757,-13.713c0.647,-0.376 1.241,-0.552 1.76,-0.552c0.357,0 0.679,0.083 0.957,0.243l0.094,0.057l18.269,10.548l11.886,6.862c-0.256,-0.132 -0.546,-0.2 -0.865,-0.2c-0.518,0 -1.111,0.179 -1.758,0.554l-23.758,13.714c-1.11,0.644 -2.127,1.745 -2.855,3.014Z" style="fill:#4f8cef;fill-rule:nonzero;"/><path d="M252.843,209.048l-8.819,-5.09l8.82,5.089c-0.001,0 -0.001,0 -0.001,0.001Z" style="fill:#4cc2bd;fill-rule:nonzero;"/><path d="M313.562,174.045c0.25,-0.458 0.535,-0.896 0.85,-1.298c-0.315,0.402 -0.6,0.84 -0.85,1.298Zm-30.345,-17.508c0.107,-0.196 0.221,-0.389 0.341,-0.577c-0.12,0.188 -0.233,0.381 -0.341,0.578m0.342,-0.579c0.001,-0.002 0.002,-0.004 0.003,-0.005c-0.001,0.001 -0.002,0.003 -0.003,0.005Z" style="fill:#53c3c3;fill-rule:nonzero;"/><path d="M313.562,174.045l-0.005,-0.002c0,-0.001 0,-0.001 0.001,-0.002l-24.139,-13.925l-6.202,-3.579c0.108,-0.196 0.221,-0.389 0.341,-0.577c0,-0.001 0.001,-0.001 0.001,-0.001c0.001,-0.002 0.002,-0.004 0.003,-0.005c0.651,-1.018 1.477,-1.889 2.417,-2.432l23.749,-13.712c0.635,-0.365 1.24,-0.542 1.788,-0.542c0.394,0 0.759,0.091 1.087,0.271l30.173,17.428c-0.27,-0.128 -0.577,-0.195 -0.91,-0.195c-0.54,0 -1.15,0.175 -1.797,0.55l-23.748,13.713c-0.706,0.408 -1.349,1 -1.9,1.701c-0.003,0.004 -0.006,0.007 -0.009,0.011c-0.315,0.402 -0.6,0.84 -0.851,1.298" style="fill:#4f8cef;fill-rule:nonzero;"/><path d="M282.049,160.524c0.047,-1.288 0.475,-2.716 1.167,-3.987c-0.512,0.939 -0.877,1.966 -1.053,2.959c-0.062,0.349 -0.101,0.693 -0.114,1.028Z" style="fill:#e2e2e2;fill-rule:nonzero;"/><path d="M290.844,206.699l0.003,0l-0.003,0Zm-0.003,0c-5.969,-0.002 -7.278,-7.109 -7.463,-12.055c-0.056,-1.316 -0.485,-2.222 -1.204,-2.633l-0.094,-0.046l0.094,0.046c0.719,0.411 1.148,1.317 1.204,2.633c0.185,4.946 1.495,12.052 7.463,12.055Zm21.586,-29.148c0.03,-0.276 0.076,-0.557 0.136,-0.84c-0.06,0.283 -0.106,0.564 -0.136,0.84Zm-30.264,-18.055c0.176,-0.993 0.541,-2.02 1.053,-2.958l0.001,0c-0.512,0.938 -0.878,1.965 -1.054,2.958Z" style="fill:#00ad9e;fill-rule:nonzero;"/><path d="M290.844,206.699l-0.003,0c-5.968,-0.003 -7.278,-7.109 -7.463,-12.055c-0.056,-1.316 -0.485,-2.222 -1.204,-2.633l-0.094,-0.046l-11.886,-6.862c9.699,-7.132 11.603,-18.315 11.855,-24.579c0.013,-0.335 0.052,-0.679 0.114,-1.028c0.176,-0.993 0.542,-2.02 1.054,-2.958l6.202,3.578l24.138,13.927c-0.462,0.843 -0.802,1.764 -0.994,2.668c-0.06,0.283 -0.106,0.564 -0.136,0.84c-0.017,0.161 -0.029,0.32 -0.036,0.476c-0.271,6.805 -2.501,19.389 -14.506,26.325c-2.868,1.657 -5.179,2.346 -7.038,2.347l-0.003,0Z" style="fill:#1f47b6;fill-rule:nonzero;"/><path d="M313.557,174.043l-24.138,-13.927l24.139,13.925c-0.001,0.001 -0.001,0.001 -0.001,0.002Z" style="fill:#35beb7;fill-rule:nonzero;"/><path d="M226.113,215.686l0,-0.018l0,0.018Zm0,-0.036l0,-0.03l0,0.03Zm0,-0.037l0,-0.021l0,0.021Zm0,-0.036l0,-0.014l0,0.014Zm0,-0.037l0,-0.008l0,0.008Zm0,-0.036c0,-0.003 -0.001,-0.006 -0.001,-0.009c0,0.003 0.001,0.006 0.001,0.009Zm-0.001,-0.036l0,-0.008l0,0.008Zm0,-0.036l0,-0.003l0,0.003Z" style="fill:#cac9c9;fill-rule:nonzero;"/><path d="M260.685,310.949l-30.119,-17.372c-8.038,-4.631 -11.865,-14.722 -11.865,-26.792c0,-24.103 7.412,-41.485 7.412,-51.063l0,-0.218c0,-0.003 -0.001,-0.006 -0.001,-0.009l0,-0.066c-0.062,-5.992 -2.029,-8.669 -3.443,-9.835l28.988,16.728c0,0 4.797,1.335 4.797,10.913c0,9.577 -7.41,26.96 -7.41,51.063c0,11.958 3.752,21.965 11.641,26.651Z" style="fill:#1f47b6;fill-rule:nonzero;"/><path d="M304.777,269.681l-12.997,7.503l2.014,-23.51c-1.554,-0.821 -2.545,-2.844 -2.545,-5.748c0,-5.177 3.148,-11.191 7.03,-13.432c3.882,-2.242 7.03,0.138 7.03,5.315c0,2.903 -0.991,6.07 -2.545,8.687l2.013,21.185Z" style="fill:#44455c;fill-rule:nonzero;"/><path d="M304.777,269.681l-11.771,-6.797l-1.226,14.3l12.997,-7.503Z" style="fill:#2e2c44;fill-rule:nonzero;"/><path d="M298.279,234.494c-2.54,1.466 -4.758,4.55 -5.994,7.955l10.479,6.05l0,-0.003c1.554,-2.617 2.545,-5.784 2.545,-8.687c0,-5.177 -3.148,-7.557 -7.03,-5.315Z" style="fill:#2e2c44;fill-rule:nonzero;"/><path d="M312.964,97.812c-6.423,-3.706 -14.502,-3.293 -22.168,1.133l-28.333,16.358c-12.277,7.088 -21.537,23.125 -21.537,37.302l0,38.246c0.001,1.585 1.058,3.169 3.151,4.377c4.189,2.419 10.98,2.419 15.168,0.001c2.093,-1.209 3.152,-2.793 3.152,-4.378l0,-38.246c0,-6.527 5.149,-15.444 10.801,-18.708l28.333,-16.358l0.066,-0.038l0,38.322c0,1.584 1.057,3.169 3.151,4.378c4.189,2.418 10.98,2.418 15.168,0c2.095,-1.209 3.152,-2.794 3.152,-4.378l0,-38.246c0,-8.854 -3.683,-16.058 -10.104,-19.765Z" style="fill:#44455c;fill-rule:nonzero;"/><path d="M301.597,117.577l0,38.246c0,1.584 1.057,3.169 3.151,4.378c0.94,0.543 2.015,0.956 3.157,1.256l0,-47.598l-6.308,3.642l0,0.076Z" style="fill:#2e2c44;fill-rule:nonzero;"/><path d="M429.864,157.671c-1.663,-0.479 -2.988,-1.418 -5.382,-1.904c-2.11,-0.43 -2.972,-0.643 -4.634,-1.765c-1.802,-1.215 -5.329,-6.411 -8.121,-11.595c-3.294,-6.116 -5.274,-14.885 -5.596,-18.761c-0.655,-7.867 -2.473,-18.394 -2.946,-22.944c-0.755,-7.265 -2.917,-10.998 -11.312,-10.489c0,0 2.253,2.556 1.601,9.119c-0.654,6.563 1.242,17.998 2.667,26.877c0.69,4.302 2.938,10.206 7.141,18.082c2.936,5.502 5.592,10.135 9.684,14.841c1.115,1.282 1.626,2.51 3.464,5.206c0.741,1.088 1.521,2.303 2.553,3.117c1.309,1.035 2.742,1.926 4.294,2.547c1.956,0.782 4.113,1.125 6.193,0.793c1.144,-0.183 2.269,-0.575 3.207,-1.256c0.937,-0.682 1.676,-1.667 1.942,-2.795c0.055,-0.228 0.089,-0.471 0.023,-0.697c-0.12,-0.406 -0.526,-0.65 -0.898,-0.852c-2.084,-1.132 -4.5,-2.041 -6.444,-3.38c-1.644,-1.132 -2.648,-2.159 -2.261,-2.257c0.388,-0.098 1.308,0.635 3.033,0.853c1.65,0.209 3.393,-0.569 3.437,-1.504c0.044,-0.934 0.018,-0.758 -1.645,-1.236Z" style="fill:#b1494d;fill-rule:nonzero;"/><path d="M391.31,89.714c3.031,-0.199 9.459,-1.007 11.401,5.088c1.942,6.094 4.171,28.848 4.772,31.737c0.603,2.889 2.189,8.528 3.951,12.846c1.762,4.317 6.871,13.129 6.871,13.129l-6.319,5.458c0,0 -8.922,-10.35 -13.504,-21.342c-4.581,-10.99 -6.014,-25.176 -6.223,-33.634c-0.209,-8.458 -0.949,-13.282 -0.949,-13.282Z" style="fill:#00afa6;fill-rule:nonzero;"/><path d="M411.986,157.972c0,0 -2.21,-2.564 -4.995,-6.495c-0.27,-2.377 -0.515,-4.313 -0.716,-5.668c0,-0.001 0,-0.001 0.001,-0.001c0.212,-1.447 -1.711,-18.062 -2.508,-25.452c0.934,-1.691 1.709,-3.252 2.305,-4.723c0.653,5.281 1.166,9.732 1.41,10.906c0.603,2.889 2.189,8.528 3.951,12.846c1.762,4.317 6.871,13.129 6.871,13.129l-6.319,5.458Zm-8.205,-58.45c-3.728,-5.533 -9.134,-9.818 -12.22,-9.818c-0.014,0 -0.028,0 -0.043,0.001c0,-0.002 0,-0.003 -0.001,-0.005c0.765,-0.053 1.717,-0.133 2.745,-0.133c3.149,0 7.017,0.742 8.449,5.235c0.351,1.101 0.711,2.746 1.07,4.72Z" style="fill:#e73006;fill-rule:nonzero;"/><path d="M396.991,275.091l8.909,0.306l0.446,-16.147l-8.908,-0.307l-0.447,16.148Z" style="fill:#b1494d;fill-rule:nonzero;"/><rect x="363.66" y="270.917" width="8.913" height="15.259" style="fill:#b1494d;fill-rule:nonzero;"/><path d="M372.573,281.776l0,-1.275c0.853,0.372 2.835,7.932 6.371,11.158c2.812,2.564 6.647,5.527 7.623,8.385c1.014,2.974 -5.341,4.615 -7.968,4.15c-3.052,-0.541 -8.342,-2.69 -9.67,-4.682c-1.327,-1.992 -1.949,-4.93 -3.028,-6.391c-1.08,-1.459 -3.567,-3.09 -4.15,-4.78c-0.321,-0.928 0.06,-2.961 0.51,-4.678c0.413,-1.577 0.861,-3.31 1.399,-3.162c0.001,0.192 0,0.972 0,0.972c0.647,0.717 2.438,1.429 4.456,1.506c1.305,0.051 4.468,-0.208 4.457,-1.203Z" style="fill:#2c2c45;fill-rule:nonzero;"/><path d="M405.994,272.648c0.463,0.017 0.84,0.669 1.861,1.774c1.234,1.336 3.252,2.776 5.243,3.773c3.338,1.671 9.827,4.241 12.763,5.564c1.835,0.826 1.75,3.043 -0.147,4.303c-1.897,1.262 -6.476,2.17 -11.974,0.941c-2.995,-0.67 -6.893,-3.436 -9.361,-3.287c-2.468,0.15 -7.085,0.114 -8.906,-1.142c-1.822,-1.255 -1.093,-3.937 -0.578,-6.241c0.561,-2.514 1.366,-6.362 2.198,-6.19l-0.027,0.791c1.071,1.622 6.527,2.285 8.881,1.09l0.047,-1.376Z" style="fill:#2c2c45;fill-rule:nonzero;"/><path d="M367.469,144.51c-6.969,14.338 -0.091,68.417 -0.091,68.417c-0.254,2.347 -3.05,6.912 -4.29,17.238c-1.466,12.202 -0.198,43.561 -0.198,43.561c0,0 5.817,2.585 10.555,0.446c0,0 8.373,-46.543 10.187,-58.666c1.583,-10.579 4.691,-33.851 4.691,-33.851l6.519,34.053c0,0 -2.011,5.901 -2.555,10.419c-0.857,7.136 4.26,40.416 4.26,40.416c0,0 4.362,2.159 10.03,0.667c0,0 3.036,-44.165 3.881,-52.765c1.419,-14.444 -2.771,-59.618 -4.249,-69.069l-38.74,-0.866Z" style="fill:#43455c;fill-rule:nonzero;"/><path d="M376.781,90.029c-2.242,0.264 -7.447,1.17 -7.447,1.17c-3.446,1.265 -3.074,3.387 -4.022,6.695c-1.175,4.097 -0.407,11.417 0.986,15.444l6.675,19.308c-2.494,6.028 -4.897,7.788 -6.095,12.377c10.91,8.084 34.361,7.607 39.398,0.785c0.212,-1.447 -1.711,-18.062 -2.508,-25.452c3.403,-6.162 4.698,-10.589 2.918,-15.313c-3.05,-8.089 -11.408,-15.651 -15.376,-15.329l-14.529,0.315Z" style="fill:#ff522b;fill-rule:nonzero;"/><path d="M383.568,83.081l-3.293,0c-9.582,0 -17.349,-7.767 -17.349,-17.349c0,-9.632 7.81,-17.442 17.442,-17.442l3.107,0c9.633,0 17.442,7.81 17.442,17.442c0,9.582 -7.767,17.349 -17.349,17.349Z" style="fill:#2c2c45;fill-rule:nonzero;"/><path d="M354.039,91.065c5.907,0 10.697,-4.789 10.697,-10.696l0,-22.904c-5.908,0 -10.697,4.789 -10.697,10.696l0,22.904Z" style="fill:#2c2c45;fill-rule:nonzero;"/><path d="M395.233,54.623c2.093,1.238 4.681,6.504 4.425,17.543c-0.215,9.357 -3.249,11.668 -4.771,12.335c-1.524,0.666 -4.46,0.261 -7.316,-0.215l0,5.615l-0.573,6.592l-11.18,-5.11l0,-13.573c0,0 -1.927,2.574 -5.08,0.48c-3.153,-2.094 -3.273,-7.276 -1.44,-9.137c1.833,-1.861 5.784,-1.271 6.52,1.3c0,0 1.275,-2.691 7.821,-4.932c6.887,-2.358 9.182,-6.501 11.594,-10.898Z" style="fill:#c96769;fill-rule:nonzero;"/><path d="M388.164,69.816c0.034,0.674 -0.465,1.245 -1.113,1.277c-0.649,0.03 -1.203,-0.491 -1.237,-1.165c-0.034,-0.675 0.464,-1.246 1.114,-1.277c0.649,-0.03 1.202,0.491 1.236,1.165Z" style="fill:#2c2c45;fill-rule:nonzero;"/><path d="M389.527,77.747l2.732,0.872c-0.227,0.782 -1.023,1.221 -1.777,0.981c-0.755,-0.241 -1.183,-1.07 -0.955,-1.853Z" style="fill:#b1494d;fill-rule:nonzero;"/><path d="M397.812,66.203l-2.381,-1.65c0.434,-0.68 1.319,-0.862 1.976,-0.406c0.659,0.456 0.838,1.376 0.405,2.056Z" style="fill:#2c2c45;fill-rule:nonzero;"/><path d="M397.263,68.966c0.033,0.674 -0.465,1.245 -1.114,1.276c-0.65,0.031 -1.203,-0.491 -1.237,-1.165c-0.034,-0.674 0.465,-1.246 1.114,-1.277c0.649,-0.031 1.203,0.491 1.237,1.166Z" style="fill:#2c2c45;fill-rule:nonzero;"/><path d="M391.516,68.292l0.187,7.082l3.728,-1.154l-3.915,-5.928Z" style="fill:#b1494d;fill-rule:nonzero;"/><path d="M387.571,84.286c-3.008,-0.395 -9.199,-2.173 -10.164,-4.621c0,0 0.322,1.539 2.171,3.124c1.849,1.584 7.993,3.37 7.993,3.37l0,-1.873Z" style="fill:#b1494d;fill-rule:nonzero;"/><path d="M388.323,181.655l3.399,-16.511c0,0 7.104,-1.198 10.873,-3.884c0,0 -2.955,3.909 -8.053,5.808l-3.898,15.578l0.971,16.207l-3.292,-17.198Z" style="fill:#2c2c45;fill-rule:nonzero;"/><path d="M375.591,59.663c0,0 13.432,9.15 22.775,4.579c9.345,-4.572 -2.761,-10.954 -2.761,-10.954l-20.014,6.375Z" style="fill:#44455c;fill-rule:nonzero;"/><path d="M395.508,40.476c-8.001,-2.23 -16.673,-3.671 -26.753,-0.015c-10.079,3.657 -12.274,9.905 -12.274,9.905c0,0 10.252,4.052 18.602,2.681c8.352,-1.371 20.425,-12.571 20.425,-12.571Z" style="fill:#00afa6;fill-rule:nonzero;"/><path d="M371.375,53.33c-7.395,0 -14.894,-2.964 -14.894,-2.964c0,0 2.195,-6.248 12.274,-9.905c4.443,-1.612 8.611,-2.233 12.57,-2.233c5.023,0 9.709,1.001 14.183,2.248c0,0 -12.073,11.2 -20.425,12.571c-1.209,0.198 -2.457,0.283 -3.708,0.283Z" style="fill:#f05332;fill-rule:nonzero;"/><path d="M362.09,54.151c0,0 -5.139,-2.439 -5.609,-3.785c0,0 5.259,0.83 11.929,-0.777c6.671,-1.607 13.608,-8.085 21.12,-9.226c7.513,-1.141 10.71,2.683 10.71,2.683c0,0 -1.665,5.349 -4.261,8.587c0,0 -2.324,5.066 -11.166,6.237c-8.843,1.171 -22.723,-3.719 -22.723,-3.719Z" style="fill:#e73325;fill-rule:nonzero;"/><path d="M362.09,54.151l0.42,1.456c0.259,0.899 1.093,1.921 1.965,2.267c3.018,1.199 10.646,3.847 20.552,2.015c6.209,-1.148 9.009,-2.742 10.127,-3.943c1.096,-1.178 1.17,-2.005 1.037,-2.897l-0.212,-1.416c0,0 -1.92,2.675 -12.074,4.663c-10.153,1.988 -21.815,-2.145 -21.815,-2.145Z" style="fill:#2e2c44;fill-rule:nonzero;"/><path d="M390.309,43.352c-0.079,1.571 -1.737,4.447 -3.927,3.092c0,0 0,2.333 0.003,3.946c0.004,2.456 1.446,3.296 3.776,2.809c2.514,-0.526 3.984,-2.553 4.063,-4.997c0.024,-0.747 0.002,-3.398 0.002,-3.398c-1.723,2.371 -3.952,-0.848 -3.917,-1.452Z" style="fill:#fbfdfd;fill-rule:nonzero;"/><path d="M375.819,72.868l0,-5.312l2.064,0l0,3.247c0,1.14 -0.925,2.065 -2.064,2.065Z" style="fill:#2c2c45;fill-rule:nonzero;"/><path d="M386.998,96.493l-11.178,-8.148l-0.003,-2.032c0,0 -2.348,0.394 -2.922,4.882c1.565,3.619 4.34,6.655 8.506,9.02l2.307,-4.095l3.29,0.373Z" style="fill:#00afa6;fill-rule:nonzero;"/><path d="M381.401,100.215c-4.166,-2.365 -6.941,-5.401 -8.506,-9.02c0.574,-4.488 2.922,-4.882 2.922,-4.882l0.003,2.032l11.178,8.148l-3.29,-0.373l-2.307,4.095Z" style="fill:#e73006;fill-rule:nonzero;"/><path d="M387.571,86.804c0,0 2.546,0.382 3.648,2.191c1.1,1.804 0.848,8.706 0.848,8.706l-2.926,-3.335l-2.143,2.127c0.235,-2.3 0.568,-6.59 0.568,-6.59l0.005,-3.099Z" style="fill:#00afa6;fill-rule:nonzero;"/><path d="M392.067,97.701l-2.926,-3.335l-2.143,2.127c0.235,-2.3 0.568,-6.59 0.568,-6.59l0.005,-3.099c0,0 2.546,0.382 3.648,2.191c0.754,1.237 0.872,4.869 0.872,7.031c0,0.992 -0.024,1.675 -0.024,1.675Z" style="fill:#e73006;fill-rule:nonzero;"/><path d="M378.365,168.735c-1.389,-1.029 -2.303,-2.373 -4.376,-3.667c-1.825,-1.14 -2.558,-1.642 -3.723,-3.274c-1.263,-1.769 -2.748,-7.871 -3.55,-13.704c-0.945,-6.882 0.105,-16.216 0.586,-20.075c0.987,-7.915 3.387,-17.526 4.5,-21.964c0.085,-0.335 -1.712,-10.395 -3.699,-11.982c0,0 -2.269,-0.314 -5.177,5.606c-2.907,5.919 -4.336,18.99 -5.143,27.786c-0.397,4.34 -0.818,10.59 0.363,19.439c0.825,6.181 1.692,11.451 3.879,17.291c0.595,1.592 0.644,2.92 1.422,6.09c0.315,1.277 0.619,2.689 1.301,3.813c0.865,1.427 1.896,2.763 3.133,3.888c1.559,1.417 3.458,2.493 5.522,2.91c1.136,0.229 2.329,0.255 3.445,-0.055c1.116,-0.31 2.153,-0.975 2.798,-1.938c0.131,-0.195 0.248,-0.41 0.264,-0.645c0.031,-0.423 -0.264,-0.792 -0.543,-1.112c-1.555,-1.79 -3.501,-3.487 -4.854,-5.422c-1.144,-1.635 -1.725,-2.949 -1.327,-2.905c0.396,0.044 1.002,1.052 2.543,1.861c1.471,0.772 3.377,0.653 3.745,-0.207c0.368,-0.86 0.282,-0.703 -1.109,-1.734Z" style="fill:#b1494d;fill-rule:nonzero;"/><path d="M369.18,91.219c0,0 5.015,10.091 2.763,19.045c-2.048,8.139 -3.202,18.559 -3.649,21.476c-0.447,2.918 -0.934,8.755 -0.795,13.416c0.141,4.661 1.843,14.704 1.843,14.704l-7.829,2.901c0,0 -4.737,-12.818 -5.183,-24.717c-0.446,-11.9 0.698,-26.025 2.631,-34.262c0.844,-3.596 1.846,-11.134 10.219,-12.563Z" style="fill:#00afa6;fill-rule:nonzero;"/><path d="M361.513,162.761c0,0 -4.737,-12.818 -5.183,-24.717c-0.065,-1.732 -0.096,-3.51 -0.096,-5.311c0,-10.574 1.076,-21.912 2.727,-28.951c0.844,-3.596 1.846,-11.134 10.219,-12.563c0,0 3.343,6.726 3.344,14.068c0.001,1.651 -0.168,3.333 -0.581,4.977c-1.006,3.997 -1.796,8.544 -2.393,12.482c-0.618,4.082 -1.028,7.51 -1.256,8.994c-0.394,2.57 -0.819,7.406 -0.819,11.707c0,0.582 0.007,1.154 0.024,1.709c0.141,4.661 1.843,14.704 1.843,14.704l-7.829,2.901Z" style="fill:#e73006;fill-rule:nonzero;"/></g></svg>