<?xml version="1.0" encoding="UTF-8" standalone="no"?><!DOCTYPE svg PUBLIC "-//W3C//DTD SVG 1.1//EN" "http://www.w3.org/Graphics/SVG/1.1/DTD/svg11.dtd"><svg width="100%" height="100%" viewBox="0 0 13109 13542" version="1.1" xmlns="http://www.w3.org/2000/svg" xmlns:xlink="http://www.w3.org/1999/xlink" xml:space="preserve" xmlns:serif="http://www.serif.com/" style="fill-rule:evenodd;clip-rule:evenodd;stroke-miterlimit:10;"><path d="M12121.9,10670.8c-40.562,35.663 -82.128,70.361 -124.698,104.096c-7.108,5.783 -14.458,12.048 -21.687,17.229c-151.501,117.534 -310.556,224.993 -476.14,321.683c-189.998,112.288 -388.309,214.456 -589.271,310.841c-302.073,146.155 -611.476,276.648 -926.979,390.96l-14.217,5.181c-138.794,49.477 -279.154,95.139 -421.081,136.986l-2.53,0.723c-99.035,28.916 -198.753,55.622 -299.153,80.12l-13.735,3.373c-147.79,35.663 -297.066,65.984 -447.827,90.963l-34.699,5.542c-110.2,17.35 -221.162,31.486 -332.888,42.41c-627.946,60.24 -1263.48,11.325 -1887.57,-73.253c-1260.35,-170.962 -2503.95,-491.441 -3638.52,-993.846c-432.301,-190.512 -850.678,-411.174 -1252.04,-660.355c-56.867,-35.421 -113.373,-71.566 -169.517,-108.433c-8.795,-5.903 -17.71,-12.048 -26.505,-17.71c-553.489,-369.997 -1053.36,-820.595 -1285.89,-1389.26c-259.395,-634.814 -93.372,-1439.38 549.152,-1815.16c221.925,-128.914 477.947,-199.155 736.981,-257.106l26.505,-5.903c43.855,-9.639 87.71,-18.916 131.445,-28.193c152.89,-32.409 306.624,-64.578 458.911,-100.601c283.01,-66.626 561.079,-146.144 820.234,-262.89c19.116,-8.514 38.152,-17.309 57.107,-26.385c202.77,-96.384 423.37,-236.624 590.356,-405.056c143.854,-145.421 247.347,-312.166 264.456,-491.08c4.934,-50.827 2.662,-102.096 -6.747,-152.288c-17.831,-95.179 -35.06,-188.191 -48.193,-279.033c-24.096,-170.601 -31.807,-333.732 1.085,-491.08c33.493,-160.36 109.276,-314.696 254.094,-464.333c21.927,-22.65 45.461,-45.18 70.601,-67.59c116.939,-102.604 249.224,-186.268 392.045,-247.949c17.751,-8.032 35.582,-15.542 53.493,-22.53c397.587,-160.962 875.534,-194.576 1322.04,-172.408c417.173,21.419 831.699,79.024 1238.9,172.167c32.289,7.229 64.578,14.819 96.385,22.53c346.534,83.899 687.511,189.282 1020.95,315.539c980.352,368.671 1897.81,899.871 2746.24,1476.49l40.482,27.59c19.839,13.575 39.678,27.229 59.517,40.964c40.642,27.951 81.044,56.064 121.204,84.336c29.879,20.803 59.678,41.767 89.397,62.891l63.975,45.422l39.879,28.674c216.865,156.625 430.237,318.913 627.946,493.007l21.686,19.277c240.962,214.456 459.153,446.502 633.85,705.536c741.077,1099.27 521.32,2622.26 -509.031,3527.92Z" style="fill:#3855be;fill-opacity:0.1;fill-rule:nonzero;"/><path d="M11997.2,3820.58l0,6954.27c-7.108,5.783 -14.458,12.048 -21.687,17.229c-151.501,117.534 -310.556,224.993 -476.14,321.683l-8607.51,0c-432.631,-190.471 -851.331,-411.134 -1253,-660.355c-56.867,-35.421 -113.373,-71.566 -169.517,-108.433c-8.795,-5.903 -17.71,-12.048 -26.505,-17.71l0,-6505.96l10554.4,-0.723Z" style="fill-opacity:0.03;fill-rule:nonzero;"/><path d="M11976.1,1569.93l0,9121.58c-151.501,154.281 -310.557,295.337 -476.14,422.258l-8608.11,0c-432.631,-250.022 -851.331,-539.676 -1253,-866.816c-56.867,-46.496 -113.373,-93.94 -169.517,-142.334l0,-8534.68l10506.8,0Z" style="fill:#fefefe;fill-rule:nonzero;"/><path d="M9450.93,6460.31c-138.797,0 -253.01,114.213 -253.01,253.01c0,138.797 114.213,253.01 253.01,253.01c138.797,0 253.01,-114.213 253.01,-253.01c0,-138.797 -114.213,-253.01 -253.01,-253.01Zm0,457.827c-112.36,0 -204.817,-92.458 -204.817,-204.817c-0.053,-22.898 3.819,-45.637 11.445,-67.228c7.627,-21.591 0,0 0,0c28.446,-82.354 106.467,-137.949 193.595,-137.949c112.359,0 204.817,92.458 204.817,204.817c0,112.36 -92.458,204.817 -204.817,204.817c-0.275,0 -0.55,0 -0.825,-0.001l0.602,0.361Z" style="fill:#ff6584;fill-rule:nonzero;"/><path d="M9528.52,6823.2l31.806,-31.927c2.663,-2.645 4.162,-6.247 4.162,-10c0,-3.753 -1.499,-7.355 -4.162,-10l-57.469,-57.59l57.469,-57.469c2.663,-2.645 4.162,-6.247 4.162,-10c0,-3.753 -1.499,-7.355 -4.162,-10l-31.806,-31.927c-2.666,-2.67 -6.288,-4.172 -10.061,-4.172c-3.772,0 -7.394,1.502 -10.06,4.172l-57.469,57.469l-57.469,-57.469c-2.646,-2.663 -6.247,-4.161 -10,-4.161c-3.753,0 -7.355,1.498 -10,4.161l-31.928,32.53c-2.662,2.645 -4.161,6.247 -4.161,9.999c0,3.753 1.499,7.355 4.161,10l57.47,57.47l-57.47,57.59c-2.662,2.645 -4.161,6.246 -4.161,9.999c0,3.753 1.499,7.355 4.161,10l31.928,31.928c2.645,2.662 6.247,4.161 10,4.161c3.753,0 7.354,-1.499 10,-4.161l57.469,-57.59l57.469,57.59c5.733,5.235 14.711,4.966 20.121,-0.603Z" style="fill:#ff6584;fill-rule:nonzero;"/><path d="M8945.28,8496.32c-12.624,-66.413 -51.354,-125.071 -107.469,-162.769c-56.575,-37.9 -126.082,-51.498 -192.769,-37.711l-7.59,1.807c-13.651,3.153 -26.996,7.507 -39.88,13.012c-93.051,39.973 -153.656,131.968 -153.656,233.243c0,101.51 60.887,193.674 154.259,233.5l7.229,2.891c29.266,11.397 60.4,17.245 91.807,17.245c138.797,0 253.009,-114.213 253.009,-253.01c0,-0.206 0,-0.412 0,-0.618c-0.096,-15.986 -1.75,-31.925 -4.94,-47.59Zm-46.747,77.951c0.057,0.238 0.057,0.485 0,0.723l0,2.289c-16.614,98.107 -102.438,170.619 -201.942,170.619c-29.701,0 -59.051,-6.461 -86.007,-18.933c-2.427,-1.044 -4.799,-2.21 -7.108,-3.494c-13.44,-6.852 -26.053,-15.22 -37.59,-24.94c-46.184,-38.894 -72.884,-96.285 -72.884,-156.665c0,-72.189 38.165,-139.242 100.233,-176.103c12.751,-7.629 26.333,-13.773 40.482,-18.313l7.59,-2.289c17.963,-5.025 36.528,-7.573 55.181,-7.573c112.126,0 204.477,92.073 204.817,204.198c-0.129,10.217 -1.056,20.408 -2.772,30.481Z" style="fill:#3855be;fill-opacity:0.1;fill-rule:nonzero;"/><path d="M8774.07,8653.3l31.927,-31.928c2.663,-2.645 4.161,-6.247 4.161,-10c0,-3.753 -1.498,-7.355 -4.161,-10l-57.469,-57.469l57.469,-57.469c2.67,-2.666 4.172,-6.288 4.172,-10.06c0,-3.773 -1.502,-7.395 -4.172,-10.061l-31.927,-31.807c-2.645,-2.662 -6.247,-4.161 -10,-4.161c-3.753,0 -7.355,1.499 -10,4.161l-57.469,57.711l-57.831,-57.711c-2.645,-2.662 -6.247,-4.161 -10,-4.161c-3.753,0 -7.355,1.499 -10,4.161l-31.927,31.807c-2.67,2.666 -4.172,6.288 -4.172,10.061c0,3.772 1.502,7.394 4.172,10.06l57.589,57.469l-57.589,57.469c-2.663,2.645 -4.161,6.247 -4.161,10c0,3.753 1.498,7.355 4.161,10l31.927,31.928c2.645,2.662 6.247,4.161 10,4.161c3.753,0 7.355,-1.499 10,-4.161l57.59,-57.47l57.469,57.47c2.654,2.737 6.308,4.283 10.12,4.283c3.813,0 7.467,-1.546 10.121,-4.283Z" style="fill:#3855be;fill-opacity:0.1;fill-rule:nonzero;"/><path d="M8196.97,4797.32l-23.012,-23.132c-2.27,-2.355 -5.404,-3.687 -8.675,-3.687c-3.27,0 -6.404,1.332 -8.674,3.687l-144.577,143.251l-61.084,-61.565c-2.266,-2.318 -5.373,-3.625 -8.614,-3.625c-3.241,0 -6.349,1.307 -8.615,3.625l-23.252,23.011c-2.356,2.27 -3.688,5.404 -3.688,8.675c0,3.271 1.332,6.405 3.688,8.675l92.77,93.493c2.27,2.355 5.403,3.687 8.674,3.687c3.271,0 6.405,-1.332 8.675,-3.687l176.263,-174.938c2.43,-2.277 3.811,-5.463 3.811,-8.793c0,-3.272 -1.333,-6.407 -3.69,-8.677Zm0,0l-23.012,-23.132c-2.27,-2.355 -5.404,-3.687 -8.675,-3.687c-3.27,0 -6.404,1.332 -8.674,3.687l-144.577,143.251l-61.084,-61.565c-2.266,-2.318 -5.373,-3.625 -8.614,-3.625c-3.241,0 -6.349,1.307 -8.615,3.625l-23.252,23.011c-2.356,2.27 -3.688,5.404 -3.688,8.675c0,3.271 1.332,6.405 3.688,8.675l92.77,93.493c2.27,2.355 5.403,3.687 8.674,3.687c3.271,0 6.405,-1.332 8.675,-3.687l176.263,-174.938c2.43,-2.277 3.811,-5.463 3.811,-8.793c0,-3.272 -1.333,-6.407 -3.69,-8.677Zm0,0l-23.012,-23.132c-2.27,-2.355 -5.404,-3.687 -8.675,-3.687c-3.27,0 -6.404,1.332 -8.674,3.687l-144.577,143.251l-61.084,-61.565c-2.266,-2.318 -5.373,-3.625 -8.614,-3.625c-3.241,0 -6.349,1.307 -8.615,3.625l-23.252,23.011c-2.356,2.27 -3.688,5.404 -3.688,8.675c0,3.271 1.332,6.405 3.688,8.675l92.77,93.493c2.27,2.355 5.403,3.687 8.674,3.687c3.271,0 6.405,-1.332 8.675,-3.687l176.263,-174.938c2.43,-2.277 3.811,-5.463 3.811,-8.793c0,-3.272 -1.333,-6.407 -3.69,-8.677Zm0,0l-23.012,-23.132c-2.27,-2.355 -5.404,-3.687 -8.675,-3.687c-3.27,0 -6.404,1.332 -8.674,3.687l-144.577,143.251l-61.084,-61.565c-2.266,-2.318 -5.373,-3.625 -8.614,-3.625c-3.241,0 -6.349,1.307 -8.615,3.625l-23.252,23.011c-2.356,2.27 -3.688,5.404 -3.688,8.675c0,3.271 1.332,6.405 3.688,8.675l92.77,93.493c2.27,2.355 5.403,3.687 8.674,3.687c3.271,0 6.405,-1.332 8.675,-3.687l176.263,-174.938c2.43,-2.277 3.811,-5.463 3.811,-8.793c0,-3.272 -1.333,-6.407 -3.69,-8.677Zm-143.252,-182.047c-138.797,0 -253.009,114.213 -253.009,253.01c0,138.797 114.212,253.01 253.009,253.01c138.797,0 253.01,-114.213 253.01,-253.01c0,-138.797 -114.213,-253.01 -253.01,-253.01Zm0,457.827c-112.359,0 -204.817,-92.457 -204.817,-204.817c0,-112.359 92.458,-204.817 204.817,-204.817c112.36,0 204.818,92.458 204.818,204.817c0,0.121 0,0.242 0,0.362c0,112.029 -92.186,204.215 -204.215,204.215c-0.201,0 -0.402,0 -0.603,-0.001l0,0.241Zm143.252,-275.539l-23.012,-23.132c-2.27,-2.356 -5.404,-3.688 -8.675,-3.688c-3.27,0 -6.404,1.332 -8.674,3.688l-144.577,143.251l-61.084,-61.566c-2.266,-2.317 -5.373,-3.624 -8.614,-3.624c-3.241,0 -6.349,1.307 -8.615,3.624l-23.252,23.012c-2.356,2.27 -3.688,5.404 -3.688,8.675c0,3.271 1.332,6.405 3.688,8.675l92.77,93.493c2.27,2.355 5.403,3.687 8.674,3.687c3.271,0 6.405,-1.332 8.675,-3.687l176.263,-174.938c2.508,-2.283 3.94,-5.521 3.94,-8.911c0,-3.334 -1.384,-6.523 -3.819,-8.8l0,0.241Zm0,0l-23.012,-23.132c-2.27,-2.356 -5.404,-3.688 -8.675,-3.688c-3.27,0 -6.404,1.332 -8.674,3.688l-144.577,143.251l-61.084,-61.566c-2.266,-2.317 -5.373,-3.624 -8.614,-3.624c-3.241,0 -6.349,1.307 -8.615,3.624l-23.252,23.012c-2.356,2.27 -3.688,5.404 -3.688,8.675c0,3.271 1.332,6.405 3.688,8.675l92.77,93.493c2.27,2.355 5.403,3.687 8.674,3.687c3.271,0 6.405,-1.332 8.675,-3.687l176.263,-174.938c2.508,-2.283 3.94,-5.521 3.94,-8.911c0,-3.334 -1.384,-6.523 -3.819,-8.8l0,0.241Zm0,0l-23.012,-23.132c-2.27,-2.356 -5.404,-3.688 -8.675,-3.688c-3.27,0 -6.404,1.332 -8.674,3.688l-144.577,143.251l-61.084,-61.566c-2.266,-2.317 -5.373,-3.624 -8.614,-3.624c-3.241,0 -6.349,1.307 -8.615,3.624l-23.252,23.012c-2.356,2.27 -3.688,5.404 -3.688,8.675c0,3.271 1.332,6.405 3.688,8.675l92.77,93.493c2.27,2.355 5.403,3.687 8.674,3.687c3.271,0 6.405,-1.332 8.675,-3.687l176.263,-174.938c2.508,-2.283 3.94,-5.521 3.94,-8.911c0,-3.334 -1.384,-6.523 -3.819,-8.8l0,0.241Zm0,0l-23.012,-23.132c-2.27,-2.356 -5.404,-3.688 -8.675,-3.688c-3.27,0 -6.404,1.332 -8.674,3.688l-144.577,143.251l-61.084,-61.566c-2.266,-2.317 -5.373,-3.624 -8.614,-3.624c-3.241,0 -6.349,1.307 -8.615,3.624l-23.252,23.012c-2.356,2.27 -3.688,5.404 -3.688,8.675c0,3.271 1.332,6.405 3.688,8.675l92.77,93.493c2.27,2.355 5.403,3.687 8.674,3.687c3.271,0 6.405,-1.332 8.675,-3.687l176.263,-174.938c2.508,-2.283 3.94,-5.521 3.94,-8.911c0,-3.334 -1.384,-6.523 -3.819,-8.8l0,0.241Zm0,0l-23.012,-23.132c-2.27,-2.356 -5.404,-3.688 -8.675,-3.688c-3.27,0 -6.404,1.332 -8.674,3.688l-144.577,143.251l-61.084,-61.566c-2.266,-2.317 -5.373,-3.624 -8.614,-3.624c-3.241,0 -6.349,1.307 -8.615,3.624l-23.252,23.012c-2.356,2.27 -3.688,5.404 -3.688,8.675c0,3.271 1.332,6.405 3.688,8.675l92.77,93.493c2.27,2.355 5.403,3.687 8.674,3.687c3.271,0 6.405,-1.332 8.675,-3.687l176.263,-174.938c2.508,-2.283 3.94,-5.521 3.94,-8.911c0,-3.334 -1.384,-6.523 -3.819,-8.8l0,0.241Z" style="fill:#3acc6c;fill-opacity:0.7;fill-rule:nonzero;"/><path d="M8645.28,6642.48l-23.012,-23.253c-2.27,-2.355 -5.404,-3.687 -8.675,-3.687c-3.27,0 -6.404,1.332 -8.674,3.687l-144.577,143.252l-61.084,-61.566c-2.27,-2.355 -5.404,-3.687 -8.675,-3.687c-3.27,0 -6.404,1.332 -8.674,3.687l-23.253,23.012c-2.355,2.27 -3.687,5.404 -3.687,8.675c0,3.271 1.332,6.405 3.687,8.674l92.65,93.494c2.27,2.355 5.404,3.687 8.674,3.687c3.271,0 6.405,-1.332 8.675,-3.687l176.384,-174.939c2.429,-2.276 3.809,-5.461 3.809,-8.79c0,-3.214 -1.285,-6.297 -3.568,-8.559Zm0,0l-23.012,-23.253c-2.27,-2.355 -5.404,-3.687 -8.675,-3.687c-3.27,0 -6.404,1.332 -8.674,3.687l-144.577,143.252l-61.084,-61.566c-2.27,-2.355 -5.404,-3.687 -8.675,-3.687c-3.27,0 -6.404,1.332 -8.674,3.687l-23.253,23.012c-2.355,2.27 -3.687,5.404 -3.687,8.675c0,3.271 1.332,6.405 3.687,8.674l92.65,93.494c2.27,2.355 5.404,3.687 8.674,3.687c3.271,0 6.405,-1.332 8.675,-3.687l176.384,-174.939c2.429,-2.276 3.809,-5.461 3.809,-8.79c0,-3.214 -1.285,-6.297 -3.568,-8.559Zm0,0l-23.012,-23.253c-2.27,-2.355 -5.404,-3.687 -8.675,-3.687c-3.27,0 -6.404,1.332 -8.674,3.687l-144.577,143.252l-61.084,-61.566c-2.27,-2.355 -5.404,-3.687 -8.675,-3.687c-3.27,0 -6.404,1.332 -8.674,3.687l-23.253,23.012c-2.355,2.27 -3.687,5.404 -3.687,8.675c0,3.271 1.332,6.405 3.687,8.674l92.65,93.494c2.27,2.355 5.404,3.687 8.674,3.687c3.271,0 6.405,-1.332 8.675,-3.687l176.384,-174.939c2.429,-2.276 3.809,-5.461 3.809,-8.79c0,-3.214 -1.285,-6.297 -3.568,-8.559Zm0,0l-23.012,-23.253c-2.27,-2.355 -5.404,-3.687 -8.675,-3.687c-3.27,0 -6.404,1.332 -8.674,3.687l-144.577,143.252l-61.084,-61.566c-2.27,-2.355 -5.404,-3.687 -8.675,-3.687c-3.27,0 -6.404,1.332 -8.674,3.687l-23.253,23.012c-2.355,2.27 -3.687,5.404 -3.687,8.675c0,3.271 1.332,6.405 3.687,8.674l92.65,93.494c2.27,2.355 5.404,3.687 8.674,3.687c3.271,0 6.405,-1.332 8.675,-3.687l176.384,-174.939c2.429,-2.276 3.809,-5.461 3.809,-8.79c0,-3.214 -1.285,-6.297 -3.568,-8.559Zm-143.252,-182.167c-138.797,0 -253.009,114.213 -253.009,253.01c0,138.797 114.212,253.01 253.009,253.01c138.797,0 253.01,-114.213 253.01,-253.01c0,-138.797 -114.213,-253.01 -253.01,-253.01Zm0,457.827c-112.359,0 -204.817,-92.458 -204.817,-204.817c0,-112.36 92.458,-204.817 204.817,-204.817c112.36,0 204.818,92.457 204.818,204.817c0,0.161 0,0.322 0,0.483c0,112.029 -92.186,204.215 -204.215,204.215c-0.201,0 -0.402,-0.001 -0.603,-0.001l0,0.12Zm143.252,-275.539l-23.012,-23.253c-2.27,-2.355 -5.404,-3.687 -8.675,-3.687c-3.27,0 -6.404,1.332 -8.674,3.687l-144.577,143.252l-61.084,-61.566c-2.27,-2.355 -5.404,-3.687 -8.675,-3.687c-3.27,0 -6.404,1.332 -8.674,3.687l-23.253,23.012c-2.355,2.27 -3.687,5.403 -3.687,8.674c0,3.271 1.332,6.405 3.687,8.675l92.65,93.493c2.27,2.355 5.404,3.687 8.674,3.687c3.271,0 6.405,-1.332 8.675,-3.687l176.384,-174.938c2.467,-2.28 3.872,-5.49 3.872,-8.849c0,-3.244 -1.31,-6.355 -3.631,-8.621l0,0.121Zm0,0l-23.012,-23.253c-2.27,-2.355 -5.404,-3.687 -8.675,-3.687c-3.27,0 -6.404,1.332 -8.674,3.687l-144.577,143.252l-61.084,-61.566c-2.27,-2.355 -5.404,-3.687 -8.675,-3.687c-3.27,0 -6.404,1.332 -8.674,3.687l-23.253,23.012c-2.355,2.27 -3.687,5.403 -3.687,8.674c0,3.271 1.332,6.405 3.687,8.675l92.65,93.493c2.27,2.355 5.404,3.687 8.674,3.687c3.271,0 6.405,-1.332 8.675,-3.687l176.384,-174.938c2.467,-2.28 3.872,-5.49 3.872,-8.849c0,-3.244 -1.31,-6.355 -3.631,-8.621l0,0.121Zm0,0l-23.012,-23.253c-2.27,-2.355 -5.404,-3.687 -8.675,-3.687c-3.27,0 -6.404,1.332 -8.674,3.687l-144.577,143.252l-61.084,-61.566c-2.27,-2.355 -5.404,-3.687 -8.675,-3.687c-3.27,0 -6.404,1.332 -8.674,3.687l-23.253,23.012c-2.355,2.27 -3.687,5.403 -3.687,8.674c0,3.271 1.332,6.405 3.687,8.675l92.65,93.493c2.27,2.355 5.404,3.687 8.674,3.687c3.271,0 6.405,-1.332 8.675,-3.687l176.384,-174.938c2.467,-2.28 3.872,-5.49 3.872,-8.849c0,-3.244 -1.31,-6.355 -3.631,-8.621l0,0.121Zm0,0l-23.012,-23.253c-2.27,-2.355 -5.404,-3.687 -8.675,-3.687c-3.27,0 -6.404,1.332 -8.674,3.687l-144.577,143.252l-61.084,-61.566c-2.27,-2.355 -5.404,-3.687 -8.675,-3.687c-3.27,0 -6.404,1.332 -8.674,3.687l-23.253,23.012c-2.355,2.27 -3.687,5.403 -3.687,8.674c0,3.271 1.332,6.405 3.687,8.675l92.65,93.493c2.27,2.355 5.404,3.687 8.674,3.687c3.271,0 6.405,-1.332 8.675,-3.687l176.384,-174.938c2.467,-2.28 3.872,-5.49 3.872,-8.849c0,-3.244 -1.31,-6.355 -3.631,-8.621l0,0.121Zm0,0l-23.012,-23.253c-2.27,-2.355 -5.404,-3.687 -8.675,-3.687c-3.27,0 -6.404,1.332 -8.674,3.687l-144.577,143.252l-61.084,-61.566c-2.27,-2.355 -5.404,-3.687 -8.675,-3.687c-3.27,0 -6.404,1.332 -8.674,3.687l-23.253,23.012c-2.355,2.27 -3.687,5.403 -3.687,8.674c0,3.271 1.332,6.405 3.687,8.675l92.65,93.493c2.27,2.355 5.404,3.687 8.674,3.687c3.271,0 6.405,-1.332 8.675,-3.687l176.384,-174.938c2.467,-2.28 3.872,-5.49 3.872,-8.849c0,-3.244 -1.31,-6.355 -3.631,-8.621l0,0.121Z" style="fill:#3855be;fill-opacity:0.1;fill-rule:nonzero;"/><path d="M7887.82,8487.52l-23.012,-23.253c-2.27,-2.355 -5.403,-3.687 -8.674,-3.687c-3.271,0 -6.405,1.332 -8.675,3.687l-144.577,143.252l-61.084,-61.566c-2.27,-2.355 -5.403,-3.687 -8.674,-3.687c-3.271,0 -6.405,1.332 -8.675,3.687l-23.253,23.012c-2.355,2.27 -3.687,5.404 -3.687,8.675c0,3.271 1.332,6.404 3.687,8.674l92.65,93.493c2.27,2.355 5.404,3.687 8.675,3.687c3.271,0 6.404,-1.332 8.674,-3.687l176.384,-174.938c2.429,-2.276 3.809,-5.461 3.809,-8.79c0,-3.214 -1.285,-6.297 -3.568,-8.559Zm0,0l-23.012,-23.253c-2.27,-2.355 -5.403,-3.687 -8.674,-3.687c-3.271,0 -6.405,1.332 -8.675,3.687l-144.577,143.252l-61.084,-61.566c-2.27,-2.355 -5.403,-3.687 -8.674,-3.687c-3.271,0 -6.405,1.332 -8.675,3.687l-23.253,23.012c-2.355,2.27 -3.687,5.404 -3.687,8.675c0,3.271 1.332,6.404 3.687,8.674l92.65,93.493c2.27,2.355 5.404,3.687 8.675,3.687c3.271,0 6.404,-1.332 8.674,-3.687l176.384,-174.938c2.429,-2.276 3.809,-5.461 3.809,-8.79c0,-3.214 -1.285,-6.297 -3.568,-8.559Zm0,0l-23.012,-23.253c-2.27,-2.355 -5.403,-3.687 -8.674,-3.687c-3.271,0 -6.405,1.332 -8.675,3.687l-144.577,143.252l-61.084,-61.566c-2.27,-2.355 -5.403,-3.687 -8.674,-3.687c-3.271,0 -6.405,1.332 -8.675,3.687l-23.253,23.012c-2.355,2.27 -3.687,5.404 -3.687,8.675c0,3.271 1.332,6.404 3.687,8.674l92.65,93.493c2.27,2.355 5.404,3.687 8.675,3.687c3.271,0 6.404,-1.332 8.674,-3.687l176.384,-174.938c2.429,-2.276 3.809,-5.461 3.809,-8.79c0,-3.214 -1.285,-6.297 -3.568,-8.559Zm0,0l-23.012,-23.253c-2.27,-2.355 -5.403,-3.687 -8.674,-3.687c-3.271,0 -6.405,1.332 -8.675,3.687l-144.577,143.252l-61.084,-61.566c-2.27,-2.355 -5.403,-3.687 -8.674,-3.687c-3.271,0 -6.405,1.332 -8.675,3.687l-23.253,23.012c-2.355,2.27 -3.687,5.404 -3.687,8.675c0,3.271 1.332,6.404 3.687,8.674l92.65,93.493c2.27,2.355 5.404,3.687 8.675,3.687c3.271,0 6.404,-1.332 8.674,-3.687l176.384,-174.938c2.429,-2.276 3.809,-5.461 3.809,-8.79c0,-3.214 -1.285,-6.297 -3.568,-8.559Zm-143.252,-182.167c-138.797,0 -253.009,114.213 -253.009,253.01c0,138.797 114.212,253.009 253.009,253.009c138.797,0 253.01,-114.212 253.01,-253.009c0,-138.797 -114.213,-253.01 -253.01,-253.01Zm0,457.827c-112.359,0 -204.817,-92.458 -204.817,-204.817c0,-112.36 92.458,-204.818 204.817,-204.818c112.36,0 204.818,92.458 204.818,204.818c0,0.201 0.001,0.402 0.001,0.603c0,111.963 -92.132,204.095 -204.095,204.095c-0.241,0 -0.482,-0.001 -0.724,-0.001l0,0.12Zm143.252,-275.54l-23.012,-23.252c-2.27,-2.355 -5.403,-3.687 -8.674,-3.687c-3.271,0 -6.405,1.332 -8.675,3.687l-144.577,143.251l-61.084,-61.565c-2.27,-2.355 -5.403,-3.687 -8.674,-3.687c-3.271,0 -6.405,1.332 -8.675,3.687l-23.253,23.012c-2.355,2.269 -3.687,5.403 -3.687,8.674c0,3.271 1.332,6.405 3.687,8.675l92.65,93.493c2.27,2.355 5.404,3.687 8.675,3.687c3.271,0 6.404,-1.332 8.674,-3.687l176.384,-174.938c2.467,-2.28 3.872,-5.49 3.872,-8.85c0,-3.243 -1.31,-6.354 -3.631,-8.62l0,0.12Zm0,0l-23.012,-23.252c-2.27,-2.355 -5.403,-3.687 -8.674,-3.687c-3.271,0 -6.405,1.332 -8.675,3.687l-144.577,143.251l-61.084,-61.565c-2.27,-2.355 -5.403,-3.687 -8.674,-3.687c-3.271,0 -6.405,1.332 -8.675,3.687l-23.253,23.012c-2.355,2.269 -3.687,5.403 -3.687,8.674c0,3.271 1.332,6.405 3.687,8.675l92.65,93.493c2.27,2.355 5.404,3.687 8.675,3.687c3.271,0 6.404,-1.332 8.674,-3.687l176.384,-174.938c2.467,-2.28 3.872,-5.49 3.872,-8.85c0,-3.243 -1.31,-6.354 -3.631,-8.62l0,0.12Zm0,0l-23.012,-23.252c-2.27,-2.355 -5.403,-3.687 -8.674,-3.687c-3.271,0 -6.405,1.332 -8.675,3.687l-144.577,143.251l-61.084,-61.565c-2.27,-2.355 -5.403,-3.687 -8.674,-3.687c-3.271,0 -6.405,1.332 -8.675,3.687l-23.253,23.012c-2.355,2.269 -3.687,5.403 -3.687,8.674c0,3.271 1.332,6.405 3.687,8.675l92.65,93.493c2.27,2.355 5.404,3.687 8.675,3.687c3.271,0 6.404,-1.332 8.674,-3.687l176.384,-174.938c2.467,-2.28 3.872,-5.49 3.872,-8.85c0,-3.243 -1.31,-6.354 -3.631,-8.62l0,0.12Zm0,0l-23.012,-23.252c-2.27,-2.355 -5.403,-3.687 -8.674,-3.687c-3.271,0 -6.405,1.332 -8.675,3.687l-144.577,143.251l-61.084,-61.565c-2.27,-2.355 -5.403,-3.687 -8.674,-3.687c-3.271,0 -6.405,1.332 -8.675,3.687l-23.253,23.012c-2.355,2.269 -3.687,5.403 -3.687,8.674c0,3.271 1.332,6.405 3.687,8.675l92.65,93.493c2.27,2.355 5.404,3.687 8.675,3.687c3.271,0 6.404,-1.332 8.674,-3.687l176.384,-174.938c2.467,-2.28 3.872,-5.49 3.872,-8.85c0,-3.243 -1.31,-6.354 -3.631,-8.62l0,0.12Zm0,0l-23.012,-23.252c-2.27,-2.355 -5.403,-3.687 -8.674,-3.687c-3.271,0 -6.405,1.332 -8.675,3.687l-144.577,143.251l-61.084,-61.565c-2.27,-2.355 -5.403,-3.687 -8.674,-3.687c-3.271,0 -6.405,1.332 -8.675,3.687l-23.253,23.012c-2.355,2.269 -3.687,5.403 -3.687,8.674c0,3.271 1.332,6.405 3.687,8.675l92.65,93.493c2.27,2.355 5.404,3.687 8.675,3.687c3.271,0 6.404,-1.332 8.674,-3.687l176.384,-174.938c2.467,-2.28 3.872,-5.49 3.872,-8.85c0,-3.243 -1.31,-6.354 -3.631,-8.62l0,0.12Z" style="fill:#3acc6c;fill-opacity:0.7;fill-rule:nonzero;"/><path d="M7402.04,10332.6l-23.012,-23.132c-2.27,-2.355 -5.404,-3.687 -8.675,-3.687c-3.271,0 -6.405,1.332 -8.674,3.687l-144.577,143.251l-61.084,-61.565c-2.27,-2.356 -5.404,-3.688 -8.675,-3.688c-3.271,0 -6.405,1.332 -8.674,3.688l-23.133,23.132c-2.317,2.266 -3.625,5.373 -3.625,8.614c0,3.241 1.308,6.349 3.625,8.615l92.77,93.493c2.27,2.355 5.404,3.687 8.675,3.687c3.271,0 6.405,-1.332 8.675,-3.687l176.263,-174.938c2.43,-2.277 3.811,-5.463 3.811,-8.793c0,-3.272 -1.333,-6.407 -3.69,-8.677Zm0,0l-23.012,-23.132c-2.27,-2.355 -5.404,-3.687 -8.675,-3.687c-3.271,0 -6.405,1.332 -8.674,3.687l-144.577,143.251l-61.084,-61.565c-2.27,-2.356 -5.404,-3.688 -8.675,-3.688c-3.271,0 -6.405,1.332 -8.674,3.688l-23.133,23.132c-2.317,2.266 -3.625,5.373 -3.625,8.614c0,3.241 1.308,6.349 3.625,8.615l92.77,93.493c2.27,2.355 5.404,3.687 8.675,3.687c3.271,0 6.405,-1.332 8.675,-3.687l176.263,-174.938c2.43,-2.277 3.811,-5.463 3.811,-8.793c0,-3.272 -1.333,-6.407 -3.69,-8.677Zm0,0l-23.012,-23.132c-2.27,-2.355 -5.404,-3.687 -8.675,-3.687c-3.271,0 -6.405,1.332 -8.674,3.687l-144.577,143.251l-61.084,-61.565c-2.27,-2.356 -5.404,-3.688 -8.675,-3.688c-3.271,0 -6.405,1.332 -8.674,3.688l-23.133,23.132c-2.317,2.266 -3.625,5.373 -3.625,8.614c0,3.241 1.308,6.349 3.625,8.615l92.77,93.493c2.27,2.355 5.404,3.687 8.675,3.687c3.271,0 6.405,-1.332 8.675,-3.687l176.263,-174.938c2.43,-2.277 3.811,-5.463 3.811,-8.793c0,-3.272 -1.333,-6.407 -3.69,-8.677Zm0,0l-23.012,-23.132c-2.27,-2.355 -5.404,-3.687 -8.675,-3.687c-3.271,0 -6.405,1.332 -8.674,3.687l-144.577,143.251l-61.084,-61.565c-2.27,-2.356 -5.404,-3.688 -8.675,-3.688c-3.271,0 -6.405,1.332 -8.674,3.688l-23.133,23.132c-2.317,2.266 -3.625,5.373 -3.625,8.614c0,3.241 1.308,6.349 3.625,8.615l92.77,93.493c2.27,2.355 5.404,3.687 8.675,3.687c3.271,0 6.405,-1.332 8.675,-3.687l176.263,-174.938c2.43,-2.277 3.811,-5.463 3.811,-8.793c0,-3.272 -1.333,-6.407 -3.69,-8.677Zm-143.252,-182.047c-138.797,0 -253.01,114.213 -253.01,253.01c0,138.797 114.213,253.01 253.01,253.01c138.797,0 253.01,-114.213 253.01,-253.01c0,-138.797 -114.213,-253.01 -253.01,-253.01Zm0,457.827c-112.36,0 -204.817,-92.457 -204.817,-204.817c0,-112.359 92.457,-204.817 204.817,-204.817c112.359,0 204.817,92.458 204.817,204.817c-0.066,112.314 -92.503,204.697 -204.817,204.697l0,0.12Zm143.252,-275.66l-23.012,-23.132c-2.27,-2.355 -5.404,-3.687 -8.675,-3.687c-3.271,0 -6.405,1.332 -8.674,3.687l-144.577,143.252l-61.084,-61.566c-2.27,-2.355 -5.404,-3.687 -8.675,-3.687c-3.271,0 -6.405,1.332 -8.674,3.687l-23.133,23.132c-2.317,2.266 -3.625,5.374 -3.625,8.615c0,3.241 1.308,6.348 3.625,8.614l92.77,93.493c2.27,2.355 5.404,3.687 8.675,3.687c3.271,0 6.405,-1.332 8.675,-3.687l176.263,-174.938c2.469,-2.28 3.875,-5.491 3.875,-8.851c0,-3.303 -1.359,-6.465 -3.754,-8.739l0,0.12Zm0,0l-23.012,-23.132c-2.27,-2.355 -5.404,-3.687 -8.675,-3.687c-3.271,0 -6.405,1.332 -8.674,3.687l-144.577,143.252l-61.084,-61.566c-2.27,-2.355 -5.404,-3.687 -8.675,-3.687c-3.271,0 -6.405,1.332 -8.674,3.687l-23.133,23.132c-2.317,2.266 -3.625,5.374 -3.625,8.615c0,3.241 1.308,6.348 3.625,8.614l92.77,93.493c2.27,2.355 5.404,3.687 8.675,3.687c3.271,0 6.405,-1.332 8.675,-3.687l176.263,-174.938c2.469,-2.28 3.875,-5.491 3.875,-8.851c0,-3.303 -1.359,-6.465 -3.754,-8.739l0,0.12Zm0,0l-23.012,-23.132c-2.27,-2.355 -5.404,-3.687 -8.675,-3.687c-3.271,0 -6.405,1.332 -8.674,3.687l-144.577,143.252l-61.084,-61.566c-2.27,-2.355 -5.404,-3.687 -8.675,-3.687c-3.271,0 -6.405,1.332 -8.674,3.687l-23.133,23.132c-2.317,2.266 -3.625,5.374 -3.625,8.615c0,3.241 1.308,6.348 3.625,8.614l92.77,93.493c2.27,2.355 5.404,3.687 8.675,3.687c3.271,0 6.405,-1.332 8.675,-3.687l176.263,-174.938c2.469,-2.28 3.875,-5.491 3.875,-8.851c0,-3.303 -1.359,-6.465 -3.754,-8.739l0,0.12Zm0,0l-23.012,-23.132c-2.27,-2.355 -5.404,-3.687 -8.675,-3.687c-3.271,0 -6.405,1.332 -8.674,3.687l-144.577,143.252l-61.084,-61.566c-2.27,-2.355 -5.404,-3.687 -8.675,-3.687c-3.271,0 -6.405,1.332 -8.674,3.687l-23.133,23.132c-2.317,2.266 -3.625,5.374 -3.625,8.615c0,3.241 1.308,6.348 3.625,8.614l92.77,93.493c2.27,2.355 5.404,3.687 8.675,3.687c3.271,0 6.405,-1.332 8.675,-3.687l176.263,-174.938c2.469,-2.28 3.875,-5.491 3.875,-8.851c0,-3.303 -1.359,-6.465 -3.754,-8.739l0,0.12Zm0,0l-23.012,-23.132c-2.27,-2.355 -5.404,-3.687 -8.675,-3.687c-3.271,0 -6.405,1.332 -8.674,3.687l-144.577,143.252l-61.084,-61.566c-2.27,-2.355 -5.404,-3.687 -8.675,-3.687c-3.271,0 -6.405,1.332 -8.674,3.687l-23.133,23.132c-2.317,2.266 -3.625,5.374 -3.625,8.615c0,3.241 1.308,6.348 3.625,8.614l92.77,93.493c2.27,2.355 5.404,3.687 8.675,3.687c3.271,0 6.405,-1.332 8.675,-3.687l176.263,-174.938c2.469,-2.28 3.875,-5.491 3.875,-8.851c0,-3.303 -1.359,-6.465 -3.754,-8.739l0,0.12Z" style="fill:#3855be;fill-opacity:0.1;fill-rule:nonzero;"/><path d="M10327.4,5719.84l-23.012,-22.771c-2.27,-2.355 -5.404,-3.687 -8.675,-3.687c-3.271,0 -6.404,1.332 -8.674,3.687l-75.18,74.698l-27.109,26.868l-2.289,2.168l-14.096,14.097l-25.18,24.939l-61.084,-61.566c-2.27,-2.355 -5.404,-3.687 -8.675,-3.687c-3.271,0 -6.405,1.332 -8.674,3.687l-23.253,23.012c-2.355,2.27 -3.687,5.404 -3.687,8.675c0,3.271 1.332,6.405 3.687,8.675l87.469,88.312l5.18,5.181c1.933,1.918 4.42,3.183 7.109,3.614c3.771,0.52 7.574,-0.778 10.241,-3.494l73.011,-72.288l24.096,-24.097l79.036,-78.433c2.36,-2.27 3.695,-5.407 3.695,-8.682c0,-3.389 -1.43,-6.626 -3.936,-8.908Zm0,0l-23.012,-22.771c-2.27,-2.355 -5.404,-3.687 -8.675,-3.687c-3.271,0 -6.404,1.332 -8.674,3.687l-75.18,74.698l-27.109,26.868l-2.289,2.168l-14.096,14.097l-25.18,24.939l-61.084,-61.566c-2.27,-2.355 -5.404,-3.687 -8.675,-3.687c-3.271,0 -6.405,1.332 -8.674,3.687l-23.253,23.012c-2.355,2.27 -3.687,5.404 -3.687,8.675c0,3.271 1.332,6.405 3.687,8.675l87.469,88.312l5.18,5.181c1.933,1.918 4.42,3.183 7.109,3.614c3.771,0.52 7.574,-0.778 10.241,-3.494l73.011,-72.288l24.096,-24.097l79.036,-78.433c2.36,-2.27 3.695,-5.407 3.695,-8.682c0,-3.389 -1.43,-6.626 -3.936,-8.908Zm0,0l-23.012,-22.771c-2.27,-2.355 -5.404,-3.687 -8.675,-3.687c-3.271,0 -6.404,1.332 -8.674,3.687l-75.18,74.698l-27.109,26.868l-2.289,2.168l-14.096,14.097l-25.18,24.939l-61.084,-61.566c-2.27,-2.355 -5.404,-3.687 -8.675,-3.687c-3.271,0 -6.405,1.332 -8.674,3.687l-23.253,23.012c-2.355,2.27 -3.687,5.404 -3.687,8.675c0,3.271 1.332,6.405 3.687,8.675l87.469,88.312l5.18,5.181c1.933,1.918 4.42,3.183 7.109,3.614c3.771,0.52 7.574,-0.778 10.241,-3.494l73.011,-72.288l24.096,-24.097l79.036,-78.433c2.36,-2.27 3.695,-5.407 3.695,-8.682c0,-3.389 -1.43,-6.626 -3.936,-8.908Zm0,0l-23.012,-22.771c-2.27,-2.355 -5.404,-3.687 -8.675,-3.687c-3.271,0 -6.404,1.332 -8.674,3.687l-75.18,74.698l-27.109,26.868l-2.289,2.168l-14.096,14.097l-25.18,24.939l-61.084,-61.566c-2.27,-2.355 -5.404,-3.687 -8.675,-3.687c-3.271,0 -6.405,1.332 -8.674,3.687l-23.253,23.012c-2.355,2.27 -3.687,5.404 -3.687,8.675c0,3.271 1.332,6.405 3.687,8.675l87.469,88.312l5.18,5.181c1.933,1.918 4.42,3.183 7.109,3.614c3.771,0.52 7.574,-0.778 10.241,-3.494l73.011,-72.288l24.096,-24.097l79.036,-78.433c2.36,-2.27 3.695,-5.407 3.695,-8.682c0,-3.389 -1.43,-6.626 -3.936,-8.908Zm-143.252,-182.046c-0.703,-0.006 -1.406,-0.009 -2.11,-0.009c-138.797,0 -253.009,114.213 -253.009,253.01c0,108.188 69.393,204.948 171.867,239.645c2.65,0.964 5.301,1.927 8.072,2.65c55.272,17.277 114.835,15.065 168.673,-6.265c12.542,-4.934 24.635,-10.94 36.144,-17.951c77.183,-45.405 124.722,-128.527 124.722,-218.074c0,-138.797 -114.212,-253.01 -253.009,-253.01c-0.45,0 -0.9,0.001 -1.35,0.004Zm89.758,436.984c-8.49,4.191 -17.267,7.774 -26.265,10.722c-38.375,12.411 -79.562,13.291 -118.432,2.531c-5.422,-1.567 -10.844,-3.253 -16.024,-5.181c-80.279,-29.627 -133.905,-106.579 -133.905,-192.15c0,-112.359 92.458,-204.817 204.818,-204.817c112.359,0 204.817,92.458 204.817,204.817c0,78.172 -44.753,149.801 -115.009,184.078Zm53.494,-254.938l-23.012,-22.771c-2.27,-2.355 -5.404,-3.687 -8.675,-3.687c-3.271,0 -6.404,1.332 -8.674,3.687l-75.18,74.698l-27.109,26.868l-2.289,2.168l-14.096,14.097l-25.18,24.939l-61.084,-61.566c-2.27,-2.355 -5.404,-3.687 -8.675,-3.687c-3.271,0 -6.405,1.332 -8.674,3.687l-23.253,23.012c-2.355,2.27 -3.687,5.404 -3.687,8.675c0,3.271 1.332,6.405 3.687,8.675l87.469,88.312l5.18,5.181c1.933,1.918 4.42,3.183 7.109,3.614c3.771,0.52 7.574,-0.778 10.241,-3.494l73.011,-72.288l24.096,-24.097l79.036,-78.433c2.36,-2.27 3.695,-5.407 3.695,-8.682c0,-3.389 -1.43,-6.626 -3.936,-8.908Zm0,0l-23.012,-22.771c-2.27,-2.355 -5.404,-3.687 -8.675,-3.687c-3.271,0 -6.404,1.332 -8.674,3.687l-75.18,74.698l-27.109,26.868l-2.289,2.168l-14.096,14.097l-25.18,24.939l-61.084,-61.566c-2.27,-2.355 -5.404,-3.687 -8.675,-3.687c-3.271,0 -6.405,1.332 -8.674,3.687l-23.253,23.012c-2.355,2.27 -3.687,5.404 -3.687,8.675c0,3.271 1.332,6.405 3.687,8.675l87.469,88.312l5.18,5.181c1.933,1.918 4.42,3.183 7.109,3.614c3.771,0.52 7.574,-0.778 10.241,-3.494l73.011,-72.288l24.096,-24.097l79.036,-78.433c2.36,-2.27 3.695,-5.407 3.695,-8.682c0,-3.389 -1.43,-6.626 -3.936,-8.908Zm0,0l-23.012,-22.771c-2.27,-2.355 -5.404,-3.687 -8.675,-3.687c-3.271,0 -6.404,1.332 -8.674,3.687l-75.18,74.698l-27.109,26.868l-2.289,2.168l-14.096,14.097l-25.18,24.939l-61.084,-61.566c-2.27,-2.355 -5.404,-3.687 -8.675,-3.687c-3.271,0 -6.405,1.332 -8.674,3.687l-23.253,23.012c-2.355,2.27 -3.687,5.404 -3.687,8.675c0,3.271 1.332,6.405 3.687,8.675l87.469,88.312l5.18,5.181c1.933,1.918 4.42,3.183 7.109,3.614c3.771,0.52 7.574,-0.778 10.241,-3.494l73.011,-72.288l24.096,-24.097l79.036,-78.433c2.36,-2.27 3.695,-5.407 3.695,-8.682c0,-3.389 -1.43,-6.626 -3.936,-8.908Zm0,0l-23.012,-22.771c-2.27,-2.355 -5.404,-3.687 -8.675,-3.687c-3.271,0 -6.404,1.332 -8.674,3.687l-75.18,74.698l-27.109,26.868l-2.289,2.168l-14.096,14.097l-25.18,24.939l-61.084,-61.566c-2.27,-2.355 -5.404,-3.687 -8.675,-3.687c-3.271,0 -6.405,1.332 -8.674,3.687l-23.253,23.012c-2.355,2.27 -3.687,5.404 -3.687,8.675c0,3.271 1.332,6.405 3.687,8.675l87.469,88.312l5.18,5.181c1.933,1.918 4.42,3.183 7.109,3.614c3.771,0.52 7.574,-0.778 10.241,-3.494l73.011,-72.288l24.096,-24.097l79.036,-78.433c2.36,-2.27 3.695,-5.407 3.695,-8.682c0,-3.389 -1.43,-6.626 -3.936,-8.908Zm0,0l-23.012,-22.771c-2.27,-2.355 -5.404,-3.687 -8.675,-3.687c-3.271,0 -6.404,1.332 -8.674,3.687l-75.18,74.698l-27.109,26.868l-2.289,2.168l-14.096,14.097l-25.18,24.939l-61.084,-61.566c-2.27,-2.355 -5.404,-3.687 -8.675,-3.687c-3.271,0 -6.405,1.332 -8.674,3.687l-23.253,23.012c-2.355,2.27 -3.687,5.404 -3.687,8.675c0,3.271 1.332,6.405 3.687,8.675l87.469,88.312l5.18,5.181c1.933,1.918 4.42,3.183 7.109,3.614c3.771,0.52 7.574,-0.778 10.241,-3.494l73.011,-72.288l24.096,-24.097l79.036,-78.433c2.36,-2.27 3.695,-5.407 3.695,-8.682c0,-3.389 -1.43,-6.626 -3.936,-8.908Z" style="fill:#3acc6c;fill-opacity:0.7;fill-rule:nonzero;"/><path d="M7549.92,4708.02c0,-46.866 -38.05,-84.916 -84.916,-84.916l-3742.18,0c-46.867,0 -84.917,38.05 -84.917,84.916l0,321.247c0,46.866 38.05,84.916 84.917,84.916l3742.18,0c46.866,0 84.916,-38.05 84.916,-84.916l0,-321.247Z" style="fill:#3855be;fill-opacity:0.2;"/><path d="M9674.13,5630.54c0,-46.867 -38.05,-84.917 -84.917,-84.917l-5866.39,0c-46.867,0 -84.917,38.05 -84.917,84.917l0,321.246c0,46.867 38.05,84.917 84.917,84.917l5866.39,0c46.867,0 84.917,-38.05 84.917,-84.917l0,-321.246Z" style="fill:#3855be;fill-opacity:0.2;"/><path d="M7983.56,6553.06c0,-46.867 -38.05,-84.917 -84.916,-84.917l-4175.82,0c-46.867,0 -84.917,38.05 -84.917,84.917l0,321.247c0,46.866 38.05,84.916 84.917,84.916l4175.82,0c46.866,0 84.916,-38.05 84.916,-84.916l0,-321.247Z" style="fill:#3855be;fill-opacity:0.1;"/><path d="M9132.27,7475.58c0,-46.867 -38.05,-84.917 -84.917,-84.917l-5324.53,0c-46.867,0 -84.917,38.05 -84.917,84.917l0,321.246c0,46.867 38.05,84.917 84.917,84.917l5324.53,0c46.867,0 84.917,-38.05 84.917,-84.917l0,-321.246Z" style="fill:#3855be;fill-opacity:0.1;"/><path d="M7276.09,8398.1c0,-46.867 -38.05,-84.917 -84.916,-84.917l-3468.35,0c-46.867,0 -84.917,38.05 -84.917,84.917l0,321.246c0,46.867 38.05,84.917 84.917,84.917l3468.35,0c46.866,0 84.916,-38.05 84.916,-84.917l0,-321.246Z" style="fill:#3855be;fill-opacity:0.2;"/><path d="M9132.27,9320.75c0,-46.867 -38.05,-84.917 -84.917,-84.917l-5324.53,0c-46.867,0 -84.917,38.05 -84.917,84.917l0,321.246c0,46.867 38.05,84.917 84.917,84.917l5324.53,0c46.867,0 84.917,-38.05 84.917,-84.917l0,-321.246Z" style="fill:#3855be;fill-opacity:0.1;"/><path d="M6755.34,10243.3c0,-46.866 -38.05,-84.916 -84.917,-84.916l-2947.6,0c-46.867,0 -84.917,38.05 -84.917,84.916l0,321.247c0,46.866 38.05,84.916 84.917,84.916l2947.6,0c46.867,0 84.917,-38.05 84.917,-84.916l0,-321.247Z" style="fill:#3855be;fill-opacity:0.1;"/><path d="M9008.53,4615.27c-138.797,0 -253.009,114.213 -253.009,253.01c0,138.797 114.212,253.01 253.009,253.01c138.797,0 253.01,-114.213 253.01,-253.01c0,-138.797 -114.213,-253.01 -253.01,-253.01Zm0,457.827c-112.359,0 -204.817,-92.457 -204.817,-204.817c0,-112.359 92.458,-204.817 204.817,-204.817c112.36,0 204.818,92.458 204.818,204.817c0,0.121 0,0.242 0,0.362c0,112.029 -92.186,204.215 -204.215,204.215c-0.201,0 -0.402,0 -0.603,-0.001l0,0.241Z" style="fill:#3855be;fill-opacity:0.1;fill-rule:nonzero;"/><path d="M9086.12,4978.04l31.927,-31.807c2.67,-2.666 4.172,-6.287 4.172,-10.06c0,-3.773 -1.502,-7.394 -4.172,-10.06l-57.589,-57.47l57.469,-57.469c2.67,-2.666 4.171,-6.287 4.171,-10.06c0,-3.773 -1.501,-7.394 -4.171,-10.06l-31.927,-31.807c-2.646,-2.662 -6.247,-4.161 -10,-4.161c-3.753,0 -7.355,1.499 -10,4.161l-57.47,57.469l-57.469,-57.469c-2.666,-2.67 -6.287,-4.171 -10.06,-4.171c-3.773,0 -7.394,1.501 -10.06,4.171l-31.807,31.807c-2.7,2.65 -4.222,6.277 -4.222,10.06c0,3.783 1.522,7.41 4.222,10.06l57.469,57.469l-57.349,57.349c-2.699,2.65 -4.222,6.278 -4.222,10.06c0,3.783 1.523,7.411 4.222,10.061l31.807,31.807c2.666,2.669 6.288,4.171 10.06,4.171c3.773,0 7.395,-1.502 10.061,-4.171l57.469,-57.47l57.469,57.47c2.65,2.699 6.278,4.221 10.06,4.221c3.724,0 7.3,-1.475 9.94,-4.101Z" style="fill:#3855be;fill-opacity:0.1;fill-rule:nonzero;"/><path d="M11132.7,5537.79c-138.797,0 -253.009,114.212 -253.009,253.009c0,138.797 114.212,253.01 253.009,253.01c138.797,0 253.01,-114.213 253.01,-253.01c0.001,-0.241 0.001,-0.482 0.001,-0.723c0,-138.401 -113.886,-252.287 -252.287,-252.287c-0.241,0 -0.482,0 -0.724,0.001Zm0,457.827c-0.117,0 -0.235,0 -0.352,0c-112.36,0 -204.817,-92.458 -204.817,-204.817c0,-112.36 92.457,-204.818 204.817,-204.818c112.359,0 204.817,92.458 204.817,204.818c0,37.183 -10.125,73.674 -29.286,105.541c-36.96,61.375 -103.534,99.057 -175.179,99.155l0,0.121Z" style="fill:#3855be;fill-opacity:0.1;fill-rule:nonzero;"/><path d="M11210.1,5900.56l31.927,-31.806c2.67,-2.666 4.172,-6.288 4.172,-10.061c0,-3.772 -1.502,-7.394 -4.172,-10.06l-57.589,-57.469l57.589,-57.469c2.663,-2.646 4.162,-6.247 4.162,-10c0,-3.753 -1.499,-7.355 -4.162,-10l-31.927,-31.928c-2.645,-2.662 -6.247,-4.161 -10,-4.161c-3.753,0 -7.355,1.499 -10,4.161l-57.349,57.47l-57.469,-57.47c-2.645,-2.662 -6.247,-4.161 -10,-4.161c-3.753,0 -7.355,1.499 -10,4.161l-31.927,31.928c-2.663,2.645 -4.161,6.247 -4.161,10c0,3.753 1.498,7.354 4.161,10l57.469,57.469l-57.469,57.469c-2.67,2.666 -4.172,6.288 -4.172,10.06c0,3.773 1.502,7.395 4.172,10.061l31.927,31.806c2.612,2.724 6.226,4.266 10,4.266c3.774,0 7.388,-1.542 10,-4.266l57.469,-57.469l57.59,57.469c5.449,5.354 14.31,5.354 19.759,0Z" style="fill:#3855be;fill-opacity:0.1;fill-rule:nonzero;"/><path d="M8196.97,2755.65l-23.012,-23.132c-2.27,-2.355 -5.404,-3.687 -8.675,-3.687c-3.27,0 -6.404,1.332 -8.674,3.687l-144.577,143.252l-61.084,-61.566c-2.266,-2.317 -5.373,-3.625 -8.614,-3.625c-3.241,0 -6.349,1.308 -8.615,3.625l-23.252,23.012c-2.356,2.27 -3.688,5.403 -3.688,8.674c0,3.271 1.332,6.405 3.688,8.675l92.77,93.493c2.27,2.355 5.403,3.687 8.674,3.687c3.271,0 6.405,-1.332 8.675,-3.687l176.263,-174.938c2.43,-2.277 3.811,-5.462 3.811,-8.792c0,-3.273 -1.333,-6.408 -3.69,-8.678Zm0,0l-23.012,-23.132c-2.27,-2.355 -5.404,-3.687 -8.675,-3.687c-3.27,0 -6.404,1.332 -8.674,3.687l-144.577,143.252l-61.084,-61.566c-2.266,-2.317 -5.373,-3.625 -8.614,-3.625c-3.241,0 -6.349,1.308 -8.615,3.625l-23.252,23.012c-2.356,2.27 -3.688,5.403 -3.688,8.674c0,3.271 1.332,6.405 3.688,8.675l92.77,93.493c2.27,2.355 5.403,3.687 8.674,3.687c3.271,0 6.405,-1.332 8.675,-3.687l176.263,-174.938c2.43,-2.277 3.811,-5.462 3.811,-8.792c0,-3.273 -1.333,-6.408 -3.69,-8.678Zm0,0l-23.012,-23.132c-2.27,-2.355 -5.404,-3.687 -8.675,-3.687c-3.27,0 -6.404,1.332 -8.674,3.687l-144.577,143.252l-61.084,-61.566c-2.266,-2.317 -5.373,-3.625 -8.614,-3.625c-3.241,0 -6.349,1.308 -8.615,3.625l-23.252,23.012c-2.356,2.27 -3.688,5.403 -3.688,8.674c0,3.271 1.332,6.405 3.688,8.675l92.77,93.493c2.27,2.355 5.403,3.687 8.674,3.687c3.271,0 6.405,-1.332 8.675,-3.687l176.263,-174.938c2.43,-2.277 3.811,-5.462 3.811,-8.792c0,-3.273 -1.333,-6.408 -3.69,-8.678Zm0,0l-23.012,-23.132c-2.27,-2.355 -5.404,-3.687 -8.675,-3.687c-3.27,0 -6.404,1.332 -8.674,3.687l-144.577,143.252l-61.084,-61.566c-2.266,-2.317 -5.373,-3.625 -8.614,-3.625c-3.241,0 -6.349,1.308 -8.615,3.625l-23.252,23.012c-2.356,2.27 -3.688,5.403 -3.688,8.674c0,3.271 1.332,6.405 3.688,8.675l92.77,93.493c2.27,2.355 5.403,3.687 8.674,3.687c3.271,0 6.405,-1.332 8.675,-3.687l176.263,-174.938c2.43,-2.277 3.811,-5.462 3.811,-8.792c0,-3.273 -1.333,-6.408 -3.69,-8.678Zm-143.252,-182.046c-138.797,0 -253.009,114.212 -253.009,253.009c0,138.797 114.212,253.01 253.009,253.01c138.797,0 253.01,-114.213 253.01,-253.01c0,-138.797 -114.213,-253.009 -253.01,-253.009Zm0,457.827c-112.359,0 -204.817,-92.458 -204.817,-204.818c0,-112.359 92.458,-204.817 204.817,-204.817c112.36,0 204.818,92.458 204.818,204.817c0,0.121 0,0.242 0,0.363c0,112.029 -92.186,204.215 -204.215,204.215c-0.201,0 -0.402,-0.001 -0.603,-0.001l0,0.241Zm143.252,-275.54l-23.012,-23.132c-2.27,-2.355 -5.404,-3.687 -8.675,-3.687c-3.27,0 -6.404,1.332 -8.674,3.687l-144.577,143.252l-61.084,-61.566c-2.266,-2.317 -5.373,-3.625 -8.614,-3.625c-3.241,0 -6.349,1.308 -8.615,3.625l-23.252,23.012c-2.356,2.27 -3.688,5.403 -3.688,8.674c0,3.271 1.332,6.405 3.688,8.675l92.77,93.493c2.27,2.355 5.403,3.687 8.674,3.687c3.271,0 6.405,-1.332 8.675,-3.687l176.263,-174.938c2.508,-2.282 3.94,-5.52 3.94,-8.911c0,-3.334 -1.384,-6.523 -3.819,-8.8l0,0.241Zm0,0l-23.012,-23.132c-2.27,-2.355 -5.404,-3.687 -8.675,-3.687c-3.27,0 -6.404,1.332 -8.674,3.687l-144.577,143.252l-61.084,-61.566c-2.266,-2.317 -5.373,-3.625 -8.614,-3.625c-3.241,0 -6.349,1.308 -8.615,3.625l-23.252,23.012c-2.356,2.27 -3.688,5.403 -3.688,8.674c0,3.271 1.332,6.405 3.688,8.675l92.77,93.493c2.27,2.355 5.403,3.687 8.674,3.687c3.271,0 6.405,-1.332 8.675,-3.687l176.263,-174.938c2.508,-2.282 3.94,-5.52 3.94,-8.911c0,-3.334 -1.384,-6.523 -3.819,-8.8l0,0.241Zm0,0l-23.012,-23.132c-2.27,-2.355 -5.404,-3.687 -8.675,-3.687c-3.27,0 -6.404,1.332 -8.674,3.687l-144.577,143.252l-61.084,-61.566c-2.266,-2.317 -5.373,-3.625 -8.614,-3.625c-3.241,0 -6.349,1.308 -8.615,3.625l-23.252,23.012c-2.356,2.27 -3.688,5.403 -3.688,8.674c0,3.271 1.332,6.405 3.688,8.675l92.77,93.493c2.27,2.355 5.403,3.687 8.674,3.687c3.271,0 6.405,-1.332 8.675,-3.687l176.263,-174.938c2.508,-2.282 3.94,-5.52 3.94,-8.911c0,-3.334 -1.384,-6.523 -3.819,-8.8l0,0.241Zm0,0l-23.012,-23.132c-2.27,-2.355 -5.404,-3.687 -8.675,-3.687c-3.27,0 -6.404,1.332 -8.674,3.687l-144.577,143.252l-61.084,-61.566c-2.266,-2.317 -5.373,-3.625 -8.614,-3.625c-3.241,0 -6.349,1.308 -8.615,3.625l-23.252,23.012c-2.356,2.27 -3.688,5.403 -3.688,8.674c0,3.271 1.332,6.405 3.688,8.675l92.77,93.493c2.27,2.355 5.403,3.687 8.674,3.687c3.271,0 6.405,-1.332 8.675,-3.687l176.263,-174.938c2.508,-2.282 3.94,-5.52 3.94,-8.911c0,-3.334 -1.384,-6.523 -3.819,-8.8l0,0.241Zm0,0l-23.012,-23.132c-2.27,-2.355 -5.404,-3.687 -8.675,-3.687c-3.27,0 -6.404,1.332 -8.674,3.687l-144.577,143.252l-61.084,-61.566c-2.266,-2.317 -5.373,-3.625 -8.614,-3.625c-3.241,0 -6.349,1.308 -8.615,3.625l-23.252,23.012c-2.356,2.27 -3.688,5.403 -3.688,8.674c0,3.271 1.332,6.405 3.688,8.675l92.77,93.493c2.27,2.355 5.403,3.687 8.674,3.687c3.271,0 6.405,-1.332 8.675,-3.687l176.263,-174.938c2.508,-2.282 3.94,-5.52 3.94,-8.911c0,-3.334 -1.384,-6.523 -3.819,-8.8l0,0.241Z" style="fill:#3acc6c;fill-opacity:0.7;fill-rule:nonzero;"/><path d="M10327.4,3678.17l-23.012,-22.771c-2.27,-2.355 -5.404,-3.687 -8.675,-3.687c-3.271,0 -6.404,1.332 -8.674,3.687l-75.18,74.698l-27.109,26.867l-2.289,2.169l-14.096,14.096l-25.18,24.939l-61.084,-61.565c-2.27,-2.355 -5.404,-3.687 -8.675,-3.687c-3.271,0 -6.405,1.332 -8.674,3.687l-23.253,23.012c-2.355,2.27 -3.687,5.403 -3.687,8.674c0,3.271 1.332,6.405 3.687,8.675l87.469,88.312l5.18,5.181c1.933,1.919 4.42,3.183 7.109,3.614c3.771,0.52 7.574,-0.777 10.241,-3.494l73.011,-72.288l24.096,-24.096l79.036,-78.433c2.36,-2.271 3.695,-5.408 3.695,-8.683c0,-3.389 -1.43,-6.625 -3.936,-8.907Zm0,0l-23.012,-22.771c-2.27,-2.355 -5.404,-3.687 -8.675,-3.687c-3.271,0 -6.404,1.332 -8.674,3.687l-75.18,74.698l-27.109,26.867l-2.289,2.169l-14.096,14.096l-25.18,24.939l-61.084,-61.565c-2.27,-2.355 -5.404,-3.687 -8.675,-3.687c-3.271,0 -6.405,1.332 -8.674,3.687l-23.253,23.012c-2.355,2.27 -3.687,5.403 -3.687,8.674c0,3.271 1.332,6.405 3.687,8.675l87.469,88.312l5.18,5.181c1.933,1.919 4.42,3.183 7.109,3.614c3.771,0.52 7.574,-0.777 10.241,-3.494l73.011,-72.288l24.096,-24.096l79.036,-78.433c2.36,-2.271 3.695,-5.408 3.695,-8.683c0,-3.389 -1.43,-6.625 -3.936,-8.907Zm0,0l-23.012,-22.771c-2.27,-2.355 -5.404,-3.687 -8.675,-3.687c-3.271,0 -6.404,1.332 -8.674,3.687l-75.18,74.698l-27.109,26.867l-2.289,2.169l-14.096,14.096l-25.18,24.939l-61.084,-61.565c-2.27,-2.355 -5.404,-3.687 -8.675,-3.687c-3.271,0 -6.405,1.332 -8.674,3.687l-23.253,23.012c-2.355,2.27 -3.687,5.403 -3.687,8.674c0,3.271 1.332,6.405 3.687,8.675l87.469,88.312l5.18,5.181c1.933,1.919 4.42,3.183 7.109,3.614c3.771,0.52 7.574,-0.777 10.241,-3.494l73.011,-72.288l24.096,-24.096l79.036,-78.433c2.36,-2.271 3.695,-5.408 3.695,-8.683c0,-3.389 -1.43,-6.625 -3.936,-8.907Zm0,0l-23.012,-22.771c-2.27,-2.355 -5.404,-3.687 -8.675,-3.687c-3.271,0 -6.404,1.332 -8.674,3.687l-75.18,74.698l-27.109,26.867l-2.289,2.169l-14.096,14.096l-25.18,24.939l-61.084,-61.565c-2.27,-2.355 -5.404,-3.687 -8.675,-3.687c-3.271,0 -6.405,1.332 -8.674,3.687l-23.253,23.012c-2.355,2.27 -3.687,5.403 -3.687,8.674c0,3.271 1.332,6.405 3.687,8.675l87.469,88.312l5.18,5.181c1.933,1.919 4.42,3.183 7.109,3.614c3.771,0.52 7.574,-0.777 10.241,-3.494l73.011,-72.288l24.096,-24.096l79.036,-78.433c2.36,-2.271 3.695,-5.408 3.695,-8.683c0,-3.389 -1.43,-6.625 -3.936,-8.907Zm-143.252,-182.047c-0.703,-0.006 -1.406,-0.009 -2.11,-0.009c-138.797,0 -253.009,114.213 -253.009,253.01c0,108.189 69.393,204.948 171.867,239.645c2.65,0.964 5.301,1.928 8.072,2.651c55.272,17.276 114.835,15.064 168.673,-6.265c12.542,-4.934 24.635,-10.94 36.144,-17.952c77.183,-45.404 124.722,-128.527 124.722,-218.074c0,-138.797 -114.212,-253.009 -253.009,-253.009c-0.45,0 -0.9,0.001 -1.35,0.003Zm89.758,436.984c-8.49,4.191 -17.267,7.775 -26.265,10.723c-38.375,12.411 -79.562,13.291 -118.432,2.53c-5.422,-1.566 -10.844,-3.253 -16.024,-5.181c-80.279,-29.627 -133.905,-106.579 -133.905,-192.15c0,-112.359 92.458,-204.817 204.818,-204.817c112.359,0 204.817,92.458 204.817,204.817c0,78.172 -44.753,149.801 -115.009,184.078Zm53.494,-254.937l-23.012,-22.771c-2.27,-2.355 -5.404,-3.687 -8.675,-3.687c-3.271,0 -6.404,1.332 -8.674,3.687l-75.18,74.698l-27.109,26.867l-2.289,2.169l-14.096,14.096l-25.18,24.939l-61.084,-61.565c-2.27,-2.355 -5.404,-3.687 -8.675,-3.687c-3.271,0 -6.405,1.332 -8.674,3.687l-23.253,23.012c-2.355,2.27 -3.687,5.403 -3.687,8.674c0,3.271 1.332,6.405 3.687,8.675l87.469,88.312l5.18,5.181c1.933,1.919 4.42,3.183 7.109,3.614c3.771,0.52 7.574,-0.777 10.241,-3.494l73.011,-72.288l24.096,-24.096l79.036,-78.433c2.36,-2.271 3.695,-5.408 3.695,-8.683c0,-3.389 -1.43,-6.625 -3.936,-8.907Zm0,0l-23.012,-22.771c-2.27,-2.355 -5.404,-3.687 -8.675,-3.687c-3.271,0 -6.404,1.332 -8.674,3.687l-75.18,74.698l-27.109,26.867l-2.289,2.169l-14.096,14.096l-25.18,24.939l-61.084,-61.565c-2.27,-2.355 -5.404,-3.687 -8.675,-3.687c-3.271,0 -6.405,1.332 -8.674,3.687l-23.253,23.012c-2.355,2.27 -3.687,5.403 -3.687,8.674c0,3.271 1.332,6.405 3.687,8.675l87.469,88.312l5.18,5.181c1.933,1.919 4.42,3.183 7.109,3.614c3.771,0.52 7.574,-0.777 10.241,-3.494l73.011,-72.288l24.096,-24.096l79.036,-78.433c2.36,-2.271 3.695,-5.408 3.695,-8.683c0,-3.389 -1.43,-6.625 -3.936,-8.907Zm0,0l-23.012,-22.771c-2.27,-2.355 -5.404,-3.687 -8.675,-3.687c-3.271,0 -6.404,1.332 -8.674,3.687l-75.18,74.698l-27.109,26.867l-2.289,2.169l-14.096,14.096l-25.18,24.939l-61.084,-61.565c-2.27,-2.355 -5.404,-3.687 -8.675,-3.687c-3.271,0 -6.405,1.332 -8.674,3.687l-23.253,23.012c-2.355,2.27 -3.687,5.403 -3.687,8.674c0,3.271 1.332,6.405 3.687,8.675l87.469,88.312l5.18,5.181c1.933,1.919 4.42,3.183 7.109,3.614c3.771,0.52 7.574,-0.777 10.241,-3.494l73.011,-72.288l24.096,-24.096l79.036,-78.433c2.36,-2.271 3.695,-5.408 3.695,-8.683c0,-3.389 -1.43,-6.625 -3.936,-8.907Zm0,0l-23.012,-22.771c-2.27,-2.355 -5.404,-3.687 -8.675,-3.687c-3.271,0 -6.404,1.332 -8.674,3.687l-75.18,74.698l-27.109,26.867l-2.289,2.169l-14.096,14.096l-25.18,24.939l-61.084,-61.565c-2.27,-2.355 -5.404,-3.687 -8.675,-3.687c-3.271,0 -6.405,1.332 -8.674,3.687l-23.253,23.012c-2.355,2.27 -3.687,5.403 -3.687,8.674c0,3.271 1.332,6.405 3.687,8.675l87.469,88.312l5.18,5.181c1.933,1.919 4.42,3.183 7.109,3.614c3.771,0.52 7.574,-0.777 10.241,-3.494l73.011,-72.288l24.096,-24.096l79.036,-78.433c2.36,-2.271 3.695,-5.408 3.695,-8.683c0,-3.389 -1.43,-6.625 -3.936,-8.907Zm0,0l-23.012,-22.771c-2.27,-2.355 -5.404,-3.687 -8.675,-3.687c-3.271,0 -6.404,1.332 -8.674,3.687l-75.18,74.698l-27.109,26.867l-2.289,2.169l-14.096,14.096l-25.18,24.939l-61.084,-61.565c-2.27,-2.355 -5.404,-3.687 -8.675,-3.687c-3.271,0 -6.405,1.332 -8.674,3.687l-23.253,23.012c-2.355,2.27 -3.687,5.403 -3.687,8.674c0,3.271 1.332,6.405 3.687,8.675l87.469,88.312l5.18,5.181c1.933,1.919 4.42,3.183 7.109,3.614c3.771,0.52 7.574,-0.777 10.241,-3.494l73.011,-72.288l24.096,-24.096l79.036,-78.433c2.36,-2.271 3.695,-5.408 3.695,-8.683c0,-3.389 -1.43,-6.625 -3.936,-8.907Z" style="fill:#3acc6c;fill-opacity:0.7;fill-rule:nonzero;"/><path d="M7549.92,2666.35c0,-46.867 -38.05,-84.917 -84.916,-84.917l-3742.18,0c-46.867,0 -84.917,38.05 -84.917,84.917l0,321.246c0,46.867 38.05,84.917 84.917,84.917l3742.18,0c46.866,0 84.916,-38.05 84.916,-84.917l0,-321.246Z" style="fill:#3855be;fill-opacity:0.2;"/><path d="M9685.33,3588.87c0,-46.867 -38.05,-84.917 -84.917,-84.917l-5877.59,0c-46.867,0 -84.917,38.05 -84.917,84.917l0,321.246c0,46.867 38.05,84.917 84.917,84.917l5877.59,0c46.867,0 84.917,-38.05 84.917,-84.917l0,-321.246Z" style="fill:#3855be;fill-opacity:0.2;"/><path d="M9008.53,2573.6c-138.797,0 -253.009,114.212 -253.009,253.009c0,138.797 114.212,253.01 253.009,253.01c138.797,0 253.01,-114.213 253.01,-253.01c0,-138.797 -114.213,-253.009 -253.01,-253.009Zm0,457.827c-112.359,0 -204.817,-92.458 -204.817,-204.818c0,-112.359 92.458,-204.817 204.817,-204.817c112.36,0 204.818,92.458 204.818,204.817c0,0.121 0,0.242 0,0.363c0,112.029 -92.186,204.215 -204.215,204.215c-0.201,0 -0.402,-0.001 -0.603,-0.001l0,0.241Z" style="fill:#3855be;fill-opacity:0.1;fill-rule:nonzero;"/><path d="M9086.12,2936.37l31.927,-31.807c2.67,-2.665 4.172,-6.287 4.172,-10.06c0,-3.772 -1.502,-7.394 -4.172,-10.06l-57.589,-57.469l57.469,-57.47c2.67,-2.665 4.171,-6.287 4.171,-10.06c0,-3.772 -1.501,-7.394 -4.171,-10.06l-31.927,-31.807c-2.646,-2.662 -6.247,-4.161 -10,-4.161c-3.753,0 -7.355,1.499 -10,4.161l-57.47,57.47l-57.469,-57.47c-2.666,-2.669 -6.287,-4.171 -10.06,-4.171c-3.773,0 -7.394,1.502 -10.06,4.171l-31.807,31.807c-2.7,2.65 -4.222,6.278 -4.222,10.06c0,3.783 1.522,7.411 4.222,10.06l57.469,57.47l-57.349,57.349c-2.699,2.649 -4.222,6.277 -4.222,10.06c0,3.782 1.523,7.41 4.222,10.06l31.807,31.807c2.666,2.67 6.288,4.171 10.06,4.171c3.773,0 7.395,-1.501 10.061,-4.171l57.469,-57.469l57.469,57.469c2.65,2.699 6.278,4.222 10.06,4.222c3.724,0 7.3,-1.476 9.94,-4.102Z" style="fill:#3855be;fill-opacity:0.1;fill-rule:nonzero;"/><path d="M11132.7,3496.12c-138.797,0 -253.009,114.213 -253.009,253.01c0,138.797 114.212,253.009 253.009,253.009c138.797,0 253.01,-114.212 253.01,-253.009c0.001,-0.242 0.001,-0.483 0.001,-0.724c0,-138.401 -113.886,-252.287 -252.287,-252.287c-0.241,0 -0.482,0 -0.724,0.001Zm0,457.827c-0.117,0 -0.235,0 -0.352,0c-112.36,0 -204.817,-92.457 -204.817,-204.817c0,-112.359 92.457,-204.817 204.817,-204.817c112.359,0 204.817,92.458 204.817,204.817c0,37.183 -10.125,73.674 -29.286,105.541c-36.96,61.375 -103.534,99.058 -175.179,99.156l0,0.12Z" style="fill:#3855be;fill-opacity:0.1;fill-rule:nonzero;"/><path d="M11210.1,3858.89l31.927,-31.807c2.67,-2.666 4.172,-6.288 4.172,-10.06c0,-3.773 -1.502,-7.395 -4.172,-10.06l-57.589,-57.47l57.589,-57.469c2.663,-2.645 4.162,-6.247 4.162,-10c0,-3.753 -1.499,-7.355 -4.162,-10l-31.927,-31.927c-2.645,-2.663 -6.247,-4.161 -10,-4.161c-3.753,0 -7.355,1.498 -10,4.161l-57.349,57.469l-57.469,-57.469c-2.645,-2.663 -6.247,-4.161 -10,-4.161c-3.753,0 -7.355,1.498 -10,4.161l-31.927,31.927c-2.663,2.645 -4.161,6.247 -4.161,10c0,3.753 1.498,7.355 4.161,10l57.469,57.469l-57.469,57.47c-2.67,2.665 -4.172,6.287 -4.172,10.06c0,3.772 1.502,7.394 4.172,10.06l31.927,31.807c2.612,2.723 6.226,4.265 10,4.265c3.774,0 7.388,-1.542 10,-4.265l57.469,-57.47l57.59,57.47c5.449,5.354 14.31,5.354 19.759,0Z" style="fill:#3855be;fill-opacity:0.1;fill-rule:nonzero;"/><path d="M8200.58,10150.5c-138.797,0 -253.009,114.213 -253.009,253.01c0,138.797 114.212,253.01 253.009,253.01c138.797,0 253.01,-114.213 253.01,-253.01c0,-138.797 -114.213,-253.01 -253.01,-253.01Zm0,457.827c-112.359,0 -204.817,-92.457 -204.817,-204.817c0,-112.359 92.458,-204.817 204.817,-204.817c112.36,0 204.818,92.458 204.818,204.817c0,0.161 0,0.322 0,0.483c0,112.029 -92.186,204.215 -204.215,204.215c-0.201,0 -0.402,-0.001 -0.603,-0.001l0,0.12Z" style="fill:#ff6584;fill-rule:nonzero;"/><path d="M8278.17,10513.3l31.807,-31.807c2.669,-2.666 4.171,-6.287 4.171,-10.06c0,-3.773 -1.502,-7.394 -4.171,-10.06l-57.47,-57.47l57.47,-57.469c2.662,-2.645 4.161,-6.247 4.161,-10c0,-3.753 -1.499,-7.355 -4.161,-10l-31.807,-31.927c-2.666,-2.67 -6.288,-4.171 -10.06,-4.171c-3.773,0 -7.395,1.501 -10.06,4.171l-57.47,57.469l-57.469,-57.469c-2.645,-2.662 -6.247,-4.161 -10,-4.161c-3.753,0 -7.355,1.499 -10,4.161l-31.927,31.927c-2.663,2.645 -4.161,6.247 -4.161,10c0,3.753 1.498,7.355 4.161,10l57.469,57.469l-57.469,57.47c-2.67,2.666 -4.172,6.287 -4.172,10.06c0,3.773 1.502,7.394 4.172,10.06l31.927,31.807c2.612,2.724 6.226,4.265 10,4.265c3.774,0 7.388,-1.541 10,-4.265l57.469,-57.469l57.47,57.469c2.665,2.67 6.287,4.171 10.06,4.171c3.772,0 7.394,-1.501 10.06,-4.171Z" style="fill:#ff6584;fill-rule:nonzero;"/><ellipse cx="9275.51" cy="13392.2" rx="1432.28" ry="69.879" style="fill:#3855be;fill-opacity:0.1;"/><path d="M10514.7,8444.03c0,0 -338.672,-619.03 -281.443,-719.752c57.228,-100.722 99.035,-246.503 99.035,-246.503c0,0 125.059,-85.542 125.059,-120.481c0,-34.94 99.035,-115.782 151.203,-150.963c52.169,-35.18 26.024,-201.323 0,-221.443c-26.024,-20.121 -67.348,-90.602 -67.348,-90.602c0,0 36.144,-100.601 0,-130.842c-36.145,-30.241 5.301,-60.241 0,-90.602c-5.302,-30.361 0,-140.842 0,-140.842c-42.289,-58.794 -89.156,-86.264 -133.252,-96.384l-3.856,-15.904l-22.289,-93.854c0,0 108.433,-207.83 -67.469,-316.624c-12.442,-7.789 -25.45,-14.636 -38.915,-20.482c-13.465,-5.846 0,-5.06 -0.964,-13.614c-2.41,-31.084 -9.759,-109.035 -25.542,-159.155c-9.156,-29.156 -21.084,-48.795 -36.144,-44.337c-3.698,1.071 -7.086,3.013 -9.879,5.663c-7.169,6.495 -13.448,13.908 -18.675,22.048c-0.209,0.484 -0.493,0.931 -0.843,1.325c-19.972,35.847 -33.971,74.71 -41.446,115.059c-5.342,23.856 -9.364,47.989 -12.048,72.289c-7.62,14.471 -14.339,29.399 -20.12,44.698c-21.325,55.301 -46.265,151.083 -0.843,221.926c38.553,60.24 90.481,143.01 128.191,203.251l1.205,1.927l2.289,3.735l-3.976,2.53l0.603,9.277l3.493,50.723l29.759,438.188c-8.764,-2.54 -17.704,-4.433 -26.746,-5.662c-12.884,-1.885 -25.897,-2.731 -38.916,-2.53c-25.421,-99.879 -95.18,-192.77 -107.83,-297.106c-1.282,-10.434 -1.966,-20.933 -2.048,-31.445c1.084,-65.662 17.469,-131.565 16.144,-197.107c0,-12.048 0,-24.096 -1.205,-36.144c0,-3.253 0,-6.627 -0.963,-10c-13.375,-96.72 -73.734,-180.825 -161.083,-224.456c-30.241,-15.06 -63.012,-25.06 -92.409,-41.566c-67.951,-38.072 -111.445,-106.746 -173.131,-153.854c-45.903,-35.06 -114.457,-53.855 -165.661,-36.144c-27.146,4.092 -54.052,9.642 -80.602,16.626c-64.717,16.935 -126.788,42.721 -184.456,76.626c-7.831,4.699 -15.662,9.518 -23.132,15.06c-16.308,10.643 -29.23,25.739 -37.229,43.494c-5.178,15.047 -7.148,31.013 -5.783,46.867c0,11.446 0,23.132 0.723,34.578c-3.373,192.769 -211.082,341.924 -228.19,530.115c0,4.458 -0.723,8.916 -0.964,13.374l0,35.662c3.012,82.529 45.903,159.396 53.734,241.564c0.723,7.349 1.084,14.578 1.205,21.928c-1.332,37.749 -8.527,75.062 -21.325,110.601c-26.109,6.958 -51.244,17.158 -74.819,30.361c-63.132,40.602 -177.107,110.722 -218.672,244.817c-10.688,34.813 -16.011,71.053 -15.783,107.469c-0.703,128.682 -12.473,257.066 -35.181,383.731c-5.254,31.909 -12.66,63.427 -22.168,94.337c-0.895,3.006 -1.141,6.168 -0.723,9.277l-25.06,325.298l-4.458,57.228l-6.265,81.445c0,0 1.807,4.94 4.458,13.253c3.927,12.355 7.224,24.901 9.879,37.59c7.006,27.569 8.114,56.31 3.253,84.337c-2.475,11.907 -8.63,22.74 -17.59,30.963c-0.771,0.68 -1.458,1.448 -2.048,2.289c-7.108,10 -13.494,39.759 -19.036,82.891c-2.169,16.867 -4.217,36.144 -6.265,56.144c-12.048,128.312 -19.518,320.359 -24.096,479.152c-4.338,156.625 -5.904,280.359 -5.904,280.359c20.287,13.091 41.992,23.842 64.698,32.048c-1.686,4.217 -3.494,8.554 -5.18,13.132c-20.483,53.161 -33.695,108.845 -39.277,165.541c-10.12,118.433 23.012,249.998 188.191,317.708c10.554,4.388 21.379,8.09 32.409,11.084c36.145,9.639 62.771,6.988 82.409,-5.06c0,7.108 0.844,13.976 1.205,20.843c1.687,29.397 3.132,56.265 3.855,78.794c5.181,140.963 40.12,387.467 40.12,387.467c0,0 12.049,100.722 1.567,130.842c-10.482,30.12 0,150.962 0,150.962c0,0 36.144,60.241 0,90.602c-36.145,30.361 -46.867,180.721 -36.145,201.323c0.131,0.758 0.131,1.532 0,2.289c7.952,50 -36.987,792.884 -36.987,792.884c0,0 -42.53,113.734 -76.385,231.806c-33.012,114.938 -57.831,233.973 -27.229,256.262c15.181,11.084 50.482,19.398 95.301,25.783c0,4.94 -0.723,9.879 -1.205,14.94c-4.337,53.132 -11.205,110.36 -21.084,124.818c-14.337,20.481 -29.398,179.275 -36.144,265.058l-0.723,9.517c-15.434,36.6 -28.395,74.194 -38.795,112.53c-10.4,38.335 -115.3,289.153 -76.265,364.213c3.636,6.744 8.498,12.751 14.338,17.711c1.156,1.219 2.404,2.347 3.735,3.373c55.541,44.458 194.697,53.735 245.178,55.783l-1.928,71.565l0,2.651l65.662,0l0,-1.807c0,-9.036 1.446,-50.482 3.615,-105.903c0,-9.879 0.723,-20.241 1.205,-30.843c0,-8.313 0.843,-16.747 1.204,-25.421c19.33,-51.359 29.01,-105.848 28.554,-160.722c0.07,-63.018 8.579,-125.745 25.301,-186.504c8.259,-31.297 19.432,-61.751 33.373,-90.963c13.942,-29.212 20.482,-108.433 -8.072,-185.179c-5.443,-15.239 -13.608,-29.363 -24.096,-41.686l0,-24.097c-0.643,-51.899 4.53,-103.708 15.422,-154.456c-0.057,-0.802 -0.057,-1.607 0,-2.41c0.964,-4.216 2.048,-8.192 3.132,-12.048l0.723,-2.65l21.325,0.723c65.421,1.807 113.493,1.807 113.493,1.807c0,0 52.168,-266.745 46.988,-382.406l0,-15.663c-1.808,-114.938 31.566,-271.202 31.566,-271.202l41.686,-407.586c0,0 -20.843,-70.602 0,-120.481c12.891,-31.084 39.518,-88.795 58.072,-128.553c8.674,-18.434 15.542,-32.892 18.433,-39.157l1.687,-3.373c-6.57,-2.252 -12.81,-5.372 -18.554,-9.277c-16.988,-11.325 -32.169,-33.494 18.674,-66.144c78.192,-50.361 52.169,-176.143 52.169,-176.143c0,0 -23.012,-45.301 4.096,-85.541c27.108,-40.241 0,-191.203 0,-191.203c22.115,-40.093 39.809,-82.47 52.771,-126.385c19.397,-60.24 68.433,-354.816 91.565,-496.862c7.59,-46.626 12.048,-76.747 12.048,-76.747l0.723,7.35l0.723,7.951l6.506,67.108l0.843,8.916l12.048,126.866c0,0 24.096,333.491 9.036,464.213l0,2.409c-1.175,13.542 -4.132,26.87 -8.795,39.638c-27.71,62.65 -22.65,311.564 -21.204,366.623l0,11.085c0,3.012 -19.639,49.156 -14.699,85.059c1.001,9.098 4.274,17.799 9.518,25.301c7.214,11.716 10.468,25.449 9.277,39.156l0,1.205c-0.127,5.807 -0.61,11.601 -1.446,17.349c-3.654,23.319 -9.794,46.18 -18.313,68.192c-8.519,22.013 -27.952,73.494 -17.349,111.927c1.273,4.983 3.617,9.629 6.867,13.614c2.446,4.439 3.808,9.393 3.976,14.458c-0.057,0.44 -0.057,0.885 0,1.325c9.759,81.084 -15.421,439.032 -30.361,634.934c-6.024,77.349 -10.361,129.397 -10.361,129.397l-40.602,428.188l4.096,2.892c4.699,3.373 13.494,9.156 25.301,16.144l0,0.964l-1.807,12.892c-5.904,41.204 -13.856,89.155 -22.53,125.782c-0.723,2.771 -1.326,5.421 -2.048,7.951c-15.811,2.762 -30.872,8.794 -44.217,17.711c-87.71,155.782 -48.915,279.274 0,315.178c13.855,10.12 23.253,38.433 29.518,73.613l12.048,155.3l0,17.831c0.016,4.83 0.789,9.627 2.289,14.217l3.735,47.108l5.06,65.542l40,0l0,-79.277l2.168,0c63.132,2.169 164.939,4.819 209.276,1.326l1.204,0c4.699,0 8.675,-0.844 12.048,-1.326c2.399,-0.36 4.745,-1.007 6.988,-1.927c23.494,-11.326 82.048,-177.348 29.277,-215.059c-52.77,-37.71 -64.457,-144.577 -64.457,-144.577c-4.578,-13.975 -9.157,-27.228 -13.855,-39.879l0,-8.192c-1.446,-51.687 -0.844,-107.71 6.265,-138.071c7.951,-33.374 12.048,-103.493 13.734,-164.939l0,-13.855l0,-1.446c9.147,-2.312 18.124,-5.25 26.868,-8.795l1.927,-0.843c16.139,-6.756 31.263,-15.717 44.94,-26.626l146.022,-654.091l15.542,-76.023l88.072,-431.321c0,0 -31.205,-150.963 0,-176.023c12.048,-9.156 14.578,-48.192 13.855,-93.372c-1.205,-79.036 -13.855,-178.432 -13.855,-178.432c0,0 41.686,-65.421 62.65,-105.662c20.964,-40.241 0,-145.902 0,-145.902l41.566,-240.962c0,0 46.987,-288.551 161.685,-529.513c84.337,-177.709 30.602,-657.584 -24.096,-913.003c-1.446,-6.627 -2.892,-13.133 -4.337,-19.398l0,-0.964c25.782,-12.771 57.348,-28.192 91.083,-44.337l12.771,-6.024c42.771,-20.12 88.071,-40.843 128.674,-58.071l2.65,-1.085c29.224,-12.744 59.105,-23.925 89.517,-33.493c8.96,-2.74 18.157,-4.636 27.47,-5.663c72.288,-5.181 -146.625,-387.828 -146.625,-387.828Zm-1630.23,819.27l21.687,0c-2.53,4.699 -4.94,9.518 -7.35,14.337c-1.445,2.892 -2.891,5.663 -4.216,8.554c-7.952,16.506 -15.301,33.373 -21.325,49.879c2.409,-17.831 5.421,-37.228 8.795,-57.951c0.843,-5.542 1.566,-10.361 2.409,-14.819Zm-58.553,313.25c0.053,-0.561 0.053,-1.126 0,-1.687l-1.808,-5.662c-1.325,-3.856 -2.53,-7.711 -3.735,-11.446c7.47,-2.329 15.061,-4.86 22.771,-7.59l1.567,-0.603l0,3.976c0,5.663 -1.326,11.325 -2.049,16.867c0.066,0.722 0.066,1.448 0,2.169c0,4.578 -1.084,8.916 -1.566,13.253c-1.084,8.675 -2.169,17.108 -3.132,25.18c-2.289,-7.59 -4.579,-15.06 -6.988,-22.409c-2.41,-3.494 -3.735,-7.59 -5.06,-12.048Z" style="fill:url(#_Linear1);fill-rule:nonzero;"/><path d="M10390,6513.2l-130.119,46.144l-47.229,-78.312c-36.144,-60.24 -86.264,-142.649 -123.251,-202.528c-65.301,-105.421 20.12,-265.901 20.12,-265.901c0,0 14.94,-160.481 70.12,-210.601c55.18,-50.12 70.24,210.601 70.24,210.601c220.6,100.36 102.409,336.021 102.409,336.021l21.445,93.613l16.265,70.963Z" style="fill:#a1616a;fill-rule:nonzero;"/><path d="M10390,6513.2l-130.119,46.144l-47.229,-78.312l0,-6.867c0,0 74.578,-51.205 161.565,-31.928l15.783,70.963Z" style="fill-opacity:0.1;fill-rule:nonzero;"/><path d="M10179.6,7040.91l65.18,-54.698l-32.65,-496.622c0,0 168.07,-115.3 293.491,65.301c0,0 -5.06,110.36 0,140.48c5.06,30.12 -35.06,60.241 0,90.24c35.06,30 0,130.361 0,130.361c0,0 39.638,70.24 64.698,90.36c25.06,20.12 50.24,185.541 0,220.721c-50.241,35.18 -145.42,115.3 -145.42,150.48c0,35.181 -120.481,120.481 -120.481,120.481l-105.421,-140.48l-19.397,-316.624Z" style="fill:#5a5773;fill-rule:nonzero;"/><path d="M8769.98,10055.7c-243.13,-103.132 -189.154,-355.057 -143.372,-481.923c9.179,-25.693 19.922,-50.8 32.169,-75.18l136.625,-82.53c0,0 27.831,70.964 57.59,166.264c68.794,220.6 148.191,571.44 -83.012,473.369Z" style="fill:#a1616a;fill-rule:nonzero;"/><path d="M9104.19,12354.4c-16.483,32.024 -28.638,66.098 -36.144,101.324c-11.833,56.792 -16.889,114.787 -15.06,172.77c0.964,40.12 4.337,66.385 4.337,66.385l-270.841,186.263c0,0 1.567,-21.807 4.217,-53.855c6.988,-85.3 21.566,-243.612 35.301,-264.094c9.518,-14.337 16.144,-71.445 20.361,-124.336c4.217,-52.891 5.904,-99.517 5.904,-99.517c0,0 325.298,-122.288 251.925,15.06Z" style="fill:#a1616a;fill-rule:nonzero;"/><path d="M9743.82,12488c0,0 0,51.807 -1.928,112.047c-1.928,60.241 -5.542,131.204 -13.132,164.457c-6.988,30.24 -7.47,86.143 -6.145,137.589c1.807,60.24 6.145,114.456 6.145,114.456c0,0 -277.106,-261.443 -248.311,-282.166c7.59,-5.542 15.06,-27.831 21.927,-57.469c8.434,-36.144 16.024,-84.336 21.687,-125.42c6.747,-48.193 10.963,-87.951 10.963,-87.951l208.794,24.457Z" style="fill:#a1616a;fill-rule:nonzero;"/><path d="M9104.19,12354.4c-16.483,32.024 -28.638,66.098 -36.144,101.324c-74.134,-1.846 -148.125,-7.476 -221.685,-16.867c4.097,-51.807 5.904,-99.517 5.904,-99.517c0,0 325.298,-122.288 251.925,15.06Z" style="fill-opacity:0.1;fill-rule:nonzero;"/><path d="M9743.82,12488c0,0 0,51.807 -1.928,112.047c-86.264,22.048 -174.938,-22.048 -217.829,-48.192c6.747,-48.192 10.963,-87.951 10.963,-87.951l208.794,24.096Z" style="fill-opacity:0.1;fill-rule:nonzero;"/><path d="M10310,9925.94c-110.36,240.962 -155.541,526.622 -155.541,526.622l-39.999,240.961c0,0 19.999,105.301 0,145.421c-20,40.12 -60.241,105.3 -60.241,105.3c0,0 30.12,245.901 0,270.841c-30.12,24.939 0,175.661 0,175.661l-100.36,506.621l-140.481,652.042c-135.42,110.361 -315.66,-30.12 -315.66,-30.12l39.759,-426.261c0,0 60.241,-746.981 35.181,-777.583c-25.061,-30.602 9.999,-125.3 9.999,-125.3c0,0 35.181,-90.36 10.121,-125.541c-25.06,-35.18 4.94,-110.36 4.94,-110.36c0,0 -10,-305.901 20.12,-376.141c30.12,-70.241 0,-504.815 0,-504.815l-12.048,-135.3l-6.868,-74.939l-0.723,-7.349c0,0 -4.578,30.12 -12.048,76.626c-22.168,141.565 -69.397,434.935 -88.071,495.296c-12.927,43.315 -30.372,85.151 -52.048,124.818c-21.675,39.667 26.024,150.481 0,190.601c-26.024,40.12 -3.976,85.3 -3.976,85.3c0,0 25.06,125.3 -50.24,175.541c-75.301,50.24 0,75.18 0,75.18c0,0 -55.18,120.481 -75.18,170.601c-20,50.12 0,120.48 0,120.48l-39.277,406.141c0,0 -35.18,170.48 -30.12,285.901c5.06,115.421 -45.783,381.804 -45.783,381.804c0,0 -386.261,0 -445.779,-45.181c-59.517,-45.18 99.999,-487.103 99.999,-487.103c0,0 45.181,-772.523 35.06,-792.644c-10.12,-20.12 0,-170.48 35.181,-200.6c35.18,-30.12 0,-90.24 0,-90.24c0,0 -10,-120.481 0,-150.481c10,-29.999 -1.567,-130.48 -1.567,-130.48c0,0 -33.614,-245.781 -38.553,-386.262c-4.94,-140.48 -30.121,-456.502 -30.121,-456.502c0,0 26.265,-195.419 30.241,-288.431c1.446,-34.216 16.747,-76.866 35.542,-117.107c21.727,-45.466 46.69,-89.313 74.698,-131.203c28.008,-41.891 1188.78,-351.081 1239.02,-316.022c13.253,9.277 32.53,72.289 51.566,163.613c52.65,254.576 104.457,732.765 23.253,910.594Z" style="fill:#605d82;fill-rule:nonzero;"/><circle cx="9577.56" cy="6513.2" r="346.141" style="fill:#a1616a;"/><path d="M10286.3,9015.35c-39.879,20.362 -66.626,34.578 -66.626,34.578c0,0 -561.802,265.901 -722.042,250.841c-123.613,-12.048 -439.152,-5.301 -576.621,-1.807c21.727,-45.466 46.691,-89.313 74.698,-131.203c28.008,-41.891 1188.78,-351.081 1239.03,-316.022c13.253,9.277 32.53,72.048 51.566,163.613Z" style="fill-opacity:0.1;fill-rule:nonzero;"/><path d="M9336.84,7065.97c0,0 -321.082,50.241 -396.262,100.361c-75.18,50.12 -225.781,145.179 -225.781,351.201c0,206.022 -35.06,416.261 -55.18,476.502c-20.12,60.24 316.503,546.38 316.503,546.38l-120.481,737.343c0,0 481.923,-14.94 642.404,0c160.48,14.939 722.041,-250.721 722.041,-250.721c0,0 331.081,-175.661 401.322,-180.721c70.24,-5.06 -140.481,-386.262 -140.481,-386.262c0,0 -326.021,-616.982 -270.841,-717.342c55.181,-100.361 95.301,-245.781 95.301,-245.781l-60.241,-511.682c0,0 -90.24,-30 -165.54,25.06c-75.301,55.06 -331.082,25.181 -331.082,25.181l-411.682,30.481Z" style="fill:#5a5773;fill-rule:nonzero;"/><path d="M8792.63,7958.85l-125.421,35.181l-35.18,471.562c0,0 45.18,125.3 0,165.54c-45.18,40.241 -55.18,897.823 -55.18,897.823c0,0 145.541,105.421 316.021,25.06c0,0 -25.06,-95.3 50.24,-441.442c75.301,-346.141 75.18,-521.681 75.18,-521.681c0,0 0,-431.322 35.181,-501.562c35.18,-70.24 0,-245.781 0,-245.781c0,0 -70.241,-95.3 -65.301,-130.481c4.94,-35.18 -195.54,245.781 -195.54,245.781Z" style="fill-opacity:0.1;fill-rule:nonzero;"/><path d="M8852.75,9582.33c-73.851,24.903 -154.32,21.945 -226.143,-8.313c9.179,-25.693 19.922,-50.8 32.169,-75.18l136.625,-82.771c0,0 27.59,70.964 57.349,166.264Z" style="fill-opacity:0.1;fill-rule:nonzero;"/><path d="M8785.04,7958.85l-125.421,35.181l-35.06,471.562c0,0 45.18,125.3 0,165.54c-45.18,40.241 -55.18,897.823 -55.18,897.823c0,0 145.42,105.421 316.021,25.06c0,0 -25.06,-95.3 50.12,-441.442c75.18,-346.141 75.301,-521.681 75.301,-521.681c0,0 0,-431.322 35.059,-501.562c35.06,-70.24 0,-245.781 0,-245.781c0,0 -70.24,-95.3 -65.18,-130.481c5.061,-35.18 -195.66,245.781 -195.66,245.781Z" style="fill:#5a5773;fill-rule:nonzero;"/><path d="M10069.2,8034.39c0,0 -65.18,561.802 -255.901,667.102c0,-0.241 426.382,-120.601 255.901,-667.102Z" style="fill-opacity:0.1;fill-rule:nonzero;"/><path d="M9111.18,8084.27c0,0 235.661,115.42 180.721,195.661c-54.939,80.24 -180.721,-195.661 -180.721,-195.661Z" style="fill-opacity:0.1;fill-rule:nonzero;"/><path d="M9111.18,8315.11c0,0 150.481,155.42 120.481,210.6c-30,55.181 -120.481,-210.6 -120.481,-210.6Z" style="fill-opacity:0.1;fill-rule:nonzero;"/><path d="M10325.5,7025.85c0,0 59.036,100.361 64.698,165.541c5.663,65.18 -64.698,-165.541 -64.698,-165.541Z" style="fill-opacity:0.1;fill-rule:nonzero;"/><path d="M10325.5,6890.43c0,0 29.638,-25.06 105.3,0c75.662,25.06 -105.3,0 -105.3,0Z" style="fill-opacity:0.1;fill-rule:nonzero;"/><path d="M10035.4,9822.45c-124.278,17.631 -251.041,1.395 -366.864,-46.987l-63.252,161.805l-6.868,-74.939c10.241,-62.77 30.362,-130.119 70.12,-147.107c0,0 138.915,110.963 366.864,107.228Z" style="fill-opacity:0.1;fill-rule:nonzero;"/><path d="M9006.36,10033.1c0,0 308.551,63.975 395.056,52.77l-395.056,-52.77Z" style="fill-opacity:0.1;fill-rule:nonzero;"/><path d="M9038.41,10114c0,0 131.685,-5.663 197.468,20.722l-197.468,-20.722Z" style="fill-opacity:0.1;fill-rule:nonzero;"/><path d="M9053.47,10168.6c60.095,12.696 121.077,20.752 182.408,24.097l-182.408,-24.097Z" style="fill-opacity:0.1;fill-rule:nonzero;"/><path d="M9045.88,10858.9c5.663,-3.855 263.371,-63.975 295.419,-20.722l-295.419,20.722Z" style="fill-opacity:0.1;fill-rule:nonzero;"/><path d="M9045.88,10938c0,0 223.854,-26.265 229.516,0c5.663,26.265 -229.516,0 -229.516,0Z" style="fill-opacity:0.1;fill-rule:nonzero;"/><path d="M9045.88,11009.4c0,0 238.914,-48.915 267.106,-37.711c28.193,11.205 -267.106,37.711 -267.106,37.711Z" style="fill-opacity:0.1;fill-rule:nonzero;"/><path d="M9057.2,12694.8l-270.841,186.263c0,0 1.566,-21.807 4.217,-53.855c60.24,-148.312 138.673,-226.504 138.673,-226.504c61.084,-15.783 99.638,-1.084 123.613,27.711c0.964,40.12 4.338,66.385 4.338,66.385Z" style="fill-opacity:0.1;fill-rule:nonzero;"/><path d="M9083.59,12862.3c-38.206,87.122 -57.468,181.377 -56.506,276.503c1.507,78.161 -18.323,155.273 -57.348,223.01c-5.626,9.521 -11.991,18.585 -19.036,27.109c-7.046,8.523 -188.191,-1.446 -254.094,-56.144c-7.22,-5.695 -13.17,-12.836 -17.47,-20.964c-37.711,-75.18 73.373,-363.009 73.373,-363.009c58.312,-222.046 176.745,-340.478 176.745,-340.478c210.721,-54.578 154.336,253.973 154.336,253.973Z" style="fill:#5a5773;fill-rule:nonzero;"/><path d="M8969.73,13361.8c-5.626,9.521 -11.991,18.585 -19.036,27.109c-7.046,8.523 -188.191,-1.446 -254.094,-56.144c32.409,-107.228 135.902,-431.563 184.215,-376.503c45.542,51.807 77.228,301.202 88.915,405.538Z" style="fill-opacity:0.1;fill-rule:nonzero;"/><path d="M8943.71,12976.5l-13.133,485.899l63.132,0c0,0 10.241,-426.261 38.434,-485.899c28.192,-59.638 -88.433,0 -88.433,0Z" style="fill:#5a5773;fill-rule:nonzero;"/><path d="M9728.76,13016.5c0,0 -277.106,-261.443 -248.311,-282.166c7.59,-5.542 15.06,-27.831 21.927,-57.469c53.132,-9.397 144.577,12.892 220.239,225.179c1.807,59.999 6.145,114.456 6.145,114.456Z" style="fill-opacity:0.1;fill-rule:nonzero;"/><path d="M9770.09,13308.1c-2.149,0.805 -4.367,1.41 -6.627,1.807c-32.53,5.783 -152.408,2.41 -219.516,0c-25.252,-1.197 -45.489,-22.072 -45.903,-47.349c0,-18.072 0,-40.12 -1.446,-63.614c-3.132,-74.216 -12.048,-162.528 -38.674,-182.408c-47.108,-36.144 -84.337,-158.914 0,-314.213c0,0 161.685,-123.373 278.31,247.708c0,0 11.326,106.023 62.169,143.613c50.842,37.59 -5.663,203.131 -28.313,214.456Z" style="fill:#5a5773;fill-rule:nonzero;"/><path d="M9763.46,13309.9c-32.53,5.783 -152.408,2.41 -219.516,0c-25.252,-1.197 -45.489,-22.072 -45.903,-47.349c0,-18.072 0,-40.12 -1.446,-63.614c20.361,-89.999 49.638,-182.408 87.349,-203.492c0,0 114.095,-12.891 179.516,314.455Z" style="fill-opacity:0.1;fill-rule:nonzero;"/><path d="M9478.4,12984.5l30.24,404.454l38.554,0l0,-438.912l-68.794,34.458Z" style="fill:#5a5773;fill-rule:nonzero;"/><path d="M9572.62,5962.12c-109.287,8.135 -215.093,42.124 -308.672,99.156c-24.096,14.578 -48.193,32.168 -58.193,58.313c-8.674,22.65 -5.06,48.192 -4.698,72.288c3.253,207.588 -228.07,364.575 -220.842,571.922c2.892,82.289 44.217,158.914 51.807,240.962c12.651,136.746 -68.312,262.769 -145.902,376.141c79.903,4.813 158.673,-21.3 219.877,-72.891c82.054,272.955 92.757,562.446 31.084,840.715l110.963,0c10.966,-0.714 21.967,0.676 32.41,4.096c9.762,4.582 18.493,11.1 25.662,19.157c103.734,103.252 173.251,255.901 133.613,396.864l236.143,-88.554c56.505,-21.204 113.854,-42.771 163.01,-77.83c49.156,-35.06 90.361,-85.542 100.722,-144.577c6.385,-36.145 4.337,-79.277 34.096,-100.24c14.63,-7.895 30.28,-13.733 46.506,-17.35c64.818,-22.77 93.493,-97.71 106.746,-165.179c16.137,-82.777 21.202,-167.332 15.06,-251.443c-10.482,-140.963 -52.168,-284.094 -17.831,-421.683c19.397,-77.228 62.529,-149.276 66.023,-228.913c5.663,-131.566 -97.107,-244.697 -112.409,-375.419c-10.722,-91.204 22.169,-183.251 11.446,-274.334c-12.072,-95.329 -70.035,-178.964 -155.059,-223.733c-29.036,-14.94 -60.24,-25.06 -88.914,-41.446c-65.422,-37.951 -107.228,-106.384 -166.625,-153.372c-59.397,-46.987 -158.312,-64.698 -203.011,-3.494l96.988,-39.156Z" style="fill-opacity:0.1;fill-rule:nonzero;"/><path d="M9572.62,5946.7c-109.338,8.318 -215.147,42.514 -308.672,99.758c-24.096,14.578 -48.193,32.168 -58.193,58.433c-8.674,22.65 -5.06,48.192 -4.698,72.288c3.253,207.468 -228.07,364.455 -220.842,571.802c2.892,82.289 44.217,158.914 51.807,240.962c12.651,136.866 -68.312,262.768 -145.902,376.141c79.903,4.813 158.673,-21.3 219.877,-72.891c82.054,272.955 92.757,562.446 31.084,840.715l110.963,0c10.966,-0.714 21.967,0.676 32.41,4.096c9.762,4.582 18.493,11.1 25.662,19.157c103.734,103.252 173.251,255.901 133.613,396.863l236.143,-88.553c56.505,-21.205 113.854,-42.771 163.01,-77.831c49.156,-35.059 90.361,-85.541 100.722,-144.577c6.385,-36.144 4.337,-79.276 34.096,-100.24c14.614,-7.901 30.271,-13.701 46.506,-17.228c64.818,-22.892 93.493,-97.831 106.746,-165.3c16.137,-82.777 21.202,-167.332 15.06,-251.443c-10.482,-140.963 -52.168,-284.094 -17.831,-421.683c19.397,-77.228 62.529,-149.276 66.023,-228.914c5.663,-131.565 -97.107,-244.696 -112.409,-375.418c-10.722,-91.204 22.169,-183.251 11.446,-274.335c-12.072,-95.328 -70.035,-178.963 -155.059,-223.732c-29.036,-14.94 -60.24,-24.94 -88.914,-41.446c-65.422,-37.951 -107.228,-106.384 -166.625,-153.372c-59.397,-46.987 -158.312,-64.698 -203.011,-3.494l96.988,-39.758Z" style="fill:#4a4347;fill-rule:nonzero;"/><path d="M9200.82,6126.34c-0.481,4.684 -0.723,9.389 -0.723,14.097c0.361,-4.699 0.602,-9.639 0.723,-14.097Z" style="fill-rule:nonzero;"/><path d="M10077,6608.74c4.337,-63.855 18.554,-127.951 13.253,-191.565c-4.458,63.855 -18.675,127.83 -13.253,191.565Z" style="fill-rule:nonzero;"/><path d="M9032.02,6925.97c-6.988,-74.698 -41.807,-144.576 -49.999,-219.275c-1.632,13.671 -2.236,27.444 -1.808,41.205c2.892,81.445 43.253,157.348 51.446,238.431c1.991,-20.065 2.112,-40.273 0.361,-60.361Z" style="fill-rule:nonzero;"/><path d="M10124.2,7222.96c-11.286,49.025 -15.345,99.437 -12.049,149.637c1.261,-29.272 5.295,-58.357 12.049,-86.867c19.397,-77.228 62.529,-149.276 66.023,-228.913c0.569,-14.166 -0.076,-28.354 -1.928,-42.41c-8.915,71.686 -46.385,137.83 -64.095,208.553Z" style="fill-rule:nonzero;"/><path d="M9106,7229.46c-50.192,42.19 -112.436,67.493 -177.829,72.288c-13.735,21.446 -27.952,42.53 -42.048,63.132c79.903,4.813 158.673,-21.3 219.877,-72.891c43.936,146.188 67.532,297.732 70.12,450.357c3.502,-173.57 -20.157,-346.625 -70.12,-512.886Z" style="fill-rule:nonzero;"/><path d="M10127,7895.48c-13.253,67.47 -41.928,142.409 -106.746,165.3c-16.203,3.636 -31.845,9.431 -46.506,17.229c-29.759,21.084 -27.711,64.457 -33.976,100.24c-10.481,59.517 -51.565,110.119 -100.842,145.179c-49.277,35.06 -106.505,56.626 -163.01,77.831l-225.3,84.336c-1.108,22.663 -4.745,45.132 -10.843,66.988l236.143,-88.554c56.505,-21.204 113.854,-42.77 163.01,-77.83c49.156,-35.06 90.361,-85.542 100.842,-144.577c6.265,-36.145 4.217,-79.277 33.976,-100.24c14.614,-7.902 30.271,-13.702 46.506,-17.229c64.818,-22.891 93.493,-97.83 106.746,-165.3c13.717,-70.211 19.417,-141.753 16.987,-213.251c-1.64,50.334 -7.321,100.455 -16.987,149.878Z" style="fill-rule:nonzero;"/><path d="M9306.12,8092.95c-7.169,-8.057 -15.9,-14.574 -25.662,-19.156c-10.443,-3.42 -21.444,-4.811 -32.41,-4.096l-98.433,0c-3.855,21.084 -7.951,42.047 -12.048,62.891l110.963,0c10.965,-0.715 21.967,0.676 32.41,4.096c9.762,4.582 18.493,11.099 25.662,19.156c75.903,75.542 133.493,177.589 143.252,282.166c12.048,-125.661 -52.048,-254.455 -143.734,-345.057Z" style="fill-rule:nonzero;"/><path d="M8755.64,8503.18c0,0 89.638,-37.59 109.638,0c20,37.59 -109.638,0 -109.638,0Z" style="fill-opacity:0.1;fill-rule:nonzero;"/><path d="M8786.72,8567.64c0,0 89.638,-37.711 109.758,0c20.121,37.71 -109.758,0 -109.758,0Z" style="fill-opacity:0.1;fill-rule:nonzero;"/><path d="M12122.6,12647.7c0,0 66.265,86.625 -30.481,216.865c-96.746,130.24 -176.505,240.962 -144.577,322.527c0,0 146.023,-242.769 265.058,-246.142c119.035,-3.373 40.602,-147.589 -90,-293.25Z" style="fill:#3855be;fill-rule:nonzero;"/><path d="M12122.6,12647.7c5.778,8.383 10.323,17.553 13.494,27.228c115.903,136.144 177.709,263.251 66.265,266.383c-103.734,3.012 -228.191,188.553 -258.07,235.42c0.983,3.631 2.149,7.21 3.494,10.723c1.345,3.513 146.023,-242.769 265.058,-246.143c119.035,-3.373 40.361,-147.95 -90.241,-293.611Z" style="fill-opacity:0.1;fill-rule:nonzero;"/><path d="M12245.6,12758.1c0,30.482 -3.373,55.18 -7.59,55.18c-4.217,0 -7.59,-24.096 -7.59,-55.18c0,-31.084 4.217,-16.144 8.433,-16.144c4.217,0 6.747,-14.337 6.747,16.144Z" style="fill:#ffd037;fill-rule:nonzero;"/><path d="M12287.9,12794.5c-26.747,14.579 -50.12,23.374 -52.048,19.639c-1.927,-3.735 17.952,-18.554 44.699,-33.133c26.747,-14.578 16.265,-3.855 18.192,0c1.928,3.856 15.904,-1.084 -10.843,13.494Z" style="fill:#ffd037;fill-rule:nonzero;"/><path d="M11773,12647.7c0,0 -66.144,86.625 30.602,216.865c96.746,130.24 176.505,240.962 144.577,322.527c0,0 -145.902,-242.769 -265.057,-246.142c-119.156,-3.373 -40.723,-147.589 89.878,-293.25Z" style="fill:#3855be;fill-rule:nonzero;"/><path d="M11773,12647.7c-5.72,8.417 -10.26,17.579 -13.494,27.228c-115.902,136.144 -177.588,263.251 -66.264,266.383c103.854,3.012 228.913,188.553 258.19,235.42c-0.969,3.649 -2.176,7.231 -3.614,10.723c-1.438,3.491 -145.902,-242.769 -265.058,-246.143c-119.155,-3.373 -40.361,-147.95 90.24,-293.611Z" style="fill-opacity:0.1;fill-rule:nonzero;"/><path d="M11649.9,12758.1c0,30.482 3.494,55.18 7.711,55.18c4.217,0 7.59,-24.096 7.59,-55.18c0,-31.084 -4.216,-16.144 -8.433,-16.144c-4.217,0 -6.868,-14.337 -6.868,16.144Z" style="fill:#ffd037;fill-rule:nonzero;"/><path d="M11607.8,12794.5c26.747,14.579 50,23.374 52.048,19.639c2.048,-3.735 -18.072,-18.554 -44.819,-33.133c-26.747,-14.578 -16.145,-3.855 -18.193,0c-2.048,3.856 -15.783,-1.084 10.964,13.494Z" style="fill:#ffd037;fill-rule:nonzero;"/><path d="M11671,13176.2c0,0 185.059,-5.783 240.962,-45.421c55.903,-39.638 284.696,-87.107 298.431,-24.096c13.735,63.012 278.19,316.744 69.276,318.431c-208.913,1.687 -485.537,-32.53 -541.199,-66.385c-55.662,-33.855 -67.47,-182.529 -67.47,-182.529Z" style="fill:#a8a8a8;fill-rule:nonzero;"/><path d="M12283.3,13403.5c-208.914,1.686 -485.538,-32.53 -541.2,-66.385c-42.289,-25.904 -59.276,-118.553 -64.939,-161.203l-6.145,0c0,0 12.049,149.155 67.349,183.13c55.301,33.976 332.286,68.072 541.2,66.385c60.24,0 81.083,-21.927 79.999,-53.734c-8.433,19.518 -31.445,31.445 -76.264,31.807Z" style="fill-opacity:0.2;fill-rule:nonzero;"/><rect x="1469.56" y="1576.44" width="10505.9" height="315.539" style="fill:#3855be;fill-opacity:0.1;"/><circle cx="1680.4" cy="1734.27" r="66.867" style="fill:#fefefe;"/><circle cx="1885.22" cy="1734.27" r="66.867" style="fill:#fefefe;"/><circle cx="2090.04" cy="1734.27" r="66.867" style="fill:#fefefe;"/><path d="M5571.81,13025.2c0,0 -509.393,-30.723 -449.393,326.142c0,0 -12.049,63.131 45.3,91.806c0,0 0.964,-26.506 52.289,-17.47c18.269,3.022 36.827,3.911 55.301,2.651c24.994,-1.752 48.758,-11.562 67.71,-27.952c18.951,-16.389 143.131,-59.156 198.793,-293.13c0,0 41.205,-51.083 39.518,-64.216l-85.903,36.144c0,0 29.397,61.928 6.265,113.493c0,0 -2.771,-111.324 -19.277,-108.432c-3.373,0.602 -44.698,21.445 -44.698,21.445c0,0 50.602,108.433 12.048,186.625c0,0 14.458,-133.131 -28.193,-178.794l-60.24,35.301c0,0 59.036,111.686 19.036,202.649c0,0 10.241,-139.637 -31.807,-193.974l-54.819,42.771c0,0 55.542,109.999 21.687,185.42c0,0 -4.458,-162.529 -33.494,-174.818c0,0 -48.192,42.289 -55.301,60.24c0,0 37.952,79.759 14.458,121.927c0,0 -14.458,-108.433 -26.385,-108.433c0,0 -48.193,71.686 -52.771,120.481c0,0 2.048,-73.132 41.205,-127.71c-27.561,5.155 -53.001,18.315 -73.132,37.831c-20.131,19.517 7.349,-50.722 84.939,-55.18c0,0 39.517,-54.337 49.999,-57.71c0,0 -77.107,-6.386 -123.854,14.337c0,0 41.204,-48.192 138.071,-26.144l54.096,-44.217c0,0 -101.565,-13.855 -144.577,1.446c0,0 49.518,-42.289 159.155,-11.446l58.915,-35.301c0,0 -86.505,-18.554 -138.071,-12.048c0,0 54.337,-29.276 155.42,2.53l42.048,-18.915c0,0 -63.373,-12.048 -81.927,-14.458c-18.554,-2.409 -19.518,-7.108 -19.518,-7.108c40.136,-6.701 81.356,-2.112 119.035,13.253c37.68,15.364 89.638,-33.373 88.072,-39.036Z" style="fill:#3855be;fill-rule:nonzero;"/><ellipse cx="5220.85" cy="13474.2" rx="360.479" ry="60.963" style="fill:#3855be;fill-opacity:0.1;"/><path d="M4679.41,13044.2c0,0 -287.227,-17.349 -253.01,183.854c-3.574,20.887 6.779,41.836 25.542,51.686c18.763,9.85 0,-14.819 29.397,-9.759c10.31,1.694 20.782,2.179 31.205,1.446c14.117,-0.918 27.545,-6.467 38.192,-15.783c10.647,-9.316 80.722,-33.253 112.047,-165.179c0,0 23.253,-28.795 22.289,-36.145l-48.192,20.723c0,0 16.626,34.94 3.614,63.975c0,0 -1.566,-62.65 -10.963,-61.204c-1.808,0 -25.181,12.048 -25.181,12.048c0,0 28.554,60.964 6.988,105.18c0,0 8.193,-74.939 -15.903,-100.722l-34.097,19.879c0,0 33.374,62.891 10.723,114.216c0,0 5.783,-78.674 -17.831,-109.276l-30.963,24.096c0,0 31.325,61.927 12.048,104.578c0,0 -2.41,-91.686 -18.795,-98.674c-11.758,9.91 -22.24,21.242 -31.205,33.734c-8.965,12.493 21.446,44.94 8.072,68.674c0,0 -8.072,-60.963 -14.819,-61.324c0,0 -26.867,40.481 -29.759,68.192c1.308,-25.711 9.326,-50.637 23.253,-72.289c-15.519,2.937 -29.845,10.351 -41.204,21.325c-11.359,10.975 4.096,-28.553 48.192,-31.084c0,0 22.289,-30.602 28.313,-32.529c0,0 -43.493,-3.615 -69.879,8.072c0,0 23.133,-26.988 77.831,-14.699l30.481,-24.939c0,0 -57.228,-7.832 -81.565,0.843c0,0 27.951,-24.096 89.758,-6.506l33.253,-19.879c-25.544,-5.594 -51.705,-7.862 -77.831,-6.747c-26.126,1.115 30.602,-16.506 87.59,1.446l24.096,-10.723c0,0 -36.144,-6.988 -46.265,-8.072c-10.12,-1.085 -10.963,-3.976 -10.963,-3.976c22.627,-3.773 45.864,-1.187 67.107,7.47c21.244,8.656 49.277,-18.795 48.434,-21.928Z" style="fill:#3855be;fill-rule:nonzero;"/><ellipse cx="4481.46" cy="13297.4" rx="203.251" ry="34.337" style="fill:#3855be;fill-opacity:0.1;"/><path d="M5226.03,12617.6c0,0 -346.744,-20.964 -305.78,222.046c-4.353,25.195 8.1,50.492 30.722,62.409c22.623,11.916 0,-18.072 35.542,-12.048c12.453,2.104 25.113,2.711 37.711,1.807c17.009,-1.133 33.184,-7.823 46.023,-19.036c12.84,-11.213 97.469,-40.241 135.421,-199.516c0,0 28.072,-34.699 26.867,-43.735l-58.433,25.06c0,0 20,42.168 4.217,77.228c0,0 -1.928,-75.662 -13.133,-73.975c-2.289,0 -30.361,14.699 -30.361,14.699c0,0 34.337,73.493 8.434,126.987c0,0 9.879,-90.602 -19.157,-121.686l-41.204,24.096c0,0 40.12,76.023 12.891,137.951c0,0 6.988,-95.06 -21.566,-132.529l-37.349,29.156c0,0 37.831,74.819 14.699,126.264c0,0 -3.012,-110.722 -22.771,-119.035c0,0 -32.65,28.795 -37.59,40.602c0,0 25.783,54.337 9.759,83.011c0,0 -9.88,-73.734 -17.952,-74.095c0,0 -32.409,48.915 -36.144,82.288c1.624,-30.943 11.302,-60.932 28.072,-86.987c-18.762,3.578 -36.067,12.586 -49.759,25.903c-13.692,13.317 5.061,-34.578 57.831,-37.59c0,0 26.867,-37.108 34.096,-39.277c0,0 -52.529,-4.457 -84.336,9.639c0,0 27.951,-32.53 93.854,-17.711l36.867,-30.12c0,0 -69.035,-9.398 -98.432,0.964c0,0 33.734,-28.795 108.432,-7.711l40.12,-24.096c0,0 -58.915,-12.048 -94.095,-8.072c0,0 37.108,-20 105.782,1.686l28.674,-12.891c0,0 -43.132,-8.434 -55.782,-9.759c-12.651,-1.325 -13.253,-4.819 -13.253,-4.819c27.328,-4.633 55.415,-1.545 81.084,8.915c25.668,10.46 61.083,-22.289 59.999,-26.023Z" style="fill:#3855be;fill-rule:nonzero;"/><ellipse cx="4987.24" cy="12923.1" rx="245.419" ry="41.445" style="fill:#3855be;fill-opacity:0.1;"/><ellipse cx="7516.61" cy="12940.3" rx="360.479" ry="60.963" style="fill:#3855be;fill-opacity:0.1;"/><path d="M7274.45,12657c0,0 205.661,-6.265 267.709,-50.361c62.047,-44.096 316.262,-96.385 331.683,-26.145c15.422,70.241 309.034,352.045 76.867,353.973c-232.166,1.928 -539.513,-36.144 -601.32,-73.855c-61.806,-37.71 -74.939,-203.612 -74.939,-203.612Z" style="fill:#a8a8a8;fill-rule:nonzero;"/><path d="M7954.8,12909.8c-232.166,1.928 -539.392,-36.144 -601.319,-73.854c-47.108,-28.675 -65.783,-131.565 -72.289,-179.155l-6.867,0c0,0 13.132,165.902 74.939,203.612c61.807,37.711 369.153,75.662 601.32,73.855c66.987,-0.602 90.119,-24.096 88.914,-60.24c-9.277,22.048 -34.819,35.421 -84.698,35.782Z" style="fill-opacity:0.2;fill-rule:nonzero;"/><g><circle cx="2772.79" cy="2818.63" r="416.667" style="fill:url(#_Linear2);"/><circle cx="2772.79" cy="2816.37" r="407.858" style="fill:#f5f5f5;"/><path d="M2773.95,3225.45c79.692,0.131 157.685,-23.207 224.207,-67.09c-15.029,-82.118 -72.231,-86.828 -72.231,-86.828l-315.385,0c0,0 -53.931,4.422 -70.829,79.997c68.564,48.228 150.411,74.057 234.238,73.921Z" style="fill:#3855be;fill-rule:nonzero;"/><path d="M2706.1,2971.36l126.162,0l0,100.922c0,34.595 -28.468,63.063 -63.063,63.063c-0.012,0 -0.024,0 -0.036,0c-34.595,0 -63.063,-28.468 -63.063,-63.063l0,0l0,-100.922Z" style="fill-opacity:0.1;fill-rule:nonzero;"/><path d="M2718.14,2966.69l102.072,0c6.608,0 12.045,5.437 12.045,12.045l0,88.877c0,34.595 -28.468,63.063 -63.063,63.063c-0.012,0 -0.024,0 -0.036,0c-34.595,0 -63.063,-28.468 -63.063,-63.063l0,0l0,-88.877c0,-6.608 5.437,-12.045 12.045,-12.045Z" style="fill:#fdb797;fill-rule:nonzero;"/><path d="M2706.35,3019c40.649,15.192 85.427,15.32 126.161,0.359l0,-15.496l-126.161,0l0,15.137Z" style="fill-opacity:0.1;fill-rule:nonzero;"/><circle cx="2769.63" cy="2846.64" r="180.811" style="fill:#fdb797;"/><ellipse cx="2592.56" cy="2838.91" rx="16.826" ry="31.531" style="fill:#fdb797;"/><ellipse cx="2945.77" cy="2838.91" rx="16.826" ry="31.531" style="fill:#fdb797;"/><path d="M2736.8,2865.63c0,-10.003 -8.122,-18.125 -18.125,-18.125l-41.087,0c-10.003,0 -18.125,8.122 -18.125,18.125l0,2.436c0,10.004 8.122,18.125 18.125,18.125l41.087,0c10.003,0 18.125,-8.121 18.125,-18.125l0,-2.436Z" style="fill:none;stroke:#333;stroke-width:7.19px;"/><path d="M2802.49,2868.03c0,10.004 8.122,18.125 18.125,18.125l41.086,0c10.004,0 18.125,-8.121 18.125,-18.125l0,-2.436c0,-10.003 -8.121,-18.125 -18.125,-18.125l-41.086,0c-10.003,0 -18.125,8.122 -18.125,18.125l0,2.436Z" style="fill:none;stroke:#333;stroke-width:7.19px;"/><path d="M2733.86,2851.24c0,0 24.52,-13.303 70.109,0" style="fill:none;fill-rule:nonzero;stroke:#333;stroke-width:7.19px;"/><path d="M2894.64,2715.59l44.367,103.079c0,0 54.254,-68.384 -44.367,-103.079Z" style="fill:#858585;fill-rule:nonzero;"/><path d="M2879.83,2866.84l66.227,-59.144" style="fill:none;fill-rule:nonzero;stroke:#333;stroke-width:7.19px;stroke-linecap:round;stroke-linejoin:round;stroke-miterlimit:4;"/><path d="M2644.69,2715.59l-44.367,103.079c0,0 -54.254,-68.384 44.367,-103.079Z" style="fill:#858585;fill-rule:nonzero;"/><path d="M2659.47,2866.84l-67.125,-59.144" style="fill:none;fill-rule:nonzero;stroke:#333;stroke-width:7.19px;stroke-linecap:round;stroke-linejoin:round;stroke-miterlimit:4;"/></g><g><circle cx="2771.97" cy="4858.92" r="415.842" style="fill:#f5f5f5;"/><path d="M3000.75,4899.9c0,138.345 -99.378,206.418 -228.449,206.418c-129.071,0 -238.859,-68.073 -238.859,-206.418c0,-138.345 104.62,-250.48 233.654,-250.48c129.034,0 233.654,112.025 233.654,250.48Z" style="fill:#333;fill-rule:nonzero;"/><path d="M2772.3,5276.41c81.264,0.141 160.798,-23.654 228.632,-68.403c-15.322,-83.725 -73.644,-88.527 -73.644,-88.527l-321.559,0c0,0 -54.986,4.508 -72.215,81.562c69.896,49.165 153.331,75.5 238.786,75.368Z" style="fill:#3855be;fill-rule:nonzero;"/><path d="M2703.16,5017.24l128.631,0l0,102.897c0,0.037 0,0.074 0,0.111c0,35.272 -29.025,64.297 -64.297,64.297c-0.049,0 -0.098,0 -0.147,-0.001c-35.272,0 -64.297,-29.024 -64.297,-64.297l0,-103.007l0.11,0Z" style="fill-opacity:0.1;fill-rule:nonzero;"/><path d="M2715.41,5012.59l104.07,0c6.737,0 12.28,5.543 12.28,12.28l0,90.617c0,35.272 -29.024,64.297 -64.297,64.297c-0.036,0 -0.073,0 -0.11,0c-35.272,0 -64.297,-29.025 -64.297,-64.297l0,-90.654c0,-6.737 5.544,-12.28 12.281,-12.28l0.073,0.037Z" style="fill:#fda57d;fill-rule:nonzero;"/><path d="M2703.42,5065.92c41.444,15.49 87.099,15.62 128.631,0.367l0,-15.8l-128.631,0l0,15.433Z" style="fill-opacity:0.1;fill-rule:nonzero;"/><circle cx="2767.94" cy="4890.15" r="184.35" style="fill:#fda57d;"/><path d="M2555.47,4902.21c0,0 114.811,-13.93 201.615,-125.222c0,0 114.811,126.395 194.798,112.465c0,0 46.371,-48.717 0,-97.398c-46.372,-48.681 -82.333,-110.156 -143.771,-102.055c-61.437,8.102 -136.842,11.584 -169.283,40.58c-32.442,28.996 -83.359,171.63 -83.359,171.63Z" style="fill-opacity:0.1;fill-rule:nonzero;"/><path d="M2555.47,4899.9c0,0 114.811,-13.93 201.615,-125.222c0,0 114.811,126.395 194.798,112.465c0,0 46.371,-48.718 0,-97.399c-46.372,-48.681 -82.333,-110.155 -143.771,-102.054c-61.437,8.101 -136.695,11.437 -169.137,40.763c-32.442,29.326 -83.505,171.447 -83.505,171.447Z" style="fill:#333;fill-rule:nonzero;"/><ellipse cx="2583.51" cy="4890.01" rx="17.156" ry="32.149" style="fill:#fda57d;"/><ellipse cx="2952.25" cy="4890.01" rx="17.156" ry="32.149" style="fill:#fda57d;"/></g><g><circle cx="2772.79" cy="6722.33" r="416.667" style="fill:url(#_Linear3);"/><circle cx="2773.59" cy="6719.63" r="407.858" style="fill:#f5f5f5;"/><path d="M2773.95,7129.15c79.692,0.131 157.685,-23.207 224.207,-67.089c-15.065,-82.154 -72.231,-86.864 -72.231,-86.864l-315.349,0c0,0 -53.931,4.422 -70.829,79.997c68.55,48.233 150.383,74.075 234.202,73.956Z" style="fill:#3855be;fill-rule:nonzero;"/><circle cx="2769.67" cy="6711.04" r="196.882" style="fill:#72351c;"/><path d="M2706.1,6875.03l126.162,0l0,100.922c0,0.036 0,0.072 0,0.108c0,34.595 -28.468,63.062 -63.063,63.062c0,0 0,0 0,0c-34.595,0 -63.063,-28.467 -63.063,-63.062l0,-101.03l-0.036,0Z" style="fill-opacity:0.1;fill-rule:nonzero;"/><path d="M2718.04,6870.35l102.072,0c6.608,0 12.045,5.437 12.045,12.044l0,88.878c0,34.595 -28.468,63.063 -63.063,63.063c-34.595,0 -63.063,-28.468 -63.063,-63.063l0,-88.878c0,-6.607 5.438,-12.044 12.045,-12.044l-0.036,0Z" style="fill:#fda57d;fill-rule:nonzero;"/><path d="M2706.24,6922.66c40.649,15.192 85.427,15.32 126.161,0.359l0,-15.496l-126.161,0l0,15.137Z" style="fill-opacity:0.1;fill-rule:nonzero;"/><circle cx="2769.67" cy="6750.3" r="180.811" style="fill:#fda57d;"/><path d="M2640.88,6585.85c0,0 76.186,154.601 291.225,64.716l-50.048,-78.486l-88.697,-31.855l-152.48,45.625Z" style="fill-opacity:0.1;fill-rule:nonzero;"/><path d="M2640.88,6583.59c0,0 76.186,154.6 291.225,64.716l-50.048,-78.486l-88.697,-31.855l-152.48,45.625Z" style="fill:#72351c;fill-rule:nonzero;"/><path d="M2640.2,6573.12c5.136,-15.902 14.015,-30.341 25.887,-42.101c35.558,-35.163 93.875,-42.569 123.788,-82.694c2.026,3.54 3.092,7.548 3.092,11.627c0,9.224 -5.453,17.624 -13.878,21.379c28.763,-0.18 61.876,-2.697 78.056,-26.282c8.159,18.991 4.637,41.079 -9.025,56.591c25.383,1.15 52.493,18.372 54.146,43.755c1.079,16.898 -9.491,32.898 -23.405,42.605c-13.914,9.708 -30.669,14.058 -47.208,17.653c-48.249,10.787 -222.948,55.405 -191.453,-42.533Z" style="fill:#72351c;fill-rule:nonzero;"/><path d="M2950.48,6751.89l-4.782,0l-93.263,83.089c-89.884,-42.066 -155.823,0 -155.823,0l-97.794,-79.602l-9.852,1.223c2.733,97.234 83.467,175.731 180.74,175.731c99.023,0 180.568,-81.347 180.81,-180.369l-0.036,-0.072Zm-181.062,114.872c-35.163,0 -63.674,-7.191 -63.674,-15.928c0,-8.737 28.511,-15.927 63.674,-15.927c35.162,0 63.674,7.19 63.674,15.927c0,8.737 -28.512,15.928 -63.71,15.928l0.036,0Z" style="fill:#72351c;fill-rule:nonzero;"/><ellipse cx="2588.78" cy="6750.12" rx="16.826" ry="31.531" style="fill:#fda57d;"/><ellipse cx="2950.44" cy="6750.12" rx="16.826" ry="31.531" style="fill:#fda57d;"/></g><g><circle cx="2772.79" cy="8609.69" r="416.667" style="fill:url(#_Linear4);"/><circle cx="2772.79" cy="8607.42" r="407.858" style="fill:#f5f5f5;"/><path d="M2773.95,9016.43c79.692,0.131 157.685,-23.207 224.207,-67.089c-15.029,-82.118 -72.231,-86.828 -72.231,-86.828l-315.349,0c0,0 -53.931,4.422 -70.829,79.997c68.554,48.221 150.387,74.049 234.202,73.92Z" style="fill:#3855be;fill-rule:nonzero;"/><circle cx="2769.67" cy="8598.43" r="180.811" style="fill:#333;"/><path d="M2706.14,8762.42l126.162,0l0,100.922c0,34.595 -28.468,63.062 -63.063,63.062c-34.595,0 -63.063,-28.467 -63.063,-63.062l0,-100.922l-0.036,0Z" style="fill-opacity:0.1;fill-rule:nonzero;"/><path d="M2718.18,8757.75l102.072,0c6.608,0 12.045,5.437 12.045,12.044l0,88.878c0,34.595 -28.468,63.062 -63.063,63.062c-34.595,0 -63.063,-28.467 -63.063,-63.062l0,-88.878c0,-6.594 5.415,-12.025 12.009,-12.044Z" style="fill:#be7c5e;fill-rule:nonzero;"/><path d="M2706.39,8810.06c40.648,15.193 85.427,15.32 126.161,0.36l0,-15.496l-126.161,0l0,15.136Z" style="fill-opacity:0.1;fill-rule:nonzero;"/><circle cx="2769.67" cy="8637.7" r="180.811" style="fill:#be7c5e;"/><path d="M2660.12,8563.13c2.121,-7.802 4.781,-16.395 11.792,-20.458c5.537,-3.236 12.404,-2.732 18.804,-2.409c49.976,2.733 99.52,-8.665 148.129,-20.565c27.792,-6.795 57.526,-15.065 75.503,-37.464c17.977,-22.399 -5.465,-92.796 -32.826,-101.102c-17.977,-5.5 -38.83,4.746 -55.872,-3.307c-7.586,-3.596 -13.159,-10.319 -19.702,-15.568c-13.411,-10.786 -30.633,-15.137 -47.315,-19.235c-19.487,-4.818 -40.556,-9.528 -59.072,-1.798c-14.382,5.968 -24.88,18.588 -38.507,26.066c-25.922,14.382 -57.525,7.694 -87.223,7.623c-10.031,0 -22.004,2.013 -25.995,11.217c-2.696,6.256 -0.539,13.375 -0.251,20.17c0.863,21.572 -16.934,38.363 -31.855,53.93c-14.921,15.568 -29.015,37.788 -19.595,57.131c3.595,7.37 10.175,12.943 13.914,20.242c6.436,12.655 3.2,27.936 5.537,41.922c2.34,10.612 6.306,20.799 11.757,30.201c11.074,21.572 66.694,137.702 92.257,108.184c12.368,-14.381 14.381,-55.944 19.379,-74.64c6.903,-26.869 13.95,-53.582 21.141,-80.14Z" style="fill:#333;fill-rule:nonzero;"/><ellipse cx="2641.02" cy="8631.12" rx="16.826" ry="31.531" style="fill:#be7c5e;"/></g><defs><linearGradient id="_Linear1" x1="0" y1="0" x2="1" y2="0" gradientUnits="userSpaceOnUse" gradientTransform="matrix(4.70983e-13,-7691.73,7691.73,4.70983e-13,9602.38,13462.4)"><stop offset="0" style="stop-color:#808080;stop-opacity:0.25"/><stop offset="0.54" style="stop-color:#808080;stop-opacity:0.12"/><stop offset="1" style="stop-color:#808080;stop-opacity:0.1"/></linearGradient><linearGradient id="_Linear2" x1="0" y1="0" x2="1" y2="0" gradientUnits="userSpaceOnUse" gradientTransform="matrix(5.10247e-14,-833.297,833.297,5.10247e-14,2772.79,3235.3)"><stop offset="0" style="stop-color:#808080;stop-opacity:0.12"/><stop offset="0.54" style="stop-color:#808080;stop-opacity:0.06"/><stop offset="1" style="stop-color:#808080;stop-opacity:0.05"/></linearGradient><linearGradient id="_Linear3" x1="0" y1="0" x2="1" y2="0" gradientUnits="userSpaceOnUse" gradientTransform="matrix(5.10247e-14,-833.297,833.297,5.10247e-14,2772.79,7138.96)"><stop offset="0" style="stop-color:#808080;stop-opacity:0.12"/><stop offset="0.54" style="stop-color:#808080;stop-opacity:0.06"/><stop offset="1" style="stop-color:#808080;stop-opacity:0.05"/></linearGradient><linearGradient id="_Linear4" x1="0" y1="0" x2="1" y2="0" gradientUnits="userSpaceOnUse" gradientTransform="matrix(5.10247e-14,-833.297,833.297,5.10247e-14,2772.79,9026.35)"><stop offset="0" style="stop-color:#808080;stop-opacity:0.12"/><stop offset="0.54" style="stop-color:#808080;stop-opacity:0.06"/><stop offset="1" style="stop-color:#808080;stop-opacity:0.05"/></linearGradient></defs></svg>