<?xml version="1.0" encoding="UTF-8" standalone="no"?><!DOCTYPE svg PUBLIC "-//W3C//DTD SVG 1.1//EN" "http://www.w3.org/Graphics/SVG/1.1/DTD/svg11.dtd"><svg width="100%" height="100%" viewBox="0 0 7242 7242" version="1.1" xmlns="http://www.w3.org/2000/svg" xmlns:xlink="http://www.w3.org/1999/xlink" xml:space="preserve" xmlns:serif="http://www.serif.com/" style="fill-rule:evenodd;clip-rule:evenodd;stroke-linejoin:round;stroke-miterlimit:1.41421;"><g><rect x="3079.17" y="3801.39" width="1083.33" height="361.111" style="fill:#3855be;fill-rule:nonzero;"/><path d="M5539.28,4162.5l-1015.67,0l0,180.556c0,99.775 -80.78,180.555 -180.555,180.555l-1444.44,0c-99.776,0 -180.555,-80.78 -180.555,-180.555l0,-180.556l-1015.67,0c-233.453,0 -439.917,-148.817 -513.831,-370.28l-649.201,-1947.93l0,3943.21c0,298.669 242.998,541.667 541.667,541.667l5079.63,0c298.669,0 541.667,-242.998 541.667,-541.667l0,-3943.07l-649.248,1947.79c-73.868,221.463 -280.331,370.28 -513.784,370.28Z" style="fill:#3855be;fill-rule:nonzero;"/><path d="M4343.06,912.5l-1444.44,0c-298.669,0 -541.667,242.998 -541.667,541.667l0,180.555l-1506.93,0l680.986,2043.24c24.685,73.868 93.616,123.427 171.387,123.427l1015.67,0l0,-180.556c0,-99.775 80.779,-180.555 180.555,-180.555l1444.44,0c99.775,0 180.555,80.78 180.555,180.555l0,180.556l1015.67,0c77.771,0 146.702,-49.559 171.387,-123.427l681.033,-2043.24l-1506.98,0l0,-180.555c0,-298.669 -242.997,-541.667 -541.666,-541.667Zm-1625,722.222l0,-180.555c0,-99.635 80.92,-180.556 180.555,-180.556l1444.44,0c99.634,0 180.555,80.921 180.555,180.556l0,180.555l-1805.56,0Z" style="fill:#3855be;fill-rule:nonzero;"/></g></svg>