<?xml version="1.0" encoding="UTF-8" standalone="no"?><!DOCTYPE svg PUBLIC "-//W3C//DTD SVG 1.1//EN" "http://www.w3.org/Graphics/SVG/1.1/DTD/svg11.dtd"><svg width="100%" height="100%" viewBox="0 0 7242 7242" version="1.1" xmlns="http://www.w3.org/2000/svg" xmlns:xlink="http://www.w3.org/1999/xlink" xml:space="preserve" xmlns:serif="http://www.serif.com/" style="fill-rule:evenodd;clip-rule:evenodd;stroke-linejoin:round;stroke-miterlimit:1.41421;"><path d="M6384.36,6121.02l0,-2824.24c0,-147.407 -119.469,-266.907 -266.876,-266.907l-1267.38,0l0,-768.424c0,-72.578 -39.328,-139.469 -102.672,-174.813l-1029.07,-573.892c-5.672,-3.172 -11.531,-5.953 -17.422,-8.516l0,-327.5l554.142,0c44.203,0 80.063,-35.86 80.063,-80.079l0,-404.469c0,-44.219 -35.86,-80.079 -80.063,-80.079l-554.142,0l0,-36.187c0,-44.219 -35.828,-80.079 -80.063,-80.079c-44.234,0 -80.062,35.86 -80.062,80.079l0,928.314c-5.891,2.579 -11.751,5.36 -17.438,8.516l-1029.07,573.908c-63.407,35.328 -102.703,102.234 -102.703,174.813l0,768.408l-1267.41,0c-147.407,0 -266.876,119.5 -266.876,266.907l0,2824.23c-113.39,51.312 -192.313,165.359 -192.313,297.875c0,180.595 146.376,326.954 326.939,326.954l5257.76,0c180.563,0 326.938,-146.359 326.938,-326.954c-0.015,-132.516 -78.922,-246.563 -192.297,-297.86Zm-1031.63,-2160.87c0,-85.859 69.61,-155.469 155.532,-155.469l290.704,0c85.844,0 155.469,69.61 155.469,155.469l0,290.736c0,85.859 -69.625,155.469 -155.469,155.469l-290.688,0c-85.923,0 -155.532,-69.61 -155.532,-155.469l0,-290.736l-0.016,0Zm0,934.128c0,-85.86 69.61,-155.469 155.532,-155.469l290.704,0c85.844,0 155.469,69.609 155.469,155.469l0,290.704c0,85.859 -69.625,155.469 -155.469,155.469l-290.688,0c-85.923,0 -155.532,-69.61 -155.532,-155.469l0,-290.704l-0.016,0Zm-934.08,-934.128c0,-85.859 69.578,-155.469 155.438,-155.469l290.735,0c85.813,0 155.453,69.61 155.453,155.469l0,290.736c0,85.859 -69.64,155.469 -155.453,155.469l-290.735,0c-85.86,0 -155.438,-69.61 -155.438,-155.469l0,-290.736Zm0,934.128c0,-85.86 69.578,-155.469 155.438,-155.469l290.735,0c85.813,0 155.453,69.609 155.453,155.469l0,290.704c0,85.859 -69.64,155.469 -155.453,155.469l-290.735,0c-85.86,0 -155.438,-69.61 -155.438,-155.469l0,-290.704Zm-797.815,-2632.21c243.22,0 440.392,197.157 440.392,440.376c0,243.22 -197.157,440.361 -440.392,440.361c-243.219,0 -440.376,-197.157 -440.376,-440.376c0,-243.22 197.157,-440.361 440.376,-440.361Zm-440.985,2528.09c0,-85.86 69.594,-155.47 155.516,-155.47l570.954,0c85.876,0 155.47,69.61 155.47,155.47l0,1224.85c0,28.032 -7.485,54.297 -20.5,77.016l-840.846,0c-13.016,-22.719 -20.547,-48.984 -20.547,-77.016l-0.047,-1224.85Zm-958.487,-830.003c0,-85.859 69.594,-155.469 155.454,-155.469l290.719,0c85.86,0 155.454,69.61 155.454,155.469l0,290.736c0,85.859 -69.594,155.469 -155.454,155.469l-290.719,0c-85.86,0 -155.454,-69.61 -155.454,-155.469l0,-290.736Zm0,934.128c0,-85.86 69.594,-155.469 155.454,-155.469l290.719,0c85.86,0 155.454,69.609 155.454,155.469l0,290.704c0,85.859 -69.594,155.469 -155.454,155.469l-290.719,0c-85.86,0 -155.454,-69.61 -155.454,-155.469l0,-290.704Zm-934.174,-934.128c0,-85.859 69.594,-155.469 155.5,-155.469l290.688,0c85.891,0 155.501,69.61 155.501,155.469l0,290.736c0,85.859 -69.61,155.469 -155.501,155.469l-290.672,0c-85.907,0 -155.501,-69.61 -155.501,-155.469l0,-290.736l-0.015,0Zm0,934.128c0,-85.86 69.594,-155.469 155.5,-155.469l290.688,0c85.891,0 155.501,69.609 155.501,155.469l0,290.704c0,85.859 -69.61,155.469 -155.501,155.469l-290.672,0c-85.907,0 -155.501,-69.61 -155.501,-155.469l0,-290.704l-0.015,0Z" style="fill:#3855be;fill-rule:nonzero;"/></svg>