<?xml version="1.0" encoding="UTF-8" standalone="no"?><!DOCTYPE svg PUBLIC "-//W3C//DTD SVG 1.1//EN" "http://www.w3.org/Graphics/SVG/1.1/DTD/svg11.dtd"><svg width="100%" height="100%" viewBox="0 0 7242 7242" version="1.1" xmlns="http://www.w3.org/2000/svg" xmlns:xlink="http://www.w3.org/1999/xlink" xml:space="preserve" xmlns:serif="http://www.serif.com/" style="fill-rule:evenodd;clip-rule:evenodd;stroke-linejoin:round;stroke-miterlimit:1.41421;"><g><path d="M3620.83,3557.06c648.583,0 1174.42,-638.648 1174.42,-1426.43c0,-787.806 -172.668,-1426.45 -1174.42,-1426.45c-1001.78,0 -1174.42,638.647 -1174.42,1426.45c0.018,787.787 525.834,1426.43 1174.42,1426.43Z" style="fill:#3855be;fill-rule:nonzero;"/><path d="M5836.49,5677.47c-21.725,-1372.38 -200.968,-1763.43 -1572.52,-2010.97c0,0 -193.102,246.009 -643.102,246.009c-450.001,0 -643.067,-246.009 -643.067,-246.009c-1356.59,244.824 -1546.76,630.092 -1571.76,1966.38c-2.033,109.12 -2.97,114.847 -3.341,102.173c0.07,23.74 0.176,67.631 0.176,144.19c0,0 326.545,658.269 2218.01,658.269c1891.46,0 2218.04,-658.269 2218.04,-658.269c0,-49.177 0.035,-83.4 0.07,-106.645c-0.371,7.831 -1.131,-7.353 -2.51,-95.119Z" style="fill:#3855be;fill-rule:nonzero;"/><path d="M5250.64,3302.37c526.789,0 953.827,-518.693 953.827,-1158.53c0,-639.85 -140.213,-1158.54 -953.827,-1158.54c-136.854,0 -254.618,14.725 -355.924,42.212c187.923,346.431 213.678,767.212 213.678,1103.09c0,380.3 -103.091,743.383 -292.941,1044.01c130.491,81.49 278.358,127.751 435.187,127.751Z" style="fill:#3855be;fill-rule:nonzero;"/><path d="M7050.11,5024.52c-17.677,-1114.62 -163.229,-1432.22 -1277.19,-1633.27c0,0 -156.811,199.819 -522.298,199.819c-15.114,0 -29.768,-0.459 -44.193,-1.113c232.221,104.7 443.478,250.481 599.052,463.806c268.954,368.792 330.787,864.204 343.55,1592.01c749.446,-148.096 903.041,-457.353 903.041,-457.353c0,-40.304 0,-67.95 0.071,-86.847c-0.301,6.647 -0.92,-5.268 -2.033,-77.053Z" style="fill:#3855be;fill-rule:nonzero;"/><path d="M1991.01,3302.37c156.847,0 304.678,-46.261 435.222,-127.733c-189.85,-300.631 -292.941,-663.714 -292.941,-1044.01c0,-335.896 25.755,-756.677 213.643,-1103.09c-101.289,-27.488 -219.034,-42.213 -355.924,-42.213c-813.614,0 -953.791,518.693 -953.791,1158.54c0,639.814 427.038,1158.51 953.791,1158.51Z" style="fill:#3855be;fill-rule:nonzero;"/><path d="M2035.2,3589.93c-14.389,0.654 -29.043,1.114 -44.192,1.114c-365.487,0 -522.299,-199.82 -522.299,-199.82c-1113.93,201.057 -1259.51,518.64 -1277.15,1633.27c-1.149,71.803 -1.732,83.7 -2.033,77.036c0.035,18.896 0.071,46.543 0.071,86.846c0,0 153.612,309.257 903.005,457.354c12.816,-727.792 74.614,-1223.2 343.603,-1592.02c155.557,-213.289 366.778,-359.088 598.999,-463.788Z" style="fill:#3855be;fill-rule:nonzero;"/></g></svg>