<?xml version="1.0" encoding="UTF-8" standalone="no"?><!DOCTYPE svg PUBLIC "-//W3C//DTD SVG 1.1//EN" "http://www.w3.org/Graphics/SVG/1.1/DTD/svg11.dtd"><svg width="100%" height="100%" viewBox="0 0 2134 2134" version="1.1" xmlns="http://www.w3.org/2000/svg" xmlns:xlink="http://www.w3.org/1999/xlink" xml:space="preserve" xmlns:serif="http://www.serif.com/" style="fill-rule:evenodd;clip-rule:evenodd;stroke-linejoin:round;stroke-miterlimit:1.41421;"><g><path d="M1065.6,621.171c-18.143,0 -32.87,14.728 -32.87,32.871c0,18.143 14.727,32.87 32.87,32.87c18.143,0 32.87,-14.727 32.87,-32.87c0,-18.143 -14.727,-32.871 -32.87,-32.871Z" style="fill:#3855be;fill-rule:nonzero;"/><path d="M519.953,1212.84c18.143,0 32.87,-14.727 32.87,-32.87c0,-18.143 -14.727,-32.871 -32.87,-32.871c-18.143,0 -32.871,14.728 -32.871,32.871c0,18.143 14.728,32.87 32.871,32.87Z" style="fill:#3855be;fill-rule:nonzero;"/><path d="M1329.63,310.648c-295.924,0 -538.805,204.027 -557.59,461.02c-281.825,14.137 -546.855,217.355 -546.855,492.221c0,114.866 45.454,226.164 128.195,314.349c16.37,67.487 -3.506,139.018 -52.824,188.337c-9.399,9.398 -12.211,23.535 -7.126,35.823c5.084,12.275 17.064,20.287 30.366,20.287c93.745,0 184.087,-36.761 251.215,-101.538c65.394,22.29 150.715,35.798 228.693,35.798c295.884,0 538.74,-203.977 557.576,-460.918c68.823,-3.055 140.406,-15.767 197.043,-35.066c67.127,64.778 157.469,101.539 251.214,101.539c13.302,0 25.282,-8.012 30.367,-20.287c5.084,-12.288 2.272,-26.425 -7.126,-35.824c-49.319,-49.318 -69.195,-120.85 -52.824,-188.337c82.741,-88.185 128.194,-199.482 128.194,-314.348c0,-285.6 -285.446,-493.056 -578.518,-493.056Zm-525.926,1380.56c-77.58,0 -165.983,-15.228 -225.201,-38.79c-12.686,-5.059 -27.182,-1.733 -36.414,8.346c-39.689,43.387 -91.292,73.638 -147.519,87.543c30.983,-59.359 38.893,-129.337 20.043,-195.643c-1.489,-5.226 -4.25,-10.002 -8.037,-13.893c-74.575,-76.808 -115.65,-174.431 -115.65,-274.878c0,-231.634 234.818,-427.315 512.778,-427.315c262.475,0 493.055,182.521 493.055,427.315c0,235.627 -221.181,427.315 -493.055,427.315Zm923.054,-612.622c-3.788,3.904 -6.549,8.68 -8.038,13.893c-18.849,66.306 -10.94,136.284 20.043,195.643c-56.226,-13.893 -107.83,-44.157 -147.519,-87.543c-9.231,-10.067 -23.728,-13.405 -36.414,-8.346c-51.321,20.416 -124.535,34.552 -193.652,37.968c-9.605,-124.304 -71.609,-241.135 -177.616,-327.882l428.753,0c18.156,0 32.87,-14.715 32.87,-32.871c0,-18.155 -14.714,-32.87 -32.87,-32.87l-529.74,0c-74.613,-37.981 -158.394,-60.13 -244.627,-64.778c18.888,-220.771 232.198,-395.407 491.682,-395.407c277.96,0 512.778,195.681 512.778,427.315c0,100.447 -41.076,198.069 -115.65,274.878Z" style="fill:#3855be;fill-rule:nonzero;"/><path d="M1065.6,1147.1l-414.167,0c-18.155,0 -32.87,14.715 -32.87,32.871c0,18.155 14.715,32.87 32.87,32.87l414.167,0c18.156,0 32.87,-14.715 32.87,-32.87c0,-18.156 -14.714,-32.871 -32.87,-32.871Z" style="fill:#3855be;fill-rule:nonzero;"/><path d="M1065.6,1344.32l-545.648,0c-18.156,0 -32.871,14.714 -32.871,32.87c0,18.156 14.715,32.87 32.871,32.87l545.648,0c18.156,0 32.87,-14.714 32.87,-32.87c0,-18.156 -14.714,-32.87 -32.87,-32.87Z" style="fill:#3855be;fill-rule:nonzero;"/><path d="M1611.25,621.171l-414.166,0c-18.156,0 -32.871,14.715 -32.871,32.871c0,18.155 14.715,32.87 32.871,32.87l414.166,0c18.156,0 32.871,-14.715 32.871,-32.87c0,-18.156 -14.715,-32.871 -32.871,-32.871Z" style="fill:#3855be;fill-rule:nonzero;"/></g></svg>