<?xml version="1.0" encoding="UTF-8" standalone="no"?><!DOCTYPE svg PUBLIC "-//W3C//DTD SVG 1.1//EN" "http://www.w3.org/Graphics/SVG/1.1/DTD/svg11.dtd"><svg width="100%" height="100%" viewBox="0 0 4015 3227" version="1.1" xmlns="http://www.w3.org/2000/svg" xmlns:xlink="http://www.w3.org/1999/xlink" xml:space="preserve" xmlns:serif="http://www.serif.com/" style="fill-rule:evenodd;clip-rule:evenodd;stroke-linejoin:round;stroke-miterlimit:1.41421;"><path d="M2622.81,274.731c0,-42.874 -34.808,-77.682 -77.682,-77.682l-2384.44,0c-42.874,0 -77.682,34.808 -77.682,77.682l0,2366.46c0,42.874 34.808,77.682 77.682,77.682l2384.44,0c42.874,0 77.682,-34.808 77.682,-77.682l0,-2366.46Z" style="fill:#ebebeb;"/><rect x="0" y="2998.03" width="4014.62" height="9.336" style="fill:#3f3d56;"/><path d="M2518.85,1399.21c0,0 -180.072,141.485 -90.036,173.641c90.036,32.156 147.916,-115.76 147.916,-115.76l-57.88,-57.881Z" style="fill:#ffb8b8;fill-rule:nonzero;"/><path d="M2525.28,1347.76l-38.587,64.312c0,0 64.311,0 77.174,96.467l51.449,-64.312l-90.036,-96.467Z" style="fill:#cfcce0;fill-rule:nonzero;"/><path d="M3380.62,2814.06l6.433,192.933l-77.175,45.016l-32.154,-19.291l6.429,-218.659l96.467,0.001Z" style="fill:#ffb8b8;fill-rule:nonzero;"/><path d="M2924.01,2762.61l12.862,205.797l-180.072,77.174l12.863,-109.33c0,0 51.449,-83.605 38.586,-173.641l115.761,0Z" style="fill:#ffb8b8;fill-rule:nonzero;"/><path d="M3200.55,1212.71c0,0 102.898,270.108 122.191,437.318c19.294,167.209 51.45,610.958 51.45,610.958l64.311,572.372l-180.072,25.725l-77.174,-578.803l-173.64,-572.372l-38.587,572.372l-32.156,520.922l-167.21,6.431l-12.862,-540.216l-70.743,-688.132l38.587,-327.988l475.905,-38.587Z" style="fill:#2f2e41;fill-rule:nonzero;"/><path d="M3297.02,3019.86c0,0 10.548,-108.012 88.879,-47.575l14.019,-10.305l64.312,141.485c0,0 77.173,109.329 -57.881,122.192c-135.054,12.862 -122.191,-122.192 -122.191,-122.192l-12.863,-57.88l6.431,-37.904l19.294,12.179Z" style="fill:#2f2e41;fill-rule:nonzero;"/><path d="M2924.01,2891.24c32.195,18.408 51.935,52.954 51.449,90.036c0,64.312 -6.431,70.743 -6.431,70.743l-96.467,25.724c0,0 -64.312,-6.431 -102.898,32.156c-38.587,38.587 -231.522,64.311 -231.522,12.863c0,-51.449 160.779,-135.055 160.779,-135.055c0,0 47.746,-80.634 81.753,-72.472c34.007,8.161 46.87,21.023 46.87,27.454c0,6.431 -19.294,51.449 -19.294,51.449c0,0 109.33,-25.724 115.761,-102.898Z" style="fill:#2f2e41;fill-rule:nonzero;"/><circle cx="2911.15" cy="260.898" r="160.779" style="fill:#ffb8b8;"/><path d="M3030.13,302.701l70.742,160.778l-192.934,276.539c0,0 -12.863,-302.264 -51.449,-353.713c-38.587,-51.449 173.641,-83.604 173.641,-83.604Z" style="fill:#ffb8b8;fill-rule:nonzero;"/><path d="M2940.09,637.121l32.158,-83.604l25.721,6.429l32.158,-25.725l45.017,-141.483l64.312,45.016l83.605,842.479l-520.921,12.863l70.741,-585.233l64.313,-167.209l46.421,-61.371l30.75,93.525l25.725,64.313Z" style="fill:#cfcce0;fill-rule:nonzero;"/><path d="M3088.01,997.264l19.679,-581.748c0,0 38.201,2.945 51.063,22.238c12.863,19.294 225.09,57.881 225.09,57.881l-38.587,598.096c0,0 160.779,475.905 102.899,501.629c-57.88,25.725 -160.779,19.294 -160.779,19.294l-199.365,-617.39Z" style="fill:#575a89;fill-rule:nonzero;"/><path d="M2776.1,923.306l68.224,-392.076l-151.828,102.674l38.586,282.971l-32.155,192.934c0,0 -122.192,533.785 -83.605,553.078c38.587,19.294 83.605,0 83.605,0l77.173,-540.216l0,-199.365Z" style="fill:#575a89;fill-rule:nonzero;"/><path d="M2737.51,621.042l-45.018,12.863l-19.294,257.245l-32.156,225.09l-154.347,276.539c0,0 77.174,-51.449 109.329,96.467l169.982,-295.943l-28.496,-572.261Z" style="fill:#575a89;fill-rule:nonzero;"/><path d="M3239.14,1347.76c0,0 -180.072,141.485 -90.036,173.641c90.036,32.156 147.916,-115.761 147.916,-115.761l-57.88,-57.88Z" style="fill:#ffb8b8;fill-rule:nonzero;"/><path d="M3348.47,1418.5l-57.879,70.742l-77.175,-135.054l32.154,-57.879l102.9,122.191Z" style="fill:#cfcce0;fill-rule:nonzero;"/><path d="M3335.61,518.144l51.449,-25.725c0,0 38.587,51.449 45.018,96.467c6.431,45.018 38.587,102.899 38.587,135.054c0,32.156 90.036,334.42 90.036,334.42l-205.797,418.024c0,0 -45.018,-154.347 -141.485,-167.21l160.779,-225.09l-90.036,-160.778l51.449,-405.162Z" style="fill:#575a89;fill-rule:nonzero;"/><path d="M3045.75,107.711l30.319,-12.138c0,0 -63.393,-69.792 -151.593,-63.723l24.807,-27.311c0,0 -60.637,-24.275 -115.762,39.448c-28.978,33.498 -62.505,72.873 -83.406,117.228l-32.469,0l13.551,29.839l-47.43,29.838l48.682,-5.359c-2.901,16.34 -3.346,33.021 -1.321,49.493c2.088,16.47 10.501,31.5 23.45,41.891c12.948,10.391 37.6,-77.829 37.6,-89.967l0,30.345c0,0 30.319,-27.31 30.319,-45.517l16.537,21.241l8.269,-33.379l101.98,33.379l-16.537,-27.31l63.393,9.104l-24.807,-33.38c0,0 71.662,39.448 74.418,72.827c2.756,33.379 23.732,65.007 23.732,65.007c0,0 56.199,-156.04 -23.732,-201.556Z" style="fill:#2f2e41;fill-rule:nonzero;"/><ellipse cx="3042.99" cy="235.173" rx="18.007" ry="22.509" style="fill:#ffb8b8;"/><path d="M744.171,1325.49l-555.167,0l0,-155.567l289.788,0l265.379,155.567Z" style="fill:#3755be;fill-rule:nonzero;"/><path d="M187.48,1304.14l0,454.506l1802.77,0l0,-454.506l-1802.77,0Zm703.111,378.246l-585.672,0l0,-64.058l585.672,0l0,64.058Zm982.22,-118.964l-1567.89,0l0,-64.058l1567.89,0l0,64.058Zm0,-118.965l-1567.89,0l0,-64.058l1567.89,0l0,64.058Z" style="fill:#3f3d56;fill-rule:nonzero;"/><path d="M744.171,590.354l-555.167,0l0,-155.571l289.788,0l265.379,155.571Z" style="fill:#3755be;fill-rule:nonzero;"/><path d="M187.48,578.151l0,454.506l1802.77,0l0,-454.506l-1802.77,0Zm703.111,378.247l-585.672,0l0,-64.058l585.672,0l0,64.058Zm338.591,-118.965l-924.263,0l0,-64.058l924.263,0l0,64.058Zm643.629,-118.965l-1567.89,0l0,-64.057l1567.89,0l0,64.057Z" style="fill:#3f3d56;fill-rule:nonzero;"/><path d="M744.171,2045.38l-555.167,0l0,-155.566l289.788,0l265.379,155.566Z" style="fill:#3755be;fill-rule:nonzero;"/><path d="M187.48,2014.88l0,454.505l1802.77,0l0,-454.505l-1802.77,0Zm1041.7,378.246l-924.263,0l0,-64.058l924.263,0l0,64.058Zm0,-118.964l-924.263,0l0,-64.058l924.263,0l0,64.058Zm643.629,-118.965l-1567.89,0l0,-64.058l1567.89,0l0,64.058Z" style="fill:#3f3d56;fill-rule:nonzero;"/><path d="M2501.19,931.996l-256.234,0l0,-256.233l173.875,0l0,6.1l-167.771,0l0,244.033l244.03,0l-0.001,-122.017l6.101,0l-0.001,128.117Z" style="fill:#3f3d56;fill-rule:nonzero;"/><path d="M2371.75,865.16c-5.921,-17.484 -80.175,-76.916 -34.674,-86.905l37.313,49.753l171.551,-171.548l17.254,17.254l-191.444,191.446Z" style="fill:#3755be;fill-rule:nonzero;"/><path d="M2501.19,1657.98l-256.234,0l0,-256.233l173.875,0l0,6.104l-167.771,0l0,244.029l244.03,0l-0.001,-122.016l6.101,0l-0.001,128.116Z" style="fill:#3f3d56;fill-rule:nonzero;"/><path d="M2371.75,1591.15c-5.921,-17.484 -80.175,-76.916 -34.674,-86.906l37.313,49.754l171.551,-171.548l17.254,17.254l-191.444,191.446Z" style="fill:#3755be;fill-rule:nonzero;"/><path d="M2501.19,2380.92l-256.234,0l0,-256.229l173.875,0l0,6.1l-167.771,0l0,244.029l244.03,0l-0.001,-122.017l6.101,0l-0.001,128.117Z" style="fill:#3f3d56;fill-rule:nonzero;"/><path d="M2371.75,2314.09c-5.921,-17.484 -80.175,-76.917 -34.674,-86.906l37.313,49.753l171.551,-171.548l17.254,17.254l-191.444,191.446Z" style="fill:#3755be;fill-rule:nonzero;"/></svg>