<?xml version="1.0" encoding="UTF-8" standalone="no"?><!DOCTYPE svg PUBLIC "-//W3C//DTD SVG 1.1//EN" "http://www.w3.org/Graphics/SVG/1.1/DTD/svg11.dtd"><svg width="100%" height="100%" viewBox="0 0 100 100" version="1.1" xmlns="http://www.w3.org/2000/svg" xmlns:xlink="http://www.w3.org/1999/xlink" xml:space="preserve" xmlns:serif="http://www.serif.com/" style="fill-rule:evenodd;clip-rule:evenodd;stroke-linejoin:round;stroke-miterlimit:1.41421;"><g><rect x="0" y="0" width="100" height="100" style="fill:none;"/><path d="M33.333,70.833c0,-2.299 -1.867,-4.166 -4.166,-4.166l-8.334,0c-2.299,0 -4.166,1.867 -4.166,4.166l0,8.334c0,2.299 1.867,4.166 4.166,4.166l8.334,0c2.299,0 4.166,-1.867 4.166,-4.166l0,-8.334Z" style="fill:#3855be;"/><path d="M33.333,45.833c0,-2.299 -1.867,-4.166 -4.166,-4.166l-8.334,0c-2.299,0 -4.166,1.867 -4.166,4.166l0,8.334c0,2.299 1.867,4.166 4.166,4.166l8.334,0c2.299,0 4.166,-1.867 4.166,-4.166l0,-8.334Z" style="fill:#3855be;"/><path d="M58.333,70.833c0,-2.299 -1.867,-4.166 -4.166,-4.166l-8.334,0c-2.299,0 -4.166,1.867 -4.166,4.166l0,8.334c0,2.299 1.867,4.166 4.166,4.166l8.334,0c2.299,0 4.166,-1.867 4.166,-4.166l0,-8.334Z" style="fill:#3855be;"/><path d="M58.333,45.833c0,-2.299 -1.867,-4.166 -4.166,-4.166l-8.334,0c-2.299,0 -4.166,1.867 -4.166,4.166l0,8.334c0,2.299 1.867,4.166 4.166,4.166l8.334,0c2.299,0 4.166,-1.867 4.166,-4.166l0,-8.334Z" style="fill:#c3cced;"/><path d="M33.333,20.833c0,-2.299 -1.867,-4.166 -4.166,-4.166l-8.334,0c-2.299,0 -4.166,1.867 -4.166,4.166l0,8.334c0,2.299 1.867,4.166 4.166,4.166l8.334,0c2.299,0 4.166,-1.867 4.166,-4.166l0,-8.334Z" style="fill:#3855be;"/><path d="M83.333,70.833c0,-2.299 -1.867,-4.166 -4.166,-4.166l-8.334,0c-2.299,0 -4.166,1.867 -4.166,4.166l0,8.334c0,2.299 1.867,4.166 4.166,4.166l8.334,0c2.299,0 4.166,-1.867 4.166,-4.166l0,-8.334Z" style="fill:#3855be;"/></g></svg>