<?xml version="1.0" encoding="UTF-8" standalone="no"?><!DOCTYPE svg PUBLIC "-//W3C//DTD SVG 1.1//EN" "http://www.w3.org/Graphics/SVG/1.1/DTD/svg11.dtd"><svg width="100%" height="100%" viewBox="0 0 100 100" version="1.1" xmlns="http://www.w3.org/2000/svg" xmlns:xlink="http://www.w3.org/1999/xlink" xml:space="preserve" xmlns:serif="http://www.serif.com/" style="fill-rule:evenodd;clip-rule:evenodd;stroke-linejoin:round;stroke-miterlimit:1.41421;"><g><path d="M0,0l100,0l0,100l-100,0l0,-100Z" style="fill:none;"/><path d="M75,58.333c-6.904,0 -12.5,-5.596 -12.5,-12.5c0,-6.903 5.596,-12.5 12.5,-12.5c6.904,0 12.5,5.597 12.5,12.5c0,6.904 -5.596,12.5 -12.5,12.5Zm-37.5,-12.5c-9.205,0 -16.667,-7.462 -16.667,-16.666c0,-9.205 7.462,-16.667 16.667,-16.667c9.205,0 16.667,7.462 16.667,16.667c0,9.204 -7.462,16.666 -16.667,16.666Z" style="fill:#c3cced;fill-rule:nonzero;"/><path d="M73.338,62.503c14.194,0.155 25.784,7.331 26.656,22.497c0.035,0.611 0,2.5 -2.261,2.5l-16.066,0c0,-9.379 -3.099,-18.034 -8.329,-24.997Zm-73.335,21.66c1.615,-19.886 17.755,-29.996 37.428,-29.996c19.949,0 36.339,9.555 37.56,30c0.049,0.814 0,3.333 -3.13,3.333l-68.83,0c-1.045,0 -3.116,-2.253 -3.028,-3.337Z" style="fill:#3755be;fill-rule:nonzero;"/></g></svg>