<?xml version="1.0" encoding="UTF-8" standalone="no"?><!DOCTYPE svg PUBLIC "-//W3C//DTD SVG 1.1//EN" "http://www.w3.org/Graphics/SVG/1.1/DTD/svg11.dtd"><svg width="100%" height="100%" viewBox="0 0 100 100" version="1.1" xmlns="http://www.w3.org/2000/svg" xmlns:xlink="http://www.w3.org/1999/xlink" xml:space="preserve" xmlns:serif="http://www.serif.com/" style="fill-rule:evenodd;clip-rule:evenodd;stroke-linejoin:round;stroke-miterlimit:1.41421;"><g><rect x="0" y="0" width="100" height="100" style="fill:none;"/><path d="M25,37.5l0,25c0,6.904 5.596,12.5 12.5,12.5l25,0l0,3.409c0,5.893 -3.198,9.091 -9.091,9.091l-31.818,0c-5.893,0 -9.091,-3.198 -9.091,-9.091l0,-31.818c0,-5.893 3.198,-9.091 9.091,-9.091l3.409,0Z" style="fill:#3855be;fill-rule:nonzero;"/><path d="M42.424,16.667l31.818,0c5.893,0 9.091,3.198 9.091,9.091l0,31.818c0,5.893 -3.198,9.091 -9.091,9.091l-31.818,0c-5.893,0 -9.091,-3.198 -9.091,-9.091l0,-31.818c0,-5.893 3.198,-9.091 9.091,-9.091Z" style="fill:#c3cced;"/></g></svg>