<?xml version="1.0" encoding="UTF-8" standalone="no"?><!DOCTYPE svg PUBLIC "-//W3C//DTD SVG 1.1//EN" "http://www.w3.org/Graphics/SVG/1.1/DTD/svg11.dtd"><svg width="100%" height="100%" viewBox="0 0 417 417" version="1.1" xmlns="http://www.w3.org/2000/svg" xmlns:xlink="http://www.w3.org/1999/xlink" xml:space="preserve" xmlns:serif="http://www.serif.com/" style="fill-rule:evenodd;clip-rule:evenodd;stroke-linejoin:round;stroke-miterlimit:1.41421;"><g><path d="M305.35,218.033l29.108,0c16.071,0 29.105,13.034 29.105,29.109c0,16.075 -13.034,29.104 -29.105,29.104l-252.25,0c-16.07,0 -29.104,-13.029 -29.104,-29.104c0,-16.075 13.034,-29.109 29.104,-29.109l29.109,0l10.829,-97.491c4.883,-43.917 42,-77.138 86.187,-77.138c44.188,0 81.305,33.221 86.188,77.138l10.829,97.491Z" style="fill:#3755be;"/><path d="M247.142,330.371c0,-19.163 -15.559,-34.721 -34.725,-34.721l-8.167,0c-19.167,0 -34.725,15.558 -34.725,34.721l0,8.171c0,19.162 15.558,34.721 34.725,34.721l8.167,0c19.166,0 34.725,-15.559 34.725,-34.721l0,-8.171Z" style="fill:#3755be;"/></g></svg>