<?xml version="1.0" encoding="UTF-8" standalone="no"?><!DOCTYPE svg PUBLIC "-//W3C//DTD SVG 1.1//EN" "http://www.w3.org/Graphics/SVG/1.1/DTD/svg11.dtd"><svg width="100%" height="100%" viewBox="0 0 1250 1250" version="1.1" xmlns="http://www.w3.org/2000/svg" xmlns:xlink="http://www.w3.org/1999/xlink" xml:space="preserve" xmlns:serif="http://www.serif.com/" style="fill-rule:evenodd;clip-rule:evenodd;stroke-linejoin:round;stroke-miterlimit:1.41421;"><g><path d="M852.383,686.067c6.992,27.633 -69.508,18.866 -88.191,44.737c-18.696,25.859 -64.375,8.484 -74.967,3.513c-10.592,-4.971 -51.158,11.595 -47.612,-16.567c3.525,-28.171 28.204,-29.825 54.67,-41.421c26.455,-11.583 64.613,-50.1 45.863,-55.133c-88.279,-23.679 -118.396,-106.608 -118.396,-106.608c-5.296,-0.996 -3.967,-58.625 -26.887,-60.28c-22.942,-1.662 -35.296,6.625 -68.796,0c-33.521,-6.625 -26.454,-28.162 -31.75,-74.554c-5.284,-46.392 14.125,-31.479 24.608,-46.383c0.917,-1.309 2.108,-2.475 3.275,-3.642c-122.742,42.025 -211.271,158.479 -211.271,295.279c0,0.217 0.013,0.434 0.013,0.65c22.812,1.471 64.354,6.288 66.308,21.938c2.7,21.612 0,48.629 18.913,56.733c18.912,8.104 24.316,-32.421 40.525,-21.612c16.208,10.808 59.437,21.212 59.437,40.32c0,19.105 -8.104,48.834 0,54.238c8.104,5.404 40.504,43.225 40.513,48.629c0.012,5.404 11.42,32.883 8.016,43.388c-2.821,8.708 -17.054,35.75 -30.854,48.045c34.008,12.742 70.796,19.755 109.2,19.755c172.083,0 312.083,-140 312.083,-312.084c0,-50.962 -12.362,-99.075 -34.116,-141.608c2.087,31.738 0.679,60.658 7.629,70.133c30.412,41.413 -74.088,69.9 -58.213,132.534Z" style="fill:#3755be;fill-rule:nonzero;"/><path d="M624.988,0c-345.163,0 -624.976,279.838 -624.976,624.988c0,345.15 279.813,625.012 624.976,625.012c345.162,0 625,-279.846 625,-625.012c0,-345.167 -279.834,-624.988 -625.001,-624.988Zm0.013,1001.93c-207.833,0 -376.925,-169.079 -376.925,-376.925c0,-207.846 169.092,-376.925 376.925,-376.925c207.833,0 376.925,169.079 376.925,376.925c0,207.846 -169.092,376.925 -376.925,376.925Z" style="fill:#3755be;fill-rule:nonzero;"/></g></svg>