<?xml version="1.0" encoding="UTF-8" standalone="no"?><!DOCTYPE svg PUBLIC "-//W3C//DTD SVG 1.1//EN" "http://www.w3.org/Graphics/SVG/1.1/DTD/svg11.dtd"><svg width="100%" height="100%" viewBox="0 0 2134 2134" version="1.1" xmlns="http://www.w3.org/2000/svg" xmlns:xlink="http://www.w3.org/1999/xlink" xml:space="preserve" xmlns:serif="http://www.serif.com/" style="fill-rule:evenodd;clip-rule:evenodd;stroke-linejoin:round;stroke-miterlimit:1.41421;"><path d="M2070.83,1295.83l-1166.67,0c-34.517,0 -62.5,-27.983 -62.5,-62.5l0,-333.333c0,-34.517 27.983,-62.5 62.5,-62.5l1166.67,0c34.517,0 62.5,27.983 62.5,62.5l0,333.333c0,34.517 -27.983,62.5 -62.5,62.5Z" style="fill:#c3cced;fill-rule:nonzero;"/><path d="M2070.83,1962.5l-1166.67,0c-34.517,0 -62.5,-27.983 -62.5,-62.5l0,-333.333c0,-34.517 27.983,-62.5 62.5,-62.5l1166.67,0c34.517,0 62.5,27.983 62.5,62.5l0,333.333c0,34.517 -27.983,62.5 -62.5,62.5Z" style="fill:#c3cced;fill-rule:nonzero;"/><path d="M2070.83,629.167l-1166.67,0c-34.517,0 -62.5,-27.984 -62.5,-62.5l0,-333.334c0,-34.516 27.983,-62.5 62.5,-62.5l1166.67,0c34.517,0 62.5,27.984 62.5,62.5l0,333.334c0,34.516 -27.983,62.5 -62.5,62.5Z" style="fill:#c3cced;fill-rule:nonzero;"/><path d="M333.333,1716.67c-91.9,0 -166.666,-74.767 -166.666,-166.667c0,-91.9 74.766,-166.667 166.666,-166.667c91.9,0 166.667,74.767 166.667,166.667c0,91.9 -74.767,166.667 -166.667,166.667Z" style="fill:#3855be;fill-rule:nonzero;"/><path d="M520.058,1773.85c-50.629,42.304 -115.745,67.821 -186.725,67.821c-70.979,0 -136.095,-25.513 -186.725,-67.817c-88.466,59.933 -146.608,161.25 -146.608,276.15l0,20.833c0,34.517 27.983,62.5 62.5,62.5l541.667,0c34.516,0 62.5,-27.983 62.5,-62.5l0,-20.833c0,-114.904 -58.146,-216.217 -146.609,-276.154Z" style="fill:#3855be;fill-rule:nonzero;"/><path d="M333.333,333.333c-91.9,0 -166.666,-74.766 -166.666,-166.666c0,-91.9 74.762,-166.667 166.666,-166.667c91.904,0 166.667,74.767 166.667,166.667c0,91.9 -74.767,166.666 -166.667,166.666Z" style="fill:#3855be;fill-rule:nonzero;"/><path d="M333.333,1025c-91.9,0 -166.666,-74.767 -166.666,-166.667c0,-91.9 74.766,-166.666 166.666,-166.666c91.9,0 166.667,74.766 166.667,166.666c0,91.9 -74.767,166.667 -166.667,166.667Z" style="fill:#3855be;fill-rule:nonzero;"/><path d="M333.333,566.667c122.55,0 227.617,76.012 270.721,183.333l0.113,0c34.516,0 62.5,-27.983 62.5,-62.5l0,-20.833c0,-114.904 -58.146,-216.217 -146.609,-276.155c-50.629,42.305 -115.746,67.821 -186.725,67.821c-70.979,0 -136.096,-25.512 -186.725,-67.816c-88.466,59.933 -146.608,161.25 -146.608,276.15l0,20.833c0,34.517 27.983,62.5 62.5,62.5l0.112,0c43.105,-107.321 148.167,-183.333 270.721,-183.333Z" style="fill:#3855be;fill-rule:nonzero;"/><path d="M520.058,1082.18c-50.629,42.304 -115.745,67.821 -186.725,67.821c-70.979,0 -136.095,-25.512 -186.725,-67.817c-88.466,59.934 -146.608,161.25 -146.608,276.15l0,20.834c0,34.516 27.983,62.5 62.5,62.5l0.113,0c43.104,-107.321 148.166,-183.334 270.72,-183.334c122.555,0 227.617,76.013 270.721,183.334l0.113,0c34.516,0 62.5,-27.984 62.5,-62.5l0,-20.834c0,-114.904 -58.146,-216.216 -146.609,-276.154Z" style="fill:#3855be;fill-rule:nonzero;"/></svg>