<?xml version="1.0" encoding="UTF-8" standalone="no"?><!DOCTYPE svg PUBLIC "-//W3C//DTD SVG 1.1//EN" "http://www.w3.org/Graphics/SVG/1.1/DTD/svg11.dtd"><svg width="100%" height="100%" viewBox="0 0 6321 6321" version="1.1" xmlns="http://www.w3.org/2000/svg" xmlns:xlink="http://www.w3.org/1999/xlink" xml:space="preserve" xmlns:serif="http://www.serif.com/" style="fill-rule:evenodd;clip-rule:evenodd;stroke-linejoin:round;stroke-miterlimit:1.41421;"><g><g><path d="M1923.92,4449.57c-44.049,44.049 -79.656,130.122 -79.656,192.314l0,810.052l470.269,0l0,-1280.32c0,-62.192 -35.607,-77.065 -79.656,-33.015l-310.957,310.969Z" style="fill:#c3cced;fill-rule:nonzero;"/><path d="M3989.52,3682.11c-43.936,44.046 -79.656,130.132 -79.656,192.437l0,1577.53l470.268,0l0,-2048.36c0,-62.192 -35.607,-76.952 -79.656,-32.906l-310.956,311.306Z" style="fill:#c3cced;fill-rule:nonzero;"/><path d="M4677.9,2992.71c-44.049,43.936 -79.766,130.009 -79.766,192.201l0,2267.04l437.25,0l0,-2703.49c0,-62.192 -35.717,-77.065 -79.766,-33.016l-277.718,277.263Z" style="fill:#c3cced;fill-rule:nonzero;"/><path d="M3314.88,4356.63c0,-0.003 -20.957,21.067 -46.864,46.983c-25.793,25.92 -46.75,97.453 -46.75,159.645l0,888.696l470.268,0l0,-1358.96c0,-62.192 -35.72,-77.061 -79.766,-33.015l-296.888,296.652l0,0.003Z" style="fill:#c3cced;fill-rule:nonzero;"/><path d="M2612.53,4117.69c-44.046,-43.936 -79.766,-29.177 -79.766,33.015l0,1301.28l470.268,-0.003l0,-832.033c0,-62.192 -33.807,-146.352 -75.594,-187.92l-75.594,-75.261l-239.314,-239.078Z" style="fill:#c3cced;fill-rule:nonzero;"/><path d="M1332.09,5041.75l-151.868,152.104c-43.936,44.046 -79.542,119.657 -79.542,168.998l0,89.233l524.902,0l0,-591.614c0,-62.192 -35.607,-76.952 -79.653,-32.906l-213.839,214.185Z" style="fill:#c3cced;fill-rule:nonzero;"/><path d="M5602.43,2727.84c43.936,44.046 79.656,29.173 79.656,-33.016l0,-1609.87c0,-115.263 -110.413,-216.205 -224.997,-216.205l-1600.52,0c-62.192,0 -77.061,35.716 -33.015,79.766l569.3,569.743l-232.201,231.19l-1076.96,1077.97l-569.634,-569.508c-44.049,-44.049 -115.262,-43.936 -159.312,0l-1584.06,1585.19c-175.984,176.098 -175.871,461.483 0.113,637.454l11.047,11.157c175.985,175.984 461.367,175.984 637.228,-0.113l1015.23,-1015.78l569.633,569.064c44.046,43.936 115.373,43.936 159.422,0l1877.79,-1878.12l561.287,561.068Z" style="fill:#3855be;fill-rule:nonzero;"/></g></g></svg>