<?xml version="1.0" encoding="UTF-8" standalone="no"?><!DOCTYPE svg PUBLIC "-//W3C//DTD SVG 1.1//EN" "http://www.w3.org/Graphics/SVG/1.1/DTD/svg11.dtd"><svg width="100%" height="100%" viewBox="0 0 2134 2134" version="1.1" xmlns="http://www.w3.org/2000/svg" xmlns:xlink="http://www.w3.org/1999/xlink" xml:space="preserve" xmlns:serif="http://www.serif.com/" style="fill-rule:evenodd;clip-rule:evenodd;stroke-linejoin:round;stroke-miterlimit:1.41421;"><g><path d="M1793.22,253.503l-1448.89,0c-75.554,0 -133.334,49.747 -133.334,114.799l0,1396.73c0,65.052 57.78,114.8 133.334,114.8l1444.45,0c75.554,0 133.333,-49.748 133.333,-114.8l0,-1396.73c4.442,-65.055 -57.779,-114.799 -128.892,-114.799Z" style="fill:#3755be;fill-rule:nonzero;"/><rect x="1075.21" y="1417.03" width="632.354" height="136.725" style="fill:#c3cced;"/><path d="M630.855,1650.6l-205.087,-205.088l62.664,-62.663l142.423,142.423l290.541,-296.239l68.363,68.362l-358.904,353.205Z" style="fill:#c3cced;fill-rule:nonzero;"/><rect x="1075.21" y="642.247" width="632.354" height="136.725" style="fill:#c3cced;"/><path d="M898.607,938.487l-455.749,0l0,-455.749l455.749,0l0,455.749Zm-364.602,-91.152l273.45,0l0,-273.45l-273.45,0l0,273.45Z" style="fill:#c3cced;fill-rule:nonzero;"/></g></svg>