<?xml version="1.0" encoding="UTF-8" standalone="no"?><!DOCTYPE svg PUBLIC "-//W3C//DTD SVG 1.1//EN" "http://www.w3.org/Graphics/SVG/1.1/DTD/svg11.dtd"><svg width="100%" height="100%" viewBox="0 0 100 100" version="1.1" xmlns="http://www.w3.org/2000/svg" xmlns:xlink="http://www.w3.org/1999/xlink" xml:space="preserve" xmlns:serif="http://www.serif.com/" style="fill-rule:evenodd;clip-rule:evenodd;stroke-linejoin:round;stroke-miterlimit:1.41421;"><g><rect x="0" y="0" width="100" height="100" style="fill:none;"/><path d="M75,58.333c-6.904,0 -12.5,-5.595 -12.5,-12.5c0,-6.904 5.596,-12.5 12.5,-12.5c6.904,0 12.5,5.596 12.5,12.5c0,6.905 -5.596,12.5 -12.5,12.5Zm-37.5,-12.5c-9.204,0 -16.667,-7.462 -16.667,-16.666c0,-9.204 7.463,-16.667 16.667,-16.667c9.204,0 16.667,7.463 16.667,16.667c0,9.204 -7.463,16.666 -16.667,16.666Z" style="fill:#c3cced;fill-rule:nonzero;"/><path d="M73.338,62.504c14.195,0.154 25.783,7.329 26.654,22.496c0.037,0.612 0,2.5 -2.259,2.5l-16.066,0c0,-9.379 -3.1,-18.033 -8.33,-24.996Zm-73.333,21.658c1.613,-19.883 17.754,-29.995 37.425,-29.995c19.95,0 36.342,9.554 37.563,30c0.05,0.812 0,3.333 -3.13,3.333l-68.829,0c-1.046,0 -3.116,-2.254 -3.029,-3.337Z" style="fill:#3855be;fill-rule:nonzero;"/></g></svg>