<?xml version="1.0" encoding="UTF-8" standalone="no"?><!DOCTYPE svg PUBLIC "-//W3C//DTD SVG 1.1//EN" "http://www.w3.org/Graphics/SVG/1.1/DTD/svg11.dtd"><svg width="100%" height="100%" viewBox="0 0 100 100" version="1.1" xmlns="http://www.w3.org/2000/svg" xmlns:xlink="http://www.w3.org/1999/xlink" xml:space="preserve" xmlns:serif="http://www.serif.com/" style="fill-rule:evenodd;clip-rule:evenodd;stroke-linejoin:round;stroke-miterlimit:1.41421;"><g><rect x="0" y="0" width="100" height="100" style="fill:none;"/><path d="M20.833,62.5l-8.333,27.083l27.083,-8.333l-18.75,-18.75Z" style="fill:#c3cced;"/><path d="M56.25,87.5c-21.861,0 -39.583,-17.722 -39.583,-39.583c0,-21.862 17.722,-39.584 39.583,-39.584c21.861,0 39.583,17.722 39.583,39.584c0,21.861 -17.722,39.583 -39.583,39.583Zm-20.833,-33.333c3.451,0 6.25,-2.799 6.25,-6.25c0,-3.452 -2.799,-6.25 -6.25,-6.25c-3.452,0 -6.25,2.798 -6.25,6.25c0,3.451 2.798,6.25 6.25,6.25Zm20.833,0c3.452,0 6.25,-2.799 6.25,-6.25c0,-3.452 -2.798,-6.25 -6.25,-6.25c-3.452,0 -6.25,2.798 -6.25,6.25c0,3.451 2.798,6.25 6.25,6.25Zm20.833,0c3.452,0 6.25,-2.799 6.25,-6.25c0,-3.452 -2.798,-6.25 -6.25,-6.25c-3.451,0 -6.25,2.798 -6.25,6.25c0,3.451 2.799,6.25 6.25,6.25Z" style="fill:#3755be;"/></g></svg>