<?xml version="1.0" encoding="UTF-8" standalone="no"?><!DOCTYPE svg PUBLIC "-//W3C//DTD SVG 1.1//EN" "http://www.w3.org/Graphics/SVG/1.1/DTD/svg11.dtd"><svg width="100%" height="100%" viewBox="0 0 417 417" version="1.1" xmlns="http://www.w3.org/2000/svg" xmlns:xlink="http://www.w3.org/1999/xlink" xml:space="preserve" xmlns:serif="http://www.serif.com/" style="fill-rule:evenodd;clip-rule:evenodd;stroke-linejoin:round;stroke-miterlimit:1.41421;"><g><circle cx="189.045" cy="205.211" r="6.796" style="fill:#c3cced;"/><path d="M189.045,123.662c-44.967,0 -81.549,36.581 -81.549,81.549c0,44.967 36.582,81.549 81.549,81.549c44.968,0 81.549,-36.582 81.549,-81.549c0,-44.968 -36.581,-81.549 -81.549,-81.549Zm-63.105,56.275l12.62,5.043c-1.495,3.744 -2.576,7.652 -3.208,11.614l-13.428,-2.134c0.802,-4.961 2.147,-9.84 4.016,-14.523Zm-4.716,29.555l13.564,-0.836c0.252,4.016 0.952,8.012 2.08,11.866l-13.041,3.819c-1.421,-4.818 -2.291,-9.813 -2.603,-14.849Zm17.173,41.026c-3.351,-3.745 -6.293,-7.87 -8.747,-12.266l11.873,-6.619c1.964,3.52 4.315,6.816 6.999,9.819l-10.125,9.066Zm79.823,-6.524l-20.442,-20.442c-2.657,1.278 -5.593,2.046 -8.733,2.046c-11.24,0 -20.387,-9.147 -20.387,-20.387c0,-8.848 5.702,-16.324 13.592,-19.137l0,-48.821l13.591,0l0,48.821c7.89,2.813 13.592,10.289 13.592,19.137c0,3.139 -0.768,6.075 -2.046,8.732l20.442,20.442l-9.609,9.609Z" style="fill:#c3cced;fill-rule:nonzero;"/><path d="M374.201,313.943l-50.281,-40.224l0,26.632l-134.875,0c-52.463,0 -95.14,-42.677 -95.14,-95.14c0,-52.464 42.677,-95.141 95.14,-95.141c52.464,0 95.141,42.677 95.141,95.141c0,34.631 -18.655,64.906 -46.388,81.549l42.324,0c14.387,-16.059 24.308,-35.535 28.678,-56.568l0.856,-4.139l22.1,-5.715l0,-30.221l-22.059,-5.579l-0.863,-4.173c-3.099,-15.005 -9.004,-29.208 -17.553,-42.215l-2.338,-3.568l11.689,-19.612l-21.353,-21.352l-19.612,11.695l-3.554,-2.338c-13.007,-8.549 -27.21,-14.454 -42.215,-17.553l-4.173,-0.863l-5.58,-22.059l-30.193,0l-5.579,22.059l-4.173,0.863c-15.005,3.099 -29.208,9.004 -42.215,17.553l-3.561,2.338l-19.612,-11.695l-21.353,21.359l11.689,19.612l-2.338,3.554c-8.549,13.007 -14.454,27.211 -17.553,42.216l-0.863,4.172l-22.059,5.579l0,30.208l22.072,5.64l0.863,4.159c11.675,56.446 62.046,97.417 119.775,97.417l134.875,0l0,26.633l50.281,-40.224Z" style="fill:#3855be;fill-rule:nonzero;"/><path d="M42.465,300.35l0,27.184l97.499,0c-14.142,-6.837 -26.965,-16.052 -37.954,-27.184l-59.545,0Z" style="fill:#3855be;fill-rule:nonzero;"/></g></svg>