<?xml version="1.0" encoding="UTF-8" standalone="no"?><!DOCTYPE svg PUBLIC "-//W3C//DTD SVG 1.1//EN" "http://www.w3.org/Graphics/SVG/1.1/DTD/svg11.dtd"><svg width="100%" height="100%" viewBox="0 0 100 100" version="1.1" xmlns="http://www.w3.org/2000/svg" xmlns:xlink="http://www.w3.org/1999/xlink" xml:space="preserve" xmlns:serif="http://www.serif.com/" style="fill-rule:evenodd;clip-rule:evenodd;stroke-linejoin:round;stroke-miterlimit:1.41421;"><g><path d="M73.284,52.328l6.986,0c3.857,0 6.985,3.128 6.985,6.986c0,3.858 -3.128,6.985 -6.985,6.985l-60.54,0c-3.857,0 -6.985,-3.127 -6.985,-6.985c0,-3.858 3.128,-6.986 6.985,-6.986l6.986,0l2.599,-23.398c1.172,-10.54 10.08,-18.513 20.685,-18.513c10.605,0 19.513,7.973 20.685,18.513l2.599,23.398Z" style="fill:#3755be;"/><path d="M59.314,79.289c0,-4.599 -3.734,-8.333 -8.334,-8.333l-1.96,0c-4.6,0 -8.334,3.734 -8.334,8.333l0,1.961c0,4.599 3.734,8.333 8.334,8.333l1.96,0c4.6,0 8.334,-3.734 8.334,-8.333l0,-1.961Z" style="fill:#c3cced;"/></g></svg>