<?xml version="1.0" encoding="UTF-8" standalone="no"?><!DOCTYPE svg PUBLIC "-//W3C//DTD SVG 1.1//EN" "http://www.w3.org/Graphics/SVG/1.1/DTD/svg11.dtd"><svg width="100%" height="100%" viewBox="0 0 100 100" version="1.1" xmlns="http://www.w3.org/2000/svg" xmlns:xlink="http://www.w3.org/1999/xlink" xml:space="preserve" xmlns:serif="http://www.serif.com/" style="fill-rule:evenodd;clip-rule:evenodd;stroke-linejoin:round;stroke-miterlimit:1.41421;"><g><rect x="0" y="0" width="100" height="100" style="fill:none;"/><g><path d="M80.66,39.583l0.59,0c5.753,0 10.417,4.664 10.417,10.417c0,5.753 -4.664,10.417 -10.417,10.417l-0.299,0c-0.899,0.003 -1.711,0.541 -2.065,1.367c-0.387,0.879 -0.209,1.865 0.41,2.497l0.206,0.207c1.956,1.954 3.056,4.605 3.056,7.37c0,2.764 -1.1,5.416 -3.053,7.367c-1.954,1.956 -4.605,3.055 -7.37,3.055c-2.764,0 -5.416,-1.099 -7.368,-3.054l-0.181,-0.181c-0.66,-0.646 -1.646,-0.824 -2.524,-0.437c-0.827,0.354 -1.364,1.166 -1.368,2.052l0,0.59c0,5.753 -4.663,10.417 -10.416,10.417c-5.753,0 -10.417,-4.664 -10.417,-10.417c-0.021,-1.158 -0.606,-1.977 -1.68,-2.379c-0.844,-0.372 -1.83,-0.194 -2.462,0.425l-0.207,0.206c-1.954,1.956 -4.605,3.056 -7.37,3.056c-2.764,0 -5.416,-1.1 -7.367,-3.053c-1.956,-1.954 -3.055,-4.605 -3.055,-7.37c0,-2.764 1.099,-5.416 3.054,-7.368l0.181,-0.181c0.646,-0.66 0.824,-1.646 0.437,-2.524c-0.354,-0.827 -1.166,-1.364 -2.052,-1.368l-0.59,0c-5.753,0 -10.417,-4.663 -10.417,-10.416c0,-5.753 4.664,-10.417 10.417,-10.417c1.158,-0.021 1.977,-0.606 2.379,-1.68c0.372,-0.844 0.194,-1.83 -0.425,-2.462l-0.206,-0.207c-1.956,-1.954 -3.056,-4.605 -3.056,-7.37c0,-2.764 1.1,-5.416 3.053,-7.367c1.954,-1.956 4.605,-3.055 7.37,-3.055c2.764,0 5.416,1.099 7.368,3.054l0.181,0.181c0.66,0.646 1.646,0.824 2.49,0.452l0.498,-0.105c0.72,-0.39 1.178,-1.145 1.181,-1.962l0,-0.59c0,-5.753 4.664,-10.417 10.417,-10.417c5.753,0 10.417,4.664 10.417,10.417l0,0.299c0.003,0.899 0.541,1.711 1.402,2.08c0.844,0.372 1.83,0.194 2.462,-0.425l0.207,-0.206c1.954,-1.956 4.605,-3.056 7.37,-3.056c2.764,0 5.416,1.1 7.367,3.053c1.956,1.954 3.055,4.605 3.055,7.37c0,2.764 -1.099,5.416 -3.054,7.368l-0.181,0.181c-0.646,0.66 -0.824,1.646 -0.452,2.49l0.105,0.498c0.39,0.72 1.145,1.178 1.962,1.181Z" style="fill:#c3cced;fill-rule:nonzero;"/><path d="M50,63.889c7.671,0 13.889,-6.218 13.889,-13.889c0,-7.671 -6.218,-13.889 -13.889,-13.889c-7.671,0 -13.889,6.218 -13.889,13.889c0,7.671 6.218,13.889 13.889,13.889Z" style="fill:#3855be;"/></g></g></svg>