<?xml version="1.0" encoding="UTF-8" standalone="no"?><!DOCTYPE svg PUBLIC "-//W3C//DTD SVG 1.1//EN" "http://www.w3.org/Graphics/SVG/1.1/DTD/svg11.dtd"><svg width="100%" height="100%" viewBox="0 0 417 417" version="1.1" xmlns="http://www.w3.org/2000/svg" xmlns:xlink="http://www.w3.org/1999/xlink" xml:space="preserve" xmlns:serif="http://www.serif.com/" style="fill-rule:evenodd;clip-rule:evenodd;stroke-linejoin:round;stroke-miterlimit:1.41421;"><g><g><path d="M295.74,21.867c-30.121,0 -54.629,25.236 -54.629,55.357c0,30.121 24.508,54.629 54.629,54.629c30.12,0 54.628,-24.508 54.628,-54.629c0,-30.121 -24.508,-55.357 -54.628,-55.357Z" style="fill:#c3cced;fill-rule:nonzero;"/><path d="M208.333,153.704c-30.121,0 -54.629,24.508 -54.629,54.629c0,30.121 24.508,54.629 54.629,54.629c30.121,0 54.629,-24.508 54.629,-54.629c0,-30.121 -24.508,-54.629 -54.629,-54.629Z" style="fill:#c3cced;fill-rule:nonzero;"/><path d="M120.927,21.867c-30.121,0 -54.629,25.236 -54.629,55.357c0,30.121 24.508,54.629 54.629,54.629c30.121,0 54.629,-24.508 54.629,-54.629c0,-30.121 -24.508,-55.357 -54.629,-55.357Z" style="fill:#c3cced;fill-rule:nonzero;"/><path d="M352.342,128.188c-14.009,15.546 -34.082,25.516 -56.602,25.516c-22.392,0 -42.373,-9.848 -56.374,-25.239c-3.145,2.23 -6.372,4.346 -9.25,6.933c31.515,9.451 54.698,38.387 54.698,72.935c0,11.759 -2.888,22.775 -7.65,32.738c8.87,6.225 16.911,13.556 23.805,21.891l82.905,0c6.039,0 10.926,-4.887 10.926,-10.926l0,-43.703c0,-33.116 -17.297,-62.317 -42.458,-80.145Z" style="fill:#3855be;fill-rule:nonzero;"/><path d="M186.551,135.398c-2.878,-2.587 -6.106,-4.703 -9.251,-6.933c-14.001,15.391 -33.981,25.239 -56.373,25.239c-22.521,0 -42.594,-9.97 -56.603,-25.516c-25.16,17.828 -42.457,47.029 -42.457,80.145l0,43.703c0,6.039 4.886,10.926 10.926,10.926l82.904,0c6.894,-8.335 14.935,-15.666 23.805,-21.891c-4.762,-9.963 -7.649,-20.979 -7.649,-32.738c0,-34.548 23.182,-63.484 54.698,-72.935Z" style="fill:#3855be;fill-rule:nonzero;"/><path d="M264.936,259.297c-8.749,9.709 -20.04,16.853 -32.64,21.142l-11.289,16.212l18.951,37.905c2.102,4.203 1.281,9.282 -2.049,12.611l-21.851,21.852c-2.134,2.134 -4.93,3.201 -7.725,3.201c-2.794,0 -5.591,-1.067 -7.724,-3.201l-21.852,-21.852c-3.328,-3.329 -4.15,-8.408 -2.049,-12.611l18.952,-37.905l-11.29,-16.212c-12.599,-4.289 -23.891,-11.433 -32.639,-21.142c-25.161,17.828 -41.73,47.03 -41.73,80.146l0,44.431c0,6.039 4.887,10.926 10.926,10.926l174.813,0c6.039,0 10.925,-4.887 10.925,-10.926l0,-44.431c0,-33.116 -16.568,-62.318 -41.729,-80.146Z" style="fill:#3855be;fill-rule:nonzero;"/></g></g></svg>