<?xml version="1.0" encoding="UTF-8" standalone="no"?><!DOCTYPE svg PUBLIC "-//W3C//DTD SVG 1.1//EN" "http://www.w3.org/Graphics/SVG/1.1/DTD/svg11.dtd"><svg width="100%" height="100%" viewBox="0 0 100 100" version="1.1" xmlns="http://www.w3.org/2000/svg" xmlns:xlink="http://www.w3.org/1999/xlink" xml:space="preserve" xmlns:serif="http://www.serif.com/" style="fill-rule:evenodd;clip-rule:evenodd;stroke-linejoin:round;stroke-miterlimit:1.41421;"><g><rect x="0" y="0" width="100" height="100" style="fill:none;"/><path d="M71.966,36.189c-1.577,-1.676 -1.497,-4.313 0.178,-5.89c1.676,-1.577 4.313,-1.497 5.89,0.179l16.667,17.708c1.51,1.604 1.51,4.107 0,5.711l-16.667,17.709c-1.577,1.675 -4.214,1.755 -5.89,0.178c-1.675,-1.577 -1.755,-4.214 -0.178,-5.89l13.979,-14.852l-13.979,-14.853Zm-43.932,0l-13.979,14.853l13.979,14.852c1.577,1.676 1.497,4.313 -0.178,5.89c-1.676,1.577 -4.313,1.497 -5.89,-0.178l-16.667,-17.709c-1.51,-1.604 -1.51,-4.107 0,-5.711l16.667,-17.708c1.577,-1.676 4.214,-1.756 5.89,-0.179c1.675,1.577 1.755,4.214 0.178,5.89Z" style="fill:#3855be;fill-rule:nonzero;"/><path d="M61.574,22.906c0.595,-2.222 -0.725,-4.508 -2.947,-5.104c-2.221,-0.595 -4.508,0.725 -5.103,2.947l-15.098,56.345c-0.595,2.222 0.725,4.508 2.947,5.104c2.221,0.595 4.508,-0.725 5.103,-2.947l15.098,-56.345Z" style="fill:#c3cced;"/></g></svg>