<?xml version="1.0" encoding="UTF-8" standalone="no"?><!DOCTYPE svg PUBLIC "-//W3C//DTD SVG 1.1//EN" "http://www.w3.org/Graphics/SVG/1.1/DTD/svg11.dtd"><svg width="100%" height="100%" viewBox="0 0 100 100" version="1.1" xmlns="http://www.w3.org/2000/svg" xmlns:xlink="http://www.w3.org/1999/xlink" xml:space="preserve" xmlns:serif="http://www.serif.com/" style="fill-rule:evenodd;clip-rule:evenodd;stroke-linejoin:round;stroke-miterlimit:1.41421;"><g><rect x="0" y="0" width="100" height="100" style="fill:none;"/><path d="M91.667,62.541l0.104,-0.041l0,19.107c0,2.302 -1.866,4.167 -4.167,4.167c-1.105,0 -2.165,-0.439 -2.946,-1.22l-9.554,-9.554l-50.104,0c-6.904,0 -12.5,-5.596 -12.5,-12.5l0,-37.5c0,-6.904 5.596,-12.5 12.5,-12.5l54.167,0c6.903,0 12.5,5.596 12.5,12.5l0,37.5c0,0.014 0,0.027 0,0.041Z" style="fill:#3855be;"/><path d="M31.25,50c-3.452,0 -6.25,-2.798 -6.25,-6.25c0,-3.452 2.798,-6.25 6.25,-6.25c3.452,0 6.25,2.798 6.25,6.25c0,3.452 -2.798,6.25 -6.25,6.25Zm20.833,0c-3.451,0 -6.25,-2.798 -6.25,-6.25c0,-3.452 2.799,-6.25 6.25,-6.25c3.452,0 6.25,2.798 6.25,6.25c0,3.452 -2.798,6.25 -6.25,6.25Zm20.834,0c-3.452,0 -6.25,-2.798 -6.25,-6.25c0,-3.452 2.798,-6.25 6.25,-6.25c3.451,0 6.25,2.798 6.25,6.25c0,3.452 -2.799,6.25 -6.25,6.25Z" style="fill:#c3cced;"/></g></svg>