<?xml version="1.0" encoding="UTF-8" standalone="no"?><!DOCTYPE svg PUBLIC "-//W3C//DTD SVG 1.1//EN" "http://www.w3.org/Graphics/SVG/1.1/DTD/svg11.dtd"><svg width="100%" height="100%" viewBox="0 0 100 100" version="1.1" xmlns="http://www.w3.org/2000/svg" xmlns:xlink="http://www.w3.org/1999/xlink" xml:space="preserve" xmlns:serif="http://www.serif.com/" style="fill-rule:evenodd;clip-rule:evenodd;stroke-linejoin:round;stroke-miterlimit:1.41421;"><g><rect x="0" y="0" width="100" height="100" style="fill:none;"/><path d="M16.667,16.667l31.797,-5.962c1.015,-0.191 2.057,-0.191 3.072,0l31.797,5.962l0,38.679c0,12.226 -6.298,23.591 -16.666,30.071l-14.459,9.036c-1.351,0.845 -3.065,0.845 -4.416,0l-14.459,-9.036c-10.368,-6.48 -16.666,-17.845 -16.666,-30.071l0,-38.679Z" style="fill:#3855be;"/><path d="M60.417,45.833c2.301,0 4.166,1.866 4.166,4.167l0,12.5c0,2.301 -1.865,4.167 -4.166,4.167l-20.834,0c-2.301,0 -4.166,-1.866 -4.166,-4.167l0,-12.5c0,-2.301 1.865,-4.167 4.166,-4.167l0,-2.083c0,-5.753 4.664,-10.417 10.417,-10.417c5.753,0 10.417,4.664 10.417,10.417l0,2.083Zm-10.417,-8.333c-3.452,0 -6.25,2.798 -6.25,6.25l0,2.083l12.5,0l0,-2.083c0,-3.452 -2.798,-6.25 -6.25,-6.25Z" style="fill:#c3cced;"/></g></svg>