<?xml version="1.0" encoding="UTF-8" standalone="no"?><!DOCTYPE svg PUBLIC "-//W3C//DTD SVG 1.1//EN" "http://www.w3.org/Graphics/SVG/1.1/DTD/svg11.dtd"><svg width="100%" height="100%" viewBox="0 0 4696 2640" version="1.1" xmlns="http://www.w3.org/2000/svg" xmlns:xlink="http://www.w3.org/1999/xlink" xml:space="preserve" xmlns:serif="http://www.serif.com/" style="fill-rule:evenodd;clip-rule:evenodd;stroke-linejoin:round;stroke-miterlimit:1.41421;"><path d="M2710,541.792c-294.833,2.25 -578.042,-64.375 -848.875,-138.625c-270.833,-74.25 -539.458,-157.625 -828.5,-191.667c-185.917,-22 -397.5,-18.542 -543.667,66.667c-140.625,81.916 -182.208,216.166 -202.75,340.083c-15.458,93.25 -23,191.083 31.417,275.958c37.792,58.875 102.875,107.209 148.667,163.292c159.416,195.167 60.583,446.292 -97.5,647.958c-74.042,94.459 -160.709,185.375 -217.125,285.375c-56.417,100 -79.917,212.959 -24.125,310.834c55.333,97.041 181.416,166.916 317,214.375c275.416,96.416 596.541,115.416 909.291,121.541c692.25,13.5 1386.29,-27.666 2078.42,-68.791c256.167,-15.209 513.458,-30.542 764.5,-71.459c139.417,-22.708 283.042,-55.958 382.292,-127.5c126,-90.833 152.833,-238 62.5,-343.083c-151.542,-176.208 -554.167,-207 -662.5,-398.042c-59.625,-105.166 -6.542,-226.541 70.833,-328.791c166.417,-219.375 451.417,-416.667 458.125,-660.959c4.625,-167.708 -141.667,-330.333 -361.167,-401.791c-230.166,-75 -544.916,-53.292 -707.666,90.083c-167.334,147.375 -468.75,212.583 -729.167,214.542Z" style="fill:#3a69da;fill-opacity:0.1;fill-rule:nonzero;"/><path d="M3870.71,2295.54c0,0 -51.208,-33.792 -101.958,-9.792c0,0 15.625,30.125 79.875,27.25l22.083,-17.458Z" style="fill:#3a69da;fill-rule:nonzero;"/><path d="M3877,2297.33c0,0 15.583,59.334 -23.458,99.709c0,0 -23.5,-24.459 -0.209,-84.375l23.667,-15.334Z" style="fill:#3a69da;fill-rule:nonzero;"/><path d="M4041.04,129.958l0,2160.08c0,64.208 -61.959,116.666 -138.459,116.666l-2930.71,0c-76.5,0 -138.458,-52.25 -138.458,-116.666l0,-2160.08c0,-64.333 61.958,-129.958 138.458,-129.958l2930.54,7.125c76.5,0 138.625,58.708 138.625,122.833Z" style="fill:#fff;fill-rule:nonzero;"/><path d="M4041.04,130.625l0,100l-3207.62,0l0,-100c0,0 0,0 0,0c0,-71.659 58.966,-130.625 130.625,-130.625c0.041,0 0.083,0 0.125,0l2946.29,0c71.643,0.023 130.584,58.982 130.584,130.625Z" style="fill:#3f3d56;fill-rule:nonzero;"/><circle cx="988.833" cy="115.292" r="46.167" style="fill:#fa5959;fill-opacity:0.8;"/><circle cx="1123.12" cy="115.292" r="46.167" style="fill:#fed253;fill-opacity:0.8;"/><circle cx="1257.42" cy="115.292" r="46.167" style="fill:#8ccf4d;fill-opacity:0.8;"/><path d="M2722.5,790.833l0,233.334c0,6.958 -13.042,12.5 -29.167,12.5l-615.5,0c-16.083,0 -29.166,-5.625 -29.166,-12.5l0,-233.334c0,-6.958 13,-14.041 29.166,-14.041l615.5,0c16.167,-0.042 29.167,7.041 29.167,14.041Z" style="fill:#3a69da;fill-opacity:0.2;fill-rule:nonzero;"/><rect x="2344.46" y="860.083" width="320.667" height="11.333" style="fill:#3a69da;"/><path d="M2182.21,835.25c-41.698,0.024 -75.998,34.343 -75.998,76.042c0,25.493 12.821,49.349 34.082,63.416l0,-5.041c0.02,-8.687 6.584,-16.079 15.208,-17.125c5.287,9.653 15.453,15.675 26.458,15.675c11.006,0 21.172,-6.022 26.459,-15.675c8.624,1.046 15.188,8.438 15.208,17.125l0,5.375c21.553,-14.014 34.59,-38.042 34.59,-63.75c0,-41.702 -34.305,-76.023 -76.007,-76.042Zm29.834,96.417c-1.017,15.762 -14.267,28.185 -30.063,28.185c-15.795,0 -29.045,-12.423 -30.062,-28.185c-1.978,-4.315 -3.003,-9.006 -3.003,-13.753c0,-13.29 8.029,-25.339 20.294,-30.456c-1.046,-1.629 -1.609,-3.522 -1.625,-5.458c0,0 0,0 0,0c0,-5.509 4.533,-10.042 10.042,-10.042c0.014,0 0.028,0 0.042,0l0.708,0c-5.223,0.37 -9.325,4.765 -9.333,10c0.005,1.754 0.465,3.477 1.333,5l0.292,0c-0.062,-0.665 -0.062,-1.334 0,-2c-0.003,-2.099 0.669,-4.145 1.916,-5.833c1.282,-4.203 5.19,-7.091 9.584,-7.083l0.708,0c-3.118,0.212 -5.961,1.881 -7.667,4.5c1.636,-1.104 3.569,-1.685 5.542,-1.667c5.509,0 10.042,4.533 10.042,10.042c0.02,0.374 0.02,0.75 0,1.125c14.404,3.854 24.499,17.005 24.5,31.916c-0.104,4.748 -1.211,9.42 -3.25,13.709Z" style="fill:#3a69da;fill-opacity:0.2;fill-rule:nonzero;"/><rect x="2344.46" y="887.667" width="320.667" height="11.333" style="fill:#3a69da;fill-opacity:0.2;"/><rect x="2344.46" y="915.25" width="320.667" height="11.333" style="fill:#3a69da;fill-opacity:0.2;"/><rect x="2344.46" y="942.875" width="320.667" height="11.333" style="fill:#3a69da;fill-opacity:0.2;"/><path d="M1999.96,1247.79l0,233.333c0,6.917 -13,12.5 -29.166,12.5l-615.5,0c-16.084,0 -29.167,-5.667 -29.167,-12.5l0,-233.333c0,-6.959 13,-14.042 29.167,-14.042l615.583,0c16.083,0 29.083,7.083 29.083,14.042Z" style="fill:#3a69da;fill-opacity:0.2;fill-rule:nonzero;"/><rect x="1621.88" y="1317.08" width="320.667" height="11.333" style="fill:#3a69da;"/><path d="M1459.67,1292.21c-0.007,0 -0.013,0 -0.02,0c-41.715,0 -76.041,34.327 -76.041,76.042c0,25.52 12.847,49.397 34.144,63.458l0,-5.083c0.023,-8.678 6.591,-16.056 15.208,-17.083c5.287,9.653 15.453,15.675 26.459,15.675c11.005,0 21.171,-6.022 26.458,-15.675c8.617,1.027 15.185,8.405 15.208,17.083l0,5.417c21.59,-14.007 34.654,-38.057 34.654,-63.792c0,-41.715 -34.326,-76.042 -76.042,-76.042c-0.009,0 -0.019,0 -0.028,0Zm29.791,96.417c-1.017,15.763 -14.267,28.185 -30.062,28.185c-15.796,0 -29.046,-12.422 -30.063,-28.185c-1.947,-4.308 -2.955,-8.981 -2.958,-13.708c-0.003,-13.289 8.002,-25.345 20.25,-30.5c-1.039,-1.615 -1.589,-3.497 -1.583,-5.417c0,-5.516 4.526,-10.061 10.041,-10.083l0.75,0c-5.241,0.354 -9.364,4.765 -9.364,10.018c0,1.748 0.456,3.465 1.323,4.982l0.333,0c-0.064,-0.652 -0.064,-1.307 0,-1.959c0.624,-6.336 5.283,-11.586 11.5,-12.958l0.375,0c-3.112,0.232 -5.947,1.895 -7.667,4.5c1.63,-1.084 3.543,-1.664 5.5,-1.667c5.532,0 10.084,4.552 10.084,10.084c0.02,0.374 0.02,0.75 0,1.125c14.441,3.81 24.582,16.972 24.582,31.908c0,4.811 -1.052,9.564 -3.082,13.925l0.041,-0.25Z" style="fill:#3a69da;fill-opacity:0.2;fill-rule:nonzero;"/><rect x="1621.88" y="1344.67" width="320.667" height="11.333" style="fill:#3a69da;fill-opacity:0.2;"/><rect x="1621.88" y="1372.25" width="320.667" height="11.333" style="fill:#3a69da;fill-opacity:0.2;"/><rect x="1621.88" y="1399.83" width="320.667" height="11.333" style="fill:#3a69da;fill-opacity:0.2;"/><path d="M1833.75,507.833l0,233.334c0,6.916 -13,12.5 -29.167,12.5l-615.416,0c-16.042,0 -29.167,-5.667 -29.167,-12.5l0,-233.334c0,-6.958 13.042,-14.041 29.167,-14.041l615.5,0c16.083,0 29.083,7.083 29.083,14.041Z" style="fill:#3a69da;fill-opacity:0.2;fill-rule:nonzero;"/><rect x="1455.67" y="577.125" width="320.667" height="11.333" style="fill:#3a69da;"/><rect x="1455.67" y="604.708" width="320.667" height="11.333" style="fill:#3a69da;fill-opacity:0.2;"/><rect x="1455.67" y="632.292" width="320.667" height="11.333" style="fill:#3a69da;fill-opacity:0.2;"/><rect x="1455.67" y="659.875" width="320.667" height="11.333" style="fill:#3a69da;fill-opacity:0.2;"/><path d="M1293.33,552.25c-41.598,0.201 -75.715,34.483 -75.715,76.082c0,25.486 12.805,49.338 34.049,63.418l0,-12.875c0.02,-8.687 6.584,-16.078 15.208,-17.125c5.287,9.653 15.453,15.676 26.458,15.676c11.006,0 21.172,-6.023 26.459,-15.676c8.632,1.029 15.206,8.431 15.208,17.125l0,13.167c21.553,-14.014 34.59,-38.042 34.59,-63.751c0,-41.715 -34.326,-76.041 -76.042,-76.041c-0.071,0 -0.143,0 -0.215,0Zm33.334,92.833c-0.262,0.482 -0.6,0.918 -1,1.292c-0.65,0.455 -1.416,0.715 -2.209,0.75l-1.541,0c-3.842,12.713 -15.637,21.471 -28.917,21.471c-16.514,0 -30.124,-13.541 -30.208,-30.054c-0.001,-5.206 1.364,-10.321 3.958,-14.834l-0.333,-0.208c-3.476,-4.131 -3.03,-10.365 1,-13.958c1.941,-1.107 4.053,-1.881 6.25,-2.292c6.588,-1.954 12.229,-6.273 15.833,-12.125c0.105,1.526 0.105,3.057 0,4.583c1.27,-1.379 3.061,-2.164 4.935,-2.164c1.713,0 3.362,0.655 4.607,1.831c0.789,1.122 1.697,2.155 2.708,3.083c1.044,0.556 2.195,0.882 3.375,0.959l7.583,0.958c3.137,0.081 6.165,1.178 8.625,3.125c1.314,1.467 2.294,3.202 2.875,5.083c2.241,5.148 3.903,10.528 4.959,16.042c1.06,5.561 0.254,11.319 -2.292,16.375l-0.208,0.083Z" style="fill:#3a69da;fill-opacity:0.2;fill-rule:nonzero;"/><path d="M2890.71,1611.67l0,233.333c0,6.958 -13,12.5 -29.166,12.5l-615.542,0c-16.083,0 -29.167,-5.625 -29.167,-12.5l0,-233.333c0,-6.959 13,-14 29.167,-14l615.625,0c16.083,-0.209 29.083,6.833 29.083,14Z" style="fill:#3a69da;fill-opacity:0.2;fill-rule:nonzero;"/><rect x="2512.62" y="1680.75" width="320.667" height="11.333" style="fill:#3a69da;"/><rect x="2512.62" y="1708.33" width="320.667" height="11.333" style="fill:#3a69da;fill-opacity:0.2;"/><rect x="2512.62" y="1735.96" width="320.667" height="11.333" style="fill:#3a69da;fill-opacity:0.2;"/><rect x="2512.62" y="1763.54" width="320.667" height="11.333" style="fill:#3a69da;fill-opacity:0.2;"/><path d="M2350.38,1655.92c-41.699,0.024 -75.998,34.343 -75.998,76.041c0,25.494 12.82,49.349 34.081,63.417l0,-12.875c0.042,-8.672 6.6,-16.039 15.209,-17.083c5.286,9.653 15.452,15.675 26.458,15.675c11.006,0 21.172,-6.022 26.458,-15.675c8.618,1.027 15.186,8.405 15.209,17.083l0,13.208c21.552,-14.014 34.589,-38.042 34.589,-63.75c0,-41.702 -34.304,-76.022 -76.006,-76.041Zm33.333,92.791c-0.25,0.501 -0.589,0.953 -1,1.334c-0.649,0.455 -1.416,0.715 -2.208,0.75l-1.583,0c-3.713,12.877 -15.584,21.808 -28.986,21.808c-16.549,0 -30.167,-13.617 -30.167,-30.166c0,-5.286 1.389,-10.479 4.028,-15.059l-0.334,0c-3.475,-4.131 -3.029,-10.365 1,-13.958c1.942,-1.107 4.054,-1.881 6.25,-2.292c6.584,-1.94 12.225,-6.245 15.834,-12.083c0.105,1.526 0.105,3.057 0,4.583c1.269,-1.379 3.061,-2.165 4.935,-2.165c1.712,0 3.361,0.656 4.606,1.832c0.78,1.117 1.689,2.138 2.709,3.041c1.036,0.581 2.189,0.923 3.375,1l7.583,0.959c3.14,0.062 6.174,1.161 8.625,3.125c1.313,1.467 2.294,3.201 2.875,5.083c2.246,5.145 3.909,10.526 4.958,16.042c0.997,5.502 0.162,11.183 -2.375,16.166l-0.125,0Z" style="fill:#3a69da;fill-opacity:0.2;fill-rule:nonzero;"/><path d="M2164.83,2376.17l-91.416,-132.542c0,0 -1.709,-32.833 -7.709,-40.5c-6,-7.667 -1.291,-24.708 -1.291,-24.708c0,0 6.416,-9.375 0.875,-10.25c-5.542,-0.875 -0.875,-21.75 -0.875,-21.75l-0.417,-33.334c0,0 5.125,-32 0.875,-39.666c-2.563,-4.217 -2.399,-9.573 0.417,-13.625c2.815,-4.053 5.125,-18.334 0,-23.042c-5.125,-4.708 -3.875,-33.333 -2.584,-55.833c1.292,-22.5 -8.958,-35.375 -8.958,-38.792c0,-3.417 -33.75,-36.625 -33.75,-39.625c0,-3 -21.375,-15.333 -34.208,-18.75c-12.834,-3.417 -19.209,-5.958 -18.792,-7.667c0.417,-1.708 -20.083,-8.333 -20.083,-8.333c0,0 -17.917,-1.292 -24.792,-10.208c-6.875,-8.917 -27.708,-11.584 -28.333,-11.625l-0.375,-1.792l-0.375,-1.917c1.583,-2.708 3.083,-5.5 4.458,-8.333c0.417,-0.875 0.792,-1.708 1.167,-2.583c7.518,0.033 14.867,-2.251 21.041,-6.542c6.102,-5.097 9.805,-12.518 10.209,-20.458c0.358,-7.872 -1.352,-15.703 -4.959,-22.709c-3.75,-7.666 -9.25,-15.625 -7.375,-23.958c0.834,-3.583 3,-6.75 4.167,-10.25c1.651,-6.878 0.543,-14.136 -3.083,-20.208c-3.209,-6.167 -7.709,-11.625 -11.334,-17.625c-4.604,-7.665 -7.662,-16.159 -9,-25c-0.272,-4.694 -1.402,-9.297 -3.333,-13.584c-1.949,-3.018 -4.503,-5.601 -7.5,-7.583c-13.344,-9.522 -29.448,-14.412 -45.833,-13.917c-11.625,0.417 -23.25,3.542 -34.792,2.125c-6.898,-1.203 -13.685,-2.973 -20.292,-5.291c-14.333,-4.167 -30.875,-6 -43.333,2.208c-12.458,8.208 -17.458,24.333 -25.917,36.958c-7.5,11.125 -18.416,20.5 -24.125,32.334l0,-0.709c-1.374,2.748 -2.437,5.641 -3.166,8.625c-1.584,9.434 -0.942,19.109 1.875,28.25c0.657,4.885 3.127,9.349 6.916,12.5c4.167,2.709 10,2.084 14.959,2.959c-0.209,0.791 -0.417,1.625 -0.584,2.416c-1.428,6.669 -2.14,13.472 -2.125,20.292c-0.014,43.076 28.471,81.312 69.75,93.625l0,2.583c-0.007,2.45 -0.146,4.898 -0.416,7.334c-0.271,2.435 -42.959,-8.834 -54.459,-2.834c-11.5,6 -34.208,10.625 -37.5,14.042c-3.291,3.417 -11.958,0.875 -19.666,20.833c-7.709,19.959 -8.542,40.5 -18.334,50c-9.791,9.5 -14.958,15.792 -15.416,22.625c-0.459,6.834 1.291,8.334 -2.542,10.625c-3.833,2.292 -9.417,11.084 -7.708,14.5c1.212,4.817 -0.663,9.911 -4.709,12.792c-4.107,2.903 -6.379,7.779 -5.958,12.792c0.421,5.012 -2.583,9.375 -8.542,11.5c-5.958,2.125 -9.833,16.208 -9.833,16.208l-19.375,22.292l-38.417,-42.5c-5.954,-6.562 -16.241,-7.087 -22.833,-1.167l-18.917,16.792c-7.278,1.766 -13.858,5.688 -18.875,11.25c-4.097,4.222 -7.4,9.148 -9.75,14.541l-10.333,9.292c-6.651,8.208 -7.707,19.674 -2.667,28.958l24.625,27.209l0,0.25c-8.728,0.726 -17.03,4.099 -23.791,9.666c-36.709,32.417 -37.167,62.25 -31.584,75.875c5.584,13.625 52.125,66.084 52.125,66.084c0,0 27.042,35.166 66.084,53.875l-0.292,0.291c-0.792,0.834 -1.542,1.709 -2.292,2.667l-0.625,0.833c-0.218,0.261 -0.413,0.54 -0.583,0.834l-0.708,1l-0.542,0.833l-0.75,1.25l-0.458,0.792l-0.875,1.666c0,0 -0.209,0.375 -0.292,0.542c-0.083,0.167 -0.708,1.542 -1.042,2.333l-0.375,0.875c0,0.542 -0.416,1.125 -0.666,1.667l-0.375,1.125c0,0.542 -0.375,1.083 -0.542,1.667l-0.375,1.208c-0.167,0.583 -0.333,1.208 -0.5,1.875c0,0.375 -0.208,0.75 -0.292,1.125c-0.083,0.375 -0.458,2.042 -0.666,3.083c-0.024,0.403 -0.024,0.806 0,1.209c-0.169,0.728 -0.294,1.465 -0.375,2.208c0,0.5 0,1 -0.209,1.542c-0.208,0.541 -0.208,1.375 -0.291,2.125c-0.084,0.75 0,1.041 0,1.625l0,8.083c-0.875,50 2.041,57.125 2.041,57.125c3.856,9.386 12.577,15.927 22.667,17c2.451,0.177 4.914,0.051 7.333,-0.375c22.209,-3.875 74.334,-12.792 92.709,-9.375c11.041,2.042 31.5,-1 46.041,-3.75l3.834,-0.75l2.666,8.333l8.334,-2.333l7.166,4.167l4.542,2.583c8.333,28.583 42.667,18.833 42.667,18.833l8.125,4.709l82.458,2.125c9.242,5.606 19.011,10.295 29.167,14c1.361,0.418 2.755,0.725 4.166,0.916c7.637,0.615 15.305,0.754 22.959,0.417c6.333,0 11.208,-0.417 11.208,-0.417c0,0 -0.833,-22.375 -2.042,-47.458c25.557,-0.63 51.056,-2.717 76.375,-6.25c44.042,-7.75 62.5,-47.792 69.167,-69.167c1.996,8.741 3.388,17.61 4.167,26.542c1.8,7.801 4.082,15.482 6.833,23c2.401,6.071 5.565,11.812 9.417,17.083c32.458,-11.083 12.791,-27.708 5.958,-34.958c-6.833,-7.25 4.708,-13.208 4.708,-13.208c0,0 9,-6 8.334,-11.542c-0.667,-5.542 -1.292,-11.5 27.791,-11.083c29.084,0.416 27.125,-23.625 27.125,-23.625Zm-451.166,-272.167c0.375,2.458 4.416,28.708 8.083,35.625c1.047,4.602 1.37,9.34 0.958,14.042c-17.208,-1.375 -35.125,-2.125 -35.125,-2.125c0.515,0.63 0.834,1.398 0.917,2.208l-2.708,-0.625l-3.959,-0.958l31.75,-48.209l0.084,0.042Zm-62.834,100l29.792,4.75l2.5,0.375c-0.826,4.655 -1.341,9.36 -1.542,14.083c0,0.417 0.667,0.959 1.625,1.584c-0.379,2.328 -0.574,4.682 -0.583,7.041c0.5,2.375 14.417,7.459 30.417,11.709c-0.25,0.833 -0.459,1.666 -0.667,2.416c-14.125,-7.416 -36.333,-10.875 -38.917,-16.375c-2.583,-5.5 -78.166,-31.958 -78.166,-31.958c0,0 -2.792,-1.458 -7.542,-3.75l19.917,3.75l5.458,-0.542c12.409,3.1 25.004,5.396 37.708,6.875l0,0.042Z" style="fill:url(#_Linear1);fill-rule:nonzero;"/><path d="M2067.58,2394.71c0,0 -11.875,71.584 -72,82.167c-60.125,10.583 -260.833,8.333 -260.833,8.333c0,0 -114.75,-16.666 -156.25,-113.458c-41.5,-96.792 -68.208,-135.542 -32.625,-137.208c35.583,-1.667 227.417,64.791 238.417,65.625c11,0.833 293.875,-147.25 283.291,94.541Z" style="fill:#65617d;fill-rule:nonzero;"/><path d="M2067.58,2394.71c0,0 -11.875,71.584 -72,82.167c-60.125,10.583 -260.833,8.333 -260.833,8.333c0,0 -114.75,-16.666 -156.25,-113.458c-41.5,-96.792 -68.208,-135.542 -32.625,-137.208c35.583,-1.667 227.417,64.791 238.417,65.625c11,0.833 293.875,-147.25 283.291,94.541Z" style="fill-opacity:0.05;fill-rule:nonzero;"/><path d="M1529.29,2474.17c3.744,9.362 12.357,15.937 22.375,17.083c2.424,0.164 4.86,0.024 7.25,-0.417c22,-3.791 73.666,-12.5 91.875,-9.291c10.958,2.041 31.25,-1 45.833,-3.709c9.583,-1.791 16.667,-3.5 16.667,-3.5c0,0 -16.917,-56.333 -19.042,-58c-2.125,-1.666 -76.375,-46.333 -76.375,-46.333l-58.708,-4.167c-7.886,1.188 -15.014,5.387 -19.875,11.709c-6.209,7.5 -11.542,19.791 -11.875,39.958c-1.042,49.625 1.875,56.667 1.875,56.667Z" style="fill:#3f3d56;fill-rule:nonzero;"/><path d="M1529.29,2474.17c3.744,9.362 12.357,15.937 22.375,17.083c-5.756,-7.432 -11.071,-15.195 -15.917,-23.25l0.292,-41.083c-2.431,-22.861 6.164,-45.564 23.125,-61.084c16.96,-15.519 -30.917,2.125 -31.75,51.667c-0.834,49.542 1.875,56.667 1.875,56.667Z" style="fill-opacity:0.05;fill-rule:nonzero;"/><path d="M1783.88,2384.54l54.625,-42.75l85.958,-84.709l-23.291,-1.041c-3.5,2.208 -13.25,9.208 -13.625,17.708c-0.417,10.333 -23.209,0.708 -35.084,6.625c-11.875,5.917 -69.875,80.167 -79.958,79.708c-10.083,-0.458 -18.208,-5.166 -22.417,2.042c-0.1,0.16 -0.212,0.313 -0.333,0.458l34.125,21.959Z" style="fill-opacity:0.1;fill-rule:nonzero;"/><path d="M1539.17,2377.62l5.916,2.708c41.667,17.792 92.709,55.042 96.542,61.834c2.333,4.166 32.042,22.166 54.958,35.666c9.584,-1.791 16.667,-3.5 16.667,-3.5c0,0 -16.917,-56.333 -19.042,-58c-2.125,-1.666 -76.333,-46.333 -76.333,-46.333l-58.708,-4.167c-7.944,1.179 -15.123,5.411 -20,11.792Z" style="fill-opacity:0.1;fill-rule:nonzero;"/><path d="M1423.92,2256.25c5.5,13.542 51.666,65.625 51.666,65.625c0,0 29.167,38.125 70.834,55.917c41.666,17.791 92.75,55.041 96.541,61.833c2.459,4.167 35.542,24.25 58.834,37.958l5.25,3.042l11.541,6.708l6.125,3.5c0,0 14.167,-11.375 28.292,-22.833c14.125,-11.458 27.833,-22.667 28.042,-23.292c0.416,-1.291 5.916,-15.666 4.625,-16.666c-0.667,-0.417 -3.542,-6.292 -8.917,-13.084c-5.677,-7.556 -13.058,-13.667 -21.542,-17.833c-12.351,-6.274 -22.212,-16.561 -27.958,-29.167c-5.746,-12.605 -1.875,-1.333 -4.667,-3.125c-5.779,-3.928 -12.235,-6.753 -19.041,-8.333c-9.334,-1.167 -26.667,-20.208 -26.667,-20.208c-6.833,-4.414 -12.541,-10.365 -16.667,-17.375c-4.458,-9.292 -70.125,-54.167 -76.208,-58.334l159.333,102.042l38.125,24.458l54.625,-42.75l85.959,-84.708l-28.375,-1.25c-41.667,-1.833 -115.959,-4.667 -125.334,-2.542c-7.627,1.785 -15.498,2.292 -23.291,1.5c-7.794,-0.791 -21.167,0.959 -35.125,-6.416c-13.959,-7.375 -36.042,-10.834 -38.584,-16.292c-2.541,-5.458 -77.5,-31.75 -77.5,-31.75c0,0 -102.041,-54.167 -138.458,-22c-36.417,32.167 -37.042,61.833 -31.458,75.375Z" style="fill:#65617d;fill-rule:nonzero;"/><path d="M1752.96,1945.42l13.125,43.625l16.917,98.25l62.25,4.166l18.042,-29.916l17.958,-29.792c0,0 11.208,-39.708 19.292,-78.125c7.125,-33.958 11.75,-66.958 4.166,-70.542c-6.875,-3.166 -11.375,-14.625 -14.333,-26.916c-0.375,-1.5 -0.708,-3.042 -1,-4.584c-2.088,-10.423 -3.48,-20.974 -4.167,-31.583c-0.687,-10.609 -130.458,-6.792 -112.25,47c3.266,9.175 4.929,18.844 4.917,28.583c-0.008,2.437 -0.147,4.871 -0.417,7.292c-1.842,16.98 -10.738,32.427 -24.5,42.542Z" style="fill:#ee8e9e;fill-rule:nonzero;"/><path d="M1725.83,1938.21l4.667,74.125l10.583,63.084l11.875,29.166l10.584,159.834c0,0 102.083,11.833 126.916,0c1.785,-0.746 3.338,-1.954 4.5,-3.5c30,-45.292 20.167,-176.459 20.167,-176.459l11.542,-84.833l-7.625,-43.958l-18.417,-1.959l-14.208,-1.5c0,0 -3.209,3.917 -7.792,10.042c-12.5,16.667 -35.667,49.167 -34.125,62.792c2.125,18.625 -2.542,37.5 -9.75,40.625c-7.208,3.125 -13.125,8.083 -14.375,3c-1.791,-4.279 -2.241,-9.002 -1.292,-13.542c1.292,-7.208 -5.5,-29.167 -5.5,-29.167c0,0 -11.416,-25.833 -10.583,-36.833c0.833,-11 -1.25,-23.708 -4.667,-26.667c-3.416,-2.958 -8.041,-5.958 -4.166,-19.5c3.875,-13.541 -16.667,-39.916 -16.667,-39.916l-51.667,35.166Z" style="fill:#e3e8f4;fill-rule:nonzero;"/><path d="M1860.71,2123.29l4.167,126.625l24.458,13.583c1.797,-0.745 3.354,-1.97 4.5,-3.542c30,-45.291 20.167,-176.458 20.167,-176.458l11.417,-84.708l-7.625,-43.959l-18.417,-1.958c7.125,-33.958 11.792,-66.917 4.167,-70.5c-6.875,-3.208 -11.417,-14.625 -14.334,-26.917l-13.25,89.542c0,0 1.125,8.042 1.5,16.375c0.547,5.287 0.18,10.629 -1.083,15.792c-2.958,7.625 -0.833,21.166 -0.833,21.166c-7.625,13.459 -11.459,38.375 -13.292,62.5c-2.5,32 -1.542,62.459 -1.542,62.459Z" style="fill-opacity:0.1;fill-rule:nonzero;"/><path d="M1889.58,1853.33c0,0 21.334,2.667 28.084,11.542c6.75,8.875 24.583,10.167 24.583,10.167c0,0 20.333,6.791 19.875,8.333c-0.458,1.542 5.958,4.167 18.667,7.625c12.708,3.458 33.875,15.667 33.875,18.667c0,3 33.333,35.958 33.333,39.375c0,3.416 10.125,16.083 8.875,38.541c-1.25,22.459 -2.542,50.792 2.542,55.459c5.083,4.666 0,22.875 0,22.875c-2.78,4.033 -2.944,9.345 -0.417,13.541c4.167,7.625 -0.875,39.375 -0.875,39.375l0.458,33.042c0,0 -4.666,20.833 0.834,21.583c5.5,0.75 -0.834,10.167 -0.834,10.167c0,0 -4.666,16.958 1.25,24.583c5.917,7.625 7.625,40.209 7.625,40.209l90.625,131.708c0,0 1.25,24.125 -27.541,23.708c-28.792,-0.416 -28.375,5.5 -27.5,11c0.875,5.5 -8.042,11.459 -8.042,11.459c0,0 -11.458,5.916 -4.667,13.125c6.792,7.208 26.25,23.708 -5.916,34.708c-3.813,-5.222 -6.949,-10.906 -9.334,-16.917c-2.723,-7.481 -4.991,-15.12 -6.791,-22.875c-1.801,-7.755 -2.959,-32.208 -8.875,-36.416c-5.917,-4.209 -5.084,-24.584 -5.084,-24.584c0,0 8.334,-16.666 -3.375,-23.291c-11.708,-6.625 -183.791,-102.042 -183.791,-102.042l-4.167,-126.625c0,0 -2.958,-93.583 14.833,-125c0,0 -2.125,-13.542 0.834,-21.167c2.958,-7.625 -0.417,-32.208 -0.417,-32.208l11.333,-89.667Z" style="fill:#3f3d56;fill-rule:nonzero;"/><path d="M1778.58,1904.25c0,0 -42.583,-8.792 -54.166,-2.875c-11.584,5.917 -33.875,10.583 -37.25,14c-3.375,3.417 -11.875,0.833 -19.5,20.833c-7.625,20 -8.334,40.209 -18.209,49.542c-9.875,9.333 -14.833,15.667 -15.25,22.417c-0.416,6.75 1.292,8.333 -2.541,10.583c-3.834,2.25 -9.292,11.042 -7.625,14.417c1.666,3.375 88.083,77.916 88.083,77.916c0,0 4.167,28.375 8.042,35.584c3.875,7.208 -4.167,106.291 -12.709,113.041c-8.541,6.75 57.334,6.125 57.334,6.125c0,0 3,-65 5.541,-68.416c2.542,-3.417 -1.708,-72.834 -1.708,-72.834c0,0 -0.417,-59.291 5.083,-75c5.5,-15.708 4.875,-67.75 4.875,-67.75c0,0 4.875,-31.25 10.792,-38.541c5.917,-7.292 -10.792,-39.042 -10.792,-39.042Z" style="fill-opacity:0.1;fill-rule:nonzero;"/><path d="M1777.33,1902.96c0,0 -42.583,-8.75 -54.166,-2.833c-11.584,5.917 -33.875,10.583 -37.25,13.958c-3.375,3.375 -11.875,0.875 -19.459,20.834c-7.583,19.958 -8.333,40.25 -18.208,49.541c-9.875,9.292 -14.833,15.667 -15.25,22.459c-0.417,6.791 1.25,8.333 -2.542,10.583c-3.791,2.25 -9.333,11 -7.625,14.417c1.709,3.416 88.084,77.916 88.084,77.916c0,0 4.166,28.375 8.041,35.542c3.875,7.167 -4.166,106.292 -12.708,113.083c-8.542,6.792 57.167,6.125 57.167,6.125c0,0 2.958,-65 5.5,-68.375c2.541,-3.375 -1.709,-72.833 -1.709,-72.833c0,0 -0.416,-59.292 5.084,-75c5.5,-15.708 4.916,-67.75 4.916,-67.75c0,0 4.834,-31.25 10.75,-38.542c5.917,-7.291 -10.625,-39.125 -10.625,-39.125Z" style="fill:#3f3d56;fill-rule:nonzero;"/><path d="M1772.83,1867.08c3.266,9.176 4.929,18.845 4.917,28.584c42.697,12.714 88.928,-5.543 111.417,-44c-2.088,-10.424 -3.48,-20.975 -4.167,-31.584c-0.687,-10.608 -130.375,-6.791 -112.167,47Z" style="fill-opacity:0.1;fill-rule:nonzero;"/><path d="M1708.5,1800.17c0.107,53.001 43.748,96.554 96.75,96.554c53.075,0 96.75,-43.675 96.75,-96.75c0,-53.076 -43.675,-96.75 -96.75,-96.75c-45.568,0 -85.261,32.192 -94.667,76.779c-1.397,6.631 -2.095,13.39 -2.083,20.167Z" style="fill:#ee8e9e;fill-rule:nonzero;"/><path d="M1646.25,2024.62l-23.292,7.208c1.116,4.718 -0.732,9.668 -4.666,12.5c-4.012,2.847 -6.259,7.593 -5.917,12.5c0.342,4.908 -2.542,9.334 -8.333,11.459c-5.792,2.125 -9.709,16.083 -9.709,16.083l-19.5,22.458c0,0 -7.208,5.917 -5.916,8.875c1.291,2.959 -7.625,3.792 -7.625,3.792l4.666,75.417l40.209,7.583l25,-2.542l20.333,-7.583l17.792,-10.625l8.041,-20.833l35.542,-54.167l-66.625,-82.125Z" style="fill:#3f3d56;fill-rule:nonzero;"/><path d="M1567.04,2125.83c0,0 -51.667,-74.541 -90.209,-34.291c-38.541,40.25 15.667,105.416 28.375,103.291c12.709,-2.125 73.292,-5.5 73.292,-5.5l-11.458,-63.5Z" style="fill:#ee8e9e;fill-rule:nonzero;"/><path d="M1710.58,1780c2.671,0.225 5.186,1.358 7.125,3.208c3.25,3.459 3.417,9.584 7.709,11.75c1.589,0.674 3.34,0.877 5.041,0.584c11.25,-1.625 17.75,-14.334 28.584,-17.834c6.322,-1.592 12.999,-1.02 18.958,1.625c2.415,0.812 4.572,2.25 6.25,4.167c3.625,4.708 1.083,11.583 2.75,17.25c2.333,7.875 11.708,11 19.875,12c8.167,1 17.292,1.625 22.708,7.75c3.638,4.623 5.153,10.576 4.167,16.375c-0.478,2 -0.478,4.084 0,6.083c2.25,6.334 13.25,5.417 16.125,0.375c2.083,-3.625 1.458,-6.666 6.375,-7.666c3.554,-0.301 7.127,0.316 10.375,1.791c8.619,3 17.711,4.412 26.833,4.167c6.071,-12.912 9.219,-27.005 9.219,-41.273c0,-53.212 -43.787,-97 -97,-97c-45.64,0 -85.407,32.212 -94.885,76.856l-0.209,-0.208Z" style="fill-opacity:0.1;fill-rule:nonzero;"/><path d="M1833.54,1840.29c-0.478,-2 -0.478,-4.084 0,-6.084c0.985,-5.799 -0.529,-11.752 -4.167,-16.375c-5.417,-6.125 -14.583,-6.708 -22.708,-7.75c-8.125,-1.041 -17.542,-4.166 -19.875,-12c-1.667,-5.666 0.875,-12.5 -2.75,-17.25c-1.664,-1.933 -3.826,-3.375 -6.25,-4.166c-5.955,-2.659 -12.632,-3.246 -18.959,-1.667c-10.833,3.5 -17.333,16.208 -28.583,17.833c-1.702,0.291 -3.451,0.089 -5.042,-0.583c-4.166,-2.167 -4.458,-8.333 -7.708,-11.75c-5.167,-5.458 -14.917,-1.958 -21.208,-6c-3.788,-3.141 -6.234,-7.616 -6.834,-12.5c-2.816,-9.085 -3.458,-18.705 -1.875,-28.083c3.667,-15.75 17.75,-26.542 26.75,-40c8.334,-12.5 13.084,-28.375 25.667,-36.709c12.583,-8.333 28.75,-6.416 42.958,-2.208c6.543,2.342 13.277,4.113 20.125,5.292c11.417,1.416 22.917,-1.709 34.459,-2.084c16.274,-0.533 32.276,4.332 45.5,13.834c2.977,1.944 5.506,4.501 7.416,7.5c1.936,4.255 3.066,8.832 3.334,13.5c1.345,8.748 4.373,17.153 8.916,24.75c3.584,5.958 8.042,11.375 11.25,17.541c3.599,6.022 4.692,13.223 3.042,20.042c-1.083,3.5 -3.208,6.625 -4.167,10.208c-1.875,8.334 3.584,16.167 7.292,23.792c3.595,6.966 5.305,14.752 4.958,22.583c-0.433,7.876 -4.117,15.23 -10.166,20.292c-6.288,4.374 -13.801,6.65 -21.459,6.5c-9.302,0.291 -18.58,-1.121 -27.375,-4.167c-3.235,-1.468 -6.792,-2.085 -10.333,-1.791c-4.958,1 -4.167,4.166 -6.417,7.666c-2.541,5.25 -13.541,6.167 -15.791,-0.166Z" style="fill:#3f3d56;fill-rule:nonzero;"/><path d="M1781.33,2387.08l54.625,-42.75l85.959,-84.708l-28.375,-1.25c-3.331,2.993 -5.464,7.096 -6,11.542c-0.417,10.375 -23.209,0.75 -35.084,6.666c-11.875,5.917 -69.875,80.167 -79.958,79.667c-10.083,-0.5 -18.208,-5.125 -22.417,2.042l-0.333,0.5c-1.689,1.933 -3.952,3.276 -6.458,3.833l38.041,24.458Z" style="fill-opacity:0.1;fill-rule:nonzero;"/><path d="M1671.21,2384.12l27.459,87.5l4.166,13.75l13.084,-3.583l28.833,-7.917l128.333,-35.25c16.127,-0.767 31.895,-5.032 46.209,-12.5c24.253,-13.614 52.029,-19.68 79.75,-17.417c16.958,1.584 35.833,-5.708 51.5,-34.666c0,0 35.541,-105 -54.167,-135.042c-89.708,-30.042 -94.083,15.958 -94.083,15.958l-1.209,0.75c-3.5,2.209 -13.25,9.209 -13.625,17.709c-0.416,10.333 -23.208,0.708 -35.083,6.625c-11.875,5.916 -69.792,80.5 -79.875,80.041c-10.083,-0.458 -18.208,-5.166 -22.417,2.042c-0.1,0.16 -0.212,0.313 -0.333,0.458c-3.125,4.167 -12.5,5.334 -18.792,5.5l-5.875,0l-0.791,0.25l-6.5,1.917l-46.584,13.875Z" style="fill:#65617d;fill-rule:nonzero;"/><path d="M1678.33,2213.92l13.209,2.125l5.5,-54.625c0,0 -6.042,-0.917 -13.625,-2.667c2,7.583 -2.584,37.083 -5.084,55.167Z" style="fill-opacity:0.1;fill-rule:nonzero;"/><path d="M2024.58,1958.67c0,0 39.375,-11.417 29.667,100.375c-9.708,111.791 -82.583,182.5 -82.583,182.5c0,0 -83.875,36.833 -121.542,30.916c-37.667,-5.916 -65.125,-7.208 -65.125,-7.208c-11.871,-5.982 -24.852,-9.443 -38.125,-10.167c-21.167,-0.833 -65.625,-13.958 -66.667,-18.208c-1.041,-4.25 11.042,-66.458 5.959,-71.125c0,0 59.291,2.417 65.208,6.708c5.917,4.292 14.375,1.209 20.833,0c6.459,-1.208 25.834,-18.125 64.375,-3.333c0,0 13.125,1.292 18.209,-2.125c4.154,-1.931 8.886,-2.228 13.25,-0.833c3.261,-1.114 6.347,-2.686 9.166,-4.667c1.292,-1.667 11.459,0 11.459,0c0.613,0.298 1.285,0.453 1.967,0.453c2.059,0 3.868,-1.413 4.366,-3.411c1.331,-3.462 3.343,-6.621 5.917,-9.292c2.573,-2.671 11.458,-64.375 33.041,-88.5c3.525,-3.046 5.282,-7.674 4.667,-12.292c-1.708,-6.791 35.125,-103.458 85.958,-89.791Z" style="fill-opacity:0.1;fill-rule:nonzero;"/><path d="M1717.71,2370.21l55.917,67.709l0.375,-0.417c0.417,-1.25 5.917,-15.667 4.625,-16.667c-1.292,-1 -11,-22.041 -30.5,-30.916c-9.876,-4.85 -18.172,-12.409 -23.917,-21.792l-6.5,2.083Z" style="fill-opacity:0.1;fill-rule:nonzero;"/><path d="M1718.33,2487.33l6.125,3.5c0,0 14.167,-11.375 28.292,-22.833c14.125,-11.458 27.833,-22.667 28.042,-23.292c0.416,-1.291 5.916,-15.666 4.625,-16.666c-0.667,-0.417 -3.542,-6.292 -8.917,-13.084c-37.917,-10.625 -13.75,15.709 -10.542,16.917c0,0 -46.166,-10.583 -48.708,39.667c-0.338,5.288 0.026,10.598 1.083,15.791Z" style="fill-opacity:0.1;fill-rule:nonzero;"/><path d="M1765.21,2508.62l8.084,4.667l81.708,2.125c9.164,5.567 18.849,10.228 28.917,13.916c1.362,0.416 2.755,0.723 4.166,0.917c7.582,0.594 15.193,0.733 22.792,0.417c6.25,0 11.083,-0.417 11.083,-0.417c0,0 -3.875,-103.083 -6.791,-113.917c-1.375,-5.208 -8.334,-4.166 -15,-1.458c-5.077,2.054 -9.969,4.535 -14.625,7.417c-4.657,2.881 -34.709,3.333 -40.25,6.333c-5.542,3 -21.167,-1.708 -30.917,0c-9.75,1.708 -27.083,-11.458 -27.083,-11.458c-47.417,-15.667 -20.834,13.541 -17.375,14.833c0,0 -46.125,-10.583 -48.667,39.667c-2.542,50.25 43.958,36.958 43.958,36.958Z" style="fill:#3f3d56;fill-rule:nonzero;"/><path d="M1883.38,2468.83c0.875,21.334 17.5,47.834 27.458,61.834c6.25,0 11.084,-0.417 11.084,-0.417c0,0 -3.875,-103.083 -6.792,-113.917c-1.375,-5.208 -8.333,-4.166 -15,-1.458c-8.208,15.375 -17.458,36.75 -16.75,53.958Z" style="fill:#565387;fill-rule:nonzero;"/><path d="M1883.38,2468.83c0.875,21.334 17.5,47.834 27.458,61.834c6.25,0 11.084,-0.417 11.084,-0.417c0,0 -3.875,-103.083 -6.792,-113.917c-1.375,-5.208 -8.333,-4.166 -15,-1.458c-8.208,15.375 -17.458,36.75 -16.75,53.958Z" style="fill-opacity:0.1;fill-rule:nonzero;"/><path d="M1869.42,2471.67c5.625,20.583 5.541,43.708 14.5,57.666c1.362,0.416 2.755,0.723 4.166,0.917c7.582,0.594 15.193,0.733 22.792,0.417c6.25,0 11.083,-0.417 11.083,-0.417c0,0 -3.875,-103.083 -6.791,-113.917c-1.375,-5.208 -8.334,-4.166 -15,-1.458c-5.077,2.054 -9.969,4.535 -14.625,7.417c-4.657,2.881 -23.334,23 -16.125,49.375Z" style="fill-opacity:0.05;fill-rule:nonzero;"/><path d="M1587.46,2262.75c0,0 40.584,13.167 75,59.958l-75,-59.958Z" style="fill-opacity:0.1;fill-rule:nonzero;"/><g opacity="0.1"><path d="M1917.33,1754.58l-0.25,0.917c-0.392,1.211 -0.866,2.394 -1.416,3.542c0.412,-1.536 0.97,-3.029 1.666,-4.459Z" style="fill-rule:nonzero;"/><path d="M1687.67,1734.04c0.712,-2.891 1.761,-5.688 3.125,-8.334c-0.209,0.709 -0.417,1.459 -0.584,2.209c-1.582,9.378 -0.939,18.998 1.875,28.083c0.6,4.884 3.046,9.359 6.834,12.5c6.291,4.167 16.041,0.542 21.166,5.958c3.292,3.459 3.459,9.625 7.709,11.75c1.591,0.723 3.37,0.927 5.083,0.584c11.25,-1.584 17.75,-14.292 28.583,-17.792c6.306,-1.629 12.982,-1.056 18.917,1.625c2.44,0.785 4.617,2.227 6.292,4.167c3.625,4.666 1.083,11.583 2.75,17.25c2.333,7.833 11.708,10.958 19.833,12c8.125,1.041 17.292,1.583 22.75,7.75c3.676,4.603 5.196,10.574 4.167,16.375c-0.458,1.987 -0.458,4.054 0,6.041c2.25,6.375 13.25,5.417 16.125,0.417c2.083,-3.667 1.458,-6.667 6.375,-7.708c3.553,-0.283 7.122,0.333 10.375,1.791c8.794,3.047 18.072,4.46 27.375,4.167c7.652,0.11 15.153,-2.162 21.458,-6.5c2.721,-2.203 4.961,-4.94 6.583,-8.042c-1.417,5.647 -4.617,10.69 -9.125,14.375c-6.287,4.374 -13.8,6.65 -21.458,6.5c-9.303,0.294 -18.581,-1.118 -27.375,-4.166c-3.248,-1.476 -6.821,-2.093 -10.375,-1.792c-4.917,1 -4.167,4.167 -6.375,7.667c-2.875,5.041 -13.875,5.958 -16.125,-0.375c-0.458,-2.002 -0.458,-4.082 0,-6.084c1.029,-5.8 -0.49,-11.772 -4.167,-16.375c-5.458,-6.125 -14.583,-6.708 -22.75,-7.75c-8.166,-1.041 -17.5,-4.166 -19.833,-12c-1.667,-5.666 0.875,-12.5 -2.75,-17.25c-1.663,-1.933 -3.825,-3.375 -6.25,-4.166c-5.954,-2.659 -12.632,-3.246 -18.958,-1.667c-10.834,3.5 -17.334,16.208 -28.584,17.833c-1.715,0.292 -3.478,0.09 -5.083,-0.583c-4.167,-2.167 -4.417,-8.333 -7.708,-11.75c-5.125,-5.458 -14.875,-1.958 -21.167,-6c-3.788,-3.141 -6.234,-7.616 -6.833,-12.5c-2.836,-9.124 -3.479,-18.789 -1.875,-28.208Z" style="fill-rule:nonzero;"/></g><path d="M1923.88,2073c-7.75,10.458 -16.667,20.167 -23.458,31.25c-7.43,10.836 -11.052,23.841 -10.292,36.958c7.083,-7.291 10.333,-17.375 14.833,-26.5c7.584,-15.5 18.917,-28.625 28.459,-42.833c1.833,-2.708 13.541,-18.417 7.625,-19.167c-4.875,-0.625 -14.375,16.709 -17.167,20.292Z" style="fill-opacity:0.1;fill-rule:nonzero;"/><path d="M1709.5,1902l84.875,160.5c2.542,4.75 -4.375,13.375 -15.417,19.25l-423.625,224.042c-11.041,5.833 -22.083,6.708 -24.583,1.916l-84.875,-160.458c-2.542,-4.792 3.833,-14.417 14.875,-20.25l423.625,-224.042c11.083,-5.875 22.625,-5.75 25.125,-0.958Z" style="fill:#fff;fill-rule:nonzero;"/><path d="M1709.5,1902l84.875,160.5c2.542,4.75 -4.375,13.375 -15.417,19.25l-423.625,224.042c-11.041,5.833 -22.083,6.708 -24.583,1.916l-84.875,-160.458c-2.542,-4.792 3.833,-14.417 14.875,-20.25l423.625,-224.042c11.083,-5.875 22.625,-5.75 25.125,-0.958Z" style="fill:#3a69da;fill-opacity:0.2;fill-rule:nonzero;"/><path d="M1695.12,1970.83l-220.671,116.691l4.11,7.772l220.671,-116.691l-4.11,-7.772Z" style="fill:#3a69da;"/><path d="M1705.16,1989.85l-220.671,116.691l4.11,7.772l220.671,-116.691l-4.11,-7.772Z" style="fill:#3a69da;fill-opacity:0.2;"/><path d="M1715.2,2008.79l-220.671,116.691l4.11,7.772l220.671,-116.691l-4.11,-7.772Z" style="fill:#3a69da;fill-opacity:0.2;"/><path d="M1725.25,2027.81l-220.671,116.691l4.109,7.772l220.672,-116.691l-4.11,-7.772Z" style="fill:#3a69da;fill-opacity:0.2;"/><path d="M1353.88,2129.25c-19.37,10.23 -31.535,30.413 -31.535,52.318c0,30.307 23.286,55.963 53.452,58.89l-4.667,-8.833c-3.17,-5.973 -1.372,-13.454 4.167,-17.333c3.842,2.546 8.351,3.905 12.96,3.905c12.754,0 23.292,-10.402 23.456,-23.155c6.308,-2.382 13.481,0.308 16.667,6.25l4.792,9.083c4.926,-8.818 7.512,-18.753 7.512,-28.854c0,-32.458 -26.708,-59.167 -59.166,-59.167c-9.665,0 -19.183,2.368 -27.721,6.896l0.083,0Zm56.792,51.708c0.015,0.427 -0.056,0.852 -0.209,1.25c-0.291,0.548 -0.722,1.008 -1.25,1.334l-1.041,0.583c0.327,1.573 0.492,3.176 0.492,4.783c0,12.892 -10.609,23.5 -23.5,23.5c-12.892,0 -23.5,-10.608 -23.5,-23.5c0,-0.205 0.002,-0.411 0.008,-0.616l-0.292,0c-3.883,-1.609 -5.829,-6.057 -4.375,-10c0.923,-1.468 2.093,-2.765 3.458,-3.834c3.826,-3.732 6.142,-8.75 6.5,-14.083c0.59,1.031 1.105,2.104 1.542,3.208c0.747,-2.774 3.64,-4.445 6.417,-3.708c0.963,0.466 1.968,0.842 3,1.125c0.93,0.006 1.852,-0.179 2.708,-0.542l5.542,-2.125c3.481,-2.309 8.187,-1.663 10.916,1.5c3.407,2.727 6.509,5.814 9.25,9.209c2.701,3.395 4.223,7.579 4.334,11.916Z" style="fill:#3a69da;fill-opacity:0.2;fill-rule:nonzero;"/><path d="M1533.58,2141.5c-0.416,55.875 115.209,67.75 115.209,67.75l29.541,4.667l13.209,2.125l5.5,-54.625c0,0 -6.042,-0.917 -13.625,-2.667c-11.167,-2.625 -25.667,-7.125 -28.709,-13.458c-5.083,-10.584 -120.708,-59.709 -121.125,-3.792Z" style="fill:#ee8e9e;fill-rule:nonzero;"/><path d="M2023.54,1950.08c0,0 39.375,-11.416 29.666,100.375c-9.708,111.792 -82.583,182.5 -82.583,182.5c0,0 -83.875,36.834 -121.542,30.917c-37.666,-5.917 -65.208,-7.208 -65.208,-7.208c-11.871,-5.982 -24.852,-9.444 -38.125,-10.167c-21.167,-0.833 -65.625,-13.958 -66.667,-18.208c-1.041,-4.25 11.042,-66.667 5.959,-71.125c0,0 59.291,2.416 65.208,6.708c5.917,4.292 14.375,1.208 20.833,0c6.459,-1.208 25.834,-18.167 64.375,-3.333c0,0 13.125,1.291 18.209,-2.125c4.154,-1.931 8.886,-2.229 13.25,-0.834c3.261,-1.114 6.347,-2.685 9.166,-4.666c1.292,-1.667 11.459,0 11.459,0c0.619,0.31 1.302,0.471 1.995,0.471c2.059,0 3.863,-1.426 4.338,-3.43c1.337,-3.471 3.348,-6.643 5.917,-9.333c2.569,-2.69 11.458,-64.333 33.041,-88.5c3.53,-3.024 5.29,-7.644 4.667,-12.25c-1.625,-6.792 35.25,-103.208 86.042,-89.792Z" style="fill:#3f3d56;fill-rule:nonzero;"/><path d="M3659,567.25l0,233.333c0,6.959 -13,12.5 -29.167,12.5l-615.666,0c-16.084,0 -29.167,-5.625 -29.167,-12.5l0,-233.333c0,-6.958 13,-14.042 29.167,-14.042l615.75,0c16.083,0.125 29.083,7.084 29.083,14.042Z" style="fill:#fff;fill-rule:nonzero;"/><path d="M3586.88,609.708l0,233.334c0,6.916 -13.042,12.5 -29.167,12.5l-615.541,0c-16.084,0 -29.167,-5.667 -29.167,-12.5l0,-233.334c0,-6.958 13,-14.041 29.167,-14.041l615.625,0c16.041,0 29.083,7.083 29.083,14.041Z" style="fill:#3a69da;fill-opacity:0.1;fill-rule:nonzero;"/><path d="M3659,567.25l0,233.333c0,6.959 -13,12.5 -29.167,12.5l-615.666,0c-16.084,0 -29.167,-5.625 -29.167,-12.5l0,-233.333c0,-6.958 13,-14.042 29.167,-14.042l615.75,0c16.083,0.125 29.083,7.084 29.083,14.042Z" style="fill:#fff;fill-rule:nonzero;"/><path d="M3659,567.25l0,233.333c0,6.959 -13,12.5 -29.167,12.5l-615.666,0c-16.084,0 -29.167,-5.625 -29.167,-12.5l0,-233.333c0,-6.958 13,-14.042 29.167,-14.042l615.75,0c16.083,0.125 29.083,7.084 29.083,14.042Z" style="fill:#3a69da;fill-opacity:0.2;fill-rule:nonzero;"/><rect x="3280.92" y="636.542" width="320.667" height="11.333" style="fill:#3a69da;"/><rect x="3280.92" y="664.125" width="320.667" height="11.333" style="fill:#3a69da;fill-opacity:0.2;"/><rect x="3280.92" y="691.708" width="320.667" height="11.333" style="fill:#3a69da;fill-opacity:0.2;"/><rect x="3280.92" y="719.292" width="320.667" height="11.333" style="fill:#3a69da;fill-opacity:0.2;"/><path d="M3118.71,611.667c-0.048,0 -0.096,0 -0.144,0c-41.716,0 -76.042,34.326 -76.042,76.041c0,25.521 12.847,49.398 34.145,63.459l0,-12.875c0.039,-8.681 6.593,-16.061 15.208,-17.125c5.287,9.653 15.453,15.675 26.458,15.675c11.006,0 21.172,-6.022 26.459,-15.675c8.615,1.064 15.169,8.444 15.208,17.125l0,13.208c21.589,-14.007 34.654,-38.057 34.654,-63.792c0,-41.679 -34.267,-75.989 -75.946,-76.041Zm33.334,92.791c-0.527,1.289 -1.818,2.11 -3.209,2.042c-0.513,0.041 -1.028,0.041 -1.541,0c-3.793,12.761 -15.605,21.573 -28.917,21.573c-16.545,0 -30.161,-13.611 -30.167,-30.156c-0.01,-5.201 1.341,-10.316 3.917,-14.834l-0.333,-0.208c-3.454,-4.139 -3.009,-10.354 1,-13.958c1.944,-1.1 4.055,-1.874 6.25,-2.292c6.591,-1.926 12.236,-6.234 15.833,-12.083c0.124,1.525 0.124,3.058 0,4.583c1.27,-1.379 3.061,-2.165 4.935,-2.165c1.713,0 3.362,0.656 4.607,1.832c0.958,0.958 1.583,2.291 2.75,3.041c1.029,0.593 2.188,0.922 3.375,0.959l7.541,1c5.368,-0.546 10.348,3.062 11.5,8.333c2.265,5.139 3.929,10.521 4.959,16.042c1.041,5.56 0.189,11.312 -2.417,16.333l-0.083,-0.042Z" style="fill:#3a69da;fill-opacity:0.2;fill-rule:nonzero;"/><path d="M3854.04,2475.92c-5.75,-20.834 -9.5,-39.084 -9.5,-39.084c0,0 0.25,-22.875 -10.667,-39.625l-0.208,-5.708l-1.667,-42.333c2.625,-7.769 5.915,-15.297 9.833,-22.5c7.084,-13.542 -2.375,-61.875 -2.375,-61.875c0,0 -30.833,-67.459 -25.625,-111.167c5.209,-43.708 -65.291,-190.792 -65.291,-190.792c-0.128,-14.4 1.368,-28.768 4.458,-42.833c0.55,-2.966 0.705,-5.993 0.458,-9c0.021,-0.361 0.021,-0.723 0,-1.083c-0.02,-0.361 0,0 0,0.333c-2.083,-28.625 -26.791,-81.458 -26.791,-81.458l-0.917,-102.542c0,0 12.167,-60.958 -14.583,-141.083c-9.334,-27.959 -15.459,-50.417 -19.459,-67.75c-0.458,-1.959 -0.916,-3.834 -1.291,-5.667c48.291,-9.25 85.125,-16.667 85.125,-16.667c0,0 -32.667,-116.666 -52.5,-136.666c-19.834,-20 -37.5,-84.125 -37.5,-84.125c0,0 -13.084,-82.875 1.958,-107.792c15.042,-24.917 15.625,-67.333 15.625,-67.333c0,0 35.5,-27.959 39.625,-39.917c4.125,-11.958 10.708,-38.792 10.167,-52.75c-0.542,-13.958 -5.584,-26.375 -4.167,-33.792c1.417,-7.416 -12.042,-34.958 -6.458,-48.458c1.432,-4.136 2.095,-8.5 1.958,-12.875l0,-0.542c-0.4,-11.592 -1.921,-23.118 -4.542,-34.416c-10.9,-8.523 -23.482,-14.644 -36.916,-17.959l-0.917,-3.125l-2.375,-8.333c-1.25,-0.75 -2.458,-1.417 -3.667,-2l0,-3l-0.791,-11.958l4.666,-27.125c9.459,-47.209 -53.25,-51.792 -53.25,-51.792c-4.031,-7.026 -10.541,-12.303 -18.25,-14.792c-12.75,-4.166 0.584,70.459 6.667,75c4.542,3.417 19.083,26.334 26.083,37.5l1.167,1.834c-0.992,0.973 -1.911,2.017 -2.75,3.125l3,16.125l0.458,2.5c-3.954,5.275 -7.086,11.12 -9.291,17.333c-2.205,6.213 11.875,12.083 10.125,26.167c-1.75,14.083 4.708,31.333 5.041,32.25c-0.708,-0.75 -9.083,-9.125 -17,-6.667c-7.916,2.458 -30.125,10 -30.125,10c0,0 -16.666,3.583 -14.958,7.208c1.708,3.625 -10.625,20.334 -10.625,20.334l-46.667,-40.917c-0.5,-1.25 -1,-2.5 -1.458,-3.792c-2.093,-6.03 -3.641,-12.235 -4.625,-18.541c4.857,-1.353 9.606,-3.066 14.208,-5.125c4.665,-1.763 8.838,-4.622 12.167,-8.334c4.167,-5.541 4.917,-12.916 6.5,-19.666c3.042,-13.25 10.25,-25.209 15.25,-37.875c8.311,-21.28 10.435,-44.482 6.125,-66.917c-0.996,-6.946 -3.623,-13.557 -7.667,-19.292c-7.75,-9.833 -21.208,-13.458 -31.208,-21.125c-10,-7.666 -16.667,-19.75 -28.25,-25.375c-10.417,-5.083 -22.833,-4.166 -34.25,-1.625c-22.389,4.535 -43.73,13.228 -62.917,25.625c-6.375,4.167 -13.416,8.917 -20.833,7.834c-6.5,-0.917 -11.417,-5.917 -15.792,-10.709c-0.019,-0.208 -0.019,-0.417 0,-0.625l-0.541,-0.541c-4.339,10.756 -6.274,22.333 -5.667,33.916c0,1.792 0,3.584 0.417,5.375l0,1.875c0.041,0.527 0.041,1.057 0,1.584c0.02,0.813 -0.064,1.625 -0.25,2.416c-0.921,2.348 -2.343,4.467 -4.167,6.209c-1.308,1.622 -2.479,3.35 -3.5,5.166c0,-0.625 0.333,-1.25 0.542,-1.875c-2.75,4.288 -4.198,9.282 -4.167,14.375c-0.113,3.708 1.234,7.316 3.75,10.042c2.341,2.115 4.88,3.998 7.583,5.625c-0.725,4.965 -0.99,9.986 -0.791,15c1.336,30.423 18.529,58.018 45.25,72.625c0.583,1.25 1.125,2.5 1.708,3.792c6.333,14.916 11.333,32.375 10.042,48.75c0,1.208 -0.25,2.416 -0.417,3.583c-0.167,1.167 -1.083,1.292 -1.542,1.958c-0.458,0.667 -74.291,3.584 -92.375,-11.583c-18.083,-15.167 -42.666,40.375 -42.666,40.375c0,0 -26.417,6.208 -31.959,1.25c-5.541,-4.958 -36.583,0.667 -36.583,0.667c-13.17,-10.863 -30.007,-16.291 -47.042,-15.167c-10.716,-7.497 -22.445,-13.432 -34.833,-17.625l-0.875,-0.25c-5.377,-1.724 -11.069,-2.236 -16.667,-1.5c-5.598,0.736 -37.708,-28.792 -49,-44.583c-11.291,-15.792 -64.333,-73.959 -64.583,-74.25l-0.292,-2.875l-0.916,-8.75c-1.498,0.304 -3.016,0.499 -4.542,0.583l-1.125,-3c-3.225,-8.427 -7.156,-16.567 -11.75,-24.333c-4.594,-7.766 -0.417,-11.084 2.708,-13.959c3.125,-2.875 -3,-43.25 -3,-43.25c0,0 -35.875,-75.708 -63.166,-17.083c0,0 -54.167,39.333 -5.875,80.792c0,0 19.041,8.333 21.958,15.416c1.917,4.584 8.75,17.334 13.333,25.792c0.75,1.417 1.459,2.667 2.042,3.792l-0.5,0.458l0.958,7.208l0.375,2.792c-8.583,5.333 -14.375,10.542 -12.791,14.25c2.86,6.268 4.905,12.878 6.083,19.667c1.178,6.788 67.833,78.541 77.542,112.875c0,0 177.5,96.458 234.875,101.625l-7.5,51.833c-0.941,14.007 -1.164,28.053 -0.667,42.083c1.167,11.042 -4.5,61.417 -4.5,61.417c0,0 -7.083,74.042 -15.042,84.708c-7.958,10.667 -4.791,54.75 -4.791,54.75c-1.192,21.247 -4.203,42.352 -9,63.084c-7.292,28.291 0,62.708 0,62.708c0,0 -26.375,67.417 41.166,19.792c0,0 33.917,-3.417 73,-6.25l0,3.916c0,5.042 0.25,10.5 0.417,16.25c0.917,38 2.708,90.334 5.958,129.875c5.792,69.875 32.417,207.375 32.417,207.375l2.667,69.584c-1.1,6.592 -1.505,13.281 -1.209,19.958c0.357,24.592 7.731,48.579 21.25,69.125l7.125,46.167c0,0 13.667,30.125 14.625,48.375c0.009,1.494 -0.117,2.986 -0.375,4.458c-0.386,2.354 -0.498,4.745 -0.333,7.125c0,21.083 14.75,71.042 14.75,71.042c0,0 2.708,50.791 10.417,53.458c6.625,2.25 -7.542,29.625 -11.792,37.5c-0.135,-0.48 -0.247,-0.967 -0.333,-1.458c-0.542,1.041 -0.875,1.583 -0.875,1.583c-1.408,4.17 -2.043,8.561 -1.875,12.958c-0.621,7.111 2.946,13.968 9.125,17.542c14.791,8.333 22.833,15.333 10.708,18.75c-4.501,0.887 -8.952,2.014 -13.333,3.375c0,-0.583 -0.5,-1.167 -0.709,-1.708c-3.434,1.603 -5.363,5.357 -4.666,9.083c0.367,6.025 2.151,11.879 5.208,17.083c13.25,26.792 22.083,36.792 22.083,36.792l5.792,-0.875c-0.785,2.255 -1.834,4.408 -3.125,6.417c-2.112,3.272 -4.967,5.999 -8.333,7.958c-3.083,2.1 -6.577,3.521 -10.25,4.167c-8.351,0.563 -16.068,4.695 -21.167,11.333c-7.208,10.083 -11.458,23.667 4.167,34.833l55.166,16.667c0,0 94.084,8.583 88.292,-12.25c-5.792,-20.833 -9.5,-39.083 -9.5,-39.083c-0.124,-12.852 -3.218,-25.502 -9.042,-36.959c-1.039,-1.871 -2.209,-3.667 -3.5,-5.375l3.292,-0.5c0,0 5.042,-46.666 13.833,-55.875c2.042,-2.083 2.459,-3.666 1.917,-4.875c0.833,-2.583 -1.583,-4.166 -4.708,-4.666c0,0.583 -0.375,1.208 -0.584,1.833c-3.012,-0.52 -6.069,-0.744 -9.125,-0.667c-3.056,0.077 -4.166,-24.166 5.584,-33.333c1.532,-2.097 2.122,-4.742 1.625,-7.292c-0.056,-3.324 -0.532,-6.628 -1.417,-9.833c-0.122,0.181 -0.22,0.377 -0.292,0.583c-5.875,-21.875 -24.083,-56.291 -24.083,-56.291c0,0 -1.583,-22.084 4.167,-31.125c5.75,-9.042 -5.417,-120.084 -5.417,-120.084c0,0 0.25,-53.875 -7.583,-78.625c-7.834,-24.75 6.291,-54.833 6.291,-54.833c0,0 0,-0.583 -0.25,-1.625l0,-0.375c0,0 -0.458,-3.292 -1.208,-8.333c0.018,0.18 0.018,0.361 0,0.541c-2.042,-14.166 -5.958,-39.833 -8.333,-51.708c-3.709,-16.667 -3,-98 -3,-98l12.5,-35.167l26.666,58.75l28.959,78.584c0,0 13.458,16.291 14.416,33.333l0,2.5c-0.103,1.776 -0.103,3.557 0,5.333c-0.055,10.045 3.083,19.853 8.959,28c5.876,8.148 8.333,37.5 19.333,46.5c11,9 11.75,27.584 11.75,27.584c0,0 15.042,54.166 21.5,63.375c5.417,7.875 6.542,30.041 6.75,36.833l0,2c0,0 2.583,19.417 3.125,35.792l0,5.833l0,-0.417c0.14,4.458 -0.224,8.916 -1.083,13.292l0,0.792l0,-2.75c-2.25,11.213 -3.117,22.659 -2.584,34.083c0.417,19.625 4.167,42.708 16.667,55.875c21.458,22.792 34.292,19.333 34.292,19.333c0,0 -8.75,29.834 -20.834,36.209c-0.455,0.252 -0.888,0.545 -1.291,0.875c0,-0.542 -0.25,-1.125 -0.334,-1.667c-2.568,3.082 -3.719,7.11 -3.166,11.083c-0.375,13 8.625,33.75 16.666,43.125c2.982,2.704 6.591,4.623 10.5,5.584c-0.587,0.463 -1.199,0.895 -1.833,1.291c-1.346,0.791 -2.737,1.5 -4.167,2.125c-1.945,0.933 -4.027,1.552 -6.166,1.834c-8.344,0.59 -16.051,4.716 -21.167,11.333c-7.167,10.083 -11.458,23.625 4.167,34.833l55.166,16.667c0,0 93.917,8.125 87.959,-12.708Z" style="fill:url(#_Linear2);fill-rule:nonzero;"/><path d="M3497.79,2524.46l-53.417,-16.666c-14.958,-11.209 -10.833,-24.792 -3.875,-34.875c4.856,-6.55 12.328,-10.674 20.458,-11.292c3.569,-0.653 6.953,-2.075 9.917,-4.167c3.293,-1.952 6.055,-4.686 8.042,-7.958c3.62,-6.243 5.438,-13.369 5.25,-20.583c-0.189,-7.214 57.166,-19.167 73.666,-2.834c2.929,2.97 5.426,6.336 7.417,10c5.653,11.523 8.658,24.166 8.792,37c0.134,12.835 3.666,18.25 9.25,39.084c5.583,20.833 -85.5,12.291 -85.5,12.291Z" style="fill:#2d293d;fill-rule:nonzero;"/><path d="M3754.62,2488.58l-53.375,-16.666c-15,-11.167 -10.875,-24.75 -3.917,-34.792c4.83,-6.579 12.318,-10.712 20.459,-11.292c2.069,-0.322 4.077,-0.954 5.958,-1.875c1.435,-0.613 2.828,-1.323 4.167,-2.125c14.458,-8.666 13.291,-28.541 13.291,-28.541c0,0 57.209,-19.167 73.667,-2.834c2.217,2.199 4.175,4.646 5.833,7.292c10.584,16.667 10.375,39.667 10.375,39.667c0,0 3.667,18.333 9.25,39.125c5.584,20.791 -85.708,12.041 -85.708,12.041Z" style="fill:#2d293d;fill-rule:nonzero;"/><path d="M3557.83,2426.25c2.929,2.969 5.426,6.336 7.417,10l-86.333,13.375c3.62,-6.243 5.438,-13.369 5.25,-20.583c-0.189,-7.214 57.166,-19.125 73.666,-2.792Z" style="fill-opacity:0.1;fill-rule:nonzero;"/><path d="M3820.5,2397.67l0.625,16.25c-12.5,22.75 -78,20.375 -97.375,9.958c1.435,-0.613 2.828,-1.323 4.167,-2.125c14.458,-8.667 13.291,-28.542 13.291,-28.542c0,0 57.209,-19.166 73.667,-2.833c2.144,2.21 4.032,4.656 5.625,7.292Z" style="fill-opacity:0.1;fill-rule:nonzero;"/><path d="M3828.12,2327.33c-3.788,7.217 -6.953,14.744 -9.458,22.5l2.208,58.334c-13.792,25 -90.708,19.75 -101.542,6.875c-10.833,-12.875 -23.208,-47.042 -11.625,-53.417c11.584,-6.375 20,-36.167 20,-36.167c0,0 -12.5,3.417 -33.333,-19.375c-20.833,-22.791 -16.917,-75.333 -13.708,-88c3.208,-12.666 -2.125,-54.541 -2.125,-54.541c0,0 -0.375,-29.5 -6.625,-38.834c-6.25,-9.333 -20.834,-63.375 -20.834,-63.375c0,0 -0.708,-18.416 -11.375,-27.625c-10.666,-9.208 -18.75,-46.5 -18.75,-46.5c-6.398,-9.15 -9.433,-20.241 -8.583,-31.375c1.5,-18.5 -14,-37.833 -14,-37.833l-28.125,-78.583l-25.875,-58.792l-11.875,35.208c0,0 -0.583,81.167 3.042,98c3.625,16.834 9.75,61.584 9.75,61.584c0,0 -13.625,30.041 -6,54.833c7.625,24.792 7.458,78.667 7.458,78.667c0,0 10.875,110.958 5.333,120.041c-5.541,9.084 -4.166,31.125 -4.166,31.125c0,0 32.708,63.667 23.458,72.875c-9.25,9.209 -5.375,33.334 -5.375,33.334c0,0 20.833,-0.792 12.167,8.333c-8.667,9.125 -13.375,55.875 -13.375,55.875l-88.667,13.75c0,0 -8.583,-10 -21.417,-36.833c-12.833,-26.834 1.292,-24.375 13.042,-27.792c11.75,-3.417 4.167,-10.458 -10.375,-18.792c-14.542,-8.333 -7,-28.5 -7,-28.5c0,0 19.958,-36.916 12.5,-39.583c-7.458,-2.667 -10.167,-53.458 -10.167,-53.458c0,0 -17.041,-59.834 -14,-76.209c3.042,-16.375 -13.916,-54.791 -13.916,-54.791l-6.917,-46.209c-16.779,-25.708 -23.735,-56.624 -19.583,-87.041l-2.584,-71.709c0,0 -25.958,-137.5 -31.583,-207.583c-3.625,-44.75 -5.458,-105.917 -6.292,-144.125c-0.458,-21.417 -0.625,-35.625 -0.625,-35.625l316.959,-45.375c1.108,15.877 3.646,31.621 7.583,47.042c3.917,17.333 9.875,39.791 18.958,67.75c25.959,80.166 14.292,141.125 14.292,141.125l1,102.5c0,0 30.625,67.416 25.625,91.25c-2.949,14.125 -4.346,28.53 -4.167,42.958c0.18,14.428 68.375,147.125 63.417,190.833c-4.958,43.709 25,111.209 25,111.209c0,0 9.125,48.5 2.25,62.041Z" style="fill:#65617d;fill-rule:nonzero;"/><path d="M3631.38,1950.5l96.375,-16.667c0,0 -52.708,58.167 -96.375,16.667Z" style="fill-opacity:0.05;fill-rule:nonzero;"/><path d="M3710,1839.75c0,0 4.625,34.125 -15.875,47.833c0.125,0 37.5,-7.333 15.875,-47.833Z" style="fill-opacity:0.1;fill-rule:nonzero;"/><path d="M3700,1730.96c0,0 -78.417,69.792 -108.333,65.417c-29.917,-4.375 108.333,-65.417 108.333,-65.417Z" style="fill-opacity:0.1;fill-rule:nonzero;"/><path d="M3512.5,1986.67c0,0 -60.958,16.333 -61.833,41.083c-0.875,24.75 61.833,-41.083 61.833,-41.083Z" style="fill-opacity:0.1;fill-rule:nonzero;"/><path d="M3537.88,2293.12c0,0 -86.208,19.542 -61.208,29.625c25,10.083 65.958,17.417 65.958,17.417c0,0 28.042,0.375 -4.75,-47.042Z" style="fill-opacity:0.05;fill-rule:nonzero;"/><g opacity="0.05"><path d="M3460,2340.83c-4.482,-2.633 -7.546,-7.152 -8.333,-12.291c-0.5,1 -0.834,1.583 -0.834,1.583c0,0 -7.333,20.167 7,28.5c1.667,0.958 3.209,1.875 4.667,2.792c2.583,-0.584 5.333,-1.042 8,-1.834c11.417,-3.208 3.625,-10.416 -10.5,-18.75Z" style="fill-rule:nonzero;"/><path d="M3571.54,2330.79c2.291,-2.292 2,-7.959 0.25,-15.167c-3.317,6.654 -4.757,14.089 -4.167,21.5c0.824,-2.373 2.161,-4.536 3.917,-6.333Z" style="fill-rule:nonzero;"/><path d="M3544.04,1964.79c-2.874,8.842 -4.501,18.042 -4.834,27.333c1.422,-6.466 3.445,-12.785 6.042,-18.875c2.597,-6.09 -0.458,-3.25 -1.208,-8.458Z" style="fill-rule:nonzero;"/><path d="M3741.58,1918.46c0.501,-2.663 0.669,-5.378 0.5,-8.083c-0.875,5.542 -1.458,10.667 -1.833,15.167c0.417,-2.292 0.833,-4.667 1.333,-7.084Z" style="fill-rule:nonzero;"/><path d="M3552.04,2226.75c1.48,-5.338 2.002,-10.896 1.541,-16.417c-2.462,6.662 -3.622,13.735 -3.416,20.834c0.446,-1.542 1.075,-3.025 1.875,-4.417Z" style="fill-rule:nonzero;"/><path d="M3575.62,2365c-4.003,15.03 -6.789,30.357 -8.333,45.833l-88.667,13.75c0,0 -8.542,-10 -21.375,-36.791c-1.125,-2.375 -2.042,-4.5 -2.792,-6.417c-5.25,2.667 -7.125,8.333 0.5,24.208c12.834,26.792 21.417,36.792 21.417,36.792l88.667,-13.75c0,0 4.833,-46.667 13.333,-55.833c4.125,-4.709 1.25,-6.959 -2.75,-7.792Z" style="fill-rule:nonzero;"/><path d="M3452.83,2237.21c0,0 2.709,50.834 10.167,53.5c3.417,-8.541 5.583,-16.666 2.25,-17.791c-7.5,-2.667 -10.167,-53.5 -10.167,-53.5c0,0 -17.083,-59.834 -14,-76.167c3.084,-16.333 -13.916,-54.792 -13.916,-54.792l-6.959,-46.208c-16.778,-25.708 -23.734,-56.625 -19.583,-87.042l-2.75,-71.458c0,0 -25.958,-137.5 -31.583,-207.583c-3.625,-44.75 -5.459,-105.959 -6.292,-144.125c0,-6.917 -0.25,-13.042 -0.375,-18.209l-2.542,0.375c0,0 0,14.167 0.667,35.625c0.833,38.167 2.667,99.375 6.25,144.125c5.667,69.875 31.625,207.584 31.625,207.584l2.75,71.458c-4.151,30.417 2.805,61.334 19.583,87.042l6.917,46.208c0,0 17,38.417 13.917,54.792c-3.084,16.375 14.041,76.166 14.041,76.166Z" style="fill-rule:nonzero;"/><path d="M3721.54,2395c-7.617,-10.193 -12.883,-21.947 -15.417,-34.417c-8.792,8.334 2.875,40 13.167,52.209c10.833,12.875 87.75,18.041 101.541,-6.834l-0.541,-14.041c-19.125,20.583 -88.5,15.333 -98.75,3.083Z" style="fill-rule:nonzero;"/><path d="M3830.33,2307.5c-3.788,7.217 -6.952,14.744 -9.458,22.5l0.375,10.333c1.542,-3.833 3.75,-8.958 6.833,-15.041c2.109,-5.883 2.96,-12.143 2.5,-18.375l-0.25,0.583Z" style="fill-rule:nonzero;"/><path d="M3723.33,2323.29c2.597,-5.774 4.797,-11.719 6.584,-17.792c1.787,-6.073 -12.5,3.417 -33.334,-19.375c-15.125,-16.667 -17.208,-48.958 -15.958,-70.208c-3.208,12.5 -7.083,65.208 13.708,88c13.709,14.916 23.709,18.583 29,19.375Z" style="fill-rule:nonzero;"/><path d="M3678.62,2161.42c1.849,14.459 2.906,29.008 3.167,43.583c0.267,-2.316 0.684,-4.613 1.25,-6.875c3.208,-12.5 -2.125,-54.5 -2.125,-54.5c0,0 -0.417,-29.5 -6.667,-38.875c-6.25,-9.375 -20.833,-63.375 -20.833,-63.375c0,0 -0.709,-18.417 -11.417,-27.583c-10.708,-9.167 -18.75,-46.5 -18.75,-46.5c-6.395,-9.168 -9.429,-20.271 -8.583,-31.417c1.5,-18.5 -14,-37.792 -14,-37.792l-28.167,-78.625l-25.875,-58.75l-11.917,35.125l0,11.209l9.709,-28.542l25.875,58.75l28.083,78.583c0,0 15.5,19.292 14,37.792c-0.866,11.148 2.169,22.258 8.583,31.417c6.415,9.159 8.042,37.5 18.75,46.5c10.709,9 11.375,27.583 11.375,27.583c0,0 14.625,54.167 20.834,63.375c6.208,9.208 6.708,38.917 6.708,38.917Z" style="fill-rule:nonzero;"/></g><path d="M3688.33,803.625l-4.5,27.125l0.792,11.958l0.583,8.834l-30.625,4.166l-3.708,-6.25c-6.792,-11.291 -20.833,-34.25 -25.333,-37.5c-5.834,-4.541 -18.875,-78.958 -6.542,-75c7.543,2.582 13.869,7.869 17.75,14.834c3.881,6.964 60.75,4.666 51.583,51.833Z" style="fill:#ffcdd3;fill-rule:nonzero;"/><path d="M3685.21,851.542l-30.625,4.166l-3.708,-6.25c8.132,-10.017 22.333,-12.928 33.75,-6.916l0.583,9Z" style="fill-opacity:0.1;fill-rule:nonzero;"/><path d="M3693.33,865.833l-40.166,10.959l-1.084,-6l-2.916,-16.167c0,0 15.208,-22 39.041,-6.833l2.334,8.333l2.791,9.708Z" style="fill:#dce6f2;fill-rule:nonzero;"/><path d="M3034.62,831.75l-42.375,25c0,0 -1.792,-3.333 -4.167,-8c-4.458,-8.333 -11.083,-21.25 -12.958,-25.833c-2.833,-7.042 -21.25,-15.417 -21.25,-15.417c-46.958,-41.667 5.583,-80.792 5.583,-80.792c26.334,-58.583 61.125,17.167 61.125,17.167c0,0 6,40.375 2.959,43.25c-3.042,2.875 -2.584,13.917 -2.584,13.917c4.454,7.799 8.259,15.951 11.375,24.375c1.5,3.833 2.292,6.333 2.292,6.333Z" style="fill:#ffcdd3;fill-rule:nonzero;"/><path d="M3034.62,831.75l-42.375,25c0,0 -1.792,-3.333 -4.167,-8c5.875,-5.333 26.875,-23.75 34,-23.208c3.41,0.319 6.841,0.319 10.25,0c1.5,3.708 2.292,6.208 2.292,6.208Z" style="fill-opacity:0.1;fill-rule:nonzero;"/><path d="M3039.54,844.667l-47.709,25.833l-1.375,-10.417l-0.958,-7.208c0,0 27.25,-25.208 35.625,-24.625c4.17,0.415 8.377,0.247 12.5,-0.5l0.917,8.708l1,8.209Z" style="fill:#dce6f2;fill-rule:nonzero;"/><path d="M3577.33,986.667c0,0 -211.083,32.083 -171.958,17.708c27.25,-10.083 37.5,-28.042 39.083,-47.542c1.209,-16.375 -3.625,-33.833 -9.791,-48.791c-5.532,-13.153 -12.372,-25.716 -20.417,-37.5c-8.045,-11.784 158.625,-95.375 129.167,-13.084c-4.546,12.444 -7.146,25.514 -7.709,38.75c-0.475,13.14 1.445,26.257 5.667,38.709c6.973,20.239 19.422,38.155 35.958,51.75Z" style="fill:#ffcdd3;fill-rule:nonzero;"/><path d="M3543.58,857.5c-4.545,12.444 -7.145,25.514 -7.708,38.75c-14.75,13.417 -31.542,13.208 -53.042,14.042c-16.666,0.625 -34.666,5.333 -48.166,-2.125c-5.532,-13.153 -12.372,-25.716 -20.417,-37.5c-8.045,-11.784 158.625,-95.417 129.333,-13.167Z" style="fill-opacity:0.1;fill-rule:nonzero;"/><circle cx="3476.83" cy="828.375" r="87.75" style="fill:#ffcdd3;"/><path d="M3577.33,986.667c0,0 -211.083,32.083 -171.958,17.708c27.25,-10.083 37.5,-28.042 39.083,-47.542c10.125,-11.875 31,-20.833 44.459,-25.833c12.264,-4.654 25.678,-5.383 38.375,-2.083c5.011,1.272 9.811,3.265 14.25,5.916c6.913,20.251 19.303,38.195 35.791,51.834Z" style="fill-opacity:0.1;fill-rule:nonzero;"/><path d="M3693.33,865.833l-40.166,10.959l-1.084,-6c8.405,-12.511 23.83,-18.461 38.459,-14.834l2.791,9.875Z" style="fill-opacity:0.1;fill-rule:nonzero;"/><path d="M3039.54,844.667l-47.709,25.833l-1.375,-10.417c15.467,-9.017 31.597,-16.845 48.25,-23.416l0.834,8Z" style="fill-opacity:0.1;fill-rule:nonzero;"/><path d="M3681.75,1517.83c-81.583,16.125 -197.792,37.5 -216.667,32.542c-15.583,-4.167 -64.666,-1.708 -107.375,1.417c-0.458,-21.417 -0.625,-35.625 -0.625,-35.625l316.959,-45.375c1.149,15.88 3.729,31.625 7.708,47.041Z" style="fill-opacity:0.1;fill-rule:nonzero;"/><path d="M3762.92,1495.42c0,0 -268.584,56.791 -297.959,49.083c-29.375,-7.708 -177.958,7.583 -177.958,7.583c-65.292,47.5 -39.875,-19.875 -39.875,-19.875c0,0 -7.208,-34.375 0,-62.708c4.609,-20.74 7.493,-41.826 8.625,-63.042c1.132,-21.215 -3.167,-44.125 4.542,-54.75c7.708,-10.625 14.458,-84.666 14.458,-84.666c0,0 5.417,-50.375 4.167,-61.417c-1.25,-11.042 0.625,-42.042 0.625,-42.042l7.5,-51.916c-55.542,-5.25 -227.459,-101.917 -227.459,-101.917c-9.458,-34.292 -75,-112.917 -75,-112.917c-1.162,-6.785 -3.149,-13.404 -5.916,-19.708c-4.875,-11.625 60.541,-37.75 60.541,-37.75c0,0 51.667,58.333 62.5,74.333c10.834,16 47.459,44.667 47.459,44.667c5.469,-0.792 11.049,-0.292 16.291,1.458l0.834,0.25c12.031,4.229 23.385,10.18 33.708,17.667c16.587,-1.043 32.946,4.414 45.583,15.208c12.638,10.794 30.042,-5.583 35.375,-0.625c5.334,4.959 30.959,-1.166 30.959,-1.166c0,0 23.666,-55.542 41.208,-40.334c17.542,15.209 89.458,11.667 89.458,11.667c9.084,-13.083 32.042,-23.125 46.459,-28.375c12.26,-4.668 25.674,-5.411 38.375,-2.125c5.502,1.344 10.732,3.628 15.458,6.75l45.25,41.042c0,0 11.917,-16.667 10.292,-20.334c-1.625,-3.666 14.5,-7.166 14.5,-7.166c0,0 21.083,-7.459 29.166,-10c8.084,-2.542 15.75,6 16.459,6.708c-0.334,-0.917 -6.542,-18.542 -4.917,-32.25c1.625,-13.708 -9.875,-26.167 -9.875,-26.167c23.375,-64.333 83.583,-13.541 83.583,-13.541c0,0 8,34.375 2.584,47.875c-5.417,13.5 7.5,41 6.291,48.416c-1.208,7.417 3.709,19.792 4.167,33.792c0.458,14 -5.792,40.792 -9.75,52.75c-3.958,11.958 -38.333,39.833 -38.333,39.833c0,0 -0.584,42.084 -15.125,67c-14.542,24.917 -1.75,107.792 -1.75,107.792c0,0 17.25,64.25 36.458,84.167c19.208,19.916 51.042,136.75 51.042,136.75Z" style="fill:#3f3d56;fill-rule:nonzero;"/><path d="M3350.12,1025.83c0,0 -9.042,-24 -16.667,-25.916c-7.421,-2.434 -14.673,-5.357 -21.708,-8.75l4.167,-9.25c0,0 27.958,6.5 32.708,14.458c4.75,7.958 1.5,29.458 1.5,29.458Z" style="fill-opacity:0.1;fill-rule:nonzero;"/><path d="M3200,977.75c-1.208,7.417 -66.667,16.667 -66.667,16.667l31.875,-34.542l0.834,0.25c12.115,4.194 23.555,10.131 33.958,17.625Z" style="fill-opacity:0.1;fill-rule:nonzero;"/><circle cx="3006.42" cy="883.917" r="5.917" style="fill:#575988;"/><circle cx="3014.42" cy="895.417" r="5.917" style="fill:#575988;"/><circle cx="3022.21" cy="906" r="5.917" style="fill:#575988;"/><circle cx="3030.38" cy="917.5" r="5.917" style="fill:#575988;"/><circle cx="3724.79" cy="890.125" r="4.792" style="fill:#575988;"/><circle cx="3725.96" cy="900.958" r="4.792" style="fill:#575988;"/><circle cx="3727" cy="911.792" r="4.792" style="fill:#575988;"/><path d="M3358.17,1225.46c-0.709,-0.833 173.416,202.5 297.708,76.334c-0.042,0 -202.667,35.458 -297.708,-76.334Z" style="fill-opacity:0.1;fill-rule:nonzero;"/><path d="M3266.96,1338.17c0,0 99.5,-1.125 111,27.041l1.125,29.75c-5.618,3.432 -12.636,3.701 -18.5,0.709c-10.208,-5 -71.458,-33.334 -92.083,-17.709l-1.542,-39.791Z" style="fill-opacity:0.1;fill-rule:nonzero;"/><path d="M3268.83,1338.08c0,0 95.125,-1.083 106.125,25.792l1.084,28.375c-5.386,3.262 -12.093,3.514 -17.709,0.667c-9.75,-4.792 -68.333,-31.667 -88.041,-16.875l-1.459,-37.959Z" style="fill:#656691;fill-rule:nonzero;"/><path d="M3312.92,1120.29c11.055,23.11 24.849,44.807 41.083,64.625c17.661,21.906 38.771,40.792 62.5,55.916c23.729,15.124 -101.417,-106.958 -103.583,-120.541Z" style="fill-opacity:0.1;fill-rule:nonzero;"/><path d="M3275.96,1006.08c0,0 19.334,70.834 63,93.584l-63,-93.584Z" style="fill-opacity:0.1;fill-rule:nonzero;"/><path d="M3250.83,1014.29c-0.5,-1.334 -12.5,57.166 58.334,86.5c0.125,0 -29.917,-8.917 -58.334,-86.5Z" style="fill-opacity:0.1;fill-rule:nonzero;"/><path d="M3682.88,949.583c-1.083,0 35.333,21.292 45.375,31.459c0,0 -24.417,-33.75 -45.375,-31.459Z" style="fill-opacity:0.1;fill-rule:nonzero;"/><path d="M3456.17,908.75c0.289,7.355 6.42,13.249 13.781,13.249c0.616,0 1.232,-0.042 1.844,-0.124c26.791,0.625 54.666,0.75 79.166,-10.5c4.524,-1.782 8.543,-4.643 11.709,-8.333c4.166,-5.542 4.75,-12.875 6.291,-19.667c2.959,-13.208 9.875,-25 14.75,-37.833c8.08,-21.439 10.127,-44.688 5.917,-67.209c-0.933,-6.921 -3.473,-13.528 -7.417,-19.291c-7.5,-9.875 -20.583,-13.459 -30.25,-21.167c-9.666,-7.708 -16.208,-19.792 -27.375,-25.417c-10.083,-5.083 -22.125,-4.166 -33.333,-1.666c-21.724,4.569 -42.374,13.253 -60.833,25.583c-6.209,4.167 -13,8.875 -20.375,7.792c-6.459,-0.959 -11.292,-6.167 -15.625,-11.042c-4.757,12.225 -6.501,25.417 -5.084,38.458c0.333,1.902 0.333,3.848 0,5.75c-0.844,2.317 -2.164,4.432 -3.875,6.209c-6.291,7.916 -9.958,20.208 -3.125,27.666c2.959,3.292 7.375,4.959 10.292,8.334c5.167,5.958 3.833,14.875 4.167,22.75c-0.197,2.755 0.602,5.491 2.25,7.708c3.009,2.572 7.153,3.394 10.916,2.167c3.68,-1.266 7.575,-1.79 11.459,-1.542c4.178,1.196 7.825,3.784 10.333,7.333c13.042,15.042 18.5,32.125 24.417,50.792Z" style="fill:#2d293d;fill-rule:nonzero;"/><g opacity="0.1"><path d="M3565.21,896.042c-3.178,3.694 -7.212,6.555 -11.75,8.333c-24.333,11.25 -52.166,11.167 -78.958,10.5c-0.625,0.086 -1.256,0.13 -1.887,0.13c-7.348,0 -13.471,-5.872 -13.78,-13.213c-5.875,-18.709 -11.375,-35.792 -24.333,-51c-2.502,-3.537 -6.132,-6.123 -10.292,-7.334c-3.896,-0.227 -7.801,0.296 -11.5,1.542c-3.763,1.227 -7.907,0.405 -10.916,-2.167c-1.629,-2.226 -2.425,-4.955 -2.25,-7.708c0,-7.875 1.166,-16.667 -4.167,-22.75c-2.875,-3.333 -7.333,-5 -10.292,-8.333c-3.937,-4.965 -4.85,-11.709 -2.375,-17.542c-4.375,7.625 -6.041,17.25 -0.333,23.542c2.958,3.25 7.417,4.916 10.292,8.333c5.166,5.958 3.875,14.875 4.166,22.792c-0.19,2.741 0.609,5.462 2.25,7.666c2.999,2.595 7.155,3.42 10.917,2.167c3.698,-1.249 7.603,-1.773 11.5,-1.542c4.153,1.226 7.778,3.808 10.292,7.334c12.958,15.25 18.416,32.291 24.333,51c0.864,4.648 3.474,8.794 7.292,11.583c2.624,1.142 5.474,1.669 8.333,1.542c26.792,0.625 54.667,0.708 79.167,-10.542c4.531,-1.79 8.562,-4.649 11.75,-8.333c1.569,-2.201 2.753,-4.653 3.5,-7.25c-0.292,0.437 -0.612,0.854 -0.959,1.25Z" style="fill-rule:nonzero;"/><path d="M3389.71,774.875c1.142,-1.323 1.994,-2.87 2.5,-4.542c0.354,-1.9 0.354,-3.849 0,-5.75c-1.141,-10.713 -0.149,-21.547 2.917,-31.875l-0.542,-0.583c-4.752,12.226 -6.495,25.417 -5.083,38.458c0.194,1.422 0.263,2.858 0.208,4.292Z" style="fill-rule:nonzero;"/></g><path d="M3442.58,962.5c0,0 110.084,10.333 119.292,-6.542" style="fill-opacity:0.1;fill-rule:nonzero;"/><path d="M3653.75,909c0,0 60.833,-2.25 75,20.042" style="fill-opacity:0.1;fill-rule:nonzero;"/><path d="M673.792,716.875l0,233.333c0,6.959 -13.042,12.5 -29.167,12.5l-615.542,0c-16.083,0 -29.166,-5.625 -29.166,-12.5l0,-233.333c0,-6.958 13,-14.042 29.166,-14.042l615.625,0c16.042,0 29.084,7.084 29.084,14.042Z" style="fill:#fff;fill-rule:nonzero;"/><path d="M673.792,716.875l0,233.333c0,6.959 -13.042,12.5 -29.167,12.5l-615.542,0c-16.083,0 -29.166,-5.625 -29.166,-12.5l0,-233.333c0,-6.958 13,-14.042 29.166,-14.042l615.625,0c16.042,0 29.084,7.084 29.084,14.042Z" style="fill:#3a69da;fill-opacity:0.2;fill-rule:nonzero;"/><rect x="295.708" y="786.167" width="320.667" height="11.333" style="fill:#3a69da;"/><path d="M133.458,761.333c-41.698,0.024 -75.998,34.343 -75.998,76.042c0,25.494 12.821,49.349 34.082,63.417l0,-5.084c0.023,-8.678 6.591,-16.056 15.208,-17.083c5.287,9.653 15.453,15.676 26.458,15.676c11.006,0 21.172,-6.023 26.459,-15.676c8.617,1.027 15.185,8.405 15.208,17.083l0,5.417c21.553,-14.014 34.59,-38.042 34.59,-63.75c0,-41.702 -34.305,-76.022 -76.007,-76.042Zm29.792,96.375c-1.166,15.64 -14.359,27.886 -30.042,27.886c-15.682,0 -28.876,-12.246 -30.041,-27.886c-1.978,-4.314 -3.003,-9.006 -3.003,-13.752c0,-13.29 8.029,-25.339 20.294,-30.456c-1.069,-1.603 -1.635,-3.49 -1.625,-5.417c0,0 0,0 0,0c0,-5.508 4.533,-10.041 10.042,-10.041c0.014,0 0.028,0 0.042,0l0.708,0c-5.238,0.37 -9.346,4.79 -9.333,10.041c-0.013,1.743 0.448,3.457 1.333,4.959l0.292,0c-0.064,-0.652 -0.064,-1.307 0,-1.959c-0.004,-2.093 0.652,-4.134 1.875,-5.833c1.297,-4.209 5.22,-7.096 9.625,-7.083l0.708,0c-3.112,0.231 -5.947,1.895 -7.667,4.5c1.644,-1.088 3.571,-1.668 5.542,-1.668c5.493,0 10.019,4.508 10.042,10.001c0.02,0.375 0.02,0.75 0,1.125c14.4,3.84 24.496,16.982 24.496,31.886c0,4.741 -1.022,9.428 -2.996,13.739l-0.292,-0.042Z" style="fill:#3a69da;fill-opacity:0.2;fill-rule:nonzero;"/><rect x="295.708" y="813.75" width="320.667" height="11.333" style="fill:#3a69da;fill-opacity:0.2;"/><rect x="295.708" y="841.333" width="320.667" height="11.333" style="fill:#3a69da;fill-opacity:0.2;"/><rect x="295.708" y="868.917" width="320.667" height="11.333" style="fill:#3a69da;fill-opacity:0.2;"/><path d="M1097.5,1430.25c-2.368,-12.666 -3.761,-25.496 -4.167,-38.375c0,-15.417 -20.833,-29.167 -20.833,-29.167c0,0 -12.958,-30 -21.458,-34.375c-8.5,-4.375 -35.292,-43.666 -35.292,-43.666c-0.304,-7.742 -3.129,-15.176 -8.042,-21.167c-7.986,-10.5 -15.28,-21.509 -21.833,-32.958c-3.583,-4.417 -1.792,-7.5 -7.167,-33.084c-0.305,-1.333 -0.639,-2.625 -1,-3.875c0,-0.583 -0.375,-1.083 -0.541,-1.625c11.656,-11.721 15.614,-29.142 10.166,-44.75c-0.99,-3.039 -2.757,-5.768 -5.125,-7.916c-6.083,-4.959 -15.791,-2.917 -22.041,-7.625l6.625,-29.417c1.625,-7.167 2.458,-16.333 -3.875,-20.208c-2.36,-1.136 -4.851,-1.976 -7.417,-2.5c-10.917,-3.459 -17.042,-14.959 -19.833,-25.959c-2.716,-10.607 -3.45,-21.625 -2.167,-32.5c1.208,-10.416 4.167,-20.583 5.417,-31.041c2.005,-19.379 -2.655,-38.874 -13.209,-55.25c-4.143,-7.028 -10.198,-12.737 -17.458,-16.459c-6.708,-3 -14.5,-3.375 -20.833,-7.333c-13.417,-8.333 -12.75,-28.708 -23.417,-40.417c-10.667,-11.708 -29.625,-11.583 -45.208,-7.583c-15.584,4 -31.042,10.875 -47.042,9.083c-10.292,-1.125 -19.958,-5.791 -30.25,-6.875c-2.963,-0.298 -5.953,-0.158 -8.875,0.417l0.208,-0.375c-7.666,1.375 -14.666,5.625 -16.458,12.875c-0.399,1.72 -0.567,3.486 -0.5,5.25c0,4.167 1,8.583 1.083,12.5c0.248,3.227 -0.803,6.424 -2.916,8.875c-2.042,2.208 -5.084,3.375 -7.084,5.625c-1.732,1.763 -2.679,4.154 -2.625,6.625c0,6.417 8,12.042 13.375,14.625c-1.458,1.458 -2.875,2.958 -4.166,4.5c-15.269,17.429 -23.62,39.871 -23.459,63.042c0.148,38.26 23.145,72.936 58.334,87.958c-0.25,0.792 -0.459,1.542 -0.75,2.333c-1.481,4.641 -3.234,9.191 -5.25,13.625c-7.537,-2.54 -15.825,-1.624 -22.625,2.5c-10.292,7.042 -30.375,6.625 -35.75,5.292c-5.375,-1.333 -61.209,-8.333 -65.667,-6.625c-4.458,1.708 -13.417,-6.167 -19.208,4.417c-5.792,10.583 -8.334,16.333 -14.292,18.958c-5.958,2.625 -16.083,11.042 -14.75,12.792c1.333,1.75 -14.75,12.5 -14.75,12.5c0,0 -13.833,14.541 -21.875,16.333c-8.042,1.792 -25,12.792 -25,12.792l-19.667,15.416c0,0 -14.75,2.209 -10.291,-7.916c4.458,-10.125 -8.042,-22.959 -8.042,-22.959c0,0 -25,-50.708 -25,-61.25c0,-10.541 -20.542,-55.125 -20.542,-55.125l-2.541,-0.25c-0.375,-1.083 -0.75,-2.166 -1.167,-3.291c-3.75,-10.625 -8.625,-23.625 -12.5,-31.292c-7.083,-14.542 -11.667,-16.208 -11.667,-16.208c0,0 -86.666,-65.084 -142.958,-45.25c-56.292,19.833 102.75,78.916 117.042,85.125c5,2.125 8.583,9.125 11.125,17.25c-12.651,6.189 -23.277,15.86 -30.625,27.875c-7.349,12.014 34.375,76.25 35.25,95.208c0.875,18.958 23.708,71.875 23.708,71.875c0,0 8.333,39.25 54.5,37.042c0,0 63.417,11.625 77.25,0c13.833,-11.625 26.375,-20.834 33.083,-22.125c4.957,-1.626 9.313,-4.704 12.5,-8.834c3.188,-4.129 -20.833,132.25 -31.25,143.75c-10.416,11.5 -101.416,160.042 -68.833,186.459c25.854,20.078 53.181,38.184 81.75,54.166c2.792,1.375 11.083,-12.5 22.958,-22.291l0,7.625c0.209,52.833 7.084,133.333 16.875,151.333c14.292,26.458 8.334,77.625 8.334,77.625c7.579,3.55 15.801,5.521 24.166,5.792c0.417,1.708 0.917,3.5 1.417,5.375c7.875,29.75 20.625,75.75 27.125,88c9.875,18.541 17,77.166 17,77.166c0,0 5.792,57.75 3.583,65.709c-0.875,3.041 2.917,27 8.834,57.416c-3.625,41.334 -10.417,121.042 -11.584,150l0,4.834c-0.149,1.802 -0.149,3.614 0,5.416c0.504,2.783 0.303,5.648 -0.583,8.334c-2.508,7.981 -5.758,15.709 -9.708,23.083c-0.209,0.75 -2.625,5.75 -4.167,11.208c-3.542,1.542 -7.958,5.417 -10.417,14.792c-4.458,17.208 -11.166,64.833 -11.166,64.833c0,0 -2.667,29.167 -8.042,35.709c-5.375,6.541 -10.708,48.041 27.25,53.333c37.958,5.292 54.5,-20.167 54.5,-20.167l-1.333,-115.416c0.769,-0.979 1.426,-2.042 1.958,-3.167l0,-0.25c0.25,-0.583 0.542,-1.125 0.792,-1.792c0.25,-0.666 0,-0.541 0.333,-0.833c0.333,-0.292 0.375,-0.917 0.542,-1.417c-0.018,-0.166 -0.018,-0.333 0,-0.5c3.698,-11.058 4.796,-22.823 3.208,-34.375c-1.588,-11.552 0,-0.375 0,-0.583l0,-0.917l0,-0.875c0.02,-0.263 0.02,-0.528 0,-0.791c-0.021,-0.333 -0.021,-0.667 0,-1l0,-0.709c0,-0.75 0,-1.541 0.25,-2.333c-0.023,-0.152 -0.023,-0.306 0,-0.458l0,-1.375c0.02,-0.208 0.02,-0.417 0,-0.625c0,-0.459 0.208,-0.959 0.292,-1.459l0,-0.333c0.333,-1.708 0.791,-3.417 1.25,-5.208l0,-0.375l0.5,-1.75c0.583,-1.875 1.208,-3.709 1.833,-5.542l0,-0.375l0.625,-1.708l0,-0.209c0.625,-1.75 1.292,-3.458 1.958,-5.083l0,-0.458l0.625,-1.459l0,-0.416l1.375,-3.25l10.542,32.541c0,0 5.792,24.25 2.667,29.959c-3.125,5.708 3.583,29.583 8.041,30l-4.166,30c-2.301,16.578 -3.691,33.269 -4.167,50c-0.292,1.875 -0.583,3.5 -0.792,4.75c-2.875,15.333 4.167,39.166 4.167,39.166c35.292,41.667 77.292,3.25 77.292,3.25c0,0 4.916,-22.083 0,-26.458c-4.917,-4.375 -2.667,-20.292 -2.667,-20.292c0,0 2.208,-39.25 2.667,-67.916c0.458,-28.667 -23.459,-53.875 -23.459,-53.875l-1.333,1.208c-4.167,-11.208 -9.292,-24.333 -8.333,-30.208c1.791,-10.125 -4.917,-117.25 -4.917,-117.25c2.451,-28.655 2.966,-57.443 1.542,-86.167c0.583,-4.875 1.125,-9.667 1.666,-14.292c2.709,-23.041 4.875,-42.75 5.75,-53.041l0,-1.209c0.209,-2.791 0.334,-4.75 0.292,-5.708c0,-3.417 0,-7.708 0.333,-12.208c0.875,-12.5 2.792,-26.167 2.792,-26.167l9.375,-56.875c0,0 7.125,-27.75 17.417,-43.208l1.208,-1.959c0.417,-0.666 0.833,-1.416 1.25,-2.208l0,-0.333l1.25,-2.375l0,-0.334c1.458,-2.833 3,-6.125 4.583,-9.708l0.375,-0.792l1.209,-2.75l0.458,-1.083l1.208,-2.75c0,-0.375 0.292,-0.708 0.459,-1.083c0.458,-1.125 0.916,-2.25 1.416,-3.375l0.667,-1.625c0.375,-0.834 0.708,-1.667 1.042,-2.542l0.916,-2.167l0.625,-1.625l1,-2.458c0,-0.375 0.334,-0.75 0.459,-1.125c2.541,-6.375 5.041,-12.5 7.208,-18.417c0.708,-1.791 1.375,-3.5 2,-5.166c22.875,1.416 38.417,2.708 38.417,2.708c0,0 7.166,-51.583 4.916,-85.542c-1.541,-23.166 2.75,-52.333 5.625,-68.458c0.334,-1.792 0.625,-3.375 0.875,-4.792l0.625,0.5c11.209,8.792 19.209,-20.291 19.209,-20.291c0,0 -3,-27.209 -7.042,-60.084c0,-1.083 -0.292,-2.208 -0.417,-3.291c6.452,1.371 12.976,2.373 19.542,3c6.566,0.626 3.583,-0.334 8.333,-0.959c13.482,7.71 27.689,14.074 42.417,19l23.667,-44.083c4.466,-9.091 9.693,-17.789 15.625,-26c7.166,-8.833 32.625,-37.042 32.166,-42.333c-0.458,-5.292 8.334,-35.709 17.417,-49.375c9.083,-13.667 14.375,-41.417 13.875,-43.667Zm-99.167,33.333c-9.375,3.959 -18.333,26 -18.75,32.625c-0.416,6.625 -10.291,35.709 -20.583,39.25c-9.417,3.25 -27.5,19.834 -30.375,22.5c-2.958,0.292 -6.292,0.667 -9.792,1.25c-3.916,-27.833 -7.791,-50.833 -10.291,-55.5c-7.125,-13.25 7.875,-55.541 7.875,-55.541c0,0 1.5,-42.75 10.875,-52.917c9.375,-10.167 7.166,-35.708 7.166,-35.708c0,0 2.209,-10.584 3.125,-15.417c0.917,-4.833 13.292,0 13.375,0c0.084,0 24.125,13.208 27.709,33.042c3.583,19.833 29.916,54.166 29.916,54.166c0,0 -4.166,11.875 0,18.084c4.167,6.208 -0.833,10.375 -10.208,14.333l-0.042,-0.167Z" style="fill:url(#_Linear3);fill-rule:nonzero;"/><path d="M352.292,1086.96c15.017,-24.736 43.542,-38.126 72.166,-33.875l0,51.5l-31.125,0l-24.666,-6.375l-16.375,-11.25Z" style="fill:#4c4981;fill-rule:nonzero;"/><path d="M352.292,1086.96c15.017,-24.736 43.542,-38.126 72.166,-33.875l0,51.5l-31.125,0l-24.666,-6.375l-16.375,-11.25Z" style="fill-opacity:0.1;fill-rule:nonzero;"/><path d="M426.667,1066.71l-38.292,26.875c0,0 -0.333,-5.416 -1.292,-12.75c-1.916,-13.875 -6.208,-34.708 -15.458,-38.75c-14.083,-6.166 -170.833,-65.125 -115.25,-84.916c55.583,-19.792 140.792,45.125 140.792,45.125c0,0 4.416,1.5 11.416,16.041c3.709,7.625 8.334,20.625 12.25,31.209c3.375,9.583 5.834,17.166 5.834,17.166Z" style="fill:#ae6e79;fill-rule:nonzero;"/><path d="M732.833,1108.08l4.334,-2.083l12.25,13.958l-10,21.334l-17.042,-6.834l3.958,-17.041l6.5,-9.334Z" style="fill:#4c4981;fill-rule:nonzero;"/><path d="M674.833,2357.79c0,0 -11,-1.292 -15.416,15.833c-4.417,17.125 -11,64.708 -11,64.708c0,0 -2.625,29.167 -7.917,35.625c-5.292,6.459 -10.542,47.959 26.833,53.25c37.375,5.292 53.709,-20.125 53.709,-20.125l-1.334,-115.416l-44.875,-33.875Z" style="fill:#444053;fill-rule:nonzero;"/><path d="M805.292,2363c0,0 23.541,25 23.125,53.75c-0.417,28.75 -2.667,67.792 -2.667,67.792c0,0 -2.167,15.833 2.667,20.25c4.833,4.416 0,26.375 0,26.375c0,0 -41.375,38.416 -76.125,-3.209c0,0 -6.792,-23.791 -4.167,-39.125c2.625,-15.333 10.542,-84.375 10.542,-84.375l46.625,-41.458Z" style="fill:#444053;fill-rule:nonzero;"/><path d="M863.625,1836.67c0,0 -23.792,66.666 -33.917,81.833c-10.125,15.167 -17.125,43.167 -17.125,43.167l-9.25,56.791c-1.814,12.689 -2.844,25.477 -3.083,38.292c0.417,12.75 -22.875,198.875 -22.875,198.875l-36.958,47.083c0,0 -16.292,33 -13.667,46.667c2.625,13.667 -1.75,35.625 -7.042,42.208c0,0 -0.875,43.125 -2.208,52.834c-1.333,9.708 4.875,36.958 0,41.666c-4.875,4.709 -69.5,2.625 -71.292,-5.291c-1.791,-7.917 7.959,-46.209 7.959,-46.209l5.708,-36.958c0,0 11.417,-20.25 8.792,-26.833c-2.625,-6.584 4.833,-22 5.291,-23.334c0.459,-1.333 12.5,-22.875 10.125,-31.208c-2.375,-8.333 13.625,-185.708 13.625,-185.708l45.334,-318.167l120.583,24.292Z" style="fill:#ae6e79;fill-rule:nonzero;"/><path d="M863.625,1836.67c0,0 -3.583,10 -8.583,23.166c-7.834,20.834 -19.125,49.25 -25.334,58.667c-10.125,15.417 -17.166,43.125 -17.166,43.125l-9.209,56.792c-1.813,12.674 -2.843,25.448 -3.083,38.25c0,5.041 -3.375,37.208 -7.708,74.208c-6.667,56.625 -15.167,124.708 -15.167,124.708l-37,47.084c0,0 -1.875,3.791 -4.167,9.291c-4.625,10.792 -11.166,28.334 -9.416,37.5c2.625,13.667 -1.75,35.667 -7.042,42.25c0,0 -0.875,43.167 -2.208,52.792c-1.334,9.625 4.875,37 0,41.667c-4.875,4.666 -69.5,2.666 -71.292,-5.292c-1.792,-7.958 7.917,-46.167 7.917,-46.167l5.75,-37c0,0 11.416,-20.25 8.791,-26.833c-2.625,-6.583 4.834,-22 5.292,-23.333c0.458,-1.334 12.5,-22.875 10.125,-31.25c-1.708,-6.375 7.083,-110.584 11.333,-160c1.375,-15.584 2.292,-25.667 2.292,-25.667l39,-273.708l3.125,-22.084l3.208,-22.375l120.542,24.209Z" style="fill-opacity:0.1;fill-rule:nonzero;"/><path d="M824,2498.62c0.417,4.833 -62.042,11.875 -70.833,6.583c-8.792,-5.291 0,-70.833 0,-70.833l4.166,-29.917c-4.416,-0.458 -11,-24.208 -7.916,-29.958c3.083,-5.75 -2.667,-29.917 -2.667,-29.917l-10.375,-32.5l-6.333,-19.833c-10.25,-22.708 -25,-87.5 -34.417,-135.833c-5.833,-30.375 -9.542,-54.167 -8.708,-57.375c2.208,-7.917 -3.542,-65.542 -3.542,-65.542c0,0 -7,-58.333 -16.667,-77c-6.416,-12.25 -18.958,-58.333 -26.75,-87.875c-3.958,-15.208 -6.708,-26.125 -6.708,-26.125c0,0 66.667,-5.583 106.833,-7.542c18.584,-0.875 31.584,-1 30.042,0.542c-1.542,1.542 -1.875,9.583 -1.792,21.208c0,30.209 4.375,83.334 8.834,97.584c6.166,19.791 12.5,79.166 9.666,84.916c-2.833,5.75 -1.75,44 -1.75,44c4.519,15.555 7.107,31.606 7.709,47.792c1.4,28.669 0.885,57.4 -1.542,86c-2.427,28.6 6.625,106.917 4.833,117.042c-1.791,10.125 14.084,41.666 14.084,47.958c0,6.292 4,47.958 4,47.958c0,0 9.416,63.834 9.833,68.667Z" style="fill:#ae6e79;fill-rule:nonzero;"/><path d="M858.75,1213.25l-7.583,8.333l-4.917,5.292l-28.833,30.625l-74.375,8.333l-39.5,-10.583l-9.792,-2.583c0,0 0,-19.875 1.792,-43.709c2.5,-30.541 8.541,-67.666 22.875,-77.75c7.176,-5.629 12.893,-12.904 16.666,-21.208c2.879,-5.726 5.29,-11.676 7.209,-17.792c0.291,-0.791 0.5,-1.541 0.75,-2.291c3.263,-10.669 5.605,-21.598 7,-32.667c1.394,-11.069 9.5,-5.25 22.666,-11.375c34.459,-16.083 93.959,-38.25 73.25,11.375c-3.051,7.274 -5.64,14.733 -7.75,22.333c-0.333,1.084 -0.625,2.209 -0.875,3.292c-6.916,27.667 -2.333,44.417 2.834,53.667c0.888,1.584 1.891,3.102 3,4.541c1.391,1.945 3.078,3.66 5,5.084l8.583,54.375l0.708,4.5l1.292,8.208Z" style="fill:#ae6e79;fill-rule:nonzero;"/><path d="M846,1060.12c-3.917,9.417 1.917,-7.708 0,0c-15.667,11.167 -52.625,42.917 -73.417,42.917c-14,0 -18.208,-2.542 -30.25,-7.959c3.648,-11.391 6.242,-23.093 7.75,-34.958c1.508,-11.865 124.5,-68.667 95.917,0Z" style="fill-opacity:0.1;fill-rule:nonzero;"/><path d="M877.625,1002.29c0.031,48.848 -37.291,90.299 -85.875,95.375c-3.334,0.369 -6.687,0.55 -10.042,0.541c-52.572,0 -95.833,-43.26 -95.833,-95.833c0,-52.573 43.261,-95.833 95.833,-95.833c52.573,0 95.834,43.26 95.834,95.833l0.083,-0.083Z" style="fill:#ae6e79;fill-rule:nonzero;"/><path d="M891.333,1427.54l-13.625,35.666c0,0 -11.166,0.5 -28.5,1.042c-58.333,1.875 -187.5,4.167 -193.291,-10.75c-1.322,-3.805 -1.998,-7.805 -2,-11.833c-0.792,-22.917 9.916,-58.125 9.916,-58.125c0,0 6.167,-70.417 6.167,-73.459c0,-3.041 -5.292,-52.583 -5.292,-52.583l10.542,-39.583l29.5,-20.834c0,0 13.208,20.25 21.125,22c7.917,1.75 18.5,11.459 18.5,11.459c0,0 25.917,15.833 34.292,7c8.375,-8.834 73.5,-47.5 73.5,-47.5l34.333,37.833l4.833,199.667Z" style="fill-opacity:0.1;fill-rule:nonzero;"/><path d="M891.333,1432.83l-13.625,35.667c0,0 -11.166,0.5 -28.5,1l-1.708,0l-25.292,0.667c-46.5,1.041 -110.625,1.333 -144.083,-3.542c-12.5,-1.833 -20.833,-4.167 -22.208,-7.917c-0.779,-2.112 -1.31,-4.307 -1.584,-6.541c-0.228,-1.756 -0.367,-3.522 -0.416,-5.292c-0.792,-22.917 9.916,-58.333 9.916,-58.333c0,0 6.167,-70.417 6.167,-73.5c0,-3.084 -5.292,-52.375 -5.292,-52.375l10.542,-39.584l20.292,-14.208l9.208,-6.458c3.093,4.638 6.475,9.077 10.125,13.291c2.823,3.823 6.623,6.817 11,8.667c7.917,1.792 18.5,11.458 18.5,11.458c0,0 25.917,15.875 34.292,7.042c6.416,-6.75 45.833,-30.958 64.25,-42l9.25,-5.542l4.625,5.125l29.708,32.75l4.833,199.625Z" style="fill:#fff;fill-rule:nonzero;"/><path d="M426.667,1066.71l-38.292,26.875c0,0 -0.333,-5.416 -1.292,-12.75c18.917,-7.958 30.417,-25.625 33.75,-31.291c3.375,9.583 5.834,17.166 5.834,17.166Z" style="fill-opacity:0.1;fill-rule:nonzero;"/><path d="M561.292,1157.79l-8.334,-2.167c0,0 -13.666,14.5 -21.583,16.25c-7.917,1.75 -24.625,12.792 -24.625,12.792l-19.375,15.375c0,0 -14.542,2.208 -10.125,-7.917c4.417,-10.125 -7.917,-22.875 -7.917,-22.875c0,0 -24.625,-50.625 -24.625,-61.167c0,-10.541 -20.25,-55 -20.25,-55c0,0 -25.541,49.709 -72.166,33.875c0,0 33.875,76.125 34.75,95.042c0.875,18.917 23.333,71.75 23.333,71.75c0,0 8.333,39.167 53.667,36.958c0,0 62.5,11.625 76.125,0c13.625,-11.625 25.958,-20.833 32.583,-22.083c4.883,-1.637 9.165,-4.7 12.292,-8.792l0,-52.333l-23.75,-49.708Z" style="fill:#3f3d56;fill-rule:nonzero;"/><path d="M482.958,1207.5c0,0 11,40.917 4.167,45.333l-4.167,-45.333Z" style="fill-opacity:0.1;fill-rule:nonzero;"/><path d="M849.208,1469.5c-58.333,1.875 -187.5,4.167 -193.291,-10.708c-1.322,-3.806 -1.998,-7.805 -2,-11.834l191.208,10.084l4.083,12.458Z" style="fill-opacity:0.1;fill-rule:nonzero;"/><path d="M863.625,1836.67c0,0 -3.583,10 -8.542,23.166c-24.291,-1.5 -56.458,-3.041 -87,-3.25c-10.833,0 -21.416,0 -31.375,0.334c-17.255,0.014 -34.456,1.928 -51.291,5.708c-14.828,4.571 -30.332,6.559 -45.834,5.875c-3.958,-15.208 -6.708,-26.125 -6.708,-26.125c0,0 66.667,-5.583 106.833,-7.542l3.209,-22.375l120.708,24.209Z" style="fill-opacity:0.1;fill-rule:nonzero;"/><path d="M915.083,1675.75l-7.458,15.833c0,0 -1.042,4.709 -2.375,12.209c-2.833,16.083 -7.083,45.208 -5.583,68.333c2.25,33.875 -4.834,85.333 -4.834,85.333c0,0 -161.916,-13.625 -209.416,0c-47.5,13.625 -70.834,0 -70.834,0c0,0 5.709,-51.041 -8.333,-77.416c-9.667,-18.084 -16.417,-98.334 -16.667,-151.042c0,-24.375 1.209,-42.833 4.167,-46.542c9.667,-11.916 51.042,-130.708 51.042,-130.708l9.416,0.5l25,1.333l143.292,7.542l22.458,1.167l2.375,7.291l67.75,206.167Z" style="fill:#65617d;fill-rule:nonzero;"/><path d="M986.375,1622.92l1.333,14.083c0,0 -70.833,-23.083 -67.333,-51.458c3.5,-28.375 0,-25 0,-25l57,4.833l9,57.542Z" style="fill:#4c4981;fill-rule:nonzero;"/><path d="M986.375,1622.92l1.333,14.083c0,0 -70.833,-23.083 -67.333,-51.458c3.5,-28.375 0,-25 0,-25l57,4.833l9,57.542Z" style="fill-opacity:0.1;fill-rule:nonzero;"/><path d="M530.292,1218.88c7.248,6.159 15.795,10.603 25,13c-2.712,-0.508 -5.251,-1.698 -7.375,-3.458c-5.084,-3.625 -9.917,-7.542 -14.792,-11.375c-3.917,-3.084 -8.875,-8.334 -13.75,-9.459c3.238,4.132 6.897,7.916 10.917,11.292Z" style="fill-opacity:0.1;fill-rule:nonzero;"/><path d="M531.375,1237.42c2.297,2.574 4.142,5.519 5.458,8.708c1.137,3.639 1.672,7.439 1.584,11.25c0.576,5.399 -0.094,10.859 -1.959,15.958l-11.541,-27.375c-1.959,-4.666 -4.167,-9.333 -6.334,-13.833c-1.041,-1.917 -7.583,-9.833 -6.833,-11.5c2.167,-4.792 17.5,14.167 19.625,16.792Z" style="fill-opacity:0.1;fill-rule:nonzero;"/><path d="M848.625,1389.25c7.791,-0.908 15.092,-4.281 20.833,-9.625c-11.708,1.458 -22.75,6.042 -34.291,8.333c-10.687,2.495 -21.9,1.472 -31.959,-2.916c13.125,6.583 31.167,6.791 45.417,4.208Z" style="fill-opacity:0.1;fill-rule:nonzero;"/><path d="M815.583,1308.71c-2.106,0.328 -4.258,-0.214 -5.958,-1.5c-8.778,-5 -17.444,-10.25 -26,-15.75c-9.027,-5.014 -17.541,-10.904 -25.417,-17.583c17.459,15.792 33.709,29.125 57.375,34.833Z" style="fill-opacity:0.1;fill-rule:nonzero;"/><path d="M840,1402.04c4.597,0.204 9.201,-0.16 13.708,-1.084c4.562,-0.964 8.596,-3.613 11.292,-7.416c-1.633,-0.391 -3.356,-0.122 -4.792,0.75c-13.937,5.854 -29.24,7.688 -44.166,5.291c7.125,3.042 16.333,2.417 23.958,2.459Z" style="fill-opacity:0.1;fill-rule:nonzero;"/><path d="M756.625,1606.33c-9.163,2.797 -18.586,4.654 -28.125,5.542c-7.418,0.34 -14.85,0.201 -22.25,-0.417l-36.042,-2.291l-18.041,-1.167c-2.125,0 -10.834,0 -6.542,-4.167c2.167,-2.041 14.208,-0.75 17.292,-0.833c6,0 11.958,-0.292 17.916,-0.333c11.917,0 23.875,0 35.792,0.75c13.389,0.527 26.722,1.5 40,2.916Z" style="fill-opacity:0.1;fill-rule:nonzero;"/><path d="M714.917,1624.17c-6.125,-0.25 -14,3.416 -20.292,4.166c-7.035,0.854 -14.127,1.147 -21.208,0.875c-14.037,-0.346 -27.903,-3.167 -40.959,-8.333c27.542,1.375 55,2.208 82.459,3.292Z" style="fill-opacity:0.1;fill-rule:nonzero;"/><path d="M637.833,1643.04c2.667,0.541 5.298,1.251 7.875,2.125c15.167,4.375 31.334,0.541 46.625,-3.25c-3.833,5.75 -10.958,8.333 -17.708,9.833c-11.3,2.826 -23.067,3.252 -34.542,1.25c-3.625,-0.708 -12.5,-2 -14.5,-5.75c-2.75,-5.542 8.875,-4.75 12.25,-4.208Z" style="fill-opacity:0.1;fill-rule:nonzero;"/><path d="M723.042,1671.42c4.546,0.921 9.039,2.09 13.458,3.5c17.083,4.166 34.833,-1.584 52,-5.5c20.638,-4.706 41.807,-6.668 62.958,-5.834c-3.791,0 -9.791,3.334 -13.5,4.459c-4.875,1.458 -9.791,2.791 -14.708,4.166c-9.702,2.413 -19.52,4.332 -29.417,5.75c-19.972,2.894 -40.185,3.773 -60.333,2.625c-9.208,-0.5 -25,0.459 -33.083,-4.166c6.799,-4.074 14.742,-5.829 22.625,-5Z" style="fill-opacity:0.1;fill-rule:nonzero;"/><path d="M729.417,1128.71c0,0 0.875,40.542 -5.75,59c-2.042,5.75 -5.292,16.375 -8.792,28.292c-3.875,13.208 -8.083,28 -11.333,39.458c-3.25,11.459 -5.375,19.375 -5.375,19.375c0,0 -14.875,121.084 -18.75,178.75l0,3c-0.209,3.25 -0.584,6.625 -1.084,10.125c-8.583,57.292 -58,145.625 -74.583,152.709c-5.164,2.377 -9.884,5.618 -13.958,9.583c0,-24.375 1.208,-42.833 4.166,-46.542c9.667,-11.916 51.042,-130.708 51.042,-130.708l9.417,0.5c-0.229,-1.756 -0.368,-3.522 -0.417,-5.292c-0.792,-22.916 9.917,-58.333 9.917,-58.333c0,0 6.166,-70.417 6.166,-73.5c0,-3.083 -5.291,-52.375 -5.291,-52.375l10.541,-39.583l20.292,-14.209c2.5,-30.541 8.542,-67.666 22.875,-77.75c7.177,-5.629 12.894,-12.904 16.667,-21.208c2.875,0.375 -2.334,-2.125 -2.334,-2.125l-3.416,20.833Z" style="fill-opacity:0.1;fill-rule:nonzero;"/><path d="M737.167,1106c-7.434,-2.517 -15.616,-1.584 -22.292,2.542c-10.125,7 -29.917,6.583 -35.208,5.25c-5.292,-1.334 -60.292,-8.334 -64.667,-6.584c-4.375,1.75 -13.208,-6.166 -18.917,4.375c-5.708,10.542 -8.333,16.292 -14.083,18.959c-5.75,2.666 -15.875,11 -14.542,12.75c1.334,1.75 -14.5,12.5 -14.5,12.5l32.084,104.166c0,0 -20.834,132 -30.792,143.417c-9.958,11.417 -100,159.75 -67.75,186.167c25.446,20.036 52.354,38.142 80.5,54.166c3.542,1.75 16.292,-22 33.917,-29.5c17.625,-7.5 72.166,-106.708 75.75,-162.875c3.583,-56.166 18.916,-181.75 18.916,-181.75c0,0 18.917,-68.666 25.542,-87.125c6.625,-18.458 5.542,-59.041 5.542,-59.041l10.5,-17.417Z" style="fill:#3f3d56;fill-rule:nonzero;"/><path d="M915.083,1675.75l-7.458,15.833c0,0 -1.042,4.709 -2.375,12.209c-1.4,-0.144 -2.723,-0.711 -3.792,-1.625c-11,-8.834 -75.708,-75.25 -78.75,-134.25c-2.291,-43.5 -1.208,-80.959 -0.5,-97.667c0.25,-5.25 0.417,-8.333 0.459,-9.125c0.041,-0.792 50,-60.75 44.416,-82.292c-5.583,-21.541 -18.916,-136.875 -18.916,-136.875l-1.959,-15.125l-3.333,-25.541l-7.875,-61.917l8.333,1.917c1.392,1.945 3.079,3.66 5,5.083l8.584,54.375l29.708,32.75l4.833,199.333l-13.625,35.667c0,0 -11.166,0.5 -28.5,1l-1.708,0l67.458,206.25Z" style="fill-opacity:0.1;fill-rule:nonzero;"/><path d="M942.833,1346.58c0,0 -12.5,-4.833 -13.208,0c-0.708,4.834 -3.083,15.375 -3.083,15.375c0,0 2.166,25.542 -7.042,35.667c-9.208,10.125 -10.708,52.792 -10.708,52.792c0,0 -14.792,42.25 -7.792,55.458c2.542,4.792 6.5,28.833 10.458,57.583c2.5,17.959 5,37.75 7.25,55.792c4.167,32.875 6.959,60 6.959,60c0,0 -7.917,29.167 -18.917,20.25c-11,-8.917 -75.708,-75.333 -78.792,-134.208c-2.166,-41.459 -1.291,-77.417 -0.583,-95.167c0.333,-7.542 0.583,-11.792 0.583,-11.792c0,0 50,-60.708 44.459,-82.25c-5.542,-21.541 -18.917,-136.875 -18.917,-136.875l-2.333,-17.791l-2.459,-19.167l-0.541,-4.167l-7.959,-61.416c1.417,0.291 50.792,11.458 57.292,17.958c6.5,6.5 46.625,15.833 46.625,15.833c12.363,3.37 21.956,13.219 25,25.667c0.375,1.208 0.667,2.5 0.958,3.833c5.292,25.542 3.542,28.584 7.084,33c3.541,4.417 -34.334,113.625 -34.334,113.625Z" style="fill:#3f3d56;fill-rule:nonzero;"/><path d="M918.708,1619.25c-18.083,-3.5 -44.708,-11.875 -44.125,-30.208c0.584,-17.209 21.25,-23.375 36.875,-25.584c2.709,17.959 5,37.75 7.25,55.792Z" style="fill-opacity:0.1;fill-rule:nonzero;"/><path d="M974.5,1610.17c-0.708,1.541 -3.708,2.875 -7.667,4.166c-9.592,2.297 -19.341,3.884 -29.166,4.75c-9.826,0.866 -61.167,-4.833 -60.292,-32.541c0.625,-19.917 28.25,-25 43.792,-26.375c6.083,-0.542 10.333,-0.459 10.333,-0.459c0,0 45.667,44.75 43,50.459Z" style="fill:#ae6e79;fill-rule:nonzero;"/><path d="M974.5,1610.17c-0.708,1.541 -3.708,2.875 -7.667,4.166c-15.958,-21.333 -38.208,-48.708 -49.083,-51.125c0,0 1.25,-1.208 3.292,-3.041c6.083,-0.542 10.333,-0.459 10.333,-0.459c0,0 45.792,44.75 43.125,50.459Z" style="fill-opacity:0.1;fill-rule:nonzero;"/><path d="M959.083,1230.42l18.042,2.625c6.487,11.446 13.696,22.469 21.583,33c4.841,6.006 7.618,13.416 7.917,21.125c0.299,7.708 26.417,39.166 34.75,43.583c8.333,4.417 21.125,34.333 21.125,34.333c0,0 20.833,13.625 20.833,29.167c0.352,12.832 1.675,25.618 3.959,38.25c0.416,2.208 -3.084,29.5 -11.917,43.125c-8.833,13.625 -17.583,44 -17.125,49.292c0.458,5.291 -24.667,33.333 -31.708,42.25c-5.852,8.201 -10.995,16.885 -15.375,25.958l-23.334,44c0,0 -49.291,-72.583 -67.333,-76.542c0,0 20.25,-19.375 30.375,-22.875c10.125,-3.5 19.792,-32.583 20.25,-39.166c0.458,-6.584 9.208,-28.625 18.458,-32.584c9.25,-3.958 14.084,-7.916 10.125,-14.083c-3.958,-6.167 0,-18.042 0,-18.042c0,0 -25.958,-34.333 -29.5,-54.166c-3.541,-19.834 -27.25,-33 -27.25,-33l-13.666,-33.334l29.791,-82.916Z" style="fill:#3f3d56;fill-rule:nonzero;"/><path d="M1024.54,1394.67c9.958,-8.415 22.507,-13.167 35.541,-13.459c-8.333,1.459 -17.166,3.25 -23.25,9.084c-2.409,2.558 -4.559,5.35 -6.416,8.333c-2.125,3 -19.084,24.583 -21.792,21.208c-4.042,-5.166 12.5,-22.25 15.917,-25.166Z" style="fill-opacity:0.1;fill-rule:nonzero;"/><path d="M984.708,1373.83c5.458,-0.479 10.248,-3.88 12.5,-8.875c2.142,-4.962 3.465,-10.239 3.917,-15.625c1.293,-9.002 3.116,-17.92 5.458,-26.708c0.601,-1.799 0.897,-3.686 0.875,-5.583c-0.216,-1.875 -0.766,-3.695 -1.625,-5.375c-0.964,-2.806 -2.25,-5.491 -3.833,-8c-3.292,3.708 -4.167,12 -5.542,16.666c-1.611,6 -3.152,12 -4.625,18c-0.708,3.167 -6.833,35.5 -7.125,35.5Z" style="fill-opacity:0.1;fill-rule:nonzero;"/><path d="M969.125,1196.21c-1.789,2.303 -3.83,4.399 -6.083,6.25c-7.042,5.709 -16.667,10.542 -17.667,19.542c0.254,2.943 -0.101,5.908 -1.042,8.708c-2.291,3.917 -7.958,3.625 -12.5,2.834c-3.789,-0.358 -7.422,-1.694 -10.541,-3.875c-4.709,-4.167 -5.167,-11.25 -8.75,-16.292c-4.39,-5.271 -10.978,-8.227 -17.834,-8c-6.75,-0.208 -13.458,1.292 -20.166,1.625c-4.325,0.21 -8.66,-0.084 -12.917,-0.875c-1.417,-0.25 -2.792,-0.542 -4.167,-0.875c-3.01,-0.749 -5.951,-1.752 -8.791,-3c-1.423,-0.594 -2.814,-1.261 -4.167,-2c-4.535,-2.301 -8.74,-5.202 -12.5,-8.625c-6.583,-6.083 -12.042,-14.375 -11.5,-23.375c0.944,-5.401 2.196,-10.743 3.75,-16c2.708,-15.542 -7.625,-30.25 -18.833,-41.375c-4.459,-4.375 -9.209,-8.708 -13.667,-13.208c-6.955,-6.395 -12.455,-14.211 -16.125,-22.917c-2.94,-9.252 -3.92,-19.015 -2.875,-28.667c1.039,-9.811 1.331,-19.686 0.875,-29.541c-3.333,-35 -33.333,-61.792 -63.083,-76.417l-1.292,-0.667c18.175,-20.397 44.231,-32.079 71.55,-32.079c52.573,0 95.834,43.261 95.834,95.833c0,30.091 -14.172,58.489 -38.217,76.58c-0.334,1.083 -0.625,2.208 -0.875,3.291c-6.917,27.667 -2.334,44.417 2.833,53.667c1.417,0.292 50.792,11.458 57.292,17.958c6.5,6.5 46.625,15.834 46.625,15.834c12.299,3.422 21.818,13.261 24.833,25.666Z" style="fill-opacity:0.1;fill-rule:nonzero;"/><path d="M702.625,913.958c1.958,-2.25 4.958,-3.416 6.958,-5.625c6.209,-6.75 0,-17.791 2.292,-26.708c2.458,-9.917 14.583,-14.25 24.75,-13.167c10.167,1.084 19.667,5.709 29.792,6.834c15.75,1.791 31,-5.042 46.375,-9.042c15.375,-4 33.916,-4.167 44.541,7.542c10.625,11.708 9.834,31.833 23,40.375c6.084,3.916 13.75,4.166 20.334,7.291c7.197,3.719 13.173,9.434 17.208,16.459c10.401,16.388 14.969,35.819 12.958,55.125c-1.083,10.416 -4.166,20.583 -5.333,31c-1.255,10.845 -0.535,21.828 2.125,32.416c2.792,10.959 8.792,22.459 19.583,25.917c2.526,0.524 4.976,1.364 7.292,2.5c6.208,3.833 5.417,13 3.833,20.125l-6.666,29.375c6.166,4.708 15.708,2.667 21.708,7.625c2.365,2.135 4.108,4.871 5.042,7.917c5.862,16.868 0.712,35.709 -12.917,47.25c-7.042,5.75 -16.667,10.541 -17.667,19.583c0.269,2.93 -0.086,5.884 -1.041,8.667c-2.292,3.916 -7.959,3.625 -12.5,2.833c-3.78,-0.346 -7.402,-1.683 -10.5,-3.875c-4.75,-4.167 -5.167,-11.25 -8.75,-16.292c-4.39,-5.271 -10.978,-8.226 -17.834,-8c-6.791,-0.208 -13.458,1.292 -20.208,1.625c-15.647,0.68 -30.945,-4.849 -42.542,-15.375c-7.098,-5.689 -11.327,-14.238 -11.541,-23.333c0.963,-5.41 2.215,-10.765 3.75,-16.042c2.708,-15.5 -7.625,-30.25 -18.792,-41.333c-11.167,-11.083 -24.333,-21.375 -29.792,-36.167c-6.833,-18.333 0,-38.75 -2.041,-58.333c-3.334,-35 -33.334,-61.792 -63.042,-76.375c-6.792,-3.292 -18.125,-12 -10.375,-20.792Z" style="fill:#444053;fill-rule:nonzero;"/><path d="M937.917,1216.12c-4.709,-4.167 -5.125,-11.208 -8.709,-16.292c-4.422,-5.247 -11.017,-8.183 -17.875,-7.958c-6.75,-0.208 -13.416,1.292 -20.166,1.625c-15.615,0.714 -30.901,-4.736 -42.542,-15.167c-6.625,-6.083 -12.042,-14.416 -11.542,-23.375c0.964,-5.396 2.215,-10.737 3.75,-16c2.709,-15.541 -7.625,-30.25 -18.833,-41.375c-11.208,-11.125 -24.292,-21.375 -29.792,-36.166c-6.791,-18.292 0,-38.75 -2,-58.334c-3.333,-35 -33.333,-61.833 -63.083,-76.416c-6.958,-3.417 -18.292,-12.084 -10.542,-20.834c1.959,-2.25 4.917,-3.375 6.959,-5.583c6.208,-6.75 0,-17.833 2.291,-26.75c0.432,-1.754 1.196,-3.409 2.25,-4.875c-7.433,0.709 -13.791,5.727 -16.208,12.792c-2.208,8.916 3.917,20 -2.292,26.75c-2,2.208 -5,3.333 -6.958,5.583c-7.75,8.833 3.583,17.5 10.583,20.833c29.875,14.625 59.709,41.417 63.042,76.417c1.833,19.417 -4.792,39.875 2.042,58.333c5.458,14.792 18.583,25 29.791,36.167c11.209,11.167 21.5,25.833 18.792,41.375c-1.53,5.264 -2.782,10.604 -3.75,16c-0.5,8.958 4.917,17.292 11.542,23.375c11.596,10.526 26.895,16.055 42.541,15.375c6.75,-0.333 13.417,-1.833 20.209,-1.625c6.846,-0.224 13.428,2.713 17.833,7.958c3.583,5.084 4.167,12.292 8.75,16.292c3.098,2.192 6.72,3.529 10.5,3.875c4.5,0.833 10.167,1.125 12.5,-2.833c0.796,-1.6 1.142,-3.386 1,-5.167c-3.662,-0.391 -7.149,-1.775 -10.083,-4Z" style="fill-opacity:0.1;fill-rule:nonzero;"/><defs><linearGradient id="_Linear1" x1="0" y1="0" x2="1" y2="0" gradientUnits="userSpaceOnUse" gradientTransform="matrix(5.41906e-14,-885,885,5.41906e-14,1793.08,2527.67)"><stop offset="0" style="stop-color:#808080;stop-opacity:0.25"/><stop offset="0.54" style="stop-color:#808080;stop-opacity:0.12"/><stop offset="1" style="stop-color:#808080;stop-opacity:0.1"/></linearGradient><linearGradient id="_Linear2" x1="0" y1="0" x2="1" y2="0" gradientUnits="userSpaceOnUse" gradientTransform="matrix(-70.7167,-1840.81,1840.81,-70.7167,3422.04,2530.84)"><stop offset="0" style="stop-color:#808080;stop-opacity:0.25"/><stop offset="0.54" style="stop-color:#808080;stop-opacity:0.12"/><stop offset="1" style="stop-color:#808080;stop-opacity:0.1"/></linearGradient><linearGradient id="_Linear3" x1="0" y1="0" x2="1" y2="0" gradientUnits="userSpaceOnUse" gradientTransform="matrix(1.03286e-13,-1686.79,1686.79,1.03286e-13,669.875,2547.33)"><stop offset="0" style="stop-color:#808080;stop-opacity:0.25"/><stop offset="0.54" style="stop-color:#808080;stop-opacity:0.12"/><stop offset="1" style="stop-color:#808080;stop-opacity:0.1"/></linearGradient></defs></svg>