<?xml version="1.0" encoding="UTF-8" standalone="no"?><!DOCTYPE svg PUBLIC "-//W3C//DTD SVG 1.1//EN" "http://www.w3.org/Graphics/SVG/1.1/DTD/svg11.dtd"><svg width="100%" height="100%" viewBox="0 0 8892 8892" version="1.1" xmlns="http://www.w3.org/2000/svg" xmlns:xlink="http://www.w3.org/1999/xlink" xml:space="preserve" xmlns:serif="http://www.serif.com/" style="fill-rule:evenodd;clip-rule:evenodd;stroke-linejoin:round;stroke-miterlimit:1.41421;"><g><path d="M2727.72,2702.67l-94.043,0l-175.736,878.908l445.518,0l-175.739,-878.908Z" style="fill:#3855be;fill-rule:nonzero;"/><path d="M6282.38,4460.47c94.88,254.869 221.077,461.177 360.735,636.726c139.659,-175.549 280.502,-381.871 375.382,-636.726l-736.117,0Z" style="fill:#3855be;fill-rule:nonzero;"/><path d="M7536.65,2028.84l-2728.76,0l568.976,4565.61c10.062,186.74 -40.988,362.55 -162.861,500.186l-963.546,1101.2l3286.19,0c363.488,0 659.181,-295.692 659.181,-659.18l0,-4833.99c0,-363.484 -295.693,-673.826 -659.181,-673.826l0,0.007Zm0,2431.64l-58.679,0c-125.027,401.119 -323.294,714.991 -529.338,962.435c161.413,147.568 334.013,268.622 505.621,404.209c94.631,75.744 110.082,213.926 34.116,308.774c-75.614,94.701 -214.337,110.054 -308.774,34.116c-186.462,-147.171 -361.481,-270.366 -536.499,-430.97c-175.022,160.604 -335.391,283.799 -521.853,430.97c-94.437,75.938 -233.16,60.585 -308.774,-34.116c-75.966,-94.848 -60.511,-233.03 34.115,-308.774c171.609,-135.587 329.563,-256.641 490.972,-404.209c-206.044,-247.43 -389.676,-561.302 -514.688,-962.435l-58.679,0c-121.451,0 -219.727,-98.276 -219.727,-219.727c0,-121.447 98.276,-219.727 219.727,-219.727l659.18,0l0,-219.727c0,-121.451 98.276,-219.726 219.727,-219.726c121.451,0 219.727,98.275 219.727,219.726l0,219.727l673.826,0c121.451,0 219.727,98.28 219.727,219.727c0,121.451 -98.276,219.727 -219.727,219.727Z" style="fill:#3855be;fill-rule:nonzero;"/><path d="M4272.46,1273.26c-40.985,-329.165 -322.295,-577.428 -654.023,-577.428l-2263.42,0c-363.487,0 -659.18,295.693 -659.18,659.181l0,4863.28c0,363.487 295.693,659.18 659.18,659.18l3465.11,0c64.104,-73.269 117.834,-119.148 120.105,-214.787c0.555,-23.98 -664.792,-5365.66 -667.766,-5389.42l0,0.003Zm-882.131,3622.4c-116.511,23.98 -234.535,-51.662 -258.557,-172.308l-140.435,-702.307l-621.257,0l-140.436,702.307c-23.597,118.874 -138.192,196.977 -258.557,172.308c-118.874,-23.815 -196.13,-139.465 -172.311,-258.557l439.439,-2197.27c20.595,-102.569 110.729,-176.604 215.435,-176.604l454.103,0c104.706,0 194.839,74.035 215.434,176.604l439.454,2197.27c23.818,119.092 -53.424,234.742 -172.312,258.557Z" style="fill:#3855be;fill-rule:nonzero;"/><path d="M3263.14,7316.92l37.705,301.482c25.137,201.899 159.286,407.782 379.952,510.586c416.426,-458.41 164.489,-181.087 737.681,-812.068l-1155.34,0Z" style="fill:#3855be;fill-rule:nonzero;"/></g></svg>