<?xml version="1.0" encoding="UTF-8" standalone="no"?><!DOCTYPE svg PUBLIC "-//W3C//DTD SVG 1.1//EN" "http://www.w3.org/Graphics/SVG/1.1/DTD/svg11.dtd"><svg width="100%" height="100%" viewBox="0 0 3328 2872" version="1.1" xmlns="http://www.w3.org/2000/svg" xmlns:xlink="http://www.w3.org/1999/xlink" xml:space="preserve" xmlns:serif="http://www.serif.com/" style="fill-rule:evenodd;clip-rule:evenodd;stroke-miterlimit:10;"><circle cx="1816.34" cy="493.355" r="306.4" style="fill:#a0616a;"/><path d="M1587.65,646.555c0,0 57.727,435.177 -31.084,484.023c-88.812,48.846 528.429,53.287 528.429,53.287c0,0 -137.658,-377.449 -75.49,-492.905l-421.855,-44.405Z" style="fill:#a0616a;fill-rule:nonzero;"/><path d="M2535.71,1186.07l-51.333,233.75l-108.542,494.541l-3.25,27.084l-37.458,313.541l-24.917,208.292l-16.708,139.917c-101.583,52.208 -175.208,88.25 -175.208,88.25c0,0 -6.334,-31.75 -16.542,-72.375c-71.292,21.375 -203.208,56.833 -315,63.916c40.708,45.375 59.417,88 34.042,119.459c-76.584,94.833 -392.75,-103.834 -503.334,-177.917c-2.574,17.738 -3.55,35.671 -2.916,53.583l-84.625,-65.083l8.375,-149.75l14.125,-253.375l17.75,-317.75c-5.597,-13.606 -10.288,-27.567 -14.042,-41.792c-25.917,-92.166 -57.375,-276.208 -81.5,-430.541c-19.417,-124.209 -34,-229.167 -37.083,-251.5c-0.417,-2.917 -0.625,-4.417 -0.625,-4.417l468.458,-207c33.292,77.208 188.75,100.417 188.75,100.417c128.792,-8.875 229.75,-76.792 229.75,-76.792l511.833,205.542Z" style="fill:#d0cde1;fill-rule:nonzero;"/><path d="M2153.83,2602.65c0,0 -19.833,6.792 -52.083,16.417c-71.292,21.375 -203.208,56.833 -315,63.917c-96.25,6.166 -177.583,-8.667 -192.458,-71.459c-6.375,-27 2.666,-49.208 22.375,-67.458c58.833,-54.542 212.5,-74.083 334.375,-80.792c34.416,-1.875 66.25,-2.75 92.75,-3.083c45,-0.583 74.5,0.333 74.5,0.333l0.708,2.75l34.833,139.375Z" style="fill:#a0616a;fill-rule:nonzero;"/><path d="M1561.44,203.528l-57.289,-22.935c0,0 119.786,-131.878 286.447,-120.41l-46.874,-51.605c0,0 114.579,-45.871 218.741,74.54c54.756,63.296 118.11,137.699 157.604,221.512l61.353,0l-25.607,56.382l89.623,56.383l-91.989,-10.127c5.482,30.875 6.323,62.396 2.496,93.52c-3.944,31.123 -19.842,59.524 -44.31,79.158c-24.467,19.635 -71.049,-147.065 -71.049,-170l0,57.338c0,0 -57.289,-51.604 -57.289,-86.007l-31.249,40.137l-15.624,-63.073l-192.7,63.073l31.248,-51.604l-119.786,17.201l46.874,-63.073c0,0 -135.411,74.54 -140.62,137.613c-5.207,63.072 -44.843,122.836 -44.843,122.836c0,0 -106.192,-294.852 44.843,-380.859Z" style="fill:#2f2e41;fill-rule:nonzero;"/><path d="M2868.75,2260.69c-31.208,33.833 -108.542,84.792 -202.292,139.958c-34.875,20.5 -72,41.625 -109.875,62.625c-90.375,50.125 -185,99.792 -263.083,139.917c-101.583,52.208 -175.208,88.25 -175.208,88.25c0,0 -6.334,-31.75 -16.542,-72.375c-13.667,-54.375 -34.25,-124.667 -55.708,-155.792c-0.75,-1.083 -1.5,-2.083 -2.25,-3.083c-6.25,-8.208 -12.542,-13 -18.75,-13l310.083,-192.208l134,-83.084l-96.542,-230.458l-121.083,-289.083l73.083,-232.542l73.459,-233.75l137.666,0c0,0 45.584,99.5 103.875,238.25c8.709,20.75 17.709,42.375 26.875,64.708c119.917,291.667 269.417,698.958 202.292,771.667Z" style="fill:#d0cde1;fill-rule:nonzero;"/><path d="M1820.79,2802.44c-76.584,94.833 -392.75,-103.833 -503.334,-177.917c-24.083,-16.125 -38.416,-26.333 -38.416,-26.333l101.166,-134.917l32.042,-42.708c0,0 28.667,15.208 71.042,39.958c1.541,0.917 3.083,1.834 4.666,2.75c36.542,21.459 82.417,49.5 128.709,80.792c63.875,43.208 128.458,92.5 170.083,138.917c40.708,45.374 59.417,87.999 34.042,119.458Z" style="fill:#a0616a;fill-rule:nonzero;"/><path d="M1483.29,2460.53c-11.308,-0.043 -22.599,0.877 -33.75,2.75c-95.792,16.459 -124.042,103.167 -132.084,161.25c-2.574,17.738 -3.55,35.671 -2.916,53.584l-84.625,-65.084l-30.834,-23.708c-74.208,-25.875 -140.333,-71.833 -197.666,-126.042c-49.738,-47.858 -94.354,-100.769 -133.125,-157.875c-38.618,-56.284 -73.044,-115.332 -103,-176.666c-16.912,-34.63 -17.569,-75.048 -1.792,-110.209l104.792,-233.541l153.166,-341.334c1.125,-8.125 2.361,-16.069 3.708,-23.833c30.375,-174.167 111.75,-251.5 111.75,-251.5l62.167,0l41.583,251.5l51.667,312.458l-36.208,118.084l-83.667,272.708l79.958,86.833l230.876,250.625Z" style="fill:#d0cde1;fill-rule:nonzero;"/><path d="M1553.65,1732.52l53.146,62.004c19.745,-3.765 40.364,-8.189 61.601,-13.157l-15.264,-48.847l37.323,43.544c224.989,-55.337 503.861,-162.922 503.861,-162.922c0,0 -301.071,22.075 -525.867,-27.036c-99.462,-21.73 -201.795,27.575 -242.61,120.843c-23.723,54.211 -19.997,101.178 64.142,101.178c28.43,-0.485 56.781,-3.152 84.803,-7.976l-21.135,-67.631Z" style="fill:#3a69da;fill-rule:nonzero;"/><path d="M2765.21,2751.61l0,25.291c0.015,6.941 -1.271,13.824 -3.791,20.292c-1.119,2.883 -2.471,5.67 -4.042,8.333c-10.09,16.937 -28.41,27.342 -48.125,27.334l-1860.62,0c-19.715,0.008 -38.035,-10.397 -48.125,-27.334c-1.571,-2.663 -2.923,-5.45 -4.042,-8.333c-2.519,-6.468 -3.805,-13.351 -3.791,-20.292l0,-25.291c0,-0.005 0,-0.01 0,-0.015c0,-30.69 25.254,-55.944 55.943,-55.944c0.005,0 0.01,0 0.015,0l107.25,0l0,-11.791c0,-0.002 0,-0.003 0,-0.004c0,-1.278 1.052,-2.33 2.33,-2.33c0.001,0 0.002,0 0.003,0l55.959,0c0.001,0 0.002,0 0.004,0c1.278,0 2.329,1.052 2.329,2.33c0,0.001 0,0.002 0,0.004l0,11.791l34.958,0l0,-11.791c0,-0.002 0,-0.003 0,-0.004c0,-1.278 1.052,-2.33 2.33,-2.33c0.001,0 0.002,0 0.004,0l55.958,0c0.001,0 0.002,0 0.004,0c1.278,0 2.329,1.052 2.329,2.33c0,0.001 0,0.002 0,0.004l0,11.791l35,0l0,-11.791c0,-0.002 0,-0.003 0,-0.004c0,-1.278 1.052,-2.33 2.33,-2.33c0.001,0 0.002,0 0.004,0l55.958,0c0.001,0 0.002,0 0.004,0c1.278,0 2.329,1.052 2.329,2.33c0,0.001 0,0.002 0,0.004l0,11.791l34.959,0l0,-11.791c0,-0.002 0,-0.003 0,-0.004c0,-1.278 1.051,-2.33 2.329,-2.33c0.001,0 0.003,0 0.004,0l55.958,0c0.002,0 0.003,0 0.004,0c1.278,0 2.33,1.052 2.33,2.33c0,0.001 0,0.002 0,0.004l0,11.791l34.958,0l0,-11.791c0,-0.002 0,-0.003 0,-0.004c0,-1.278 1.051,-2.33 2.329,-2.33c0.002,0 0.003,0 0.004,0l55.959,0c0.001,0 0.002,0 0.003,0c1.278,0 2.33,1.052 2.33,2.33c0,0.001 0,0.002 0,0.004l0,11.791l35,0l0,-11.791c0,-0.002 0,-0.003 0,-0.004c0,-1.278 1.051,-2.33 2.329,-2.33c0.002,0 0.003,0 0.004,0l55.959,0c0.001,0 0.002,0 0.003,0c1.278,0 2.33,1.052 2.33,2.33c0,0.001 0,0.002 0,0.004l0,11.791l34.958,0l0,-11.791c0,-0.002 0,-0.003 0,-0.004c0,-1.278 1.052,-2.33 2.33,-2.33c0.001,0 0.002,0 0.004,0l438.333,0c0.001,0 0.002,0 0.004,0c1.278,0 2.329,1.052 2.329,2.33c0,0.001 0,0.002 0,0.004l0,11.791l35,0l0,-11.791c0,-0.002 0,-0.003 0,-0.004c0,-1.278 1.052,-2.33 2.33,-2.33c0.001,0 0.002,0 0.004,0l55.958,0c1.275,0.013 2.321,1.058 2.333,2.334l0,11.791l34.959,0l0,-11.791c0,-0.002 0,-0.003 0,-0.004c0,-1.278 1.051,-2.33 2.329,-2.33c0.002,0 0.003,0 0.004,0l55.958,0c0.002,0 0.003,0 0.004,0c1.278,0 2.33,1.052 2.33,2.33c0,0.001 0,0.002 0,0.004l0,11.791l34.958,0l0,-11.791c0,-0.002 0,-0.003 0,-0.004c0,-1.278 1.052,-2.33 2.33,-2.33c0.001,0 0.002,0 0.004,0l55.958,0c0.001,0 0.003,0 0.004,0c1.278,0 2.329,1.052 2.329,2.33c0,0.001 0,0.002 0,0.004l0,11.791l35,0l0,-11.791c0,-0.002 0,-0.003 0,-0.004c0,-1.278 1.052,-2.33 2.33,-2.33c0.001,0 0.002,0 0.004,0l55.958,0c1.267,0.016 2.299,1.067 2.292,2.334l0,11.791l35,0l0,-11.791c0,-0.002 0,-0.003 0,-0.004c0,-1.278 1.051,-2.33 2.329,-2.33c0.001,0 0.003,0 0.004,0l55.958,0c0.002,0 0.003,0 0.004,0c1.278,0 2.33,1.052 2.33,2.33c0,0.001 0,0.002 0,0.004l0,11.791l34.958,0l0,-11.791c0,-0.002 0,-0.003 0,-0.004c0,-1.278 1.052,-2.33 2.329,-2.33c0.002,0 0.003,0 0.004,0l55.959,0c0.001,0 0.002,0 0.004,0c1.277,0 2.329,1.052 2.329,2.33c0,0.001 0,0.002 0,0.004l0,11.791l163.208,0c0.005,0 0.01,0 0.015,0c30.69,0 55.943,25.254 55.943,55.944c0,0.005 0,0.01 0,0.015Z" style="fill:#3f3d56;fill-rule:nonzero;"/><rect x="252.084" y="2797.19" width="3054.16" height="8.333" style="fill:#3f3d56;"/><path d="M2615.39,1686.49l-693.512,0l0,-14.294l-314.466,0l0,14.294l-696.37,0c-25.735,0 -46.911,21.176 -46.911,46.911l0,949.631c0,25.734 21.176,46.911 46.911,46.911l1704.35,0c25.734,0 46.911,-21.177 46.911,-46.911l0,-949.631c0,0 0,0 0,0c0,-25.735 -21.177,-46.911 -46.911,-46.911c0,0 0,0 0,0Z" style="fill:#3f3d56;fill-rule:nonzero;"/><circle cx="1764.58" cy="2018.03" r="104.167" style="fill:none;stroke:#d0cde1;stroke-width:8.33px;"/><circle cx="1731.25" cy="2055.53" r="104.167" style="fill:#d0cde1;"/><rect x="335.192" y="2755.09" width="116.667" height="116.667" style="fill:#d0cde1;"/><path d="M381.042,2663.43l0,141.667l141.666,0l0,-141.667l-141.666,0Zm135.5,135.5l-129.375,0l0,-129.333l129.375,0l0,129.333Z" style="fill:#3f3d56;fill-rule:nonzero;"/><rect x="3035.19" y="2755.09" width="116.667" height="116.667" style="fill:#d0cde1;"/><path d="M3081.04,2663.43l0,141.667l141.666,0l0,-141.667l-141.666,0Zm135.5,135.5l-129.375,0l0,-129.333l129.375,0l0,129.333Z" style="fill:#3f3d56;fill-rule:nonzero;"/><circle cx="394.084" cy="628.22" r="330.585" style="fill:#d0cde1;"/><path d="M509.288,235.375c-29.933,-3.807 -60.227,-3.807 -90.16,0c-135.934,17.848 -249.537,113.658 -290.063,244.633c-9.042,29.281 -14.162,59.632 -15.227,90.26c-0.15,4.257 -0.251,8.565 -0.251,12.872c0.193,192.273 158.349,350.429 350.621,350.621c7.463,0 14.926,-0.25 22.29,-0.701c17.283,-1.085 34.462,-3.462 51.391,-7.113c160.972,-34.616 276.939,-178.173 276.939,-342.825c0,-175.399 -131.599,-325.178 -305.54,-347.747l0,0Zm64.664,670.236l-0.05,0c-28.237,9.636 -57.629,15.481 -87.405,17.381c-7.363,0.501 -14.826,0.751 -22.289,0.751c-186.763,-0.228 -340.375,-153.84 -340.603,-340.603c0,-4.307 0.1,-8.615 0.25,-12.872c7.112,-181.764 158.45,-327.489 340.353,-327.73c186.852,0.01 340.602,153.769 340.602,340.621c0,145.452 -93.165,275.581 -230.858,322.452l0,0Z" style="fill:#3f3d56;fill-rule:nonzero;"/><rect x="459.199" y="262.573" width="10.018" height="70.124" style="fill:#3f3d56;"/><path d="M241.074,352.923l-7.083,7.084l49.585,49.585l7.083,-7.083l-49.585,-49.586Z" style="fill:#3f3d56;"/><path d="M143.64,578.132l0,10.017l70.125,0l0,-10.017l-70.125,0Z" style="fill:#3f3d56;"/><path d="M233.991,806.274l7.083,7.084l49.585,-49.586l-7.083,-7.083l-49.585,49.585Z" style="fill:#3f3d56;"/><path d="M637.756,402.509l7.084,7.083l49.585,-49.585l-7.084,-7.084l-49.585,49.586Z" style="fill:#3f3d56;"/><path d="M714.651,578.132l0,10.017l70.124,0l0,-10.017l-70.124,0Z" style="fill:#3f3d56;"/><path d="M644.84,756.689l-7.084,7.083l49.585,49.586l7.084,-7.084l-49.585,-49.585Z" style="fill:#3f3d56;"/><rect x="459.199" y="833.584" width="10.018" height="70.124" style="fill:#3f3d56;"/><path d="M479.234,563.105c-8.878,-6.659 -21.174,-6.659 -30.053,0c-2.967,2.254 -5.411,5.125 -7.162,8.415c-1.879,3.586 -2.86,7.574 -2.86,11.622c0,13.74 11.307,25.046 25.047,25.046c13.74,0 25.046,-11.306 25.046,-25.046c0,-7.878 -3.716,-15.31 -10.017,-20.037l-0.001,0Zm-15.026,35.062c-8.234,-0.024 -15.003,-6.792 -15.027,-15.027c0.02,-3.038 0.944,-6.003 2.655,-8.515c2.8,-4.055 7.425,-6.482 12.353,-6.482c8.236,0 15.012,6.777 15.012,15.012c0,8.228 -6.765,15.002 -14.993,15.012l0,0Z" style="fill:#3f3d56;fill-rule:nonzero;"/><rect x="419.128" y="147.369" width="90.16" height="90.16" style="fill:#3f3d56;"/><ellipse cx="464.208" cy="119.82" rx="120.213" ry="42.575" style="fill:#3f3d56;"/><rect x="449.181" y="392.804" width="30.053" height="170.301" style="fill:#3f3d56;"/><rect x="0" y="918.5" width="941.667" height="10.018" style="fill:#3f3d56;"/><path d="M627.474,2498.97c3.887,133.125 -73.897,181.912 -171.514,184.763c-2.267,0.066 -4.524,0.107 -6.772,0.122c-4.527,0.034 -9.009,-0.041 -13.448,-0.226c-88.285,-3.665 -158.168,-50.529 -161.783,-174.335c-3.742,-128.123 155.287,-294.595 167.218,-306.909l0.022,-0.012c0.453,-0.469 0.685,-0.704 0.685,-0.704c0,0 181.704,164.187 185.592,297.301Z" style="fill:#d0cde1;fill-rule:nonzero;"/><path d="M448.932,2663.56l62.01,-92.215l-61.883,102.135l0.129,10.377c-4.527,0.034 -9.01,-0.041 -13.449,-0.226l3.076,-133.383l-0.084,-1.029l0.113,-0.199l0.295,-12.604l-67.908,-98.594l67.827,89.161l0.241,2.664l2.323,-100.776l-58.654,-102.219l58.821,84.516l-0.614,-208.781l0.001,-0.695l0.02,0.683l3.894,164.548l53.456,-66.839l-53.281,81.014l1.167,90.142l49.19,-87.975l-49.01,101.227l0.65,50.124l71.537,-122.548l-71.32,140.034l1.453,111.458Z" style="fill:#3f3d56;fill-rule:nonzero;"/><path d="M3327.47,2498.97c3.887,133.125 -73.897,181.912 -171.514,184.763c-2.267,0.066 -4.524,0.107 -6.772,0.122c-4.526,0.034 -9.009,-0.041 -13.448,-0.226c-88.285,-3.665 -158.168,-50.529 -161.783,-174.335c-3.742,-128.123 155.287,-294.595 167.218,-306.909l0.022,-0.012c0.453,-0.469 0.685,-0.704 0.685,-0.704c0,0 181.704,164.187 185.592,297.301Z" style="fill:#d0cde1;fill-rule:nonzero;"/><path d="M3148.93,2663.56l62.01,-92.215l-61.883,102.135l0.129,10.377c-4.527,0.034 -9.01,-0.041 -13.449,-0.226l3.076,-133.383l-0.084,-1.029l0.113,-0.199l0.295,-12.604l-67.908,-98.594l67.827,89.161l0.241,2.664l2.323,-100.776l-58.654,-102.219l58.821,84.516l-0.614,-208.781l0.001,-0.695l0.02,0.683l3.894,164.548l53.456,-66.839l-53.281,81.014l1.167,90.142l49.19,-87.975l-49.01,101.227l0.65,50.124l71.537,-122.548l-71.32,140.034l1.453,111.458Z" style="fill:#3f3d56;fill-rule:nonzero;"/></svg>