<?xml version="1.0" encoding="UTF-8" standalone="no"?><!DOCTYPE svg PUBLIC "-//W3C//DTD SVG 1.1//EN" "http://www.w3.org/Graphics/SVG/1.1/DTD/svg11.dtd"><svg width="100%" height="100%" viewBox="0 0 3880 3161" version="1.1" xmlns="http://www.w3.org/2000/svg" xmlns:xlink="http://www.w3.org/1999/xlink" xml:space="preserve" xmlns:serif="http://www.serif.com/" style="fill-rule:evenodd;clip-rule:evenodd;stroke-miterlimit:10;"><g><g><g opacity="0.3"><path d="M2851.32,480.723c5.973,3.235 11.911,6.527 17.815,9.875" style="fill:none;fill-rule:nonzero;stroke:#fff;stroke-width:13.57px;"/><path d="M2903.82,510.788c358.745,218.294 598.349,612.906 598.349,1063.47c0.076,104.657 -13.035,208.908 -39.023,310.288" style="fill:none;fill-rule:nonzero;stroke:#fff;stroke-width:13.57px;stroke-dasharray:40.21,40.21;"/><path d="M3458.06,1904c-1.787,6.537 -3.631,13.064 -5.531,19.579" style="fill:none;fill-rule:nonzero;stroke:#fff;stroke-width:13.57px;"/></g><path d="M1014.85,1574.26c0,-540.492 344.798,-1000.46 826.416,-1172.06" style="fill:none;fill-rule:nonzero;stroke:#2196f3;stroke-opacity:0.21;stroke-width:13.57px;stroke-dasharray:40.72,40.72;"/><path d="M2851.32,2667.84c-181.937,98.803 -385.783,150.413 -592.817,150.088c-405.607,0 -765.879,-194.168 -992.894,-494.648" style="fill:none;fill-rule:nonzero;stroke:#2196f3;stroke-opacity:0.5;stroke-width:13.57px;stroke-dasharray:40.72,40.72;"/><g opacity="0.21"><path d="M3063.41,1808.81c-1.9,6.515 -3.879,13.008 -5.938,19.478" style="fill:none;fill-rule:nonzero;stroke:#fff;stroke-width:13.57px;"/><path d="M3044.27,1866.63c-118.767,318.737 -425.695,545.786 -785.763,545.786c-462.887,0 -838.157,-375.27 -838.157,-838.157c0,-462.886 375.27,-838.157 838.157,-838.157c183.665,-0.267 362.38,60.108 508.255,171.704" style="fill:none;fill-rule:nonzero;stroke:#fff;stroke-width:13.57px;stroke-dasharray:40.55,40.55;"/><path d="M2782.78,920.229c5.293,4.253 10.53,8.563 15.711,12.929" style="fill:none;fill-rule:nonzero;stroke:#fff;stroke-width:13.57px;"/></g><g opacity="0.5"><path d="M2187.31,1104.62c6.787,-0.996 13.574,-1.855 20.36,-2.579" style="fill:none;fill-rule:nonzero;stroke:#fff;stroke-width:13.57px;"/><path d="M2246.63,1099.36l11.878,0c260.615,0 475.069,214.454 475.069,475.069c0,81.019 -20.726,160.707 -60.2,231.46" style="fill:none;fill-rule:nonzero;stroke:#fff;stroke-width:13.57px;stroke-dasharray:39.23,39.23;"/><path d="M2663.47,1822.79c-3.552,5.791 -7.228,11.447 -11.029,16.967" style="fill:none;fill-rule:nonzero;stroke:#fff;stroke-width:13.57px;"/></g><path d="M3432.03,2200l-341.982,-180.56l178.388,-292.133c2.901,-4.742 9.067,-6.433 13.981,-3.834l285.516,150.766c4.846,2.587 6.914,8.538 4.717,13.573l-140.62,312.188Z" style="fill:url(#_Linear1);fill-rule:nonzero;"/><path d="M3426.36,2184.28l-320.129,-169.023l166.682,-272.96c2.9,-4.742 9.066,-6.433 13.98,-3.835l266.174,140.553c4.846,2.587 6.914,8.538 4.717,13.573l-131.424,291.692Z" style="fill:#f2f2f2;fill-rule:nonzero;"/><path d="M3206.23,2627.59l-342.015,-180.526l-140.62,312.188c-2.197,5.035 -0.129,10.986 4.716,13.573l285.585,150.631c4.913,2.598 11.079,0.907 13.98,-3.835l178.354,-292.031Z" style="fill:url(#_Linear2);fill-rule:nonzero;"/><path d="M3189.98,2631.63l-320.128,-169.023l-131.187,291.692c-2.197,5.035 -0.129,10.986 4.717,13.574l266.174,140.518c4.914,2.599 11.08,0.908 13.981,-3.834l166.443,-272.927Z" style="fill:#f2f2f2;fill-rule:nonzero;"/><path d="M3044.26,1959.2c-4.738,-2.501 -10.616,-0.685 -13.118,4.053l-246.369,466.688c-2.501,4.738 -0.685,10.616 4.053,13.118l466.688,246.369c4.739,2.501 10.617,0.685 13.118,-4.053l246.369,-466.688c2.502,-4.739 0.685,-10.617 -4.053,-13.118l-466.688,-246.369Z" style="fill:url(#_Linear3);"/><path d="M3504.14,2222.2c2.502,-4.738 0.685,-10.616 -4.053,-13.118l-452.134,-238.686c-4.738,-2.501 -10.616,-0.685 -13.118,4.054l-238.685,452.133c-2.502,4.739 -0.686,10.617 4.053,13.118l452.134,238.686c4.738,2.501 10.616,0.685 13.117,-4.053l238.686,-452.134Z" style="fill:#f2f2f2;"/><path d="M3472.33,2317.8c1.611,-3.051 0.442,-6.835 -2.609,-8.445l-18.054,-9.531c-3.051,-1.611 -6.835,-0.441 -8.445,2.609l-32.581,61.717c-1.61,3.05 -0.441,6.834 2.609,8.445l18.055,9.531c3.05,1.61 6.834,0.441 8.444,-2.61l32.581,-61.716Z" style="fill:#f2f2f2;"/><path d="M3470.81,2232.5c2.501,-4.738 0.685,-10.616 -4.053,-13.118l-408.472,-215.635c-4.738,-2.502 -10.616,-0.686 -13.117,4.053l-215.636,408.471c-2.502,4.738 -0.686,10.616 4.053,13.118l408.471,215.636c4.739,2.501 10.616,0.685 13.118,-4.054l215.636,-408.471Z" style="fill:#3a69da;"/><path d="M3296.26,2325.04l-20.971,-46.998l-144.455,63.931l-27.452,-60.605l-48.694,21.615l40.38,87.447l9.671,22.362l191.521,-87.752Z" style="fill:url(#_Linear4);fill-rule:nonzero;"/><path d="M3293.99,2322.97l-19.308,-42.043l-145.201,66.747l-28.436,-61.827l-42.044,19.308l38.141,82.798l9.909,20.937l186.939,-85.92Z" style="fill:#fff;fill-rule:nonzero;"/><path d="M1723.62,384.814c-10.985,-25.941 -40.963,-38.083 -66.904,-27.099l-913.478,386.808c-25.941,10.985 -38.084,40.964 -27.099,66.904l730.221,1724.48c10.984,25.941 40.963,38.083 66.904,27.099l913.478,-386.808c25.941,-10.985 38.083,-40.964 27.099,-66.904l-730.221,-1724.48Z" style="fill:url(#_Linear5);"/><path d="M1722.64,420.521c-12.231,-28.884 -45.611,-42.404 -74.495,-30.173l-875.564,370.753c-28.885,12.231 -42.405,45.611 -30.174,74.496l704.904,1664.69c12.231,28.884 45.612,42.404 74.496,30.173l875.564,-370.753c28.884,-12.231 42.405,-45.611 30.174,-74.496l-704.905,-1664.69Z" style="fill:#fff;"/><path d="M1475.39,515.709c10.507,41.068 -10.727,84.101 -49.713,100.748l-338.554,143.403c-39.088,16.419 -84.775,1.722 -106.958,-34.409l-179.338,75.943c-14.933,6.309 -24.686,21.018 -24.686,37.229c0,5.42 1.09,10.785 3.206,15.775l680.23,1606.11c6.309,14.933 21.018,24.686 37.228,24.686c5.421,0 10.786,-1.09 15.776,-3.206l856.583,-362.748c14.932,-6.309 24.686,-21.018 24.686,-37.229c0,-5.42 -1.091,-10.785 -3.206,-15.776l-680.163,-1606.17c-6.309,-14.933 -21.018,-24.686 -37.228,-24.686c-5.421,0 -10.786,1.09 -15.776,3.206l-182.087,77.131Z" style="fill:#3a69da;fill-rule:nonzero;"/><path d="M1351.6,601.228c-1.595,-3.768 -5.95,-5.532 -9.718,-3.937l-204.796,86.72c-3.769,1.596 -5.532,5.951 -3.937,9.719c1.596,3.768 5.951,5.532 9.719,3.936l204.796,-86.719c3.768,-1.596 5.532,-5.951 3.936,-9.719Z" style="fill:#dbdbdb;"/><path d="M1393.95,572.037c4.518,-1.913 9.74,0.202 11.654,4.72c1.913,4.519 -0.202,9.741 -4.721,11.654c-4.518,1.913 -9.74,-0.202 -11.653,-4.72c-1.913,-4.519 0.202,-9.74 4.72,-11.654Z" style="fill:#dbdbdb;"/><path d="M1730.03,1253.73l-90.399,-18.325l-56.974,277.339l-117.037,-22.973l-19.037,93.554l169.634,32.033l42.654,9.129l71.159,-370.757Z" style="fill:url(#_Linear6);fill-rule:nonzero;"/><path d="M1724.66,1254.85l-81.44,-15.507l-53.649,281.342l-119.819,-22.837l-15.541,81.44l160.471,30.472l40.924,7.33l69.054,-362.24Z" style="fill:#fff;fill-rule:nonzero;"/><g opacity="0.2"><path d="M1148.2,783.613l338.588,-143.369c38.985,-16.647 60.219,-59.68 49.712,-100.748l173.061,-73.33l-2.579,-6.074c-6.309,-14.933 -21.018,-24.686 -37.229,-24.686c-5.42,0 -10.785,1.09 -15.775,3.206l-182.053,77.097c10.507,41.068 -10.727,84.101 -49.713,100.748l-338.486,143.403c-9.061,3.827 -18.717,6.054 -28.538,6.583c24.775,23.681 61.414,30.445 93.012,17.17Z" style="fill:#fff;fill-rule:nonzero;"/><path d="M840.461,878.118c-2.116,-4.99 -3.206,-10.355 -3.206,-15.776c0,-16.21 9.753,-30.919 24.686,-37.228l154.567,-65.458c-16.488,-6.991 -30.385,-18.965 -39.736,-34.239l-179.339,75.943c-14.932,6.309 -24.686,21.018 -24.686,37.229c0,5.42 1.091,10.785 3.206,15.776l680.231,1606.14c6.309,14.933 21.017,24.686 37.228,24.686c5.42,0 10.786,-1.09 15.776,-3.206l8.924,-3.766l-677.651,-1600.1Z" style="fill:#fff;fill-rule:nonzero;"/></g></g><g><circle cx="683.201" cy="2245.96" r="377.559" style="fill:url(#_Linear7);"/><circle cx="683.201" cy="2245.96" r="367.369" style="fill:#d8e1f8;"/><circle cx="683.201" cy="2245.96" r="298.482" style="fill:#fff;"/><circle cx="683.201" cy="2245.96" r="17.849" style="fill:url(#_Linear8);"/><path d="M782.703,2016.37l-96.949,229.595" style="fill:none;fill-rule:nonzero;"/><path d="M689.936,2248.16l-11.004,-3.697l99.039,-231.795l11.004,5.172l-99.039,230.32Z" style="fill:url(#_Linear9);fill-rule:nonzero;"/><path d="M779.147,2014.8l-96.94,229.6l7.056,2.979l96.94,-229.6l-7.056,-2.979Z" style="fill:#2196f3;"/><path d="M685.754,2248.51l63.781,117.35" style="fill:none;fill-rule:nonzero;"/><path d="M744.958,2369.21l-63.825,-118.847l8.803,-4.401l66.026,116.646l-11.004,6.602Z" style="fill:url(#_Linear10);fill-rule:nonzero;"/><path d="M689.083,2246.76l-6.729,3.657l63.775,117.361l6.73,-3.656l-63.776,-117.362Z" style="fill:#2196f3;"/><circle cx="961.281" cy="2253.62" r="7.659" style="fill:#3a69da;"/><path d="M435.057,2103.47c2.746,-4.755 8.835,-6.386 13.59,-3.641c4.754,2.745 6.386,8.834 3.641,13.589c-2.745,4.755 -8.834,6.386 -13.589,3.641c-4.755,-2.745 -6.387,-8.834 -3.642,-13.589Z" style="fill:url(#_Linear11);"/><path d="M441.244,2382.99c4.755,-2.745 10.844,-1.114 13.589,3.641c2.746,4.755 1.114,10.844 -3.641,13.589c-4.755,2.745 -10.844,1.114 -13.589,-3.641c-2.745,-4.755 -1.113,-10.844 3.641,-13.589Z" style="fill:url(#_Linear12);"/><circle cx="405.144" cy="2253.62" r="9.948" style="fill:url(#_Linear13);"/><path d="M540.218,1997.79c4.755,-2.745 10.844,-1.114 13.589,3.641c2.745,4.755 1.113,10.844 -3.641,13.589c-4.755,2.746 -10.844,1.114 -13.59,-3.641c-2.745,-4.755 -1.113,-10.844 3.642,-13.589Z" style="fill:url(#_Linear14);"/><path d="M677.98,1962.08c4.755,-2.746 10.844,-1.114 13.589,3.641c2.745,4.755 1.114,10.844 -3.641,13.589c-4.755,2.745 -10.844,1.114 -13.589,-3.641c-2.745,-4.755 -1.114,-10.844 3.641,-13.589Z" style="fill:url(#_Linear15);"/><path d="M815.739,1997.8c4.755,-2.745 10.844,-1.114 13.589,3.641c2.746,4.755 1.114,10.844 -3.641,13.589c-4.755,2.746 -10.844,1.114 -13.589,-3.641c-2.745,-4.755 -1.114,-10.844 3.641,-13.589Z" style="fill:url(#_Linear16);"/><path d="M917.78,2099.85c4.755,-2.745 10.844,-1.114 13.589,3.641c2.745,4.755 1.114,10.844 -3.641,13.589c-4.755,2.745 -10.844,1.114 -13.589,-3.641c-2.745,-4.755 -1.114,-10.844 3.641,-13.589Z" style="fill:url(#_Linear17);"/><path d="M915.239,2383.02c4.755,-2.745 10.844,-1.114 13.589,3.641c2.745,4.755 1.114,10.844 -3.641,13.589c-4.755,2.745 -10.844,1.114 -13.589,-3.641c-2.745,-4.755 -1.114,-10.844 3.641,-13.589Z" style="fill:url(#_Linear18);"/><path d="M810.635,2482.5c4.755,-2.746 10.844,-1.114 13.589,3.641c2.745,4.755 1.114,10.844 -3.641,13.589c-4.755,2.745 -10.844,1.113 -13.589,-3.641c-2.745,-4.755 -1.114,-10.844 3.641,-13.589Z" style="fill:url(#_Linear19);"/><path d="M677.969,2513.13c4.755,-2.745 10.844,-1.114 13.589,3.641c2.745,4.755 1.114,10.844 -3.641,13.589c-4.755,2.745 -10.844,1.114 -13.589,-3.641c-2.745,-4.755 -1.114,-10.844 3.641,-13.589Z" style="fill:url(#_Linear20);"/><path d="M545.322,2482.51c4.755,-2.746 10.844,-1.114 13.589,3.641c2.745,4.755 1.114,10.844 -3.641,13.589c-4.755,2.745 -10.844,1.113 -13.589,-3.641c-2.746,-4.755 -1.114,-10.844 3.641,-13.589Z" style="fill:url(#_Linear21);"/><circle cx="683.201" cy="1970.43" r="7.659" style="fill:#69f0ae;"/><path d="M814.331,2003.51c2.114,-3.661 6.802,-4.917 10.462,-2.804c3.661,2.114 4.917,6.802 2.804,10.463c-2.114,3.661 -6.802,4.917 -10.463,2.803c-3.66,-2.113 -4.917,-6.801 -2.803,-10.462Z" style="fill:#69f0ae;"/><path d="M917.973,2101.57c3.661,-2.113 8.349,-0.857 10.462,2.804c2.114,3.661 0.858,8.349 -2.803,10.462c-3.661,2.114 -8.349,0.858 -10.462,-2.803c-2.114,-3.661 -0.858,-8.349 2.803,-10.463Z" style="fill:#69f0ae;"/><path d="M913.575,2387.78c2.113,-3.661 6.801,-4.917 10.462,-2.803c3.661,2.113 4.917,6.801 2.804,10.462c-2.114,3.661 -6.802,4.917 -10.463,2.804c-3.661,-2.114 -4.917,-6.802 -2.803,-10.463Z" style="fill:#69f0ae;"/><path d="M811.779,2483.96c3.661,-2.113 8.349,-0.857 10.463,2.804c2.113,3.661 0.857,8.349 -2.804,10.462c-3.66,2.114 -8.348,0.858 -10.462,-2.803c-2.113,-3.661 -0.857,-8.349 2.803,-10.463Z" style="fill:#69f0ae;"/><path d="M541.605,2000.73c3.661,-2.114 8.349,-0.858 10.462,2.803c2.114,3.661 0.858,8.349 -2.803,10.463c-3.661,2.113 -8.349,0.857 -10.463,-2.804c-2.113,-3.66 -0.857,-8.349 2.804,-10.462Z" style="fill:#69f0ae;"/><path d="M437.975,2104.37c2.113,-3.66 6.801,-4.917 10.462,-2.803c3.661,2.113 4.917,6.802 2.803,10.462c-2.113,3.661 -6.801,4.917 -10.462,2.804c-3.661,-2.114 -4.917,-6.802 -2.803,-10.463Z" style="fill:#69f0ae;"/><path d="M956.065,2245.26c4.754,-2.745 10.843,-1.113 13.589,3.642c2.745,4.755 1.113,10.844 -3.641,13.589c-4.755,2.745 -10.844,1.113 -13.59,-3.641c-2.745,-4.755 -1.113,-10.844 3.642,-13.59Z" style="fill:#69f0ae;"/><path d="M442.389,2384.98c3.661,-2.114 8.349,-0.857 10.462,2.803c2.114,3.661 0.858,8.349 -2.803,10.463c-3.661,2.113 -8.349,0.857 -10.463,-2.804c-2.113,-3.66 -0.857,-8.348 2.804,-10.462Z" style="fill:#69f0ae;"/><path d="M544.16,2486.77c2.113,-3.66 6.801,-4.917 10.462,-2.803c3.661,2.114 4.917,6.802 2.803,10.462c-2.113,3.661 -6.801,4.917 -10.462,2.804c-3.661,-2.114 -4.917,-6.802 -2.803,-10.463Z" style="fill:#69f0ae;"/><circle cx="405.144" cy="2253.62" r="7.659" style="fill:#69f0ae;"/><circle cx="683.201" cy="2521.47" r="7.659" style="fill:#69f0ae;"/><path d="M400.038,2274.02c0.049,-163.733 134.793,-298.437 298.525,-298.437c106.791,0 205.751,57.303 258.91,149.922c-47.059,-109.314 -155.183,-180.484 -274.196,-180.484c-163.767,0 -298.526,134.759 -298.526,298.525c0,52.06 13.618,103.224 39.496,148.396c-16.021,-37.246 -24.26,-77.377 -24.209,-117.922Z" style="fill:#6187e1;fill-opacity:0.1;fill-rule:nonzero;"/><circle cx="683.201" cy="2245.96" r="12.765" style="fill:#69f0ae;"/></g><g><rect x="2467.04" y="476.107" width="890.833" height="570.521" style="fill:#6187e1;"/><rect x="2550.51" y="539.286" width="723.894" height="444.163" style="fill:#3a69da;"/><rect x="2550.51" y="624.585" width="723.894" height="27.272" style="fill:#6187e1;"/><rect x="2550.51" y="757.913" width="723.894" height="27.272" style="fill:#6187e1;"/><rect x="2651.28" y="685.189" width="306.048" height="27.272" style="fill:#6187e1;"/><rect x="2550.51" y="898.816" width="723.894" height="27.272" style="fill:#6187e1;"/><rect x="2637.65" y="539.286" width="27.272" height="376.196" style="fill:#6187e1;"/><rect x="3146.72" y="539.286" width="27.272" height="233.778" style="fill:#6187e1;"/><rect x="2940.66" y="539.286" width="27.272" height="444.163" style="fill:#6187e1;"/><rect x="2784.61" y="762.458" width="27.272" height="220.991" style="fill:#6187e1;"/><circle cx="2954.3" cy="771.549" r="34.847" style="fill:#fff;"/><path d="M2957.33,236.117c-72.281,0 -131.759,59.478 -131.759,131.759c0,72.769 131.759,348.221 131.759,348.221c0,0 131.759,-275.452 131.759,-348.221c0,-72.281 -59.478,-131.759 -131.759,-131.759Zm0,194.501c-34.42,0 -62.743,-28.323 -62.743,-62.742c0,-34.42 28.323,-62.743 62.743,-62.743c34.42,0 62.743,28.323 62.743,62.743c0,0 0,0 0,0c0,34.419 -28.323,62.742 -62.743,62.743l0,-0.001Z" style="fill:#fff;fill-rule:nonzero;"/></g></g><defs><linearGradient id="_Linear1" x1="0" y1="0" x2="1" y2="0" gradientUnits="userSpaceOnUse" gradientTransform="matrix(-0.0157975,-477.736,477.736,-0.0157975,3331.97,2199.86)"><stop offset="0" style="stop-color:#808080;stop-opacity:0.25"/><stop offset="0.54" style="stop-color:#808080;stop-opacity:0.12"/><stop offset="1" style="stop-color:#808080;stop-opacity:0.1"/></linearGradient><linearGradient id="_Linear2" x1="0" y1="0" x2="1" y2="0" gradientUnits="userSpaceOnUse" gradientTransform="matrix(-223.045,-422.472,422.472,-223.045,3881.14,2743)"><stop offset="0" style="stop-color:#808080;stop-opacity:0.25"/><stop offset="0.54" style="stop-color:#808080;stop-opacity:0.12"/><stop offset="1" style="stop-color:#808080;stop-opacity:0.1"/></linearGradient><linearGradient id="_Linear3" x1="0" y1="0" x2="1" y2="0" gradientUnits="userSpaceOnUse" gradientTransform="matrix(-0.0552759,-733.734,733.734,-0.0552759,3149.88,2691.18)"><stop offset="0" style="stop-color:#808080;stop-opacity:0.25"/><stop offset="0.54" style="stop-color:#808080;stop-opacity:0.12"/><stop offset="1" style="stop-color:#808080;stop-opacity:0.1"/></linearGradient><linearGradient id="_Linear4" x1="0" y1="0" x2="1" y2="0" gradientUnits="userSpaceOnUse" gradientTransform="matrix(93.2955,-175.759,175.759,93.2955,3119.05,2420.34)"><stop offset="0" style="stop-color:#000;stop-opacity:0.12"/><stop offset="0.55" style="stop-color:#000;stop-opacity:0.09"/><stop offset="1" style="stop-color:#000;stop-opacity:0.02"/></linearGradient><linearGradient id="_Linear5" x1="0" y1="0" x2="1" y2="0" gradientUnits="userSpaceOnUse" gradientTransform="matrix(0.0891766,-2219.28,2219.28,0.0891766,1584.92,2570.03)"><stop offset="0" style="stop-color:#808080;stop-opacity:0.25"/><stop offset="0.54" style="stop-color:#808080;stop-opacity:0.12"/><stop offset="1" style="stop-color:#808080;stop-opacity:0.1"/></linearGradient><linearGradient id="_Linear6" x1="0" y1="0" x2="1" y2="0" gradientUnits="userSpaceOnUse" gradientTransform="matrix(-159.466,-319.003,319.003,-159.466,1684.81,1611.47)"><stop offset="0" style="stop-color:#000;stop-opacity:0.12"/><stop offset="0.55" style="stop-color:#000;stop-opacity:0.09"/><stop offset="1" style="stop-color:#000;stop-opacity:0.02"/></linearGradient><linearGradient id="_Linear7" x1="0" y1="0" x2="1" y2="0" gradientUnits="userSpaceOnUse" gradientTransform="matrix(4.62376e-14,-755.118,755.118,4.62376e-14,683.201,2623.52)"><stop offset="0" style="stop-color:#808080;stop-opacity:0.25"/><stop offset="0.54" style="stop-color:#808080;stop-opacity:0.12"/><stop offset="1" style="stop-color:#808080;stop-opacity:0.1"/></linearGradient><linearGradient id="_Linear8" x1="0" y1="0" x2="1" y2="0" gradientUnits="userSpaceOnUse" gradientTransform="matrix(2.18722e-15,-35.7201,35.7201,2.18722e-15,683.201,2263.81)"><stop offset="0" style="stop-color:#808080;stop-opacity:0.25"/><stop offset="0.54" style="stop-color:#808080;stop-opacity:0.12"/><stop offset="1" style="stop-color:#808080;stop-opacity:0.1"/></linearGradient><linearGradient id="_Linear9" x1="0" y1="0" x2="1" y2="0" gradientUnits="userSpaceOnUse" gradientTransform="matrix(1.44198e-14,-235.493,235.493,1.44198e-14,733.953,2248.16)"><stop offset="0" style="stop-color:#808080;stop-opacity:0.25"/><stop offset="0.54" style="stop-color:#808080;stop-opacity:0.12"/><stop offset="1" style="stop-color:#808080;stop-opacity:0.1"/></linearGradient><linearGradient id="_Linear10" x1="0" y1="0" x2="1" y2="0" gradientUnits="userSpaceOnUse" gradientTransform="matrix(7.5468e-15,-123.249,123.249,7.5468e-15,718.547,2369.21)"><stop offset="0" style="stop-color:#808080;stop-opacity:0.25"/><stop offset="0.54" style="stop-color:#808080;stop-opacity:0.12"/><stop offset="1" style="stop-color:#808080;stop-opacity:0.1"/></linearGradient><linearGradient id="_Linear11" x1="0" y1="0" x2="1" y2="0" gradientUnits="userSpaceOnUse" gradientTransform="matrix(17.2112,-9.93692,9.93692,17.2112,435.071,2113.41)"><stop offset="0" style="stop-color:#808080;stop-opacity:0.25"/><stop offset="0.54" style="stop-color:#808080;stop-opacity:0.12"/><stop offset="1" style="stop-color:#808080;stop-opacity:0.1"/></linearGradient><linearGradient id="_Linear12" x1="0" y1="0" x2="1" y2="0" gradientUnits="userSpaceOnUse" gradientTransform="matrix(-2.66454e-14,-19.8738,19.8738,-2.66454e-14,446.221,2401.53)"><stop offset="0" style="stop-color:#808080;stop-opacity:0.25"/><stop offset="0.54" style="stop-color:#808080;stop-opacity:0.12"/><stop offset="1" style="stop-color:#808080;stop-opacity:0.1"/></linearGradient><linearGradient id="_Linear13" x1="0" y1="0" x2="1" y2="0" gradientUnits="userSpaceOnUse" gradientTransform="matrix(9.94792,-17.2303,17.2303,9.94792,400.146,2262.23)"><stop offset="0" style="stop-color:#808080;stop-opacity:0.25"/><stop offset="0.54" style="stop-color:#808080;stop-opacity:0.12"/><stop offset="1" style="stop-color:#808080;stop-opacity:0.1"/></linearGradient><linearGradient id="_Linear14" x1="0" y1="0" x2="1" y2="0" gradientUnits="userSpaceOnUse" gradientTransform="matrix(19.8958,7.10543e-14,-7.10543e-14,19.8958,535.246,2006.4)"><stop offset="0" style="stop-color:#808080;stop-opacity:0.25"/><stop offset="0.54" style="stop-color:#808080;stop-opacity:0.12"/><stop offset="1" style="stop-color:#808080;stop-opacity:0.1"/></linearGradient><linearGradient id="_Linear15" x1="0" y1="0" x2="1" y2="0" gradientUnits="userSpaceOnUse" gradientTransform="matrix(19.8958,-5.50671e-14,5.50671e-14,19.8958,672.996,1970.7)"><stop offset="0" style="stop-color:#808080;stop-opacity:0.25"/><stop offset="0.54" style="stop-color:#808080;stop-opacity:0.12"/><stop offset="1" style="stop-color:#808080;stop-opacity:0.1"/></linearGradient><linearGradient id="_Linear16" x1="0" y1="0" x2="1" y2="0" gradientUnits="userSpaceOnUse" gradientTransform="matrix(19.8738,9.9476e-14,-9.9476e-14,19.8738,810.769,2006.42)"><stop offset="0" style="stop-color:#808080;stop-opacity:0.25"/><stop offset="0.54" style="stop-color:#808080;stop-opacity:0.12"/><stop offset="1" style="stop-color:#808080;stop-opacity:0.1"/></linearGradient><linearGradient id="_Linear17" x1="0" y1="0" x2="1" y2="0" gradientUnits="userSpaceOnUse" gradientTransform="matrix(19.8958,-5.50671e-14,5.50671e-14,19.8958,912.815,2108.46)"><stop offset="0" style="stop-color:#808080;stop-opacity:0.25"/><stop offset="0.54" style="stop-color:#808080;stop-opacity:0.12"/><stop offset="1" style="stop-color:#808080;stop-opacity:0.1"/></linearGradient><linearGradient id="_Linear18" x1="0" y1="0" x2="1" y2="0" gradientUnits="userSpaceOnUse" gradientTransform="matrix(19.8958,-1.81188e-13,1.81188e-13,19.8958,910.257,2391.62)"><stop offset="0" style="stop-color:#808080;stop-opacity:0.25"/><stop offset="0.54" style="stop-color:#808080;stop-opacity:0.12"/><stop offset="1" style="stop-color:#808080;stop-opacity:0.1"/></linearGradient><linearGradient id="_Linear19" x1="0" y1="0" x2="1" y2="0" gradientUnits="userSpaceOnUse" gradientTransform="matrix(19.8738,-1.49214e-13,1.49214e-13,19.8738,805.659,2491.11)"><stop offset="0" style="stop-color:#808080;stop-opacity:0.25"/><stop offset="0.54" style="stop-color:#808080;stop-opacity:0.12"/><stop offset="1" style="stop-color:#808080;stop-opacity:0.1"/></linearGradient><linearGradient id="_Linear20" x1="0" y1="0" x2="1" y2="0" gradientUnits="userSpaceOnUse" gradientTransform="matrix(19.8958,-5.50671e-14,5.50671e-14,19.8958,672.991,2521.73)"><stop offset="0" style="stop-color:#808080;stop-opacity:0.25"/><stop offset="0.54" style="stop-color:#808080;stop-opacity:0.12"/><stop offset="1" style="stop-color:#808080;stop-opacity:0.1"/></linearGradient><linearGradient id="_Linear21" x1="0" y1="0" x2="1" y2="0" gradientUnits="userSpaceOnUse" gradientTransform="matrix(19.8738,3.14415e-13,-3.14415e-13,19.8738,540.353,2491.13)"><stop offset="0" style="stop-color:#808080;stop-opacity:0.25"/><stop offset="0.54" style="stop-color:#808080;stop-opacity:0.12"/><stop offset="1" style="stop-color:#808080;stop-opacity:0.1"/></linearGradient></defs></svg>