<?xml version="1.0" encoding="UTF-8" standalone="no"?><!DOCTYPE svg PUBLIC "-//W3C//DTD SVG 1.1//EN" "http://www.w3.org/Graphics/SVG/1.1/DTD/svg11.dtd"><svg width="100%" height="100%" viewBox="0 0 4815 2907" version="1.1" xmlns="http://www.w3.org/2000/svg" xmlns:xlink="http://www.w3.org/1999/xlink" xml:space="preserve" xmlns:serif="http://www.serif.com/" style="fill-rule:evenodd;clip-rule:evenodd;stroke-miterlimit:10;"><path d="M4764.21,2711c-18.618,45.827 -41.511,89.799 -68.375,131.333c-12.616,19.81 -26.448,38.819 -41.416,56.917l-0.459,0.542l-4630.62,0l0.834,-0.584c4.166,-3.25 28.625,-23.041 66.666,-56.916c27.292,-24.334 61.542,-55.917 100,-93.917c314.542,-309.375 918.75,-1041.67 415.542,-1712.5c-467.792,-623.625 35.875,-736.833 368.125,-750c127.66,-4.956 255.02,15.862 374.458,61.208c153.459,58.334 434,147.792 799.5,188.75c12,1.361 24.111,2.667 36.334,3.917c193.508,19.687 388.322,23.214 582.416,10.542c5.709,-0.292 11.459,-0.709 17.25,-1.125c192.008,-13.518 382.556,-43.009 569.667,-88.167c12.125,-2.958 24.083,-5.75 36,-8.333c623.458,-144.25 1198.21,347.375 1054.54,903c-53.167,205.458 -39.667,424.541 137.5,601.708c289.791,289.333 254.5,574.167 182.041,753.625Z" style="fill:#fff;fill-opacity:0.1;fill-rule:nonzero;"/><path d="M3701.24,1110.63c15.768,-28.201 46.055,-41.321 67.592,-29.279c21.538,12.042 26.222,44.714 10.454,72.916c-15.767,28.201 -46.054,41.321 -67.592,29.279c-21.537,-12.042 -26.222,-44.714 -10.454,-72.916Z" style="fill:#3f3d56;"/><path d="M3736.14,1048.17c15.768,-28.201 46.055,-41.321 67.592,-29.279c21.537,12.042 26.222,44.714 10.454,72.916c-15.768,28.201 -46.055,41.321 -67.592,29.279c-21.537,-12.042 -26.222,-44.714 -10.454,-72.916Z" style="fill:#3f3d56;"/><path d="M3771.08,985.737c15.768,-28.202 46.055,-41.321 67.592,-29.28c21.538,12.042 26.222,44.715 10.454,72.916c-15.767,28.201 -46.054,41.321 -67.592,29.279c-21.537,-12.042 -26.222,-44.714 -10.454,-72.915Z" style="fill:#3f3d56;"/><path d="M3805.98,923.238c15.768,-28.201 46.055,-41.321 67.592,-29.279c21.537,12.042 26.222,44.714 10.454,72.915c-15.768,28.202 -46.055,41.321 -67.592,29.279c-21.537,-12.041 -26.222,-44.714 -10.454,-72.915Z" style="fill:#3f3d56;"/><path d="M3840.85,860.817c15.768,-28.201 46.055,-41.321 67.593,-29.279c21.537,12.042 26.221,44.714 10.454,72.916c-15.768,28.201 -46.055,41.321 -67.593,29.279c-21.537,-12.042 -26.221,-44.714 -10.454,-72.916Z" style="fill:#3f3d56;"/><path d="M3875.8,798.36c15.768,-28.201 46.055,-41.321 67.592,-29.279c21.537,12.042 26.222,44.714 10.454,72.916c-15.768,28.201 -46.055,41.321 -67.592,29.279c-21.538,-12.042 -26.222,-44.714 -10.454,-72.916Z" style="fill:#3f3d56;"/><path d="M3910.73,735.924c15.768,-28.202 46.055,-41.321 67.592,-29.279c21.538,12.041 26.222,44.714 10.454,72.915c-15.767,28.202 -46.054,41.321 -67.592,29.279c-21.537,-12.042 -26.222,-44.714 -10.454,-72.915Z" style="fill:#3f3d56;"/><path d="M4334.58,411.958c9.123,-3.811 17.977,-8.238 26.5,-13.25l-93.125,-74.208l110.375,62.833c47.627,-34.754 78.89,-87.642 86.375,-146.125l-191.958,-6l193.625,-24.125c-0.897,-116.886 -97.312,-212.564 -214.202,-212.564c-117.511,0 -214.208,96.697 -214.208,214.208c0,11.705 0.959,23.391 2.868,34.94c-14.212,5.923 -27.748,13.355 -40.375,22.166l94.542,143.584l-115.292,-127c-53.681,48.474 -79.318,120.972 -68.041,192.416c-79.65,33.187 -131.796,111.406 -131.796,197.693c0,117.488 96.678,214.167 214.166,214.167c117.489,0 214.167,-96.679 214.167,-214.167c0,-11.185 -0.876,-22.353 -2.621,-33.401c90.946,-37.875 144.579,-133.863 129.167,-231.167l-0.167,0Z" style="fill:#d0d2d5;fill-rule:nonzero;"/><path d="M3936.08,340.875c-23.411,41.925 -32.016,90.544 -24.416,137.958c-79.65,33.187 -131.796,111.406 -131.796,197.693c0,117.488 96.678,214.167 214.166,214.167c117.489,0 214.167,-96.679 214.167,-214.167c0,-11.185 -0.876,-22.353 -2.621,-33.401c42.625,-17.792 -257.75,-323.083 -269.5,-302.25Z" style="fill-opacity:0.1;fill-rule:nonzero;"/><path d="M4214.12,2632.38l50.458,0c57.144,0 104.167,47.023 104.167,104.167l0,154.625l-258.792,0l0,-154.625c0,-57.144 47.023,-104.167 104.167,-104.167Z" style="fill:#3f3d56;fill-rule:nonzero;"/><path d="M4214.12,2632.38l50.458,0c57.144,0 104.167,47.023 104.167,104.167l0,154.625l-258.792,0l0,-154.625c0,-57.144 47.023,-104.167 104.167,-104.167Z" style="fill:#bcbdc0;fill-rule:nonzero;"/><circle cx="4229.04" cy="2668.62" r="20.708" style="fill:#d0d2d5;"/><circle cx="4229.04" cy="2642.75" r="20.708" style="fill:#d0d2d5;"/><circle cx="4229.04" cy="2616.83" r="20.708" style="fill:#d0d2d5;"/><circle cx="4229.04" cy="2590.96" r="20.708" style="fill:#d0d2d5;"/><circle cx="4229.04" cy="2565.08" r="20.708" style="fill:#d0d2d5;"/><circle cx="4229.04" cy="2539.21" r="20.708" style="fill:#d0d2d5;"/><circle cx="4229.04" cy="2513.33" r="20.708" style="fill:#d0d2d5;"/><circle cx="4260.08" cy="2523.67" r="20.708" style="fill:#d0d2d5;"/><circle cx="4280.79" cy="2513.33" r="20.708" style="fill:#d0d2d5;"/><circle cx="4301.5" cy="2502.96" r="20.708" style="fill:#d0d2d5;"/><circle cx="4229.04" cy="2487.46" r="20.708" style="fill:#d0d2d5;"/><circle cx="4229.04" cy="2461.58" r="20.708" style="fill:#d0d2d5;"/><circle cx="4229.04" cy="2435.67" r="20.708" style="fill:#d0d2d5;"/><circle cx="4229.04" cy="2409.79" r="20.708" style="fill:#d0d2d5;"/><path d="M4314.88,2343.04c-5.139,0.75 -10.306,1.291 -15.5,1.625c4.803,-4.191 9.262,-8.762 13.333,-13.667c-2.869,-8.702 -7.087,-16.899 -12.5,-24.292c-5.135,2.885 -10.808,4.686 -16.666,5.292c-5.125,0.75 -10.292,1.292 -15.459,1.625c6.954,-6.597 13.56,-13.551 19.792,-20.833c-16.167,-14.653 -37.223,-22.775 -59.042,-22.775c-48.229,0 -87.916,39.687 -87.916,87.916c0,48.23 39.687,87.917 87.916,87.917c48.23,0 87.917,-39.687 87.917,-87.917c0,-0.033 0,-0.066 0,-0.1c0.001,-5.071 -0.445,-10.132 -1.333,-15.125l-0.542,0.334Z" style="fill:#d0d2d5;fill-rule:nonzero;"/><path d="M4384.04,2445.92c-5.286,3.244 -11.243,5.239 -17.417,5.833c-5.125,0.75 -10.292,1.292 -15.458,1.625c5.491,-4.926 10.616,-10.245 15.333,-15.917c-4.326,-1.135 -8.778,-1.723 -13.25,-1.75c-0.032,0 -0.064,0 -0.096,0c-28.435,0 -51.834,23.399 -51.834,51.834c0,28.435 23.399,51.833 51.834,51.833c28.435,0 51.833,-23.398 51.833,-51.833c0,-16.396 -7.779,-31.855 -20.945,-41.625Z" style="fill:#d0d2d5;fill-rule:nonzero;"/><circle cx="4197.96" cy="2523.67" r="20.708" style="fill:#d0d2d5;"/><circle cx="4177.25" cy="2513.33" r="20.708" style="fill:#d0d2d5;"/><circle cx="4156.58" cy="2502.96" r="20.708" style="fill:#d0d2d5;"/><path d="M4074.17,2445.92c5.285,3.244 11.243,5.239 17.416,5.833c5.125,0.75 10.292,1.292 15.459,1.625c-5.492,-4.926 -10.616,-10.245 -15.334,-15.917c4.326,-1.135 8.778,-1.723 13.25,-1.75c0.032,0 0.064,0 0.097,0c28.434,0 51.833,23.399 51.833,51.834c0,28.435 -23.399,51.833 -51.833,51.833c-28.435,0 -51.834,-23.398 -51.834,-51.833c0,-16.396 7.779,-31.855 20.946,-41.625Z" style="fill:#d0d2d5;fill-rule:nonzero;"/><path d="M4214.12,2647.92l50.458,0c57.144,0 104.167,47.022 104.167,104.166l0,136.959c0,9.691 -7.975,17.666 -17.667,17.666l-223.458,0c-9.692,0 -17.667,-7.975 -17.667,-17.666l0,-136.959c0,-57.144 47.023,-104.166 104.167,-104.166Z" style="fill:#d0d2d5;fill-rule:nonzero;"/><g opacity="0.1"><path d="M4316.46,2348.71c-2.089,2.262 -4.33,4.378 -6.708,6.334c2.375,0 4.75,-0.375 7.083,-0.625c-0.083,-1.917 -0.166,-3.834 -0.375,-5.709Z" style="fill-rule:nonzero;"/><path d="M4278.71,2323.96c5.167,-0.333 10.334,-0.875 15.459,-1.625c4.639,-0.567 9.172,-1.802 13.458,-3.666c-2.117,-4.161 -4.54,-8.158 -7.25,-11.959c-2.592,1.578 -5.399,2.771 -8.333,3.542c-4.083,4.908 -8.541,9.491 -13.334,13.708Z" style="fill-rule:nonzero;"/><path d="M4151.38,2368.42c0,-0.058 0,-0.115 0,-0.173c0,-48.184 39.649,-87.833 87.833,-87.833c16.876,0 33.399,4.863 47.584,14.006l1.333,-1.417c-16.093,-14.319 -36.9,-22.235 -58.44,-22.235c-48.23,0 -87.917,39.687 -87.917,87.917c0,25.53 11.121,49.835 30.44,66.526c-13.472,-15.847 -20.861,-35.991 -20.833,-56.791Z" style="fill-rule:nonzero;"/></g><g opacity="0.1"><path d="M4351.17,2463.75c5.166,-0.375 10.333,-0.917 15.458,-1.667c6.17,-0.579 12.128,-2.56 17.417,-5.791c11.841,8.694 19.426,22.043 20.833,36.666c0.202,-1.826 0.3,-3.662 0.292,-5.5c0.073,-16.398 -7.672,-31.886 -20.834,-41.666c-5.285,3.244 -11.243,5.239 -17.416,5.833l-4.167,0.5c-3.544,4.178 -7.418,8.066 -11.583,11.625Z" style="fill-rule:nonzero;"/><path d="M4353.33,2446.04c1.75,0 3.459,0 5.167,0.375c2.708,-2.875 5.375,-5.959 8.083,-8.959c-4.326,-1.135 -8.777,-1.723 -13.25,-1.75c-28.389,0 -51.75,23.361 -51.75,51.75c0,1.75 0,3.5 0.25,5.167c2.659,-26.307 25.059,-46.568 51.5,-46.583Z" style="fill-rule:nonzero;"/></g><g opacity="0.1"><path d="M4106.88,2463.75c-5.167,-0.375 -10.333,-0.917 -15.458,-1.667c-6.171,-0.579 -12.128,-2.56 -17.417,-5.791c-11.842,8.694 -19.426,22.043 -20.833,36.666c-0.202,-1.826 -0.3,-3.662 -0.292,-5.5c-0.073,-16.398 7.671,-31.886 20.833,-41.666c5.286,3.244 11.243,5.239 17.417,5.833l4.167,0.5c3.555,4.168 7.428,8.054 11.583,11.625Z" style="fill-rule:nonzero;"/><path d="M4104.79,2446.04c-1.75,0 -3.459,0 -5.167,0.375c-2.708,-2.875 -5.375,-5.959 -8.083,-8.959c4.326,-1.135 8.777,-1.723 13.25,-1.75c28.389,0 51.75,23.361 51.75,51.75c0,1.75 0,3.5 -0.25,5.167c-2.659,-26.307 -25.059,-46.568 -51.5,-46.583Z" style="fill-rule:nonzero;"/></g><path d="M237.5,2245.83l398.083,0c57.144,0 104.167,47.023 104.167,104.167l0,502.042l-606.417,0l0,-502.042c0,-57.144 47.023,-104.167 104.167,-104.167Z" style="fill:#3f3d56;fill-rule:nonzero;"/><path d="M237.5,2245.83l398.083,0c57.144,0 104.167,47.023 104.167,104.167l0,502.042l-606.417,0l0,-502.042c0,-57.144 47.023,-104.167 104.167,-104.167Z" style="fill:#bcbdc0;fill-rule:nonzero;"/><circle cx="412.375" cy="2330.54" r="48.5" style="fill:#3f3d56;"/><circle cx="412.375" cy="2269.92" r="48.5" style="fill:#d0d2d5;"/><circle cx="412.375" cy="2209.25" r="48.5" style="fill:#bcbdc0;"/><circle cx="412.375" cy="2148.62" r="48.5" style="fill:#d0d2d5;"/><circle cx="412.375" cy="2087.96" r="48.5" style="fill:#d0d2d5;"/><circle cx="412.375" cy="2027.33" r="48.5" style="fill:#d0d2d5;"/><circle cx="412.375" cy="1966.71" r="48.5" style="fill:#d0d2d5;"/><circle cx="485.125" cy="1990.96" r="48.5" style="fill:#d0d2d5;"/><circle cx="533.625" cy="1966.71" r="48.5" style="fill:#d0d2d5;"/><circle cx="582.167" cy="1942.42" r="48.5" style="fill:#d0d2d5;"/><circle cx="412.375" cy="1906.04" r="48.5" style="fill:#d0d2d5;"/><circle cx="412.375" cy="1845.42" r="48.5" style="fill:#d0d2d5;"/><circle cx="412.375" cy="1784.75" r="48.5" style="fill:#d0d2d5;"/><circle cx="412.375" cy="1724.12" r="48.5" style="fill:#d0d2d5;"/><path d="M613.5,1567.67c-12.028,1.75 -24.111,3.027 -36.25,3.833c11.234,-9.839 21.669,-20.553 31.208,-32.042c-6.617,-20.361 -16.373,-39.565 -28.916,-56.916c-11.935,6.819 -25.162,11.077 -38.834,12.5c-12,1.75 -24.125,3.041 -36.25,3.875c15.959,-12.917 30.75,-32.459 46.375,-48.334c-38.013,-34.523 -87.564,-53.666 -138.915,-53.666c-113.351,0 -206.625,93.274 -206.625,206.625c0,113.351 93.274,206.625 206.625,206.625c113.351,0 206.625,-93.274 206.625,-206.625c0,-12.084 -1.06,-24.144 -3.168,-36.042l-1.875,0.167Z" style="fill:#fff;fill-rule:nonzero;"/><path d="M775.583,1808.75c-11.416,8.042 -26.583,11.5 -40.791,13.583c-12.042,1.792 -24.125,3.042 -36.25,3.875c12.5,-10.041 24,-24.041 35.916,-37.25c-10.158,-2.695 -20.623,-4.061 -31.133,-4.061c-66.584,0 -121.375,54.791 -121.375,121.375c0,66.585 54.791,121.375 121.375,121.375c66.584,0 121.375,-54.79 121.375,-121.375c0,-38.422 -18.245,-74.648 -49.117,-97.522Z" style="fill:#fff;fill-rule:nonzero;"/><circle cx="339.583" cy="1990.96" r="48.5" style="fill:#d0d2d5;"/><circle cx="291.083" cy="1966.71" r="48.5" style="fill:#d0d2d5;"/><circle cx="242.583" cy="1942.42" r="48.5" style="fill:#d0d2d5;"/><path d="M49.167,1808.75c11.416,8.042 26.583,11.5 40.833,13.583c12,1.792 24.083,3.042 36.208,3.875c-12.5,-10.041 -24,-24.041 -35.916,-37.25c10.158,-2.695 20.623,-4.061 31.133,-4.061c66.584,0 121.375,54.791 121.375,121.375c0,66.585 -54.791,121.375 -121.375,121.375c-66.584,0 -121.375,-54.79 -121.375,-121.375c0,-38.422 18.245,-74.648 49.117,-97.522Z" style="fill:#fff;fill-rule:nonzero;"/><path d="M237.5,2282.04l398.083,0c57.144,0 104.167,47.022 104.167,104.166l0,484.625c0,9.692 -7.975,17.667 -17.667,17.667l-571,0c-0.027,0 -0.055,0 -0.083,0c-9.692,0 -17.667,-7.975 -17.667,-17.666c0,-0.001 0,-0.001 0,-0.001l0,-484.625c0,-57.144 47.023,-104.166 104.167,-104.166Z" style="fill:#d0d2d5;fill-rule:nonzero;"/><g opacity="0.1"><path d="M617.167,1580.92c-4.876,5.298 -10.11,10.254 -15.667,14.833c5.542,-0.375 11.125,-0.875 16.667,-1.417c-0.209,-4.5 -0.5,-9 -1,-13.416Z" style="fill-rule:nonzero;"/><path d="M528.75,1523c12.125,-0.833 24.208,-2.083 36.208,-3.875c10.87,-1.267 21.504,-4.073 31.584,-8.333c-4.928,-9.789 -10.612,-19.179 -17,-28.084c-6.025,3.723 -12.568,6.532 -19.417,8.334c-9.614,11.45 -20.104,22.135 -31.375,31.958Z" style="fill-rule:nonzero;"/><path d="M230.417,1627.12c-0.001,-0.136 -0.001,-0.271 -0.001,-0.407c0,-112.894 92.898,-205.792 205.792,-205.792c39.544,0 78.263,11.398 111.5,32.824c1.042,-1.083 2.084,-2.292 3.125,-3.333c-37.851,-34.196 -87.086,-53.143 -138.096,-53.143c-113.008,0 -206,92.992 -206,206c0,60.386 26.552,117.817 72.555,156.934c-31.59,-37.129 -48.926,-84.334 -48.875,-133.083Z" style="fill-rule:nonzero;"/></g><g opacity="0.1"><path d="M698.542,1850.46c12.111,-0.777 24.194,-2.069 36.25,-3.875c14.208,-2.041 29.166,-5.5 40.791,-13.583c27.638,20.419 45.317,51.668 48.584,85.875c0.416,-4.167 0.666,-8.333 0.666,-12.792c0.025,-38.378 -18.235,-74.558 -49.125,-97.333c-11.416,8.042 -26.583,11.5 -40.791,13.583c-3.209,0.459 -6.375,0.834 -9.542,1.209c-8.219,9.667 -17.192,18.667 -26.833,26.916Z" style="fill-rule:nonzero;"/><path d="M703.333,1809.04c4.068,0.066 8.129,0.344 12.167,0.833c6.333,-6.75 12.5,-13.917 18.875,-20.833c-10.258,-2.766 -20.835,-4.167 -31.459,-4.167c-66.287,0 -120.834,54.546 -120.834,120.833c0,0.153 0.001,0.306 0.001,0.459c0,4.166 0.209,8.333 0.584,12.125c6.155,-61.692 58.669,-109.237 120.666,-109.25Z" style="fill-rule:nonzero;"/></g><g opacity="0.1"><path d="M126.167,1850.46c-12.111,-0.777 -24.181,-2.069 -36.209,-3.875c-14.25,-2.041 -29.416,-5.5 -40.833,-13.583c-27.591,20.444 -45.222,51.689 -48.458,85.875c-0.417,-4.167 -0.667,-8.333 -0.667,-12.792c-0.015,-38.385 18.262,-74.567 49.167,-97.333c11.416,8.042 26.583,11.5 40.833,13.583c3.167,0.459 6.333,0.834 9.5,1.209c8.177,9.65 17.093,18.65 26.667,26.916Z" style="fill-rule:nonzero;"/><path d="M121.292,1809.04c-4.068,0.066 -8.129,0.344 -12.167,0.833c-6.333,-6.75 -12.5,-13.917 -18.875,-20.833c10.258,-2.766 20.835,-4.167 31.459,-4.167c66.287,0 120.834,54.546 120.834,120.833c0,0.153 -0.001,0.306 -0.001,0.459c0,4.166 0,8.333 -0.584,12.125c-6.155,-61.692 -58.669,-109.237 -120.666,-109.25Z" style="fill-rule:nonzero;"/></g><path d="M2833.25,2900.58l-812.5,-10.416l2.375,-20.834l39.292,-343.75l713.541,0l52.5,343.75l4,26.042l0.792,5.208Z" style="fill:#d0d2d5;fill-rule:nonzero;"/><path d="M2832.46,2895.38l-405.458,0l-406.25,-5.208l2.375,-20.834l805.333,0l4,26.042Z" style="fill-opacity:0.1;fill-rule:nonzero;"/><rect x="1885.33" y="2874.54" width="1078.12" height="26.042" style="fill:#d0d2d5;"/><path d="M3992.08,460.917c0.184,-37.197 -30.261,-67.962 -67.458,-68.167l-3010.88,0c-37.086,0.182 -67.501,30.746 -67.501,67.833c0,0.111 0,0.222 0.001,0.334l0,1825l3145.83,0l0,-1825Z" style="fill:#454b69;fill-rule:nonzero;"/><path d="M846.25,2267.75l0,213.792c0,0.069 0,0.139 0,0.208c0,37.007 30.451,67.458 67.458,67.458c0.014,0 0.028,0 0.042,0l3010.88,0c37.007,0 67.458,-30.451 67.458,-67.458l0,-214l-3145.83,0Z" style="fill:#d0d2d5;fill-rule:nonzero;"/><rect x="976.458" y="507.333" width="2901.04" height="1640.62" style="fill:#d0d2d5;"/><path d="M2434.79,2467.92c21.568,0.014 41.988,-9.889 55.333,-26.834c1.99,-2.561 3.813,-5.247 5.458,-8.041l-38.583,-6.334l41.667,0.292c8.116,-17.58 8.599,-37.76 1.333,-55.708l-55.958,29.166l51.625,-37.916c-12.395,-22.241 -35.94,-36.074 -61.401,-36.074c-38.561,0 -70.292,31.731 -70.292,70.291c0,16.048 5.496,31.622 15.568,44.116c13.276,17.01 33.672,26.992 55.25,27.042Z" style="fill:#3755be;fill-rule:nonzero;"/><path d="M2505.12,2549l324.125,325.542l-49.708,-325.542l-274.417,0Z" style="fill-opacity:0.1;fill-rule:nonzero;"/><rect x="1057.21" y="730.75" width="2239.58" height="1189.21" style="fill:#fff;"/><rect x="1182.12" y="1040.75" width="624.667" height="32.375" style="fill:#3755be;fill-opacity:0.1;"/><rect x="1237.67" y="869.542" width="60.167" height="171.208" style="fill:#3755be;fill-opacity:0.1;"/><rect x="1325.58" y="869.542" width="60.167" height="171.208" style="fill:#3755be;fill-opacity:0.1;"/><rect x="1413.5" y="869.542" width="60.167" height="171.208" style="fill:#3755be;fill-opacity:0.1;"/><rect x="1501.42" y="869.542" width="60.167" height="171.208" style="fill:#3755be;fill-opacity:0.1;"/><rect x="1589.33" y="869.542" width="60.167" height="171.208" style="fill:#3755be;fill-opacity:0.1;"/><rect x="1677.25" y="869.542" width="60.167" height="171.208" style="fill:#3755be;fill-opacity:0.1;"/><rect x="1237.67" y="901.958" width="60.167" height="18.5" style="fill:#3755be;fill-opacity:0.1;"/><rect x="1325.58" y="901.958" width="60.167" height="18.5" style="fill:#3755be;fill-opacity:0.1;"/><rect x="1413.5" y="901.958" width="60.167" height="18.5" style="fill:#3755be;fill-opacity:0.1;"/><rect x="1501.42" y="901.958" width="60.167" height="18.5" style="fill:#3755be;fill-opacity:0.1;"/><rect x="1589.33" y="901.958" width="60.167" height="18.5" style="fill:#3755be;fill-opacity:0.1;"/><rect x="1677.25" y="901.958" width="60.167" height="18.5" style="fill:#3755be;fill-opacity:0.1;"/><rect x="1237.67" y="985.25" width="60.167" height="18.5" style="fill:#3755be;fill-opacity:0.1;"/><rect x="1325.58" y="985.25" width="60.167" height="18.5" style="fill:#3755be;fill-opacity:0.1;"/><rect x="1413.5" y="985.25" width="60.167" height="18.5" style="fill:#3755be;fill-opacity:0.1;"/><rect x="1501.42" y="985.25" width="60.167" height="18.5" style="fill:#3755be;fill-opacity:0.1;"/><rect x="1589.33" y="985.25" width="60.167" height="18.5" style="fill:#3755be;fill-opacity:0.1;"/><rect x="1677.25" y="985.25" width="60.167" height="18.5" style="fill:#3755be;fill-opacity:0.1;"/><rect x="2551.79" y="1124.04" width="624.667" height="32.375" style="fill:#3755be;fill-opacity:0.1;"/><rect x="2607.33" y="952.833" width="60.167" height="171.208" style="fill:#3755be;fill-opacity:0.1;"/><rect x="2695.25" y="952.833" width="60.167" height="171.208" style="fill:#3755be;fill-opacity:0.1;"/><rect x="2783.17" y="952.833" width="60.167" height="171.208" style="fill:#3755be;fill-opacity:0.1;"/><rect x="2871.08" y="952.833" width="60.167" height="171.208" style="fill:#3755be;fill-opacity:0.1;"/><rect x="2959" y="952.833" width="60.167" height="171.208" style="fill:#3755be;fill-opacity:0.1;"/><rect x="3046.92" y="952.833" width="60.167" height="171.208" style="fill:#3755be;fill-opacity:0.1;"/><rect x="2607.33" y="985.25" width="60.167" height="18.5" style="fill:#3755be;fill-opacity:0.1;"/><rect x="2695.25" y="985.25" width="60.167" height="18.5" style="fill:#3755be;fill-opacity:0.1;"/><rect x="2783.17" y="985.25" width="60.167" height="18.5" style="fill:#3755be;fill-opacity:0.1;"/><rect x="2871.08" y="985.25" width="60.167" height="18.5" style="fill:#3755be;fill-opacity:0.1;"/><rect x="2959" y="985.25" width="60.167" height="18.5" style="fill:#3755be;fill-opacity:0.1;"/><rect x="3046.92" y="985.25" width="60.167" height="18.5" style="fill:#3755be;fill-opacity:0.1;"/><rect x="2607.33" y="1068.54" width="60.167" height="18.5" style="fill:#3755be;fill-opacity:0.1;"/><rect x="2695.25" y="1068.54" width="60.167" height="18.5" style="fill:#3755be;fill-opacity:0.1;"/><rect x="2783.17" y="1068.54" width="60.167" height="18.5" style="fill:#3755be;fill-opacity:0.1;"/><rect x="2871.08" y="1068.54" width="60.167" height="18.5" style="fill:#3755be;fill-opacity:0.1;"/><rect x="2959" y="1068.54" width="60.167" height="18.5" style="fill:#3755be;fill-opacity:0.1;"/><rect x="3046.92" y="1068.54" width="60.167" height="18.5" style="fill:#3755be;fill-opacity:0.1;"/><rect x="2551.79" y="1360.04" width="624.667" height="32.375" style="fill:#3755be;fill-opacity:0.1;"/><rect x="2607.33" y="1188.83" width="60.167" height="171.208" style="fill:#3755be;fill-opacity:0.1;"/><rect x="2695.25" y="1188.83" width="60.167" height="171.208" style="fill:#3755be;fill-opacity:0.1;"/><rect x="2783.17" y="1188.83" width="60.167" height="171.208" style="fill:#3755be;fill-opacity:0.1;"/><rect x="2871.08" y="1188.83" width="60.167" height="171.208" style="fill:#3755be;fill-opacity:0.1;"/><rect x="2959" y="1188.83" width="60.167" height="171.208" style="fill:#3755be;fill-opacity:0.1;"/><rect x="3046.92" y="1188.83" width="60.167" height="171.208" style="fill:#3755be;fill-opacity:0.1;"/><rect x="2607.33" y="1221.21" width="60.167" height="18.5" style="fill:#3755be;fill-opacity:0.1;"/><rect x="2695.25" y="1221.21" width="60.167" height="18.5" style="fill:#3755be;fill-opacity:0.1;"/><rect x="2783.17" y="1221.21" width="60.167" height="18.5" style="fill:#3755be;fill-opacity:0.1;"/><rect x="2871.08" y="1221.21" width="60.167" height="18.5" style="fill:#3755be;fill-opacity:0.1;"/><rect x="2959" y="1221.21" width="60.167" height="18.5" style="fill:#3755be;fill-opacity:0.1;"/><rect x="3046.92" y="1221.21" width="60.167" height="18.5" style="fill:#3755be;fill-opacity:0.1;"/><rect x="2607.33" y="1304.5" width="60.167" height="18.5" style="fill:#3755be;fill-opacity:0.1;"/><rect x="2695.25" y="1304.5" width="60.167" height="18.5" style="fill:#3755be;fill-opacity:0.1;"/><rect x="2783.17" y="1304.5" width="60.167" height="18.5" style="fill:#3755be;fill-opacity:0.1;"/><rect x="2871.08" y="1304.5" width="60.167" height="18.5" style="fill:#3755be;fill-opacity:0.1;"/><rect x="2959" y="1304.5" width="60.167" height="18.5" style="fill:#3755be;fill-opacity:0.1;"/><rect x="3046.92" y="1304.5" width="60.167" height="18.5" style="fill:#3755be;fill-opacity:0.1;"/><path d="M1565.25,1406.92c-4.675,-5.95 -8.935,-12.215 -12.75,-18.75l89.958,-14.75l-97.458,0.791c-18.844,-41.017 -19.975,-88.04 -3.125,-129.916l130.5,67.708l-120.333,-88.458c29.225,-50.765 83.517,-82.156 142.094,-82.156c89.944,0 163.958,74.013 163.958,163.958c0,36.832 -12.411,72.611 -35.219,101.531c7.319,9.24 13.619,19.242 18.792,29.833l-116.667,60.625l124.458,-41.666c17.761,52.42 7.807,110.418 -26.416,153.916c22.736,28.896 35.104,64.617 35.104,101.385c0,89.945 -74.014,163.959 -163.958,163.959c-89.945,0 -163.959,-74.014 -163.959,-163.959c0,-36.768 12.368,-72.489 35.104,-101.385c-46.615,-59.275 -46.615,-143.433 0,-202.708l-0.083,0.042Z" style="fill:#3755be;fill-opacity:0.1;fill-rule:nonzero;"/><path d="M1858.04,1508.29c0.049,36.757 -12.317,72.475 -35.084,101.333c22.736,28.896 35.104,64.617 35.104,101.385c0,89.945 -74.013,163.958 -163.958,163.958c-89.945,0 -163.958,-74.013 -163.958,-163.958c0,-36.768 12.368,-72.489 35.104,-101.385c-21.958,-27.875 292.792,-119.75 292.792,-101.333Z" style="fill:#3755be;fill-opacity:0.1;fill-rule:nonzero;"/><path d="M1720.42,1918.58c0.291,0.459 0.5,0.917 0.791,1.375l-55.666,0c0.291,-0.458 0.5,-0.916 0.791,-1.375c-4.779,-8.34 -7.253,-17.804 -7.166,-27.416c-0.008,-6.578 1.134,-13.107 3.375,-19.292c2.24,-6.185 0,0 0,0c3.083,0.5 6.916,1.042 11.333,1.5c12.912,1.29 25.921,1.29 38.833,0c3.667,-0.375 7.542,-0.917 11.459,-1.5c0.005,0.097 0.005,0.195 0,0.292c2.195,6.093 3.309,12.523 3.291,19c0.125,9.6 -2.306,19.064 -7.041,27.416Z" style="fill:#3f3d56;fill-opacity:0.2;fill-rule:nonzero;"/><path d="M1520.38,1920.04l-309.583,0c-0.709,-1.792 -1.334,-3.667 -1.875,-5.5c-10.914,-35.102 -9.636,-72.883 3.625,-107.167c-62.063,-42.868 -86.909,-123.307 -59.834,-193.708c-6.226,-4.321 -12.156,-9.053 -17.75,-14.167l81.584,-40.667l-92.709,29.417c-30.14,-33.628 -45.104,-78.249 -41.333,-123.25l144.667,26.125l-141.084,-49c16.887,-74.409 83.592,-127.672 159.893,-127.672c89.945,0 163.958,74.014 163.958,163.959c0,20.206 -3.735,40.239 -11.017,59.088c9.691,6.716 18.643,14.44 26.708,23.042l-93.667,92.416l106.625,-76.666c32.433,44.869 40.032,103.239 20.167,154.916c60.475,41.804 85.799,119.405 61.625,188.834Z" style="fill:#3755be;fill-opacity:0.1;fill-rule:nonzero;"/><path d="M1520.38,1920.04l-309.583,0c-0.709,-1.792 -1.334,-3.667 -1.875,-5.5c-10.914,-35.102 -9.636,-72.883 3.625,-107.167c-29.167,-20.208 244.416,-200.875 250,-183.333c10.87,35.121 9.593,72.901 -3.625,107.208c60.395,41.845 85.645,119.412 61.458,188.792Z" style="fill:#3755be;fill-opacity:0.1;fill-rule:nonzero;"/><path d="M2922.25,1697.92c-18.802,31.584 -47.737,55.907 -82.083,69c1.466,11.707 1.703,23.535 0.708,35.291l-131.333,-7.875l128.25,28.042c-8.475,39.175 -30.996,73.928 -63.292,97.667l-178.75,0l0,4.625l-181.958,0c0.375,-1.584 0.75,-3.125 1.166,-4.625c13.553,-50.942 50.793,-92.387 100,-111.292c-9.534,-74.831 33.706,-147.059 104.167,-174c-0.979,-7.501 -1.439,-15.061 -1.375,-22.625l84.792,33.333l-83.834,-49.25c4.839,-44.833 27.923,-85.755 63.792,-113.083l77.25,125l-57.875,-137.5c24.367,-13.553 51.793,-20.667 79.676,-20.667c89.922,0 163.916,73.995 163.916,163.917c0,29.64 -8.039,58.732 -23.259,84.167l0.042,-0.125Z" style="fill:#3755be;fill-opacity:0.1;fill-rule:nonzero;"/><path d="M2818.21,1871.92c-11.159,18.836 -26.03,35.209 -43.708,48.125l-178.75,0l0,4.625l-181.958,0c0.375,-1.584 0.75,-3.125 1.166,-4.625c13.553,-50.942 50.793,-92.387 100,-111.292c-1.541,-11.958 33.792,-10.333 80.834,-2.417c91.958,15.417 228.666,55.125 222.416,65.584Z" style="fill:#3755be;fill-opacity:0.1;fill-rule:nonzero;"/><path d="M2043.54,1434.46c0,0 22.291,121.542 -27.709,161.167c-50,39.625 42.25,277.417 195.5,249.708c153.25,-27.708 215.334,-227.25 215.334,-227.25c0,0 -153.25,-31.666 -96.459,-192.833l-286.666,9.208Z" style="fill:#efb7b9;fill-rule:nonzero;"/><path d="M2043.54,1434.46c0,0 22.291,121.542 -27.709,161.167c-50,39.625 42.25,277.417 195.5,249.708c153.25,-27.708 215.334,-227.25 215.334,-227.25c0,0 -153.25,-31.666 -96.459,-192.833l-286.666,9.208Z" style="fill-opacity:0.1;fill-rule:nonzero;"/><circle cx="2178.96" cy="1270" r="253.625" style="fill:#efb7b9;"/><path d="M2595.75,1752.17l0,172.416l-837.5,0l0,-164.541c0.016,-42.585 25.622,-81.224 64.833,-97.834l24.042,-10.208c60.75,-25.875 134.542,-58 158.667,-71.375c2.642,-1.317 5.13,-2.924 7.416,-4.792c13.209,-13.208 10.584,3.959 10.584,3.959c0,0 -0.375,3.25 -0.625,8.916c-1.417,38.792 4.166,191.375 182.916,178.667c174.417,-12.5 182.084,-130.167 180.5,-164.792c-0.099,-3.207 -0.377,-6.407 -0.833,-9.583c0,-0.917 15,4.167 35.333,11.5c36.542,13.458 90.25,35.125 104.709,45.333c4.5,3.125 9.958,6.459 15.875,9.75c33.497,18.697 54.281,54.222 54.166,92.584l-0.083,0Z" style="fill:#3755be;fill-rule:nonzero;"/><path d="M2421.04,1604.5c-14.75,68.417 -61.084,196.583 -228.209,200c-177.958,3.5 -188.208,-173.5 -187.125,-223.708c2.664,-1.318 5.167,-2.94 7.459,-4.834c13.208,-13.208 10.583,3.959 10.583,3.959c0,0 -22.458,202.125 182.292,187.5c204.75,-14.625 179.666,-174.375 179.666,-174.375c0,-0.959 15,3.958 35.334,11.458Z" style="fill-opacity:0.1;fill-rule:nonzero;"/><path d="M1878.75,1282.54c16.667,-5.417 36.542,3.75 45.833,16.666c9.292,12.917 10.584,28.542 11.709,43.5c11.041,2.334 17.25,-10.166 18.25,-19.541c4.166,-38.375 4.375,-77.459 17.25,-114.459c12.875,-37 41,-72.833 84.25,-87.083c14.707,-5.103 30.426,-6.603 45.833,-4.375c9.125,1.542 17.75,4.708 26.875,6.208c31.542,5.209 65.917,-9.75 95.542,0.667c18.541,6.542 30.5,21.667 39,36.833c3.788,8.143 8.915,15.594 15.166,22.042c12.5,11.25 32.334,14.208 50.334,17.75c18,3.542 37.75,9.625 45.458,23.542c6.958,12.5 1.833,27.083 -0.5,40.75c-3.562,21.529 0.055,43.644 10.292,62.916c3.333,6.334 10.083,13.5 18.041,11.459c3.622,-1.222 6.685,-3.708 8.625,-7c20.834,-29.167 20.167,-67 46.125,-93.042c8.709,-8.708 19.917,-15.542 28.375,-24.417c12.991,-13.117 18.527,-31.938 14.709,-50c-4.667,-20.041 -20.834,-36.75 -33.625,-54.166c-16.814,-22.318 -29.063,-47.735 -36.042,-74.792c-1.231,-3.132 -1.231,-6.618 0,-9.75c2.448,-3.189 5.6,-5.77 9.208,-7.542c14.56,-9.655 19.718,-28.846 11.959,-44.5c-7.25,-15.125 -23.542,-26.333 -41.417,-33.083c-17.875,-6.75 -37.5,-9.625 -56.917,-12.5c-12.75,1.875 -27.708,-5.417 -31.666,-15.625c-1.75,-4.542 -1.75,-9.458 -3.542,-14c-3.458,-8.708 -13.417,-14.875 -24.125,-17c-10.891,-1.785 -22.05,-1 -32.583,2.292c-12,3.375 -25.917,8.333 -36.375,2.583c-5.5,-3.125 -8.584,-8.792 -14.5,-11.333c-12,-5.125 -24.667,5.208 -33.334,13.75c-8.408,8.898 -18.702,15.803 -30.125,20.208c-12.041,4.167 -26.875,4.167 -37.25,-2.458c-8.333,-5.292 -12.5,-13.792 -19.125,-20.542c-10.875,-11.125 -28.083,-17.167 -45.25,-18.542c-17.217,-0.904 -34.468,0.981 -51.083,5.584c-31.721,7.684 -62.027,20.341 -89.792,37.5c-13.875,8.708 -27.166,18.875 -34.416,32c-5.15,10.234 -7.806,21.543 -7.75,33c-1.292,35.875 10.625,73.708 41.666,98.833c-18.916,7.917 -25.333,27.292 -29.75,44.5c-7.083,27.417 -14.208,55.333 -11.541,83.333c1.333,14.459 5.291,28.917 3.166,43.292c-1,6.958 -3.416,13.792 -2.833,20.833c1.579,7.973 7.886,14.214 15.875,15.709Z" style="fill:#454b69;fill-rule:nonzero;"/><g opacity="0.1"><path d="M2496.25,1154.12c-2.745,5.939 -6.447,11.386 -10.958,16.125c-8.334,8.875 -19.667,15.708 -28.375,24.458c-25.959,26 -25.417,63.959 -46.125,93.042c-1.943,3.282 -5.007,5.754 -8.625,6.958c-7.959,2.042 -14.709,-5.125 -18.042,-11.458c-4.049,-7.703 -7.088,-15.895 -9.042,-24.375c-0.444,2.111 -0.861,4.236 -1.25,6.375c-3.562,21.529 0.056,43.644 10.292,62.917c3.333,6.333 10.083,13.5 18.042,11.458c3.621,-1.222 6.684,-3.707 8.625,-7c20.833,-29.167 20.166,-67 46.125,-93.042c8.708,-8.708 19.916,-15.541 28.375,-24.416c12.99,-13.118 18.526,-31.938 14.708,-50c-0.889,-3.794 -2.145,-7.492 -3.75,-11.042Z" style="fill-rule:nonzero;"/><path d="M2439.62,974.208c-3.615,1.743 -6.77,4.313 -9.208,7.5c-1.231,3.133 -1.231,6.618 0,9.75c2.402,9.445 5.48,18.705 9.208,27.709c14.743,-9.742 19.856,-29.236 11.792,-44.959c-1.173,-2.481 -2.568,-4.852 -4.167,-7.083c-2.172,2.73 -4.742,5.118 -7.625,7.083Z" style="fill-rule:nonzero;"/><path d="M1903.79,1030.38c-21.483,-17.761 -35.66,-42.851 -39.792,-70.417c-1.077,5.495 -1.69,11.07 -1.833,16.667c-1.338,26.472 5.658,52.709 20,75c4.359,-9.492 12.058,-17.057 21.625,-21.25Z" style="fill-rule:nonzero;"/><path d="M2373.83,1220.33c2.334,-13.666 7.459,-28.208 0.5,-40.75c-7.708,-13.916 -27.416,-20.041 -45.458,-23.541c-18.042,-3.5 -37.75,-6.5 -50.333,-17.75c-6.252,-6.449 -11.378,-13.899 -15.167,-22.042c-8.333,-15.167 -20.458,-30.292 -39,-36.833c-29.625,-10.417 -64,4.541 -95.542,-0.667c-9.125,-1.5 -17.75,-4.667 -26.875,-6.208c-15.39,-2.295 -31.109,-0.866 -45.833,4.166c-43.25,14.25 -71.375,50 -84.25,87.084c-12.875,37.083 -13.167,76.083 -17.25,114.458c-1,9.375 -7.208,21.875 -18.25,19.542c-1.125,-14.959 -2.5,-30.584 -11.708,-43.5c-9.209,-12.917 -28.875,-22.125 -45.834,-16.667c-5.133,-1.159 -9.686,-4.116 -12.833,-8.333c0.58,5.545 0.496,11.141 -0.25,16.666c-1,6.959 -3.417,13.792 -2.833,20.834c1.557,7.976 7.848,14.234 15.833,15.75c16.667,-5.417 36.542,3.75 45.833,16.666c9.292,12.917 10.584,28.542 11.709,43.5c11.041,2.334 17.25,-10.166 18.25,-19.541c4.166,-38.375 4.375,-77.459 17.25,-114.459c12.875,-37 41,-72.833 84.25,-87.083c14.707,-5.103 30.426,-6.603 45.833,-4.375c9.125,1.542 17.75,4.708 26.875,6.208c31.542,5.209 65.917,-9.75 95.542,0.667c18.541,6.542 30.5,21.667 39,36.833c3.788,8.143 8.915,15.594 15.166,22.042c12.5,11.25 32.334,14.208 50.334,17.75c18,3.542 36.291,9.208 44.541,22.125c0.209,-0.708 0.334,-1.625 0.5,-2.542Z" style="fill-rule:nonzero;"/><path d="M1865.83,1201.42c0.976,-11.315 0.303,-22.712 -2,-33.834c-1.782,11.733 -2.174,23.635 -1.166,35.459c0.25,3.041 0.666,6.041 1.083,9.083c0.5,-3.583 1.417,-7.125 2.083,-10.708Z" style="fill-rule:nonzero;"/></g><rect x="3411.38" y="1661.21" width="375" height="260.208" style="fill:#fff;"/><path d="M3752.96,1857.54c-5.348,8.994 -13.591,15.914 -23.375,19.625c0.424,3.33 0.493,6.696 0.209,10.041l-37.5,-2.25l36.5,8c-2.436,11.124 -8.836,20.991 -18,27.75l-50.75,0l0,1.334l-51.75,0c0,-0.459 0,-0.875 0.333,-1.334c1.11,-4.236 2.822,-8.291 5.083,-12.041c5.345,-8.981 13.57,-15.898 23.334,-19.625c-2.734,-21.29 9.57,-41.849 29.625,-49.5c-0.29,-2.126 -0.416,-4.272 -0.375,-6.417l24.125,9.5l-23.875,-14c1.362,-12.784 7.957,-24.45 18.208,-32.208l21.958,35.583l-16.458,-39.167c6.846,-3.726 14.517,-5.679 22.312,-5.679c25.6,0 46.666,21.066 46.666,46.667c0,8.343 -2.237,16.536 -6.478,23.721l0.208,0Z" style="fill:#3755be;fill-opacity:0.1;fill-rule:nonzero;"/><path d="M3723.33,1907.17c-3.193,5.358 -7.447,10.009 -12.5,13.666l-50.791,0l0,1.334l-51.75,0c0,-0.459 0,-0.875 0.333,-1.334c1.11,-4.236 2.822,-8.291 5.083,-12.041c5.345,-8.981 13.57,-15.898 23.334,-19.625c-0.417,-3.375 9.625,-2.917 23,-0.667c26.166,4.417 65.083,15.708 63.291,18.667Z" style="fill:#3755be;fill-opacity:0.1;fill-rule:nonzero;"/><path d="M3425.62,1857.54c5.348,8.994 13.591,15.914 23.375,19.625c-0.423,3.33 -0.493,6.696 -0.208,10.041l37.5,-2.25l-36.5,8c2.435,11.124 8.835,20.991 18,27.75l50.875,0l0,1.334l51.791,0c0,-0.459 -0.25,-0.875 -0.333,-1.334c-1.147,-4.223 -2.857,-8.274 -5.083,-12.041c-5.371,-8.975 -13.606,-15.889 -23.375,-19.625c2.733,-21.29 -9.571,-41.849 -29.625,-49.5c0.284,-2.127 0.423,-4.271 0.416,-6.417l-24.125,9.5l23.834,-14c-1.362,-12.784 -7.958,-24.45 -18.209,-32.208l-21.958,35.583l16.458,-39.167c-6.845,-3.726 -14.517,-5.679 -22.311,-5.679c-25.601,0 -46.667,21.066 -46.667,46.667c0,8.343 2.237,16.536 6.478,23.721l-0.333,0Z" style="fill:#3755be;fill-opacity:0.1;fill-rule:nonzero;"/><path d="M3455.25,1907.17c3.193,5.358 7.447,10.009 12.5,13.666l50.875,0l0,1.334l51.792,0c0,-0.459 -0.25,-0.875 -0.334,-1.334c-1.146,-4.223 -2.856,-8.274 -5.083,-12.041c-5.371,-8.975 -13.606,-15.889 -23.375,-19.625c0.417,-3.375 -9.625,-2.917 -23,-0.667c-26.25,4.417 -65.292,15.708 -63.375,18.667Z" style="fill:#3755be;fill-opacity:0.1;fill-rule:nonzero;"/><rect x="3552.12" y="1718.54" width="83.792" height="93.333" style="fill:#464353;"/><rect x="3552.12" y="1718.54" width="83.792" height="93.333" style="fill-opacity:0.1;"/><path d="M3516.42,1897.29l-1.709,24.25l23.917,0l1.5,-32.042l-23.708,7.792Z" style="fill:#a1616a;fill-rule:nonzero;"/><path d="M3642.42,1897.29l-3.625,24.25l21.916,0l1.375,-32.042l-19.666,7.792Z" style="fill:#a1616a;fill-rule:nonzero;"/><path d="M3573.04,1765.25c0,0 -0.834,12.125 -3.75,15.292c-2.917,3.166 26.041,31.208 48.833,3.5c0,0 -9.792,-8.334 -7.5,-17.667c2.292,-9.333 -37.583,-1.125 -37.583,-1.125Z" style="fill:#a1616a;fill-rule:nonzero;"/><path d="M3573.04,1765.25c0,0 -0.834,12.125 -3.75,15.292c-2.917,3.166 26.041,31.208 48.833,3.5c0,0 -9.792,-8.334 -7.5,-17.667c2.292,-9.333 -37.583,-1.125 -37.583,-1.125Z" style="fill-opacity:0.1;fill-rule:nonzero;"/><circle cx="3594" cy="1734.17" r="41.917" style="fill:#a1616a;"/><path d="M3591.83,1791.25c0,0 -17.583,-0.292 -20.208,-16.333c-3.484,3.011 -7.158,5.794 -11,8.333c-1.708,0.583 -18.5,10.083 -21.667,10.667c-3.097,0.627 -5.973,2.065 -8.333,4.166c-8.377,6.582 -13.454,16.522 -13.875,27.167c-0.583,18.792 -2.875,55.5 -2.875,55.5l0.875,13.292l0,8.666c0,0 15.583,4.167 25,-4.166c0,0 0,-3.167 1.75,-4.167c1.75,-1 2,-5.208 1.708,-6.958c-0.15,-2.595 -0.15,-5.197 0,-7.792c0.302,1.41 1.139,2.651 2.334,3.458c0.691,2.351 0.89,4.819 0.583,7.25c-0.875,1.709 -1.75,5.75 -0.875,6.625c0.903,1.585 0.666,3.588 -0.583,4.917c-1.59,2.225 -2.853,4.667 -3.75,7.25c-0.898,2.583 -0.875,5.167 -1.75,5.75c-0.987,2.113 -1.661,4.359 -2,6.667l104.166,0c-1.838,-5.278 -3.232,-10.699 -4.166,-16.209c0.291,-2.583 -2.584,-13.291 -0.584,-16.166c2.944,-3.81 4.568,-8.478 4.625,-13.292l1.167,11.25l-3.167,25c0,0 19.334,6.083 21.375,2.292c2.162,-6.598 3.806,-13.355 4.917,-20.209c1.111,-6.853 4.625,-20.833 5.792,-23.708c1.166,-2.875 3.75,-60.667 -11.875,-69.042c-15.625,-8.375 -45.084,-22.791 -45.834,-22.083c-3.426,8.649 -12.622,13.669 -21.75,11.875Z" style="fill:#3755be;fill-rule:nonzero;"/><path d="M3541.62,1847.75c-2.975,4.256 -4.254,9.475 -3.583,14.625c0.701,5.102 2.37,10.024 4.916,14.5" style="fill:none;fill-rule:nonzero;stroke:#000;stroke-opacity:0.1;stroke-width:4.17px;"/><path d="M3642.83,1851.71c0.749,2.119 1.334,4.292 1.75,6.5c1.515,5.582 0.509,11.556 -2.75,16.334" style="fill:none;fill-rule:nonzero;stroke:#000;stroke-opacity:0.1;stroke-width:4.17px;"/><path d="M3575.25,1705.5c3.276,-0.874 6.76,-0.518 9.792,1c2.982,1.539 6.108,2.781 9.333,3.708c2.167,0.459 4.167,0.459 6.583,0.792c8.217,1.492 14.735,7.862 16.417,16.042c1.875,10.25 -4.167,20.333 -4.167,30.791c0.023,5.984 2.131,11.776 5.959,16.375c3.213,2.93 6.016,6.28 8.333,9.959c1.208,2.666 1.458,5.708 2.625,8.333c2.548,4.718 6.771,8.316 11.833,10.083c5.021,1.687 9.864,3.864 14.459,6.5c8.333,5.542 13.25,16.167 22.916,18.459c0.97,0.419 2.072,0.419 3.042,0c0.889,-0.707 1.411,-1.781 1.417,-2.917c0.487,-4.129 -0.942,-8.262 -3.875,-11.208c-2.375,-2.375 -5.834,-4.167 -6.584,-7.375c-0.75,-3.209 1.25,-5.959 2.334,-8.875c3.458,-9.459 -2.292,-19.75 -8.834,-27.417c-6.541,-7.667 -14.375,-15.25 -15.958,-25c-0.374,-3.291 -0.5,-6.606 -0.375,-9.917c-0.12,-6.821 -1.301,-13.583 -3.5,-20.041c-1.057,-3.49 -2.752,-6.754 -5,-9.625c-2.083,-2.5 -4.75,-4.417 -6.917,-6.834c-2.878,-3.976 -5.468,-8.154 -7.75,-12.5c-6.718,-10.448 -18.206,-16.904 -30.625,-17.208c-11.708,0 -22.791,5.167 -32.708,11.375c-3.647,1.99 -6.807,4.765 -9.25,8.125c-4.167,6.625 -2.917,15.375 -5.333,22.875c-2.417,7.5 -8.125,13.042 -10.125,20.375c-0.616,2.155 -0.716,4.424 -0.292,6.625c0.744,2.322 1.735,4.557 2.958,6.667c2.214,5.364 3.469,11.076 3.709,16.875c0.625,7 0.916,14.541 -2.75,20.5c-2.846,3.612 -6.388,6.616 -10.417,8.833c4.084,3.314 9.302,4.914 14.542,4.458c7.916,0.334 17.083,0 22,-6.25c2.941,-4.486 4.128,-9.903 3.333,-15.208c-0.389,-5.799 -1.566,-11.519 -3.5,-17c-2.708,-7.708 -6.875,-15 -8.083,-23.083c-0.957,-5.89 0.551,-11.921 4.166,-16.667c1.5,-1.875 4.167,-2.833 5.417,-4.833c1.583,-2.667 1.125,-5.459 4.875,-6.792Z" style="fill:#464353;fill-rule:nonzero;"/><g opacity="0.1"><path d="M3541.96,1744.12c2.214,5.365 3.469,11.077 3.709,16.875c0,1.833 0.291,3.708 0.333,5.583c0.437,-4.071 0.437,-8.178 0,-12.25c-0.255,-5.729 -1.511,-11.369 -3.708,-16.666c-1.198,-2.108 -2.189,-4.327 -2.959,-6.625c-0.616,2.14 -0.716,4.396 -0.291,6.583c0.741,2.263 1.719,4.442 2.916,6.5Z" style="fill-rule:nonzero;"/><path d="M3569.42,1782.54c-4.917,6.208 -14.084,6.583 -22,6.291c-3.349,0.011 -6.68,-0.495 -9.875,-1.5c-1.584,1.292 -3.292,2.5 -4.959,3.667c4.085,3.314 9.302,4.914 14.542,4.458c7.917,0.334 17.083,0 22,-6.25c2.816,-4.167 4.031,-9.216 3.417,-14.208c-0.37,2.742 -1.448,5.341 -3.125,7.542Z" style="fill-rule:nonzero;"/><path d="M3673.62,1799.21c0.116,0.476 0.284,0.937 0.5,1.375c0.5,-1.166 1.083,-2.375 1.542,-3.583c1,-2.744 1.286,-5.698 0.833,-8.583c-0.142,0.663 -0.323,1.316 -0.542,1.958c-1.083,2.917 -3.041,5.833 -2.333,8.833Z" style="fill-rule:nonzero;"/><path d="M3617.62,1729.04c0.479,-2.855 0.479,-5.77 0,-8.625c-1.671,-8.185 -8.195,-14.56 -16.417,-16.042c-2.208,-0.375 -4.416,-0.375 -6.583,-0.792c-3.219,-0.945 -6.343,-2.187 -9.333,-3.708c-3.026,-1.532 -6.511,-1.903 -9.792,-1.042c-3.75,1.334 -3.292,4.167 -4.958,6.917c-1.209,2 -3.917,3 -5.417,4.833c-3.301,4.403 -4.793,9.908 -4.167,15.375c0.522,-3.187 1.857,-6.187 3.875,-8.708c1.5,-1.875 4.167,-2.833 5.417,-4.833c1.667,-2.792 1.208,-5.584 4.958,-6.917c3.276,-0.874 6.761,-0.518 9.792,1c2.982,1.539 6.108,2.781 9.333,3.708c2.167,0.459 4.167,0.459 6.584,0.792c8.216,1.492 14.735,7.862 16.416,16.042c0.139,0.66 0.236,1.328 0.292,2Z" style="fill-rule:nonzero;"/><path d="M3682.5,1820.75c-0.977,0.383 -2.064,0.383 -3.042,0c-9.666,-2.292 -14.666,-12.917 -22.916,-18.458c-4.612,-2.603 -9.451,-4.778 -14.459,-6.5c-5.059,-1.75 -9.284,-5.334 -11.833,-10.042c-1.167,-2.708 -1.417,-5.708 -2.625,-8.333c-2.319,-3.678 -5.122,-7.027 -8.333,-9.959c-3.472,-4.132 -5.57,-9.245 -6,-14.625c-0.249,1.613 -0.375,3.243 -0.375,4.875c0.075,6.063 2.289,11.909 6.25,16.5c3.213,2.93 6.016,6.28 8.333,9.959c1.208,2.666 1.458,5.708 2.625,8.333c2.548,4.718 6.771,8.316 11.833,10.083c5.021,1.687 9.864,3.864 14.459,6.5c8.333,5.542 13.25,16.167 22.916,18.459c0.97,0.419 2.072,0.419 3.042,0c0.885,-0.711 1.405,-1.782 1.417,-2.917c0.188,-1.572 0.103,-3.165 -0.25,-4.708c-0.267,0.365 -0.627,0.653 -1.042,0.833Z" style="fill-rule:nonzero;"/></g><rect x="3449.62" y="1680.33" width="53.583" height="76.542" style="fill:#3755be;fill-opacity:0.1;"/><rect x="3457.29" y="1691.29" width="38.25" height="54.667" style="fill:#3755be;fill-opacity:0.1;"/><rect x="3679.21" y="1691.83" width="88" height="45.917" style="fill:#3755be;fill-opacity:0.1;"/><rect x="3690.71" y="1697.83" width="65.042" height="33.958" style="fill:#3755be;fill-opacity:0.1;"/></svg>