<?xml version="1.0" encoding="UTF-8" standalone="no"?><!DOCTYPE svg PUBLIC "-//W3C//DTD SVG 1.1//EN" "http://www.w3.org/Graphics/SVG/1.1/DTD/svg11.dtd"><svg width="100%" height="100%" viewBox="0 0 2000 2000" version="1.1" xmlns="http://www.w3.org/2000/svg" xmlns:xlink="http://www.w3.org/1999/xlink" xml:space="preserve" xmlns:serif="http://www.serif.com/" style="fill-rule:evenodd;clip-rule:evenodd;stroke-linejoin:round;stroke-miterlimit:1.41421;"><g><path d="M646.667,1007.08c277.916,0 503.333,-225.416 503.333,-503.333c0,-277.917 -225.417,-503.75 -503.333,-503.75c-277.917,0 -503.334,225.417 -503.334,503.333c0,277.917 225.417,503.75 503.334,503.75Zm-175.834,-304.583c4.584,-16.667 9.167,-32.917 14.167,-49.583c5.833,-19.167 11.25,-21.25 28.75,-12.084c30,15.417 61.667,24.167 95,28.334c21.25,2.5 42.5,0.416 62.083,-8.334c37.084,-16.25 42.917,-59.166 11.667,-85c-10.833,-8.75 -22.917,-15.416 -35.417,-20.833c-32.5,-14.167 -66.25,-25 -97.083,-43.333c-49.583,-29.584 -81.25,-70.834 -77.5,-131.25c4.167,-68.334 42.917,-111.25 105.417,-133.75c25.833,-9.584 25.833,-9.167 26.25,-36.25l0,-27.5c0.416,-20.417 4.166,-23.75 24.166,-24.584l18.75,0c43.334,0 43.334,0 43.334,43.334c0,30.416 0,30.833 30.416,35.416c23.334,3.75 45.417,10.417 67.084,20c12.083,5.417 16.25,13.75 12.916,26.25c-5.416,18.75 -10.416,37.5 -16.666,55.834c-5.834,17.5 -11.25,20 -27.917,12.083c-33.75,-16.25 -69.167,-23.333 -106.667,-21.25c-10,0.417 -19.166,1.667 -28.333,5.833c-32.083,14.167 -37.5,49.584 -10,71.667c13.75,11.25 29.583,19.167 46.25,25.833c28.333,11.667 57.083,23.334 84.583,38.334c86.25,47.916 109.584,156.25 48.75,230c-22.083,26.666 -50.416,44.583 -84.166,53.75c-14.584,4.166 -21.25,11.666 -20.417,26.666c0.833,15 0,29.584 0,44.584c0,13.333 -6.667,20.416 -20,20.833c-15.833,0.417 -32.083,0.417 -47.917,0c-14.166,-0.417 -20.833,-8.333 -20.833,-22.083c0,-10.834 0,-21.667 -0.417,-32.5c-0.416,-23.75 -0.833,-25 -24.166,-28.75c-29.584,-4.584 -58.334,-11.25 -85.417,-24.584c-20.417,-9.583 -22.5,-15 -16.667,-37.083Z" style="fill:#3855be;fill-rule:nonzero;"/><path d="M1775.83,1049.17l-58.75,0c-38.75,-118.75 -114.583,-224.167 -215.833,-305.834c0,-3.75 -0.833,-7.916 -1.667,-11.666c-21.25,-74.584 5,-142.5 35.417,-191.25c21.25,-34.167 -6.25,-77.917 -46.25,-72.917c-89.583,11.25 -151.25,44.167 -193.75,81.25c-29.167,25.417 -50,59.583 -59.167,97.5c-64.166,265.833 -303.75,463.75 -589.166,463.75c-138.75,0 -266.25,-46.667 -368.334,-125c-35.416,76.667 -54.583,160.417 -54.583,248.333c0,47.5 5.833,93.75 16.667,138.334c0,0 0,0.833 0.416,2.083c11.25,46.25 28.334,90.833 50,132.917c28.75,62.083 70.417,134.583 127.917,193.333c82.917,85.417 97.083,191.25 99.167,237.083l0,22.5c1.666,22.5 20.416,40.417 43.333,40.417l263.333,0c23.75,0 43.334,-19.167 43.334,-43.333l0,-65c38.333,5 77.5,7.916 117.083,7.916c31.25,0 61.667,-1.666 92.083,-5l0,62.084c0,23.75 19.167,43.333 43.334,43.333l264.166,0c23.75,0 43.334,-19.167 43.334,-43.333l0,-65c0.416,-21.667 7.916,-107.917 89.583,-181.667c2.917,-2.5 5.833,-5 8.75,-7.5c0.833,-0.833 1.667,-1.25 2.5,-2.083c90.833,-80.834 157.917,-181.667 192.5,-294.167l55.417,0c44.166,0 80,-35.833 80,-80l0,-197.083c-0.834,-44.167 -36.667,-80 -80.834,-80Zm-329.583,14.166c-36.25,0 -65.417,-29.166 -65.417,-65.416c0,-36.25 29.167,-65.417 65.417,-65.417c36.25,0 65.417,29.167 65.417,65.417c0,36.25 -29.167,65.416 -65.417,65.416Z" style="fill:#3855be;fill-rule:nonzero;"/></g></svg>