<?xml version="1.0" encoding="UTF-8" standalone="no"?><!DOCTYPE svg PUBLIC "-//W3C//DTD SVG 1.1//EN" "http://www.w3.org/Graphics/SVG/1.1/DTD/svg11.dtd"><svg width="100%" height="100%" viewBox="0 0 2134 2134" version="1.1" xmlns="http://www.w3.org/2000/svg" xmlns:xlink="http://www.w3.org/1999/xlink" xml:space="preserve" xmlns:serif="http://www.serif.com/" style="fill-rule:evenodd;clip-rule:evenodd;stroke-linejoin:round;stroke-miterlimit:1.41421;"><g><path d="M2023.93,1.121l-1914.53,0c-60.421,0 -109.4,48.979 -109.4,109.404l0,574.825c0,60.421 48.979,109.4 109.4,109.4l1914.53,0c60.421,0 109.4,-48.979 109.4,-109.4l0,-574.825c0.004,-60.425 -48.975,-109.404 -109.396,-109.404Zm-825.07,451.517l-807.642,0c-30.213,0 -54.7,-24.492 -54.7,-54.7c0,-30.209 24.492,-54.7 54.7,-54.7l807.642,0c30.212,0 54.7,24.487 54.7,54.7c0,30.212 -24.488,54.7 -54.7,54.7Zm421.829,107.066c-89.2,0 -161.767,-72.566 -161.767,-161.766c0,-89.196 72.567,-161.767 161.767,-161.767c89.196,0 161.766,72.571 161.766,161.767c0,89.195 -72.57,161.766 -161.766,161.766Z" style="fill:#3855be;fill-rule:nonzero;"/><path d="M2051.28,1968.11l-902.583,0l0,-133.575c0,-15.104 -12.246,-27.35 -27.35,-27.35l-109.4,0c-15.104,0 -27.35,12.246 -27.35,27.35l0,133.575l-902.55,0c-45.312,0 -82.05,36.738 -82.05,82.054c0,45.313 36.738,82.051 82.05,82.051l1969.23,0c45.313,0 82.05,-36.738 82.05,-82.05c0,-45.313 -36.733,-82.055 -82.046,-82.055Z" style="fill:#3855be;fill-rule:nonzero;"/><path d="M2023.93,904.15l-1914.53,0c-60.421,0 -109.4,48.979 -109.4,109.4l0,574.825c0,60.421 48.979,109.4 109.4,109.4l1914.53,0c60.421,0 109.4,-48.979 109.4,-109.4l0,-574.825c0.004,-60.417 -48.975,-109.4 -109.396,-109.4Zm-825.07,451.517l-807.642,0c-30.213,0 -54.7,-24.492 -54.7,-54.7c0,-30.213 24.492,-54.7 54.7,-54.7l807.642,0c30.212,0 54.7,24.491 54.7,54.7c0,30.208 -24.488,54.7 -54.7,54.7Zm421.829,107.066c-89.2,0 -161.767,-72.566 -161.767,-161.766c0,-89.196 72.567,-161.767 161.767,-161.767c89.196,0 161.766,72.567 161.766,161.767c0,89.2 -72.57,161.766 -161.766,161.766Z" style="fill:#3855be;fill-rule:nonzero;"/></g></svg>