<?xml version="1.0" encoding="UTF-8" standalone="no"?><!DOCTYPE svg PUBLIC "-//W3C//DTD SVG 1.1//EN" "http://www.w3.org/Graphics/SVG/1.1/DTD/svg11.dtd"><svg width="100%" height="100%" viewBox="0 0 8892 8892" version="1.1" xmlns="http://www.w3.org/2000/svg" xmlns:xlink="http://www.w3.org/1999/xlink" xml:space="preserve" xmlns:serif="http://www.serif.com/" style="fill-rule:evenodd;clip-rule:evenodd;stroke-linejoin:round;stroke-miterlimit:1.41421;"><path d="M6006.96,0l-3125,0c-143.841,0 -260.416,116.579 -260.416,260.417l0,1909.72c0,143.841 116.575,260.416 260.416,260.416l3125,0c143.838,0 260.417,-116.575 260.417,-260.416l0,-1909.72c0,-143.838 -116.579,-260.417 -260.417,-260.417Z" style="fill:#3855be;fill-rule:nonzero;"/><path d="M6006.96,3229.17l-3125,0c-143.841,0 -260.416,116.579 -260.416,260.416l0,1909.72c0,143.842 116.575,260.417 260.416,260.417l3125,0c143.838,0 260.417,-116.575 260.417,-260.417l0,-1909.72c0,-143.837 -116.579,-260.416 -260.417,-260.416Z" style="fill:#3855be;fill-rule:nonzero;"/><path d="M6006.96,6458.33l-3125,0c-143.841,0 -260.416,116.579 -260.416,260.417l0,1909.72c0,143.841 116.575,260.416 260.416,260.416l3125,0.001c143.838,-0.001 260.417,-116.576 260.417,-260.417l0,-1909.72c0,-143.838 -116.579,-260.417 -260.417,-260.417Z" style="fill:#3855be;fill-rule:nonzero;"/><path d="M7934.04,1354.17l-1041.67,0c-143.842,0 -260.417,116.579 -260.417,260.416c0,143.838 116.575,260.417 260.417,260.417l1041.67,0c239.325,0 434.025,194.704 434.025,434.029l0,1041.67c0,239.325 -194.7,434.025 -434.025,434.025l-412.938,0l249.838,-249.904c101.725,-101.659 101.725,-266.588 0,-368.246c-101.659,-101.725 -266.588,-101.725 -368.246,0l-694.446,694.446c-101.725,101.658 -101.725,266.521 0,368.246l694.446,694.441c50.796,50.863 117.458,76.296 184.121,76.296c66.666,0 133.329,-25.433 184.125,-76.296c101.725,-101.654 101.725,-266.587 0,-368.241l-249.838,-249.909l412.938,0c526.529,0 954.858,-428.329 954.858,-954.858l0,-1041.67c0,-526.533 -428.329,-954.862 -954.858,-954.862Z" style="fill:#3855be;fill-rule:nonzero;"/><path d="M1486.2,6395.75c-101.654,-101.725 -266.587,-101.725 -368.241,0c-101.73,101.658 -101.73,266.588 0,368.246l249.833,249.904l-412.933,0c-239.325,0 -434.03,-194.7 -434.03,-434.025l0,-1041.67c0,-239.325 194.705,-434.029 434.03,-434.029l1041.67,0c143.838,0 260.417,-116.579 260.417,-260.416c0,-143.838 -116.579,-260.417 -260.417,-260.417l-1041.67,0c-526.534,0 -954.863,428.329 -954.863,954.862l0,1041.67c0,526.529 428.329,954.858 954.863,954.858l412.933,0l-249.833,249.909c-101.73,101.654 -101.73,266.587 0,368.241c50.791,50.863 117.458,76.296 184.12,76.296c66.663,0 133.33,-25.433 184.121,-76.296l694.446,-694.441c101.725,-101.659 101.725,-266.588 0,-368.246l-694.446,-694.446Z" style="fill:#3855be;fill-rule:nonzero;"/></svg>