<?xml version="1.0" encoding="UTF-8" standalone="no"?><!DOCTYPE svg PUBLIC "-//W3C//DTD SVG 1.1//EN" "http://www.w3.org/Graphics/SVG/1.1/DTD/svg11.dtd"><svg width="100%" height="100%" viewBox="0 0 1900 1900" version="1.1" xmlns="http://www.w3.org/2000/svg" xmlns:xlink="http://www.w3.org/1999/xlink" xml:space="preserve" xmlns:serif="http://www.serif.com/" style="fill-rule:evenodd;clip-rule:evenodd;stroke-linejoin:round;stroke-miterlimit:1.41421;"><path d="M783.271,1300.01c0,18.408 -14.925,33.333 -33.333,33.333c-18.408,0 -33.333,-14.925 -33.333,-33.333c0,-18.408 14.925,-33.332 33.333,-33.332c18.408,0 33.333,14.924 33.333,33.332Z" style="fill:#3855be;fill-rule:nonzero;"/><path d="M583.274,833.352l0,266.663l733.322,0l0,-266.663l-733.322,0Zm166.664,233.33c-55.24,0 -99.998,-44.775 -99.998,-99.999c0,-55.223 44.758,-99.998 99.998,-99.998c55.224,0 99.999,44.775 99.999,99.998c-0.163,55.159 -44.84,99.836 -99.999,99.999Zm233.33,-99.999l-66.666,0l0,-66.665l66.666,0l0,66.665Zm133.331,0l-66.666,0l0,-66.665l66.666,0l0,66.665Zm133.331,0l-66.666,0l0,-66.665l66.666,0l0,66.665Z" style="fill:#3855be;fill-rule:nonzero;"/><path d="M783.271,966.683c0,18.408 -14.925,33.333 -33.333,33.333c-18.408,0 -33.333,-14.925 -33.333,-33.333c0,-18.407 14.925,-33.332 33.333,-33.332c18.408,0 33.333,14.925 33.333,33.332Z" style="fill:#3855be;fill-rule:nonzero;"/><path d="M583.274,1166.68l0,266.662l733.322,0l0,-266.662l-733.322,0Zm166.664,233.33c-55.24,0 -99.998,-44.775 -99.998,-99.999c0,-55.223 44.758,-99.998 99.998,-99.998c55.224,0 99.999,44.775 99.999,99.998c-0.163,55.159 -44.84,99.836 -99.999,99.999Zm233.33,-99.999l-66.666,0l0,-66.665l66.666,0l0,66.665Zm133.331,0l-66.666,0l0,-66.665l66.666,0l0,66.665Zm133.331,0l-66.666,0l0,-66.665l66.666,0l0,66.665Z" style="fill:#3855be;fill-rule:nonzero;"/><path d="M583.274,1500.01l0,266.662l733.322,0l0,-266.662l-733.322,0Zm166.664,233.33c-55.24,0 -99.998,-44.775 -99.998,-99.999c0,-55.224 44.758,-99.998 99.998,-99.998c55.224,0 99.999,44.774 99.999,99.998c-0.163,55.159 -44.84,99.836 -99.999,99.999Zm233.33,-99.999l-66.666,0l0,-66.665l66.666,0l0,66.665Zm133.331,0l-66.666,0l0,-66.665l66.666,0l0,66.665Zm133.331,0l-66.666,0l0,-66.665l66.666,0l0,66.665Z" style="fill:#3855be;fill-rule:nonzero;"/><path d="M1881.25,839.016c-24.528,207.321 -201.234,362.917 -410.003,360.997l-87.987,0l0,-366.661c-0.114,-36.767 -29.898,-66.551 -66.665,-66.665l-733.322,0c-36.783,0.114 -66.568,29.898 -66.665,66.665l0,366.661l-190.004,0c-157.094,1.676 -290.181,-115.33 -308.654,-271.334c-12.971,-142.217 75.487,-274.051 211.992,-315.994c12.63,-3.564 21.94,-14.306 23.665,-27.327c24.154,-182.126 179.278,-318.305 362.999,-318.663c5.322,0 10.335,0.325 15.332,0.667l6.657,0.326c13.134,0.96 25.585,-5.974 31.672,-17.66c92.284,-176.364 286.389,-274.67 483.163,-244.722c196.79,29.947 352.842,181.556 388.486,377.386c2.458,13.151 12.582,23.551 25.667,26.335c198.451,43.081 333.247,227.86 313.667,429.989Z" style="fill:#3855be;fill-rule:nonzero;"/><path d="M783.271,1633.34c0,18.408 -14.925,33.333 -33.333,33.333c-18.408,0 -33.333,-14.925 -33.333,-33.333c0,-18.408 14.925,-33.333 33.333,-33.333c18.408,0 33.333,14.925 33.333,33.333Z" style="fill:#3855be;fill-rule:nonzero;"/><rect x="649.94" y="1833.34" width="599.99" height="66.666" style="fill:#3855be;fill-rule:nonzero;"/></svg>