<?xml version="1.0" encoding="UTF-8" standalone="no"?><!DOCTYPE svg PUBLIC "-//W3C//DTD SVG 1.1//EN" "http://www.w3.org/Graphics/SVG/1.1/DTD/svg11.dtd"><svg width="100%" height="100%" viewBox="0 0 857 857" version="1.1" xmlns="http://www.w3.org/2000/svg" xmlns:xlink="http://www.w3.org/1999/xlink" xml:space="preserve" xmlns:serif="http://www.serif.com/" style="fill-rule:evenodd;clip-rule:evenodd;stroke-linejoin:round;stroke-miterlimit:1.41421;"><path d="M825,595.833l-51.042,0l0,-101.387c0,-17.258 -13.987,-31.25 -31.25,-31.25l-283.333,0l0,-119.446l180.208,0c17.263,0 31.25,-13.992 31.25,-31.25l0,-247.917c0,-17.258 -13.987,-31.25 -31.25,-31.25l-422.916,0c-17.263,0 -31.25,13.992 -31.25,31.25l0,247.917c0,17.258 13.987,31.25 31.25,31.25l180.208,0l0,119.446l-283.333,0c-17.263,0 -31.25,13.992 -31.25,31.25l0,101.387l-51.042,0c-17.262,0 -31.25,13.992 -31.25,31.25l0,164.584c0,17.258 13.988,31.25 31.25,31.25l164.583,0c17.263,0 31.25,-13.992 31.25,-31.25l0,-164.584c0,-17.258 -13.987,-31.25 -31.25,-31.25l-51.041,0l0,-70.137l252.083,0l0,70.137l-51.042,0c-17.262,0 -31.25,13.992 -31.25,31.25l0,164.584c0,17.258 13.988,31.25 31.25,31.25l164.584,0c17.262,0 31.25,-13.992 31.25,-31.25l0,-164.584c0,-17.258 -13.988,-31.25 -31.25,-31.25l-51.042,0l0,-70.137l252.083,0l0,70.137l-51.041,0c-17.263,0 -31.25,13.992 -31.25,31.25l0,164.584c0,17.258 13.987,31.25 31.25,31.25l164.583,0c17.263,0 31.25,-13.992 31.25,-31.25l0,-164.584c0,-17.258 -13.987,-31.25 -31.25,-31.25Z" style="fill:#3855be;fill-rule:nonzero;"/></svg>