<?xml version="1.0" encoding="UTF-8" standalone="no"?><!DOCTYPE svg PUBLIC "-//W3C//DTD SVG 1.1//EN" "http://www.w3.org/Graphics/SVG/1.1/DTD/svg11.dtd"><svg width="100%" height="100%" viewBox="0 0 1238 1238" version="1.1" xmlns="http://www.w3.org/2000/svg" xmlns:xlink="http://www.w3.org/1999/xlink" xml:space="preserve" xmlns:serif="http://www.serif.com/" style="fill-rule:evenodd;clip-rule:evenodd;stroke-linejoin:round;stroke-miterlimit:1.41421;"><g><path d="M620.208,241.967c64.442,0 116.863,-52.425 116.863,-116.863c0,-64.437 -52.425,-116.862 -116.863,-116.862c-64.437,0 -116.862,52.425 -116.862,116.862c0,64.442 52.425,116.863 116.862,116.863Z" style="fill:#3855be;fill-rule:nonzero;"/><path d="M435.963,600.45l368.45,0c23.995,0 43.445,-19.454 43.445,-43.45l0,-160.65c0,-44.471 -28.579,-83.904 -70.837,-97.75l-0.196,-0.067l-61.813,-10.233c-5.262,-1.617 -10.883,1.167 -12.775,6.358l-70.133,192.438c-4.046,11.1 -19.746,11.1 -23.792,0l-70.137,-192.438c-1.529,-4.191 -5.483,-6.816 -9.721,-6.816c-1.004,0 -64.862,10.683 -64.862,10.683c-42.609,14.196 -71.075,53.696 -71.075,98.358l0,160.121c0,23.996 19.45,43.446 43.445,43.446Z" style="fill:#3855be;fill-rule:nonzero;"/><path d="M1153.08,896.942c-0.229,-0.075 -0.458,-0.15 -0.688,-0.221l-33.449,-10.258c-10.063,-3.084 -20.988,-0.646 -28.78,6.395l-72.112,65.196l-72.113,-65.196c-7.791,-7.045 -18.72,-9.487 -28.779,-6.395l-33.454,10.258c-0.229,0.071 -0.458,0.146 -0.688,0.221c-50.5,16.833 -84.424,63.908 -84.424,117.137l0,185.321c0,16.492 13.366,29.858 29.858,29.858l379.192,0c16.491,0 29.858,-13.366 29.858,-29.858l0,-185.321c0.004,-53.229 -33.925,-100.304 -84.421,-117.137Z" style="fill:#3855be;fill-rule:nonzero;"/><path d="M1018.05,865.867c68.733,0 124.654,-55.921 124.654,-124.654c0,-68.734 -55.921,-124.655 -124.654,-124.655c-68.738,0 -124.659,55.921 -124.659,124.654c0,68.734 55.921,124.655 124.659,124.655Z" style="fill:#3855be;fill-rule:nonzero;"/><path d="M354.483,896.942c-0.229,-0.075 -0.458,-0.15 -0.687,-0.221l-33.45,-10.258c-10.059,-3.092 -20.988,-0.65 -28.779,6.395l-72.117,65.196l-72.113,-65.196c-7.791,-7.045 -18.72,-9.487 -28.779,-6.395c0,0 -33.904,10.404 -34.137,10.479c-50.492,16.833 -84.421,63.908 -84.421,117.137l0,185.321c0,16.492 13.367,29.858 29.858,29.858l379.192,0c16.492,0 29.858,-13.366 29.858,-29.858l0,-185.321c0,-53.229 -33.925,-100.304 -84.425,-117.137Z" style="fill:#3855be;fill-rule:nonzero;"/><path d="M94.796,741.208c0,68.734 55.921,124.654 124.654,124.654c68.738,0 124.658,-55.92 124.658,-124.654c0,-68.733 -55.92,-124.654 -124.658,-124.654c-68.733,0 -124.654,55.921 -124.654,124.654Z" style="fill:#3855be;fill-rule:nonzero;"/><path d="M1052.11,412.483c-10.212,-3.058 -21.716,-0.979 -30.312,6.579c-13.271,11.663 -14.575,31.88 -2.913,45.15l43.734,49.767c6.075,6.909 14.829,10.871 24.029,10.871c9.2,0 17.958,-3.962 24.029,-10.871l43.733,-49.767c11.663,-13.27 10.359,-33.487 -2.912,-45.15c-9.904,-8.704 -23.671,-10.17 -34.867,-4.854c-6.508,-69.875 -33.733,-135.441 -78.846,-186.775c-11.662,-13.271 -31.875,-14.579 -45.15,-2.912c-13.27,11.662 -14.575,31.879 -2.912,45.15c34.508,39.262 55.937,89.183 62.387,142.812Z" style="fill:#3855be;fill-rule:nonzero;"/><path d="M129.7,513.979c6.075,6.909 14.829,10.871 24.029,10.871c9.2,0 17.959,-3.962 24.029,-10.871l43.734,-49.767c11.662,-13.27 10.358,-33.487 -2.913,-45.149c-8.6,-7.555 -20.1,-9.634 -30.312,-6.576c6.45,-53.629 27.879,-103.55 62.383,-142.812c11.663,-13.271 10.358,-33.487 -2.912,-45.15c-13.275,-11.662 -33.488,-10.354 -45.15,2.913c-45.109,51.333 -72.334,116.9 -78.846,186.77c-11.2,-5.32 -24.963,-3.85 -34.867,4.855c-13.271,11.662 -14.575,31.879 -2.912,45.15l43.737,49.766Z" style="fill:#3855be;fill-rule:nonzero;"/><path d="M644.254,290.138c-2.696,-2.938 -6.641,-4.417 -10.629,-4.417l-29.75,0c-3.987,0 -7.933,1.479 -10.629,4.416c-4.175,4.55 -4.779,11.121 -1.817,16.259l15.904,23.975l-7.445,62.804l14.658,39c1.429,3.921 6.975,3.921 8.404,0l14.658,-39l-7.445,-62.804l15.904,-23.975c2.966,-5.138 2.362,-11.709 -1.813,-16.259Z" style="fill:#3855be;fill-rule:nonzero;"/></g></svg>