<?xml version="1.0" encoding="UTF-8" standalone="no"?>
<!DOCTYPE svg PUBLIC "-//W3C//DTD SVG 1.1//EN" "http://www.w3.org/Graphics/SVG/1.1/DTD/svg11.dtd">
<svg width="100%" height="100%" viewBox="0 0 200 200" version="1.1" xmlns="http://www.w3.org/2000/svg" xmlns:xlink="http://www.w3.org/1999/xlink" xml:space="preserve" style="fill-rule:evenodd;clip-rule:evenodd;stroke-linejoin:round;stroke-miterlimit:1.41421;">
    <g transform="matrix(391.446,0,0,391.446,20.0742,19.9805)">
        <path d="M0.099,0.179L0.229,0.31L0.358,0.18C0.375,0.164 0.383,0.14 0.386,0.116C0.39,0.083 0.385,0.049 0.378,0.03C0.36,0.024 0.326,0.019 0.292,0.023C0.268,0.026 0.244,0.034 0.228,0.05L0.099,0.179L0.099,0.179ZM0.08,0.191L0.008,0.172C0.002,0.17 -0.001,0.164 0,0.159C0.001,0.157 0.002,0.155 0.003,0.154L0.073,0.084C0.075,0.082 0.078,0.081 0.081,0.081L0.166,0.082L0.213,0.035C0.233,0.015 0.261,0.005 0.29,0.002C0.33,-0.003 0.371,0.004 0.39,0.012C0.393,0.013 0.395,0.015 0.396,0.018C0.404,0.037 0.412,0.079 0.407,0.119C0.403,0.147 0.394,0.175 0.374,0.195L0.327,0.242L0.327,0.327C0.327,0.33 0.326,0.333 0.324,0.336L0.254,0.405C0.253,0.407 0.252,0.408 0.25,0.408C0.244,0.41 0.238,0.406 0.237,0.4L0.217,0.329L0.218,0.329L0.08,0.191L0.08,0.191ZM0.145,0.103L0.085,0.103L0.031,0.156L0.079,0.169L0.145,0.103ZM0.24,0.329L0.252,0.377L0.306,0.324L0.306,0.263L0.24,0.329L0.24,0.329ZM0.155,0.329C0.159,0.325 0.166,0.325 0.17,0.329C0.174,0.333 0.174,0.34 0.17,0.344L0.116,0.399C0.111,0.403 0.105,0.403 0.1,0.399C0.096,0.395 0.096,0.388 0.1,0.384L0.155,0.329L0.155,0.329ZM0.109,0.284C0.114,0.28 0.12,0.28 0.125,0.284C0.129,0.288 0.129,0.295 0.125,0.299L0.043,0.381C0.039,0.385 0.032,0.385 0.028,0.381C0.024,0.376 0.024,0.37 0.028,0.365L0.109,0.284ZM0.064,0.238C0.068,0.234 0.075,0.234 0.079,0.238C0.083,0.243 0.083,0.249 0.079,0.254L0.025,0.308C0.021,0.312 0.014,0.312 0.01,0.308C0.006,0.304 0.006,0.297 0.01,0.293L0.064,0.238ZM0.292,0.116C0.302,0.126 0.307,0.138 0.307,0.151C0.307,0.164 0.302,0.176 0.292,0.186C0.283,0.195 0.27,0.2 0.257,0.2C0.245,0.2 0.232,0.195 0.223,0.186C0.213,0.176 0.208,0.164 0.208,0.151C0.208,0.138 0.213,0.126 0.223,0.116C0.232,0.107 0.245,0.102 0.257,0.102C0.27,0.102 0.283,0.107 0.292,0.116ZM0.285,0.151C0.285,0.144 0.282,0.137 0.277,0.131C0.272,0.126 0.264,0.123 0.257,0.123C0.25,0.123 0.243,0.126 0.238,0.131C0.232,0.137 0.23,0.144 0.23,0.151C0.23,0.158 0.232,0.165 0.238,0.171C0.243,0.176 0.25,0.179 0.257,0.179C0.264,0.179 0.272,0.176 0.277,0.171C0.282,0.165 0.285,0.158 0.285,0.151Z" style="fill-rule:nonzero;"/>
    </g>
</svg>
