<?xml version="1.0" encoding="UTF-8" standalone="no"?>
<!DOCTYPE svg PUBLIC "-//W3C//DTD SVG 1.1//EN" "http://www.w3.org/Graphics/SVG/1.1/DTD/svg11.dtd">
<svg width="100%" height="100%" viewBox="0 0 200 200" version="1.1" xmlns="http://www.w3.org/2000/svg" xmlns:xlink="http://www.w3.org/1999/xlink" xml:space="preserve" style="fill-rule:evenodd;clip-rule:evenodd;stroke-linejoin:round;stroke-miterlimit:1.41421;">
    <g transform="matrix(2.5,0,0,2.5,20,20)">
        <path d="M46,3L18,3C15.794,3 14,4.794 14,7L16,7C16,5.897 16.897,5 18,5L46,5C47.103,5 48,5.897 48,7L48,13L20,13L20,9L2,9L2,27L20,27L20,15L48,15L48,49L25,49L25,45L2,45L2,55L25,55L25,51L48,51L48,57C48,58.103 47.103,59 46,59L18,59C16.897,59 16,58.103 16,57L14,57C14,59.206 15.794,61 18,61L46,61C48.206,61 50,59.206 50,57L50,29L50,27L50,21L50,19L50,7C50,4.794 48.206,3 46,3ZM18,25L4,25L4,11L18,11L18,25ZM23,53L4,53L4,47L23,47L23,53ZM35,54L35,56L29,56L29,54L35,54ZM37,8L37,10L31,10L31,8L37,8ZM29,8L29,10L27,10L27,8L29,8ZM16,29L16,43L14,43L14,29L16,29ZM32,33C33.654,33 35,31.654 35,30C35,28.346 33.654,27 32,27C30.346,27 29,28.346 29,30C29,31.654 30.346,33 32,33ZM32,29C32.552,29 33,29.449 33,30C33,30.551 32.552,31 32,31C31.449,31 31,30.551 31,30C31,29.449 31.449,29 32,29ZM42,32C42,26.486 37.514,22 32,22C26.486,22 22,26.486 22,32C22,37.514 26.486,42 32,42C37.514,42 42,37.514 42,32ZM28.141,39.003C28.584,37.257 30.143,36 32,36C33.856,36 35.416,37.257 35.859,39.003C34.715,39.637 33.399,40 32,40C30.601,40 29.286,39.637 28.141,39.003ZM24,32C24,27.589 27.589,24 32,24C36.411,24 40,27.589 40,32C40,34.261 39.053,36.302 37.539,37.759C36.649,35.539 34.511,34 32,34C29.489,34 27.351,35.539 26.461,37.759C24.947,36.302 24,34.262 24,32ZM60,27L62,27L62,29L60,29L60,27ZM54,29L52,29L52,27L54,27L54,29ZM56,27L58,27L58,29L56,29L56,27ZM44,27L46,27L46,29L44,29L44,27ZM44,23L46,23L46,25L44,25L44,23ZM46,21L44,21L44,19L46,19L46,21ZM54,21L52,21L52,19L54,19L54,21ZM58,21L56,21L56,19L58,19L58,21ZM62,21L60,21L60,19L62,19L62,21ZM62,25L60,25L60,23L62,23L62,25ZM16,19L6,19L6,17L16,17L16,19ZM11,23L6,23L6,21L11,21L11,23ZM16,15L6,15L6,13L16,13L16,15ZM8,41L10,41L10,43L8,43L8,41ZM4,41L6,41L6,43L4,43L4,41ZM2,43L0,43L0,41L2,41L2,43ZM2,39L0,39L0,37L2,37L2,39ZM2,35L0,35L0,33L2,33L2,35ZM6,35L4,35L4,33L6,33L6,35ZM10,35L8,35L8,33L10,33L10,35ZM8,37L10,37L10,39L8,39L8,37ZM19,51L8,51L8,49L19,49L19,51ZM58,12L52,12L52,10L58,10L58,12ZM62,8L52,8L52,6L62,6L62,8ZM52,39L52,51L64,51L64,39L52,39ZM62,49L54,49L54,41L62,41L62,49ZM59,46L57,46L57,44L59,44L59,46Z" style="fill-rule:nonzero;"/>
    </g>
</svg>
