<?xml version="1.0" encoding="UTF-8" standalone="no"?>
<!DOCTYPE svg PUBLIC "-//W3C//DTD SVG 1.1//EN" "http://www.w3.org/Graphics/SVG/1.1/DTD/svg11.dtd">
<svg width="100%" height="100%" viewBox="0 0 200 200" version="1.1" xmlns="http://www.w3.org/2000/svg" xmlns:xlink="http://www.w3.org/1999/xlink" xml:space="preserve" style="fill-rule:evenodd;clip-rule:evenodd;stroke-linejoin:round;stroke-miterlimit:1.41421;">
    <g id="qr" transform="matrix(2,0,0,2,0,0)">
        <path d="M10,66.666L33.333,66.666L33.333,90L10,90L10,66.666ZM66.667,73.334L90,73.334L90,90L83.333,90L83.333,80L73.333,80L73.333,90L66.667,90L66.667,73.334ZM53.333,73.334L40,73.334L40,53.334L53.333,53.334L53.333,40L73.333,40L73.333,53.334L66.667,53.334L66.667,46.667L60,46.667L60,60L46.667,60L46.667,66.666L60,66.666L60,90L53.333,90L53.333,73.334ZM40,80L46.667,80L46.667,90L40,90L40,80ZM26.667,83.334L26.667,73.334L16.667,73.334L16.667,83.334L26.667,83.334ZM66.667,60L83.333,60L83.333,40L90,40L90,66.666L66.667,66.666L66.667,60ZM23.333,53.334L33.333,53.334L33.333,60L23.333,60L23.333,53.334ZM46.667,23.333L46.667,46.667L16.667,46.667L16.667,60L10,60L10,40L40,40L40,23.333L46.667,23.333ZM10,10L33.333,10L33.333,33.333L10,33.333L10,10ZM66.667,10L90,10L90,33.333L66.667,33.333L66.667,10ZM53.333,16.667L40,16.667L40,10L60,10L60,33.333L53.333,33.333L53.333,16.667ZM26.667,26.667L26.667,16.667L16.667,16.667L16.667,26.667L26.667,26.667ZM83.333,26.667L83.333,16.667L73.333,16.667L73.333,26.667L83.333,26.667Z"/>
    </g>
</svg>
