<?xml version="1.0" encoding="UTF-8" standalone="no"?>
<!DOCTYPE svg PUBLIC "-//W3C//DTD SVG 1.1//EN" "http://www.w3.org/Graphics/SVG/1.1/DTD/svg11.dtd">
<svg width="100%" height="100%" viewBox="0 0 200 200" version="1.1" xmlns="http://www.w3.org/2000/svg" xmlns:xlink="http://www.w3.org/1999/xlink" xml:space="preserve" style="fill-rule:evenodd;clip-rule:evenodd;stroke-linejoin:round;stroke-miterlimit:1.41421;">
    <g id="finger" transform="matrix(1.80001,0,0,1.80001,-80.0015,-62.0009)">
        <path d="M100.268,45.001C103.148,45.017 106.025,45.199 108.882,45.569C114.898,46.348 120.815,47.935 126.391,50.329C128.622,51.287 130.8,52.373 132.893,53.602C133.661,54.053 134.417,54.523 135.157,55.018C135.739,55.406 136.311,55.809 136.863,56.237L136.912,56.276C137.077,56.425 137.127,56.456 137.262,56.635C137.465,56.904 137.598,57.222 137.646,57.555C137.658,57.638 137.66,57.722 137.666,57.806C137.685,58.846 137.699,59.886 137.712,60.926C137.789,67.533 137.804,74.142 137.726,80.749C137.656,86.603 137.516,92.457 137.2,98.303C137.193,98.423 137.185,98.543 137.176,98.663C137.121,99.345 137.03,100.022 136.9,100.694C136.207,104.266 134.492,107.566 132.395,110.509C130.565,113.077 128.422,115.415 126.139,117.586C123.215,120.366 120.044,122.884 116.759,125.222C114.581,126.772 112.347,128.243 110.071,129.645C108.461,130.637 106.829,131.595 105.178,132.517C103.797,133.289 102.402,134.037 100.986,134.744L100.882,134.795C100.669,134.883 100.618,134.916 100.389,134.962C100.047,135.03 99.689,135.006 99.359,134.894C99.276,134.867 99.198,134.828 99.118,134.795C98.824,134.65 98.532,134.502 98.241,134.354C96.023,133.21 93.844,131.993 91.7,130.717C89.24,129.254 86.825,127.713 84.471,126.085C82.204,124.517 79.992,122.868 77.863,121.117C75.941,119.534 74.085,117.868 72.341,116.091C70.098,113.806 68.022,111.332 66.338,108.603C65.089,106.579 64.057,104.404 63.429,102.104C63.175,101.173 62.988,100.223 62.881,99.264C62.816,98.684 62.788,98.103 62.758,97.521C62.744,97.257 62.731,96.994 62.718,96.73C62.651,95.372 62.594,94.013 62.545,92.653C62.382,88.127 62.299,83.598 62.257,79.069C62.225,75.697 62.217,72.325 62.227,68.952C62.238,65.328 62.27,61.704 62.329,58.081L62.334,57.806C62.34,57.722 62.342,57.638 62.354,57.555C62.39,57.306 62.473,57.064 62.599,56.845C62.683,56.699 62.784,56.565 62.902,56.444C63.043,56.3 63.21,56.179 63.37,56.057C63.695,55.812 64.026,55.576 64.361,55.344C65.254,54.729 66.172,54.151 67.107,53.602C68.217,52.95 69.351,52.339 70.503,51.766C73.02,50.514 75.624,49.439 78.285,48.536C82.45,47.123 86.757,46.134 91.118,45.569C93.975,45.199 96.852,45.017 99.732,45.001C99.911,45 100.089,45 100.268,45.001ZM100.253,49L99.747,49C97.185,49.015 94.625,49.168 92.082,49.479C86.805,50.124 81.606,51.429 76.665,53.393C74.777,54.144 72.926,54.991 71.13,55.939C69.516,56.791 67.944,57.725 66.445,58.767L66.317,58.858C66.27,61.772 66.246,64.685 66.232,67.599C66.212,71.966 66.222,76.334 66.274,80.701C66.318,84.362 66.39,88.023 66.514,91.683C66.559,93.037 66.612,94.392 66.675,95.746C66.713,96.554 66.751,97.363 66.799,98.171C66.805,98.262 66.812,98.353 66.819,98.445C66.87,99.007 66.949,99.565 67.064,100.118C67.347,101.48 67.819,102.798 68.41,104.056C69.158,105.646 70.094,107.144 71.132,108.56C72.854,110.909 74.858,113.044 76.983,115.032C79.669,117.545 82.565,119.832 85.56,121.963C87.553,123.381 89.594,124.73 91.671,126.019C94.316,127.661 97.02,129.21 99.781,130.647L100,130.76C102.84,129.296 105.615,127.704 108.329,126.019C110.406,124.73 112.447,123.381 114.44,121.963C117.503,119.783 120.463,117.441 123.2,114.86C124.34,113.785 125.439,112.668 126.481,111.499C127.422,110.441 128.316,109.34 129.137,108.187C129.443,107.759 129.739,107.322 130.022,106.879C131.446,104.649 132.602,102.186 133.04,99.56C133.117,99.1 133.17,98.636 133.201,98.171C133.233,97.625 133.26,97.079 133.287,96.534C133.579,90.428 133.7,84.316 133.751,78.204C133.804,71.78 133.776,65.356 133.685,58.933L133.683,58.858C132.349,57.915 130.948,57.068 129.514,56.285C127.612,55.247 125.647,54.326 123.638,53.515C118.677,51.511 113.451,50.175 108.144,49.507C105.526,49.178 102.891,49.016 100.253,49ZM102.911,78.824C100.519,77.894 97.925,77.652 95.421,78.125C90.761,79.003 86.826,82.199 84.891,86.674C82.87,91.354 79.888,94.744 76.025,96.75C75.254,97.151 74.955,98.1 75.354,98.87C75.756,99.639 76.702,99.939 77.474,99.541C81.996,97.192 85.463,93.281 87.777,87.92C89.296,84.405 92.371,81.898 96.001,81.215C97.937,80.851 99.93,81.035 101.77,81.753C106.316,83.521 109.997,88.909 107.338,96.561C104.801,103.859 97.281,112.132 91.162,116.533C90.457,117.04 90.296,118.022 90.804,118.727C91.111,119.154 91.592,119.381 92.082,119.381C92.4,119.381 92.721,119.284 92.999,119.085C99.519,114.397 107.558,105.508 110.308,97.593C113.653,87.975 108.818,81.121 102.911,78.824ZM105.05,73.327C101.637,71.998 97.93,71.653 94.329,72.329C87.754,73.567 82.652,77.244 79.959,82.686L79.884,82.837C78.957,84.716 77.998,86.659 76.399,87.148C75.568,87.402 75.1,88.281 75.355,89.112C75.608,89.942 76.491,90.409 77.317,90.156C80.216,89.269 81.596,86.475 82.705,84.229L82.779,84.079C85.022,79.545 89.331,76.469 94.912,75.419C97.928,74.849 101.042,75.14 103.911,76.257C111.235,79.106 116.678,87.661 112.91,98.498C111.19,103.444 107.502,109.059 102.524,114.307C101.927,114.938 101.953,115.933 102.582,116.53C102.886,116.819 103.276,116.961 103.665,116.961C104.081,116.961 104.497,116.797 104.806,116.471C110.085,110.903 114.017,104.888 115.88,99.529C120.302,86.814 113.779,76.722 105.05,73.327ZM104.737,95.658C106.808,89.699 104.236,85.67 100.771,84.321C97.266,82.954 92.412,84.141 90.307,89.014C88.517,93.156 83.895,100.387 78.496,103.332C77.734,103.748 77.453,104.703 77.87,105.466C78.286,106.226 79.241,106.509 80.004,106.092C86.574,102.505 91.505,94.168 93.194,90.261C94.519,87.195 97.495,86.419 99.631,87.251C101.632,88.029 103.244,90.376 101.768,94.626C99.468,101.241 90.94,110.206 85.412,113.219C84.649,113.634 84.368,114.589 84.784,115.352C85.07,115.876 85.609,116.172 86.166,116.172C86.419,116.172 86.677,116.111 86.917,115.98C93.053,112.636 102.174,103.03 104.737,95.658ZM99.083,92.62C99.396,91.81 98.994,90.9 98.183,90.586C97.377,90.274 96.463,90.675 96.15,91.485C94.244,96.412 87.482,105.773 81.222,109.226C80.462,109.647 80.186,110.603 80.605,111.363C80.892,111.882 81.43,112.175 81.984,112.175C82.24,112.175 82.501,112.112 82.743,111.98C89.99,107.982 97.006,97.994 99.083,92.62ZM107.192,67.831C102.747,66.098 97.916,65.652 93.238,66.532C86.375,67.825 80.637,71.735 76.646,77.841C76.17,78.568 76.374,79.542 77.102,80.018C77.83,80.494 78.805,80.291 79.278,79.563C82.84,74.114 87.732,70.77 93.819,69.624C97.928,68.85 102.157,69.245 106.052,70.763C115.765,74.541 123.424,86.226 118.483,100.436C117.766,102.495 116.792,104.617 115.589,106.741C115.161,107.496 115.426,108.456 116.182,108.885C116.428,109.023 116.693,109.089 116.956,109.089C117.504,109.089 118.035,108.802 118.326,108.292C119.623,106.003 120.675,103.709 121.454,101.47C127.041,85.397 118.275,72.142 107.192,67.831ZM110.742,62.743C101.525,58.888 90.939,59.664 82.42,64.814C81.677,65.264 81.439,66.23 81.889,66.974C82.336,67.716 83.3,67.954 84.048,67.506C91.711,62.873 101.237,62.176 109.529,65.645C117.446,68.957 122.944,75.541 125.009,84.184C125.181,84.906 125.826,85.391 126.537,85.391C126.658,85.391 126.781,85.377 126.904,85.348C127.749,85.146 128.269,84.298 128.068,83.453C125.763,73.808 119.609,66.453 110.742,62.743ZM91.61,58.033C110.769,54.769 119.849,64.155 122.864,68.342C123.171,68.769 123.653,68.995 124.142,68.995C124.46,68.995 124.781,68.899 125.059,68.699C125.764,68.192 125.923,67.209 125.417,66.504C122.056,61.839 111.976,51.374 91.083,54.933C90.226,55.079 89.652,55.891 89.798,56.747C89.943,57.604 90.758,58.181 91.61,58.033Z"/>
    </g>
</svg>
