<?xml version="1.0" encoding="UTF-8" standalone="no"?>
<!DOCTYPE svg PUBLIC "-//W3C//DTD SVG 1.1//EN" "http://www.w3.org/Graphics/SVG/1.1/DTD/svg11.dtd">
<svg width="100%" height="100%" viewBox="0 0 200 200" version="1.1" xmlns="http://www.w3.org/2000/svg" xmlns:xlink="http://www.w3.org/1999/xlink" xml:space="preserve" style="fill-rule:evenodd;clip-rule:evenodd;stroke-linejoin:round;stroke-miterlimit:1.41421;">
    <g id="curr" transform="matrix(2.25352,0,0,2.25352,-13.8028,-20.5634)">
        <path d="M41,37C41.142,37.001 41.281,37.031 41.41,37.09C45.281,29.264 53.202,24.212 61.93,24L62.5,24C75.358,23.989 85.956,34.542 86,47.4C86,47.91 85.88,48.38 85.94,48.91C86,49.44 86,49.97 86,50.5C85.995,59.787 80.491,68.239 72,72C73.097,72 74,72.903 74,74L74,81C74,82.097 73.097,83 72,83L29,83C27.903,83 27,82.097 27,81L27,74L17,74C15.903,74 15,73.097 15,72L15,65C15,63.903 15.903,63 17,63L42.61,63C40.247,59.26 38.995,54.924 39,50.5C39,50 39.12,49.42 39.06,48.91C39,48.4 39,47.91 39,47.4L39,47L35.5,47C34.951,47 34.5,46.549 34.5,46C34.5,45.451 34.951,45 35.5,45L39.12,45C39.333,42.944 39.821,40.926 40.57,39L37.07,39C36.521,39 36.07,38.549 36.07,38C36.07,37.451 36.521,37 37.07,37L41,37ZM62,81L62,78L59,78L59,81L62,81ZM67,81L67,78L64,78L64,81L67,81ZM52,81L52,78L49,78L49,81L52,81ZM57,81L57,78L54,78L54,81L57,81ZM42,81L42,78L39,78L39,81L42,81ZM47,81L47,78L44,78L44,81L47,81ZM32,81L32,78L29,78L29,81L32,81ZM37,81L37,78L34,78L34,81L37,81ZM72,81L72,78L69,78L69,81L72,81ZM72,76L72,74L29,74L29,76L72,76ZM45,72L45,69L42,69L42,72L45,72ZM53,72C52.673,71.847 52.34,71.683 52,71.51L52,72L53,72ZM20,72L20,69L17,69L17,72L20,72ZM62.5,72C50.71,71.989 41.011,62.29 41,50.5C41,49.96 41,49.44 41.08,48.91C41.16,48.38 41.2,47.65 41.31,47.03C43.099,36.774 52.089,29.216 62.5,29.216C72.911,29.216 81.901,36.774 83.69,47.03C83.79,47.65 83.87,48.28 83.92,48.91C83.97,49.54 84,50 84,50.5C83.989,62.29 74.29,71.989 62.5,72ZM48,69L47,69L47,72L50,72L50,70.39C49.31,69.961 48.642,69.497 48,69ZM35,72L35,69L32,69L32,72L35,72ZM30,72L30,69L27,69L27,72L30,72ZM25,72L25,69L22,69L22,72L25,72ZM40,72L40,69L37,69L37,72L40,72ZM62.5,32C52.351,32 44,40.351 44,50.5C44,60.649 52.351,69 62.5,69C72.649,69 81,60.649 81,50.5C80.989,40.355 72.645,32.011 62.5,32ZM44,65L17,65L17,67L45.76,67C45.136,66.367 44.549,65.699 44,65ZM62.5,67C53.448,67 46,59.552 46,50.5C46,41.448 53.448,34 62.5,34C71.552,34 79,41.448 79,50.5C78.989,59.547 71.547,66.989 62.5,67ZM32,58C32.549,58 33,58.451 33,59C33,59.549 32.549,60 32,60L19,60C18.451,60 18,59.549 18,59C18,58.451 18.451,58 19,58L32,58ZM33,51C33.549,51 34,51.451 34,52C34,52.549 33.549,53 33,53L28,53C27.451,53 27,52.549 27,52C27,51.451 27.451,51 28,51L33,51ZM31,45C31.549,45 32,45.451 32,46C32,46.549 31.549,47 31,47L19,47C18.451,47 18,46.549 18,46C18,45.451 18.451,45 19,45L31,45ZM32,37C32.549,37 33,37.451 33,38C33,38.549 32.549,39 32,39L24,39C23.451,39 23,38.549 23,38C23,37.451 23.451,37 24,37L32,37ZM79.222,33.97C78.264,32.79 77.184,31.714 76,30.76L76,31.28C77.152,32.08 78.23,32.98 79.222,33.97C79.292,34.056 79.361,34.143 79.43,34.23L79.43,34.18C79.361,34.11 79.292,34.04 79.222,33.97ZM48,31.62L48,32C47.136,32.679 46.321,33.418 45.56,34.21C46.301,33.281 47.117,32.415 48,31.62L48,31.62ZM42,30C42.549,30 43,30.451 43,31C43,31.549 42.549,32 42,32L31,32C30.451,32 30,31.549 30,31C30,30.451 30.451,30 31,30L42,30ZM24,30C24.549,30 25,30.451 25,31C25,31.549 24.549,32 24,32L22,32C21.451,32 21,31.549 21,31C21,30.451 21.451,30 22,30L24,30ZM52,29.44C51.333,29.787 50.667,30.163 50,30.57L50,30C50.643,29.54 51.311,29.116 52,28.73L52,29.44ZM74,30C73.333,29.633 72.667,29.3 72,29L72,28.21C72.75,28.581 73.478,28.995 74.18,29.45C74.067,29.612 74.004,29.803 74,30ZM56,27.88C55.333,28.073 54.667,28.3 54,28.56L54,28C54.009,27.924 54.009,27.846 54,27.77C54.653,27.48 55.321,27.223 56,27L56,27.88ZM70,28.22C69.333,28 68.667,27.807 68,27.64L68,26.7C68.667,26.88 69.333,27.09 70,27.33L70,28.22ZM61,27.01C59.993,27.072 58.991,27.199 58,27.39L58,26.39C58.989,26.176 59.991,26.033 61,25.96L61,27.01ZM66,27.22C65.006,27.083 64.004,27.009 63,27L63,26C64.005,26.023 65.008,26.117 66,26.28L66,27.22Z"/>
    </g>
</svg>
