<?xml version="1.0" encoding="UTF-8" standalone="no"?>
<!DOCTYPE svg PUBLIC "-//W3C//DTD SVG 1.1//EN" "http://www.w3.org/Graphics/SVG/1.1/DTD/svg11.dtd">
<svg width="100%" height="100%" viewBox="0 0 200 200" version="1.1" xmlns="http://www.w3.org/2000/svg" xmlns:xlink="http://www.w3.org/1999/xlink" xml:space="preserve" style="fill-rule:evenodd;clip-rule:evenodd;stroke-linejoin:round;stroke-miterlimit:1.41421;">
    <g id="qr-scan" transform="matrix(3.33333,0,0,3.33333,20,20)">
        <path d="M0.584,47.413C0.223,47.052 0,46.555 0,46.006L0,33.994C0,32.893 0.888,32 2,32C3.105,32 4,32.895 4,33.994L4,44L14.006,44C15.107,44 16,44.888 16,46C16,47.105 15.105,48 14.006,48L1.994,48C1.444,48 0.947,47.779 0.586,47.419L0.584,47.413ZM47.413,47.416C47.052,47.777 46.555,48 46.006,48L33.994,48C32.893,48 32,47.112 32,46C32,44.895 32.895,44 33.994,44L44,44L44,33.994C44,32.893 44.888,32 46,32C47.105,32 48,32.895 48,33.994L48,46.006C48,46.556 47.779,47.053 47.419,47.414L47.413,47.416ZM47.416,0.587C47.777,0.948 48,1.445 48,1.994L48,14.006C48,15.107 47.112,16 46,16C44.895,16 44,15.105 44,14.006L44,4L33.994,4C32.893,4 32,3.112 32,2C32,0.895 32.895,0 33.994,0L46.006,0C46.556,0 47.053,0.221 47.414,0.581L47.416,0.587ZM0.587,0.584C0.948,0.223 1.445,0 1.994,0L14.006,0C15.107,0 16,0.888 16,2C16,3.105 15.105,4 14.006,4L4,4L4,14.006C4,15.107 3.112,16 2,16C0.895,16 0,15.105 0,14.006L0,1.994C0,1.444 0.221,0.947 0.581,0.586L0.587,0.584ZM12,14.005C12,12.898 12.897,12 14.005,12L33.995,12C35.102,12 36,12.897 36,14.005L36,33.995C36,35.102 35.103,36 33.995,36L14.005,36C12.898,36 12,35.103 12,33.995L12,14.005ZM16,32L32,32L32,16L16,16L16,32Z"/>
    </g>
</svg>
