<?xml version="1.0" encoding="UTF-8" standalone="no"?>
<!DOCTYPE svg PUBLIC "-//W3C//DTD SVG 1.1//EN" "http://www.w3.org/Graphics/SVG/1.1/DTD/svg11.dtd">
<svg width="100%" height="100%" viewBox="0 0 200 200" version="1.1" xmlns="http://www.w3.org/2000/svg" xmlns:xlink="http://www.w3.org/1999/xlink" xml:space="preserve" style="fill-rule:evenodd;clip-rule:evenodd;stroke-linejoin:round;stroke-miterlimit:1.41421;">
    <g id="contacts" transform="matrix(1.8,0,0,1.8,9.9982,10)">
        <path d="M89.473,5C92.036,5 94.121,7.085 94.123,9.649L94.123,90.351C94.123,92.915 92.037,95 89.474,95L16.947,95C14.383,95 12.298,92.914 12.298,90.351L12.298,80.095L7.729,80.095C6.707,80.095 5.879,79.267 5.879,78.245C5.879,77.223 6.707,76.395 7.729,76.395L12.298,76.395L12.298,61.265L7.729,61.265C6.707,61.265 5.879,60.437 5.879,59.415C5.879,58.393 6.707,57.565 7.729,57.565L12.298,57.565L12.298,42.435L7.729,42.435C6.707,42.435 5.879,41.607 5.879,40.585C5.879,39.563 6.707,38.735 7.729,38.735L12.298,38.735L12.298,23.605L7.729,23.605C6.707,23.605 5.879,22.777 5.879,21.755C5.879,20.733 6.707,19.905 7.729,19.905L12.297,19.905L12.297,9.649C12.297,7.085 14.383,5 16.946,5L89.473,5ZM27.442,91.301L27.442,8.701L16.946,8.701C16.423,8.701 15.998,9.126 15.998,9.649L15.998,19.905L20.568,19.905C21.59,19.905 22.418,20.733 22.418,21.755C22.418,22.777 21.59,23.605 20.568,23.605L15.998,23.605L15.998,38.735L20.568,38.735C21.59,38.735 22.418,39.563 22.418,40.585C22.418,41.607 21.59,42.435 20.568,42.435L15.998,42.435L15.998,57.565L20.568,57.565C21.59,57.565 22.418,58.393 22.418,59.415C22.418,60.437 21.59,61.265 20.568,61.265L15.998,61.265L15.998,76.395L20.568,76.395C21.59,76.395 22.418,77.223 22.418,78.245C22.418,79.267 21.59,80.095 20.568,80.095L15.998,80.095L15.998,90.353C15.998,90.876 16.423,91.301 16.946,91.301L27.442,91.301ZM89.473,91.299C89.996,91.299 90.421,90.874 90.421,90.351L90.421,9.648C90.421,9.125 89.996,8.7 89.473,8.7L31.142,8.7L31.142,91.299L89.473,91.299ZM60.06,25.382C46.485,25.382 35.442,36.425 35.442,50C35.442,63.575 46.486,74.618 60.06,74.618C73.634,74.618 84.678,63.574 84.678,50C84.678,36.426 73.635,25.382 60.06,25.382ZM60.06,70.918C55.223,70.918 50.777,69.252 47.23,66.486C48.79,62.882 52.387,60.451 56.371,60.451L63.68,60.451C67.683,60.451 71.293,62.895 72.851,66.516C69.31,69.264 64.879,70.918 60.06,70.918ZM75.671,63.875C73.373,59.703 68.99,56.932 64.13,56.769C67.807,55.186 70.388,51.53 70.388,47.279C70.388,41.583 65.755,36.95 60.059,36.95C54.363,36.95 49.73,41.584 49.73,47.279C49.73,51.527 52.309,55.182 55.983,56.766C51.121,56.906 46.725,59.668 44.414,63.838C41.144,60.146 39.14,55.308 39.14,50C39.14,38.466 48.524,29.082 60.058,29.082C71.592,29.082 80.978,38.465 80.978,50C80.978,55.326 78.961,60.178 75.671,63.875ZM53.431,47.279C53.431,43.624 56.405,40.65 60.06,40.65C63.715,40.65 66.688,43.624 66.688,47.279C66.688,50.934 63.714,53.907 60.06,53.907C56.405,53.907 53.431,50.934 53.431,47.279Z"/>
    </g>
</svg>
