<?xml version="1.0" encoding="UTF-8" standalone="no"?>
<!DOCTYPE svg PUBLIC "-//W3C//DTD SVG 1.1//EN" "http://www.w3.org/Graphics/SVG/1.1/DTD/svg11.dtd">
<svg width="100%" height="100%" viewBox="0 0 200 200" version="1.1" xmlns="http://www.w3.org/2000/svg" xmlns:xlink="http://www.w3.org/1999/xlink" xml:space="preserve" style="fill-rule:evenodd;clip-rule:evenodd;stroke-linejoin:round;stroke-miterlimit:1.41421;">
    <g id="face" transform="matrix(10.8,0,0,10.8,13.6,19)">
        <path d="M13.5,15L2.5,15C2.226,15 2,14.774 2,14.5L2,12C2,10.354 3.354,9 5,9L11,9C12.646,9 14,10.354 14,12L14,14.5C14,14.774 13.774,15 13.5,15ZM11,10L5,10C3.903,10 3,10.903 3,12L3,14L13,14L13,12C13,10.903 12.097,10 11,10ZM4.5,8L2.5,8C2.226,8 2,7.774 2,7.5L2,5.5C2,5.226 2.226,5 2.5,5C2.774,5 3,5.226 3,5.5L3,7L4.5,7C4.774,7 5,7.226 5,7.5C5,7.774 4.774,8 4.5,8ZM13.5,8L11.5,8C11.226,8 11,7.774 11,7.5C11,7.226 11.226,7 11.5,7L13,7L13,5.5C13,5.226 13.226,5 13.5,5C13.774,5 14,5.226 14,5.5L14,7.5C14,7.774 13.774,8 13.5,8ZM8,7C6.354,7 5,5.646 5,4C5,2.354 6.354,1 8,1C9.646,1 11,2.354 11,4C11,5.646 9.646,7 8,7L8,7ZM8,2C6.903,2 6,2.903 6,4C6,5.097 6.903,6 8,6C9.097,6 10,5.097 10,4C10,2.903 9.097,2 8,2ZM3,1L3,2.5C3,2.774 2.774,3 2.5,3C2.226,3 2,2.774 2,2.5L2,0.5C2,0.226 2.226,0 2.5,0L4.5,0C4.774,0 5,0.226 5,0.5C5,0.774 4.774,1 4.5,1L3,1ZM13.5,3C13.226,3 13,2.774 13,2.5L13,1L11.5,1C11.226,1 11,0.774 11,0.5C11,0.226 11.226,0 11.5,0L13.5,0C13.774,0 14,0.226 14,0.5L14,2.5C14,2.774 13.774,3 13.5,3Z"/>
    </g>
</svg>
