<?xml version="1.0" encoding="UTF-8" standalone="no"?>
<!DOCTYPE svg PUBLIC "-//W3C//DTD SVG 1.1//EN" "http://www.w3.org/Graphics/SVG/1.1/DTD/svg11.dtd">
<svg width="100%" height="100%" viewBox="0 0 200 200" version="1.1" xmlns="http://www.w3.org/2000/svg" xmlns:xlink="http://www.w3.org/1999/xlink" xml:space="preserve" style="fill-rule:evenodd;clip-rule:evenodd;stroke-linejoin:round;stroke-miterlimit:1.41421;">
    <g id="api" transform="matrix(2.5,0,0,2.5,20,20)">
        <path d="M20,32C20,38.617 25.383,44 32,44C38.617,44 44,38.617 44,32C44,25.383 38.617,20 32,20C25.383,20 20,25.383 20,32ZM32,22C37.514,22 42,26.486 42,32C42,37.514 37.514,42 32,42C26.486,42 22,37.514 22,32C22,26.486 26.486,22 32,22ZM35.293,34.293L37.586,32L35.293,29.707L36.707,28.293L40.414,32L36.707,35.707L35.293,34.293ZM23.586,32L27.293,28.293L28.707,29.707L26.414,32L28.707,34.293L27.293,35.707L23.586,32ZM31.98,37.196L30.019,36.803L32.019,26.803L33.98,27.196L31.98,37.196ZM54,13L54,23L64,23L64,13L54,13ZM62,21L56,21L56,15L62,15L62,21ZM60,19L58,19L58,17L60,17L60,19ZM42,17L52,17L52,19L42,19L42,17ZM22,21L12,21L12,19L22,19L22,21ZM0,25L10,25L10,15L0,15L0,25ZM2,17L8,17L8,23L2,23L2,17ZM4,19L6,19L6,21L4,21L4,19ZM22,47L12,47L12,45L22,45L22,47ZM0,51L10,51L10,41L0,41L0,51ZM2,43L8,43L8,49L2,49L2,43ZM4,45L6,45L6,47L4,47L4,45ZM42,43L52,43L52,45L42,45L42,43ZM54,49L64,49L64,39L54,39L54,49ZM56,41L62,41L62,47L56,47L56,41ZM58,43L60,43L60,45L58,45L58,43ZM35,56L29,56L29,54L35,54L35,56ZM31,8L37,8L37,10L31,10L31,8ZM27,8L29,8L29,10L27,10L27,8ZM48,49L14,49L14,57C14,59.206 15.794,61 18,61L46,61C48.206,61 50,59.206 50,57L50,47L48,47L48,49ZM48,57C48,58.103 47.103,59 46,59L18,59C16.897,59 16,58.103 16,57L16,51L48,51L48,57ZM14,43L14,23L16,23L16,43L14,43ZM16,15L50,15L50,7C50,4.794 48.206,3 46,3L18,3C15.794,3 14,4.794 14,7L14,17L16,17L16,15ZM16,7C16,5.897 16.897,5 18,5L46,5C47.103,5 48,5.897 48,7L48,13L16,13L16,7ZM50,21L50,41L48,41L48,21L50,21Z" style="fill-rule:nonzero;"/>
    </g>
</svg>
