<?xml version="1.0" encoding="UTF-8" standalone="no"?>
<!DOCTYPE svg PUBLIC "-//W3C//DTD SVG 1.1//EN" "http://www.w3.org/Graphics/SVG/1.1/DTD/svg11.dtd">
<svg width="100%" height="100%" viewBox="0 0 200 200" version="1.1" xmlns="http://www.w3.org/2000/svg" xmlns:xlink="http://www.w3.org/1999/xlink" xml:space="preserve" style="fill-rule:evenodd;clip-rule:evenodd;stroke-linejoin:round;stroke-miterlimit:1.41421;">
    <g transform="matrix(1.62002,0,0,1.62002,19.2555,19.0005)">
        <path d="M92.029,18.253C91.923,17.561 91.357,17.032 90.66,16.972C67.767,15.019 51.009,0.522 50.842,0.375C50.27,-0.126 49.414,-0.126 48.842,0.375C48.675,0.522 31.917,15.019 9.024,16.972C8.326,17.032 7.761,17.561 7.655,18.253C7.561,18.861 5.424,33.365 9.413,50.759C13.114,66.898 23.026,88.518 49.239,99.873C49.432,99.957 49.637,99.999 49.842,99.999C50.047,99.999 50.252,99.957 50.445,99.873C76.658,88.518 86.57,66.898 90.27,50.759C94.26,33.365 92.122,18.861 92.029,18.253ZM87.295,50.179C82.176,72.385 69.578,88.076 49.842,96.83C30.106,88.076 17.508,72.385 12.389,50.179C9.14,36.085 10.096,23.646 10.507,19.875C30.83,17.758 45.889,6.669 49.842,3.486C53.795,6.669 68.854,17.758 89.176,19.875C89.588,23.646 90.544,36.085 87.295,50.179ZM80.395,24.923C63.413,23.474 50.965,12.715 50.842,12.606C50.27,12.105 49.414,12.105 48.842,12.606C48.719,12.715 36.271,23.474 19.288,24.923C18.591,24.982 18.026,25.512 17.92,26.203C17.851,26.653 11.502,71.293 49.239,87.642C49.432,87.726 49.637,87.768 49.842,87.768C50.047,87.768 50.252,87.726 50.445,87.642C88.182,71.293 81.833,26.653 81.764,26.203C81.658,25.512 81.092,24.982 80.395,24.923ZM49.842,84.597C18.216,70.437 20.102,34.72 20.78,27.821C35.531,26.191 46.547,18.316 49.842,15.708C53.137,18.316 64.155,26.191 78.904,27.821C79.591,34.717 81.509,70.421 49.842,84.597ZM57.879,37.294L46.603,48.339L42.382,44.236C39.943,41.868 36.031,41.924 33.66,44.362C32.512,45.543 31.893,47.101 31.917,48.747C31.939,50.395 32.603,51.934 33.784,53.082L42.321,61.38C43.481,62.504 45.007,63.123 46.619,63.123C48.242,63.123 49.775,62.498 50.936,61.361L66.511,46.105C67.688,44.952 68.345,43.41 68.362,41.763C68.379,40.115 67.753,38.56 66.6,37.383C64.22,34.954 60.309,34.914 57.879,37.294ZM64.39,43.939L48.815,59.196C47.636,60.348 45.614,60.352 44.433,59.206L35.896,50.908C35.295,50.325 34.957,49.542 34.946,48.705C34.934,47.867 35.248,47.075 35.833,46.475C36.447,45.842 37.265,45.524 38.085,45.524C38.873,45.524 39.662,45.818 40.269,46.409L45.55,51.542C46.139,52.116 47.078,52.116 47.666,51.538L59.999,39.458C61.236,38.247 63.227,38.271 64.436,39.503C65.022,40.102 65.34,40.893 65.332,41.73C65.323,42.569 64.989,43.353 64.39,43.939Z"/>
    </g>
</svg>
