<?xml version="1.0" encoding="UTF-8" standalone="no"?>
<!DOCTYPE svg PUBLIC "-//W3C//DTD SVG 1.1//EN" "http://www.w3.org/Graphics/SVG/1.1/DTD/svg11.dtd">
<svg width="100%" height="100%" viewBox="0 0 200 200" version="1.1" xmlns="http://www.w3.org/2000/svg" xmlns:xlink="http://www.w3.org/1999/xlink" xml:space="preserve" style="fill-rule:evenodd;clip-rule:evenodd;stroke-linejoin:round;stroke-miterlimit:1.41421;">
    <g transform="matrix(1.6701,0,0,1.6701,16.5212,16.4948)">
        <path d="M88.34,31.19L85.56,34C90.796,40.978 93.629,49.471 93.629,58.195C93.629,79.268 77.104,96.966 56.08,98.41C55.16,98.47 54.247,98.5 53.34,98.5C41.934,98.525 31.041,93.688 23.41,85.21C23.019,84.756 22.804,84.177 22.804,83.578C22.804,82.206 23.932,81.078 25.304,81.078C25.991,81.078 26.648,81.361 27.12,81.86C33.813,89.27 43.344,93.504 53.33,93.504C72.706,93.504 88.65,77.56 88.65,58.184C88.65,49.841 85.694,41.763 80.31,35.39C79.47,34.402 79.531,32.916 80.45,32L84.81,27.64C85.104,27.315 85.267,26.891 85.267,26.453C85.267,25.482 84.468,24.683 83.497,24.683C83.059,24.683 82.635,24.846 82.31,25.14L77.78,29.67C76.903,30.546 75.501,30.645 74.51,29.9C69.493,26.138 63.561,23.783 57.33,23.08C56.07,22.943 55.103,21.868 55.1,20.6L55.1,12.54C55.1,12.527 55.1,12.513 55.1,12.5C55.1,11.129 56.228,10 57.6,10L59.89,10C60.861,10 61.66,9.201 61.66,8.23C61.66,7.259 60.861,6.46 59.89,6.46L46.77,6.46C45.799,6.46 45,7.259 45,8.23C45,9.201 45.799,10 46.77,10L49.06,10C50.431,10 51.56,11.129 51.56,12.5L51.56,20.6C51.558,21.865 50.597,22.938 49.34,23.08C41.26,24.005 33.741,27.69 28.06,33.51C27.589,33.991 26.943,34.262 26.27,34.262C24.895,34.262 23.763,33.13 23.763,31.755C23.763,31.099 24.021,30.468 24.48,30C30.436,23.914 38.166,19.863 46.56,18.43L46.56,15C43.092,14.684 40.404,11.741 40.404,8.258C40.404,4.696 43.215,1.713 46.77,1.5L59.89,1.5C63.445,1.713 66.256,4.696 66.256,8.258C66.256,11.741 63.568,14.684 60.1,15L60.1,18.39C65.689,19.336 71.016,21.452 75.73,24.6L78.73,21.6C79.999,20.329 81.724,19.614 83.52,19.614C87.234,19.614 90.291,22.671 90.291,26.385C90.291,28.179 89.578,29.901 88.31,31.17L88.34,31.19ZM6.34,45.37C6.34,46.741 7.469,47.87 8.84,47.87L26.2,47.87C27.571,47.87 28.7,46.741 28.7,45.37C28.7,43.999 27.571,42.87 26.2,42.87L8.85,42.87C7.482,42.87 6.355,43.992 6.35,45.36L6.34,45.37ZM34.76,57.49C34.76,56.119 33.631,54.99 32.26,54.99L14.91,54.99C13.539,54.99 12.41,56.119 12.41,57.49C12.41,58.861 13.539,59.99 14.91,59.99L32.26,59.99C33.631,59.99 34.76,58.861 34.76,57.49ZM8.85,72.12L26.2,72.12C27.571,72.12 28.7,70.991 28.7,69.62C28.7,68.249 27.571,67.12 26.2,67.12L8.85,67.12C7.479,67.12 6.35,68.249 6.35,69.62C6.35,70.991 7.479,72.12 8.85,72.12ZM67.2,47.84L60.79,54.25C61.429,55.464 61.763,56.815 61.763,58.187C61.763,62.822 57.949,66.637 53.313,66.637C48.678,66.637 44.863,62.822 44.863,58.187C44.863,53.551 48.678,49.737 53.313,49.737C54.685,49.737 56.036,50.071 57.25,50.71L63.66,44.3C64.129,43.831 64.766,43.567 65.43,43.567C66.803,43.567 67.933,44.697 67.933,46.07C67.933,46.734 67.669,47.371 67.2,47.84L67.2,47.84ZM56.76,58.18C56.76,56.298 55.212,54.75 53.33,54.75C51.448,54.75 49.9,56.298 49.9,58.18C49.9,60.062 51.448,61.61 53.33,61.61C55.21,61.605 56.755,60.06 56.76,58.18L56.76,58.18ZM53.33,87.93C53.346,87.93 53.361,87.93 53.377,87.93C69.703,87.93 83.137,74.496 83.137,58.17C83.137,41.844 69.703,28.41 53.377,28.41C45.485,28.41 37.909,31.549 32.33,37.13C31.861,37.599 31.597,38.236 31.597,38.9C31.597,40.273 32.727,41.403 34.1,41.403C34.764,41.403 35.401,41.139 35.87,40.67C40.515,36.017 46.826,33.4 53.4,33.4C66.988,33.4 78.17,44.582 78.17,58.17C78.17,71.758 66.988,82.94 53.4,82.94C46.826,82.94 40.515,80.323 35.87,75.67C35.401,75.201 34.764,74.937 34.1,74.937C32.727,74.937 31.597,76.067 31.597,77.44C31.597,78.104 31.861,78.741 32.33,79.21C37.893,84.787 45.453,87.926 53.33,87.93L53.33,87.93Z" style="fill-rule:nonzero;"/>
    </g>
</svg>
