<?xml version="1.0" encoding="UTF-8" standalone="no"?>
<!DOCTYPE svg PUBLIC "-//W3C//DTD SVG 1.1//EN" "http://www.w3.org/Graphics/SVG/1.1/DTD/svg11.dtd">
<svg width="100%" height="100%" viewBox="0 0 200 200" version="1.1" xmlns="http://www.w3.org/2000/svg" xmlns:xlink="http://www.w3.org/1999/xlink" xml:space="preserve" style="fill-rule:evenodd;clip-rule:evenodd;stroke-linejoin:round;stroke-miterlimit:1.41421;">
    <g id="blockex" transform="matrix(1.86047,0,0,1.86047,6.97674,8.28953)">
        <path d="M37,68L47,68L47,70L37,70L37,75.8L22,83.3L7,75.8L7,59.56L22,67.06L37,59.56L37,68ZM63,68L63,59.56L78,67.06L93,59.56L93,75.8L78,83.3L63,75.8L63,70L57,70L57,68L63,68ZM22.12,81L21.88,81L22,81.06L22.12,81ZM77.88,81L78.12,81L78,81.06L77.88,81ZM23,75L23,80.56L35,74.56L35,62.8L22,69.3L9,62.8L9,74.56L21,80.56L21,75L23,75ZM79,75L79,80.56L91,74.56L91,62.8L78,69.3L65,62.8L65,74.56L77,80.56L77,75L79,75ZM21,71L23,71L23,74L21,74L21,71ZM77,71L79,71L79,74L77,74L77,71ZM50,68L54,68L54,70L50,70L50,68ZM23,43L23,51.9L36,58.4L22,65.4L8,58.4L21,51.9L21,43L23,43ZM79,48L79,51.9L92,58.4L78,65.4L64,58.4L77,51.9L77,48L79,48ZM22,63.16L12.47,58.4L22,53.64L31.53,58.4L22,63.16ZM78,63.16L68.47,58.4L78,53.64L87.53,58.4L78,63.16ZM79,34L79,45L77,45L77,34L79,34ZM21,36L23,36L23,41L21,41L21,36ZM65,25L79,25L79,32L77,32L77,27L65,27L65,33.44L50,40.94L35,33.44L35,27L27,27L27,25L35,25L35,17.2L50,24.7L65,17.2L65,25ZM51,33L51,38.2L63,32.2L63,20.44L50,26.94L37,20.44L37,32.2L49,38.2L49,33L51,33ZM25,25L25,27L23,27L23,34L21,34L21,25L25,25ZM49,28L51,28L51,31L49,31L49,28ZM64,16L50,9L36,16L50,23L64,16ZM50,11.27L59.53,16L50,20.8L40.47,16L50,11.27Z"/>
    </g>
</svg>
