<?xml version="1.0" encoding="UTF-8" standalone="no"?>
<!DOCTYPE svg PUBLIC "-//W3C//DTD SVG 1.1//EN" "http://www.w3.org/Graphics/SVG/1.1/DTD/svg11.dtd">
<svg width="100%" height="100%" viewBox="0 0 200 200" version="1.1" xmlns="http://www.w3.org/2000/svg" xmlns:xlink="http://www.w3.org/1999/xlink" xml:space="preserve" style="fill-rule:evenodd;clip-rule:evenodd;stroke-linejoin:round;stroke-miterlimit:1.41421;">
    <g transform="matrix(1.56245,0,0,1.56245,0.00303762,0.784229)">
        <path d="M75.175,95.28L80.431,89.917C81.797,88.525 82.304,86.898 81.822,85.452C81.347,84.027 80.002,83.047 78.134,82.763L70.939,81.67L67.707,74.813C66.509,72.274 64.716,72 64.001,72C63.284,72 61.49,72.274 60.297,74.813L57.062,81.669L49.867,82.763C47.998,83.047 46.652,84.028 46.178,85.454C45.695,86.9 46.203,88.527 47.567,89.915L52.826,95.28L51.583,102.872C51.246,104.915 51.848,106.136 52.411,106.8C53.563,108.159 55.578,108.388 57.586,107.284L64.001,103.757L70.414,107.284C71.277,107.759 72.123,108.001 72.926,108C73.986,108 74.932,107.574 75.588,106.8C76.152,106.136 76.755,104.915 76.419,102.875L75.175,95.28ZM72.472,103.523C72.493,103.654 72.505,103.768 72.511,103.866C72.459,103.842 72.403,103.813 72.342,103.779L64.001,99.192L55.659,103.779C55.598,103.812 55.542,103.841 55.491,103.865C55.496,103.767 55.509,103.653 55.53,103.521L57.102,93.927L50.422,87.114C50.3,86.988 50.209,86.878 50.144,86.787C50.231,86.762 50.339,86.737 50.469,86.718L59.771,85.304L63.915,76.518C63.945,76.454 63.974,76.397 64.002,76.346C64.03,76.397 64.06,76.455 64.09,76.52L68.23,85.304L77.532,86.718C77.662,86.737 77.769,86.762 77.855,86.787C77.79,86.878 77.699,86.989 77.575,87.116L70.899,93.927L72.472,103.523ZM94.816,92.838C95.451,92.838 95.973,92.327 95.981,91.903C95.986,91.671 95.982,91.448 95.985,91.218C96.138,91.149 96.295,91.101 96.445,91.021L98.501,89.944L99.996,90.728C99.993,91.148 99.988,91.567 99.98,91.982C99.928,94.667 97.557,96.838 94.816,96.838L79.482,96.838L79.449,96.633L83.168,92.838L94.816,92.838ZM48.519,96.838L33.223,96.838C30.478,96.838 28.109,94.667 28.039,91.982C28.028,91.565 28.02,91.145 28.014,90.723L29.499,89.944L31.556,91.022C31.713,91.104 31.871,91.166 32.029,91.238C32.034,91.453 32.032,91.659 32.038,91.876C32.049,92.322 32.569,92.838 33.223,92.838C33.223,92.838 44.831,92.838 44.831,92.838L48.552,96.633L48.519,96.838ZM33.412,87.479C34.072,87.825 34.727,88.001 35.356,88C36.27,88 37.085,87.631 37.65,86.96C38.104,86.421 38.592,85.453 38.325,83.91L37.58,79.577L40.739,76.507C41.838,75.442 42.245,74.147 41.859,72.955C41.473,71.763 40.382,70.953 38.865,70.734L34.492,70.101L32.537,66.154C31.859,64.785 30.753,64 29.5,64C28.246,64 27.139,64.786 26.463,66.154L24.509,70.101L20.137,70.734C18.619,70.953 17.527,71.763 17.141,72.956C16.754,74.148 17.162,75.443 18.26,76.507L21.42,79.577L20.676,83.907C20.408,85.451 20.894,86.419 21.349,86.96C22.302,88.094 23.968,88.327 25.586,87.479L29.5,85.429L33.412,87.479ZM107.864,70.734L103.491,70.101L101.538,66.155C100.861,64.786 99.754,64 98.5,64C97.247,64 96.141,64.785 95.463,66.154L93.508,70.101L89.135,70.734C87.618,70.953 86.527,71.763 86.141,72.955C85.755,74.147 86.162,75.442 87.26,76.507L90.42,79.577L89.675,83.909C89.408,85.453 89.895,86.421 90.35,86.961C91.305,88.092 92.969,88.327 94.589,87.479L98.5,85.429L102.414,87.479C103.074,87.825 103.728,88 104.358,88C105.272,88 106.087,87.631 106.651,86.96C107.106,86.42 107.592,85.452 107.324,83.91L106.58,79.577L109.739,76.508C110.838,75.443 111.246,74.148 110.859,72.956C110.473,71.763 109.381,70.953 107.864,70.734ZM24.828,83.36L25.719,78.177L21.948,74.513L27.161,73.758L29.5,69.034L31.84,73.759L37.052,74.513L33.281,78.177L34.173,83.361L29.5,80.913L24.828,83.36ZM102.281,78.177L103.172,83.36L98.5,80.913L93.827,83.361L94.719,78.177L90.948,74.513L96.16,73.759L98.5,69.034L100.839,73.758L106.052,74.513L102.281,78.177ZM74.743,54.01C79.762,55.261 83.884,57.507 87.053,60.739C88.566,62.283 89.887,64.079 91.019,66.113L91.878,64.378C92.277,63.571 92.784,62.873 93.357,62.271C90.125,57.347 85.43,53.315 78.67,50.998C77.489,52.153 76.168,53.157 74.743,54.01ZM36.764,65.675C37.838,63.74 39.09,62.027 40.534,60.543C43.699,57.292 47.886,55.066 53.032,53.874C51.614,53 50.295,51.981 49.126,50.807C42.253,53.041 37.545,57.042 34.345,61.97C35.046,62.63 35.654,63.434 36.122,64.379L36.764,65.675ZM18.85,60.1L18.221,56.266L20.87,53.564C21.875,52.539 22.233,51.299 21.854,50.163C21.478,49.04 20.468,48.274 19.082,48.065L15.497,47.519L13.877,44.084C12.989,42.203 11.57,42 11.001,42C10.431,42 9.011,42.203 8.126,44.084L6.505,47.519L2.92,48.064C1.532,48.275 0.52,49.041 0.145,50.165C-0.233,51.301 0.126,52.541 1.132,53.565L3.78,56.266L3.151,60.098C2.907,61.577 3.377,62.501 3.814,63.016C4.729,64.096 6.314,64.313 7.815,63.489L11,61.737L14.185,63.489C14.803,63.828 15.42,64 16.02,64C16.877,64 17.645,63.651 18.184,63.018C18.62,62.504 19.091,61.581 18.85,60.1ZM127.854,50.165C127.479,49.041 126.468,48.275 125.081,48.065L121.495,47.519L119.875,44.086C118.989,42.203 117.569,42 116.999,42C116.43,42 115.011,42.203 114.123,44.084L112.503,47.519L108.919,48.064C107.532,48.274 106.521,49.04 106.145,50.163C105.767,51.299 106.125,52.539 107.131,53.565L109.779,56.266L109.15,60.102C108.909,61.581 109.38,62.504 109.816,63.019C110.733,64.095 112.316,64.311 113.814,63.489L117,61.737L120.185,63.489C120.803,63.828 121.42,64 122.02,64C122.879,64 123.647,63.651 124.185,63.016C124.623,62.501 125.093,61.577 124.849,60.1L124.22,56.266L126.867,53.566C127.874,52.541 128.233,51.301 127.854,50.165ZM13.945,54.912L14.644,59.176L11,57.171L7.357,59.172L8.056,54.912L4.998,51.794L9.214,51.153L11.001,47.364L12.788,51.153L17.001,51.797L13.945,54.912ZM119.944,54.912L120.644,59.176L117,57.171L113.355,59.172L114.055,54.912L110.997,51.794L115.212,51.153L116.999,47.364L118.786,51.153L123,51.797L119.944,54.912ZM64,53C73.391,53 81,45.389 81,35.998C81,26.609 73.391,19 64,19C54.613,19 47,26.609 47,35.998C47,45.389 54.613,53 64,53ZM64,23C71.168,23 77,28.831 77,35.998C77,43.167 71.168,49 64,49C56.832,49 51,43.167 51,35.998C51,28.831 56.832,23 64,23Z"/>
    </g>
</svg>
