<?xml version="1.0" encoding="UTF-8" standalone="no"?>
<!DOCTYPE svg PUBLIC "-//W3C//DTD SVG 1.1//EN" "http://www.w3.org/Graphics/SVG/1.1/DTD/svg11.dtd">
<svg width="100%" height="100%" viewBox="0 0 200 200" version="1.1" xmlns="http://www.w3.org/2000/svg" xmlns:xlink="http://www.w3.org/1999/xlink" xml:space="preserve" style="fill-rule:evenodd;clip-rule:evenodd;stroke-linejoin:round;stroke-miterlimit:1.41421;">
    <g id="walletrec" transform="matrix(1.90193,0,0,1.90193,4.90247,4.90152)">
        <path d="M35.851,86.794C31.286,87.749 26.722,85.291 25.001,80.955C23.623,77.481 24.406,73.638 26.816,70.992L26.755,71.401C26.633,72.22 27.198,72.984 28.019,73.105C28.093,73.116 28.167,73.122 28.241,73.122C28.971,73.122 29.612,72.587 29.722,71.842L30.288,68.026C30.347,67.632 30.246,67.232 30.01,66.913C29.773,66.593 29.418,66.381 29.025,66.322L25.209,65.758C24.391,65.639 23.626,66.203 23.506,67.023C23.384,67.842 23.95,68.605 24.77,68.726L24.822,68.734C21.479,72.213 20.361,77.393 22.213,82.063C24.148,86.936 28.813,90.001 33.877,90.001C34.731,90.001 35.599,89.913 36.465,89.732C37.276,89.563 37.796,88.768 37.627,87.958C37.456,87.145 36.666,86.629 35.851,86.794ZM73.75,44.303C72.922,44.303 72.25,44.975 72.25,45.803L72.25,52.866C72.25,53.695 72.922,54.366 73.75,54.366C74.578,54.366 75.25,53.695 75.25,52.866L75.25,45.803C75.25,44.975 74.578,44.303 73.75,44.303ZM45.603,72.781C43.342,67.089 37.344,63.862 31.354,65.112C30.542,65.281 30.022,66.075 30.191,66.886C30.36,67.697 31.162,68.219 31.965,68.048C36.537,67.098 41.094,69.554 42.814,73.887C44.115,77.167 43.492,80.778 41.391,83.398L41.405,83.306C41.527,82.487 40.962,81.724 40.142,81.602C39.321,81.487 38.56,82.047 38.438,82.866L37.872,86.681C37.813,87.075 37.914,87.476 38.15,87.795C38.387,88.114 38.742,88.326 39.135,88.385L42.951,88.95C43.025,88.961 43.099,88.967 43.173,88.967C43.904,88.967 44.544,88.432 44.654,87.687C44.776,86.868 44.21,86.105 43.39,85.983L43.152,85.948C46.372,82.471 47.426,77.379 45.603,72.781ZM76.44,14.874L15.438,14.874C14.61,14.874 13.938,15.545 13.938,16.374C13.938,17.202 14.61,17.874 15.438,17.874L76.44,17.874C77.268,17.874 77.94,17.202 77.94,16.374C77.94,15.545 77.269,14.874 76.44,14.874ZM88.563,38.646L85.438,38.646L85.438,27.246C85.438,23.11 82.074,19.746 77.938,19.746L14.31,19.746C12.451,19.746 10.938,18.233 10.938,16.374C10.938,14.514 12.451,13.001 14.31,13.001L76.44,13.001C77.268,13.001 77.94,12.33 77.94,11.501C77.94,10.673 77.268,10.001 76.44,10.001L14.31,10.001C10.796,10.001 7.938,12.86 7.938,16.374L7.938,71.422C7.938,75.558 11.302,78.922 15.438,78.922L17.626,78.922C18.454,78.922 19.126,78.251 19.126,77.422C19.126,76.594 18.454,75.922 17.626,75.922L15.438,75.922C12.957,75.922 10.938,73.903 10.938,71.422L10.938,21.771C11.917,22.385 13.071,22.747 14.31,22.747L77.938,22.747C80.419,22.747 82.438,24.766 82.438,27.247L82.438,38.647L69.313,38.647C67.383,38.647 65.813,40.217 65.813,42.147L65.813,56.522C65.813,58.452 67.383,60.022 69.313,60.022L82.438,60.022L82.438,71.422C82.438,73.903 80.419,75.922 77.938,75.922L51.626,75.922C50.798,75.922 50.126,76.594 50.126,77.422C50.126,78.251 50.798,78.922 51.626,78.922L77.938,78.922C82.074,78.922 85.438,75.558 85.438,71.422L85.438,60.022L88.563,60.022C90.493,60.022 92.063,58.452 92.063,56.522L92.063,42.146C92.063,40.217 90.492,38.646 88.563,38.646ZM89.063,56.521C89.063,56.797 88.838,57.021 88.563,57.021L69.313,57.021C69.038,57.021 68.813,56.797 68.813,56.521L68.813,42.146C68.813,41.871 69.038,41.646 69.313,41.646L88.563,41.646C88.838,41.646 89.063,41.871 89.063,42.146L89.063,56.521Z" style="fill-rule:nonzero;"/>
    </g>
</svg>
