<?xml version="1.0" encoding="UTF-8" standalone="no"?>
<!DOCTYPE svg PUBLIC "-//W3C//DTD SVG 1.1//EN" "http://www.w3.org/Graphics/SVG/1.1/DTD/svg11.dtd">
<svg width="100%" height="100%" viewBox="0 0 200 200" version="1.1" xmlns="http://www.w3.org/2000/svg" xmlns:xlink="http://www.w3.org/1999/xlink" xml:space="preserve" style="fill-rule:evenodd;clip-rule:evenodd;stroke-linejoin:round;stroke-miterlimit:1.41421;">
    <g id="pin" transform="matrix(1.93353,0,0,1.93353,7.19033,7.19033)">
        <path d="M48,64.49C41.991,64.49 37.102,69.379 37.102,75.388C37.102,81.397 41.991,86.287 48,86.287C54.01,86.287 58.898,81.398 58.898,75.389C58.898,69.38 54.01,64.49 48,64.49ZM17.523,64.49C11.514,64.49 6.625,69.379 6.625,75.388C6.625,81.397 11.514,86.286 17.523,86.286C23.532,86.286 28.421,81.397 28.421,75.388C28.421,69.379 23.532,64.49 17.523,64.49ZM78.479,64.492C72.47,64.492 67.583,69.381 67.583,75.388C67.583,81.395 72.471,86.284 78.479,86.284C84.487,86.284 89.375,81.395 89.375,75.388C89.375,69.381 84.487,64.492 78.479,64.492ZM17.523,83.537C13.03,83.537 9.375,79.883 9.375,75.389C9.375,70.897 13.03,67.243 17.523,67.243C22.016,67.243 25.671,70.897 25.671,75.389C25.671,79.883 22.016,83.537 17.523,83.537ZM48,83.537C43.507,83.537 39.852,79.883 39.852,75.389C39.852,70.897 43.507,67.241 48,67.241C52.493,67.241 56.148,70.897 56.148,75.389C56.148,79.883 52.493,83.537 48,83.537ZM78.479,83.535C73.987,83.535 70.333,79.881 70.333,75.389C70.333,70.899 73.987,67.244 78.479,67.244C82.971,67.244 86.625,70.898 86.625,75.389C86.625,79.881 82.971,83.535 78.479,83.535ZM78.479,37.104C72.47,37.104 67.583,41.992 67.583,48C67.583,54.009 72.471,58.897 78.479,58.897C84.487,58.897 89.375,54.008 89.375,48C89.375,41.991 84.487,37.104 78.479,37.104ZM17.523,37.103C11.514,37.103 6.625,41.991 6.625,47.999C6.625,54.007 11.514,58.896 17.523,58.896C23.532,58.896 28.421,54.007 28.421,47.999C28.421,41.991 23.532,37.103 17.523,37.103ZM48,37.103C41.991,37.103 37.102,41.991 37.102,47.999C37.102,54.007 41.991,58.896 48,58.896C54.01,58.896 58.898,54.007 58.898,47.999C58.898,41.991 54.01,37.103 48,37.103ZM17.523,56.146C13.03,56.146 9.375,52.492 9.375,47.999C9.375,43.507 13.03,39.853 17.523,39.853C22.016,39.853 25.671,43.507 25.671,47.999C25.671,52.492 22.016,56.146 17.523,56.146ZM48,56.146C43.507,56.146 39.852,52.492 39.852,47.999C39.852,43.507 43.507,39.853 48,39.853C52.493,39.853 56.148,43.507 56.148,47.999C56.148,52.492 52.493,56.146 48,56.146ZM78.479,56.146C73.987,56.146 70.333,52.492 70.333,47.999C70.333,43.508 73.987,39.853 78.479,39.853C82.971,39.853 86.625,43.507 86.625,47.999C86.625,52.492 82.971,56.146 78.479,56.146ZM78.479,31.508C84.488,31.508 89.375,26.62 89.375,20.612C89.375,14.603 84.487,9.715 78.479,9.715C72.471,9.715 67.583,14.604 67.583,20.612C67.582,26.62 72.47,31.508 78.479,31.508ZM17.523,9.713C11.514,9.713 6.625,14.602 6.625,20.611C6.625,26.62 11.514,31.507 17.523,31.507C23.532,31.507 28.421,26.619 28.421,20.611C28.421,14.602 23.532,9.713 17.523,9.713ZM48,9.713C41.991,9.713 37.102,14.602 37.102,20.611C37.102,26.62 41.991,31.507 48,31.507C54.01,31.507 58.898,26.619 58.898,20.611C58.898,14.602 54.01,9.713 48,9.713ZM17.523,28.759C13.03,28.759 9.375,25.105 9.375,20.613C9.375,16.12 13.03,12.465 17.523,12.465C22.016,12.465 25.671,16.12 25.671,20.613C25.671,25.104 22.016,28.759 17.523,28.759ZM48,28.759C43.507,28.759 39.852,25.105 39.852,20.613C39.852,16.12 43.507,12.465 48,12.465C52.493,12.465 56.148,16.12 56.148,20.613C56.148,25.104 52.493,28.759 48,28.759ZM72.721,14.854C74.262,13.313 76.307,12.464 78.479,12.464C82.971,12.464 86.625,16.119 86.625,20.611C86.625,25.102 82.971,28.757 78.479,28.757C73.987,28.757 70.333,25.103 70.333,20.611C70.332,18.438 71.18,16.394 72.721,14.854Z"/>
    </g>
</svg>
