<?xml version="1.0" encoding="UTF-8" standalone="no"?>
<!DOCTYPE svg PUBLIC "-//W3C//DTD SVG 1.1//EN" "http://www.w3.org/Graphics/SVG/1.1/DTD/svg11.dtd">
<svg width="100%" height="100%" viewBox="0 0 200 200" version="1.1" xmlns="http://www.w3.org/2000/svg" xmlns:xlink="http://www.w3.org/1999/xlink" xml:space="preserve" style="fill-rule:evenodd;clip-rule:evenodd;stroke-linejoin:round;stroke-miterlimit:1.41421;">
    <g id="_64byte" transform="matrix(3.07692,0,0,3.07692,1.53846,1.53846)">
        <path d="M56,10C57.104,10 58,10.896 58,12L58,52C58,53.104 57.104,54 56,54L8,54C6.896,54 6,53.104 6,52L6,12C6,10.896 6.896,10 8,10L56,10ZM54,50L54,48L10,48L10,50L54,50ZM54,44L54,20L10,20L10,44L54,44ZM14,37C12.896,37 12,37.896 12,39L12,41C12,42.104 12.896,43 14,43C15.104,43 16,42.104 16,41L16,39C16,37.896 15.104,37 14,37ZM20,37C18.896,37 18,37.896 18,39L18,41C18,42.104 18.896,43 20,43C21.104,43 22,42.104 22,41L22,39C22,37.896 21.104,37 20,37ZM26,37C24.896,37 24,37.896 24,39L24,41C24,42.104 24.896,43 26,43C27.104,43 28,42.104 28,41L28,39C28,37.896 27.104,37 26,37ZM50,37C48.896,37 48,37.896 48,39L48,41C48,42.104 48.896,43 50,43C51.104,43 52,42.104 52,41L52,39C52,37.896 51.104,37 50,37ZM14,30C12.896,30 12,30.896 12,32L12,34C12,35.104 12.896,36 14,36C15.104,36 16,35.104 16,34L16,32C16,30.896 15.104,30 14,30ZM26,30C24.896,30 24,30.896 24,32L24,34C24,35.104 24.896,36 26,36C27.104,36 28,35.104 28,34L28,32C28,30.896 27.104,30 26,30ZM44,30C42.896,30 42,30.896 42,32L42,34C42,35.104 42.896,36 44,36C45.104,36 46,35.104 46,34L46,32C46,30.896 45.104,30 44,30ZM32,30C30.896,30 30,30.896 30,32L30,34C30,35.104 30.896,36 32,36C33.104,36 34,35.104 34,34L34,32C34,30.896 33.104,30 32,30ZM50,30C48.896,30 48,30.896 48,32L48,34C48,35.104 48.896,36 50,36C51.104,36 52,35.104 52,34L52,32C52,30.896 51.104,30 50,30ZM14,22C12.896,22 12,22.896 12,24L12,26C12,27.104 12.896,28 14,28C15.104,28 16,27.104 16,26L16,24C16,22.896 15.104,22 14,22ZM20,22C18.896,22 18,22.896 18,24L18,26C18,27.104 18.896,28 20,28C21.104,28 22,27.104 22,26L22,24C22,22.896 21.104,22 20,22ZM26,22C24.896,22 24,22.896 24,24L24,26C24,27.104 24.896,28 26,28C27.104,28 28,27.104 28,26L28,24C28,22.896 27.104,22 26,22ZM38,22C36.896,22 36,22.896 36,24L36,26C36,27.104 36.896,28 38,28C39.104,28 40,27.104 40,26L40,24C40,22.896 39.104,22 38,22ZM44,22C42.896,22 42,22.896 42,24L42,26C42,27.104 42.896,28 44,28C45.104,28 46,27.104 46,26L46,24C46,22.896 45.104,22 44,22ZM32,22C30.896,22 30,22.896 30,24L30,26C30,27.104 30.896,28 32,28C33.104,28 34,27.104 34,26L34,24C34,22.896 33.104,22 32,22ZM54,16L54,14L10,14L10,16L54,16Z"/>
    </g>
</svg>
