<?xml version="1.0" encoding="UTF-8" standalone="no"?>
<!DOCTYPE svg PUBLIC "-//W3C//DTD SVG 1.1//EN" "http://www.w3.org/Graphics/SVG/1.1/DTD/svg11.dtd">
<svg width="100%" height="100%" viewBox="0 0 200 200" version="1.1" xmlns="http://www.w3.org/2000/svg" xmlns:xlink="http://www.w3.org/1999/xlink" xml:space="preserve" style="fill-rule:evenodd;clip-rule:evenodd;stroke-linejoin:round;stroke-miterlimit:1.41421;">
    <g id="keypair" transform="matrix(7.65405e-17,1.25,-1.25,7.65405e-17,177.5,20)">
        <path d="M9.688,73.288C8.546,73.744 7.304,74 6,74C5.892,74 5.787,73.987 5.68,73.984C9.726,85.644 20.65,94 33.5,94C40.392,94 46.719,91.585 51.735,87.553C52.434,87.839 53.198,87.999 54,87.999C57.313,87.999 60,85.313 60,81.999C60,78.685 57.313,75.999 54,75.999C50.686,75.999 48,78.685 48,81.999C48,83.023 48.258,83.986 48.71,84.83C44.396,88.11 39.099,90 33.5,90C22.648,90 13.364,83.05 9.688,73.288ZM11.651,66C10.827,68.329 8.611,70 6,70C2.686,70 0,67.313 0,64C0,61.175 1.955,58.813 4.584,58.175C6.484,48.357 13.073,40.253 21.903,36.41C21.984,37.816 22.35,39.144 22.956,40.336C15.702,43.71 10.278,50.453 8.58,58.59C10.006,59.271 11.119,60.496 11.651,62L18.833,62L18.833,57.469C16.526,56.633 14.875,54.429 14.875,51.833C14.875,48.519 17.561,45.833 20.875,45.833C24.188,45.833 26.875,48.519 26.875,51.833C26.875,54.46 25.184,56.686 22.833,57.499L22.833,62L31.99,62C33.094,62 33.989,62.894 33.99,63.998L34,73.998C34,74.113 33.985,74.226 33.966,74.336C36.313,75.15 38,77.375 38,79.999C38,83.313 35.313,85.999 32,85.999C28.686,85.999 26,83.313 26,79.999C26,77.375 27.688,75.15 30.034,74.336C30.016,74.227 30,74.116 30,74.002L29.992,66L11.651,66ZM54,79.999C55.103,79.999 56,80.896 56,81.999C56,83.102 55.103,83.999 54,83.999C52.897,83.999 52,83.102 52,81.999C52,80.896 52.897,79.999 54,79.999ZM32,77.999C33.103,77.999 34,78.896 34,79.999C34,81.102 33.103,81.999 32,81.999C30.897,81.999 30,81.102 30,79.999C30,78.896 30.897,77.999 32,77.999ZM32,55C30.895,55 30,54.104 30,53L30,41.651C27.671,40.826 26,38.611 26,36C26,32.686 28.686,30 32,30C34.732,30 37.034,31.828 37.759,34.327C45.665,35.492 52.54,39.851 57.112,46.073C57.403,46.029 57.698,46 58,46C60.808,46 63.159,47.932 63.813,50.537L67.95,50.54L75.887,59.056L81.503,52.233C81.864,51.797 82.319,51.581 82.772,51.581C83.274,51.581 83.774,51.848 84.14,52.374L89.045,59.446L94.693,52.283C95.083,51.789 95.623,51.539 96.171,51.539C96.665,51.539 97.164,51.742 97.565,52.152L103.607,58.356L109.536,51.773C109.936,51.332 110.737,50.972 111.326,50.972L114.527,50.978C115.115,50.978 115.961,51.301 116.413,51.699L127.319,63.416C128.229,64.214 128.225,65.48 127.317,66.245L117.492,74.757C116.583,75.521 114.89,76.14 113.713,76.14L62.236,76.061C61.193,74.655 59.798,73.528 58.174,72.823C58.842,72.341 59.652,72.059 60.511,72.059L60.518,72.059L113.72,72.14C113.994,72.124 114.67,71.877 114.918,71.694L123.024,64.672L114,54.977L112.037,54.974L106.579,61.033C105.839,61.855 104.791,62.334 103.685,62.355C103.659,62.356 103.633,62.356 103.607,62.356C102.529,62.356 101.495,61.921 100.741,61.147L96.352,56.64L92.186,61.923C91.426,62.887 90.268,63.446 89.045,63.446C89.004,63.446 88.963,63.445 88.922,63.444C87.655,63.405 86.481,62.768 85.758,61.726L82.608,57.185L78.976,61.598C78.243,62.487 77.162,63.019 76.01,63.054C75.969,63.055 75.928,63.056 75.887,63.056C74.779,63.056 73.719,62.596 72.961,61.783L66.209,54.539L63.432,54.536C62.475,56.58 60.406,58 58,58C55.781,58 53.847,56.792 52.81,55L32,55ZM49.651,69C48.827,71.329 46.611,73 44,73C40.686,73 38,70.313 38,67C38,63.686 40.686,61 44,61C46.611,61 48.827,62.671 49.651,65L68,65C69.105,65 70,65.896 70,67C70,68.104 69.105,69 68,69L49.651,69ZM42,67C42,65.897 42.897,65 44,65C45.103,65 46,65.897 46,67C46,68.102 45.103,69 44,69C42.897,69 42,68.102 42,67ZM76,65C77.104,65 78,65.896 78,67C78,68.104 77.104,69 76,69C74.896,69 74,68.104 74,67C74,65.896 74.896,65 76,65ZM6,62C7.103,62 8,62.897 8,64C8,65.102 7.103,66 6,66C4.897,66 4,65.102 4,64C4,62.897 4.897,62 6,62ZM58,54C56.897,54 56,53.102 56,52C56,50.897 56.897,50 58,50C59.103,50 60,50.897 60,52C60,53.102 59.103,54 58,54ZM20.875,49.833C21.978,49.833 22.875,50.73 22.875,51.833C22.875,52.935 21.978,53.833 20.875,53.833C19.772,53.833 18.875,52.935 18.875,51.833C18.875,50.73 19.772,49.833 20.875,49.833ZM52.09,51C52.284,49.846 52.807,48.806 53.56,47.975C49.602,42.803 43.903,39.363 37.528,38.335C36.875,39.88 35.59,41.088 34,41.651L34,51L52.09,51ZM32,38C30.897,38 30,37.102 30,36C30,34.897 30.897,34 32,34C33.103,34 34,34.897 34,36C34,37.102 33.103,38 32,38Z"/>
    </g>
</svg>
