<?xml version="1.0" encoding="UTF-8" standalone="no"?>
<!DOCTYPE svg PUBLIC "-//W3C//DTD SVG 1.1//EN" "http://www.w3.org/Graphics/SVG/1.1/DTD/svg11.dtd">
<svg width="100%" height="100%" viewBox="0 0 610 443" version="1.1" xmlns="http://www.w3.org/2000/svg" xmlns:xlink="http://www.w3.org/1999/xlink" xml:space="preserve" xmlns:serif="http://www.serif.com/" style="fill-rule:evenodd;clip-rule:evenodd;stroke-linejoin:round;stroke-miterlimit:1.41421;">
    <g transform="matrix(1,0,0,1,-1094.45,-284.345)">
        <g transform="matrix(1.21908,0,0,1.21908,1094.45,272.022)">
            <g>
                <rect x="0" y="327.837" width="500" height="0.25" style="fill:rgb(236,237,237);fill-rule:nonzero;"/>
                <rect x="416.779" y="343.933" width="33.122" height="0.25" style="fill:rgb(236,237,237);fill-rule:nonzero;"/>
                <rect x="322.527" y="346.646" width="8.693" height="0.25" style="fill:rgb(236,237,237);fill-rule:nonzero;"/>
                <rect x="396.586" y="334.646" width="19.192" height="0.25" style="fill:rgb(236,237,237);fill-rule:nonzero;"/>
                <rect x="52.459" y="336.327" width="43.193" height="0.25" style="fill:rgb(236,237,237);fill-rule:nonzero;"/>
                <rect x="104.556" y="336.327" width="6.333" height="0.25" style="fill:rgb(236,237,237);fill-rule:nonzero;"/>
                <rect x="131.471" y="340.549" width="93.676" height="0.25" style="fill:rgb(236,237,237);fill-rule:nonzero;"/>
                <path d="M460.432,323.916L460.432,257.43L428.409,257.43L428.409,239.255L413.077,239.255L413.077,185.826L393.272,166.021L353.081,166.021L353.081,223.272L297.927,223.272L297.927,234.588L258.933,234.588L258.933,219.725L217.042,219.725L217.042,208.526L184.333,208.526L184.333,142.2L126.429,142.2L126.429,184.464L113.097,184.464L113.097,199.779L82.109,199.779L82.109,224.881L65.548,224.881L52.804,237.625L52.804,250.587L40.12,250.587L40.12,323.916L460.432,323.916Z" style="fill:rgb(241,242,243);fill-rule:nonzero;"/>
                <path d="M421.426,257.43L427.856,257.43L428.409,257.059L428.409,257.43L460.432,257.43L460.432,323.916L421.426,323.916L421.426,257.43Z" style="fill:rgb(231,231,231);fill-rule:nonzero;"/>
                <path d="M354.031,238.866L360.461,238.866L361.014,238.392L361.014,238.866L393.037,238.866L393.037,323.916L354.031,323.916L354.031,238.866Z" style="fill:rgb(231,231,231);fill-rule:nonzero;"/>
                <path d="M258.381,224.56L258.381,234.588L259.956,234.588L261.638,245.307L256.89,323.916L204.058,323.916L204.058,219.725L257.622,219.725L258.381,224.56Z" style="fill:rgb(231,231,231);fill-rule:nonzero;"/>
                <path d="M135.389,199.779L135.389,323.916L39.567,323.916L39.567,250.587L52.252,251.121L52.252,224.904L64.996,224.881L81.557,224.881L81.557,199.779L135.389,199.779Z" style="fill:rgb(231,231,231);fill-rule:nonzero;"/>
                <rect x="64.938" y="231.623" width="5.789" height="5.789" style="fill:white;fill-rule:nonzero;"/>
                <rect x="75.168" y="231.623" width="5.789" height="5.789" style="fill:white;fill-rule:nonzero;"/>
                <rect x="64.938" y="242.412" width="5.789" height="5.788" style="fill:white;fill-rule:nonzero;"/>
                <rect x="75.168" y="242.412" width="5.789" height="5.788" style="fill:white;fill-rule:nonzero;"/>
                <rect x="96.556" y="204.447" width="5.789" height="5.789" style="fill:white;fill-rule:nonzero;"/>
                <rect x="106.787" y="204.447" width="5.789" height="5.789" style="fill:white;fill-rule:nonzero;"/>
                <rect x="428.146" y="266.807" width="5.789" height="5.788" style="fill:white;fill-rule:nonzero;"/>
                <rect x="438.376" y="266.807" width="5.79" height="5.788" style="fill:white;fill-rule:nonzero;"/>
                <rect x="210.73" y="236.738" width="5.79" height="5.789" style="fill:white;fill-rule:nonzero;"/>
                <rect x="210.73" y="226.508" width="5.79" height="5.789" style="fill:white;fill-rule:nonzero;"/>
                <rect x="114.214" y="231.623" width="5.789" height="5.789" style="fill:white;fill-rule:nonzero;"/>
                <rect x="124.444" y="231.623" width="5.789" height="5.789" style="fill:white;fill-rule:nonzero;"/>
                <rect x="390.143" y="189.679" width="5.789" height="5.789" style="fill:white;fill-rule:nonzero;"/>
                <rect x="400.374" y="189.679" width="5.788" height="5.789" style="fill:white;fill-rule:nonzero;"/>
                <rect x="400.374" y="200.467" width="5.788" height="5.789" style="fill:white;fill-rule:nonzero;"/>
                <path d="M448.216,149.503C448.307,148.927 448.368,148.339 448.368,147.737C448.368,141.508 443.318,136.458 437.089,136.458C436.465,136.458 435.857,136.522 435.261,136.619C433.012,132.872 428.911,130.364 424.224,130.364C418.323,130.364 413.354,134.338 411.836,139.754C411.051,139.51 410.217,139.379 409.351,139.379C404.735,139.379 400.993,143.121 400.993,147.737C400.993,148.343 401.061,148.934 401.184,149.503L448.216,149.503Z" style="fill:rgb(241,242,243);fill-rule:nonzero;"/>
                <path d="M90.968,168.561C91.034,168.147 91.078,167.725 91.078,167.292C91.078,162.815 87.449,159.187 82.972,159.187C82.524,159.187 82.087,159.232 81.659,159.303C80.043,156.61 77.096,154.808 73.727,154.808C69.486,154.808 65.916,157.663 64.826,161.556C64.261,161.38 63.662,161.286 63.04,161.286C59.722,161.286 57.033,163.975 57.033,167.292C57.033,167.728 57.082,168.152 57.17,168.561L90.968,168.561Z" style="fill:rgb(241,242,243);fill-rule:nonzero;"/>
                <path d="M182.081,43.007C182.237,42.015 182.342,41.006 182.342,39.97C182.342,29.263 173.662,20.583 162.955,20.583C161.883,20.583 160.838,20.693 159.813,20.86C155.948,14.42 148.899,10.109 140.841,10.109C130.699,10.109 122.157,16.939 119.55,26.249C118.2,25.829 116.766,25.603 115.277,25.603C107.343,25.603 100.911,32.036 100.911,39.97C100.911,41.013 101.028,42.027 101.239,43.007L182.081,43.007Z" style="fill:rgb(241,242,243);fill-rule:nonzero;"/>
                <path d="M441.95,361.677C441.95,367.931 355.143,373 248.061,373C140.978,373 54.171,367.931 54.171,361.677C54.171,355.423 140.978,350.353 248.061,350.353C355.143,350.353 441.95,355.423 441.95,361.677Z" style="fill:rgb(246,248,249);fill-rule:nonzero;"/>
                <path d="M96.104,69.796L123.843,69.796C130.754,69.796 136.408,75.45 136.408,82.361L136.408,108.075L97.934,108.075C91.024,108.075 85.369,102.42 85.369,95.51L85.369,80.531C85.369,74.602 90.175,69.796 96.104,69.796Z" style="fill:rgb(62,117,186);fill-rule:nonzero;"/>
                <path d="M136.408,104.408L136.408,115.411L124.908,103.91L136.408,104.408Z" style="fill:rgb(62,117,186);fill-rule:nonzero;"/>
                <path d="M129.072,108.075L97.934,108.075C91.024,108.075 85.369,102.42 85.369,95.51L85.369,80.531C85.369,74.602 90.175,69.796 96.104,69.796L123.843,69.796C130.754,69.796 136.408,75.45 136.408,82.361L136.408,104.408L124.908,103.91L129.072,108.075Z" style="fill:rgb(167,204,255);fill-rule:nonzero;"/>
                <path d="M136.408,115.411L124.908,103.91L136.408,104.408L136.408,115.411Z" style="fill:rgb(167,204,255);fill-rule:nonzero;"/>
                <path d="M406.182,22.284C388.908,22.284 374.854,36.338 374.854,53.612C374.854,70.887 388.908,84.941 406.182,84.941C423.457,84.941 437.511,70.887 437.511,53.612C437.511,36.338 423.457,22.284 406.182,22.284ZM406.182,89.941C386.15,89.941 369.854,73.644 369.854,53.612C369.854,33.581 386.15,17.284 406.182,17.284C426.214,17.284 442.511,33.581 442.511,53.612C442.511,73.644 426.214,89.941 406.182,89.941Z" style="fill:rgb(62,117,186);fill-rule:nonzero;"/>
                <path d="M406.641,75.449L387.979,57.503L391.445,53.899L405.723,67.63L424.219,38.848L428.425,41.551L406.641,75.449Z" style="fill:rgb(62,117,186);fill-rule:nonzero;"/>
                <path d="M406.182,89.941C386.15,89.941 369.854,73.644 369.854,53.612C369.854,33.581 386.15,17.284 406.182,17.284C426.214,17.284 442.511,33.581 442.511,53.612C442.511,73.644 426.214,89.941 406.182,89.941ZM374.854,53.612C374.854,70.887 388.908,84.941 406.182,84.941C423.457,84.941 437.511,70.887 437.511,53.612C437.511,36.338 423.457,22.284 406.182,22.284C388.908,22.284 374.854,36.338 374.854,53.612Z" style="fill:rgb(214,230,249);fill-rule:nonzero;"/>
                <path d="M406.641,75.449L387.979,57.503L391.445,53.899L405.723,67.63L424.219,38.848L428.425,41.551L406.641,75.449Z" style="fill:rgb(150,190,249);fill-rule:nonzero;"/>
                <path d="M346.914,47.106L211.961,47.219C203.677,47.226 196.967,53.947 196.974,62.231L197.21,343.766C197.217,352.051 203.938,358.761 212.223,358.754L347.176,358.641C355.459,358.634 362.17,351.912 362.163,343.628L361.927,62.093C361.92,53.809 355.198,47.099 346.914,47.106Z" style="fill:rgb(24,46,53);fill-rule:nonzero;"/>
                <path d="M346.497,346.239L212.881,346.351C210.119,346.353 207.879,344.117 207.876,341.355L207.643,62.962C207.641,60.201 209.877,57.96 212.639,57.958L346.255,57.846C349.016,57.844 351.257,60.08 351.259,62.842L351.493,341.235C351.495,343.996 349.258,346.236 346.497,346.239Z" style="fill:rgb(0,125,254);fill-rule:nonzero;"/>
                <path d="M267.597,272.298C265.847,272.298 264.307,271.399 263.414,270.037L270.287,270.037C269.634,270.793 268.986,271.542 268.334,272.297L267.602,272.298L267.597,272.298Z" style="fill:rgb(0,111,233);fill-rule:nonzero;"/>
                <path d="M225.209,272.334C222.449,272.334 220.21,270.098 220.208,267.338L220.193,249.342L223.951,245.009L223.951,252.919C223.951,255.899 225.255,258.575 227.324,260.407C227.519,265.759 231.918,270.037 237.317,270.037L253.451,270.037C252.561,271.406 251.017,272.312 249.262,272.313L225.212,272.334L225.209,272.334Z" style="fill:rgb(0,111,233);fill-rule:nonzero;"/>
                <path d="M225.241,309.971C222.48,309.971 220.242,307.735 220.24,304.974L220.224,285.726C220.221,282.965 222.458,280.724 225.219,280.723L249.269,280.702L249.272,280.702C252.032,280.702 254.27,282.938 254.272,285.698L254.275,288.569C247.947,295.895 241.753,303.067 235.802,309.962L225.244,309.971L225.241,309.971Z" style="fill:rgb(0,111,233);fill-rule:nonzero;"/>
                <path d="M319.7,309.891L339.054,287.576L339.068,304.875C339.071,307.637 336.834,309.877 334.072,309.879L319.7,309.891Z" style="fill:rgb(0,111,233);fill-rule:nonzero;"/>
                <path d="M212.876,346.351C212.71,346.351 212.546,346.343 212.384,346.327C212.546,346.343 212.711,346.351 212.877,346.351L212.879,346.351L212.876,346.351ZM212.381,346.327C212.377,346.327 212.374,346.327 212.371,346.326C212.374,346.327 212.377,346.327 212.381,346.327ZM212.364,346.325L212.361,346.325L212.364,346.325ZM351.41,242.63L351.354,176.495L351.355,176.495L351.41,242.63Z" style="fill:rgb(51,70,75);fill-rule:nonzero;"/>
                <path d="M212.877,346.351C212.711,346.351 212.546,346.343 212.384,346.327L212.381,346.327C212.377,346.327 212.374,346.327 212.371,346.326C212.369,346.326 212.367,346.326 212.364,346.325L212.361,346.325C210.134,346.096 208.348,344.4 207.964,342.221C216.159,332.72 225.624,321.752 235.802,309.962L249.293,309.95C252.055,309.948 254.291,307.708 254.289,304.946L254.275,288.569C258.903,283.21 263.607,277.767 268.334,272.297L291.651,272.278C293.391,272.276 294.923,271.386 295.817,270.037L305.827,270.037C306.724,271.379 308.253,272.263 309.988,272.263L309.992,272.263L334.041,272.242C336.524,272.24 338.583,270.429 338.971,268.056C341.414,266.233 342.995,263.32 342.995,260.037L342.995,186.099C345.931,182.723 348.723,179.515 351.355,176.495L351.41,242.63L351.436,273.301L339.054,287.576L339.052,285.627C339.05,282.866 336.811,280.631 334.051,280.631L334.048,280.631L309.999,280.651C307.237,280.653 305,282.893 305.003,285.655L305.019,304.903C305.021,307.663 307.258,309.899 310.018,309.899L310.023,309.899L319.7,309.891L288.131,346.288L212.88,346.351L212.879,346.351L212.877,346.351ZM291.7,326.918L291.697,326.918L267.648,326.938C264.887,326.94 262.65,329.181 262.652,331.942L262.653,333.382C262.656,336.142 264.894,338.378 267.654,338.378L267.658,338.378L291.707,338.357C294.468,338.355 296.705,336.115 296.703,333.353L296.701,331.914C296.699,329.153 294.461,326.918 291.7,326.918ZM291.664,280.667L291.658,280.667L267.609,280.686C264.848,280.689 262.611,282.93 262.613,285.691L262.629,304.939C262.632,307.7 264.87,309.935 267.63,309.935L267.634,309.935L291.683,309.915C294.444,309.913 296.681,307.672 296.679,304.911L296.663,285.662C296.66,282.903 294.422,280.667 291.664,280.667Z" style="fill:rgb(40,136,255);fill-rule:nonzero;"/>
                <path d="M267.654,338.378C264.894,338.378 262.656,336.142 262.653,333.382L262.652,331.942C262.65,329.181 264.887,326.94 267.648,326.938L291.697,326.918L291.7,326.918C294.461,326.918 296.699,329.153 296.701,331.914L296.703,333.353C296.705,336.115 294.468,338.355 291.707,338.357L267.658,338.378L267.654,338.378Z" style="fill:rgb(0,111,233);fill-rule:nonzero;"/>
                <path d="M268.334,272.297C268.986,271.542 269.634,270.793 270.287,270.037L295.817,270.037C294.923,271.386 293.391,272.276 291.651,272.278L268.334,272.297Z" style="fill:rgb(0,111,233);fill-rule:nonzero;"/>
                <path d="M309.988,272.263C308.253,272.263 306.724,271.379 305.827,270.037L332.995,270.037C335.235,270.037 337.304,269.3 338.971,268.056C338.583,270.429 336.524,272.24 334.041,272.242L309.992,272.263L309.988,272.263Z" style="fill:rgb(0,111,233);fill-rule:nonzero;"/>
                <path d="M267.63,309.935C264.87,309.935 262.632,307.7 262.629,304.939L262.613,285.691C262.611,282.93 264.848,280.689 267.609,280.686L291.658,280.667L291.664,280.667C294.422,280.667 296.66,282.903 296.663,285.662L296.679,304.911C296.681,307.672 294.444,309.913 291.683,309.915L267.634,309.935L267.63,309.935Z" style="fill:rgb(0,111,233);fill-rule:nonzero;"/>
                <path d="M235.802,309.962C241.753,303.067 247.947,295.895 254.275,288.569L254.289,304.946C254.291,307.708 252.055,309.948 249.293,309.95L235.802,309.962Z" style="fill:rgb(0,111,233);fill-rule:nonzero;"/>
                <path d="M310.018,309.899C307.258,309.899 305.021,307.663 305.019,304.903L305.003,285.655C305,282.893 307.237,280.653 309.999,280.651L334.048,280.631L334.051,280.631C336.811,280.631 339.05,282.866 339.052,285.627L339.054,287.576L319.7,309.891L310.023,309.899L310.018,309.899Z" style="fill:rgb(0,111,233);fill-rule:nonzero;"/>
                <path d="M207.76,202.995L207.745,184.306C212.593,183.079 216.172,182.055 216.188,181.886C216.189,181.879 216.189,181.872 216.189,181.863C216.188,181.707 216.078,181.209 215.915,180.555C216.905,180.154 217.962,179.727 218.749,179.409C218.477,179.813 218.321,180.115 218.325,180.266C218.344,181.008 220.828,181.451 222.672,181.452C223.164,181.452 223.609,181.42 223.951,181.354L223.951,184.328L207.76,202.995ZM219.566,178.311L217.596,175.41L214.777,176.366C214.62,175.81 214.515,175.446 214.515,175.446C214.515,175.446 211.692,175.734 207.738,176.067L207.704,135.205C213.077,128.985 218.537,122.669 223.951,116.408L223.951,170.788C222.855,171.014 221.792,171.39 220.647,171.599C220.647,171.599 220.54,171.917 221.059,172.293C221.228,172.416 221.532,172.449 221.884,172.449C222.09,172.449 222.313,172.438 222.535,172.427C222.758,172.415 222.98,172.404 223.185,172.404C223.502,172.404 223.778,172.431 223.951,172.527L223.951,173.425C222.5,174.887 220.728,176.846 219.566,178.311ZM301.037,95.451L242.09,95.451C250.364,85.9 258.134,76.944 264.856,69.217L323.833,69.168L301.037,95.451Z" style="fill:rgb(40,136,255);fill-rule:nonzero;"/>
                <path d="M286.929,57.896L321.091,57.867L286.929,57.896Z" style="fill:rgb(51,70,75);fill-rule:nonzero;"/>
                <path d="M207.811,263.618L207.799,249.071L207.811,263.618Z" style="fill:rgb(51,70,75);fill-rule:nonzero;"/>
                <path d="M207.811,263.618L207.799,249.071L207.782,228.241L223.951,209.598L223.951,243.241C221.788,243.793 220.19,245.755 220.192,248.09L220.193,249.342L207.811,263.618Z" style="fill:rgb(0,111,233);fill-rule:nonzero;"/>
                <path d="M220.193,249.342L220.192,248.09C220.19,245.755 221.788,243.793 223.951,243.241L223.951,245.009L220.193,249.342Z" style="fill:rgb(67,120,188);fill-rule:nonzero;"/>
                <path d="M351.288,98.195L351.264,69.145L351.289,98.195" style="fill:rgb(51,70,75);fill-rule:nonzero;"/>
                <path d="M342.205,108.667C341.619,107.285 340.73,106.062 339.623,105.081C339.428,99.729 335.029,95.451 329.629,95.451L322.955,95.451L345.767,69.15L351.264,69.145L351.288,98.195L342.205,108.667Z" style="fill:rgb(40,136,255);fill-rule:nonzero;"/>
                <path d="M351.26,64.513L351.259,62.842L351.259,62.818L351.26,64.513Z" style="fill:rgb(51,70,75);fill-rule:nonzero;"/>
                <path d="M207.648,69.265L207.643,62.962L207.648,69.265Z" style="fill:rgb(15,35,41);fill-rule:nonzero;"/>
                <path d="M207.648,69.265L207.643,62.962C207.641,60.201 209.877,57.96 212.639,57.958L271.965,57.909C271.966,58.827 272.132,59.706 272.435,60.518C270.103,63.191 267.564,66.104 264.856,69.217L207.648,69.265ZM214.713,60.402L212.539,60.404L212.544,66.202L214.718,66.201L214.713,60.402ZM218.257,61.366L216.083,61.368L216.087,66.2L218.261,66.198L218.257,61.366ZM221.801,62.33L219.626,62.332L219.63,66.197L221.804,66.195L221.801,62.33ZM225.344,63.294L223.17,63.296L223.173,66.194L225.347,66.192L225.344,63.294ZM323.833,69.168L325.758,66.949L326.637,66.949C326.785,67.205 327.061,67.377 327.379,67.377L327.38,67.377C327.697,67.377 327.974,67.204 328.122,66.948L330.456,66.946C330.601,66.946 330.731,66.858 330.786,66.725C330.842,66.591 330.811,66.437 330.709,66.335L330.289,65.915L330.195,65.822L330.153,65.77L330.15,65.765L330.021,65.572C329.858,65.293 329.705,64.884 329.695,64.342L329.694,63.082C329.694,62.882 329.667,62.686 329.617,62.499L333.644,57.857L321.091,57.867L346.255,57.846L346.259,57.846C349.011,57.846 351.244,60.069 351.259,62.818L345.767,69.15L323.833,69.168ZM336.905,63.592L336.908,66.098L347.174,66.09L347.169,61.076L336.903,61.085L336.904,62.142L335.616,62.143L335.618,65.042L336.907,65.04L336.905,63.592Z" style="fill:rgb(43,100,176);fill-rule:nonzero;"/>
                <path d="M351.264,69.145L351.26,64.513L351.264,69.145Z" style="fill:rgb(15,35,41);fill-rule:nonzero;"/>
                <path d="M264.856,69.217C267.564,66.104 270.103,63.191 272.435,60.518C273.496,63.361 276.235,65.384 279.447,65.384L279.453,65.384C283.585,65.381 286.932,62.028 286.929,57.896L321.091,57.867L333.644,57.857L329.617,62.499C329.425,61.779 328.887,61.188 328.198,60.921L328.217,60.843L328.217,60.84L328.229,60.762L328.232,60.68C328.232,60.205 327.848,59.821 327.374,59.822C326.899,59.822 326.515,60.207 326.516,60.681L326.519,60.763L326.519,60.764L326.531,60.841L326.532,60.844L326.551,60.922C325.684,61.261 325.057,62.111 325.058,63.086L325.059,64.303C325.059,64.866 324.902,65.29 324.734,65.576C324.674,65.68 324.612,65.765 324.556,65.832L324.468,65.92L324.049,66.34C323.947,66.443 323.916,66.597 323.972,66.73C324.027,66.863 324.157,66.951 324.301,66.951L324.303,66.951L325.758,66.949L323.833,69.168L264.856,69.217Z" style="fill:rgb(52,109,181);fill-rule:nonzero;"/>
                <path d="M351.264,69.145L351.259,62.842L351.26,64.513L351.264,69.145Z" style="fill:rgb(38,54,59);fill-rule:nonzero;"/>
                <path d="M345.767,69.15L351.259,62.818L351.259,62.842L351.264,69.145L345.767,69.15Z" style="fill:rgb(52,109,181);fill-rule:nonzero;"/>
                <path d="M327.379,67.377C327.061,67.377 326.785,67.205 326.637,66.949L325.758,66.949L329.617,62.499C329.667,62.686 329.694,62.882 329.694,63.082L329.695,64.342C329.705,64.884 329.858,65.293 330.021,65.572L330.15,65.765L330.153,65.77L330.195,65.822L330.289,65.915L330.709,66.335C330.811,66.437 330.842,66.591 330.786,66.725C330.731,66.858 330.601,66.946 330.456,66.946L328.122,66.948C327.974,67.204 327.697,67.377 327.38,67.377L327.379,67.377Z" style="fill:rgb(167,193,229);fill-rule:nonzero;"/>
                <path d="M324.301,66.951C324.157,66.951 324.027,66.863 323.972,66.73C323.916,66.597 323.947,66.443 324.049,66.34L324.468,65.92L324.556,65.832C324.612,65.765 324.674,65.68 324.734,65.576C324.902,65.29 325.059,64.866 325.059,64.303L325.058,63.086C325.057,62.111 325.684,61.261 326.551,60.922L326.532,60.844L326.531,60.841L326.519,60.764L326.519,60.763L326.516,60.681C326.515,60.207 326.899,59.822 327.374,59.822C327.848,59.821 328.232,60.205 328.232,60.68L328.229,60.762L328.217,60.84L328.217,60.843L328.198,60.921C328.887,61.188 329.425,61.779 329.617,62.499L325.758,66.949L324.303,66.951L324.301,66.951Z" style="fill:rgb(173,197,231);fill-rule:nonzero;"/>
                <path d="M223.173,66.194L223.17,63.296L225.344,63.294L225.347,66.192L223.173,66.194Z" style="fill:rgb(115,155,209);fill-rule:nonzero;"/>
                <path d="M219.63,66.197L219.626,62.332L221.801,62.33L221.804,66.195L219.63,66.197Z" style="fill:rgb(115,155,209);fill-rule:nonzero;"/>
                <path d="M216.087,66.2L216.083,61.368L218.257,61.366L218.261,66.198L216.087,66.2Z" style="fill:rgb(115,155,209);fill-rule:nonzero;"/>
                <path d="M212.544,66.202L212.539,60.404L214.713,60.402L214.718,66.201L212.544,66.202Z" style="fill:rgb(115,155,209);fill-rule:nonzero;"/>
                <path d="M335.618,65.042L335.616,62.143L336.904,62.142L336.905,63.592L336.907,65.04L335.618,65.042Z" style="fill:rgb(167,193,229);fill-rule:nonzero;"/>
                <path d="M336.908,66.098L336.905,63.592L336.904,62.142L336.903,61.085L347.169,61.076L347.174,66.09L336.908,66.098Z" style="fill:rgb(167,193,229);fill-rule:nonzero;"/>
                <path d="M336.905,63.592L336.904,62.142L336.905,63.592Z" style="fill:rgb(220,231,246);fill-rule:nonzero;"/>
                <path d="M286.929,57.896C286.932,62.028 283.585,65.381 279.453,65.384C275.321,65.388 271.968,62.04 271.965,57.909C271.961,53.776 275.308,50.424 279.44,50.42C283.573,50.417 286.925,53.764 286.929,57.896Z" style="fill:rgb(24,46,53);fill-rule:nonzero;"/>
                <path d="M279.446,61.766C277.314,61.766 275.584,60.038 275.583,57.905C275.581,55.771 277.309,54.039 279.443,54.038L279.447,54.038C281.58,54.038 283.309,55.766 283.311,57.899C283.313,60.033 281.584,61.765 279.45,61.766L279.446,61.766Z" style="fill:rgb(48,67,72);fill-rule:nonzero;"/>
                <path d="M284.188,63.791C284.188,63.791 290.251,57.893 301.573,57.884L284.182,56.898L284.188,63.791Z" style="fill:rgb(24,46,53);fill-rule:nonzero;"/>
                <path d="M274.715,63.799C274.715,63.799 268.642,57.911 257.32,57.921L274.709,56.906L274.715,63.799Z" style="fill:rgb(24,46,53);fill-rule:nonzero;"/>
                <path d="M263.414,270.037L253.451,270.037C253.962,269.252 254.258,268.315 254.257,267.31L254.254,262.919L262.594,262.919L262.598,267.303C262.599,268.312 262.899,269.251 263.414,270.037ZM339.629,189.971L339.629,111.637L342.205,108.667C342.714,109.866 342.995,111.185 342.995,112.569L342.995,186.099C341.895,187.365 340.768,188.661 339.629,189.971Z" style="fill:rgb(22,89,169);fill-rule:nonzero;"/>
                <path d="M270.287,270.037L263.414,270.037C262.899,269.251 262.599,268.312 262.598,267.303L262.594,262.919L276.44,262.919C274.389,265.291 272.334,267.669 270.287,270.037Z" style="fill:rgb(8,79,160);fill-rule:nonzero;"/>
                <path d="M253.451,270.037L237.317,270.037C231.918,270.037 227.519,265.759 227.324,260.407C229.088,261.971 231.409,262.919 233.951,262.919L254.254,262.919L254.257,267.31C254.258,268.315 253.962,269.252 253.451,270.037Z" style="fill:rgb(8,79,160);fill-rule:nonzero;"/>
                <path d="M305.827,270.037L295.817,270.037C296.342,269.245 296.648,268.295 296.647,267.273L296.643,262.919L304.984,262.919L304.988,267.266C304.989,268.291 305.298,269.244 305.827,270.037ZM338.971,268.056C339.014,267.79 339.037,267.517 339.037,267.238L339.027,256.344C339.417,255.275 339.629,254.122 339.629,252.919L339.629,189.971C340.768,188.661 341.895,187.365 342.995,186.099L342.995,260.037C342.995,263.32 341.414,266.233 338.971,268.056Z" style="fill:rgb(35,96,173);fill-rule:nonzero;"/>
                <path d="M295.817,270.037L270.287,270.037C272.334,267.669 274.389,265.291 276.44,262.919L296.643,262.919L296.647,267.273C296.648,268.295 296.342,269.245 295.817,270.037Z" style="fill:rgb(24,87,166);fill-rule:nonzero;"/>
                <path d="M332.995,270.037L305.827,270.037C305.298,269.244 304.989,268.291 304.988,267.266L304.984,262.919L329.629,262.919C333.949,262.919 337.629,260.18 339.027,256.344L339.037,267.238C339.037,267.517 339.014,267.79 338.971,268.056C337.304,269.3 335.235,270.037 332.995,270.037Z" style="fill:rgb(24,87,166);fill-rule:nonzero;"/>
                <path d="M339.629,111.637L339.629,105.451C339.629,105.327 339.627,105.203 339.623,105.081C340.73,106.062 341.619,107.285 342.205,108.667L339.629,111.637Z" style="fill:rgb(35,96,173);fill-rule:nonzero;"/>
                <path d="M329.629,95.451L233.951,95.451C228.429,95.451 223.951,99.928 223.951,105.451L223.951,252.919C223.951,258.441 228.429,262.919 233.951,262.919L329.629,262.919C335.152,262.919 339.629,258.441 339.629,252.919L339.629,105.451C339.629,99.928 335.152,95.451 329.629,95.451Z" style="fill:white;fill-rule:nonzero;"/>
                <path d="M323.049,103.208C319.812,103.208 317.177,105.842 317.177,109.08C317.177,112.319 319.812,114.953 323.049,114.953C326.287,114.953 328.922,112.319 328.922,109.08C328.922,105.842 326.287,103.208 323.049,103.208ZM323.049,116.258C319.092,116.258 315.872,113.038 315.872,109.08C315.872,105.123 319.092,101.903 323.049,101.903C327.007,101.903 330.227,105.123 330.227,109.08C330.227,113.038 327.007,116.258 323.049,116.258Z" style="fill:rgb(225,226,225);fill-rule:nonzero;"/>
                <path d="M320.86,112.192L319.938,111.269L325.238,105.969L326.161,106.892L320.86,112.192Z" style="fill:rgb(225,226,225);fill-rule:nonzero;"/>
                <path d="M325.238,112.192L319.938,106.892L320.86,105.969L326.161,111.269L325.238,112.192Z" style="fill:rgb(225,226,225);fill-rule:nonzero;"/>
                <path d="M306.646,258.442L258.002,258.442C252.479,258.442 248.002,253.966 248.002,248.442C248.002,242.92 252.479,238.442 258.002,238.442L306.646,238.442C312.169,238.442 316.646,242.92 316.646,248.442C316.646,253.966 312.169,258.442 306.646,258.442Z" style="fill:rgb(225,226,225);fill-rule:nonzero;"/>
                <path d="M305.579,256.613L256.935,256.613C251.412,256.613 246.935,252.135 246.935,246.612C246.935,241.09 251.412,236.612 256.935,236.612L305.579,236.612C311.102,236.612 315.579,241.09 315.579,246.612C315.579,252.135 311.102,256.613 305.579,256.613Z" style="fill:rgb(0,126,255);fill-rule:nonzero;"/>
                <rect x="251.874" y="203.046" width="55.389" height="3" style="fill:rgb(225,226,225);fill-rule:nonzero;"/>
                <rect x="251.84" y="223.598" width="55.39" height="3" style="fill:rgb(246,248,249);fill-rule:nonzero;"/>
                <rect x="240.576" y="210.386" width="77.985" height="5" style="fill:rgb(225,226,225);fill-rule:nonzero;"/>
                <path d="M322.728,154.808C322.728,178.644 303.405,197.967 279.568,197.967C255.732,197.967 236.409,178.644 236.409,154.808C236.409,130.971 255.732,111.648 279.568,111.648C303.405,111.648 322.728,130.971 322.728,154.808Z" style="fill:rgb(62,117,186);fill-rule:nonzero;"/>
                <path d="M279.631,197.967L279.643,197.967L279.631,197.967ZM279.505,197.967L279.482,197.967L279.505,197.967ZM279.443,197.967C279.433,197.967 279.423,197.966 279.413,197.966C279.423,197.966 279.433,197.967 279.443,197.967ZM279.702,197.967C279.707,197.967 279.712,197.966 279.717,197.966C279.713,197.966 279.706,197.967 279.702,197.967ZM279.384,197.966L279.347,197.966L279.384,197.966ZM279.77,197.966L279.789,197.966L279.77,197.966ZM279.34,197.966C263.537,197.885 249.747,189.313 242.293,176.577C246.426,176.474 249.894,176.196 251.995,175.845C256.133,175.152 259.187,168.592 260.855,163.936C262.489,171.772 264.692,182.17 265.989,195.774C270.192,197.168 274.676,197.942 279.34,197.966ZM279.833,197.966L279.857,197.966L279.833,197.966ZM279.905,197.965L279.936,197.965L279.905,197.965ZM279.955,197.965C284.759,197.923 289.374,197.091 293.68,195.597C293.683,195.599 293.687,195.601 293.691,195.603C289.381,197.095 284.762,197.923 279.955,197.965ZM302.838,191.163C303.59,189.695 303.888,188.63 303.832,187.766L305.881,184.09L306.412,184.438C306.412,184.438 311.647,179.38 311.646,170.159C311.646,165.555 310.34,159.912 306.426,153.344C300.46,143.331 295.386,138.382 291.834,135.936C290.675,134.651 289.04,133.93 286.896,133.611C286.626,133.56 286.458,133.548 286.4,133.546C285.608,133.453 284.751,133.411 283.827,133.411C282.628,133.411 281.318,133.482 279.891,133.61C276.803,131.046 276.474,124.8 276.496,120.406L273.644,124.176C273.64,124.172 273.637,124.167 273.633,124.163L272.346,125.892L269.451,129.719C270.575,132.163 271.146,133.894 269.386,135.609C267.974,136.137 266.771,136.76 265.732,137.469C264.71,137.81 263.427,138.478 261.84,139.538C259.019,141.064 253.737,150.743 251.562,158.311C249.387,165.878 249.103,166.918 246.968,167.453C246.525,167.563 242.777,168.198 238.754,168.876C237.234,164.466 236.409,159.734 236.409,154.808C236.409,130.971 255.732,111.648 279.568,111.648C303.405,111.648 322.728,130.971 322.728,154.808C322.728,170.075 314.801,183.49 302.838,191.163ZM298.474,186.05C297.624,178.472 296.521,168.496 295.615,159.846C295.427,158.052 295.248,156.315 295.081,154.669C297.077,157.297 301.737,163.632 303.007,167.134C303.311,167.972 303.434,168.978 303.434,170.06C303.432,174.777 301.076,180.937 301.076,180.937L301.8,181.412L300.117,185.166C300.117,185.166 299.4,185.519 298.474,186.05Z" style="fill:rgb(175,200,233);fill-rule:nonzero;"/>
                <path d="M229.701,172.144C229.701,172.144 227.369,170.997 226.279,171.396C225.188,171.796 218.299,179.274 218.325,180.266C218.351,181.258 222.776,181.716 224.197,181.296C225.617,180.875 230.574,175.132 230.809,174.546L229.701,172.144Z" style="fill:rgb(253,209,174);fill-rule:nonzero;"/>
                <path d="M226.829,174.912C226.829,174.912 224.347,173.796 224.133,172.758C224.049,172.35 223.293,172.388 222.535,172.427C221.932,172.457 221.327,172.488 221.059,172.293C220.54,171.917 220.647,171.599 220.647,171.599C223.581,171.064 225.977,169.427 229.781,172.044L226.829,174.912Z" style="fill:rgb(253,209,174);fill-rule:nonzero;"/>
                <path d="M230.438,176.382C239.34,176.902 248.062,176.503 251.995,175.845C258.478,174.76 262.301,159.27 262.301,159.27C262.301,159.27 278.163,128.63 261.84,139.538C259.019,141.064 253.737,150.743 251.562,158.311C249.387,165.878 249.103,166.918 246.968,167.453C246.059,167.68 231.18,170.122 228.663,170.601L230.438,176.382Z" style="fill:rgb(62,117,186);fill-rule:nonzero;"/>
                <path d="M238.769,176.62C236.111,176.62 233.283,176.548 230.438,176.382L229.261,172.549L228.946,171.524L228.663,170.601C231.18,170.122 246.059,167.68 246.968,167.453C249.103,166.918 249.387,165.878 251.562,158.311C253.737,150.743 259.019,141.064 261.84,139.538C263.427,138.478 264.71,137.81 265.732,137.469C262.296,139.814 260.661,143.108 259.256,147.084C258.913,148.058 258.76,149.204 258.76,150.542C258.76,152.2 258.993,154.153 259.38,156.432L258.538,169.323C259.479,167.521 260.256,165.605 260.855,163.934L260.855,163.936C259.187,168.592 256.133,175.152 251.995,175.845C249.894,176.196 246.426,176.474 242.293,176.577C241.163,176.605 239.984,176.621 238.769,176.62Z" style="fill:rgb(68,152,255);fill-rule:nonzero;"/>
                <path d="M258.538,169.323L259.38,156.432C259.752,158.621 260.267,161.112 260.855,163.934C260.256,165.605 259.479,167.521 258.538,169.323Z" style="fill:rgb(24,43,87);fill-rule:nonzero;"/>
                <path d="M299.28,193.199C297.911,181.121 294.393,149.746 293.978,142.433C293.462,133.326 288.024,132.522 276.383,133.995C264.742,135.469 261.661,140.276 259.256,147.084C256.94,153.644 263.346,168.048 265.989,195.774C270.261,197.19 274.822,197.967 279.568,197.967C286.673,197.967 293.37,196.24 299.28,193.199Z" style="fill:rgb(62,117,186);fill-rule:nonzero;"/>
                <path d="M279.568,197.967C274.822,197.967 270.261,197.19 265.989,195.774C264.692,182.168 262.489,171.771 260.855,163.934C260.267,161.112 259.752,158.621 259.38,156.432C258.993,154.153 258.76,152.2 258.76,150.542C258.76,149.204 258.913,148.058 259.256,147.084C261.084,141.906 263.305,137.886 269.386,135.609C268.798,136.182 267.949,136.754 266.773,137.349C266.773,137.349 263.956,141.107 269.66,146.54C281.16,138.616 280.474,134.028 280.474,134.028C280.269,133.902 280.075,133.762 279.891,133.61C281.318,133.482 282.628,133.411 283.827,133.411C284.751,133.411 285.608,133.453 286.4,133.546C286.385,133.545 286.377,133.545 286.377,133.545C284.213,133.832 283.368,134.948 283.369,136.515C283.371,138.941 285.398,142.449 287.694,145.646L295.659,160.269C295.644,160.128 295.63,159.987 295.615,159.846C296.521,168.496 297.624,178.472 298.474,186.05C296.947,186.926 294.853,188.287 294.476,189.348C293.907,190.947 291.459,194.41 293.68,195.597C289.258,197.131 284.512,197.967 279.568,197.967ZM291.834,135.936C289.414,134.269 287.702,133.764 286.896,133.611C289.04,133.93 290.675,134.651 291.834,135.936Z" style="fill:rgb(68,152,255);fill-rule:nonzero;"/>
                <path d="M276.496,120.406C276.473,125.062 276.844,131.798 280.474,134.028C280.474,134.028 281.16,138.616 269.66,146.54C263.956,141.107 266.773,137.349 266.773,137.349C271.466,134.971 270.951,132.981 269.451,129.719L276.496,120.406Z" style="fill:rgb(249,189,141);fill-rule:nonzero;"/>
                <path d="M272.346,125.892L273.633,124.163C273.637,124.167 273.64,124.172 273.644,124.176L272.346,125.892Z" style="fill:rgb(135,163,207);fill-rule:nonzero;"/>
                <path d="M270.387,132.06C270.164,131.246 269.869,130.458 269.506,129.706L272.346,125.892L273.644,124.176C274.267,124.935 274.688,125.849 274.873,126.837C274.86,129.003 272.22,131.333 270.387,132.06Z" style="fill:rgb(250,193,147);fill-rule:nonzero;"/>
                <path d="M280.797,111.367C280.199,119.153 280.101,122.444 276.202,126.536C270.337,132.7 261.167,130.672 259.491,122.976C257.993,116.039 259.232,104.434 266.713,101.178C272.041,98.794 278.048,101.205 280.13,106.563C280.717,108.073 280.945,109.717 280.797,111.367Z" style="fill:rgb(249,189,141);fill-rule:nonzero;"/>
                <path d="M295.615,159.846C295.427,158.052 295.247,156.315 295.081,154.669C295.248,156.315 295.427,158.052 295.615,159.846Z" style="fill:rgb(83,102,130);fill-rule:nonzero;"/>
                <path d="M295.659,160.269L287.694,145.646C290.698,149.828 294.163,153.478 294.163,153.478C294.163,153.478 294.515,153.924 295.081,154.669C295.247,156.315 295.427,158.052 295.615,159.846C295.63,159.987 295.644,160.128 295.659,160.269Z" style="fill:rgb(24,43,87);fill-rule:nonzero;"/>
                <path d="M302.264,180.379L300.117,185.166C300.117,185.166 295.081,187.644 294.476,189.348C293.87,191.05 291.135,194.864 294.169,195.798C297.205,196.731 300.125,195.694 301.709,193.138C303.293,190.581 303.91,188.977 303.832,187.766L307.263,181.608L302.264,180.379Z" style="fill:rgb(249,189,141);fill-rule:nonzero;"/>
                <path d="M266.078,98.702C263.676,99.519 255.747,103.609 260.855,108.404C260.855,108.404 266.348,106.42 270.014,108.417C270.014,108.417 269.4,104.576 272.18,103.831C272.18,103.831 269.188,108.823 273.984,112.326C278.78,115.829 275.953,118.735 275.953,118.735C275.953,118.735 277.962,119.13 278.78,115.829C278.78,115.829 280.512,118.426 280.841,117.876C294.256,95.451 272.711,96.445 266.078,98.702Z" style="fill:rgb(24,46,53);fill-rule:nonzero;"/>
                <path d="M282.754,117.285C282.253,118.689 281.24,119.86 279.935,120.543C278.189,121.423 277.028,119.95 277.271,118.089C277.504,116.415 278.685,113.941 280.548,113.8C281.902,113.742 282.996,114.819 282.991,116.207C282.989,116.576 282.909,116.944 282.754,117.285Z" style="fill:rgb(249,189,141);fill-rule:nonzero;"/>
                <path d="M286.377,133.545C286.377,133.545 294.672,133.618 306.426,153.344C318.18,173.069 306.412,184.438 306.412,184.438L301.076,180.937C301.076,180.937 304.637,171.628 303.007,167.134C301.377,162.64 294.163,153.478 294.163,153.478C294.163,153.478 276.485,134.858 286.377,133.545Z" style="fill:rgb(62,117,186);fill-rule:nonzero;"/>
                <path d="M306.412,184.438L305.881,184.09L301.8,181.412L301.076,180.937C301.076,180.937 303.432,174.777 303.434,170.06C303.434,168.978 303.311,167.972 303.007,167.134C301.737,163.632 297.077,157.296 295.081,154.669C294.515,153.924 294.163,153.478 294.163,153.478C294.163,153.478 290.698,149.828 287.694,145.646C285.398,142.449 283.371,138.941 283.369,136.515C283.368,134.948 284.213,133.832 286.377,133.545C286.377,133.545 294.672,133.618 306.426,153.344C310.34,159.912 311.646,165.555 311.646,170.159C311.647,179.38 306.412,184.438 306.412,184.438Z" style="fill:rgb(68,152,255);fill-rule:nonzero;"/>
                <path d="M199.747,149.935L201.429,146.001L205.238,147.088L202.874,152.376L199.747,149.935Z" style="fill:rgb(249,189,141);fill-rule:nonzero;"/>
                <path d="M204.184,147.997C204.184,147.997 206.626,147.108 207.093,146.044C207.56,144.98 208.176,137.781 207.442,137.114C206.709,136.446 202.445,137.579 201.766,138.895C201.085,140.211 200.903,146.284 201.163,146.859L204.184,147.997Z" style="fill:rgb(249,189,141);fill-rule:nonzero;"/>
                <path d="M160.194,102.902C160.194,102.902 165.219,96.47 174.135,99.759C183.051,103.048 183.928,116.595 182.807,123.582C181.687,130.569 180.653,141.679 182.098,142.802C182.098,142.802 175.162,144.685 170.849,141.673C166.536,138.66 166.754,126.095 166.754,126.095L168.452,119.598L160.194,102.902Z" style="fill:rgb(24,46,53);fill-rule:nonzero;"/>
                <path d="M174.79,339.301L174.552,352.685L181.596,352.263L182.463,340.139L174.79,339.301Z" style="fill:rgb(250,177,117);fill-rule:nonzero;"/>
                <path d="M182.867,351.416L173.975,351.256C173.64,351.25 173.346,351.477 173.266,351.803L171.529,359.008C171.37,359.646 171.759,360.292 172.396,360.451L172.646,360.485C175.853,360.487 178.707,360.363 182.697,360.44C187.407,360.526 186.202,361.068 191.737,361.246C195.072,361.351 195.751,357.569 194.34,357.357C187.88,356.426 187.243,354.459 184.788,352.097C184.252,351.642 183.569,351.399 182.867,351.416Z" style="fill:rgb(24,46,53);fill-rule:nonzero;"/>
                <path d="M181.997,346.659L182.102,345.186L181.997,346.659ZM174.663,346.427L174.688,345.013L174.663,346.427Z" style="fill:rgb(205,205,205);fill-rule:nonzero;"/>
                <path d="M181.997,346.659L174.663,346.427L174.688,345.013L174.696,344.568L182.146,344.568L182.102,345.186L181.996,346.659" style="fill:rgb(223,146,88);fill-rule:nonzero;"/>
                <path d="M143.367,336.947L141.626,350.221L148.673,350.592L150.897,338.642L143.367,336.947Z" style="fill:rgb(250,177,117);fill-rule:nonzero;"/>
                <path d="M150.032,349.892L141.214,348.735C140.882,348.691 140.563,348.884 140.448,349.199L137.912,356.163C137.683,356.779 137.996,357.465 138.612,357.694L138.857,357.757C142.042,358.119 144.892,358.315 148.849,358.841C153.519,359.456 152.261,359.858 157.741,360.657C161.043,361.136 162.143,357.455 160.764,357.086C154.45,355.435 154.038,353.408 151.863,350.785C151.383,350.273 150.731,349.956 150.032,349.892Z" style="fill:rgb(24,46,53);fill-rule:nonzero;"/>
                <path d="M142.44,344.014L142.552,343.158L142.44,344.014Z" style="fill:rgb(205,205,205);fill-rule:nonzero;"/>
                <path d="M149.701,345.068L142.44,344.014L142.552,343.158L142.742,341.714L150.165,342.57L149.701,345.068Z" style="fill:rgb(223,146,88);fill-rule:nonzero;"/>
                <path d="M184.38,188.209C184.38,188.209 192.129,251.062 190.579,263.462C189.029,275.86 183.347,344.568 183.347,344.568L173.531,344.568C173.531,344.568 170.087,285.331 173.531,262.084C173.531,262.084 164.404,208.701 165.438,195.269C166.471,181.838 183.77,183.744 184.38,188.209Z" style="fill:rgb(24,46,53);fill-rule:nonzero;"/>
                <path d="M172.071,253.221C171.533,249.87 170.889,245.777 170.215,241.313C170.375,233.648 170.406,225.206 170.394,217.397C170.392,216.368 170.448,215.086 170.546,213.636C171.748,221.835 173.617,238.246 172.071,253.221Z" style="fill:rgb(14,29,33);fill-rule:nonzero;"/>
                <path d="M170.394,217.397C170.422,236.036 170.208,258.279 168.578,264.964C165.617,277.103 151.071,342.675 151.071,342.675L141.32,341.55C141.32,341.55 145.721,284.223 151.807,261.523C151.807,261.523 150.523,240.054 150.387,220.239C150.387,220.239 144.542,204.224 151.972,184.259C151.972,184.259 168.55,179.558 173.816,186.208C173.816,186.208 170.382,209.39 170.394,217.397Z" style="fill:rgb(24,46,53);fill-rule:nonzero;"/>
                <path d="M178.04,139.934C178.04,139.934 184.932,140.519 188.706,152.473C192.479,164.426 191.52,162.626 191.52,162.626L199.503,148.25L204.637,150.774C204.637,150.774 196.812,175.162 192.285,179.508C187.758,183.853 180.923,174.493 180.655,172.825C180.387,171.158 179.04,150.662 179.04,150.662L178.04,139.934Z" style="fill:rgb(62,117,186);fill-rule:nonzero;"/>
                <path d="M189.549,177.055C188.437,177.055 187.418,177.032 186.534,176.979C186.648,174.474 186.697,172.242 186.697,170.233C186.699,162.3 185.938,157.865 185.389,153.955C185.025,151.371 184.61,149.177 184.213,147.39C183.391,143.682 181.046,140.846 178.051,139.935C178.354,139.967 185.018,140.792 188.706,152.473C190.932,159.525 191.511,161.79 191.611,162.462L199.503,148.25L204.637,150.774C204.637,150.774 200.879,162.486 197.065,171.124C196.078,173.358 195.088,175.387 194.158,176.954C192.522,177.018 190.96,177.055 189.549,177.055Z" style="fill:rgb(0,113,230);fill-rule:nonzero;"/>
                <path d="M160.194,103.393C160.194,103.393 154.211,101.954 152.628,116.87C150.862,133.524 156.087,144.668 166.14,144.572C166.14,144.572 164.548,131.716 165.338,127.834C166.129,123.951 163.809,107.16 163.809,107.16L160.194,103.393Z" style="fill:rgb(24,46,53);fill-rule:nonzero;"/>
                <path d="M184.981,195.393L149.237,194.061C149.384,184.901 151.876,162.569 151.034,157.95C150.582,155.481 150.079,152.83 149.508,149.973C149.082,147.809 148.619,145.507 148.101,143.079C152.275,141.762 156.497,140.807 160.758,140.234C165.253,139.565 169.784,139.29 174.298,139.406C175.367,139.468 176.324,139.582 177.174,139.727C180.584,140.311 183.313,143.327 184.213,147.39C184.61,149.177 185.025,151.371 185.389,153.955C186.352,160.811 187.964,169.281 184.981,195.393Z" style="fill:rgb(62,117,186);fill-rule:nonzero;"/>
                <path d="M184.981,195.393L172.601,194.932L149.237,194.061C149.351,186.969 150.871,171.979 151.16,163.429C160.766,175.266 178.427,188.889 182.735,189.122C182.861,189.129 182.998,189.132 183.144,189.132C183.801,189.132 184.656,189.064 185.661,188.942C185.468,190.965 185.242,193.113 184.981,195.393ZM186.534,176.979C185.133,176.896 184.07,176.74 183.498,176.488C179.623,174.783 160.534,142.922 148.935,142.922C148.812,142.922 148.69,142.925 148.569,142.932C152.591,141.691 156.657,140.785 160.758,140.234C161.245,140.161 161.732,140.094 162.219,140.03C162.782,140.762 165.153,143.342 171.384,144.572C171.384,144.572 175.201,142.416 173.842,139.395L173.841,139.395C173.994,139.398 174.146,139.402 174.298,139.406C175.367,139.468 176.324,139.582 177.174,139.727C180.584,140.311 183.313,143.327 184.213,147.39C184.61,149.177 185.025,151.371 185.389,153.955C185.938,157.865 186.699,162.3 186.697,170.233C186.697,172.242 186.648,174.474 186.534,176.979ZM148.114,143.142C148.11,143.121 148.105,143.1 148.101,143.079C148.187,143.051 148.274,143.024 148.36,142.997C148.299,143.03 148.215,143.078 148.114,143.142Z" style="fill:rgb(1,97,210);fill-rule:nonzero;"/>
                <path d="M171.384,144.572C164.081,143.131 162.08,139.833 162.08,139.833C167.053,135.739 163.687,127.834 163.687,127.834L172.442,130.09C172.11,131.539 171.928,132.762 171.843,133.8C171.412,139.178 173.842,139.395 173.842,139.395C175.201,142.416 171.384,144.572 171.384,144.572Z" style="fill:rgb(249,189,141);fill-rule:nonzero;"/>
                <path d="M163.71,127.891C163.694,127.854 163.687,127.834 163.687,127.834C163.687,127.834 163.695,127.853 163.71,127.891Z" style="fill:rgb(15,35,41);fill-rule:nonzero;"/>
                <path d="M171.843,133.8C166.211,133.419 163.959,128.48 163.71,127.891C163.695,127.853 163.687,127.834 163.687,127.834L172.442,130.09C172.11,131.539 171.928,132.762 171.843,133.8Z" style="fill:rgb(254,169,101);fill-rule:nonzero;"/>
                <path d="M169.219,104.961C176.956,105.061 179.393,109.235 179.857,117.216C180.438,127.19 178.137,134.241 168.49,131.988C155.388,128.929 156.369,104.796 169.219,104.961Z" style="fill:rgb(249,189,141);fill-rule:nonzero;"/>
                <path d="M160.595,117.893C160.595,117.893 166.182,112.302 165.697,107.388C165.697,107.388 179.223,100.601 179.779,116.174C179.779,116.174 181.456,102.374 168.158,101.895C154.882,101.416 154.667,120.876 161.462,126.762C161.462,126.762 158.305,121.841 160.595,117.893Z" style="fill:rgb(24,46,53);fill-rule:nonzero;"/>
                <path d="M161.837,119.543C161.802,118.297 160.543,116.171 158.223,116.394C155.822,116.625 154.616,121.533 160.565,122.793C161.418,122.974 161.912,122.144 161.837,119.543Z" style="fill:rgb(249,189,141);fill-rule:nonzero;"/>
                <path d="M163.809,106.668C163.809,106.668 172.197,110.282 178.301,109.185C184.406,108.09 173.043,102.86 173.043,102.86L167.232,102.463L163.809,106.668Z" style="fill:rgb(24,46,53);fill-rule:nonzero;"/>
                <path d="M165.853,105.951C166.078,106.318 166.122,106.547 166.211,106.84C166.289,107.118 166.334,107.397 166.383,107.675C166.448,108.233 166.492,108.791 166.461,109.345C166.423,110.452 166.215,111.535 165.916,112.581C165.605,113.626 165.186,114.628 164.707,115.595C164.47,116.08 164.188,116.541 163.932,117.014L163.065,118.374L163.836,116.961C164.059,116.474 164.308,115.999 164.508,115.504C164.917,114.517 165.262,113.506 165.493,112.472C165.716,111.438 165.842,110.386 165.807,109.345C165.802,108.824 165.724,108.31 165.632,107.808C165.571,107.561 165.513,107.313 165.429,107.079C165.36,106.861 165.23,106.575 165.166,106.488L165.853,105.951Z" style="fill:rgb(24,46,53);fill-rule:nonzero;"/>
                <path d="M165.056,106.092C165.422,106.372 165.612,106.588 165.879,106.828C166.129,107.06 166.381,107.288 166.64,107.507C167.158,107.945 167.697,108.359 168.272,108.721C169.415,109.453 170.696,109.996 172.072,110.179C170.686,110.142 169.313,109.731 168.058,109.101C167.427,108.791 166.825,108.422 166.244,108.027C165.954,107.829 165.669,107.623 165.389,107.413C165.123,107.215 164.807,106.959 164.609,106.841L165.056,106.092Z" style="fill:rgb(24,46,53);fill-rule:nonzero;"/>
                <path d="M217.584,175.464C217.584,175.464 219.161,173.398 220.315,173.269C221.47,173.142 230.361,174.486 230.78,175.385C231.198,176.284 227.009,180.23 225.55,180.487C224.091,180.744 218.732,180.064 218.261,179.644L217.584,175.464Z" style="fill:rgb(249,189,141);fill-rule:nonzero;"/>
                <path d="M221.39,176.663C221.39,176.663 223.286,175.494 223.015,174.469C222.824,173.745 224.5,174.923 224.846,174.26C225.142,173.692 224.102,172.201 224.102,172.201C222.806,172.029 219.975,172.353 217.469,175.41L221.39,176.663Z" style="fill:rgb(249,189,141);fill-rule:nonzero;"/>
                <path d="M217.596,175.41L212.095,177.276C212.095,177.276 212.769,181.824 213.049,181.712C213.33,181.6 219.975,178.914 219.975,178.914L217.596,175.41Z" style="fill:rgb(249,189,141);fill-rule:nonzero;"/>
                <path d="M148.474,142.939C148.474,142.939 143.811,145.062 144.955,152.332C146.811,164.125 176.923,188.808 182.735,189.122C188.546,189.436 216.143,182.356 216.188,181.886C216.234,181.414 214.515,175.446 214.515,175.446C214.515,175.446 187.425,178.216 183.498,176.488C179.571,174.761 160.022,142.066 148.474,142.939Z" style="fill:rgb(62,117,186);fill-rule:nonzero;"/>
                <path d="M183.144,189.132C182.998,189.132 182.861,189.129 182.735,189.122C176.923,188.808 146.811,164.125 144.955,152.332C144.83,151.537 144.774,150.804 144.774,150.128C144.775,144.623 148.474,142.939 148.474,142.939C148.626,142.927 148.78,142.922 148.935,142.922C160.534,142.922 179.623,174.783 183.498,176.488C184.432,176.899 186.673,177.055 189.549,177.055C198.773,177.055 214.515,175.446 214.515,175.446C214.515,175.446 216.187,181.252 216.189,181.863C216.189,181.872 216.189,181.879 216.188,181.886C216.172,182.055 212.593,183.079 207.745,184.306C204.524,185.122 200.746,186.027 197.078,186.831C191.247,188.109 185.701,189.132 183.144,189.132Z" style="fill:rgb(0,113,230);fill-rule:nonzero;"/>
                <g transform="matrix(0.820294,0,0,0.820294,-906.761,-223.138)">
                    <g transform="matrix(12,0,0,12,1418.13,577.13)">
                        <path d="M0.531,-0.263L0.671,-0.219C0.649,-0.141 0.614,-0.083 0.564,-0.045C0.514,-0.007 0.45,0.012 0.374,0.012C0.278,0.012 0.2,-0.02 0.139,-0.085C0.078,-0.15 0.047,-0.239 0.047,-0.352C0.047,-0.471 0.078,-0.563 0.14,-0.629C0.201,-0.695 0.282,-0.728 0.382,-0.728C0.47,-0.728 0.541,-0.702 0.596,-0.65C0.628,-0.62 0.653,-0.576 0.669,-0.519L0.526,-0.484C0.517,-0.521 0.5,-0.551 0.473,-0.572C0.446,-0.594 0.413,-0.604 0.375,-0.604C0.322,-0.604 0.279,-0.585 0.246,-0.547C0.213,-0.509 0.196,-0.448 0.196,-0.362C0.196,-0.272 0.213,-0.207 0.245,-0.169C0.278,-0.131 0.32,-0.111 0.372,-0.111C0.41,-0.111 0.444,-0.124 0.471,-0.148C0.499,-0.172 0.519,-0.211 0.531,-0.263Z" style="fill:white;fill-rule:nonzero;"/>
                    </g>
                    <g transform="matrix(12,0,0,12,1426.79,577.13)">
                        <path d="M0.043,-0.354C0.043,-0.426 0.054,-0.488 0.076,-0.537C0.092,-0.574 0.115,-0.606 0.143,-0.635C0.171,-0.664 0.202,-0.686 0.235,-0.7C0.28,-0.719 0.331,-0.728 0.39,-0.728C0.495,-0.728 0.58,-0.695 0.643,-0.63C0.706,-0.564 0.738,-0.473 0.738,-0.357C0.738,-0.241 0.706,-0.151 0.644,-0.086C0.581,-0.02 0.497,0.012 0.392,0.012C0.285,0.012 0.201,-0.02 0.138,-0.085C0.075,-0.15 0.043,-0.24 0.043,-0.354ZM0.192,-0.358C0.192,-0.277 0.211,-0.216 0.249,-0.174C0.286,-0.132 0.333,-0.111 0.391,-0.111C0.449,-0.111 0.496,-0.132 0.533,-0.174C0.57,-0.215 0.588,-0.277 0.588,-0.36C0.588,-0.442 0.57,-0.504 0.534,-0.544C0.498,-0.584 0.451,-0.604 0.391,-0.604C0.332,-0.604 0.284,-0.584 0.247,-0.543C0.211,-0.502 0.192,-0.441 0.192,-0.358Z" style="fill:white;fill-rule:nonzero;"/>
                    </g>
                    <g transform="matrix(12,0,0,12,1436.13,577.13)">
                        <path d="M0.074,0L0.074,-0.716L0.215,-0.716L0.508,-0.238L0.508,-0.716L0.642,-0.716L0.642,0L0.497,0L0.208,-0.467L0.208,0L0.074,0Z" style="fill:white;fill-rule:nonzero;"/>
                    </g>
                    <g transform="matrix(12,0,0,12,1444.79,577.13)">
                        <path d="M0.074,0L0.074,-0.716L0.215,-0.716L0.508,-0.238L0.508,-0.716L0.642,-0.716L0.642,0L0.497,0L0.208,-0.467L0.208,0L0.074,0Z" style="fill:white;fill-rule:nonzero;"/>
                    </g>
                    <g transform="matrix(12,0,0,12,1453.46,577.13)">
                        <path d="M0.073,0L0.073,-0.716L0.604,-0.716L0.604,-0.595L0.217,-0.595L0.217,-0.436L0.577,-0.436L0.577,-0.315L0.217,-0.315L0.217,-0.121L0.617,-0.121L0.617,0L0.073,0Z" style="fill:white;fill-rule:nonzero;"/>
                    </g>
                    <g transform="matrix(12,0,0,12,1461.46,577.13)">
                        <path d="M0.531,-0.263L0.671,-0.219C0.649,-0.141 0.614,-0.083 0.564,-0.045C0.514,-0.007 0.45,0.012 0.374,0.012C0.278,0.012 0.2,-0.02 0.139,-0.085C0.078,-0.15 0.047,-0.239 0.047,-0.352C0.047,-0.471 0.078,-0.563 0.14,-0.629C0.201,-0.695 0.282,-0.728 0.382,-0.728C0.47,-0.728 0.541,-0.702 0.596,-0.65C0.628,-0.62 0.653,-0.576 0.669,-0.519L0.526,-0.484C0.517,-0.521 0.5,-0.551 0.473,-0.572C0.446,-0.594 0.413,-0.604 0.375,-0.604C0.322,-0.604 0.279,-0.585 0.246,-0.547C0.213,-0.509 0.196,-0.448 0.196,-0.362C0.196,-0.272 0.213,-0.207 0.245,-0.169C0.278,-0.131 0.32,-0.111 0.372,-0.111C0.41,-0.111 0.444,-0.124 0.471,-0.148C0.499,-0.172 0.519,-0.211 0.531,-0.263Z" style="fill:white;fill-rule:nonzero;"/>
                    </g>
                    <g transform="matrix(12,0,0,12,1470.13,577.13)">
                        <path d="M0.234,0L0.234,-0.595L0.021,-0.595L0.021,-0.716L0.59,-0.716L0.59,-0.595L0.378,-0.595L0.378,0L0.234,0Z" style="fill:white;fill-rule:nonzero;"/>
                    </g>
                </g>
                <g transform="matrix(0.905661,0.0818757,-0.0759087,0.839658,-986.59,-346.925)">
                    <path d="M1422.85,437.339L1435.66,434.902C1435.66,434.902 1441.41,445.73 1423.62,450.552C1423.12,450.469 1411.69,441.751 1422.85,437.339Z" style="fill:rgb(68,152,255);"/>
                </g>
                <g transform="matrix(0.820294,0,0,0.820294,-898.116,-223.138)">
                    <circle cx="1428.91" cy="440.231" r="1.532" style="fill:rgb(18,85,168);"/>
                </g>
                <g transform="matrix(0.833904,0.0528137,-0.0595824,0.940779,-890.99,-352.508)">
                    <path d="M1428.55,439.897L1428.55,484.55L1435.65,491.653L1441.23,482.774L1428.55,439.897Z" style="fill:rgb(18,85,168);"/>
                </g>
                <g transform="matrix(1.32508,-0.779982,0.55243,1.01504,-1858.19,800.015)">
                    <path d="M1422.4,437.519L1425.22,441.509L1423.73,442.839L1420.24,438.516L1422.4,437.519" style="fill:rgb(208,229,255);"/>
                </g>
                <g transform="matrix(-1.16064,-0.523678,-0.580791,1.3922,2184.65,268.275)">
                    <path d="M1422.4,437.519L1425.22,441.509L1423.73,442.839L1420.24,438.516L1422.4,437.519" style="fill:rgb(208,229,255);"/>
                </g>
            </g>
        </g>
    </g>
</svg>
