<?xml version="1.0" encoding="UTF-8" standalone="no"?><!DOCTYPE svg PUBLIC "-//W3C//DTD SVG 1.1//EN" "http://www.w3.org/Graphics/SVG/1.1/DTD/svg11.dtd"><svg width="100%" height="100%" viewBox="0 0 417 417" version="1.1" xmlns="http://www.w3.org/2000/svg" xmlns:xlink="http://www.w3.org/1999/xlink" xml:space="preserve" xmlns:serif="http://www.serif.com/" style="fill-rule:evenodd;clip-rule:evenodd;stroke-linejoin:round;stroke-miterlimit:1.41421;"><path d="M318.226,98.44c-34.032,-34.032 -89.403,-34.031 -123.435,0.001c-23.246,23.245 -31.32,57.502 -21.255,88.582l-98.294,98.295c-1.488,1.488 -2.325,3.502 -2.325,5.61l0,44.887c0,4.386 3.549,7.935 7.935,7.935l44.887,0c2.107,0 4.122,-0.837 5.61,-2.325l11.22,-11.228c1.712,-1.712 2.549,-4.114 2.27,-6.524l-1.395,-12.057l16.706,-1.573c3.797,-0.357 6.796,-3.355 7.152,-7.152l1.574,-16.706l12.056,1.402c2.24,0.302 4.495,-0.45 6.191,-1.952c1.689,-1.511 2.658,-3.666 2.658,-5.928l0,-14.774l14.505,0c2.108,0 4.123,-0.836 5.61,-2.324l20.348,-20.079c31.072,10.073 64.736,2.607 87.982,-20.654c34.032,-34.032 34.032,-89.404 0,-123.436Zm-22.447,56.108c-9.283,9.283 -24.377,9.283 -33.66,0c-9.283,-9.283 -9.283,-24.377 0,-33.66c9.283,-9.283 24.377,-9.283 33.66,0c9.283,9.283 9.282,24.377 0,33.66Z" style="fill:#377dff;fill-rule:nonzero;"/></svg>