<?xml version="1.0" encoding="UTF-8" standalone="no"?><!DOCTYPE svg PUBLIC "-//W3C//DTD SVG 1.1//EN" "http://www.w3.org/Graphics/SVG/1.1/DTD/svg11.dtd"><svg width="100%" height="100%" viewBox="0 0 417 417" version="1.1" xmlns="http://www.w3.org/2000/svg" xmlns:xlink="http://www.w3.org/1999/xlink" xml:space="preserve" xmlns:serif="http://www.serif.com/" style="fill-rule:evenodd;clip-rule:evenodd;stroke-linejoin:round;stroke-miterlimit:1.41421;"><g><rect x="0" y="0" width="416.667" height="416.667" style="fill:none;"/><g><path d="M197.052,343.75c20.437,0 37.534,-14.569 41.46,-33.854l-82.92,0c3.928,19.285 21.024,33.854 41.46,33.854Z" style="fill:#cedfff;fill-rule:nonzero;"/><path d="M276.181,208.323c-0.046,0 -0.091,0.01 -0.137,0.01c-43.547,0 -78.992,-35.435 -78.992,-78.992c0,-11.974 2.754,-23.293 7.55,-33.472c-2.484,-0.235 -5,-0.382 -7.55,-0.382c-43.626,0 -78.993,35.364 -78.993,78.992l0,31.462c0,22.332 -9.783,43.412 -26.948,57.924c-5.722,4.887 -8.261,12.673 -6.207,20.268c2.392,8.836 11.127,14.479 20.291,14.479l183.658,0c9.615,0 18.677,-6.23 20.628,-15.652c1.512,-7.29 -1.083,-14.57 -6.736,-19.32c-16.409,-13.756 -25.899,-33.968 -26.564,-55.317Z" style="fill:#cedfff;fill-rule:nonzero;"/><path d="M332.468,129.341c0,31.162 -25.26,56.422 -56.424,56.422c-31.162,0 -56.422,-25.26 -56.422,-56.422c0,-31.162 25.26,-56.424 56.422,-56.424c31.164,0 56.424,25.262 56.424,56.424Z" style="fill:#377dff;fill-rule:nonzero;"/></g></g></svg>