<?xml version="1.0" encoding="UTF-8" standalone="no"?><!DOCTYPE svg PUBLIC "-//W3C//DTD SVG 1.1//EN" "http://www.w3.org/Graphics/SVG/1.1/DTD/svg11.dtd"><svg width="100%" height="100%" viewBox="0 0 417 417" version="1.1" xmlns="http://www.w3.org/2000/svg" xmlns:xlink="http://www.w3.org/1999/xlink" xml:space="preserve" xmlns:serif="http://www.serif.com/" style="fill-rule:evenodd;clip-rule:evenodd;stroke-linejoin:round;stroke-miterlimit:1.41421;"><g><rect x="0" y="0" width="416.667" height="416.667" style="fill:none;"/><g><rect x="107.871" y="110.79" width="178.068" height="224.347" style="fill:#fff;"/><rect x="175.58" y="146.866" width="154.947" height="182.056" style="fill:#fff;"/><path d="M334.077,140.625l-48.363,0l0,-58.036c0,-5.342 -4.33,-9.672 -9.672,-9.672l-193.453,0c-5.342,0 -9.672,4.33 -9.672,9.672l0,222.47c0,21.369 17.322,38.691 38.69,38.691l193.452,0c21.369,0 38.691,-17.322 38.691,-38.691l0,-154.762c0,-5.341 -4.331,-9.672 -9.673,-9.672Zm-183.78,-19.345l58.036,0c5.342,0 9.673,4.33 9.673,9.672c0,5.343 -4.331,9.673 -9.673,9.673l-58.036,0c-5.342,0 -9.672,-4.33 -9.672,-9.673c0,-5.342 4.331,-9.672 9.672,-9.672Zm87.054,183.779l-116.071,0c-5.343,0 -9.673,-4.33 -9.673,-9.672c0,-5.343 4.33,-9.673 9.673,-9.673l116.071,0c5.342,0 9.673,4.33 9.673,9.673c0,5.342 -4.331,9.672 -9.673,9.672Zm0,-38.69l-116.071,0c-5.343,0 -9.673,-4.331 -9.673,-9.673c0,-5.342 4.33,-9.673 9.673,-9.673l116.071,0c5.342,0 9.673,4.331 9.673,9.673c0,5.342 -4.331,9.673 -9.673,9.673Zm0,-38.69l-116.071,0c-5.343,0 -9.673,-4.331 -9.673,-9.673c0,-5.342 4.33,-9.673 9.673,-9.673l116.071,0c5.342,0 9.673,4.331 9.673,9.673c0,5.342 -4.331,9.673 -9.673,9.673Zm0,-38.691l-116.071,0c-5.343,0 -9.673,-4.331 -9.673,-9.673c0,-5.342 4.33,-9.673 9.673,-9.673l116.071,0c5.342,0 9.673,4.331 9.673,9.673c0,5.342 -4.331,9.673 -9.673,9.673Zm87.053,116.071c0,10.684 -8.661,19.345 -19.345,19.345c-10.684,0 -19.345,-8.661 -19.345,-19.345l0,-145.089l38.691,0l0,145.089l-0.001,0Z" style="fill:#377dff;fill-rule:nonzero;"/></g></g></svg>