<?xml version="1.0" encoding="UTF-8" standalone="no"?><!DOCTYPE svg PUBLIC "-//W3C//DTD SVG 1.1//EN" "http://www.w3.org/Graphics/SVG/1.1/DTD/svg11.dtd"><svg width="100%" height="100%" viewBox="0 0 417 417" version="1.1" xmlns="http://www.w3.org/2000/svg" xmlns:xlink="http://www.w3.org/1999/xlink" xml:space="preserve" xmlns:serif="http://www.serif.com/" style="fill-rule:evenodd;clip-rule:evenodd;stroke-linejoin:round;stroke-miterlimit:1.41421;"><g><path d="M213.999,299.461c-9.115,-0.14 -17.902,-3.417 -24.884,-9.278l-45.97,-40.488c-7.233,-6.759 -18.295,-7.294 -26.148,-1.265l-65.37,48.078l0,31.209c-0.47,8.372 5.937,15.539 14.309,16.009c0.431,0.025 0.864,0.03 1.296,0.017l231.537,0c9.279,0 18.557,-6.747 18.557,-16.026l0,-81.817l-83.084,48.078c-6.108,3.672 -13.117,5.57 -20.243,5.483Z" style="fill:#377dff;fill-rule:nonzero;"/><circle cx="210.625" cy="199.086" r="18.557" style="fill:#d4e3ff;"/><path d="M361.188,105.88c-2.692,-3.668 -6.851,-5.978 -11.387,-6.326l-229.851,-26.57c-4.481,-0.375 -8.953,0.817 -12.652,3.375c-3.276,2.844 -5.503,6.705 -6.326,10.965l-3.796,32.896l201.594,0c19.22,0.436 34.761,15.792 35.427,35.005l0,148.875c0,-0.843 3.795,-1.687 5.483,-3.374c3.492,-2.742 5.516,-6.947 5.482,-11.387l19.821,-171.228c0.439,-4.423 -0.93,-8.834 -3.795,-12.231Z" style="fill:#d4e3ff;fill-rule:nonzero;"/><path d="M298.769,137.089l-231.537,0c-9.278,0 -15.605,8.857 -15.605,18.135l0,120.197l55.67,-40.487c14.132,-10.483 33.682,-9.602 46.814,2.108l46.391,40.488c6.996,5.939 16.988,6.786 24.883,2.108l91.94,-53.561l0,-70.853c-0.637,-9.901 -8.643,-17.724 -18.556,-18.135Zm-88.144,97.423c-19.566,0 -35.427,-15.861 -35.427,-35.427c0,-19.565 15.861,-35.427 35.427,-35.427c19.565,0 35.426,15.861 35.426,35.427c0,19.566 -15.86,35.427 -35.426,35.427Z" style="fill:#377dff;fill-rule:nonzero;"/></g></svg>