<?xml version="1.0" encoding="UTF-8" standalone="no"?><!DOCTYPE svg PUBLIC "-//W3C//DTD SVG 1.1//EN" "http://www.w3.org/Graphics/SVG/1.1/DTD/svg11.dtd"><svg width="100%" height="100%" viewBox="0 0 1738 1738" version="1.1" xmlns="http://www.w3.org/2000/svg" xmlns:xlink="http://www.w3.org/1999/xlink" xml:space="preserve" xmlns:serif="http://www.serif.com/" style="fill-rule:evenodd;clip-rule:evenodd;stroke-linejoin:round;stroke-miterlimit:1.41421;"><g><path d="M904.836,629.848c-30.778,0.322 -59.299,-16.115 -74.463,-42.896c-2.707,-0.127 -5.346,-0.475 -8.053,-0.475l-4.132,0c-48.412,1.298 -93.284,25.695 -120.685,65.629c-17.667,25.253 -27.095,55.361 -26.993,86.181c-0.153,68.998 46.256,129.408 112.954,147.075c66.698,17.651 136.909,-11.888 170.937,-71.925c34.011,-60.028 23.268,-135.45 -26.17,-183.589l-23.395,0Zm-104.205,86.75l43.379,0c35.928,0 65.06,29.131 65.06,65.06c0,35.946 -29.132,65.06 -65.06,65.06l0,21.69l-43.379,0l0,-21.69c-35.938,0 -65.061,-29.114 -65.061,-65.06l43.371,0c0,11.982 9.699,21.69 21.69,21.69l43.379,0c11.973,0 21.681,-9.708 21.681,-21.69c0,-11.973 -9.708,-21.69 -21.681,-21.69l-43.379,0c-35.938,0 -65.061,-29.114 -65.061,-65.06c0,-35.929 29.123,-65.06 65.061,-65.06l0,-21.69l43.379,0l0,21.69c35.928,0 65.06,29.131 65.06,65.06l-43.379,0c0,-11.973 -9.708,-21.681 -21.681,-21.681l-43.379,0c-11.991,0 -21.69,9.708 -21.69,21.681c0,11.982 9.699,21.69 21.69,21.69Z" style="fill:#377dff;fill-rule:nonzero;"/><rect x="1386.19" y="347.917" width="86.75" height="303.621" style="fill:#377dff;"/><path d="M1078.33,608.158c0,32.84 53.723,65.069 108.44,65.069c54.716,0 108.439,-32.229 108.439,-65.069c0,-11.973 9.708,-21.681 21.681,-21.681l25.924,0l0,-173.5l-25.813,0c-2.936,0.008 -5.847,-0.594 -8.537,-1.757l-147.712,-63.303l-223.718,0c-28.708,0.025 -56.235,11.447 -76.55,31.753l-176.598,176.445c-14.077,13.433 -17.251,34.724 -7.696,51.678c0.178,0.263 0.39,0.433 0.56,0.679c35.92,-40.358 86.962,-64.025 140.965,-65.374l0.374,0c0,-47.902 38.839,-86.75 86.75,-86.75l238.56,0l0,43.379l-238.56,0c-17.532,0.025 -33.307,10.599 -40.011,26.79c-6.695,16.19 -2.995,34.825 9.386,47.231c8.087,8.172 19.118,12.754 30.625,12.729l151.81,0c11.973,0 21.681,9.708 21.681,21.681Z" style="fill:#377dff;fill-rule:nonzero;"/><path d="M420.171,1065.33l122.28,-44.508l103.849,285.317l-122.28,44.508l-103.849,-285.317Z" style="fill:#377dff;fill-rule:nonzero;"/><path d="M264.559,1145.03l122.28,-44.508l88.999,244.552l-122.271,44.507l-89.008,-244.551Z" style="fill:#377dff;fill-rule:nonzero;"/><path d="M692.598,1243.11c4.625,-1.681 9.7,-1.748 14.358,-0.17l124.351,42.013l441.217,-160.5c22.513,-8.18 34.13,-33.077 25.932,-55.599c-8.188,-22.512 -33.086,-34.129 -55.607,-25.941l-140.77,51.144c-0.051,3.895 -0.357,7.79 -0.908,11.643c-8.299,47.24 -53.282,78.849 -100.548,70.652l-244.127,-43.04l7.527,-42.734l244.152,43.082c23.616,4.065 46.087,-11.702 50.287,-35.284c0.857,-4.87 0.806,-9.86 -0.17,-14.714c-0.466,-2.571 -1.077,-5.108 -1.841,-7.612c-5.219,-14.612 -17.931,-25.287 -33.23,-27.901l-289,-50.965l-136.18,49.548l74.174,203.871l20.383,-7.493Z" style="fill:#377dff;fill-rule:nonzero;"/></g></svg>