<?xml version="1.0" encoding="UTF-8" standalone="no"?><!DOCTYPE svg PUBLIC "-//W3C//DTD SVG 1.1//EN" "http://www.w3.org/Graphics/SVG/1.1/DTD/svg11.dtd"><svg width="100%" height="100%" viewBox="0 0 417 417" version="1.1" xmlns="http://www.w3.org/2000/svg" xmlns:xlink="http://www.w3.org/1999/xlink" xml:space="preserve" xmlns:serif="http://www.serif.com/" style="fill-rule:evenodd;clip-rule:evenodd;stroke-linejoin:round;stroke-miterlimit:1.41421;"><g><rect x="0" y="0" width="416.667" height="416.667" style="fill:none;"/><rect x="119.964" y="88.279" width="183.884" height="298.031" style="fill:#fff;"/><path d="M296.875,43.75l-177.083,0c-9.781,0 -17.709,7.928 -17.709,17.708l0,318.75c0,9.781 7.928,17.709 17.709,17.709l177.083,0c9.78,0 17.708,-7.928 17.708,-17.709l0,-318.75c0,-9.78 -7.928,-17.708 -17.708,-17.708Zm-76.019,331.272c-3.346,3.345 -7.793,5.186 -12.523,5.186l-0.004,0c-9.762,-0.003 -17.704,-7.947 -17.704,-17.708c0,-9.764 7.944,-17.708 17.708,-17.708c9.765,0 17.709,7.944 17.709,17.708c0.002,4.727 -1.84,9.176 -5.186,12.522Zm67.165,-47.939l-159.375,0l0,-230.208l159.375,0l0,230.208Z" style="fill:#377dff;fill-rule:nonzero;"/></g></svg>