<?xml version="1.0" encoding="UTF-8" standalone="no"?><!DOCTYPE svg PUBLIC "-//W3C//DTD SVG 1.1//EN" "http://www.w3.org/Graphics/SVG/1.1/DTD/svg11.dtd"><svg width="100%" height="100%" viewBox="0 0 100 100" version="1.1" xmlns="http://www.w3.org/2000/svg" xmlns:xlink="http://www.w3.org/1999/xlink" xml:space="preserve" xmlns:serif="http://www.serif.com/" style="fill-rule:evenodd;clip-rule:evenodd;stroke-linejoin:round;stroke-miterlimit:1.41421;"><rect id="Artboard1" x="0" y="0" width="100" height="100" style="fill:none;"/><path d="M74.047,66.945l0,-3.937l5.953,6.562l-5.953,6.563l0,-3.938l-12.563,0c2.719,-1.218 5.157,-3.234 7.125,-5.25l5.438,0Zm-21.609,0c7.687,0 13.968,-6.281 13.968,-13.968c0,-7.688 -6.281,-13.969 -13.968,-13.969c-7.688,0 -13.969,6.234 -13.969,13.922c0,1.593 0.281,3.187 0.844,4.687l3.468,-1.5l-3.375,8.625l-8.625,-3.422l3.61,-1.547c-0.797,-2.156 -1.266,-4.453 -1.266,-6.843c0,-2.157 0.328,-4.219 0.984,-6.141c0.094,-0.281 0.188,-0.516 0.282,-0.797c0.047,-0.14 0.093,-0.234 0.14,-0.375c0.703,-1.734 1.735,-3.422 2.953,-4.969c3.563,-4.312 8.907,-7.078 14.954,-7.078c10.687,0 19.359,8.625 19.359,19.313c0,10.687 -8.719,19.312 -19.359,19.312l-32.438,0l2.531,-2.718l-2.531,-2.532l32.438,0Zm-19.594,-22.593c0.14,0.093 0.281,0.187 0.375,0.281c0.703,-1.641 1.64,-3.188 2.765,-4.641c-0.14,-0.094 -0.234,-0.187 -0.375,-0.281c-0.843,-0.797 -1.406,-1.922 -1.406,-3.188c0,-2.39 1.969,-4.359 4.36,-4.359c0.375,0 0.75,0.047 1.078,0.141l-1.688,3.375l3.703,-1.266l5.11,-1.734l-0.141,-0.375l-2.859,-8.438l-1.735,3.516c-1.125,-0.422 -2.297,-0.656 -3.468,-0.656c-5.391,0 -9.75,4.359 -9.75,9.75c0.046,3.234 1.64,6.093 4.031,7.875Z" style="fill:#fff;"/></svg>