<?xml version="1.0" encoding="UTF-8" standalone="no"?><!DOCTYPE svg PUBLIC "-//W3C//DTD SVG 1.1//EN" "http://www.w3.org/Graphics/SVG/1.1/DTD/svg11.dtd"><svg width="100%" height="100%" viewBox="0 0 100 100" version="1.1" xmlns="http://www.w3.org/2000/svg" xmlns:xlink="http://www.w3.org/1999/xlink" xml:space="preserve" xmlns:serif="http://www.serif.com/" style="fill-rule:evenodd;clip-rule:evenodd;stroke-linejoin:round;stroke-miterlimit:1.41421;"><rect id="Artboard1" x="0" y="0" width="100" height="100" style="fill:none;"/><path d="M64.751,19.801c2.652,0 4.84,2.122 4.906,4.84l0,11.934l9.282,7.69c0.663,0.597 1.061,1.459 1.061,2.321l0,32.685c0,0.53 -0.398,0.928 -0.928,0.928l-58.144,0c-0.53,0 -0.928,-0.398 -0.928,-0.928l0,-32.685c0,-0.929 0.398,-1.724 1.061,-2.321l9.282,-7.69l0,-6.034c0,-0.265 0.066,-0.464 0.265,-0.663l9.944,-9.812c0.199,-0.199 0.398,-0.265 0.663,-0.265l23.536,0Zm10.608,56.751c0.531,0 0.928,-0.397 0.928,-0.928l0,-25.392c0,-0.796 -0.928,-1.193 -1.525,-0.729l-23.204,19.226c-0.862,0.73 -2.188,0.73 -3.116,0l-23.271,-19.293c-0.596,-0.464 -1.525,-0.066 -1.525,0.73l0,25.458c0,0.531 0.398,0.928 0.929,0.928l50.784,0Zm-41.569,-46.011c0,-0.198 0.199,-0.397 0.398,-0.397l4.641,0c1.127,0 2.055,-0.929 2.055,-2.056l0,-4.442c0,-0.198 0.199,-0.397 0.398,-0.397l23.469,0c0.796,0 1.393,0.596 1.393,1.392l0,27.779l-15.448,12.265c-0.398,0.332 -0.994,0.332 -1.392,0l-15.514,-12.795l0,-21.349Zm26.122,17.105c0.663,0 1.193,0.531 1.193,1.194c0,0.663 -0.53,1.193 -1.193,1.193l-19.956,0c-0.663,0 -1.194,-0.53 -1.194,-1.193c0,-0.663 0.531,-1.194 1.194,-1.194l19.956,0Zm0.066,-6.961c0.597,0 1.127,0.464 1.127,1.127c0,0.663 -0.53,1.194 -1.193,1.194l-19.956,0c-0.597,0 -1.194,-0.465 -1.194,-1.128c0,-0.663 0.531,-1.193 1.194,-1.193l20.022,0Zm-0.066,-7.492c0.663,0 1.193,0.531 1.193,1.194c0,0.663 -0.53,1.193 -1.193,1.193l-19.956,0c-0.597,0 -1.127,-0.53 -1.194,-1.193c0,-0.663 0.531,-1.194 1.194,-1.194l19.956,0Z" style="fill:#fff;"/></svg>