<?xml version="1.0" encoding="UTF-8" standalone="no"?><!DOCTYPE svg PUBLIC "-//W3C//DTD SVG 1.1//EN" "http://www.w3.org/Graphics/SVG/1.1/DTD/svg11.dtd"><svg width="100%" height="100%" viewBox="0 0 100 100" version="1.1" xmlns="http://www.w3.org/2000/svg" xmlns:xlink="http://www.w3.org/1999/xlink" xml:space="preserve" xmlns:serif="http://www.serif.com/" style="fill-rule:evenodd;clip-rule:evenodd;stroke-linejoin:round;stroke-miterlimit:1.41421;"><rect id="Artboard1" x="0" y="0" width="100" height="100" style="fill:none;"/><path d="M34.88,44.24l13.92,-10.44l0,-12.6c0,-0.658 0.542,-1.2 1.2,-1.2c0.658,0 1.2,0.542 1.2,1.2l3.6,0c0.658,0 1.2,0.542 1.2,1.2l3.6,0c0.657,0.002 1.196,0.543 1.196,1.2c0,0.188 -0.044,0.373 -0.128,0.54l-0.924,1.86l0.924,1.86c0.084,0.167 0.128,0.352 0.128,0.54c0,0.657 -0.539,1.198 -1.196,1.2l-4.8,0c-0.658,0 -1.2,-0.542 -1.2,-1.2l-2.4,0l0,5.4l13.98,10.452l0.18,0.18c0.059,0.075 0.111,0.156 0.156,0.24c0.006,0.04 0.006,0.08 0,0.12c0.052,0.13 0.08,0.268 0.084,0.408l0,3.6l8.4,0c0.335,-0.015 0.662,0.111 0.9,0.348l4.8,4.8c0.091,0.105 0.168,0.222 0.228,0.348l0,0.108c0.035,0.105 0.06,0.214 0.072,0.324l0,24.072c0,0.658 -0.542,1.2 -1.2,1.2l-57.6,0c-0.658,0 -1.2,-0.542 -1.2,-1.2l0,-24c0,0 0.036,0.038 0.048,-0.072c0.012,-0.11 0.037,-0.219 0.072,-0.324l0,-0.108c0.06,-0.126 0.137,-0.243 0.228,-0.348l4.8,-4.8c0.226,-0.225 0.533,-0.35 0.852,-0.348l8.4,0l0,-3.6c0.003,-0.144 0.031,-0.286 0.084,-0.42c0.013,-0.043 0.033,-0.084 0.06,-0.12c0.045,-0.084 0.097,-0.165 0.156,-0.24l0.18,-0.18Zm-0.48,33.36l0,-21.6l-12,0l0,21.6l12,0Zm28.8,0l0,-31.2l-26.4,0l0,31.2l4.8,0l0,-15.6c0,-0.658 0.542,-1.2 1.2,-1.2l14.4,0c0.658,0 1.2,0.542 1.2,1.2l0,15.6l4.8,0Zm-14.4,0l0,-9.6l-4.8,0l0,9.6l4.8,0Zm7.2,0l0,-9.6l-4.8,0l0,9.6l4.8,0Zm21.6,0l0,-21.6l-12,0l0,21.6l12,0Zm-46.8,-9.6c0.658,0 1.2,0.542 1.2,1.2l0,4.8c0,0.658 -0.542,1.2 -1.2,1.2l-4.8,0c-0.658,0 -1.2,-0.542 -1.2,-1.2l0,-4.8c0,-0.658 0.542,-1.2 1.2,-1.2l4.8,0Zm43.2,0c0.658,0 1.2,0.542 1.2,1.2l0,4.8c0,0.658 -0.542,1.2 -1.2,1.2l-4.8,0c-0.658,0 -1.2,-0.542 -1.2,-1.2l0,-4.8c0,-0.658 0.542,-1.2 1.2,-1.2l4.8,0Zm-44.4,4.8l0,-2.4l-2.4,0l0,2.4l2.4,0Zm43.2,0l0,-2.4l-2.4,0l0,2.4l2.4,0Zm-16.8,-7.2l0,-2.4l-12,0l0,2.4l12,0Zm-25.2,-7.2c0.658,0 1.2,0.542 1.2,1.2l0,4.8c0,0.658 -0.542,1.2 -1.2,1.2l-4.8,0c-0.658,0 -1.2,-0.542 -1.2,-1.2l0,-4.8c0,-0.658 0.542,-1.2 1.2,-1.2l4.8,0Zm43.2,0c0.658,0 1.2,0.542 1.2,1.2l0,4.8c0,0.658 -0.542,1.2 -1.2,1.2l-4.8,0c-0.658,0 -1.2,-0.542 -1.2,-1.2l0,-4.8c0,-0.658 0.542,-1.2 1.2,-1.2l4.8,0Zm-44.4,4.8l0,-2.4l-2.4,0l0,2.4l2.4,0Zm43.2,0l0,-2.4l-2.4,0l0,2.4l2.4,0Zm-28.8,-13.2c0.658,0 1.2,0.542 1.2,1.2l0,4.8c0,0.658 -0.542,1.2 -1.2,1.2l-4.8,0c-0.658,0 -1.2,-0.542 -1.2,-1.2l0,-4.8c0,-0.658 0.542,-1.2 1.2,-1.2l4.8,0Zm8.4,0c0.658,0 1.2,0.542 1.2,1.2l0,4.8c0,0.658 -0.542,1.2 -1.2,1.2l-4.8,0c-0.658,0 -1.2,-0.542 -1.2,-1.2l0,-4.8c0,-0.658 0.542,-1.2 1.2,-1.2l4.8,0Zm8.4,0c0.658,0 1.2,0.542 1.2,1.2l0,4.8c0,0.658 -0.542,1.2 -1.2,1.2l-4.8,0c-0.658,0 -1.2,-0.542 -1.2,-1.2l0,-4.8c0,-0.658 0.542,-1.2 1.2,-1.2l4.8,0Zm-18,4.8l0,-2.4l-2.4,0l0,2.4l2.4,0Zm8.4,0l0,-2.4l-2.4,0l0,2.4l2.4,0Zm8.4,0l0,-2.4l-2.4,0l0,2.4l2.4,0Zm16.308,-1.2l-2.4,-2.4l-7.908,0l0,2.4l10.308,0Zm-41.508,0l0,-2.4l-7.908,0l-2.4,2.4l10.308,0Zm26.4,-9.6l-10.8,-8.1l-10.8,8.1l21.6,0Zm-3.144,-16.8l-0.324,-0.66c-0.171,-0.339 -0.171,-0.741 0,-1.08l0.324,-0.66l-1.656,0l0,2.4l1.656,0Zm-4.056,-1.2l0,-2.4l-2.4,0l0,2.4l2.4,0Z" style="fill:#fff;"/></svg>