<?xml version="1.0" encoding="UTF-8" standalone="no"?><!DOCTYPE svg PUBLIC "-//W3C//DTD SVG 1.1//EN" "http://www.w3.org/Graphics/SVG/1.1/DTD/svg11.dtd"><svg width="100%" height="100%" viewBox="0 0 100 100" version="1.1" xmlns="http://www.w3.org/2000/svg" xmlns:xlink="http://www.w3.org/1999/xlink" xml:space="preserve" xmlns:serif="http://www.serif.com/" style="fill-rule:evenodd;clip-rule:evenodd;stroke-linejoin:round;stroke-miterlimit:1.41421;"><path d="M79,77l-22,0c-0.552,0 -1,-0.447 -1,-1l0,-4c0,-4.379 3.145,-8.033 7.294,-8.833c-1.405,-1.281 -2.294,-3.12 -2.294,-5.167c0,-3.859 3.14,-7 7,-7c3.86,0 7,3.141 7,7c0,2.047 -0.889,3.886 -2.294,5.167c4.149,0.8 7.294,4.454 7.294,8.833l0,4c0,0.553 -0.448,1 -1,1Zm-42.294,-13.833c1.405,-1.281 2.294,-3.12 2.294,-5.167c0,-3.859 -3.14,-7 -7,-7c-3.86,0 -7,3.141 -7,7c0,2.047 0.889,3.886 2.294,5.167c-4.149,0.8 -7.294,4.454 -7.294,8.833l0,4c0,0.553 0.448,1 1,1l22,0c0.552,0 1,-0.447 1,-1l0,-4c0,-4.379 -3.145,-8.033 -7.294,-8.833Zm34.294,1.833l-6,0c-3.86,0 -7,3.141 -7,7l0,3l20,0l0,-3c0,-3.859 -3.14,-7 -7,-7Zm-29,10l0,-3c0,-3.859 -3.14,-7 -7,-7l-6,0c-3.86,0 -7,3.141 -7,7l0,3l20,0Zm8.993,-3.02c-0.639,0.025 -1.285,0.028 -1.92,0.003l-0.079,1.998c0.333,0.014 0.669,0.02 1.009,0.02c0.358,-0.002 0.715,-0.009 1.07,-0.023l-0.08,-1.998Zm-5.731,-0.448l-0.395,1.961c0.673,0.136 1.365,0.245 2.056,0.326l0.232,-1.986c-0.635,-0.075 -1.273,-0.176 -1.893,-0.301Zm9.539,-0.012c-0.621,0.126 -1.258,0.229 -1.896,0.307l0.241,1.986c0.69,-0.084 1.38,-0.196 2.052,-0.332l-0.397,-1.961Zm8.199,-13.52c0,-2.757 2.243,-5 5,-5c2.757,0 5,2.243 5,5c0,2.757 -2.243,5 -5,5c-2.757,0 -5,-2.243 -5,-5Zm-36,0c0,-2.757 2.243,-5 5,-5c2.757,0 5,2.243 5,5c0,2.757 -2.243,5 -5,5c-2.757,0 -5,-2.243 -5,-5Zm-0.981,-9.032l-1.998,0.078c0.027,0.689 0.082,1.387 0.164,2.073l1.986,-0.238c-0.076,-0.633 -0.127,-1.277 -0.152,-1.913Zm49.96,-1.996l-1.998,0.078c0.013,0.315 0.019,0.633 0.019,0.95c0,0.325 -0.006,0.648 -0.019,0.971l1.998,0.078c0.014,-0.348 0.021,-0.698 0.021,-1.051c0,-0.343 -0.007,-0.686 -0.021,-1.026Zm-51.795,-2.075c-0.081,0.682 -0.137,1.379 -0.163,2.072l1.998,0.078c0.025,-0.64 0.076,-1.283 0.151,-1.914l-1.986,-0.236Zm51.304,-2.05l-1.96,0.394c0.126,0.626 0.228,1.264 0.302,1.896l1.986,-0.236c-0.081,-0.684 -0.191,-1.375 -0.328,-2.054Zm-50.485,-2.024c-0.19,0.661 -0.355,1.342 -0.492,2.02l1.961,0.395c0.126,-0.625 0.278,-1.253 0.454,-1.864l-1.923,-0.551Zm35.997,2.177l-22,0c-0.552,0 -1,-0.447 -1,-1l0,-4c0,-4.379 3.145,-8.033 7.294,-8.833c-1.405,-1.281 -2.294,-3.12 -2.294,-5.167c0,-3.859 3.14,-7 7,-7c3.86,0 7,3.141 7,7c0,2.047 -0.889,3.886 -2.294,5.167c4.149,0.8 7.294,4.454 7.294,8.833l0,4c0,0.553 -0.448,1 -1,1Zm13.345,-4.148l-1.872,0.704c0.224,0.596 0.426,1.209 0.602,1.821l1.923,-0.551c-0.19,-0.664 -0.41,-1.328 -0.653,-1.974Zm-21.345,-7.852l-6,0c-3.86,0 -7,3.141 -7,7l0,3l20,0l0,-3c0,-3.859 -3.14,-7 -7,-7Zm-26.533,5.93c-0.294,0.625 -0.566,1.269 -0.81,1.918l1.872,0.703c0.225,-0.598 0.476,-1.192 0.747,-1.767l-1.809,-0.854Zm46.109,-1.838l-1.736,0.995c0.317,0.553 0.615,1.126 0.887,1.702l1.809,-0.854c-0.294,-0.624 -0.617,-1.244 -0.96,-1.843Zm-44.042,-1.767c-0.391,0.571 -0.763,1.163 -1.106,1.762l1.735,0.994c0.316,-0.552 0.66,-1.099 1.021,-1.625l-1.65,-1.131Zm41.694,-1.66l-1.555,1.258c0.399,0.493 0.785,1.012 1.147,1.54l1.649,-1.131c-0.392,-0.571 -0.809,-1.132 -1.241,-1.667Zm-39.081,-1.568c-0.479,0.504 -0.939,1.029 -1.371,1.562l1.555,1.258c0.398,-0.492 0.824,-0.978 1.266,-1.443l-1.45,-1.377Zm36.221,-1.444l-1.336,1.488c0.476,0.428 0.938,0.878 1.375,1.338l1.452,-1.375c-0.474,-0.5 -0.975,-0.988 -1.491,-1.451Zm-33.129,-1.335c-0.547,0.417 -1.086,0.863 -1.603,1.327l1.337,1.488c0.476,-0.428 0.973,-0.84 1.478,-1.224l-1.212,-1.591Zm10.761,-3.318c0,-2.757 2.243,-5 5,-5c2.757,0 5,2.243 5,5c0,2.757 -2.243,5 -5,5c-2.757,0 -5,-2.243 -5,-5Zm19.067,2.13l-1.083,1.682c0.534,0.344 1.062,0.715 1.571,1.104l1.214,-1.591c-0.551,-0.421 -1.123,-0.822 -1.702,-1.195Zm-26.334,-1.059c-0.605,0.323 -1.208,0.678 -1.794,1.055l1.084,1.682c0.54,-0.349 1.096,-0.676 1.652,-0.973l-0.942,-1.764Zm22.671,-0.905l-0.801,1.832c0.583,0.255 1.163,0.537 1.726,0.839l0.946,-1.762c-0.609,-0.328 -1.239,-0.634 -1.871,-0.909Z" style="fill:#fff;"/></svg>