<?xml version="1.0" encoding="UTF-8" standalone="no"?>
<!DOCTYPE svg PUBLIC "-//W3C//DTD SVG 1.1//EN" "http://www.w3.org/Graphics/SVG/1.1/DTD/svg11.dtd">
<svg width="100%" height="100%" viewBox="0 0 1035 832" version="1.1" xmlns="http://www.w3.org/2000/svg" xmlns:xlink="http://www.w3.org/1999/xlink" xml:space="preserve" xmlns:serif="http://www.serif.com/" style="fill-rule:evenodd;clip-rule:evenodd;stroke-miterlimit:10;">
    <g transform="matrix(1,0,0,1,-82.53,-34.2)">
        <path d="M683.84,129.27C617.49,127.36 554.3,109.52 494,90C433.7,70.48 373.84,48.89 309.08,38.55C267.43,31.9 219.8,30.96 186.24,49.55C153.94,67.44 143.51,98.33 137.9,127C133.67,148.56 131.19,171.26 142.76,191.44C150.76,205.44 165.05,217.23 174.91,230.65C209.21,277.36 184.97,334.95 147.79,380.55C130.35,401.94 110.12,422.35 96.66,445.12C83.2,467.89 77,494 88.75,517.2C100.42,540.2 128.23,557.51 158.36,569.68C219.55,594.38 291.66,601.45 361.97,605.46C517.61,614.32 674.09,610.46 830.15,606.64C887.9,605.22 945.91,603.78 1002.73,596.34C1034.28,592.21 1066.85,585.66 1089.73,569.84C1118.81,549.76 1126.01,515.75 1106.53,490.57C1073.85,448.33 983.53,437.84 960.64,392.51C948.06,367.56 960.98,339.76 979.25,316.62C1018.45,266.98 1084.16,223.43 1087.62,166.69C1089.99,127.69 1058.41,88.69 1009.57,70.25C958.38,50.92 887.39,53.35 849.57,85.35C810.76,118.29 742.42,131 683.84,129.27Z" style="fill:rgb(53,198,254);fill-opacity:0.1;fill-rule:nonzero;"/>
    </g>
    <g transform="matrix(1,0,0,1,60,0)">
        <ellipse cx="435.45" cy="802.29" rx="290.75" ry="29.32" style="fill:rgb(53,198,254);fill-opacity:0.1;"/>
    </g>
    <g transform="matrix(1,0,0,1,-22.53,-34.2)">
        <path d="M252,833.31C252,833.31 239.1,760.22 191.22,724C171.13,708.8 156.43,688.13 150.01,664.59C146.989,653.436 145.053,642.016 144.23,630.49" style="fill:none;stroke:rgb(83,84,97);stroke-width:2px;"/>
    </g>
    <g transform="matrix(1,0,0,1,-22.53,-34.2)">
        <path d="M114.21,607.49C118.21,615.32 144.94,631.17 144.94,631.17C144.94,631.17 148.3,601.56 144.27,593.72C140.24,585.88 130.27,582.61 121.95,586.41C113.63,590.21 110.18,599.65 114.21,607.49Z" style="fill:rgb(53,198,254);fill-rule:nonzero;"/>
    </g>
    <g transform="matrix(1,0,0,1,-22.53,-34.2)">
        <path d="M111.66,662.28C119.56,666.79 151.1,666.39 151.1,666.39C151.1,666.39 136.87,639.81 129,635.3C121.13,630.79 110.84,633.17 106.06,640.62C101.28,648.07 103.77,657.77 111.66,662.28Z" style="fill:rgb(53,198,254);fill-rule:nonzero;"/>
    </g>
    <g transform="matrix(1,0,0,1,-22.53,-34.2)">
        <path d="M150.87,736C160.09,736.13 187.1,720.75 187.1,720.75C187.1,720.75 160.61,704.59 151.38,704.45C142.15,704.31 134.56,711.27 134.38,719.98C134.2,728.69 141.64,735.84 150.87,736Z" style="fill:rgb(53,198,254);fill-rule:nonzero;"/>
    </g>
    <g transform="matrix(1,0,0,1,-22.53,-34.2)">
        <path d="M193.83,785.43C202.89,787.04 232.27,776.18 232.27,776.18C232.27,776.18 209.05,756 200,754.42C190.95,752.84 182.2,758.42 180.5,767.02C178.8,775.62 184.76,783.83 193.83,785.43Z" style="fill:rgb(53,198,254);fill-rule:nonzero;"/>
    </g>
    <g transform="matrix(1,0,0,1,-22.53,-34.2)">
        <path d="M183.44,653.45C180.29,661.64 155.44,680 155.44,680C155.44,680 148.86,650.88 152.01,642.69C155.16,634.5 164.75,630.27 173.42,633.24C182.09,636.21 186.59,645.27 183.44,653.45Z" style="fill:rgb(53,198,254);fill-rule:nonzero;"/>
    </g>
    <g transform="matrix(1,0,0,1,-22.53,-34.2)">
        <path d="M232.91,711.89C227.31,718.82 197.79,729.32 197.79,729.32C197.79,729.32 200.79,699.67 206.35,692.75C212.143,685.825 222.418,684.508 229.77,689.75C233.883,692.584 236.345,697.271 236.345,702.266C236.345,705.773 235.131,709.175 232.91,711.89Z" style="fill:rgb(53,198,254);fill-rule:nonzero;"/>
    </g>
    <g transform="matrix(1,0,0,1,-22.53,-34.2)">
        <path d="M272.73,774.92C268.45,782.64 241.24,797.7 241.24,797.7C241.24,797.7 238.85,768.01 243.13,760.29C247.41,752.57 257.5,749.59 265.68,753.63C273.86,757.67 277,767.2 272.73,774.92Z" style="fill:rgb(53,198,254);fill-rule:nonzero;"/>
    </g>
    <g transform="matrix(1,0,0,1,-22.53,-34.2)">
        <path d="M114.21,607.49C118.21,615.32 144.94,631.17 144.94,631.17C144.94,631.17 148.3,601.56 144.27,593.72C140.24,585.88 130.27,582.61 121.95,586.41C113.63,590.21 110.18,599.65 114.21,607.49Z" style="fill-opacity:0.25;fill-rule:nonzero;"/>
    </g>
    <g transform="matrix(1,0,0,1,-22.53,-34.2)">
        <path d="M111.66,662.28C119.56,666.79 151.1,666.39 151.1,666.39C151.1,666.39 136.87,639.81 129,635.3C121.13,630.79 110.84,633.17 106.06,640.62C101.28,648.07 103.77,657.77 111.66,662.28Z" style="fill-opacity:0.25;fill-rule:nonzero;"/>
    </g>
    <g transform="matrix(1,0,0,1,-22.53,-34.2)">
        <path d="M150.87,736C160.09,736.13 187.1,720.75 187.1,720.75C187.1,720.75 160.61,704.59 151.38,704.45C142.15,704.31 134.56,711.27 134.38,719.98C134.2,728.69 141.64,735.84 150.87,736Z" style="fill-opacity:0.25;fill-rule:nonzero;"/>
    </g>
    <g transform="matrix(1,0,0,1,-22.53,-34.2)">
        <path d="M193.83,785.43C202.89,787.04 232.27,776.18 232.27,776.18C232.27,776.18 209.05,756 200,754.42C190.95,752.84 182.2,758.42 180.5,767.02C178.8,775.62 184.76,783.83 193.83,785.43Z" style="fill-opacity:0.25;fill-rule:nonzero;"/>
    </g>
    <g transform="matrix(1,0,0,1,-22.53,-34.2)">
        <path d="M183.44,653.45C180.29,661.64 155.44,680 155.44,680C155.44,680 148.86,650.88 152.01,642.69C155.16,634.5 164.75,630.27 173.42,633.24C182.09,636.21 186.59,645.27 183.44,653.45Z" style="fill-opacity:0.25;fill-rule:nonzero;"/>
    </g>
    <g transform="matrix(1,0,0,1,-22.53,-34.2)">
        <path d="M232.91,711.89C227.31,718.82 197.79,729.32 197.79,729.32C197.79,729.32 200.79,699.67 206.35,692.75C212.143,685.825 222.418,684.508 229.77,689.75C233.883,692.584 236.345,697.271 236.345,702.266C236.345,705.773 235.131,709.175 232.91,711.89Z" style="fill-opacity:0.25;fill-rule:nonzero;"/>
    </g>
    <g transform="matrix(1,0,0,1,-22.53,-34.2)">
        <path d="M272.73,774.92C268.45,782.64 241.24,797.7 241.24,797.7C241.24,797.7 238.85,768.01 243.13,760.29C247.41,752.57 257.5,749.59 265.68,753.63C273.86,757.67 277,767.2 272.73,774.92Z" style="fill-opacity:0.25;fill-rule:nonzero;"/>
    </g>
    <g transform="matrix(1,0,0,1,-22.53,-34.2)">
        <path d="M250.38,831.39C250.38,831.39 269.95,759.63 241.73,708.19C229.89,686.61 225.32,662.09 229.56,638.11C231.596,626.708 234.727,615.53 238.91,604.73" style="fill:none;stroke:rgb(83,84,97);stroke-width:2px;"/>
    </g>
    <g transform="matrix(1,0,0,1,-22.53,-34.2)">
        <path d="M221.33,572.22C221.65,580.92 239.26,605.63 239.26,605.63C239.26,605.63 255.04,579.84 254.72,571.13C254.4,562.42 246.67,555.61 237.45,555.91C228.23,556.21 221,563.51 221.33,572.22Z" style="fill:rgb(53,198,254);fill-rule:nonzero;"/>
    </g>
    <g transform="matrix(1,0,0,1,-22.53,-34.2)">
        <path d="M195.49,621.34C200.77,628.48 229.77,640.18 229.77,640.18C229.77,640.18 228.17,610.44 222.89,603.29C217.381,596.146 207.172,594.43 199.63,599.38C195.198,602.164 192.5,607.044 192.5,612.277C192.5,615.54 193.549,618.718 195.49,621.34Z" style="fill:rgb(53,198,254);fill-rule:nonzero;"/>
    </g>
    <g transform="matrix(1,0,0,1,-22.53,-34.2)">
        <path d="M199.69,703.71C208.07,707.36 239.37,703.64 239.37,703.64C239.37,703.64 222.08,678.72 213.7,675.07C205.32,671.42 195.4,674.87 191.53,682.78C187.66,690.69 191.32,700.06 199.69,703.71Z" style="fill:rgb(53,198,254);fill-rule:nonzero;"/>
    </g>
    <g transform="matrix(1,0,0,1,-22.53,-34.2)">
        <path d="M217.74,765.36C225.35,770.3 256.86,771.61 256.86,771.61C256.86,771.61 244.28,744.3 236.68,739.37C229.124,734.448 218.925,736.204 213.45,743.37C211.529,745.984 210.492,749.145 210.492,752.389C210.492,757.672 213.241,762.591 217.74,765.36Z" style="fill:rgb(53,198,254);fill-rule:nonzero;"/>
    </g>
    <g transform="matrix(1,0,0,1,-22.53,-34.2)">
        <path d="M264.9,640.73C258.5,647.01 227.9,654.3 227.9,654.3C227.9,654.3 234.39,625.15 240.78,618.87C247.302,612.619 257.66,612.426 264.41,618.43C267.675,621.306 269.549,625.454 269.549,629.806C269.549,633.926 267.869,637.873 264.9,640.73Z" style="fill:rgb(53,198,254);fill-rule:nonzero;"/>
    </g>
    <g transform="matrix(1,0,0,1,-22.53,-34.2)">
        <path d="M285,713.08C276.91,717.27 245.42,715.58 245.42,715.58C245.42,715.58 260.85,689.58 268.94,685.42C277.03,681.26 287.19,684.03 291.62,691.67C296.05,699.31 293.13,708.89 285,713.08Z" style="fill:rgb(53,198,254);fill-rule:nonzero;"/>
    </g>
    <g transform="matrix(1,0,0,1,-22.53,-34.2)">
        <path d="M294.39,785.94C287.16,791.36 255.82,794.72 255.82,794.72C255.82,794.72 266.38,766.65 273.61,761.23C280.859,755.85 291.155,756.969 297.08,763.78C299.414,766.526 300.697,770.015 300.697,773.618C300.697,778.496 298.347,783.087 294.39,785.94Z" style="fill:rgb(53,198,254);fill-rule:nonzero;"/>
    </g>
    <g transform="matrix(1,0,0,1,60,0)">
        <circle cx="689.3" cy="336.07" r="0.36" style="fill:rgb(230,232,236);"/>
    </g>
    <g transform="matrix(1,0,0,1,-22.53,-34.2)">
        <path d="M582.08,248.59L320.57,418.25L491.23,726.05C492.841,728.959 495.599,731.063 498.83,731.85L653.46,769.57C658.9,770.886 664.57,768.202 667,763.16L743.7,603.81L827.76,491.44L628.28,255.44C616.85,241.924 596.94,238.972 582.08,248.59Z" style="fill:rgb(220,223,237);fill-rule:nonzero;"/>
    </g>
    <g transform="matrix(1,0,0,1,-22.53,-34.2)">
        <path d="M830.42,492.77L829.68,493.77L780.44,559.6L779.55,560.79L746.36,605.16L680.76,741.47L678.92,745.28L669.66,764.51C667.228,769.56 661.546,772.246 656.1,770.92L501.47,733.18C498.238,732.396 495.479,730.29 493.87,727.38L479,700.61L476.33,695.79L369,502.13L368.08,500.48L323.22,419.58L328.64,416.06L369.73,389.41L370.68,388.79L457.21,332.65L462.67,329.11L584.72,249.92C599.581,240.283 619.507,243.232 630.94,256.76L721.94,364.46L725.94,369.26L791.99,447.4L792.35,447.83L825.56,487.11L829.74,492.06L830.42,492.77Z" style="fill-opacity:0.1;fill-rule:nonzero;"/>
    </g>
    <g transform="matrix(1,0,0,1,-22.53,-34.2)">
        <path d="M789.79,446.5L781.73,502.5L779.3,519.4L777.91,555.4L777.8,558.21L770.57,746.31C770.316,752.67 765.015,757.764 758.649,757.764C757.779,757.764 756.91,757.669 756.06,757.48L678.12,740.08L677.28,739.89L477.39,695.28L473.72,694.46L363.83,669.92L366.35,500.8L366.43,495.15L367.19,443.96L368.03,387.46L454.56,331.32L460.02,327.78C540.28,336.01 647.02,351.84 719.33,363.13L723.33,367.93L789.33,446.07L789.79,446.5Z" style="fill-opacity:0.1;fill-rule:nonzero;"/>
    </g>
    <g transform="matrix(1,0,0,1,-22.53,-34.2)">
        <path d="M798.92,380.1L789.43,446.1L780.73,506.54L778.3,523.4L776.91,559.4L769.57,750.31C769.316,756.67 764.015,761.764 757.649,761.764C756.779,761.764 755.91,761.669 755.06,761.48L676.28,743.89L476.39,699.28L362.83,673.92L365.43,499.15L366.19,447.96L367.08,388.08L367.99,326.49C386.77,325.6 417.67,327.61 454.56,331.32C537.16,339.61 649.76,356.38 723.38,367.93C768.46,375 798.92,380.1 798.92,380.1Z" style="fill:rgb(53,198,254);fill-rule:nonzero;"/>
    </g>
    <g transform="matrix(1,0,0,1,-22.53,-34.2)">
        <path d="M823,485.78L780.73,506.51L565,612.31L366.19,448L326,414.73L320.58,418.25L365.44,499.15L362.84,673.92L476.4,699.28L491.24,726.05C492.849,728.96 495.608,731.066 498.84,731.85L653.47,769.57C658.907,770.881 664.571,768.197 667,763.16L676.26,743.93L755.04,761.52C755.89,761.709 756.759,761.804 757.629,761.804C763.995,761.804 769.296,756.71 769.55,750.35L776.89,559.44L827.02,492.44L827.16,490.75L823,485.78Z" style="fill-opacity:0.1;fill-rule:nonzero;"/>
    </g>
    <g transform="matrix(1,0,0,1,-22.53,-34.2)">
        <path d="M320.57,418.25L302.74,723.58C302.401,729.392 306.367,734.645 312.05,735.91L785.57,841.06C786.408,841.243 787.262,841.336 788.12,841.336C794.292,841.336 799.496,836.542 800,830.39L827.75,491.44L565,620.31L320.57,418.25Z" style="fill:rgb(220,223,237);fill-rule:nonzero;"/>
    </g>
    <g transform="matrix(1,0,0,1,-22.53,-34.2)">
        <path d="M306,730.57L552,578.8C559.489,574.258 569.257,575.787 575,582.4L795.18,839.19C795.98,840.11 796.37,839.45 795.18,839.19L306,730.57C304.6,730.26 304.78,731.3 306,730.57Z" style="fill-opacity:0.1;fill-rule:nonzero;"/>
    </g>
    <g transform="matrix(1,0,0,1,-22.53,-34.2)">
        <path d="M307.76,730.32L551.22,583.25C559.133,578.471 569.437,580.092 575.5,587.07L793.69,838C794.103,838.478 794.331,839.089 794.331,839.72C794.331,841.163 793.144,842.35 791.701,842.35C791.512,842.35 791.324,842.33 791.14,842.29L308.55,735.13C307.349,734.87 306.484,733.798 306.484,732.569C306.484,731.648 306.969,730.792 307.76,730.32Z" style="fill:rgb(227,229,241);fill-rule:nonzero;"/>
    </g>
</svg>
