<?xml version="1.0" encoding="UTF-8" standalone="no"?><!DOCTYPE svg PUBLIC "-//W3C//DTD SVG 1.1//EN" "http://www.w3.org/Graphics/SVG/1.1/DTD/svg11.dtd"><svg width="100%" height="100%" viewBox="0 0 55 56" version="1.1" xmlns="http://www.w3.org/2000/svg" xmlns:xlink="http://www.w3.org/1999/xlink" xml:space="preserve" xmlns:serif="http://www.serif.com/" style="fill-rule:evenodd;clip-rule:evenodd;stroke-linejoin:round;stroke-miterlimit:1.41421;"><path d="M48.44,38.155c1.664,-0.06 3.239,-0.467 4.734,-1.162c-0.871,-1.727 -2.06,-3.226 -3.793,-4.338c3.219,-2.016 5.209,-5.54 5.289,-9.313l0,-0.477c-0.03,-1.062 -0.199,-2.144 -0.545,-3.216c-0.971,-2.989 -3.08,-5.292 -5.685,-6.583l0,1.549c2.001,1.181 3.605,3.068 4.387,5.46c1.446,4.478 -0.495,9.264 -4.387,11.547l0,1.827c1.297,0.774 2.694,1.847 3.278,2.988c-0.881,0.407 -2.119,0.566 -3.278,0.596l0,1.122Zm0,-13.046l0,-2.621c0.238,0.496 0.317,1.102 0.337,1.738c0.346,-0.278 0.743,-0.437 1.149,-0.507c-0.486,-0.427 -0.862,-0.923 -1.07,-1.509c0.049,-0.03 0.089,-0.069 0.129,-0.109c0.505,0.308 0.901,0.814 1.258,1.39c0.168,-0.407 0.425,-0.745 0.742,-1.013c-0.634,-0.129 -1.208,-0.367 -1.693,-0.774c0.029,-0.05 0.049,-0.1 0.069,-0.149c0.594,0.01 1.189,0.248 1.773,0.566c-0.05,-0.437 0.01,-0.844 0.148,-1.241c-0.614,0.208 -1.238,0.278 -1.852,0.178c0,-0.059 -0.01,-0.109 -0.019,-0.168c0.524,-0.288 1.158,-0.378 1.832,-0.398c-0.278,-0.347 -0.426,-0.734 -0.505,-1.151c-0.426,0.486 -0.921,0.864 -1.516,1.082c-0.019,-0.05 -0.059,-0.089 -0.099,-0.139c0.307,-0.506 0.812,-0.904 1.387,-1.251c-0.406,-0.169 -0.733,-0.427 -1.01,-0.755c-0.129,0.646 -0.367,1.222 -0.773,1.698c-0.039,-0.03 -0.099,-0.049 -0.148,-0.069c0.01,-0.596 0.257,-1.182 0.574,-1.777c-0.248,0.029 -0.485,0.029 -0.713,-0.01l0,-0.973c2.05,0.149 3.684,1.876 3.684,3.981c0,2.095 -1.634,3.832 -3.684,3.981m0,-3.217l0,-1.539c0.297,0.12 0.525,0.417 0.525,0.775c0,0.347 -0.228,0.645 -0.525,0.764m-2.377,26.986c2.308,-3.048 2.912,-7.119 1.585,-10.713c0.267,0 0.525,0 0.792,-0.01l0,-1.122c-0.456,0.02 -0.891,0.01 -1.288,-0.01c-0.267,-0.536 -0.584,-1.052 -0.95,-1.559c-0.05,-0.059 -0.089,-0.129 -0.139,-0.188l0,2.631c1.238,2.671 1.189,5.719 0,8.31l0,2.661Zm2.377,-35.812c-0.763,-0.377 -1.555,-0.665 -2.377,-0.864l0,1.41c0.832,0.228 1.634,0.566 2.377,1.003l0,-1.549Zm0,4.081l0,0.973c-0.188,-0.03 -0.366,-0.07 -0.535,-0.139c0.208,0.625 0.287,1.241 0.178,1.856c-0.059,0 -0.118,0 -0.178,0.01c-0.277,-0.516 -0.366,-1.152 -0.386,-1.817c-0.347,0.268 -0.733,0.427 -1.149,0.497c0.485,0.427 0.862,0.923 1.08,1.509c-0.05,0.03 -0.099,0.069 -0.149,0.099c-0.495,-0.308 -0.891,-0.804 -1.238,-1.38l0,-1.033c0.604,-0.377 1.317,-0.585 2.08,-0.585c0.099,0 0.198,0 0.297,0.01m0,3.206l0,1.539c-0.099,0.04 -0.198,0.06 -0.297,0.06c-0.456,0 -0.822,-0.377 -0.822,-0.824c0,-0.457 0.366,-0.824 0.822,-0.824c0.099,0 0.198,0.02 0.297,0.049m0,2.135l0,2.621c-0.099,0 -0.198,0.01 -0.297,0.01c-0.763,0 -1.476,-0.218 -2.08,-0.596l0,-1.171c0.287,0.159 0.525,0.367 0.733,0.615c0.129,-0.635 0.366,-1.211 0.763,-1.687c0.059,0.029 0.108,0.049 0.168,0.069c-0.02,0.596 -0.258,1.182 -0.575,1.777c0.436,-0.069 0.852,0 1.238,0.139c-0.198,-0.615 -0.277,-1.231 -0.168,-1.846c0.06,0 0.109,-0.01 0.168,-0.02c0.01,0.029 0.03,0.059 0.05,0.089m0,9.134l0,1.827c-0.089,-0.05 -0.178,-0.099 -0.258,-0.149c-0.406,0.189 -0.822,0.357 -1.257,0.496c-0.288,0.1 -0.575,0.179 -0.862,0.249l0,-1.42c0.149,-0.04 0.297,-0.079 0.446,-0.129c0.683,-0.229 1.327,-0.516 1.931,-0.874m-2.377,-8.578c0.456,-0.308 0.842,-0.645 1.099,-1.072c-0.029,-0.04 -0.069,-0.09 -0.099,-0.139c-0.376,0.139 -0.703,0.337 -1,0.586l0,0.625Zm0,-1.39l0,-0.506c0.258,-0.02 0.525,0 0.792,0.039c0,0.06 0,0.12 0.02,0.179c-0.247,0.139 -0.525,0.229 -0.812,0.288m0,-1.122c0.287,0.09 0.574,0.149 0.862,0.159c0.02,-0.05 0.039,-0.109 0.069,-0.159c-0.277,-0.238 -0.594,-0.417 -0.931,-0.546l0,0.546Zm-2.535,-8.647c0.723,-1.917 0.921,-3.872 0.683,-5.858c-1.139,0.179 -2.238,0.496 -3.278,0.993l0,1.241c0.762,-0.507 1.555,-0.894 2.298,-1.013c0.168,1.39 -0.387,3.336 -0.922,4.696c-0.455,0.05 -0.921,0.129 -1.376,0.229l0,1.419c1.733,-0.466 3.496,-0.427 5.13,0.02l0,-1.41c-0.822,-0.198 -1.674,-0.307 -2.535,-0.317m-2.595,40.755c0.97,-0.347 1.911,-0.834 2.793,-1.479c0.911,-0.655 1.693,-1.43 2.337,-2.283l0,-2.661c-0.683,1.479 -1.733,2.81 -3.139,3.832c-0.634,0.467 -1.298,0.834 -1.991,1.122l0,1.469Zm5.13,-34.918l0,1.033c-0.168,0.407 -0.426,0.745 -0.743,1.013c0.258,0.049 0.505,0.119 0.743,0.218l0,0.546c-0.307,-0.109 -0.604,-0.248 -0.901,-0.417c0.059,0.447 0,0.864 -0.149,1.251c0.357,-0.109 0.703,-0.188 1.05,-0.218l0,0.506c-0.317,0.06 -0.654,0.089 -1,0.099c0.267,0.358 0.426,0.745 0.495,1.152c0.158,-0.179 0.327,-0.337 0.505,-0.486l0,0.625c-0.089,0.06 -0.178,0.119 -0.277,0.179c0.099,0.03 0.188,0.079 0.277,0.129l0,1.171c-1.139,-0.705 -1.902,-1.965 -1.902,-3.395c0,-1.44 0.763,-2.701 1.902,-3.406m0,14.903c-0.743,0.208 -1.486,0.318 -2.228,0.347c0.435,-1.519 0.663,-3.107 0.663,-4.755c0,-3.932 -1.327,-7.576 -3.565,-10.485l0,1.917c1.565,2.492 2.466,5.43 2.466,8.568c0,3.147 -0.901,6.086 -2.466,8.578l0,1.916c1,-1.301 1.812,-2.74 2.406,-4.299c0.654,0.536 1.248,1.152 1.763,1.857c0.377,0.526 0.694,1.072 0.961,1.638l0,-2.631c-0.287,-0.378 -0.584,-0.725 -0.911,-1.063c0.307,-0.039 0.604,-0.099 0.911,-0.168l0,-1.42Zm-5.13,17.245l0,-0.843c0.238,0.139 0.436,0.287 0.564,0.426c0.159,0.1 0.317,0.199 0.466,0.288c-0.02,0.08 -0.05,0.159 -0.079,0.239c-0.317,-0.05 -0.634,-0.08 -0.951,-0.11m0,-1.529l0,-0.436c0.406,-0.397 0.723,-1.003 0.861,-1.778c-0.287,0.01 -0.574,0.01 -0.861,0.02l0,-0.863c0.317,-0.01 0.634,-0.01 0.951,-0.02c0.01,-0.298 0.277,-0.536 0.435,-0.765l-1.386,0l0,-0.178c0.198,-0.05 0.317,-0.139 0.346,-0.278c-0.108,0 -0.227,0.049 -0.346,0.158l0,-2.094c0.049,0.049 0.099,0.099 0.148,0.158c0.05,-0.178 0.08,-0.357 0.119,-0.536c0.268,0.338 -0.02,0.963 0.357,1.301c0.119,-0.07 0.237,-0.139 0.356,-0.209c-0.158,0.556 0.228,0.944 0.03,1.41l0.911,0c0.149,0.06 0.188,0.139 0.079,0.238c-0.376,0.139 -0.604,0.497 -0.762,0.944c0.297,0.159 0.356,0.397 0.178,0.714c0.149,0.527 -0.02,0.775 -0.495,0.765c-0.119,0.576 -0.426,1.042 -0.921,1.449m0,-41.321c-0.03,0.02 -0.07,0.03 -0.099,0.049l0,1.251c0.029,-0.02 0.069,-0.039 0.099,-0.059l0,-1.241Zm-0.099,45.66c0.029,-0.01 0.069,-0.02 0.099,-0.04l0,-1.469c-0.03,0.02 -0.07,0.03 -0.099,0.04l0,1.469Zm0.099,-40.507l0,1.419c-0.03,0 -0.07,0.01 -0.099,0.02l0,-1.41c0.029,-0.01 0.069,-0.02 0.099,-0.029m0,5.559l0,1.917c-0.03,-0.05 -0.07,-0.1 -0.099,-0.149l0,-1.897c0.029,0.04 0.069,0.08 0.099,0.129m0,19.063l0,1.916c-0.03,0.04 -0.07,0.079 -0.099,0.119l0,-1.886c0.029,-0.05 0.069,-0.1 0.099,-0.149m0,5.312l0,2.094c-0.01,0.01 -0.02,0.02 -0.03,0.02c0.01,0.04 0.02,0.07 0.03,0.1l0,0.178l-0.099,0l0,-1.191c0.029,0.01 0.049,0.01 0.069,0.01c0.03,-0.169 0.01,-0.298 -0.069,-0.387l0,-1.599c0.138,0.109 0.089,0.387 0.02,0.695c0.029,0.02 0.049,0.05 0.079,0.08m0,4.04l-0.099,0l0,-0.864l0.099,0l0,0.864Zm0,1.758l0,0.436c-0.03,0.02 -0.06,0.05 -0.099,0.07l0,-0.417c0.029,-0.03 0.069,-0.06 0.099,-0.089m0,1.122l0,0.843c-0.03,0 -0.07,-0.009 -0.099,-0.009l0,-0.894c0.029,0.02 0.069,0.04 0.099,0.06m-0.099,-41.958c-0.188,0.09 -0.377,0.189 -0.565,0.298l0,1.37c0.188,-0.149 0.377,-0.288 0.565,-0.417l0,-1.251Zm-0.565,45.79c0.188,-0.05 0.377,-0.119 0.565,-0.179l0,-1.469c-0.188,0.079 -0.377,0.149 -0.565,0.208l0,1.44Zm0.565,-40.657l0,1.41c-0.139,0.04 -0.278,0.08 -0.406,0.129c-0.06,0.01 -0.109,0.03 -0.159,0.05l0,-1.44c0.188,-0.049 0.377,-0.109 0.565,-0.149m0,5.401l0,1.897c-0.178,-0.278 -0.367,-0.556 -0.565,-0.824l0,-1.758c0.188,0.219 0.387,0.447 0.565,0.685m0,19.341l0,1.886c-0.178,0.238 -0.377,0.467 -0.565,0.695l0,-1.747c0.198,-0.278 0.387,-0.546 0.565,-0.834m0,4.388l0,1.599c-0.01,-0.01 -0.03,-0.03 -0.05,-0.04c-0.049,0.109 -0.039,0.258 0.02,0.417l0.03,0l0,1.191l-0.565,0l0,-0.834c0.03,0 0.07,-0.03 0.109,-0.079c0.02,-0.606 -0.029,-0.457 -0.049,-1.102c-0.01,-0.06 -0.04,-0.08 -0.06,-0.07l0,-1.092c0.089,0.159 0.149,0.338 0.198,0.526c0.089,-0.188 0.179,-0.377 0.268,-0.556c0.039,0 0.079,0.02 0.099,0.04m0,4.815l-0.565,0l0,-0.864l0.565,0l0,0.864Zm0,1.847l0,0.417c-0.139,0.109 -0.287,0.209 -0.456,0.308c0.159,0.079 0.317,0.169 0.456,0.248l0,0.894c-0.188,-0.01 -0.377,-0.03 -0.565,-0.03l0,-1.47c0.198,-0.089 0.387,-0.208 0.565,-0.367m-0.565,-40.627c-0.079,0.05 -0.158,0.099 -0.237,0.139l0,1.41c0.079,-0.06 0.158,-0.119 0.237,-0.179l0,-1.37Zm-0.237,45.561c0.079,-0.019 0.158,-0.049 0.237,-0.069l0,-1.44c-0.079,0.03 -0.158,0.06 -0.237,0.08l0,1.429Zm0.237,-40.577l0,1.44c-0.079,0.03 -0.158,0.059 -0.237,0.089l0,-1.449c0.079,-0.03 0.158,-0.05 0.237,-0.08m0,4.567l0,1.758c-0.079,-0.11 -0.158,-0.209 -0.237,-0.308l0,-1.718c0.079,0.09 0.158,0.179 0.237,0.268m0,20.86l0,1.747c-0.079,0.089 -0.158,0.179 -0.237,0.268l0,-1.707c0.079,-0.1 0.158,-0.209 0.237,-0.308m0,3.544l0,1.092c-0.02,0.02 -0.039,0.04 -0.059,0.08c-0.139,0.407 0.03,0.665 -0.03,1.062c0.02,0.07 0.05,0.109 0.089,0.109l0,0.834l-0.237,0l0,-0.337c0.109,-0.09 0.158,-0.189 0.148,-0.298c-0.049,0.01 -0.099,0.049 -0.148,0.089l0,-2.939c0.099,0.09 0.168,0.199 0.237,0.308m0,3.962l0,0.863c-0.079,0 -0.158,0 -0.237,-0.01l0,-0.844c0.079,0 0.158,-0.009 0.237,-0.009m0,3.077l0,1.47c-0.079,-0.01 -0.158,-0.01 -0.237,-0.01l0,-1.38c0.079,-0.02 0.158,-0.05 0.237,-0.08m-0.237,-40.855c-0.109,0.07 -0.218,0.139 -0.327,0.219l0,1.459l0.327,-0.268l0,-1.41Zm-0.327,45.502c0.109,-0.03 0.218,-0.05 0.327,-0.08l0,-1.429c-0.109,0.03 -0.218,0.069 -0.327,0.099l0,1.41Zm0.327,-40.577l0,1.449c-0.109,0.04 -0.218,0.08 -0.327,0.129l0,-1.469c0.099,-0.04 0.198,-0.07 0.297,-0.099c0.01,-0.01 0.02,-0.01 0.03,-0.01m0,4.219l0,1.718c-0.109,-0.149 -0.218,-0.278 -0.327,-0.417l0,-1.658l0.327,0.357Zm0,21.436l0,1.707c-0.109,0.119 -0.218,0.238 -0.327,0.348l0,-1.648c0.109,-0.129 0.218,-0.268 0.327,-0.407m0,2.928l0,2.939c-0.06,0.05 -0.109,0.119 -0.149,0.199c0.01,0.03 0.03,0.059 0.05,0.079c0.039,-0.02 0.069,-0.04 0.099,-0.069l0,0.337l-0.327,0l0,-2.392c0.138,-0.08 0.188,-0.269 0.128,-0.576c-0.049,0.029 -0.089,0.049 -0.128,0.089l0,-0.824c0.128,0.06 0.237,0.129 0.327,0.218m0,5.123l-0.327,0l0,-0.844l0.327,0l0,0.844Zm0,2.304l0,1.38c-0.109,-0.01 -0.218,-0.01 -0.327,-0.01l0,-1.311c0.109,-0.01 0.218,-0.029 0.327,-0.059m-0.327,-40.716c-0.367,0.238 -0.723,0.516 -1.06,0.814l0,4.15c0.079,-0.616 0.158,-1.241 0.228,-1.857c-0.04,-0.347 -0.02,-0.506 -0.07,-0.844c0.278,-0.258 0.575,-0.536 0.902,-0.804l0,-1.459Zm-1.06,45.471c0.357,-0.039 0.703,-0.109 1.06,-0.188l0,-1.41c-0.357,0.089 -0.703,0.169 -1.06,0.218l0,1.38Zm1.06,-40.656l0,1.469c-0.367,0.149 -0.723,0.318 -1.06,0.517l0,-1.549c0.337,-0.159 0.693,-0.308 1.06,-0.437m0,3.753l0,1.658c-0.337,-0.407 -0.694,-0.794 -1.06,-1.162l0,-1.509c0.366,0.318 0.723,0.665 1.06,1.013m0,22.2l0,1.648c-0.337,0.357 -0.694,0.695 -1.06,1.022l0,-1.638c0.04,0.01 0.069,0.02 0.109,0.03c0.327,-0.338 0.644,-0.695 0.951,-1.062m0,2.303c-0.01,0 -0.02,0 -0.03,-0.01c0.02,0.318 -0.059,0.616 -0.347,0.854c-0.049,-0.139 -0.237,-0.338 -0.277,-0.477c-0.069,0.09 -0.01,0.239 -0.079,0.328l-0.268,0c0.01,0.149 -0.009,0.308 -0.059,0.457l0,1.479c0.079,0.278 0.228,0.357 0.218,0.814c-0.05,0.07 -0.149,0.089 -0.218,0.07l0,0.188l1.06,0l0,-2.392c-0.04,0.019 -0.099,0.039 -0.159,0.039c-0.01,-0.238 0.04,-0.417 0.159,-0.526l0,-0.824Zm0,4.497l0,0.844c-0.357,-0.01 -0.713,-0.019 -1.06,-0.039l0,-0.785c0.347,-0.01 0.703,-0.01 1.06,-0.02m0,3.207l0,1.311c-0.357,-0.01 -0.713,-0.01 -1.06,0l0,-0.715l0.03,0c0.069,-0.079 0.138,-0.288 0.208,-0.357c-0.089,-0.04 -0.169,-0.08 -0.238,-0.119l0,-0.408c0.317,0.219 0.693,0.318 1.06,0.288m-1.06,-39.961c-0.089,0.079 -0.178,0.169 -0.267,0.248c-0.179,-0.774 -0.426,-1.519 -0.753,-2.224l0,9.293c0.356,0.298 0.693,0.606 1.02,0.933l0,-1.509c-0.168,-0.149 -0.347,-0.298 -0.525,-0.447c0.168,-0.109 0.347,-0.208 0.525,-0.307l0,-1.549c-0.02,0.01 -0.03,0.01 -0.04,0.02c0.01,-0.1 0.02,-0.199 0.04,-0.308l0,-4.15Zm-1.02,44.747c0.337,-0.01 0.683,-0.04 1.02,-0.09l0,-1.38c-0.337,0.05 -0.683,0.09 -1.02,0.1l0,1.37Zm1.02,-13.761l0,1.638c-0.327,0.288 -0.673,0.566 -1.02,0.834l0,-1.618c0.089,-0.079 0.188,-0.159 0.277,-0.248c-0.039,-0.09 -0.138,-0.169 -0.277,-0.229l0,-0.566c0.376,0.05 0.723,0.1 1.02,0.189m0,2.423c-0.099,0.297 -0.307,0.585 -0.574,0.853c-0.04,-0.228 -0.109,-0.526 -0.159,-0.744c-0.089,0.397 -0.178,0.804 -0.267,1.201l-0.02,0l0,0.447c0.089,0.069 0.158,0.149 0.188,0.238c-0.069,0.01 -0.129,-0.01 -0.188,-0.039l0,0.595l1.02,0l0,-0.188c-0.049,-0.01 -0.079,-0.05 -0.099,-0.1c0.059,-0.397 -0.218,-0.754 -0.079,-1.161c0.049,-0.1 0.099,-0.1 0.129,-0.01c0,0.169 0.019,0.288 0.049,0.387l0,-1.479Zm0,3.365l0,0.785c-0.337,-0.02 -0.683,-0.04 -1.02,-0.07l0,-0.705c0.337,0 0.683,-0.01 1.02,-0.01m0,2.899l0,0.408c-0.545,-0.298 -0.822,-0.705 -1.02,-1.152l0,-1.341c0.109,1.043 0.505,1.728 1.02,2.085m0,0.884l0,0.715c-0.337,0.01 -0.683,0.02 -1.02,0.04l0,-0.328c0.069,-0.01 0.129,-0.03 0.198,-0.04c0.129,-0.238 0.396,-0.367 0.822,-0.387m-1.02,-42.533c-1.486,-3.237 -4.467,-5.659 -8.042,-6.354l0,1.4c4.387,0.983 7.695,4.934 7.695,9.62c0,0.934 -0.138,1.837 -0.376,2.691c-2.149,-1.45 -4.635,-2.433 -7.319,-2.8l0,1.112c3.031,0.437 5.794,1.728 8.042,3.624l0,-9.293Zm-8.042,45.105c0.129,-0.318 0.238,-0.656 0.327,-1.013c2.179,1.837 4.952,2.75 7.715,2.631l0,-1.37c-3.001,0.149 -6.012,-1.082 -8.042,-3.525l0,3.277Zm8.042,-12.332l0,0.566c-0.733,-0.357 -2.625,-0.367 -3.764,-0.605c-1.228,0.466 -2.713,0.744 -4.278,0.883l0,-1.112c1.486,-0.139 2.882,-0.426 4.1,-0.853c0.149,-0.139 0.129,-0.278 -0.049,-0.368c-0.357,-0.228 -0.793,-0.357 -1.327,-0.456c-0.605,0.397 -1.585,0.665 -2.724,0.814l0,-0.368c0.238,-0.029 0.475,-0.069 0.713,-0.119l0.624,-0.139l0.555,-0.179l0.237,-0.099l0.208,-0.099l0.129,-0.08l0,-0.009c-0.198,-0.417 -0.555,-0.686 -1.01,-0.904c-0.466,0.109 -0.961,0.199 -1.456,0.268l0,-0.943c0.327,-0.05 0.644,-0.109 0.971,-0.179c0.138,-0.238 0.069,-0.367 -0.218,-0.397c-0.248,0.05 -0.505,0.089 -0.753,0.119l0,-0.228c0.059,-0.01 0.129,-0.02 0.188,-0.03c0.188,-0.308 0.04,-0.357 -0.158,-0.377c-0.01,0 -0.02,0.01 -0.03,0.01l0,-1.003c0.049,0.04 0.109,0.069 0.158,0.109l0.099,0.08l0.1,0.129l0.069,0.178l0,0.179l0.079,0.03l0.168,0.159l0.099,0.238l0.218,0.03l0.169,0.049l0.168,0.11l0.149,0.178l0.069,0.229l0,0.208l-0.05,0.169l0.06,0.268l0.337,0.169c0.287,0.159 0.525,0.337 0.752,0.576c0.089,0.119 0.169,0.228 0.248,0.357l0.069,0.149c0.377,0.07 0.723,0.169 1.07,0.318c0.564,0.129 0.832,0.814 0.693,1.41c0.188,0.377 1.912,0.387 3.318,0.565m0,1.043l0,1.618c-2.308,1.738 -5.051,2.919 -8.042,3.316l0,-1.27c3.04,-0.437 5.804,-1.748 8.042,-3.664m0,2.879c-0.317,-0.109 -0.406,-0.427 -0.386,-0.824c-0.288,0.258 -0.317,0.526 -0.119,0.824c-0.05,0.159 -0.178,0.219 -0.297,0.179c0.01,0.288 0.148,0.536 0.416,0.735c-0.258,0.039 -0.515,0.079 -0.773,0.119c-0.198,0.109 -0.218,0.218 -0.02,0.327c0.327,0.09 0.565,0.278 0.585,0.675c-0.307,0.189 -0.337,0.457 -0.089,0.795c-0.139,0.466 -0.03,0.625 0.386,0.536c0.089,0.288 0.178,0.576 0.297,0.844l0,-1.341c0,-0.029 -0.01,-0.059 -0.01,-0.099l0.01,0l0,-0.705l-0.149,0c-0.059,-0.357 -0.218,-0.625 -0.505,-0.824l0.654,0l0,-0.595c-0.069,-0.04 -0.129,-0.11 -0.188,-0.209c0.029,-0.02 0.049,-0.04 0.079,-0.05c0.04,0.02 0.079,0.04 0.109,0.06l0,-0.447Zm0,6.265l0,0.328c-0.089,0.01 -0.178,0.01 -0.277,0.019c-0.02,-0.089 -0.06,-0.178 -0.08,-0.268c0.119,-0.029 0.238,-0.049 0.357,-0.079m-8.042,-25.248l0,-1.777c0.545,0.238 0.248,1.132 0.386,1.688l-0.386,0.089Zm0,-1.807l0,-0.347c1.377,-0.338 1.743,-1.916 2.377,-2.403c-0.386,-0.109 -0.852,0.099 -1.208,0.437c-0.159,0.844 -0.575,1.479 -1.169,1.906l0,-0.417c0.673,-0.516 1.079,-1.251 1.06,-2.005c-0.347,0.02 -0.733,0.129 -1.06,0.367l0,-0.635l0.02,0.109c0.188,-0.109 0.376,-0.179 0.574,-0.229c0.119,-0.029 0.238,-0.049 0.357,-0.059l0.515,-0.04l0,0.268c0.228,-0.129 0.475,-0.178 0.733,-0.198l0.227,0.029l0.822,0.199l-0.673,0.566c-0.188,0.198 -0.327,0.437 -0.466,0.655c-0.178,0.288 -0.356,0.556 -0.574,0.824c-0.119,0.139 -0.238,0.268 -0.376,0.387c-0.109,0.1 -0.228,0.179 -0.347,0.259c-0.139,0.079 -0.267,0.149 -0.406,0.208l-0.307,0.099l-0.099,0.02Zm0,-3.773l0,-1.131c0.03,0.188 0.049,0.377 0.049,0.575l0,0.209c-0.009,0.119 -0.029,0.238 -0.049,0.347m0,-9.61l0,-0.655c0.238,-0.03 0.446,-0.159 0.614,-0.378c0.198,-0.268 0.297,-0.586 0.297,-0.983c0,-0.387 -0.089,-0.695 -0.267,-0.933c-0.179,-0.228 -0.387,-0.347 -0.644,-0.357l0,-0.666l0.02,0c0.416,0 0.723,0.159 0.931,0.477c0.198,0.318 0.307,0.784 0.307,1.42c0,0.635 -0.129,1.142 -0.387,1.519c-0.227,0.327 -0.514,0.516 -0.871,0.556m0,-8.876c-0.03,-0.01 -0.059,-0.02 -0.089,-0.02l0,1.4c0.03,0 0.059,0.01 0.089,0.02l0,-1.4Zm-0.089,51.697c0.03,-0.08 0.059,-0.159 0.089,-0.238l0,-3.277c-0.03,-0.04 -0.059,-0.069 -0.089,-0.109l0,3.624Zm0.089,-46.793l0,0.666c-0.02,-0.01 -0.04,-0.01 -0.059,-0.01l-0.03,0l0,-0.646c0.03,-0.01 0.059,-0.01 0.089,-0.01m0,3.317l0,0.655c-0.03,0 -0.059,0 -0.089,0.01l0,-0.656c0.03,0 0.059,0 0.089,-0.009m0,2.69l0,1.112c-0.03,0 -0.059,0 -0.089,-0.01l0,-1.112c0.03,0 0.059,0.01 0.089,0.01m0,6.444l0,1.131c-0.02,0.11 -0.05,0.209 -0.079,0.318l0.079,0.358l0,0.635c-0.03,0.02 -0.059,0.05 -0.089,0.069l0,-0.456l0.059,-0.04l-0.059,-0.119l0,-2.343l0,0.02c0.039,0.139 0.069,0.278 0.089,0.427m0,4.08l0,0.417c-0.03,0.02 -0.059,0.04 -0.089,0.06l0,-0.407c0.03,-0.02 0.059,-0.05 0.089,-0.07m0,0.477l0,0.347l-0.04,0l0,0.01c0.01,0 0.03,0.01 0.04,0.02l0,1.777l-0.089,0.02l0,-0.387c0.02,0 0.039,0 0.059,-0.01c0.01,-0.268 0.01,-0.536 0.01,-0.804c-0.02,0.01 -0.049,0.01 -0.069,0.02l0,-0.963c0.03,-0.01 0.059,-0.02 0.089,-0.03m0,11.328l0,1.003c-0.03,0 -0.059,0.01 -0.089,0.01l0,-0.397c0.03,-0.05 0.03,-0.1 0,-0.139l0,-0.527c0.03,0.02 0.059,0.03 0.089,0.05m0,1.4l0,0.228c-0.03,0.01 -0.059,0.01 -0.089,0.02l0,-0.228c0.03,-0.01 0.059,-0.01 0.089,-0.02m0,0.685l0,0.943c-0.03,0 -0.059,0.01 -0.089,0.01l0,-0.943c0.03,0 0.059,-0.01 0.089,-0.01m0,2.303l0,0.368c-0.03,0 -0.059,0.01 -0.089,0.01l0,-0.368c0.03,0 0.059,-0.01 0.089,-0.01m0,1.231l0,1.112c-0.03,0 -0.059,0 -0.089,0.01l0,-1.112c0.03,-0.01 0.059,-0.01 0.089,-0.01m0,4.975l0,1.27c-0.03,0.01 -0.059,0.01 -0.089,0.02l0,-1.271c0.03,-0.01 0.059,-0.01 0.089,-0.019m-0.089,-43.854c-0.06,-0.01 -0.119,-0.02 -0.178,-0.03l0,1.39c0.059,0.01 0.118,0.02 0.178,0.04l0,-1.4Zm-0.178,52.114c0.059,-0.129 0.118,-0.268 0.178,-0.397l0,-3.624c-0.06,-0.079 -0.119,-0.149 -0.178,-0.228l0,4.249Zm0.178,-47.18l0,0.646c-0.07,0.01 -0.129,0.01 -0.178,0.02l0,-0.646c0.049,-0.01 0.108,-0.02 0.178,-0.02m0,3.316l0,0.656l-0.079,0l-0.099,0l0,-0.665c0.039,0.009 0.089,0.009 0.138,0.009l0.04,0Zm0,2.671l0,1.112c-0.06,-0.01 -0.119,-0.02 -0.178,-0.02l0,-1.112c0.059,0.01 0.118,0.01 0.178,0.02m0,6.007l0,2.343l-0.079,-0.159c-0.03,0.07 -0.07,0.149 -0.099,0.219l0,-3.227l0.009,0l0.119,0.635c0.02,0.06 0.03,0.119 0.05,0.189m0,2.502l0,0.456c-0.07,0.06 -0.129,0.11 -0.178,0.169l0,-0.506l0.118,-0.089l0.06,-0.03Zm0,2.095l0,0.407c-0.02,0.01 -0.04,0.02 -0.07,0.039c0.03,-0.009 0.05,-0.009 0.07,-0.009l0,0.963c-0.06,0.009 -0.119,0.019 -0.178,0.029l0,-0.168c0.039,-0.01 0.089,-0.01 0.128,-0.02c-0.01,-0.08 -0.059,-0.159 -0.128,-0.239l0,-0.893c0.059,-0.03 0.118,-0.07 0.178,-0.109m0,2.194l0,0.387l-0.178,0.04l0,-0.397c0.059,-0.01 0.118,-0.02 0.178,-0.03m0,9.491l0,0.527c-0.03,-0.03 -0.06,-0.06 -0.109,-0.08c-0.02,-0.02 -0.05,-0.03 -0.069,-0.05l0,-0.516c0.059,0.04 0.118,0.08 0.178,0.119m0,0.666l0,0.397c-0.06,0.01 -0.119,0.02 -0.178,0.029l0,-0.357c0.039,-0.01 0.079,-0.02 0.118,-0.02c0.03,-0.02 0.04,-0.04 0.06,-0.049m0,0.804l0,0.228c-0.06,0.01 -0.119,0.01 -0.178,0.02l0,-0.228c0.059,-0.01 0.118,-0.01 0.178,-0.02m0,0.675l0,0.943c-0.06,0.01 -0.119,0.02 -0.178,0.02l0,-0.933c0.059,-0.01 0.118,-0.02 0.178,-0.03m0,2.303l0,0.368c-0.06,0.01 -0.119,0.01 -0.178,0.019l0,-0.367c0.059,0 0.118,-0.01 0.178,-0.02m0,1.231l0,1.112c-0.06,0 -0.119,0.01 -0.178,0.01l0,-1.112c0.059,0 0.118,-0.01 0.178,-0.01m0,4.984l0,1.271c-0.06,0 -0.119,0.01 -0.178,0.02l0,-1.271c0.059,-0.01 0.118,-0.02 0.178,-0.02m-0.178,-43.903c-0.05,-0.01 -0.109,-0.02 -0.159,-0.03l0,1.39c0.05,0.01 0.109,0.02 0.159,0.03l0,-1.39Zm-0.159,52.472c0.05,-0.11 0.109,-0.219 0.159,-0.328l0,-4.249c-0.05,-0.06 -0.099,-0.12 -0.139,-0.189c-0.01,0 -0.01,-0.01 -0.02,-0.02l0,4.786Zm0.159,-47.488l0,0.646c-0.06,0.01 -0.109,0.029 -0.159,0.039l0,-0.635c0.05,-0.02 0.099,-0.04 0.159,-0.05m0,3.287l0,0.665c-0.06,-0.01 -0.109,-0.02 -0.159,-0.03l0,-0.715c0.05,0.04 0.099,0.06 0.159,0.08m0,2.66l0,1.112c-0.05,-0.01 -0.109,-0.02 -0.159,-0.02l0,-1.112c0.05,0.01 0.109,0.01 0.159,0.02m0,5.203l0,3.227c-0.05,0.099 -0.109,0.198 -0.159,0.287l0,-0.933c0.139,-0.526 0.069,-1.003 0,-1.34l0,-1.152l0.159,-0.089Zm0,3.445c-0.06,0.05 -0.109,0.089 -0.159,0.139l0,0.576c0.05,-0.07 0.099,-0.139 0.159,-0.209l0,-0.506Zm0,2.085l0,0.893c-0.05,-0.039 -0.099,-0.079 -0.159,-0.119l0,-0.675c0.05,-0.03 0.109,-0.059 0.159,-0.099m0,1.152l0,0.168c-0.05,0.01 -0.109,0.01 -0.159,0.02l0,-0.179c0.05,0 0.109,-0.009 0.159,-0.009m0,0.963l0,0.397l-0.159,0.039l0,-0.407c0.05,-0.01 0.109,-0.019 0.159,-0.029m0,9.342l0,0.516c-0.06,-0.029 -0.109,-0.069 -0.159,-0.099l0,-0.536c0.05,0.04 0.099,0.079 0.159,0.119m0,0.854l0,0.357c-0.05,0 -0.109,0.01 -0.159,0.02l0,-0.357c0.05,0 0.109,-0.01 0.159,-0.02m0,0.755l0,0.228c-0.05,0.01 -0.109,0.01 -0.159,0.02l0,-0.219c0.05,-0.01 0.109,-0.02 0.159,-0.029m0,0.685l0,0.933c-0.05,0.01 -0.109,0.02 -0.159,0.02l0,-0.933c0.05,-0.01 0.109,-0.02 0.159,-0.02m0,2.293l0,0.367c-0.05,0.01 -0.109,0.01 -0.159,0.02l0,-0.367l0.079,-0.01c0.03,0 0.05,0 0.08,-0.01m0,1.221l0,1.112c-0.05,0 -0.109,0.01 -0.159,0.01l0,-1.112c0.05,0 0.109,0 0.159,-0.01m0,4.994l0,1.271c-0.05,0 -0.109,0.01 -0.159,0.02l0,-1.271c0.05,-0.01 0.109,-0.01 0.159,-0.02m-0.159,-43.953c-0.04,-0.009 -0.079,-0.009 -0.119,-0.019l0,1.39c0.04,0.009 0.079,0.009 0.119,0.019l0,-1.39Zm-0.119,52.72c0.04,-0.07 0.079,-0.149 0.119,-0.218l0,-4.786c-0.04,-0.059 -0.079,-0.109 -0.119,-0.169l0,5.173Zm0.119,-47.656l0,0.635c-0.04,0.02 -0.079,0.04 -0.119,0.06l0,-0.645c0.04,-0.02 0.079,-0.04 0.119,-0.05m0,3.157l0,0.715c-0.04,-0.01 -0.079,-0.02 -0.119,-0.03l0,-0.814c0.03,0.05 0.07,0.099 0.119,0.129m0,2.72l0,1.112c-0.04,-0.009 -0.079,-0.009 -0.119,-0.019l0,-1.102c0.04,0 0.079,0.009 0.119,0.009m0,5.312l0,1.152c-0.049,-0.238 -0.099,-0.407 -0.109,-0.507c0,0.01 -0.01,0.01 -0.01,0.02l0,-0.605l0.119,-0.06Zm0,2.492l0,0.933c-0.03,0.05 -0.049,0.1 -0.079,0.149c0.03,-0.029 0.049,-0.059 0.079,-0.079l0,0.576c-0.01,0.01 -0.01,0.01 -0.01,0.02c-0.02,0.188 -0.059,0.357 -0.109,0.516l0,-1.767c0.05,-0.119 0.089,-0.239 0.119,-0.348m0,3.048l0,0.675c-0.04,-0.029 -0.079,-0.049 -0.119,-0.069l0,-0.546c0.04,-0.02 0.079,-0.04 0.119,-0.06m0,1.062l0,0.179c-0.04,0.01 -0.079,0.01 -0.119,0.02l0,-0.179c0.04,-0.01 0.079,-0.01 0.119,-0.02m0,0.983l0,0.407l-0.119,0.03l0,-0.427c0.04,0 0.079,-0.01 0.119,-0.01m0,9.194l0,0.536c-0.04,-0.03 -0.079,-0.049 -0.119,-0.079l0,-0.556c0.04,0.039 0.079,0.069 0.119,0.099m0,0.993l0,0.357c-0.04,0 -0.079,0.01 -0.119,0.01l0,-0.347c0.04,0 0.079,-0.01 0.119,-0.02m0,0.764l0,0.219c-0.04,0 -0.079,0.01 -0.119,0.01l0,-0.219c0.04,0 0.079,-0.01 0.119,-0.01m0,0.676l0,0.933c-0.04,0.01 -0.079,0.01 -0.119,0.01l0,-0.934c0.04,0 0.079,-0.009 0.119,-0.009m0,2.293l0,0.367c-0.04,0 -0.079,0 -0.119,0.01l0,-0.367l0.119,-0.01Zm0,1.211l0,1.112c-0.04,0 -0.079,0.01 -0.119,0.01l0,-1.112c0.04,0 0.079,0 0.119,-0.01m0,5.004l0,1.271c-0.04,0 -0.079,0.01 -0.119,0.01l0,-1.271c0.04,0 0.079,-0.01 0.119,-0.01m-0.119,-39.674l0,-0.089l0.05,0.04c-0.01,0.02 -0.03,0.039 -0.05,0.049m0,-4.318c-0.208,-0.03 -0.416,-0.05 -0.624,-0.07l0,1.38c0.208,0.02 0.416,0.05 0.624,0.08l0,-1.39Zm-0.624,53.762c0.228,-0.328 0.436,-0.666 0.624,-1.023l0,-5.173c-0.237,-0.337 -0.445,-0.685 -0.624,-1.042l0,2.492c0.159,0.198 0.337,0.397 0.515,0.596c-0.128,0.605 -0.297,1.251 -0.515,1.866l0,2.284Zm0.624,-49.533l0,0.089c-0.208,0.199 -0.416,0.348 -0.624,0.447l0,-0.973c0.01,-0.01 0.02,-0.02 0.03,-0.03l0.594,0.467Zm0,0.904l0,0.645c-0.148,0.079 -0.277,0.208 -0.366,0.387c0.168,0.079 0.247,0.268 0.247,0.576l0,0.794c0,0.248 0.04,0.447 0.119,0.576l0,0.814c-0.119,-0.049 -0.208,-0.119 -0.277,-0.218c-0.129,-0.179 -0.188,-0.487 -0.188,-0.914l0,-0.327c0,-0.278 -0.06,-0.457 -0.159,-0.546l0,-0.834l0.02,0c0.099,-0.467 0.297,-0.785 0.604,-0.953m0,5.818l0,1.102c-0.208,-0.02 -0.416,-0.04 -0.624,-0.05l0,-1.112c0.208,0.02 0.416,0.04 0.624,0.06m0,5.381l0,0.605c-0.158,0.159 -0.218,0.328 -0.188,0.536c0.168,0.666 0.139,1.321 0.02,1.986c0.059,-0.119 0.119,-0.228 0.168,-0.347l0,1.767c-0.138,0.407 -0.386,0.735 -0.624,1.032l0,-0.476c0.307,-0.506 0.347,-1.192 0,-1.708l0,-0.516c0.07,0.069 0.139,0.139 0.208,0.208c0.179,-0.982 0.04,-1.568 -0.208,-1.955l0,-0.547c0,0 0.01,0 0.01,0.01c0,-0.019 -0.01,-0.039 -0.01,-0.049l0,-0.457c0.07,0.109 0.149,0.238 0.208,0.357c-0.089,-0.407 -0.188,-0.774 -0.099,-0.933c-0.039,0.01 -0.079,0.03 -0.109,0.05l0,-0.447c0.109,-0.02 0.208,-0.01 0.258,0.05c0,0.159 0.247,0.724 0.287,0.873l0.079,-0.039Zm0,5.54c-0.198,0.089 -0.406,0.169 -0.624,0.228l0,0.228c0.139,0.01 0.288,0.02 0.436,0.04c0.059,0.01 0.119,0.03 0.188,0.05l0,-0.546Zm0,1.022l0,0.179c-0.208,0.03 -0.416,0.05 -0.624,0.07l0,-0.199c0.208,-0.02 0.416,-0.03 0.624,-0.05m0,0.973l0,0.427l-0.178,0.04c-0.139,0.169 -0.267,0.308 -0.366,0.496c-0.03,0.08 -0.06,0.159 -0.08,0.239l0,-1.132c0.208,-0.01 0.416,-0.04 0.624,-0.07m0,9.085l0,0.556c-0.317,-0.219 -0.505,-0.407 -0.624,-0.586l0,-1.668l0.02,0l0.159,0.477l0.059,0.307l0.099,0.566c0.069,0.129 0.168,0.248 0.287,0.348m0,1.112l0,0.347c-0.208,0.02 -0.416,0.04 -0.624,0.06l0,-0.328c0.208,-0.02 0.416,-0.049 0.624,-0.079m0,0.754l0,0.219c-0.208,0.02 -0.416,0.039 -0.624,0.059l0,-0.208c0.208,-0.02 0.416,-0.04 0.624,-0.07m0,0.675l0,0.934c-0.208,0.029 -0.416,0.039 -0.624,0.059l0,-0.933c0.208,-0.02 0.416,-0.04 0.624,-0.06m0,2.294l0,0.367c-0.208,0.02 -0.416,0.03 -0.624,0.05l0,-0.367l0.06,0l0.564,-0.05Zm0,1.211l0,1.112c-0.208,0.01 -0.416,0.02 -0.624,0.03l0,-1.102c0.208,-0.01 0.416,-0.02 0.624,-0.04m0,5.004l0,1.271c-0.208,0.02 -0.416,0.04 -0.624,0.049l0,-1.26c0.208,-0.01 0.416,-0.03 0.624,-0.06m-0.624,-13.125l0,-1.082l0.08,0.089l0.069,0.198l0.02,0.169l-0.01,0.159l-0.079,0.248c-0.03,0.07 -0.06,0.149 -0.08,0.219m0,-1.559l0,-1.082l0.08,0.099l0.069,0.189l0.02,0.178l-0.01,0.159l-0.079,0.248c-0.03,0.07 -0.05,0.139 -0.08,0.209m0,-1.469l0,-1.033l0.08,0.099l0.069,0.179l0.02,0.169l-0.01,0.159l-0.159,0.427Zm0,-1.738l0,-0.615l0.05,0.139l0.02,0.168l-0.02,0.149l-0.05,0.159Zm0,-26.181c-0.327,-0.03 -0.653,-0.04 -0.98,-0.04l0,1.37c0.327,0 0.653,0.01 0.98,0.05l0,-1.38Zm-0.98,55.043c0.346,-0.387 0.683,-0.784 0.98,-1.211l0,-2.284c-0.257,0.735 -0.584,1.43 -0.98,1.966l0,1.529Zm0.98,-51.181l0,0.973c-0.198,0.09 -0.396,0.129 -0.604,0.129c-0.129,0 -0.257,-0.01 -0.376,-0.039l0,-0.556l0.01,0c0.376,0 0.693,-0.169 0.97,-0.507m0,2.294l0,0.834c-0.049,-0.04 -0.119,-0.06 -0.188,-0.06c-0.198,0 -0.436,0.099 -0.723,0.278c0.406,0.516 0.604,1.003 0.604,1.479c0,0.388 -0.138,0.695 -0.406,0.944c-0.079,0.069 -0.168,0.129 -0.267,0.178l0,-1.181c0.02,-0.09 0.03,-0.179 0.03,-0.278c0,-0.119 -0.01,-0.238 -0.03,-0.348l0,-1.558c0.297,-0.199 0.574,-0.298 0.852,-0.298c0.029,0 0.069,0 0.128,0.01m0,4.805l0,1.112c-0.327,-0.02 -0.653,-0.04 -0.98,-0.04l0,-1.102c0.327,0 0.653,0.01 0.98,0.03m0,4.557l0,0.447c-0.099,0.069 -0.178,0.139 -0.228,0.228c0.07,0.09 0.149,0.189 0.228,0.298l0,0.457c-0.218,-0.646 -0.683,-0.894 -0.98,-1.112l0,-0.844c0.178,0.258 0.218,0.397 0.594,0.685c0.059,-0.06 0.228,-0.129 0.386,-0.159m0,1.469c-0.366,-0.278 -0.792,-0.416 -0.98,-0.575l0,0.248c0.188,0.208 0.663,0.377 0.98,0.874l0,-0.547Zm0,2.294l0,0.516c-0.069,-0.109 -0.148,-0.198 -0.247,-0.288c-0.288,0.05 -0.525,0.199 -0.733,0.417l0,-0.486c0.228,-0.139 0.455,-0.268 0.683,-0.427c0.099,0.089 0.198,0.179 0.297,0.268m0,2.224l0,0.476c-0.069,0.08 -0.128,0.159 -0.198,0.239c0.07,-0.01 0.129,-0.03 0.198,-0.05l0,0.228c-0.336,-0.029 -0.663,-0.049 -0.98,-0.049l0,-0.179c0.426,-0.069 0.762,-0.328 0.98,-0.665m0,1.509l0,0.199c-0.327,0.019 -0.653,0.039 -0.98,0.039l0,-0.228c0.327,0.01 0.653,0 0.98,-0.01m0,0.993l0,1.132c-0.039,0.089 -0.069,0.188 -0.109,0.288l0.089,0.099l0.02,0.04l0,0.615l-0.208,0.556l0.149,0.08l0.059,0.069l0,1.033l-0.109,0.297l0.05,0.02l0.059,0.07l0,1.082c-0.049,0.119 -0.099,0.238 -0.148,0.357l0.089,0.05l0.059,0.07l0,1.082c-0.049,0.119 -0.099,0.248 -0.148,0.377l0.148,0l0,1.668c-0.297,-0.437 -0.168,-0.784 -0.336,-1.241l-0.644,0l0,-0.407l0.287,0c0.119,-0.288 0.238,-0.576 0.347,-0.874c0.079,-0.258 0,-0.387 -0.228,-0.377l-0.406,0l0,-0.288l0.287,0c0.119,-0.288 0.238,-0.576 0.347,-0.874c0.079,-0.258 0,-0.387 -0.228,-0.377l-0.406,0l0,-0.248l0.317,0c0.109,-0.268 0.218,-0.546 0.317,-0.804c0.069,-0.239 0,-0.358 -0.208,-0.358l-0.426,0l0,-0.367l0.247,0c0.099,-0.248 0.198,-0.487 0.298,-0.735c0.059,-0.228 0,-0.327 -0.199,-0.327l-0.346,0l0,-0.338l0.376,0c0.188,-0.377 0.139,-0.635 0.565,-1.112c-0.317,0.03 -0.634,0.05 -0.941,0.05l0,-0.268c0.327,0 0.653,-0.01 0.98,-0.04m0,10.206l0,0.328c-0.327,0.02 -0.653,0.03 -0.98,0.03l0,-0.308c0.327,-0.01 0.653,-0.02 0.98,-0.05m0,0.745l0,0.208c-0.327,0.02 -0.653,0.03 -0.98,0.03l0,-0.198c0.327,0 0.653,-0.01 0.98,-0.04m0,0.665l0,0.933c-0.327,0.02 -0.653,0.03 -0.98,0.03l0,-0.933c0.327,0 0.653,-0.01 0.98,-0.03m0,2.284l0,0.367c-0.327,0.01 -0.653,0.03 -0.98,0.03l0,-0.368c0.327,0 0.653,-0.01 0.98,-0.029m0,1.201l0,1.102c-0.327,0.01 -0.653,0.02 -0.98,0.02l0,-1.102c0.327,0 0.653,-0.01 0.98,-0.02m0,5.024l0,1.26c-0.178,0.01 -0.346,0.02 -0.515,0.03c0.139,0.397 0.317,0.785 0.515,1.172l0,2.492c-0.119,-0.149 -0.228,-0.298 -0.346,-0.447c-0.228,-0.328 -0.446,-0.655 -0.634,-0.993l0,-3.475c0.327,0 0.653,-0.02 0.98,-0.039m-0.98,-40.21l0.109,0.109l0.495,-0.447l-0.495,-0.466l-0.109,0.099l0,0.705Zm0,-3.962c-0.357,0 -0.713,0.02 -1.06,0.05l0,1.38c0.347,-0.04 0.703,-0.06 1.06,-0.06l0,-1.37Zm-1.06,54.845c0.188,0.248 0.396,0.486 0.614,0.714c0.159,-0.149 0.307,-0.307 0.446,-0.476l0,-1.529c-0.109,0.159 -0.238,0.308 -0.367,0.447c-0.247,-0.268 -0.485,-0.606 -0.693,-0.973l0,1.817Zm1.06,-51.588l0,0.705l-0.367,-0.368l0.367,-0.337Zm0,1.152c-0.396,-0.01 -0.743,-0.179 -1.03,-0.537l-0.03,0.02l0,0.407c0.307,0.358 0.664,0.586 1.06,0.666l0,-0.556Zm0,2.075l0,1.558c-0.079,-0.387 -0.287,-0.754 -0.634,-1.092c-0.129,0.169 -0.277,0.318 -0.426,0.437l0,-0.834c0.228,-0.169 0.347,-0.387 0.347,-0.645c0,-0.169 -0.05,-0.298 -0.169,-0.387c-0.049,-0.04 -0.109,-0.07 -0.178,-0.1l0,-0.516c0.109,0.06 0.208,0.129 0.297,0.218c0.268,0.259 0.396,0.596 0.396,1.023c0,0.179 -0.039,0.338 -0.109,0.477l0.149,0.129c0.109,-0.1 0.228,-0.189 0.327,-0.268m0,2.184l0,1.181c-0.218,0.119 -0.485,0.179 -0.802,0.179c-0.09,0 -0.179,-0.01 -0.258,-0.02l0,-0.586l0.05,0c0.297,0 0.544,-0.099 0.742,-0.297c0.139,-0.139 0.218,-0.288 0.268,-0.457m0,2.303l0,1.102l-0.139,0c-0.307,0 -0.614,0.01 -0.921,0.03l0,-1.112c0.307,-0.01 0.614,-0.02 0.921,-0.02l0.139,0Zm0,4.061l0,0.844c-0.089,-0.06 -0.159,-0.119 -0.208,-0.179c-0.178,0.099 -0.565,0.417 -0.852,0.864l0,-0.238c0.03,-0.04 0.069,-0.09 0.099,-0.129c-0.03,-0.04 -0.069,-0.08 -0.099,-0.12l0,-0.585l0.05,0.039l0.128,0.1c0.297,-0.278 0.486,-0.457 0.743,-0.785c0.05,0.07 0.099,0.129 0.139,0.189m0,1.42c-0.02,-0.02 -0.03,-0.03 -0.04,-0.04c-0.208,0.089 -0.653,0.367 -1.02,0.754l0,0.705c0.287,-0.625 0.812,-1.082 1.03,-1.201c0.01,0.01 0.02,0.02 0.03,0.03l0,-0.248Zm0,3.028l0,0.486c-0.169,0.189 -0.327,0.427 -0.476,0.715c-0.089,0.516 -0.188,1.003 -0.168,1.479c0.238,0.06 0.456,0.07 0.644,0.05l0,0.179c-0.347,-0.01 -0.693,0 -1.06,0.01l0,-0.576c0.228,-0.526 0.277,-1.082 0,-1.519l0,-0.784c0.089,0.178 0.208,0.347 0.367,0.526c0.227,-0.249 0.465,-0.417 0.693,-0.566m0,3.584l0,0.228c-0.347,0 -0.703,-0.02 -1.06,-0.049l0,-0.239c0.357,0.04 0.713,0.06 1.06,0.06m0,1.023l0,0.268c-0.347,0 -0.703,-0.01 -1.06,-0.03l0,-0.288c0.347,0.03 0.703,0.05 1.06,0.05m0,1.33l0,0.338l-0.802,0c-0.179,0.019 -0.179,0.138 -0.149,0.278c0.069,0.258 0.149,0.516 0.228,0.784l0.723,0l0,0.367l-0.842,0c-0.188,0.02 -0.188,0.159 -0.168,0.308c0.089,0.288 0.168,0.566 0.257,0.844c0.248,0 0.505,0.01 0.753,0.01l0,0.248l-0.961,0c-0.04,0 -0.079,0.01 -0.099,0.03l0,-3.991c0.139,0.248 0.208,0.526 0.347,0.784l0.713,0Zm0,4.428l0,0.288l-0.961,0c-0.04,0 -0.079,0.01 -0.099,0.03l0,-1.013c0.059,0.228 0.129,0.457 0.198,0.685c0.287,0 0.575,0.01 0.862,0.01m0,1.539l0,0.407l-1.06,0l0,-1.102c0.059,0.228 0.129,0.457 0.198,0.685c0.287,0 0.575,0.01 0.862,0.01m0,2.919l0,0.308c-0.347,0 -0.703,-0.01 -1.06,-0.04l0,-0.298c0.357,0.03 0.713,0.03 1.06,0.03m0,0.735l0,0.198c-0.347,0 -0.703,-0.01 -1.06,-0.03l0,-0.198c0.357,0.02 0.713,0.03 1.06,0.03m0,0.655l0,0.933c-0.347,0.01 -0.713,0 -1.06,-0.02l0,-0.943c0.357,0.02 0.713,0.03 1.06,0.03m0,2.283l0,0.368c-0.347,0 -0.703,-0.01 -1.06,-0.02l0,-0.368c0.307,0.02 0.614,0.03 0.921,0.03c0.04,0 0.089,-0.01 0.139,-0.01m0,1.192l0,1.102c-0.347,0 -0.703,-0.01 -1.06,-0.02l0,-1.112c0.357,0.02 0.713,0.03 1.06,0.03m0,5.043l0,3.475c-0.099,-0.188 -0.208,-0.377 -0.297,-0.576c-0.228,0.437 -0.486,0.854 -0.763,1.261l0,-2.889c0,-0.01 0.01,-0.02 0.01,-0.03c0,-0.01 -0.01,-0.01 -0.01,-0.01l0,-1.26c0.307,0.019 0.614,0.029 0.921,0.029l0.139,0Zm-1.06,-44.161c-0.218,0.02 -0.416,0.04 -0.624,0.079l0,1.39c0.208,-0.039 0.406,-0.069 0.624,-0.089l0,-1.38Zm-0.624,53.951c0.188,0.288 0.396,0.576 0.624,0.844l0,-1.817c-0.238,-0.397 -0.446,-0.834 -0.624,-1.281l0,2.254Zm0.624,-50.109l0,0.407c-0.069,-0.079 -0.139,-0.168 -0.208,-0.268l0.208,-0.139Zm0,1.013l0,0.516c-0.089,-0.02 -0.198,-0.03 -0.317,-0.03c-0.099,0 -0.208,0.01 -0.307,0.02l0,-0.675c0.228,0.01 0.436,0.07 0.624,0.169m0,1.648l0,0.834c-0.129,0.089 -0.267,0.169 -0.416,0.238l-0.208,-0.466l0,-0.308c0.258,-0.08 0.466,-0.179 0.624,-0.298m0,2.869l0,0.586c-0.218,-0.02 -0.426,-0.069 -0.624,-0.159l0,-0.556c0.198,0.08 0.406,0.119 0.624,0.129m0,1.569l0,1.112c-0.208,0.01 -0.416,0.02 -0.624,0.04l0,-1.102c0.208,-0.02 0.416,-0.04 0.624,-0.05m0,4.498l0,0.585c-0.069,-0.069 -0.148,-0.119 -0.248,-0.159c0.09,0.169 -0.009,0.537 -0.099,0.944c0.099,-0.199 0.218,-0.378 0.347,-0.536l0,0.238c-0.208,0.318 -0.366,0.705 -0.386,1.122c0.109,-0.189 0.238,-0.358 0.386,-0.517l0,0.705c-0.228,0.477 -0.307,1.053 0,1.649l0,0.784c-0.139,-0.199 -0.337,-0.377 -0.624,-0.526l0,-0.278c0.06,0.02 0.139,0.049 0.218,0.069c-0.109,-0.457 -0.149,-0.903 -0.02,-1.36c0,-0.367 -0.029,-0.735 -0.198,-1.013l0,-0.943c0.099,-0.357 0.238,-0.874 0.218,-0.993l0.406,0.229Zm0,6.334l0,0.576c-0.158,0.01 -0.307,0.02 -0.465,0.029c-0.06,0 -0.109,0.01 -0.159,0.01l0,-0.238c0.109,0.06 0.238,0.09 0.367,0.09c0.099,-0.149 0.188,-0.308 0.257,-0.467m0,1.181l0,0.239c-0.208,-0.02 -0.416,-0.04 -0.624,-0.06l0,-0.248c0.208,0.03 0.416,0.049 0.624,0.069m0,1.033l0,0.288c-0.089,-0.01 -0.168,-0.01 -0.257,-0.02c0.109,0.099 0.188,0.208 0.257,0.328l0,3.991c-0.099,0.049 -0.089,0.169 -0.069,0.298c0.02,0.079 0.039,0.159 0.069,0.228l0,1.013c-0.099,0.049 -0.089,0.159 -0.069,0.298c0.02,0.079 0.039,0.148 0.069,0.228l0,1.102l-0.188,0c-0.178,0.377 0.03,0.973 -0.436,1.489l0,-1.658l0.099,-0.258l0.208,0c-0.079,-0.268 -0.158,-0.526 -0.228,-0.774c-0.019,-0.12 -0.029,-0.229 -0.019,-0.348l0.039,-0.159l0.089,-0.169l0.119,-0.099c-0.079,-0.258 -0.158,-0.526 -0.228,-0.784c-0.019,-0.119 -0.029,-0.219 -0.019,-0.338l0.039,-0.159l0.089,-0.168l0.149,-0.139l0.049,-0.02c-0.059,-0.209 -0.118,-0.417 -0.178,-0.616c-0.02,-0.119 -0.03,-0.208 -0.02,-0.327l0.04,-0.159l0.079,-0.159l0.149,-0.129c-0.07,-0.238 -0.129,-0.467 -0.198,-0.695c-0.02,-0.119 -0.02,-0.199 -0.02,-0.318l0.039,-0.149l0.09,-0.159l0.079,-0.079c-0.109,-0.258 -0.188,-0.536 -0.377,-0.755l-0.069,-0.069l0,-0.636c0.208,0.03 0.416,0.06 0.624,0.08m0,10.236l0,0.298c-0.208,-0.01 -0.416,-0.03 -0.624,-0.06l0,-0.278c0.208,0.02 0.416,0.03 0.624,0.04m0,0.735l0,0.198c-0.208,-0.01 -0.416,-0.029 -0.624,-0.049l0,-0.209c0.208,0.02 0.416,0.04 0.624,0.06m0,0.655l0,0.943c-0.208,-0.01 -0.416,-0.02 -0.624,-0.04l0,-0.963c0.208,0.02 0.416,0.04 0.624,0.06m0,2.293l0,0.368c-0.208,-0.01 -0.416,-0.02 -0.624,-0.04l0,-0.357c0.119,0.01 0.238,0.02 0.357,0.02c0.089,0.009 0.178,0.009 0.267,0.009m0,1.182l0,1.112c-0.208,-0.01 -0.416,-0.02 -0.624,-0.04l0,-1.102c0.208,0.01 0.416,0.03 0.624,0.03m0,5.044l0,1.26c-0.208,-0.01 -0.416,-0.019 -0.624,-0.039l0,-1.271c0.208,0.02 0.416,0.04 0.624,0.05m0,1.3l0,2.889c-0.04,0.04 -0.069,0.09 -0.099,0.129c-0.168,0.239 -0.347,0.457 -0.525,0.675l0,-2.382c0.238,-0.427 0.446,-0.864 0.624,-1.311m-0.624,-45.353c-0.178,0.02 -0.366,0.06 -0.545,0.09l0,1.41c0.179,-0.05 0.357,-0.08 0.545,-0.11l0,-1.39Zm-0.545,52.998c0.169,0.298 0.347,0.596 0.545,0.874l0,-2.254c-0.218,-0.506 -0.396,-1.043 -0.545,-1.529l0,2.909Zm0.545,-48.391l0,0.675c-0.178,0.03 -0.356,0.09 -0.545,0.159l0,-0.804c0.139,-0.02 0.288,-0.04 0.426,-0.04c0.04,0 0.08,0.01 0.119,0.01m0,2.115l0,0.308l-0.119,-0.268c0.04,-0.01 0.08,-0.03 0.119,-0.04m0,2.442l0,0.556c-0.188,-0.079 -0.366,-0.178 -0.545,-0.307l0,-0.586c0.179,0.149 0.357,0.258 0.545,0.337m0,1.748l0,1.102c-0.178,0.02 -0.366,0.039 -0.545,0.059l0,-1.102c0.179,-0.03 0.367,-0.049 0.545,-0.059m0,5.212l0,0.943c-0.079,-0.119 -0.198,-0.218 -0.346,-0.288c0.128,0.249 -0.149,0.904 -0.199,1.519l0,-2.124l0.476,0.218c0.01,-0.059 0.039,-0.159 0.069,-0.268m0,3.247l0,0.278c-0.158,-0.07 -0.337,-0.139 -0.545,-0.199l0,-0.854c0.03,0.328 0.169,0.616 0.545,0.775m0,2.7l0,0.238c-0.228,0.04 -0.426,0.139 -0.545,0.269l0,-0.556l0.01,0l-0.01,0l0,-0.427c0.149,0.208 0.337,0.377 0.545,0.476m0,0.735l0,0.248c-0.178,-0.03 -0.356,-0.06 -0.545,-0.089l0,-0.249c0.179,0.04 0.367,0.06 0.545,0.09m0,1.022l0,0.636l-0.228,-0.228c-0.109,-0.01 -0.208,-0.03 -0.317,-0.05l0,-0.447c0.179,0.03 0.367,0.06 0.545,0.089m0,7.665l0,1.658c-0.129,0.139 -0.297,0.268 -0.545,0.387l0,-0.516l0.149,-0.109c0.069,-0.089 0.119,-0.149 0.168,-0.248c0.08,-0.229 0.08,-0.447 0.099,-0.675l0.06,-0.318l0.069,-0.179Zm0,2.611l0,0.278c-0.178,-0.02 -0.356,-0.039 -0.545,-0.059l0,-0.288c0.189,0.03 0.367,0.049 0.545,0.069m0,0.715l0,0.209c-0.178,-0.01 -0.356,-0.03 -0.545,-0.06l0,-0.228c0.189,0.029 0.367,0.049 0.545,0.079m0,0.655l0,0.963c-0.178,-0.019 -0.366,-0.029 -0.545,-0.059l0,-0.973c0.189,0.03 0.367,0.05 0.545,0.069m0,2.324l0,0.357c-0.188,-0.01 -0.366,-0.03 -0.545,-0.04l0,-0.367c0.189,0.02 0.367,0.04 0.545,0.05m0,1.181l0,1.102c-0.178,-0.01 -0.366,-0.02 -0.545,-0.03l0,-1.112c0.189,0.01 0.367,0.03 0.545,0.04m0,5.024l0,1.271c-0.178,-0.02 -0.366,-0.04 -0.545,-0.06l0,-1.271c0.179,0.03 0.367,0.05 0.545,0.06m0,2.661l0,2.382c-0.178,0.199 -0.356,0.398 -0.545,0.586l0,-2.124c0.199,-0.278 0.377,-0.556 0.545,-0.844m-0.545,-46.574c-0.059,0.02 -0.118,0.03 -0.178,0.039l0,1.41c0.06,-0.01 0.119,-0.029 0.178,-0.039l0,-1.41Zm-0.178,52.57c0.06,0.11 0.119,0.229 0.178,0.338l0,-2.909c-0.029,-0.119 -0.059,-0.238 -0.099,-0.348c0.04,-0.039 0.07,-0.069 0.099,-0.109l0,-2.124c-0.009,0.019 -0.029,0.039 -0.039,0.059c-0.05,0.07 -0.089,0.129 -0.139,0.189l0,4.904Zm0.178,-48.023l0,0.804c-0.059,0.03 -0.118,0.06 -0.178,0.09l0,-0.844c0.06,-0.02 0.119,-0.03 0.178,-0.05m0,4.19l0,0.586c-0.059,-0.05 -0.118,-0.1 -0.178,-0.159l0,-0.596c0.06,0.06 0.119,0.119 0.178,0.169m0,2.144l0,1.102c-0.059,0.01 -0.118,0.02 -0.178,0.03l0,-1.112c0.06,-0.01 0.119,-0.02 0.178,-0.02m0,5.203l0,3.276l-0.019,0c-0.06,0.05 -0.109,0.109 -0.159,0.179l0,-2.691c0.01,-0.04 0.01,-0.079 0,-0.119l0.069,-0.695l0.109,0.05Zm0,5.421l0,0.427c-0.059,-0.08 -0.118,-0.159 -0.178,-0.239l0,-0.516c0.05,0.109 0.109,0.228 0.178,0.328m0,0.427c-0.059,-0.02 -0.118,-0.04 -0.178,-0.06l0,0.973c0.06,0.01 0.119,0.02 0.178,0.03l0,-0.249c-0.019,0 -0.049,-0.009 -0.079,-0.009c0.02,-0.05 0.05,-0.09 0.079,-0.129l0,-0.556Zm0,1.717l0,0.447c-0.059,-0.01 -0.118,-0.02 -0.178,-0.04l0,-0.447c0.06,0.01 0.119,0.03 0.178,0.04m0,9.283l0,0.516c-0.049,0.03 -0.109,0.06 -0.178,0.09l0,-0.487l0.079,-0.039l0.099,-0.08Zm0,1.013l0,0.288c-0.059,-0.01 -0.118,-0.02 -0.178,-0.03l0,-0.278c0.06,0.01 0.119,0.02 0.178,0.02m0,0.705l0,0.228c-0.059,-0.01 -0.118,-0.01 -0.178,-0.02l0,-0.238c0.06,0.01 0.119,0.02 0.178,0.03m0,0.665l0,0.973c-0.059,0 -0.118,-0.01 -0.178,-0.02l0,-0.973c0.06,0.01 0.119,0.02 0.178,0.02m0,2.343l0,0.367c-0.059,-0.01 -0.118,-0.019 -0.178,-0.019l0,-0.368c0.06,0.01 0.119,0.02 0.178,0.02m0,1.191l0,1.112c-0.059,-0.01 -0.118,-0.019 -0.178,-0.019l0,-1.112c0.06,0.01 0.119,0.01 0.178,0.019m0,5.004l0,1.271c-0.059,-0.01 -0.118,-0.01 -0.178,-0.02l0,-1.271c0.06,0.01 0.119,0.01 0.178,0.02m-0.178,-43.814c-0.307,0.07 -0.604,0.149 -0.901,0.239l0,1.449c0.297,-0.109 0.594,-0.198 0.901,-0.278l0,-1.41Zm-0.901,50.476c0.02,-0.01 0.04,-0.03 0.059,-0.039c0.218,0.734 0.505,1.429 0.842,2.094l0,-4.904c-0.277,0.367 -0.584,0.715 -0.901,1.032l0,1.817Zm0.901,-45.918l0,0.844c0,0 -0.01,0 -0.01,0.009l-0.327,-0.734c0.109,-0.05 0.228,-0.09 0.337,-0.119m0,3.971l0,0.596c-0.089,-0.08 -0.178,-0.169 -0.267,-0.268c-0.268,-0.308 -0.486,-0.656 -0.634,-1.033l0,-1.172c0.139,0.725 0.406,1.311 0.812,1.778c0.03,0.029 0.059,0.069 0.089,0.099m0,2.333l0,1.112c-0.307,0.04 -0.604,0.099 -0.901,0.159l0,-1.132c0.297,-0.05 0.594,-0.099 0.901,-0.139m0,5.947l0,2.691c-0.277,0.407 -0.247,1.082 0,1.638l0,0.516c-0.307,-0.417 -0.545,-0.903 -0.594,-1.559c-0.089,-0.148 -0.198,-0.278 -0.307,-0.397l0,-0.556c0.02,0.02 0.03,0.03 0.049,0.04c0.129,0.119 0.238,0.228 0.347,0.357c0.069,-0.188 0.168,-0.347 0.297,-0.506l0.129,-0.109c-0.238,-0.447 -0.139,-1.023 -0.04,-1.499c0.04,-0.189 0.08,-0.368 0.109,-0.556c0,-0.02 0.01,-0.04 0.01,-0.06m0,5.024c-0.346,-0.119 -0.653,-0.288 -0.901,-0.496l0,0.367c0.04,0.02 0.079,0.05 0.119,0.079c-0.04,-0.01 -0.079,-0.02 -0.119,-0.029l0,0.337l0.594,0.139c-0.535,0.278 -0.287,1.092 -0.436,1.638c0.248,0.05 0.496,0.1 0.743,0.149l0,-0.447c-0.079,-0.01 -0.158,-0.029 -0.238,-0.049l0,-0.755c0.08,0.01 0.159,0.03 0.238,0.04l0,-0.973Zm0,11.179l0,0.487c-0.049,0.02 -0.089,0.03 -0.138,0.049c-0.169,0.1 -0.199,0.199 -0.09,0.308c0.07,0.01 0.149,0.02 0.228,0.03l0,0.278c-0.228,-0.04 -0.446,-0.07 -0.673,-0.119c-0.228,0.059 -0.258,0.188 -0.109,0.387c0.257,0.06 0.525,0.109 0.782,0.149l0,0.238c-0.297,-0.039 -0.604,-0.089 -0.901,-0.149l0,-0.993l0.119,-0.039l0.079,-0.169l0.089,-0.119l0.218,-0.169l0.297,-0.119l0.099,-0.05Zm0,2.244l0,0.973c-0.307,-0.04 -0.604,-0.089 -0.901,-0.149l0,-0.993c0.297,0.07 0.604,0.119 0.901,0.169m0,2.343l0,0.368c-0.307,-0.04 -0.614,-0.08 -0.901,-0.13l0,-0.367c0.267,0.05 0.545,0.089 0.822,0.129l0.079,0Zm0,1.192l0,1.112c-0.307,-0.03 -0.604,-0.06 -0.901,-0.1l0,-1.122c0.297,0.05 0.604,0.08 0.901,0.11m0,5.003l0,1.271c-0.307,-0.039 -0.604,-0.089 -0.901,-0.149l0,-1.28c0.297,0.059 0.594,0.109 0.901,0.158m-0.901,-43.555c-3.655,1.142 -6.517,4.11 -7.507,7.823c-0.02,-0.01 -0.03,-0.02 -0.04,-0.029l0,6.284c0.03,0.03 0.069,0.05 0.109,0.08c-0.04,0.029 -0.079,0.059 -0.109,0.089l0,1.44c2.1,-1.887 4.685,-3.217 7.547,-3.793l0,-1.132c-2.248,0.427 -4.348,1.291 -6.19,2.502c-0.218,-0.814 -0.337,-1.658 -0.337,-2.532c0,-4.269 2.724,-7.913 6.527,-9.283l0,-1.449Zm-7.547,52.61c2.684,0.149 5.378,-0.675 7.547,-2.373l0,-1.817c-2.03,2.006 -4.803,2.989 -7.547,2.82l0,1.37Zm7.547,-46.197l0,1.172c-0.159,-0.387 -0.258,-0.804 -0.297,-1.261l0.267,-0.069c0.01,0.049 0.02,0.109 0.03,0.158m0,12.49l0,0.556c-0.327,-0.327 -0.703,-0.516 -1.09,-0.526c0.129,0.914 0.466,1.658 1.09,2.165l0,0.367c-0.614,-0.427 -1.04,-1.062 -1.198,-1.926c-0.367,-0.338 -0.723,-0.497 -1.08,-0.477c0.644,0.715 0.901,2.105 2.278,2.453l0,0.337l-0.139,-0.03c-0.158,-0.049 -0.297,-0.089 -0.436,-0.149c-0.128,-0.069 -0.247,-0.139 -0.376,-0.218c-0.109,-0.079 -0.208,-0.169 -0.307,-0.258c-0.188,-0.189 -0.337,-0.377 -0.485,-0.586c-0.089,-0.129 -0.169,-0.268 -0.248,-0.397c-0.178,-0.318 -0.346,-0.636 -0.574,-0.923l-0.585,-0.676l0.981,-0.019c0.228,0.029 0.446,0.089 0.644,0.198l-0.05,-0.357l0.585,0.039c0.128,0.02 0.247,0.04 0.376,0.08c0.119,0.05 0.228,0.099 0.346,0.169c0.09,0.049 0.179,0.109 0.268,0.178m0,14.535l0,0.993c-0.089,-0.02 -0.168,-0.03 -0.258,-0.049c-0.356,0.01 -0.435,0.139 -0.257,0.357c0.168,0.04 0.337,0.08 0.515,0.109l0,0.993c-0.327,-0.059 -0.654,-0.139 -0.961,-0.218c-0.634,0.208 -1,0.526 -1.178,0.933c0.208,0.109 0.416,0.199 0.614,0.308l0.059,0.02l0.575,0.168l0.633,0.139c0.09,0.01 0.169,0.03 0.258,0.04l0,0.367c-1.07,-0.178 -1.971,-0.446 -2.496,-0.804c-0.495,-0.059 -0.921,0.08 -1.347,0.239c-0.267,0.188 -0.277,0.397 0,0.585c1.268,0.388 2.555,0.656 3.843,0.824l0,1.122c-1.317,-0.159 -2.555,-0.417 -3.615,-0.754c-1.258,0.248 -3.427,0.248 -3.932,0.715l0,-0.666c1.258,-0.168 2.763,-0.149 3.06,-0.476c-0.217,-0.516 -0.118,-1.35 0.337,-1.668c0.495,-0.189 1,-0.358 1.545,-0.308c0.169,-0.347 0.416,-0.606 0.733,-0.824c0.188,-0.109 0.376,-0.209 0.584,-0.288l0.258,-0.089l0.188,0.029l-0.188,-0.268l-0.069,-0.188l-0.03,-0.248l0.109,-0.259l0.188,-0.158c0.109,-0.06 0.228,-0.11 0.357,-0.12l0.009,-0.109l0.099,-0.198l0.149,-0.139l0.149,-0.09l0.069,-0.02Zm0,9.959c-2.872,-0.586 -5.467,-1.946 -7.547,-3.853l0,1.658c2.149,1.728 4.734,2.949 7.547,3.475l0,-1.28Zm-7.547,1.678l0,-0.04l0.01,-0.01c-0.01,0.01 -0.01,0.03 -0.01,0.05m0,-37.281c-0.733,-0.556 -1.495,-1.013 -2.288,-1.39l0,1.211c0.753,0.437 1.476,0.953 2.07,1.439c-0.079,0.547 -0.129,1.112 -0.129,1.678c0,0.556 0.04,1.102 0.119,1.638c-0.534,-0.277 -1.099,-0.516 -1.683,-0.704c-0.129,-0.05 -0.248,-0.08 -0.377,-0.12l0,1.43c0.822,0.268 1.585,0.645 2.288,1.102l0,-6.284Zm-2.288,44.459c0.753,0.198 1.516,0.317 2.288,0.357l0,-1.37c-0.772,-0.05 -1.535,-0.189 -2.288,-0.417l0,1.43Zm2.288,-38.006l0,1.44c-0.852,0.754 -1.614,1.598 -2.288,2.511l0,-1.757c0.694,-0.794 1.456,-1.539 2.288,-2.194m0,24.612l0,0.666c-0.01,0.009 -0.01,0.009 -0.02,0.009c0.01,0.01 0.01,0.01 0.02,0.01l0,1.658c-0.832,-0.655 -1.594,-1.399 -2.288,-2.194l0,-1.767c0.456,0.626 0.961,1.221 1.496,1.767c0.238,-0.059 0.505,-0.109 0.792,-0.149m0,6.176l0,0.04c-0.059,0.268 -0.109,0.446 -0.139,0.526c-0.138,0.397 -0.366,0.744 -0.663,1.052c-0.426,0.427 -0.921,0.695 -1.486,0.794l0,-0.873c0.684,0 1.268,-0.239 1.743,-0.715l0.545,-0.824Zm-2.288,0.159l0.297,-0.815l1.219,0.03l-0.971,-0.754l0.416,-1.152l-0.961,0.655l0,2.036Zm0,-38.79c-0.911,-0.417 -1.872,-0.725 -2.872,-0.924c-0.307,1.887 -0.238,3.773 0.485,5.649c-1.208,-0.069 -2.406,0.05 -3.555,0.358l0,1.43c1.862,-0.576 3.912,-0.596 5.903,0.049c0.01,0 0.029,0.01 0.039,0.01l0,-1.43c-0.346,-0.099 -0.703,-0.188 -1.049,-0.248c-0.634,-1.42 -1.189,-3.197 -0.971,-4.507c0.634,0.129 1.337,0.437 2.02,0.824l0,-1.211Zm-5.942,41.887c0.634,0.824 1.396,1.569 2.268,2.204c1.139,0.834 2.387,1.41 3.674,1.758l0,-1.43c-1,-0.308 -1.971,-0.784 -2.872,-1.44c-1.357,-0.992 -2.387,-2.263 -3.07,-3.683l0,2.591Zm5.942,-31.85l0,1.757c-1.961,2.681 -3.11,5.977 -3.11,9.522c0,3.554 1.149,6.85 3.11,9.521l0,1.767c-1.357,-1.568 -2.436,-3.385 -3.159,-5.361c-0.703,0.546 -1.337,1.201 -1.882,1.956c-0.356,0.476 -0.653,0.983 -0.901,1.499l0,-2.591c0.307,-0.387 0.634,-0.755 0.971,-1.092c-0.317,-0.06 -0.644,-0.129 -0.971,-0.219l0,-1.42c0.772,0.229 1.555,0.368 2.318,0.407c-0.377,-1.429 -0.585,-2.918 -0.585,-4.467c0,-4.299 1.585,-8.251 4.209,-11.279m0,26.717l0,2.036l-0.119,0.337l-0.356,-1.181l-1.218,-0.04l1.01,-0.685l-0.337,-1.182l0.971,0.755l0.049,-0.04Zm0,3.416l0,0.873c-0.168,0.03 -0.346,0.05 -0.534,0.05c-0.783,0 -1.456,-0.288 -2.011,-0.844c-0.565,-0.566 -0.842,-1.241 -0.842,-2.025c0,-0.795 0.287,-1.47 0.852,-2.036c0.416,-0.417 0.951,-0.685 1.614,-0.804l-0.812,0.546c-0.485,0.487 -0.733,1.073 -0.733,1.758c0,0.685 0.248,1.27 0.723,1.757c0.476,0.476 1.06,0.715 1.743,0.725m-5.942,-25.814l0.485,0c0.01,0.109 0.109,0.199 0.228,0.199c0.119,0 0.218,-0.09 0.228,-0.219c0.386,-0.079 0.386,-0.745 0,-0.834c-0.01,-0.119 -0.109,-0.218 -0.228,-0.218c-0.119,0 -0.218,0.099 -0.228,0.208l-0.485,0l0,0.864Zm0,-9.273c-0.792,0.208 -1.565,0.506 -2.288,0.883l0,1.579c0.713,-0.437 1.486,-0.784 2.288,-1.032l0,-1.43Zm-2.288,25.784c0.238,0.01 0.476,0 0.723,-0.01c-0.386,0.973 -0.624,1.976 -0.723,2.998l0,2.254c0.208,2.075 0.981,4.09 2.288,5.778l0,-2.591c-1.278,-2.671 -1.327,-5.848 0,-8.598l0,-2.591c-0.069,0.099 -0.139,0.188 -0.208,0.288c-0.297,0.397 -0.555,0.814 -0.782,1.241c-0.416,0.039 -0.862,0.069 -1.298,0.079l0,1.152Zm2.288,-17.375l0,0.864l-0.951,0l0,3.415c0.099,0.02 0.178,0.11 0.178,0.219c0,0.119 -0.079,0.208 -0.188,0.228c-0.119,0.516 -0.772,0.516 -0.881,0c-0.109,-0.02 -0.198,-0.109 -0.198,-0.228c0,-0.109 0.079,-0.199 0.188,-0.219l0,-3.415l-0.436,0l0,-0.864l0.436,0l0,-1.459c-0.109,-0.03 -0.188,-0.119 -0.188,-0.229c0,-0.119 0.089,-0.218 0.198,-0.228c0.129,-0.477 0.762,-0.496 0.871,0c0.109,0.01 0.198,0.109 0.198,0.228c0,0.11 -0.079,0.199 -0.178,0.229l0,1.459l0.951,0Zm0,11.884l0,1.42c-0.198,-0.049 -0.406,-0.109 -0.604,-0.179c-0.545,-0.178 -1.07,-0.387 -1.565,-0.635c-0.04,0.02 -0.079,0.05 -0.119,0.079l0,-1.717c0.644,0.397 1.347,0.725 2.1,0.973c0.069,0.02 0.129,0.04 0.188,0.059m-2.288,-19.41c-2.535,1.311 -4.566,3.585 -5.516,6.504c-0.347,1.082 -0.525,2.194 -0.545,3.276l0,0.337c0.05,3.724 1.961,7.228 5.1,9.274c-1.634,1.112 -2.882,2.541 -3.813,4.219c1.486,0.765 3.061,1.251 4.774,1.291l0,-1.152c-1.188,0.03 -2.406,-0.099 -3.268,-0.546c0.634,-1.142 2.07,-2.323 3.268,-3.108l0,-1.717c-3.783,-2.333 -5.645,-7.039 -4.219,-11.448c0.753,-2.323 2.288,-4.169 4.219,-5.351l0,-1.579Zm0,27.889c-0.079,0.745 -0.079,1.509 0,2.254l0,-2.254Zm0,-20.363l0,0.864l-1,0c-0.01,0.109 -0.109,0.199 -0.228,0.199c-0.129,0 -0.228,-0.09 -0.228,-0.209c-0.376,-0.089 -0.406,-0.764 0,-0.844c0,-0.119 0.099,-0.218 0.228,-0.218c0.119,0 0.218,0.099 0.228,0.208l1,0Z" style="fill:#90ddff;fill-rule:nonzero;"/></svg>