<?xml version="1.0" encoding="UTF-8" standalone="no"?><!DOCTYPE svg PUBLIC "-//W3C//DTD SVG 1.1//EN" "http://www.w3.org/Graphics/SVG/1.1/DTD/svg11.dtd"><svg width="100%" height="100%" viewBox="0 0 2695 153" version="1.1" xmlns="http://www.w3.org/2000/svg" xmlns:xlink="http://www.w3.org/1999/xlink" xml:space="preserve" xmlns:serif="http://www.serif.com/" style="fill-rule:evenodd;clip-rule:evenodd;stroke-linejoin:round;stroke-miterlimit:1.41421;"><path d="M1254.58,84.271c5,0.416 8.75,-1.25 11.667,-5.417c1.667,-2.5 3.333,-5.417 5.417,-7.5c2.5,-2.917 5.833,-5 9.583,-2.083c3.75,2.916 0.833,5.833 -0.417,8.333c-0.416,1.25 -1.666,2.083 -2.5,3.333c-1.25,1.25 -2.5,2.917 -0.833,4.584c1.667,2.083 4.167,1.25 6.25,0c3.333,-2.917 6.667,-6.25 10,-9.167c2.083,-1.667 3.75,-3.75 6.25,-5c2.083,-1.25 4.583,-3.75 7.083,-0.417c1.667,2.084 2.084,4.167 0.834,6.25c-4.584,7.917 -9.167,16.667 -19.167,17.5c-6.667,0.834 -10.417,4.584 -14.583,8.75c-14.584,14.584 -31.667,26.667 -43.75,43.75c-0.417,0.417 -0.417,0.834 -0.834,0.834c-2.5,2.5 -5.833,6.25 -9.166,2.5c-2.917,-3.334 1.666,-5.417 3.333,-7.5c12.917,-13.334 25.833,-26.25 39.167,-39.167c2.083,-2.083 4.583,-4.583 6.25,-7.083c1.25,-1.667 1.25,-3.334 0.416,-5c-0.833,-1.667 -2.916,-2.084 -4.583,-1.667c-8.333,2.917 -16.25,3.75 -24.167,-2.5c-2.5,-2.083 -5.833,-0.833 -8.75,0.833c-2.5,1.25 -4.583,0.417 -5.833,-1.25c-2.083,-2.916 -0.417,-5 1.25,-7.083c10.417,-11.25 20.417,-22.5 31.25,-33.333c10.833,-10.834 20.417,-22.5 28.75,-35.834c1.25,-2.083 2.5,-3.75 4.167,-5.416c1.25,-1.25 2.916,-2.917 4.583,-1.667c2.5,1.25 2.083,3.75 0.833,5.833c-4.583,6.667 -8.75,13.75 -13.75,20c-8.75,10.417 -17.5,20.417 -26.666,30.417c-4.584,5 -6.667,10 -7.917,16.667c-2.083,6.25 0.833,7.083 5.833,7.5Z" style="fill:#f4b6d1;fill-rule:nonzero;"/><path d="M872.917,94.687c-4.167,0 -8.334,0.417 -12.084,0c-4.583,-0.416 -7.083,-3.333 -6.666,-8.333c0.416,-5 3.75,-5 7.5,-5.417c4.166,-0.416 7.916,1.25 11.666,2.917c9.584,4.167 30.417,0 37.917,-7.083c3.75,-3.75 1.25,-6.667 -1.25,-8.75c-7.5,-6.25 -16.667,-10.417 -25.417,-15c-7.083,-3.334 -11.25,-7.917 -11.25,-16.667c0,-9.583 5,-14.167 12.084,-17.5c14.166,-7.5 29.583,-12.083 45.416,-16.25c7.917,-2.083 15.834,-2.917 23.75,-2.5c3.334,0 7.084,0.833 6.667,4.583c0,2.917 -3.333,3.75 -6.25,3.75c-20.833,-0.833 -39.583,5.417 -58.333,13.334c-2.084,0.833 -4.167,1.666 -6.25,2.5c-14.167,7.5 -14.584,13.75 -1.25,22.5c6.666,4.166 13.75,8.333 20.833,12.083c5.833,3.333 9.583,7.5 9.583,15c0,7.5 -5,10 -10,12.917c-11.666,5.416 -22.916,7.916 -36.666,7.916Z" style="fill:#f4b6d1;fill-rule:nonzero;"/><path d="M1139.17,3.021c4.583,0 6.666,-0.417 8.333,0c5,1.25 4.583,5 3.333,8.333c-1.25,4.167 -3.75,4.583 -7.083,1.25c-2.5,-2.5 -5.833,-2.5 -8.75,-1.667c-12.5,2.917 -25,7.5 -36.667,12.917c-1.25,0.417 -2.5,1.25 -3.75,2.083c-10.833,7.5 -11.25,14.584 0,21.667c7.917,4.583 15.417,9.583 21.25,16.25c8.334,9.167 6.667,19.583 -4.166,25.417c-6.25,3.333 -13.334,4.583 -20.417,5.833c-5,0.833 -10,-1.25 -13.75,-4.167c-2.917,-2.083 -3.333,-5.416 -1.667,-8.333c1.667,-2.917 4.584,-2.5 7.084,-0.833c5.833,3.75 12.083,3.333 18.333,2.916c5.833,0 10.833,-2.5 12.917,-7.916c1.666,-5.417 -3.334,-7.5 -6.667,-10.417c-5,-4.583 -10.417,-8.75 -16.667,-11.667c-14.166,-6.666 -15.416,-27.916 1.25,-35c13.75,-5.833 27.5,-10.416 41.25,-15.833c3.334,-1.25 6.25,-0.833 5.834,-0.833Z" style="fill:#f4b6d1;fill-rule:nonzero;"/><path d="M1467.92,73.021c-6.25,3.75 -5.417,10 -5.417,16.25c-0.833,-0.834 -2.083,-1.667 -2.5,-2.917c-0.417,-4.167 0,-8.75 -6.25,-3.75c-5.833,4.583 -13.75,6.25 -20.417,9.583c-4.583,2.5 -8.75,0.417 -12.916,0c-3.334,-0.416 -4.167,-3.333 -2.917,-6.25c0.833,-2.083 2.083,-4.166 5,-2.916c10.833,4.583 18.75,-2.917 27.5,-7.5c6.667,-3.334 6.667,-7.5 1.25,-12.917c-4.583,-4.167 -10,-7.5 -14.583,-11.667c-10.834,-10.416 -9.167,-22.083 4.583,-27.5c12.083,-4.583 24.167,-9.583 37.083,-10.833c2.917,-0.417 5,-0.417 7.5,0.833c3.334,1.667 5,3.75 3.334,7.5c-1.25,2.917 -3.75,5.417 -7.5,2.917c-2.084,-1.667 -3.75,-3.333 -7.084,-2.5c-10,3.333 -20.833,5.417 -30.416,9.167c-10,4.166 -10.417,8.333 -2.5,15.416c2.5,2.5 5.833,4.167 8.75,6.25c5.833,4.584 12.5,8.75 12.5,17.917c0,2.917 2.916,2.917 5,2.917Z" style="fill:#f4b6d1;fill-rule:nonzero;"/><path d="M956.667,91.354c0.416,-0.833 0.833,-2.917 1.666,-5c0.417,-1.25 0.834,-2.5 -0.416,-3.75c-1.667,-1.25 -3.334,-0.417 -4.584,0.833c-4.166,2.917 -8.75,6.25 -13.333,9.167c-2.5,1.667 -5.417,3.333 -8.75,2.083c-1.25,-0.416 -2.083,-1.666 -2.917,-2.5c-0.833,-1.25 0,-2.916 1.25,-3.333c12.5,-2.917 19.584,-13.75 30,-20c2.5,-1.667 5,-4.583 8.334,-1.667c2.916,2.5 2.5,5.417 1.25,8.75c-1.667,4.167 -2.917,8.334 -4.167,12.5c-0.417,1.667 -0.417,3.75 1.25,5c1.667,1.25 3.333,0 5,-0.833c6.25,-3.75 11.667,-7.917 16.667,-13.333c1.666,-1.667 3.333,-3.334 4.583,-4.584c2.917,-2.916 6.25,-6.666 10,-4.583c4.583,2.5 2.5,6.667 1.25,10.833c-1.667,4.584 -1.25,9.167 5.417,9.167c1.666,0 3.75,0.417 3.75,2.917c0,2.083 -1.25,3.333 -2.917,4.166c-5.833,2.917 -9.167,1.667 -13.333,-6.25c-2.5,-5 -4.167,-6.25 -8.334,-1.666c-5,6.25 -12.083,9.166 -19.166,12.083c-8.75,2.917 -12.917,0.417 -12.5,-10Z" style="fill:#f4b6d1;fill-rule:nonzero;"/><path d="M1338.75,94.687c-5,-0.833 -10,0 -14.167,2.917c-4.166,2.5 -7.083,2.5 -10.833,-1.25c-3.75,-4.167 -1.25,-7.917 0.833,-10.833c5.417,-7.917 12.084,-14.167 22.084,-16.25c3.333,-0.834 5.416,-0.417 6.25,2.5c0.833,2.916 -1.667,3.333 -4.167,3.75c-5.833,1.25 -10.417,4.583 -14.583,9.166c-0.834,0.834 -0.834,2.084 -1.25,3.334c1.25,0.416 2.5,0.833 3.75,0.416c2.5,-0.833 5.416,-1.666 7.083,-3.333c6.667,-7.083 10.833,1.25 16.25,2.5c2.5,0.417 0.417,3.75 -1.25,5c-2.917,3.333 -6.667,2.083 -10,2.083Z" style="fill:#f4b6d1;fill-rule:nonzero;"/><path d="M1318.33,16.354c0.417,0 1.667,0 2.5,0c3.334,0.833 8.334,1.25 7.917,5.417c0,4.166 -5,2.916 -7.5,2.916c-8.333,0 -16.25,0.417 -22.917,5.834c-2.083,1.25 -4.166,2.5 -5.416,0c-1.25,-2.084 -0.417,-4.584 1.666,-6.25c2.917,-2.5 6.667,-5 10.834,-5c4.166,-0.417 7.916,-3.75 12.916,-2.917Z" style="fill:#f4b6d1;fill-rule:nonzero;"/><path d="M1832.92,92.187c-0.834,-0.416 -1.667,-1.25 -2.084,-1.666c-2.5,-11.667 -2.5,-11.667 -12.5,-4.167c-1.25,0.833 -2.083,2.083 -3.333,2.083c-2.917,0.834 -6.667,2.5 -8.333,-1.25c-1.25,-2.916 1.666,-5 3.75,-6.25c5,-2.916 8.75,-7.916 15.416,-7.916c3.75,0 4.584,-2.5 4.584,-5.417c-8.334,-5.417 -14.584,0.417 -20.834,4.167c-4.166,2.5 -7.5,4.583 -11.666,1.25c-1.667,5.416 -8.75,0.416 -10.834,5.416c2.5,0 5.417,0.417 7.917,0.417c4.167,0 5,1.25 4.167,5.833c-2.5,12.084 1.25,15.417 13.333,12.084c6.25,-1.667 10.833,-2.5 15.833,2.5c2.5,2.5 7.084,6.666 10.417,1.666c3.75,-5.833 -5,-5 -5.833,-8.75Z" style="fill:#f4b6d1;fill-rule:nonzero;"/><path d="M1565,35.521c-1.25,2.916 -2.917,5 -5.833,4.166c-2.5,-0.416 -4.584,-2.916 -3.75,-5.833c0.833,-2.083 2.5,-4.167 5,-3.75c2.5,0.833 4.583,2.5 4.583,5.417Z" style="fill:#f4b6d1;fill-rule:nonzero;"/><path d="M1015.83,43.854c-0.416,1.667 -1.25,3.75 -3.333,3.75c-2.5,0 -3.75,-1.667 -3.75,-4.167c0,-2.5 2.083,-2.5 3.75,-2.5c1.667,-0.416 3.333,0.834 3.333,2.917Z" style="fill:#f4b6d1;fill-rule:nonzero;"/><path d="M1670,54.271c-5,-1.667 -5.833,-3.75 -3.75,-7.917c3.333,-5.833 6.25,-12.083 8.333,-18.333c2.084,-7.917 0.834,-14.584 -3.75,-16.667c-5.416,-2.5 -12.5,0.417 -17.083,6.667c-12.917,18.333 -25,37.5 -34.167,57.916c-2.5,5.834 -3.75,12.084 -5.416,17.917c-0.417,2.083 -0.417,4.583 2.083,5.833c2.917,1.25 4.583,-0.833 6.25,-2.916c3.75,-4.167 5.417,-9.584 7.083,-14.584c5,-17.083 19.584,-19.583 33.334,-22.083c10.833,-1.667 15,5 10.833,15c-1.25,3.333 -2.5,6.667 -5.833,8.75c-4.584,6.25 -11.25,6.25 -17.917,5.417c-1.25,0 -2.5,-0.834 -2.5,-2.5c0,-1.667 1.25,-2.5 2.5,-2.5c2.917,-0.417 6.25,0 9.167,-0.417c2.916,-0.417 2.916,-2.917 2.916,-5c-6.666,0 -13.333,-2.083 -20,1.667c-3.75,2.083 -7.5,4.166 -6.666,8.75c0.833,4.583 4.166,6.666 8.333,7.916c14.583,3.334 31.25,-5.416 36.667,-20c5.833,-13.75 3.333,-18.333 -10.417,-22.916Zm-24.167,1.25c-0.833,0.416 -1.666,0.416 -2.5,0.833c-2.083,-0.417 -2.916,-2.5 -2.083,-4.167c6.667,-11.25 11.667,-24.166 20.833,-33.75c1.25,-1.25 2.917,-2.083 4.584,-1.25c1.666,0.834 2.916,2.084 2.5,4.167c-4.584,13.75 -9.167,27.083 -23.334,34.167Z" style="fill:#f4b6d1;fill-rule:nonzero;"/><path d="M1782.5,48.854c5.833,-11.25 15,-20 22.083,-30c1.667,-2.5 2.084,-5 -0.416,-7.083c-2.084,-1.667 -4.167,-0.834 -6.25,0.833c-2.084,1.667 -4.167,3.333 -5.834,5.417c-14.583,16.666 -24.583,35.833 -32.083,56.666c-1.25,3.334 -1.667,6.667 -4.167,9.584c-6.666,7.083 -15,10.416 -20,6.666c-4.583,-3.333 -4.166,-8.333 2.084,-18.75c3.75,-6.666 -0.417,-6.666 -5,-6.666c-5,12.083 -15.417,16.666 -27.084,19.583c-2.083,0.417 -4.166,2.083 -5.416,-1.25c-0.834,-2.5 0.416,-4.167 2.916,-5.417c5.834,-2.916 12.084,-5.833 17.917,-9.166c2.083,-1.25 6.25,-1.667 5,-5c-0.833,-2.917 -4.583,-1.667 -7.083,-1.667c-0.834,0 -1.667,0 -2.5,0c-5.417,2.917 -10.834,5.833 -16.25,9.583c-4.167,2.5 -8.334,5 -10.417,10c-0.833,2.917 -3.75,5.417 -0.833,8.334c2.083,2.083 4.583,4.166 8.333,2.916c5.833,-2.083 12.5,-1.25 17.917,-4.583c5,-3.333 8.333,-2.083 12.083,3.333c6.667,9.167 10,9.584 20.417,5c3.333,-1.666 6.666,-4.583 9.583,-4.583c12.917,1.667 20,-7.917 29.167,-14.167c2.916,-3.333 10.416,2.5 10.833,-5.416c-7.5,-2.5 -10.833,-11.667 -20,-11.25c-2.083,0 -1.25,-2.917 -0.417,-4.584c2.084,-2.916 4.167,-5.416 5.417,-8.333Zm-4.167,24.583c-1.25,3.75 -4.166,5.834 -6.666,8.334c-0.834,0.833 -2.084,1.666 -3.334,0.833c-1.666,-1.25 -2.083,-2.5 -0.833,-4.583c1.25,-2.5 2.5,-4.584 3.333,-7.084c0.834,-2.083 2.084,-5 4.167,-3.75c2.083,0.417 2.917,3.75 3.333,6.25Z" style="fill:#f4b6d1;fill-rule:nonzero;"/><path d="M1274.17,0.937c-2.084,-1.25 -4.167,0.834 -5.417,2.5c-0.417,0.834 -1.25,1.25 -1.667,2.084c-18.333,27.916 -44.166,49.166 -65,75c-2.5,2.916 -5,6.666 -10,5.833c-13.333,-2.917 -20,-4.583 -13.75,-18.333c1.25,-2.5 4.167,-5.417 1.25,-8.75c-2.916,-3.334 -6.666,-2.917 -10,-2.084c-14.166,4.584 -27.5,10.834 -37.5,22.5c-2.916,3.334 -6.666,6.667 -3.333,11.667c3.333,5.417 7.917,6.667 14.167,4.583c7.083,-2.5 14.583,-5 20.833,-9.583c2.083,-1.667 5,-4.167 7.083,-1.25c4.167,5.417 12.084,4.583 16.25,8.333c7.917,6.667 12.5,1.667 16.667,-3.333c14.167,-17.083 28.75,-33.333 43.75,-49.167c9.583,-10.416 18.333,-22.083 27.5,-33.333c1.25,-2.083 2.083,-5 -0.833,-6.667Zm-105.417,71.667c-7.917,8.333 -17.5,13.75 -26.667,16.25c-3.333,0.417 -5.416,0 -5.833,-1.667c-0.417,-0.833 0.417,-2.916 1.25,-3.333c7.917,-7.083 16.667,-12.917 27.083,-15.833c1.667,-0.417 3.75,-0.417 4.584,1.25c0.833,0.833 0.416,2.5 -0.417,3.333Z" style="fill:#f4b6d1;fill-rule:nonzero;"/><path d="M1545,87.604c-2.083,0.417 -3.75,0.833 -4.583,-0.833c-1.667,-2.5 0.833,-4.167 2.5,-5.417c3.75,-3.333 6.666,-7.083 8.333,-12.083c1.25,-3.334 0.833,-6.25 -2.083,-8.334c-2.917,-2.083 -5,0 -7.084,2.084c-4.166,4.166 -9.166,7.5 -11.666,12.916c-1.25,2.5 -2.5,5 -5,6.25c-5,2.917 -11.25,4.167 -15,0.834c-3.75,-3.334 2.916,-6.25 4.583,-9.584c0.833,-1.666 1.667,-3.333 2.5,-4.583c2.917,-5 0.833,-8.333 -4.167,-8.75c-16.666,-2.083 -32.916,-1.25 -45.416,12.917c-8.75,3.333 -7.917,9.166 -5.417,16.25c5,6.25 11.25,5.833 18.333,4.583c6.25,-1.25 13.334,-5.417 17.917,-3.333c13.75,6.25 28.75,-5 41.667,4.583c0.833,0.833 2.916,0.417 4.166,0c4.167,-1.25 11.667,-1.667 11.25,-5c-0.833,-6.667 -7.083,-3.333 -10.833,-2.5Zm-42.917,-15c-3.333,9.167 -12.083,14.167 -25,14.167c-2.916,-0.417 -6.666,1.25 -7.916,-2.5c-0.834,-2.917 2.083,-4.584 4.166,-6.25c6.667,-6.25 15.417,-9.167 24.167,-10.834c4.583,-1.25 5.833,0.834 4.583,5.417Z" style="fill:#f4b6d1;fill-rule:nonzero;"/><path d="M2577.92,75.104c0,0 2.916,-17.5 13.75,-14.167c0,0 5.416,0.417 7.916,8.334c0,0 18.334,-4.584 38.334,-51.25l11.25,12.5c0,0 -5,12.5 -30.417,35c0,0 14.167,5.416 39.167,-25.834l12.916,11.667c0,0 -2.916,7.917 -35,20c0,0 18.75,4.583 42.917,-9.583l15.833,14.583l-14.166,14.583c0,0 -21.25,-12.916 -45.417,-11.666c0,0 27.083,7.916 35,22.5l-11.667,11.25c0,0 -15,-25 -40,-28.75c0,0 24.584,21.666 30,37.083l-12.083,11.667c0,0 -7.917,-35.417 -35.417,-50c0,0 -2.5,8.333 -9.583,8.75c0,0 -7.5,1.25 -13.75,-11.25l-1.25,-1.667l-617.5,-0.417l0,-3.75l619.167,0.417Z" style="fill:#f4b6d1;fill-rule:nonzero;"/><path d="M116.25,75.104c0,0 -2.917,-17.5 -13.75,-14.167c0,0 -5.417,0.417 -7.917,8.334c0,0 -18.333,-4.584 -37.916,-51.25l-11.25,12.5c0,0 5,12.5 30.416,35c0,0 -14.166,5.416 -39.166,-25.834l-12.917,11.667c0,0 2.917,7.917 35,20c0,0 -18.75,4.583 -42.917,-9.583l-15.833,14.583l14.167,14.583c0,0 21.25,-12.916 45.416,-11.666c0,0 -27.083,7.916 -35,22.5l11.667,11.25c0,0 15,-25 40,-28.75c0,0 -24.583,21.666 -29.583,37.083l12.083,11.667c0,0 7.917,-35.417 35.417,-50c0,0 2.5,8.333 9.583,8.75c0,0 7.5,1.25 13.75,-11.25l1.25,-1.667l617.083,-0.417l0,-3.75l-619.583,0.417Z" style="fill:#f4b6d1;fill-rule:nonzero;"/><circle cx="1954.17" cy="75.521" r="4.583" style="fill:#f4b6d1;"/><circle cx="739.583" cy="75.521" r="4.583" style="fill:#f4b6d1;"/></svg>