<?xml version="1.0" encoding="UTF-8" standalone="no"?><!DOCTYPE svg PUBLIC "-//W3C//DTD SVG 1.1//EN" "http://www.w3.org/Graphics/SVG/1.1/DTD/svg11.dtd"><svg width="100%" height="100%" viewBox="0 0 2132 2132" version="1.1" xmlns="http://www.w3.org/2000/svg" xmlns:xlink="http://www.w3.org/1999/xlink" xml:space="preserve" xmlns:serif="http://www.serif.com/" style="fill-rule:evenodd;clip-rule:evenodd;stroke-linejoin:round;stroke-miterlimit:1.41421;"><g><path d="M78.508,535.325c-52.341,52.346 -78.508,115 -78.508,187.95l0,989.75c0,72.967 26.167,135.621 78.508,187.962c52.346,52.342 115,78.513 187.963,78.513l38.067,0l0,-1522.7l-38.067,0c-72.979,0 -135.629,26.183 -187.963,78.525Z" style="fill:#c3ccec;fill-rule:nonzero;"/><path d="M1522.69,266.471c0,-31.725 -11.096,-58.683 -33.309,-80.892c-22.187,-22.208 -49.166,-33.304 -80.879,-33.304l-685.217,0c-31.716,0 -58.679,11.096 -80.891,33.304c-22.209,22.196 -33.309,49.163 -33.309,80.892l0,190.329l-190.337,0l0,1522.7l1294.27,0l0,-1522.7l-190.329,0l0,-190.329Zm-761.338,38.067l609.079,0l0,152.262l-609.079,0l0,-152.262Zm761.338,1027.82c0,11.125 -3.563,20.221 -10.696,27.379c-7.129,7.113 -16.25,10.692 -27.346,10.692l-266.471,0l0,266.471c0,11.092 -3.592,20.221 -10.721,27.346c-7.1,7.129 -16.229,10.696 -27.337,10.696l-228.413,0c-11.112,0 -20.225,-3.567 -27.362,-10.696c-7.129,-7.129 -10.7,-16.254 -10.7,-27.346l0,-266.471l-266.471,0c-11.117,0 -20.225,-3.579 -27.363,-10.692c-7.141,-7.162 -10.708,-16.254 -10.708,-27.379l0,-228.396c0,-11.125 3.567,-20.245 10.708,-27.379c7.121,-7.121 16.246,-10.683 27.342,-10.683l266.471,0l0,-266.479c0,-11.109 3.567,-20.221 10.708,-27.363c7.138,-7.137 16.246,-10.7 27.363,-10.7l228.408,0c11.104,0 20.229,3.563 27.346,10.7c7.129,7.142 10.721,16.254 10.721,27.363l0,266.475l266.471,0c11.095,0 20.22,3.562 27.345,10.683c7.117,7.133 10.68,16.254 10.68,27.379l0,228.396l0.025,0l0,0.004Z" style="fill:#3755be;fill-rule:nonzero;"/><path d="M2053.27,535.325c-52.346,-52.342 -115.004,-78.525 -187.963,-78.525l-38.071,0l0,1522.7l38.071,0c72.963,0 135.617,-26.167 187.963,-78.513c52.329,-52.341 78.508,-115 78.508,-187.962l0,-989.75c-0.004,-72.95 -26.183,-135.604 -78.508,-187.95Z" style="fill:#c3ccec;fill-rule:nonzero;"/></g></svg>